<svg xmlns="http://www.w3.org/2000/svg" xmlns:xlink="http://www.w3.org/1999/xlink" width="1320" height="506.835" viewBox="0 0 1320 506.835">
  <defs>
    <clipPath id="clip-path">
      <path id="Rectangle_652" data-name="Rectangle 652" d="M1299.213,0H20.787C9.307,0,0,8.4,0,18.772V488.063c0,10.367,9.307,18.772,20.787,18.772H1299.213c11.48,0,20.787-8.4,20.787-18.772V18.772C1320,8.4,1310.693,0,1299.213,0Z" transform="translate(144.332 70)" fill="#73d8c0"/>
    </clipPath>
  </defs>
  <g id="Grupo_1054918" data-name="Grupo 1054918" transform="translate(-144.332 -70)">
    <path id="Rectangle_652-2" data-name="Rectangle 652" d="M1299.213,0H20.787C9.307,0,0,8.4,0,18.772V488.063c0,10.367,9.307,18.772,20.787,18.772H1299.213c11.48,0,20.787-8.4,20.787-18.772V18.772C1320,8.4,1310.693,0,1299.213,0Z" transform="translate(144.332 70)" fill="#73d8c0"/>
    <g id="Enmascarar_grupo_60" data-name="Enmascarar grupo 60" clip-path="url(#clip-path)">
      <g id="Grupo_1054384" data-name="Grupo 1054384" transform="translate(-260.063 -469.798)">
        <path id="Trazado_771747" data-name="Trazado 771747" d="M1445.033,638.072c20.539-3.731,22.568-20.078,25.08-39.583,6.151-47.763-4.474-97.612,9.544-143.684a139.751,139.751,0,0,1,35.672-58.8c13.12-12.866,28.65-23,42.423-35.164s26.161-27.147,30.009-45.115c5.572-26.013-7.615-53.314-2.09-79.337,4.1-19.3,18.092-35.187,34.106-46.708,8.006-5.76,17.2-10.822,27.064-10.579,13.5.333,25.074,10.845,30.719,23.118s6.52,26.125,7.266,39.613c5.069,91.624,8.222,183.566,1.731,275.1-3.9,55.044-11.829,111.485-39.38,159.3-8.077,14.017-18,27.346-31.265,36.6-17.322,12.087-38.883,16.28-59.894,18.455-47.823,4.948-96.068.941-143.979-3.068-26.678-2.232-105.387,5.573-90.847-45.083,3.281-11.432,13.2-19.627,23.223-26.03,18.873-12.056,40.686-20.586,63.076-20.133,10.975.222,21.909,2.583,32.85,1.7Q1442.835,638.473,1445.033,638.072Z" transform="translate(93.962 336.174)" fill="#baefe4"/>
        <path id="Trazado_771748" data-name="Trazado 771748" d="M260.739,794.082c-.48-2.367-.932-4.736-1.379-7.095-5.08-26.775-9.76-52.414-34.019-69.067-19.738-13.548-46.147-12.31-69.32-6.3S110.665,727.853,86.9,730.778c-36.33,4.471-74.461-9.667-99.092-36.744-17.513-19.25-29.41-45.173-52.843-56.5-15.311-7.4-33.39-7.165-49.9-3.088-30.36,7.5-56.856,27.373-75.575,52.423s-30.074,55.025-36.381,85.654a299.363,299.363,0,0,0,1.013,125.047c9.669,43.379,29.9,85.485,63.247,114.87,15.984,14.087,34.594,24.955,53.988,33.777,80.832,36.768,173.273,37.931,261.657,29.328,54.337-5.289,109.833-14.531,156.838-42.3,27.356-16.161,31.363-45.294,40.953-72.9,9.679-27.866,3.95-61.618-17.013-82.942-19-19.329-47.716-28.758-62.038-51.772C265.835,816.115,262.98,805.132,260.739,794.082Z" transform="translate(520.305 240.916)" fill="#baefe4"/>
        <path id="Trazado_771749" data-name="Trazado 771749" d="M36.152,135.909c8.362-24.038,5.425-50.145,4.332-75.431s.413-52.636,15.626-73c8.862-11.863,21.945-20.671,27.917-34.244C92.931-67,82.41-91.127,65.982-105.052c-8.66-7.34-19.4-12.877-30.785-12.626-14.273.314-27.068,9.533-37.3,19.892C-46.542-52.8-58.2,14.8-64.88,77.731c-2.565,24.156-4.55,49.62,5.212,71.517C-39.046,195.5,21.233,178.8,36.152,135.909Z" transform="translate(428.063 587.484)" fill="#fff"/>
        <path id="Trazado_771750" data-name="Trazado 771750" d="M26.768,911.307c-6.127-13.421-12.147-27.47-23.078-37.379s-28.424-14.355-40.553-5.954C-45,873.612-48.927,883.491-55.38,891c-5.543,6.451-12.875,11.061-19.279,16.658S-86.826,920.5-87.428,928.987c-.984,13.88,11.774,24.7,24.174,31.016A137.232,137.232,0,0,0,6.138,974.659C18.25,974,51.5,969.221,52.007,951.976c.2-6.825-8.383-12.16-12.133-17.039C34.392,927.808,30.483,919.446,26.768,911.307Z" transform="translate(502.691 108.627)" fill="#025157"/>
        <path id="Trazado_771751" data-name="Trazado 771751" d="M633.834,1042.341a85.567,85.567,0,0,1-40.412-30.565c-3.786-5.3-6.954-11.02-10.787-16.285-7.133-9.8-16.8-18.047-28.29-21.9s-24.871-2.872-34.816,4.051c-7.078,4.927-12.446,12.684-20.688,15.222-8.572,2.639-17.678-1.14-26.638-1.557-18.309-.852-35.808,14.778-37.02,33.067-.213,3.217.051,6.588,1.648,9.389,1.487,2.609,3.985,4.476,6.533,6.063,10.857,6.764,23.6,9.711,36.149,12.213,31.122,6.206,62.617,10.325,94.084,14.441l36.615,4.788c7.171.938,14.924,1.772,21.225-1.777a16.87,16.87,0,0,0-12.194-31.108" transform="translate(319.944 18.961)" fill="#fff"/>
        <g id="Grupo_1054382" data-name="Grupo 1054382" transform="translate(520.914 571.267)">
          <path id="Trazado_771752" data-name="Trazado 771752" d="M328.107,270.06c1.892-8.725,3.719-18.165.045-26.3-4.106-9.09-14.415-14.186-24.381-14.587-8.541-.344-18.119,3.129-21.4,11.023-2.785,6.707-.944,15.915-6.871,20.111-2.278,1.612-5.2,1.98-7.715,3.182a12.832,12.832,0,0,0-7.045,9.552c-2.707,18.508,22.036,15.671,32.68,12.883C305.441,282.776,324.9,284.838,328.107,270.06Z" transform="translate(-244.396 -229.149)" fill="#f5947a"/>
          <path id="Trazado_771753" data-name="Trazado 771753" d="M236.989,247.605c3.317,2.323,8.476,1.093,10.577-2.37a8.472,8.472,0,0,0-2.315-10.818c-4.278-3.118-11.3-1.008-13.144,3.953s2.079,11.148,7.354,11.588" transform="translate(-231.644 -230.828)" fill="#025157"/>
        </g>
        <path id="Trazado_771754" data-name="Trazado 771754" d="M-244.236,275.347c54,4.352,123.559,31.788,167.7-12.007,17.623-17.485,26.9-43.411,23.027-67.932-2.748-17.381-11.6-33.285-14.92-50.567C-74.924,110.989-57.166,73.9-26.72,57.735c32.333-17.168,70.808-15.1,99.6-40.146a112.256,112.256,0,0,0,25.9-33.668,76.055,76.055,0,0,0,6.675-17.368C111.392-59.082,98.24-84.864,85.52-107.9" transform="translate(499.865 510.709)" fill="none" stroke="#025157" stroke-miterlimit="10" stroke-width="1.607"/>
        <path id="Trazado_771755" data-name="Trazado 771755" d="M63.719,484.751c4.139-20.548,1.385-42.53,7.05-62.862,2.042-7.329,5.147-14.311,8.24-21.262l4.486-10.08A183.435,183.435,0,0,1,70.071,472.96a132.184,132.184,0,0,1-4.658,12.766q2.185-3.612,4.377-7.219c4.9-8.039,9.838-16.142,16.272-23.013,5.71-6.1,12.472-11.09,18.836-16.5s12.462-11.4,16.293-18.825c.745,5.736-.883,11.579-3.556,16.709s-6.351,9.654-10,14.139c-7.253,8.907-14.549,17.859-23.163,25.458-4.83,4.332-10.121,8.128-15.21,12.142-2.254,1.778-5.419,3.905-8.143,6.273a137.854,137.854,0,0,1-16.97,25.477c9.083-4.1,18.115-8.358,25.673-14.78,5.3-4.5,9.862-10.058,16.047-13.245,7.171-3.7,15.576-3.741,23.6-4.614s16.645-3.086,21.488-9.538c-3.331,7.447-9.018,13.648-15.445,18.673s-13.617,8.97-20.772,12.891C83.406,515.963,71.514,522.33,58.6,522.633c-4.677.109-9.386-.588-14.016.081a18.872,18.872,0,0,0-3.088.72q-3.968,4.45-8.31,8.547-3.211,3.025-6.489,5.888a70.894,70.894,0,0,1,29.542-5.776c10.669.077,21.249,2.075,31.537,4.9,4.621,1.269,9.225,2.713,13.984,3.273s9.766.181,14.017-2.033c-4.36,4.156-8.768,8.349-13.953,11.416s-11.289,4.949-17.246,4.06c-5.571-.831-10.529-3.972-15.982-5.383-6.524-1.688-13.432-.828-20.1-1.775-5.477-.777-10.718-2.76-16.17-3.692a29.78,29.78,0,0,0-6.3-.446c-1.773.077-3.831.98-5.539.829-.062-.006-.113-.014-.17-.021A133.782,133.782,0,0,1-11.7,562.6a7.731,7.731,0,0,1-2.874.776,2.73,2.73,0,0,1-2.5-1.341,2.768,2.768,0,0,1,.753-3.052,8.419,8.419,0,0,1,2.915-1.617,147.863,147.863,0,0,0,27.524-14.421c-1.469-1.385-1.884-7.044-2.5-8.7A56.427,56.427,0,0,0,5.655,523C1.19,516.2-3.986,509.64-6.273,501.837c-1.868-6.373-1.669-13.21-.413-19.732s3.535-12.8,5.8-19.037c-1.423,4.41.1,9.241,2.266,13.337s5,7.88,6.482,12.272c2.225,6.607,1.183,14.012,3.645,20.535,1.636,4.335,4.713,7.984,6.568,12.229a23.771,23.771,0,0,1,1.641,12.907,22.9,22.9,0,0,1-1.591,5.833q1.973-1.41,3.9-2.883a103.268,103.268,0,0,0,11.5-10.367,14.214,14.214,0,0,0-.411-10.562c-2.162-4.693-6.757-7.9-9.015-12.549-2.1-4.323-1.94-9.37-3.171-14.015-1.292-4.872-4.118-9.3-4.846-14.29-1.9-13,10.752-24.7,9.268-37.75,2.5,16.09,5.336,32.168,9.856,47.811,1.381,4.781,2.92,9.514,4.3,14.293,1.669,5.765,3.25,12.194,1.861,18.2,2.988-3.638,5.824-7.377,8.514-11.106q2.684-3.721,5.181-7.572a15.647,15.647,0,0,0,.458-3.736,38.087,38.087,0,0,0-1.318-8.667c-1.17-5.044-2.384-10.195-5.151-14.571-2.108-3.334-5.05-6.1-7-9.529-4.112-7.231-3.22-16.22-1.371-24.33s4.551-16.279,3.666-24.55c6.457,11.075,8.434,24.12,10.14,36.825q1.959,14.593,3.652,29.22a52.293,52.293,0,0,1,.486,10.849,24.7,24.7,0,0,1-.687,3.919q2.127-3.494,4.1-7.079C62.588,486.768,63.149,485.767,63.719,484.751Z" transform="translate(711.992 489.504) rotate(9)" fill="#f3f9ff"/>
        <g id="Grupo_1054383" data-name="Grupo 1054383" transform="translate(-128.174 522.499)">
          <path id="Trazado_771758" data-name="Trazado 771758" d="M1720.12,180.691c-.461,2.236-.667,5.07,1.3,6.585,1.469,1.128,3.289,2.113,5.212,1.758,3.535-.652,3.4-3.346,3.62-6.481a11.526,11.526,0,0,0-.482-4.953,4.862,4.862,0,0,0-3.569-3.19,4.765,4.765,0,0,0-4.231,1.865A10.1,10.1,0,0,0,1720.12,180.691Z" transform="translate(-25.16 -70.018)" fill="#f5947a"/>
          <path id="Trazado_771759" data-name="Trazado 771759" d="M1701.073,143.653a3.885,3.885,0,0,0-.177-1.325,4.041,4.041,0,0,0-.557-.932l-1.36-1.869a6.043,6.043,0,0,0-1.756-1.813,3.9,3.9,0,0,0-3.264-.127,8.661,8.661,0,0,0-2.776,1.879,10.344,10.344,0,0,0-2.471,3.182c-2.209,4.848,1.936,10.9,6.326,12.951C1701.377,158.564,1701.119,147.022,1701.073,143.653Z" transform="translate(-10.062 -52.366)" fill="#f5947a"/>
          <path id="Trazado_771760" data-name="Trazado 771760" d="M1680.738,101.727a4.977,4.977,0,0,0-1.444-1.874c-2.31-2.166-4.707-4.387-7.68-5.479a3.786,3.786,0,0,0-2.8-.155c-1.353.6-1.748,2.32-1.828,3.8-.209,3.856,1.25,9.394,5.787,10.194C1675.83,108.753,1682.023,105.44,1680.738,101.727Z" transform="translate(0 -31.76)" fill="#f5947a"/>
          <path id="Trazado_771761" data-name="Trazado 771761" d="M1698.794,48.074c-1.109-2.139-3-4.286-5.407-4.178a7.591,7.591,0,0,0-4.136,2.069,10.263,10.263,0,0,0-3.478,3.92,8.786,8.786,0,0,0-.5,2.627c-.393,5.437,3.82,10.529,9.738,9.326C1701.118,60.6,1701.019,52.367,1698.794,48.074Z" transform="translate(-8.705 -7.9)" fill="#f5947a"/>
          <path id="Trazado_771762" data-name="Trazado 771762" d="M1743.049,36.146a8.688,8.688,0,0,0,.872-2.463,8.112,8.112,0,0,0-.718-3.906,3.915,3.915,0,0,0-1.528-2.216c-1.042-.568-2.333-.117-3.387.427-3.454,1.784-6.331,4.486-9.159,7.153a8.31,8.31,0,0,0-1.553,1.772,5.673,5.673,0,0,0-.69,2.711c-.107,3.726,3.2,7.839,7.227,6.535C1738.687,44.677,1741.145,40.18,1743.049,36.146Z" transform="translate(-28.526)" fill="#f5947a"/>
          <path id="Trazado_771763" data-name="Trazado 771763" d="M1721.931,98.89a7.6,7.6,0,0,0,1.672-2.032c.508-1.3-.286-2.752-1.281-3.727a12.792,12.792,0,0,0-4.639-2.739,5.2,5.2,0,0,0-3.371-.339,3.932,3.932,0,0,0-2.293,2.467,11.211,11.211,0,0,0-.5,3.435c-.1,2.823-.038,7.92,3.732,8.416C1718.777,104.835,1720.1,100.958,1721.931,98.89Z" transform="translate(-21.203 -29.799)" fill="#f5947a"/>
          <path id="Trazado_771764" data-name="Trazado 771764" d="M1764.948,82.158a5.4,5.4,0,0,0-3.679-5.249,8.915,8.915,0,0,0-4.141-.048,10.763,10.763,0,0,0-3.274,1,9.366,9.366,0,0,0-4.268,6.11,8.849,8.849,0,0,0-.189,4.169c.933,4.015,5.962,5.905,9.692,4.722C1763.266,91.534,1764.768,86.021,1764.948,82.158Z" transform="translate(-39.163 -23.491)" fill="#f5947a"/>
          <path id="Trazado_771765" data-name="Trazado 771765" d="M1788.9,126.633a11.81,11.81,0,0,0,.293-3.324c-.01-1.494-.073-3.133-1.069-4.246-1.083-1.211-2.888-1.383-4.511-1.429a12.369,12.369,0,0,0-3.741.3,4.125,4.125,0,0,0-2.962,5.8c.958,2.63,3.217,5.47,6.058,6.12A5,5,0,0,0,1788.9,126.633Z" transform="translate(-52.179 -42.999)" fill="#f5947a"/>
          <path id="Trazado_771766" data-name="Trazado 771766" d="M1744.541,138.089a10.445,10.445,0,0,0-2.677-4.993c-1.839-2.247-4.027-4.556-6.9-4.969a2.073,2.073,0,0,0-2.7,1.523,9.168,9.168,0,0,0,.219,5.7,23.419,23.419,0,0,0,2.68,5.129c1.142,1.769,3.143,4.718,5.65,4.063C1743.226,143.909,1744.842,140.358,1744.541,138.089Z" transform="translate(-30.915 -47.981)" fill="#f5947a"/>
          <path id="Trazado_771767" data-name="Trazado 771767" d="M1783.067,165.538a5.767,5.767,0,0,0-2-4.606,6.754,6.754,0,0,0-4.352-.891,5.942,5.942,0,0,0-3.422.982c-1.263,1-1.63,2.737-1.775,4.339a14.692,14.692,0,0,0,.339,5.324c.769,2.71,3.649,6.279,6.7,4.493C1781.556,173.422,1783.151,168.8,1783.067,165.538Z" transform="translate(-49.732 -63.185)" fill="#f5947a"/>
        </g>
        <g id="Grupo_1054385" data-name="Grupo 1054385" transform="translate(-1252.054 952.722)">
          <path id="Trazado_771758-2" data-name="Trazado 771758" d="M1719.972,177.662c-.24,1.165-.348,2.641.679,3.43a3.539,3.539,0,0,0,2.715.916c1.842-.34,1.771-1.743,1.886-3.376a6,6,0,0,0-.251-2.58,2.533,2.533,0,0,0-1.859-1.662,2.482,2.482,0,0,0-2.2.971A5.261,5.261,0,0,0,1719.972,177.662Z" transform="translate(-38.426 -106.936)" fill="#f5947a"/>
          <path id="Trazado_771759-2" data-name="Trazado 771759" d="M1694.857,140.605a2.025,2.025,0,0,0-.092-.69,2.11,2.11,0,0,0-.29-.485l-.708-.974a3.146,3.146,0,0,0-.914-.944,2.032,2.032,0,0,0-1.7-.066,4.509,4.509,0,0,0-1.446.979,5.386,5.386,0,0,0-1.287,1.657c-1.151,2.525,1.008,5.676,3.3,6.746C1695.015,148.372,1694.881,142.36,1694.857,140.605Z" transform="translate(-15.368 -79.977)" fill="#f5947a"/>
          <path id="Trazado_771760-2" data-name="Trazado 771760" d="M1674.138,98.029a2.592,2.592,0,0,0-.752-.976,12.389,12.389,0,0,0-4-2.854,1.972,1.972,0,0,0-1.46-.081,2.167,2.167,0,0,0-.952,1.979c-.109,2.008.651,4.893,3.014,5.31C1671.582,101.689,1674.807,99.963,1674.138,98.029Z" transform="translate(0 -48.506)" fill="#f5947a"/>
          <path id="Trazado_771761-2" data-name="Trazado 771761" d="M1692.3,46.071c-.577-1.114-1.562-2.233-2.816-2.176a3.954,3.954,0,0,0-2.155,1.078,5.345,5.345,0,0,0-1.811,2.042,4.576,4.576,0,0,0-.261,1.368c-.2,2.832,1.99,5.484,5.072,4.857C1693.514,52.593,1693.463,48.307,1692.3,46.071Z" transform="translate(-13.295 -12.066)" fill="#f5947a"/>
          <path id="Trazado_771762-2" data-name="Trazado 771762" d="M1735.3,31.907a4.526,4.526,0,0,0,.454-1.283,4.225,4.225,0,0,0-.374-2.034,2.04,2.04,0,0,0-.8-1.154,1.942,1.942,0,0,0-1.764.222,21.809,21.809,0,0,0-4.771,3.726,4.328,4.328,0,0,0-.809.923,2.955,2.955,0,0,0-.359,1.412c-.056,1.941,1.667,4.083,3.764,3.4C1733.031,36.35,1734.311,34.008,1735.3,31.907Z" transform="translate(-43.568)" fill="#f5947a"/>
          <path id="Trazado_771763-2" data-name="Trazado 771763" d="M1716.933,94.579a3.96,3.96,0,0,0,.871-1.058,1.914,1.914,0,0,0-.667-1.941,6.663,6.663,0,0,0-2.416-1.427,2.708,2.708,0,0,0-1.756-.177,2.048,2.048,0,0,0-1.194,1.285,5.841,5.841,0,0,0-.258,1.789c-.054,1.471-.02,4.125,1.944,4.384C1715.29,97.675,1715.979,95.656,1716.933,94.579Z" transform="translate(-32.383 -45.512)" fill="#f5947a"/>
          <path id="Trazado_771764-2" data-name="Trazado 771764" d="M1757.414,79.515a2.812,2.812,0,0,0-1.916-2.734,4.644,4.644,0,0,0-2.157-.025,5.608,5.608,0,0,0-1.706.52,4.879,4.879,0,0,0-2.223,3.182,4.611,4.611,0,0,0-.1,2.172c.486,2.091,3.106,3.076,5.048,2.459C1756.538,84.4,1757.321,81.526,1757.414,79.515Z" transform="translate(-59.813 -35.877)" fill="#f5947a"/>
          <path id="Trazado_771765-2" data-name="Trazado 771765" d="M1782.988,122.314a6.152,6.152,0,0,0,.153-1.731,3.276,3.276,0,0,0-.557-2.212,3.174,3.174,0,0,0-2.35-.744,6.443,6.443,0,0,0-1.949.157,2.149,2.149,0,0,0-1.542,3.021,4.982,4.982,0,0,0,3.155,3.188A2.606,2.606,0,0,0,1782.988,122.314Z" transform="translate(-79.692 -65.672)" fill="#f5947a"/>
          <path id="Trazado_771766-2" data-name="Trazado 771766" d="M1738.484,133.295a5.441,5.441,0,0,0-1.394-2.6c-.958-1.17-2.1-2.373-3.595-2.588a1.08,1.08,0,0,0-1.408.793,4.775,4.775,0,0,0,.114,2.969,12.2,12.2,0,0,0,1.4,2.672c.595.921,1.637,2.458,2.943,2.116C1737.8,136.326,1738.64,134.476,1738.484,133.295Z" transform="translate(-47.215 -73.281)" fill="#f5947a"/>
          <path id="Trazado_771767-2" data-name="Trazado 771767" d="M1777.488,162.893a3,3,0,0,0-1.043-2.4,3.518,3.518,0,0,0-2.267-.464,3.1,3.1,0,0,0-1.782.511,3.139,3.139,0,0,0-.925,2.26,7.651,7.651,0,0,0,.176,2.773c.4,1.412,1.9,3.271,3.49,2.34C1776.7,167,1777.532,164.592,1777.488,162.893Z" transform="translate(-75.954 -96.502)" fill="#f5947a"/>
        </g>
        <path id="Trazado_771768" data-name="Trazado 771768" d="M63.719,484.751c4.139-20.548,1.385-42.53,7.05-62.862,2.042-7.329,5.147-14.311,8.24-21.262l4.486-10.08A183.435,183.435,0,0,1,70.071,472.96a132.184,132.184,0,0,1-4.658,12.766q2.185-3.612,4.377-7.219c4.9-8.039,9.838-16.142,16.272-23.013,5.71-6.1,12.472-11.09,18.836-16.5s12.462-11.4,16.293-18.825c.745,5.736-.883,11.579-3.556,16.709s-6.351,9.654-10,14.139c-7.253,8.907-14.549,17.859-23.163,25.458-4.83,4.332-10.121,8.128-15.21,12.142-2.254,1.778-5.419,3.905-8.143,6.273a137.854,137.854,0,0,1-16.97,25.477c9.083-4.1,18.115-8.358,25.673-14.78,5.3-4.5,9.862-10.058,16.047-13.245,7.171-3.7,15.576-3.741,23.6-4.614s16.645-3.086,21.488-9.538c-3.331,7.447-9.018,13.648-15.445,18.673s-13.617,8.97-20.772,12.891C83.406,515.963,71.514,522.33,58.6,522.633c-4.677.109-9.386-.588-14.016.081a18.872,18.872,0,0,0-3.088.72q-3.968,4.45-8.31,8.547-3.211,3.025-6.489,5.888a70.894,70.894,0,0,1,29.542-5.776c10.669.077,21.249,2.075,31.537,4.9,4.621,1.269,9.225,2.713,13.984,3.273s9.766.181,14.017-2.033c-4.36,4.156-8.768,8.349-13.953,11.416s-11.289,4.949-17.246,4.06c-5.571-.831-10.529-3.972-15.982-5.383-6.524-1.688-13.432-.828-20.1-1.775-5.477-.777-10.718-2.76-16.17-3.692a29.78,29.78,0,0,0-6.3-.446c-1.773.077-3.831.98-5.539.829-.062-.006-.113-.014-.17-.021A133.782,133.782,0,0,1-11.7,562.6a7.731,7.731,0,0,1-2.874.776,2.73,2.73,0,0,1-2.5-1.341,2.768,2.768,0,0,1,.753-3.052,8.419,8.419,0,0,1,2.915-1.617,147.863,147.863,0,0,0,27.524-14.421c-1.469-1.385-1.884-7.044-2.5-8.7A56.427,56.427,0,0,0,5.655,523C1.19,516.2-3.986,509.64-6.273,501.837c-1.868-6.373-1.669-13.21-.413-19.732s3.535-12.8,5.8-19.037c-1.423,4.41.1,9.241,2.266,13.337s5,7.88,6.482,12.272c2.225,6.607,1.183,14.012,3.645,20.535,1.636,4.335,4.713,7.984,6.568,12.229a23.771,23.771,0,0,1,1.641,12.907,22.9,22.9,0,0,1-1.591,5.833q1.973-1.41,3.9-2.883a103.268,103.268,0,0,0,11.5-10.367,14.214,14.214,0,0,0-.411-10.562c-2.162-4.693-6.757-7.9-9.015-12.549-2.1-4.323-1.94-9.37-3.171-14.015-1.292-4.872-4.118-9.3-4.846-14.29-1.9-13,10.752-24.7,9.268-37.75,2.5,16.09,5.336,32.168,9.856,47.811,1.381,4.781,2.92,9.514,4.3,14.293,1.669,5.765,3.25,12.194,1.861,18.2,2.988-3.638,5.824-7.377,8.514-11.106q2.684-3.721,5.181-7.572a15.647,15.647,0,0,0,.458-3.736,38.087,38.087,0,0,0-1.318-8.667c-1.17-5.044-2.384-10.195-5.151-14.571-2.108-3.334-5.05-6.1-7-9.529-4.112-7.231-3.22-16.22-1.371-24.33s4.551-16.279,3.666-24.55c6.457,11.075,8.434,24.12,10.14,36.825q1.959,14.593,3.652,29.22a52.293,52.293,0,0,1,.486,10.849,24.7,24.7,0,0,1-.687,3.919q2.127-3.494,4.1-7.079C62.588,486.768,63.149,485.767,63.719,484.751Z" transform="translate(1473.193 1037.173) rotate(-150)" fill="#f3f9ff"/>
        <path id="Trazado_771756" data-name="Trazado 771756" d="M1732.359,887.493c-17.893-3.146-37-16.263-35.2-35.232,1.443-15.174,15.694-26.588,18.976-41.54,3.994-18.194-9.353-34.715-23.706-44.964s-31.306-18.246-40.217-33.808c-13.679-23.891-2.987-56.016,12.726-79.995,12.794-19.524,31.037-38.071,53.291-40.211,9.176-.883,18.263,1.143,26.9,3.965,62.233,20.327,103.619,79.957,129.779,141.693C1911.55,843.87,1802.95,899.9,1732.359,887.493Z" transform="translate(-55.201 138.622)" fill="#f5947a"/>
        <path id="Trazado_771757" data-name="Trazado 771757" d="M1453.933,1067.459c2.359,1.22-3,1.464-3.32-1.173-2.19-18.129,11.014-35.276,27.243-43.647s34.989-9.908,53.176-11.548,36.995-3.736,52.732-13c22.726-13.378,34.745-38.873,47.6-61.9s30.56-46.84,56.519-51.487c20.689-3.7,41.164,5.816,61.857,9.5a112.693,112.693,0,0,0,51.947-3.014" transform="translate(-5.998 14.213)" fill="none" stroke="#31585e" stroke-miterlimit="10" stroke-width="1.607"/>
      </g>
    </g>
    <line id="Línea_296" data-name="Línea 296" y1="19.509" x2="19.509" transform="translate(1274.004 379.573)" fill="none" stroke="#73d8c0" stroke-linecap="round" stroke-width="18"/>
  </g>
</svg>
