<svg xmlns="http://www.w3.org/2000/svg" width="812" height="485" viewBox="0 0 812 485">
  <g id="Grupo_56301" data-name="Grupo 56301" transform="translate(-388 -5189)">
    <path id="Trazado_106359" data-name="Trazado 106359" d="M0,0H812V485H0Z" transform="translate(388 5189)" fill="#ffefef"/>
    <g id="Grupo_55932" data-name="Grupo 55932" transform="translate(2509.384 3879.069)">
      <g id="Grupo_55922" data-name="Grupo 55922" transform="translate(-2003.589 1408.336)">
        <path id="Trazado_106328" data-name="Trazado 106328" d="M-2004.384,1448.079v119.374s434.953,8.255,460.352,36.194c0,0,10.794-31.748,46.352-37.464s100.96-15.239,100.96-15.239v-46.353l-58.417-4.19,58.417-2.24,2.54-75.481s-74.292-27.3-144.772-10.159-219.7,27.3-219.7,27.3Z" transform="translate(2004.384 -1406.866)" fill="#fff" stroke="#8c757e" stroke-linecap="round" stroke-linejoin="round" stroke-width="2.445"/>
        <line id="Línea_303" data-name="Línea 303" y2="159.163" transform="translate(506.901 0.155)" fill="none" stroke="#8c757e" stroke-linecap="round" stroke-linejoin="round" stroke-width="2.445"/>
        <line id="Línea_304" data-name="Línea 304" y1="189.624" transform="translate(460.352 7.156)" fill="none" stroke="#8c757e" stroke-linecap="round" stroke-linejoin="round" stroke-width="2.445"/>
        <line id="Línea_305" data-name="Línea 305" y1="136.363" transform="translate(242.239 32.959)" fill="none" stroke="#8c757e" stroke-linecap="round" stroke-linejoin="round" stroke-width="2.445"/>
        <line id="Línea_306" data-name="Línea 306" x2="549.248" y2="2.24" transform="translate(0 91.296)" fill="none" stroke="#8c757e" stroke-linecap="round" stroke-linejoin="round" stroke-width="2.445"/>
        <line id="Línea_307" data-name="Línea 307" y2="112.072" transform="translate(19.367 44.388)" fill="none" stroke="#ff9696" stroke-linecap="round" stroke-linejoin="round" stroke-width="2.113" stroke-dasharray="3.281"/>
        <line id="Línea_308" data-name="Línea 308" y2="117.893" transform="translate(120.009 41.002)" fill="none" stroke="#ff9696" stroke-linecap="round" stroke-linejoin="round" stroke-width="2.113" stroke-dasharray="3.281"/>
        <line id="Línea_309" data-name="Línea 309" y2="126.041" transform="translate(213.032 37.721)" fill="none" stroke="#ff9696" stroke-linecap="round" stroke-linejoin="round" stroke-width="2.113" stroke-dasharray="3.281"/>
        <line id="Línea_310" data-name="Línea 310" y2="134.613" transform="translate(293.355 32.959)" fill="none" stroke="#ff9696" stroke-linecap="round" stroke-linejoin="round" stroke-width="2.113" stroke-dasharray="3.281"/>
        <line id="Línea_311" data-name="Línea 311" y2="143.08" transform="translate(345.635 28.514)" fill="none" stroke="#ff9696" stroke-linecap="round" stroke-linejoin="round" stroke-width="2.113" stroke-dasharray="3.281"/>
        <line id="Línea_312" data-name="Línea 312" y2="166.362" transform="translate(430.72 16.238)" fill="none" stroke="#ff9696" stroke-linecap="round" stroke-linejoin="round" stroke-width="2.113" stroke-dasharray="3.281"/>
        <line id="Línea_313" data-name="Línea 313" x1="33.865" y2="179.431" transform="translate(443.42 6.132)" fill="none" stroke="#ff9696" stroke-linecap="round" stroke-linejoin="round" stroke-width="2.113" stroke-dasharray="3.281"/>
      </g>
      <path id="Trazado_106329" data-name="Trazado 106329" d="M-1509.414,1576.3v28.256l38.356,12.773v27.288" transform="translate(12.726 5.555)" fill="none" stroke="#8c757e" stroke-linecap="round" stroke-linejoin="round" stroke-width="2.445"/>
      <line id="Línea_314" data-name="Línea 314" y2="40.989" transform="translate(-1761.35 1605.117)" fill="#fff" stroke="#8c757e" stroke-linecap="round" stroke-linejoin="round" stroke-width="2.445"/>
      <line id="Línea_315" data-name="Línea 315" y2="51.383" transform="translate(-2003.589 1594.724)" fill="#fff" stroke="#8c757e" stroke-linecap="round" stroke-linejoin="round" stroke-width="2.445"/>
      <line id="Línea_316" data-name="Línea 316" y1="64.252" transform="translate(-1984.222 1372.598)" fill="#fff" stroke="#ff9696" stroke-linecap="round" stroke-linejoin="round" stroke-width="2.445"/>
      <line id="Línea_317" data-name="Línea 317" y1="64.252" transform="translate(-1883.58 1372.598)" fill="#fff" stroke="#ff9696" stroke-linecap="round" stroke-linejoin="round" stroke-width="2.445"/>
      <line id="Línea_318" data-name="Línea 318" y1="58.108" transform="translate(-1790.557 1372.598)" fill="#fff" stroke="#ff9696" stroke-linecap="round" stroke-linejoin="round" stroke-width="2.445"/>
      <line id="Línea_319" data-name="Línea 319" y1="51.963" transform="translate(-1710.234 1372.598)" fill="#fff" stroke="#ff9696" stroke-linecap="round" stroke-linejoin="round" stroke-width="2.445"/>
      <line id="Línea_320" data-name="Línea 320" y1="49.544" x2="22.251" transform="translate(-1657.954 1368.873)" fill="#fff" stroke="#ff9696" stroke-linecap="round" stroke-linejoin="round" stroke-width="2.445"/>
      <line id="Línea_321" data-name="Línea 321" y1="36.602" transform="translate(-1572.869 1372.598)" fill="#fff" stroke="#ff9696" stroke-linecap="round" stroke-linejoin="round" stroke-width="2.445"/>
      <line id="Línea_322" data-name="Línea 322" y1="29.433" x2="12.784" transform="translate(-1522.208 1372.598)" fill="#fff" stroke="#ff9696" stroke-linecap="round" stroke-linejoin="round" stroke-width="2.445"/>
      <line id="Línea_323" data-name="Línea 323" y2="30.578" transform="translate(-1543.237 1615.529)" fill="#fff" stroke="#8c757e" stroke-linecap="round" stroke-linejoin="round" stroke-width="2.445"/>
      <path id="Trazado_107944" data-name="Trazado 107944" d="M-18.367,0h-1.508L-25.6-8.766V0h-1.508V-11.375H-25.6l5.742,8.8v-8.8h1.492Zm4.008,0H-15.8V-8.453h1.445Zm-1.562-10.7a.863.863,0,0,1,.215-.594.807.807,0,0,1,.637-.242.819.819,0,0,1,.641.242.854.854,0,0,1,.219.594.826.826,0,0,1-.219.586.834.834,0,0,1-.641.234.821.821,0,0,1-.637-.234A.834.834,0,0,1-15.922-10.7Zm6.664,8.734,2.094-6.492h1.477L-8.719,0h-1.1l-3.062-8.453h1.477ZM-.789.156a3.693,3.693,0,0,1-2.8-1.129,4.19,4.19,0,0,1-1.078-3.02v-.266A5.073,5.073,0,0,1-4.184-6.5,3.748,3.748,0,0,1-2.84-8.051,3.378,3.378,0,0,1-.969-8.609,3.166,3.166,0,0,1,1.594-7.523a4.7,4.7,0,0,1,.914,3.109v.6H-3.219a3,3,0,0,0,.73,2.02,2.3,2.3,0,0,0,1.777.77,2.517,2.517,0,0,0,1.3-.312,3.259,3.259,0,0,0,.93-.828l.883.688A3.55,3.55,0,0,1-.789.156Zm-.18-7.578a1.928,1.928,0,0,0-1.469.637A3.1,3.1,0,0,0-3.172-5H1.063v-.109A2.753,2.753,0,0,0,.469-6.816,1.815,1.815,0,0,0-.969-7.422ZM5.75,0H4.3V-12H5.75Zm5.922-4.3a4.952,4.952,0,0,1,.922-3.129,2.915,2.915,0,0,1,2.414-1.184,2.932,2.932,0,0,1,2.352,1.016V-12H18.8V0H17.477l-.07-.906A2.943,2.943,0,0,1,14.992.156a2.887,2.887,0,0,1-2.395-1.2,5.008,5.008,0,0,1-.926-3.141Zm1.445.164a3.749,3.749,0,0,0,.594,2.25,1.92,1.92,0,0,0,1.641.813A2.108,2.108,0,0,0,17.359-2.3V-6.187a2.125,2.125,0,0,0-1.992-1.2,1.929,1.929,0,0,0-1.656.82A4.128,4.128,0,0,0,13.117-4.133ZM24.555.156a3.693,3.693,0,0,1-2.8-1.129,4.19,4.19,0,0,1-1.078-3.02v-.266A5.073,5.073,0,0,1,21.16-6.5,3.748,3.748,0,0,1,22.5-8.051a3.378,3.378,0,0,1,1.871-.559,3.166,3.166,0,0,1,2.563,1.086,4.7,4.7,0,0,1,.914,3.109v.6H22.125a3,3,0,0,0,.73,2.02,2.3,2.3,0,0,0,1.777.77,2.517,2.517,0,0,0,1.3-.312,3.259,3.259,0,0,0,.93-.828l.883.688A3.55,3.55,0,0,1,24.555.156Zm-.18-7.578a1.928,1.928,0,0,0-1.469.637A3.1,3.1,0,0,0,22.172-5h4.234v-.109a2.753,2.753,0,0,0-.594-1.707A1.815,1.815,0,0,0,24.375-7.422ZM-29.8,16h-1.445V4H-29.8Zm7.531,0a3.036,3.036,0,0,1-.2-.891,3.225,3.225,0,0,1-2.406,1.047,2.984,2.984,0,0,1-2.051-.707,2.287,2.287,0,0,1-.8-1.793,2.39,2.39,0,0,1,1-2.051,4.733,4.733,0,0,1,2.824-.73H-22.5v-.664A1.623,1.623,0,0,0-22.949,9a1.821,1.821,0,0,0-1.336-.449,2.107,2.107,0,0,0-1.3.391,1.151,1.151,0,0,0-.523.945h-1.453a2,2,0,0,1,.449-1.223,3.066,3.066,0,0,1,1.219-.934A4.1,4.1,0,0,1-24.2,7.391a3.342,3.342,0,0,1,2.289.73,2.635,2.635,0,0,1,.859,2.012v3.891a4.757,4.757,0,0,0,.3,1.852V16Zm-2.4-1.1a2.54,2.54,0,0,0,1.289-.352,2.127,2.127,0,0,0,.883-.914V11.9h-1.133q-2.656,0-2.656,1.555a1.316,1.316,0,0,0,.453,1.063A1.742,1.742,0,0,0-24.668,14.9Zm13.234.078a2.082,2.082,0,0,0,1.352-.469,1.649,1.649,0,0,0,.641-1.172h1.367a2.621,2.621,0,0,1-.5,1.383A3.293,3.293,0,0,1-9.8,15.766a3.55,3.55,0,0,1-1.629.391A3.482,3.482,0,0,1-14.18,15a4.59,4.59,0,0,1-1.02-3.152v-.242a5.089,5.089,0,0,1,.453-2.2,3.451,3.451,0,0,1,1.3-1.492,3.7,3.7,0,0,1,2-.531,3.39,3.39,0,0,1,2.363.852,3.043,3.043,0,0,1,1,2.211H-9.441a1.992,1.992,0,0,0-.621-1.348,1.932,1.932,0,0,0-1.379-.527,2.023,2.023,0,0,0-1.707.793,3.724,3.724,0,0,0-.605,2.293v.273a3.65,3.65,0,0,0,.6,2.25A2.033,2.033,0,0,0-11.434,14.977ZM-1.23,16a3.036,3.036,0,0,1-.2-.891A3.225,3.225,0,0,1-3.84,16.156a2.984,2.984,0,0,1-2.051-.707,2.287,2.287,0,0,1-.8-1.793,2.39,2.39,0,0,1,1-2.051,4.733,4.733,0,0,1,2.824-.73h1.406v-.664A1.623,1.623,0,0,0-1.91,9a1.821,1.821,0,0,0-1.336-.449,2.107,2.107,0,0,0-1.3.391,1.151,1.151,0,0,0-.523.945H-6.52A2,2,0,0,1-6.07,8.668a3.066,3.066,0,0,1,1.219-.934A4.1,4.1,0,0,1-3.16,7.391a3.342,3.342,0,0,1,2.289.73,2.635,2.635,0,0,1,.859,2.012v3.891a4.757,4.757,0,0,0,.3,1.852V16Zm-2.4-1.1a2.54,2.54,0,0,0,1.289-.352,2.127,2.127,0,0,0,.883-.914V11.9H-2.59q-2.656,0-2.656,1.555a1.316,1.316,0,0,0,.453,1.063A1.742,1.742,0,0,0-3.629,14.9ZM1.9,11.7a4.952,4.952,0,0,1,.922-3.129A2.915,2.915,0,0,1,5.238,7.391,2.932,2.932,0,0,1,7.59,8.406V4H9.035V16H7.707l-.07-.906a2.943,2.943,0,0,1-2.414,1.063,2.887,2.887,0,0,1-2.395-1.2A5.008,5.008,0,0,1,1.9,11.813Zm1.445.164a3.749,3.749,0,0,0,.594,2.25,1.92,1.92,0,0,0,1.641.813A2.108,2.108,0,0,0,7.59,13.7V9.813A2.125,2.125,0,0,0,5.6,8.617a1.929,1.929,0,0,0-1.656.82A4.128,4.128,0,0,0,3.348,11.867Zm11.438,4.289a3.693,3.693,0,0,1-2.8-1.129,4.19,4.19,0,0,1-1.078-3.02v-.266a5.073,5.073,0,0,1,.48-2.246,3.748,3.748,0,0,1,1.344-1.547,3.378,3.378,0,0,1,1.871-.559,3.166,3.166,0,0,1,2.563,1.086,4.7,4.7,0,0,1,.914,3.109v.6H12.355a3,3,0,0,0,.73,2.02,2.3,2.3,0,0,0,1.777.77,2.517,2.517,0,0,0,1.3-.312,3.259,3.259,0,0,0,.93-.828l.883.688A3.55,3.55,0,0,1,14.785,16.156Zm-.18-7.578a1.928,1.928,0,0,0-1.469.637A3.1,3.1,0,0,0,12.4,11h4.234v-.109a2.753,2.753,0,0,0-.594-1.707A1.815,1.815,0,0,0,14.605,8.578Zm9.234.266a4.331,4.331,0,0,0-.711-.055A1.9,1.9,0,0,0,21.2,10v6H19.754V7.547H21.16l.023.977A2.251,2.251,0,0,1,23.2,7.391a1.477,1.477,0,0,1,.641.109ZM30.074,16a3.036,3.036,0,0,1-.2-.891,3.225,3.225,0,0,1-2.406,1.047,2.984,2.984,0,0,1-2.051-.707,2.287,2.287,0,0,1-.8-1.793,2.39,2.39,0,0,1,1-2.051,4.733,4.733,0,0,1,2.824-.73h1.406v-.664A1.623,1.623,0,0,0,29.395,9a1.821,1.821,0,0,0-1.336-.449,2.107,2.107,0,0,0-1.3.391,1.151,1.151,0,0,0-.523.945H24.785a2,2,0,0,1,.449-1.223,3.066,3.066,0,0,1,1.219-.934,4.1,4.1,0,0,1,1.691-.344,3.342,3.342,0,0,1,2.289.73,2.635,2.635,0,0,1,.859,2.012v3.891a4.757,4.757,0,0,0,.3,1.852V16Zm-2.4-1.1a2.54,2.54,0,0,0,1.289-.352,2.127,2.127,0,0,0,.883-.914V11.9H28.715q-2.656,0-2.656,1.555a1.316,1.316,0,0,0,.453,1.063A1.742,1.742,0,0,0,27.676,14.9Z" transform="translate(-1457.329 1668.352)"/>
      <path id="Trazado_107945" data-name="Trazado 107945" d="M-7.637,0H-9.145l-5.727-8.766V0h-1.508V-11.375h1.508l5.742,8.8v-8.8h1.492Zm4.008,0H-5.074V-8.453h1.445ZM-5.191-10.7a.863.863,0,0,1,.215-.594.807.807,0,0,1,.637-.242.819.819,0,0,1,.641.242.854.854,0,0,1,.219.594.826.826,0,0,1-.219.586.834.834,0,0,1-.641.234.821.821,0,0,1-.637-.234A.834.834,0,0,1-5.191-10.7ZM1.473-1.961,3.566-8.453H5.043L2.012,0H.91L-2.152-8.453H-.676ZM9.941.156a3.693,3.693,0,0,1-2.8-1.129,4.19,4.19,0,0,1-1.078-3.02v-.266A5.073,5.073,0,0,1,6.547-6.5,3.748,3.748,0,0,1,7.891-8.051a3.378,3.378,0,0,1,1.871-.559,3.166,3.166,0,0,1,2.563,1.086,4.7,4.7,0,0,1,.914,3.109v.6H7.512a3,3,0,0,0,.73,2.02,2.3,2.3,0,0,0,1.777.77,2.517,2.517,0,0,0,1.3-.312,3.259,3.259,0,0,0,.93-.828l.883.688A3.55,3.55,0,0,1,9.941.156Zm-.18-7.578a1.928,1.928,0,0,0-1.469.637A3.1,3.1,0,0,0,7.559-5h4.234v-.109A2.753,2.753,0,0,0,11.2-6.816,1.815,1.815,0,0,0,9.762-7.422ZM16.48,0H15.035V-12H16.48ZM-23.676,11.7a4.952,4.952,0,0,1,.922-3.129A2.915,2.915,0,0,1-20.34,7.391a2.932,2.932,0,0,1,2.352,1.016V4h1.445V16h-1.328l-.07-.906a2.943,2.943,0,0,1-2.414,1.063,2.887,2.887,0,0,1-2.395-1.2,5.008,5.008,0,0,1-.926-3.141Zm1.445.164a3.749,3.749,0,0,0,.594,2.25A1.92,1.92,0,0,0-20,14.93,2.108,2.108,0,0,0-17.988,13.7V9.813a2.125,2.125,0,0,0-1.992-1.2,1.929,1.929,0,0,0-1.656.82A4.128,4.128,0,0,0-22.23,11.867Zm11.438,4.289a3.693,3.693,0,0,1-2.8-1.129,4.19,4.19,0,0,1-1.078-3.02v-.266a5.073,5.073,0,0,1,.48-2.246,3.748,3.748,0,0,1,1.344-1.547,3.378,3.378,0,0,1,1.871-.559A3.166,3.166,0,0,1-8.41,8.477,4.7,4.7,0,0,1-7.5,11.586v.6h-5.727a3,3,0,0,0,.73,2.02,2.3,2.3,0,0,0,1.777.77,2.517,2.517,0,0,0,1.3-.312,3.259,3.259,0,0,0,.93-.828l.883.688A3.55,3.55,0,0,1-10.793,16.156Zm-.18-7.578a1.928,1.928,0,0,0-1.469.637A3.1,3.1,0,0,0-13.176,11h4.234v-.109a2.753,2.753,0,0,0-.594-1.707A1.815,1.815,0,0,0-10.973,8.578ZM-4.254,16H-5.7V4h1.445ZM3.98,5.5V7.547H5.559V8.664H3.98v5.249a1.173,1.173,0,0,0,.211.763.888.888,0,0,0,.719.254,3.5,3.5,0,0,0,.688-.094V16a4.215,4.215,0,0,1-1.109.155,1.8,1.8,0,0,1-1.461-.586,2.517,2.517,0,0,1-.492-1.664V8.664H1V7.547H2.535V5.5ZM8.816,16H7.371V7.547H8.816ZM7.254,5.3a.863.863,0,0,1,.215-.594.807.807,0,0,1,.637-.242.819.819,0,0,1,.641.242.854.854,0,0,1,.219.594.826.826,0,0,1-.219.586.834.834,0,0,1-.641.234.821.821,0,0,1-.637-.234A.834.834,0,0,1,7.254,5.3Zm7.961,3.539a4.331,4.331,0,0,0-.711-.055A1.9,1.9,0,0,0,12.574,10v6H11.129V7.547h1.406l.023.977a2.251,2.251,0,0,1,2.016-1.133,1.477,1.477,0,0,1,.641.109ZM16,11.7a4.993,4.993,0,0,1,.488-2.234A3.643,3.643,0,0,1,17.852,7.93a3.7,3.7,0,0,1,1.988-.539,3.565,3.565,0,0,1,2.793,1.2,4.6,4.6,0,0,1,1.066,3.18v.1a5.036,5.036,0,0,1-.473,2.215,3.589,3.589,0,0,1-1.352,1.527,3.743,3.743,0,0,1-2.02.547,3.556,3.556,0,0,1-2.785-1.2A4.575,4.575,0,0,1,16,11.8Zm1.453.172a3.616,3.616,0,0,0,.652,2.258,2.211,2.211,0,0,0,3.5-.012,3.955,3.955,0,0,0,.648-2.418,3.61,3.61,0,0,0-.66-2.254,2.1,2.1,0,0,0-1.754-.863,2.075,2.075,0,0,0-1.727.852A3.925,3.925,0,0,0,17.457,11.867Z" transform="translate(-1545.096 1668.352)"/>
      <path id="Trazado_107949" data-name="Trazado 107949" d="M-7.637,0H-9.145l-5.727-8.766V0h-1.508V-11.375h1.508l5.742,8.8v-8.8h1.492Zm4.008,0H-5.074V-8.453h1.445ZM-5.191-10.7a.863.863,0,0,1,.215-.594.807.807,0,0,1,.637-.242.819.819,0,0,1,.641.242.854.854,0,0,1,.219.594.826.826,0,0,1-.219.586.834.834,0,0,1-.641.234.821.821,0,0,1-.637-.234A.834.834,0,0,1-5.191-10.7ZM1.473-1.961,3.566-8.453H5.043L2.012,0H.91L-2.152-8.453H-.676ZM9.941.156a3.693,3.693,0,0,1-2.8-1.129,4.19,4.19,0,0,1-1.078-3.02v-.266A5.073,5.073,0,0,1,6.547-6.5,3.748,3.748,0,0,1,7.891-8.051a3.378,3.378,0,0,1,1.871-.559,3.166,3.166,0,0,1,2.563,1.086,4.7,4.7,0,0,1,.914,3.109v.6H7.512a3,3,0,0,0,.73,2.02,2.3,2.3,0,0,0,1.777.77,2.517,2.517,0,0,0,1.3-.312,3.259,3.259,0,0,0,.93-.828l.883.688A3.55,3.55,0,0,1,9.941.156Zm-.18-7.578a1.928,1.928,0,0,0-1.469.637A3.1,3.1,0,0,0,7.559-5h4.234v-.109A2.753,2.753,0,0,0,11.2-6.816,1.815,1.815,0,0,0,9.762-7.422ZM16.48,0H15.035V-12H16.48ZM-31.961,11.7a4.952,4.952,0,0,1,.922-3.129,2.915,2.915,0,0,1,2.414-1.184,2.932,2.932,0,0,1,2.352,1.016V4h1.445V16h-1.328l-.07-.906a2.943,2.943,0,0,1-2.414,1.063,2.887,2.887,0,0,1-2.395-1.2,5.008,5.008,0,0,1-.926-3.141Zm1.445.164a3.749,3.749,0,0,0,.594,2.25,1.92,1.92,0,0,0,1.641.813A2.108,2.108,0,0,0-26.273,13.7V9.813a2.125,2.125,0,0,0-1.992-1.2,1.929,1.929,0,0,0-1.656.82A4.128,4.128,0,0,0-30.516,11.867Zm11.438,4.289a3.693,3.693,0,0,1-2.8-1.129,4.19,4.19,0,0,1-1.078-3.02v-.266a5.073,5.073,0,0,1,.48-2.246,3.748,3.748,0,0,1,1.344-1.547,3.378,3.378,0,0,1,1.871-.559A3.166,3.166,0,0,1-16.7,8.477a4.7,4.7,0,0,1,.914,3.109v.6h-5.727a3,3,0,0,0,.73,2.02,2.3,2.3,0,0,0,1.777.77,2.517,2.517,0,0,0,1.3-.312,3.259,3.259,0,0,0,.93-.828l.883.688A3.55,3.55,0,0,1-19.078,16.156Zm-.18-7.578a1.928,1.928,0,0,0-1.469.637A3.1,3.1,0,0,0-21.461,11h4.234v-.109a2.753,2.753,0,0,0-.594-1.707A1.815,1.815,0,0,0-19.258,8.578ZM-8.187,5.5V7.547h1.578V8.664H-8.187v5.249a1.173,1.173,0,0,0,.211.763.888.888,0,0,0,.719.254,3.5,3.5,0,0,0,.688-.094V16a4.215,4.215,0,0,1-1.109.155,1.8,1.8,0,0,1-1.461-.586,2.517,2.517,0,0,1-.492-1.664V8.664h-1.539V7.547h1.539V5.5Zm2.727,6.2a4.993,4.993,0,0,1,.488-2.234A3.643,3.643,0,0,1-3.613,7.93a3.7,3.7,0,0,1,1.988-.539,3.565,3.565,0,0,1,2.793,1.2,4.6,4.6,0,0,1,1.066,3.18v.1a5.036,5.036,0,0,1-.473,2.215A3.589,3.589,0,0,1,.41,15.609a3.743,3.743,0,0,1-2.02.547,3.556,3.556,0,0,1-2.785-1.2A4.575,4.575,0,0,1-5.461,11.8Zm1.453.172a3.616,3.616,0,0,0,.652,2.258,2.088,2.088,0,0,0,1.746.852,2.075,2.075,0,0,0,1.75-.863A3.955,3.955,0,0,0,.789,11.7a3.61,3.61,0,0,0-.66-2.254,2.1,2.1,0,0,0-1.754-.863,2.075,2.075,0,0,0-1.727.852A3.925,3.925,0,0,0-4.008,11.867Zm15.211,0a5.026,5.026,0,0,1-.891,3.113,2.846,2.846,0,0,1-2.391,1.176,2.947,2.947,0,0,1-2.477-1.133L5.375,16H4.047V4H5.492V8.477A2.93,2.93,0,0,1,7.906,7.391a2.863,2.863,0,0,1,2.418,1.164,5.177,5.177,0,0,1,.879,3.188ZM9.758,11.7a3.906,3.906,0,0,0-.57-2.281,1.888,1.888,0,0,0-1.641-.8A2.122,2.122,0,0,0,5.492,9.945V13.6a2.181,2.181,0,0,0,2.07,1.328,1.878,1.878,0,0,0,1.617-.8A4.153,4.153,0,0,0,9.758,11.7ZM14.594,16H13.148V7.547h1.445ZM13.031,5.3a.863.863,0,0,1,.215-.594.807.807,0,0,1,.637-.242.819.819,0,0,1,.641.242.854.854,0,0,1,.219.594.826.826,0,0,1-.219.586.834.834,0,0,1-.641.234.821.821,0,0,1-.637-.234A.834.834,0,0,1,13.031,5.3ZM18.477,16H17.031V4h1.445Zm3.883,0H20.914V4h1.445Zm1.93-4.3a4.993,4.993,0,0,1,.488-2.234A3.643,3.643,0,0,1,26.137,7.93a3.7,3.7,0,0,1,1.988-.539,3.565,3.565,0,0,1,2.793,1.2,4.6,4.6,0,0,1,1.066,3.18v.1a5.036,5.036,0,0,1-.473,2.215,3.589,3.589,0,0,1-1.352,1.527,3.743,3.743,0,0,1-2.02.547,3.556,3.556,0,0,1-2.785-1.2A4.575,4.575,0,0,1,24.289,11.8Zm1.453.172a3.616,3.616,0,0,0,.652,2.258,2.211,2.211,0,0,0,3.5-.012,3.955,3.955,0,0,0,.648-2.418,3.61,3.61,0,0,0-.66-2.254,2.1,2.1,0,0,0-1.754-.863A2.075,2.075,0,0,0,26.4,9.43,3.925,3.925,0,0,0,25.742,11.867Z" transform="translate(-2004.384 1668.352)"/>
      <path id="Trazado_107948" data-name="Trazado 107948" d="M-7.637,0H-9.145l-5.727-8.766V0h-1.508V-11.375h1.508l5.742,8.8v-8.8h1.492Zm4.008,0H-5.074V-8.453h1.445ZM-5.191-10.7a.863.863,0,0,1,.215-.594.807.807,0,0,1,.637-.242.819.819,0,0,1,.641.242.854.854,0,0,1,.219.594.826.826,0,0,1-.219.586.834.834,0,0,1-.641.234.821.821,0,0,1-.637-.234A.834.834,0,0,1-5.191-10.7ZM1.473-1.961,3.566-8.453H5.043L2.012,0H.91L-2.152-8.453H-.676ZM9.941.156a3.693,3.693,0,0,1-2.8-1.129,4.19,4.19,0,0,1-1.078-3.02v-.266A5.073,5.073,0,0,1,6.547-6.5,3.748,3.748,0,0,1,7.891-8.051a3.378,3.378,0,0,1,1.871-.559,3.166,3.166,0,0,1,2.563,1.086,4.7,4.7,0,0,1,.914,3.109v.6H7.512a3,3,0,0,0,.73,2.02,2.3,2.3,0,0,0,1.777.77,2.517,2.517,0,0,0,1.3-.312,3.259,3.259,0,0,0,.93-.828l.883.688A3.55,3.55,0,0,1,9.941.156Zm-.18-7.578a1.928,1.928,0,0,0-1.469.637A3.1,3.1,0,0,0,7.559-5h4.234v-.109A2.753,2.753,0,0,0,11.2-6.816,1.815,1.815,0,0,0,9.762-7.422ZM16.48,0H15.035V-12H16.48ZM-31.867,11.7a4.952,4.952,0,0,1,.922-3.129,2.915,2.915,0,0,1,2.414-1.184A2.932,2.932,0,0,1-26.18,8.406V4h1.445V16h-1.328l-.07-.906a2.943,2.943,0,0,1-2.414,1.063,2.887,2.887,0,0,1-2.395-1.2,5.008,5.008,0,0,1-.926-3.141Zm1.445.164a3.749,3.749,0,0,0,.594,2.25,1.92,1.92,0,0,0,1.641.813A2.108,2.108,0,0,0-26.18,13.7V9.813a2.125,2.125,0,0,0-1.992-1.2,1.929,1.929,0,0,0-1.656.82A4.128,4.128,0,0,0-30.422,11.867Zm11.438,4.289a3.693,3.693,0,0,1-2.8-1.129,4.19,4.19,0,0,1-1.078-3.02v-.266a5.073,5.073,0,0,1,.48-2.246,3.748,3.748,0,0,1,1.344-1.547,3.378,3.378,0,0,1,1.871-.559A3.166,3.166,0,0,1-16.6,8.477a4.7,4.7,0,0,1,.914,3.109v.6h-5.727a3,3,0,0,0,.73,2.02,2.3,2.3,0,0,0,1.777.77,2.517,2.517,0,0,0,1.3-.312,3.259,3.259,0,0,0,.93-.828l.883.688A3.55,3.55,0,0,1-18.984,16.156Zm-.18-7.578a1.928,1.928,0,0,0-1.469.637A3.1,3.1,0,0,0-21.367,11h4.234v-.109a2.753,2.753,0,0,0-.594-1.707A1.815,1.815,0,0,0-19.164,8.578Zm13.2.266a4.331,4.331,0,0,0-.711-.055A1.9,1.9,0,0,0-8.609,10v6h-1.445V7.547h1.406l.023.977A2.251,2.251,0,0,1-6.609,7.391a1.477,1.477,0,0,1,.641.109ZM-5.18,11.7a4.993,4.993,0,0,1,.488-2.234A3.643,3.643,0,0,1-3.332,7.93a3.7,3.7,0,0,1,1.988-.539,3.565,3.565,0,0,1,2.793,1.2,4.6,4.6,0,0,1,1.066,3.18v.1a5.036,5.036,0,0,1-.473,2.215A3.589,3.589,0,0,1,.691,15.609a3.743,3.743,0,0,1-2.02.547,3.556,3.556,0,0,1-2.785-1.2A4.575,4.575,0,0,1-5.18,11.8Zm1.453.172a3.616,3.616,0,0,0,.652,2.258,2.088,2.088,0,0,0,1.746.852,2.075,2.075,0,0,0,1.75-.863A3.955,3.955,0,0,0,1.07,11.7,3.61,3.61,0,0,0,.41,9.441a2.1,2.1,0,0,0-1.754-.863A2.075,2.075,0,0,0-3.07,9.43,3.925,3.925,0,0,0-3.727,11.867Zm7.7-.164A4.952,4.952,0,0,1,4.9,8.574,2.915,2.915,0,0,1,7.313,7.391,2.932,2.932,0,0,1,9.664,8.406V4h1.445V16H9.781l-.07-.906A2.943,2.943,0,0,1,7.3,16.156a2.887,2.887,0,0,1-2.395-1.2,5.008,5.008,0,0,1-.926-3.141Zm1.445.164a3.749,3.749,0,0,0,.594,2.25,1.92,1.92,0,0,0,1.641.813A2.108,2.108,0,0,0,9.664,13.7V9.813a2.125,2.125,0,0,0-1.992-1.2,1.929,1.929,0,0,0-1.656.82A4.128,4.128,0,0,0,5.422,11.867ZM14.922,16H13.477V7.547h1.445ZM13.359,5.3a.863.863,0,0,1,.215-.594.807.807,0,0,1,.637-.242.819.819,0,0,1,.641.242.854.854,0,0,1,.219.594.826.826,0,0,1-.219.586.834.834,0,0,1-.641.234.821.821,0,0,1-.637-.234A.834.834,0,0,1,13.359,5.3ZM18.8,16H17.359V4H18.8Zm3.883,0H21.242V4h1.445Zm7.531,0a3.036,3.036,0,0,1-.2-.891,3.225,3.225,0,0,1-2.406,1.047,2.984,2.984,0,0,1-2.051-.707,2.287,2.287,0,0,1-.8-1.793,2.39,2.39,0,0,1,1-2.051,4.733,4.733,0,0,1,2.824-.73h1.406v-.664A1.623,1.623,0,0,0,29.539,9,1.821,1.821,0,0,0,28.2,8.555a2.107,2.107,0,0,0-1.3.391,1.151,1.151,0,0,0-.523.945H24.93a2,2,0,0,1,.449-1.223A3.066,3.066,0,0,1,26.6,7.734a4.1,4.1,0,0,1,1.691-.344,3.342,3.342,0,0,1,2.289.73,2.635,2.635,0,0,1,.859,2.012v3.891a4.757,4.757,0,0,0,.3,1.852V16Zm-2.4-1.1a2.54,2.54,0,0,0,1.289-.352,2.127,2.127,0,0,0,.883-.914V11.9H28.859q-2.656,0-2.656,1.555a1.316,1.316,0,0,0,.453,1.063A1.742,1.742,0,0,0,27.82,14.9Z" transform="translate(-1762.146 1668.352)"/>
      <path id="Trazado_107937" data-name="Trazado 107937" d="M-9.008-3.609A4.185,4.185,0,0,1-10.34-.824a4.365,4.365,0,0,1-2.98.98,4.008,4.008,0,0,1-3.23-1.445,5.815,5.815,0,0,1-1.215-3.867V-6.25A6.481,6.481,0,0,1-17.2-9.039a4.231,4.231,0,0,1,1.605-1.848,4.47,4.47,0,0,1,2.406-.645,4.11,4.11,0,0,1,2.906,1.012,4.235,4.235,0,0,1,1.273,2.8h-1.508a3.268,3.268,0,0,0-.848-1.975,2.565,2.565,0,0,0-1.824-.611,2.684,2.684,0,0,0-2.254,1.063,4.882,4.882,0,0,0-.816,3.026v1.1a5.018,5.018,0,0,0,.773,2.948A2.5,2.5,0,0,0-13.32-1.07,2.887,2.887,0,0,0-11.4-1.637a3.143,3.143,0,0,0,.887-1.973ZM-1.969,0a3.036,3.036,0,0,1-.2-.891A3.225,3.225,0,0,1-4.578.156,2.984,2.984,0,0,1-6.629-.551a2.287,2.287,0,0,1-.8-1.793,2.39,2.39,0,0,1,1-2.051A4.733,4.733,0,0,1-3.6-5.125H-2.2v-.664A1.623,1.623,0,0,0-2.648-7a1.821,1.821,0,0,0-1.336-.449,2.107,2.107,0,0,0-1.3.391,1.151,1.151,0,0,0-.523.945H-7.258a2,2,0,0,1,.449-1.223A3.066,3.066,0,0,1-5.59-8.266,4.1,4.1,0,0,1-3.9-8.609a3.342,3.342,0,0,1,2.289.73A2.635,2.635,0,0,1-.75-5.867v3.891a4.757,4.757,0,0,0,.3,1.852V0Zm-2.4-1.1a2.54,2.54,0,0,0,1.289-.352A2.127,2.127,0,0,0-2.2-2.367V-4.1H-3.328q-2.656,0-2.656,1.555a1.316,1.316,0,0,0,.453,1.063A1.742,1.742,0,0,0-4.367-1.1ZM8.656-4.133a5.062,5.062,0,0,1-.883,3.109A2.829,2.829,0,0,1,5.383.156,3.1,3.1,0,0,1,2.961-.82V3.25H1.516v-11.7h1.32l.07.938A2.977,2.977,0,0,1,5.359-8.609,2.882,2.882,0,0,1,7.77-7.461a5.117,5.117,0,0,1,.887,3.2ZM7.211-4.3A3.735,3.735,0,0,0,6.6-6.555,1.963,1.963,0,0,0,4.93-7.383,2.125,2.125,0,0,0,2.961-6.219V-2.18A2.129,2.129,0,0,0,4.945-1.023,1.954,1.954,0,0,0,6.6-1.848,4.077,4.077,0,0,0,7.211-4.3Zm7.367-2.859a4.331,4.331,0,0,0-.711-.055A1.9,1.9,0,0,0,11.938-6V0H10.492V-8.453H11.9l.023.977a2.251,2.251,0,0,1,2.016-1.133,1.477,1.477,0,0,1,.641.109ZM17.477,0H16.031V-8.453h1.445ZM15.914-10.7a.863.863,0,0,1,.215-.594.807.807,0,0,1,.637-.242.819.819,0,0,1,.641.242.854.854,0,0,1,.219.594.826.826,0,0,1-.219.586.834.834,0,0,1-.641.234.821.821,0,0,1-.637-.234A.834.834,0,0,1,15.914-10.7Z" transform="translate(-1985.384 1360.931)"/>
      <path id="Trazado_107938" data-name="Trazado 107938" d="M-22.848-10.148H-26.5V0H-28V-10.148h-3.648v-1.227h8.8Zm.3,5.844a4.993,4.993,0,0,1,.488-2.234A3.643,3.643,0,0,1-20.7-8.07a3.7,3.7,0,0,1,1.988-.539,3.565,3.565,0,0,1,2.793,1.2,4.6,4.6,0,0,1,1.066,3.18v.1a5.036,5.036,0,0,1-.473,2.215A3.589,3.589,0,0,1-16.672-.391a3.743,3.743,0,0,1-2.02.547,3.556,3.556,0,0,1-2.785-1.2A4.575,4.575,0,0,1-22.543-4.2Zm1.453.172a3.616,3.616,0,0,0,.652,2.258,2.088,2.088,0,0,0,1.746.852,2.075,2.075,0,0,0,1.75-.863A3.955,3.955,0,0,0-16.293-4.3a3.61,3.61,0,0,0-.66-2.254,2.1,2.1,0,0,0-1.754-.863,2.075,2.075,0,0,0-1.727.852A3.925,3.925,0,0,0-21.09-4.133ZM-8.949-7.156a4.331,4.331,0,0,0-.711-.055A1.9,1.9,0,0,0-11.59-6V0h-1.445V-8.453h1.406l.023.977A2.251,2.251,0,0,1-9.59-8.609a1.477,1.477,0,0,1,.641.109ZM-4.113.156A3.693,3.693,0,0,1-6.91-.973a4.19,4.19,0,0,1-1.078-3.02v-.266A5.073,5.073,0,0,1-7.508-6.5,3.748,3.748,0,0,1-6.164-8.051a3.378,3.378,0,0,1,1.871-.559A3.166,3.166,0,0,1-1.73-7.523,4.7,4.7,0,0,1-.816-4.414v.6H-6.543a3,3,0,0,0,.73,2.02,2.3,2.3,0,0,0,1.777.77,2.517,2.517,0,0,0,1.3-.312,3.259,3.259,0,0,0,.93-.828l.883.688A3.55,3.55,0,0,1-4.113.156Zm-.18-7.578a1.928,1.928,0,0,0-1.469.637A3.1,3.1,0,0,0-6.5-5h4.234v-.109a2.753,2.753,0,0,0-.594-1.707A1.815,1.815,0,0,0-4.293-7.422ZM6.074,0a3.036,3.036,0,0,1-.2-.891A3.225,3.225,0,0,1,3.465.156,2.984,2.984,0,0,1,1.414-.551a2.287,2.287,0,0,1-.8-1.793,2.39,2.39,0,0,1,1-2.051,4.733,4.733,0,0,1,2.824-.73H5.848v-.664A1.623,1.623,0,0,0,5.395-7a1.821,1.821,0,0,0-1.336-.449,2.107,2.107,0,0,0-1.3.391,1.151,1.151,0,0,0-.523.945H.785a2,2,0,0,1,.449-1.223,3.066,3.066,0,0,1,1.219-.934,4.1,4.1,0,0,1,1.691-.344,3.342,3.342,0,0,1,2.289.73,2.635,2.635,0,0,1,.859,2.012v3.891a4.757,4.757,0,0,0,.3,1.852V0Zm-2.4-1.1a2.54,2.54,0,0,0,1.289-.352,2.127,2.127,0,0,0,.883-.914V-4.1H4.715q-2.656,0-2.656,1.555a1.316,1.316,0,0,0,.453,1.063A1.742,1.742,0,0,0,3.676-1.1ZM9.207-4.3a4.952,4.952,0,0,1,.922-3.129,2.915,2.915,0,0,1,2.414-1.184,2.932,2.932,0,0,1,2.352,1.016V-12H16.34V0H15.012l-.07-.906A2.943,2.943,0,0,1,12.527.156a2.887,2.887,0,0,1-2.395-1.2,5.008,5.008,0,0,1-.926-3.141Zm1.445.164a3.749,3.749,0,0,0,.594,2.25,1.92,1.92,0,0,0,1.641.813A2.108,2.108,0,0,0,14.895-2.3V-6.187a2.125,2.125,0,0,0-1.992-1.2,1.929,1.929,0,0,0-1.656.82A4.128,4.128,0,0,0,10.652-4.133ZM18.2-4.3a4.993,4.993,0,0,1,.488-2.234A3.643,3.643,0,0,1,20.047-8.07a3.7,3.7,0,0,1,1.988-.539,3.565,3.565,0,0,1,2.793,1.2,4.6,4.6,0,0,1,1.066,3.18v.1a5.036,5.036,0,0,1-.473,2.215A3.589,3.589,0,0,1,24.07-.391a3.743,3.743,0,0,1-2.02.547,3.556,3.556,0,0,1-2.785-1.2A4.575,4.575,0,0,1,18.2-4.2Zm1.453.172A3.616,3.616,0,0,0,20.3-1.875a2.088,2.088,0,0,0,1.746.852,2.075,2.075,0,0,0,1.75-.863A3.955,3.955,0,0,0,24.449-4.3a3.61,3.61,0,0,0-.66-2.254,2.1,2.1,0,0,0-1.754-.863,2.075,2.075,0,0,0-1.727.852A3.925,3.925,0,0,0,19.652-4.133ZM31.793-7.156a4.331,4.331,0,0,0-.711-.055A1.9,1.9,0,0,0,29.152-6V0H27.707V-8.453h1.406l.023.977a2.251,2.251,0,0,1,2.016-1.133,1.477,1.477,0,0,1,.641.109Z" transform="translate(-1884.351 1360.85)"/>
      <path id="Trazado_107939" data-name="Trazado 107939" d="M-28.7-4.453V0h-1.5V-11.375H-26a4.215,4.215,0,0,1,2.926.953A3.231,3.231,0,0,1-22.02-7.9a3.189,3.189,0,0,1-1.035,2.551,4.4,4.4,0,0,1-2.965.895Zm0-1.227H-26a2.7,2.7,0,0,0,1.844-.567,2.075,2.075,0,0,0,.641-1.64,2.143,2.143,0,0,0-.641-1.628,2.525,2.525,0,0,0-1.758-.634H-28.7ZM-16.824.156a3.693,3.693,0,0,1-2.8-1.129A4.19,4.19,0,0,1-20.7-3.992v-.266a5.073,5.073,0,0,1,.48-2.246,3.748,3.748,0,0,1,1.344-1.547A3.378,3.378,0,0,1-17-8.609a3.166,3.166,0,0,1,2.563,1.086,4.7,4.7,0,0,1,.914,3.109v.6h-5.727a3,3,0,0,0,.73,2.02,2.3,2.3,0,0,0,1.777.77,2.517,2.517,0,0,0,1.3-.312,3.259,3.259,0,0,0,.93-.828l.883.688A3.55,3.55,0,0,1-16.824.156ZM-17-7.422a1.928,1.928,0,0,0-1.469.637A3.1,3.1,0,0,0-19.207-5h4.234v-.109a2.753,2.753,0,0,0-.594-1.707A1.815,1.815,0,0,0-17-7.422Zm4.8,3.125a4.952,4.952,0,0,1,.922-3.129A2.915,2.915,0,0,1-8.871-8.609,2.932,2.932,0,0,1-6.52-7.594V-12h1.445V0H-6.4l-.07-.906A2.943,2.943,0,0,1-8.887.156a2.887,2.887,0,0,1-2.395-1.2,5.008,5.008,0,0,1-.926-3.141Zm1.445.164a3.749,3.749,0,0,0,.594,2.25,1.92,1.92,0,0,0,1.641.813A2.108,2.108,0,0,0-6.52-2.3V-6.187a2.125,2.125,0,0,0-1.992-1.2,1.929,1.929,0,0,0-1.656.82A4.128,4.128,0,0,0-10.762-4.133ZM2.387,0a3.036,3.036,0,0,1-.2-.891A3.225,3.225,0,0,1-.223.156,2.984,2.984,0,0,1-2.273-.551a2.287,2.287,0,0,1-.8-1.793,2.39,2.39,0,0,1,1-2.051,4.733,4.733,0,0,1,2.824-.73H2.16v-.664A1.623,1.623,0,0,0,1.707-7,1.821,1.821,0,0,0,.371-7.445a2.107,2.107,0,0,0-1.3.391,1.151,1.151,0,0,0-.523.945H-2.9a2,2,0,0,1,.449-1.223,3.066,3.066,0,0,1,1.219-.934A4.1,4.1,0,0,1,.457-8.609a3.342,3.342,0,0,1,2.289.73,2.635,2.635,0,0,1,.859,2.012v3.891A4.757,4.757,0,0,0,3.9-.125V0Zm-2.4-1.1a2.54,2.54,0,0,0,1.289-.352,2.127,2.127,0,0,0,.883-.914V-4.1H1.027q-2.656,0-2.656,1.555a1.316,1.316,0,0,0,.453,1.063A1.742,1.742,0,0,0-.012-1.1ZM7.441,0H6V-12H7.441Zm5.82.156a3.693,3.693,0,0,1-2.8-1.129,4.19,4.19,0,0,1-1.078-3.02v-.266A5.073,5.073,0,0,1,9.867-6.5a3.748,3.748,0,0,1,1.344-1.547,3.378,3.378,0,0,1,1.871-.559,3.166,3.166,0,0,1,2.563,1.086,4.7,4.7,0,0,1,.914,3.109v.6H10.832a3,3,0,0,0,.73,2.02,2.3,2.3,0,0,0,1.777.77,2.517,2.517,0,0,0,1.3-.312,3.259,3.259,0,0,0,.93-.828l.883.688A3.55,3.55,0,0,1,13.262.156Zm-.18-7.578a1.928,1.928,0,0,0-1.469.637A3.1,3.1,0,0,0,10.879-5h4.234v-.109a2.753,2.753,0,0,0-.594-1.707A1.815,1.815,0,0,0,13.082-7.422Zm9.234.266a4.331,4.331,0,0,0-.711-.055A1.9,1.9,0,0,0,19.676-6V0H18.23V-8.453h1.406l.023.977a2.251,2.251,0,0,1,2.016-1.133,1.477,1.477,0,0,1,.641.109ZM23.105-4.3a4.993,4.993,0,0,1,.488-2.234A3.643,3.643,0,0,1,24.953-8.07a3.7,3.7,0,0,1,1.988-.539,3.565,3.565,0,0,1,2.793,1.2A4.6,4.6,0,0,1,30.8-4.234v.1a5.036,5.036,0,0,1-.473,2.215A3.589,3.589,0,0,1,28.977-.391a3.743,3.743,0,0,1-2.02.547,3.556,3.556,0,0,1-2.785-1.2A4.575,4.575,0,0,1,23.105-4.2Zm1.453.172a3.616,3.616,0,0,0,.652,2.258,2.088,2.088,0,0,0,1.746.852,2.075,2.075,0,0,0,1.75-.863A3.955,3.955,0,0,0,29.355-4.3a3.61,3.61,0,0,0-.66-2.254,2.1,2.1,0,0,0-1.754-.863,2.075,2.075,0,0,0-1.727.852A3.925,3.925,0,0,0,24.559-4.133Z" transform="translate(-1791.304 1360.85)"/>
      <path id="Trazado_107940" data-name="Trazado 107940" d="M-30.891,0V-11.375h3.719a4.317,4.317,0,0,1,2.785.766,2.759,2.759,0,0,1,.934,2.266,2.31,2.31,0,0,1-.453,1.41,2.937,2.937,0,0,1-1.234.949A2.638,2.638,0,0,1-23.684-5a2.814,2.814,0,0,1,.535,1.723,3.042,3.042,0,0,1-.992,2.406,4.1,4.1,0,0,1-2.8.875Zm1.5-5.32v4.094h2.477a2.385,2.385,0,0,0,1.652-.543,1.907,1.907,0,0,0,.605-1.5q0-2.055-2.234-2.055Zm0-1.2h2.266a2.375,2.375,0,0,0,1.574-.493,1.654,1.654,0,0,0,.59-1.339,1.626,1.626,0,0,0-.547-1.366,2.686,2.686,0,0,0-1.664-.427h-2.219ZM-17.648.156a3.693,3.693,0,0,1-2.8-1.129,4.19,4.19,0,0,1-1.078-3.02v-.266a5.073,5.073,0,0,1,.48-2.246A3.748,3.748,0,0,1-19.7-8.051a3.378,3.378,0,0,1,1.871-.559,3.166,3.166,0,0,1,2.563,1.086,4.7,4.7,0,0,1,.914,3.109v.6h-5.727a3,3,0,0,0,.73,2.02,2.3,2.3,0,0,0,1.777.77,2.517,2.517,0,0,0,1.3-.312,3.259,3.259,0,0,0,.93-.828l.883.688A3.55,3.55,0,0,1-17.648.156Zm-.18-7.578a1.928,1.928,0,0,0-1.469.637A3.1,3.1,0,0,0-20.031-5H-15.8v-.109a2.753,2.753,0,0,0-.594-1.707A1.815,1.815,0,0,0-17.828-7.422Zm9.234.266A4.331,4.331,0,0,0-9.3-7.211,1.9,1.9,0,0,0-11.234-6V0H-12.68V-8.453h1.406l.023.977A2.251,2.251,0,0,1-9.234-8.609a1.477,1.477,0,0,1,.641.109Zm2.688-1.3.039.938A3.122,3.122,0,0,1-3.359-8.609,2.417,2.417,0,0,1-.945-7.25a3.2,3.2,0,0,1,1.1-.984,3.242,3.242,0,0,1,1.6-.375q2.781,0,2.828,2.945V0H3.133V-5.578a1.941,1.941,0,0,0-.414-1.355,1.823,1.823,0,0,0-1.391-.449A1.916,1.916,0,0,0-.008-6.9,1.949,1.949,0,0,0-.625-5.609V0H-2.078V-5.539a1.613,1.613,0,0,0-1.8-1.844A1.934,1.934,0,0,0-5.828-6.172V0H-7.273V-8.453ZM11.977-.836A3.07,3.07,0,0,1,9.5.156,2.628,2.628,0,0,1,7.441-.629a3.4,3.4,0,0,1-.715-2.324v-5.5H8.172v5.461q0,1.922,1.563,1.922a2.163,2.163,0,0,0,2.2-1.234V-8.453h1.445V0H12.008ZM15.227-4.3a4.952,4.952,0,0,1,.922-3.129,2.915,2.915,0,0,1,2.414-1.184,2.932,2.932,0,0,1,2.352,1.016V-12h1.445V0H21.031l-.07-.906A2.943,2.943,0,0,1,18.547.156a2.887,2.887,0,0,1-2.395-1.2,5.008,5.008,0,0,1-.926-3.141Zm1.445.164a3.749,3.749,0,0,0,.594,2.25,1.92,1.92,0,0,0,1.641.813A2.108,2.108,0,0,0,20.914-2.3V-6.187a2.125,2.125,0,0,0-1.992-1.2,1.929,1.929,0,0,0-1.656.82A4.128,4.128,0,0,0,16.672-4.133ZM29.82,0a3.036,3.036,0,0,1-.2-.891A3.225,3.225,0,0,1,27.211.156,2.984,2.984,0,0,1,25.16-.551a2.287,2.287,0,0,1-.8-1.793,2.39,2.39,0,0,1,1-2.051,4.733,4.733,0,0,1,2.824-.73h1.406v-.664A1.623,1.623,0,0,0,29.141-7,1.821,1.821,0,0,0,27.8-7.445a2.108,2.108,0,0,0-1.3.391,1.151,1.151,0,0,0-.523.945H24.531a2,2,0,0,1,.449-1.223A3.066,3.066,0,0,1,26.2-8.266a4.1,4.1,0,0,1,1.691-.344,3.342,3.342,0,0,1,2.289.73,2.635,2.635,0,0,1,.859,2.012v3.891a4.757,4.757,0,0,0,.3,1.852V0Zm-2.4-1.1a2.54,2.54,0,0,0,1.289-.352,2.127,2.127,0,0,0,.883-.914V-4.1H28.461Q25.8-4.1,25.8-2.547a1.316,1.316,0,0,0,.453,1.063A1.742,1.742,0,0,0,27.422-1.1Z" transform="translate(-1711.005 1360.85)"/>
      <path id="Trazado_107941" data-name="Trazado 107941" d="M-24.523-11.375h1.508V-3.32A3.336,3.336,0,0,1-24-.766a3.66,3.66,0,0,1-2.613.922A3.762,3.762,0,0,1-29.25-.711a3.132,3.132,0,0,1-.945-2.43h1.5a2.086,2.086,0,0,0,.535,1.523,2.073,2.073,0,0,0,1.551.547,2.012,2.012,0,0,0,1.5-.586A2.27,2.27,0,0,0-24.523-3.3ZM-15.469,0a3.036,3.036,0,0,1-.2-.891A3.225,3.225,0,0,1-18.078.156a2.984,2.984,0,0,1-2.051-.707,2.287,2.287,0,0,1-.8-1.793,2.39,2.39,0,0,1,1-2.051,4.733,4.733,0,0,1,2.824-.73H-15.7v-.664A1.623,1.623,0,0,0-16.148-7a1.821,1.821,0,0,0-1.336-.449,2.108,2.108,0,0,0-1.3.391,1.151,1.151,0,0,0-.523.945h-1.453a2,2,0,0,1,.449-1.223,3.066,3.066,0,0,1,1.219-.934A4.1,4.1,0,0,1-17.4-8.609a3.342,3.342,0,0,1,2.289.73,2.635,2.635,0,0,1,.859,2.012v3.891a4.757,4.757,0,0,0,.3,1.852V0Zm-2.4-1.1a2.54,2.54,0,0,0,1.289-.352,2.127,2.127,0,0,0,.883-.914V-4.1h-1.133q-2.656,0-2.656,1.555a1.316,1.316,0,0,0,.453,1.063A1.742,1.742,0,0,0-17.867-1.1Zm7.242-7.352.039.938A3.122,3.122,0,0,1-8.078-8.609,2.417,2.417,0,0,1-5.664-7.25a3.2,3.2,0,0,1,1.1-.984,3.242,3.242,0,0,1,1.6-.375q2.781,0,2.828,2.945V0H-1.586V-5.578A1.941,1.941,0,0,0-2-6.934a1.823,1.823,0,0,0-1.391-.449,1.916,1.916,0,0,0-1.336.48,1.949,1.949,0,0,0-.617,1.293V0H-6.8V-5.539A1.613,1.613,0,0,0-8.6-7.383a1.934,1.934,0,0,0-1.945,1.211V0h-1.445V-8.453ZM7.258,0a3.036,3.036,0,0,1-.2-.891A3.225,3.225,0,0,1,4.648.156,2.984,2.984,0,0,1,2.6-.551a2.287,2.287,0,0,1-.8-1.793,2.39,2.39,0,0,1,1-2.051,4.733,4.733,0,0,1,2.824-.73H7.031v-.664A1.623,1.623,0,0,0,6.578-7a1.821,1.821,0,0,0-1.336-.449,2.107,2.107,0,0,0-1.3.391,1.151,1.151,0,0,0-.523.945H1.969a2,2,0,0,1,.449-1.223,3.066,3.066,0,0,1,1.219-.934,4.1,4.1,0,0,1,1.691-.344,3.342,3.342,0,0,1,2.289.73,2.635,2.635,0,0,1,.859,2.012v3.891a4.757,4.757,0,0,0,.3,1.852V0Zm-2.4-1.1a2.54,2.54,0,0,0,1.289-.352,2.127,2.127,0,0,0,.883-.914V-4.1H5.9q-2.656,0-2.656,1.555A1.316,1.316,0,0,0,3.7-1.484,1.742,1.742,0,0,0,4.859-1.1ZM12.313,0H10.867V-8.453h1.445ZM10.75-10.7a.863.863,0,0,1,.215-.594.807.807,0,0,1,.637-.242.819.819,0,0,1,.641.242.854.854,0,0,1,.219.594.826.826,0,0,1-.219.586.834.834,0,0,1-.641.234.821.821,0,0,1-.637-.234A.834.834,0,0,1,10.75-10.7Zm7.266,9.672a2.082,2.082,0,0,0,1.352-.469,1.649,1.649,0,0,0,.641-1.172h1.367a2.621,2.621,0,0,1-.5,1.383,3.293,3.293,0,0,1-1.23,1.047,3.55,3.55,0,0,1-1.629.391A3.482,3.482,0,0,1,15.27-1a4.59,4.59,0,0,1-1.02-3.152v-.242a5.089,5.089,0,0,1,.453-2.2A3.451,3.451,0,0,1,16-8.078a3.7,3.7,0,0,1,2-.531,3.39,3.39,0,0,1,2.363.852,3.043,3.043,0,0,1,1,2.211H20.008a1.992,1.992,0,0,0-.621-1.348,1.932,1.932,0,0,0-1.379-.527,2.023,2.023,0,0,0-1.707.793A3.724,3.724,0,0,0,15.7-4.336v.273a3.65,3.65,0,0,0,.6,2.25A2.033,2.033,0,0,0,18.016-1.023ZM28.219,0a3.036,3.036,0,0,1-.2-.891A3.225,3.225,0,0,1,25.609.156a2.984,2.984,0,0,1-2.051-.707,2.287,2.287,0,0,1-.8-1.793,2.39,2.39,0,0,1,1-2.051,4.733,4.733,0,0,1,2.824-.73h1.406v-.664A1.623,1.623,0,0,0,27.539-7,1.821,1.821,0,0,0,26.2-7.445a2.108,2.108,0,0,0-1.3.391,1.151,1.151,0,0,0-.523.945H22.93a2,2,0,0,1,.449-1.223A3.066,3.066,0,0,1,24.6-8.266a4.1,4.1,0,0,1,1.691-.344,3.342,3.342,0,0,1,2.289.73,2.635,2.635,0,0,1,.859,2.012v3.891a4.757,4.757,0,0,0,.3,1.852V0Zm-2.4-1.1a2.54,2.54,0,0,0,1.289-.352,2.127,2.127,0,0,0,.883-.914V-4.1H26.859Q24.2-4.1,24.2-2.547a1.316,1.316,0,0,0,.453,1.063A1.742,1.742,0,0,0,25.82-1.1Z" transform="translate(-1634.655 1360.85)"/>
      <path id="Trazado_107942" data-name="Trazado 107942" d="M-18.684-5.07a7.053,7.053,0,0,1-2.809-1.363,2.6,2.6,0,0,1-.879-2A2.751,2.751,0,0,1-21.3-10.652a4.269,4.269,0,0,1,2.793-.879,4.66,4.66,0,0,1,2.09.453,3.436,3.436,0,0,1,1.422,1.25,3.2,3.2,0,0,1,.5,1.742H-16a2.08,2.08,0,0,0-.656-1.627A2.669,2.669,0,0,0-18.5-10.3a2.732,2.732,0,0,0-1.73.489,1.632,1.632,0,0,0-.621,1.358,1.468,1.468,0,0,0,.59,1.178,5.785,5.785,0,0,0,2.008.88,9.316,9.316,0,0,1,2.219.88A3.367,3.367,0,0,1-14.852-4.4a2.861,2.861,0,0,1,.387,1.508A2.658,2.658,0,0,1-15.543-.676a4.6,4.6,0,0,1-2.883.832,5.347,5.347,0,0,1-2.187-.449,3.681,3.681,0,0,1-1.566-1.23A3,3,0,0,1-22.73-3.3h1.508a1.959,1.959,0,0,0,.762,1.629,3.207,3.207,0,0,0,2.035.6,2.948,2.948,0,0,0,1.82-.484,1.573,1.573,0,0,0,.633-1.32,1.545,1.545,0,0,0-.586-1.293A6.755,6.755,0,0,0-18.684-5.07Zm7.359-2.359a3.073,3.073,0,0,1,2.5-1.18q2.68,0,2.7,3.023V0H-7.566V-5.594a1.946,1.946,0,0,0-.418-1.352,1.675,1.675,0,0,0-1.277-.437,2.086,2.086,0,0,0-1.234.375,2.546,2.546,0,0,0-.828.984V0H-12.77V-12h1.445ZM-4.34-4.3a4.993,4.993,0,0,1,.488-2.234A3.643,3.643,0,0,1-2.492-8.07,3.7,3.7,0,0,1-.5-8.609a3.565,3.565,0,0,1,2.793,1.2,4.6,4.6,0,0,1,1.066,3.18v.1a5.036,5.036,0,0,1-.473,2.215A3.589,3.589,0,0,1,1.531-.391,3.743,3.743,0,0,1-.488.156a3.556,3.556,0,0,1-2.785-1.2A4.575,4.575,0,0,1-4.34-4.2Zm1.453.172a3.616,3.616,0,0,0,.652,2.258,2.088,2.088,0,0,0,1.746.852,2.075,2.075,0,0,0,1.75-.863A3.955,3.955,0,0,0,1.91-4.3a3.61,3.61,0,0,0-.66-2.254A2.1,2.1,0,0,0-.5-7.422,2.075,2.075,0,0,0-2.23-6.57,3.925,3.925,0,0,0-2.887-4.133ZM9.254-7.156a4.331,4.331,0,0,0-.711-.055A1.9,1.9,0,0,0,6.613-6V0H5.168V-8.453H6.574l.023.977A2.251,2.251,0,0,1,8.613-8.609a1.477,1.477,0,0,1,.641.109Zm3.68-3.344v2.047h1.578v1.117H12.934v5.249a1.173,1.173,0,0,0,.211.763.888.888,0,0,0,.719.254,3.5,3.5,0,0,0,.688-.094V0a4.215,4.215,0,0,1-1.109.155A1.8,1.8,0,0,1,11.98-.43a2.517,2.517,0,0,1-.492-1.664V-7.336H9.949V-8.453h1.539V-10.5Zm8.188,8.258a1.064,1.064,0,0,0-.441-.91,4.249,4.249,0,0,0-1.539-.559A7.277,7.277,0,0,1,17.4-4.273a2.479,2.479,0,0,1-.953-.781,1.869,1.869,0,0,1-.309-1.078,2.193,2.193,0,0,1,.879-1.758,3.432,3.432,0,0,1,2.246-.719,3.532,3.532,0,0,1,2.332.742,2.357,2.357,0,0,1,.895,1.9H21.035a1.3,1.3,0,0,0-.5-1.023,1.888,1.888,0,0,0-1.27-.43,1.976,1.976,0,0,0-1.234.344,1.082,1.082,0,0,0-.445.9A.877.877,0,0,0,18-5.391a5.1,5.1,0,0,0,1.5.508,7.8,7.8,0,0,1,1.754.578,2.558,2.558,0,0,1,1,.809,1.988,1.988,0,0,1,.324,1.152A2.163,2.163,0,0,1,21.66-.527a3.8,3.8,0,0,1-2.352.684,4.257,4.257,0,0,1-1.8-.359,2.922,2.922,0,0,1-1.223-1A2.42,2.42,0,0,1,15.848-2.6h1.445a1.5,1.5,0,0,0,.582,1.152,2.258,2.258,0,0,0,1.434.426,2.331,2.331,0,0,0,1.316-.332A1.02,1.02,0,0,0,21.121-2.242Z" transform="translate(-1567.139 1360.85)"/>
      <path id="Trazado_107943" data-name="Trazado 107943" d="M-19.59,0H-21.1V-5.258h-5.734V0h-1.5V-11.375h1.5v4.891H-21.1v-4.891h1.508Zm2.055-4.3a4.993,4.993,0,0,1,.488-2.234A3.643,3.643,0,0,1-15.687-8.07,3.7,3.7,0,0,1-13.7-8.609a3.565,3.565,0,0,1,2.793,1.2A4.6,4.6,0,0,1-9.84-4.234v.1a5.036,5.036,0,0,1-.473,2.215A3.589,3.589,0,0,1-11.664-.391a3.743,3.743,0,0,1-2.02.547,3.556,3.556,0,0,1-2.785-1.2A4.575,4.575,0,0,1-17.535-4.2Zm1.453.172a3.616,3.616,0,0,0,.652,2.258,2.088,2.088,0,0,0,1.746.852,2.075,2.075,0,0,0,1.75-.863A3.955,3.955,0,0,0-11.285-4.3a3.61,3.61,0,0,0-.66-2.254A2.1,2.1,0,0,0-13.7-7.422a2.075,2.075,0,0,0-1.727.852A3.925,3.925,0,0,0-16.082-4.133ZM-6.066-10.5v2.047h1.578v1.117H-6.066v5.249a1.173,1.173,0,0,0,.211.763.888.888,0,0,0,.719.254,3.5,3.5,0,0,0,.688-.094V0A4.215,4.215,0,0,1-5.559.156,1.8,1.8,0,0,1-7.02-.43a2.517,2.517,0,0,1-.492-1.664V-7.336H-9.051V-8.453h1.539V-10.5ZM2.73,0H1.285V-12H2.73Zm5.82.156a3.693,3.693,0,0,1-2.8-1.129,4.19,4.19,0,0,1-1.078-3.02v-.266A5.073,5.073,0,0,1,5.156-6.5,3.748,3.748,0,0,1,6.5-8.051a3.378,3.378,0,0,1,1.871-.559,3.166,3.166,0,0,1,2.563,1.086,4.7,4.7,0,0,1,.914,3.109v.6H6.121a3,3,0,0,0,.73,2.02,2.3,2.3,0,0,0,1.777.77,2.517,2.517,0,0,0,1.3-.312,3.259,3.259,0,0,0,.93-.828l.883.688A3.55,3.55,0,0,1,8.551.156Zm-.18-7.578A1.928,1.928,0,0,0,6.9-6.785,3.1,3.1,0,0,0,6.168-5H10.4v-.109a2.753,2.753,0,0,0-.594-1.707A1.815,1.815,0,0,0,8.371-7.422Zm4.8,3.125a4.968,4.968,0,0,1,.914-3.145,2.923,2.923,0,0,1,2.422-1.168,2.908,2.908,0,0,1,2.414,1.094L19-8.453h1.32V-.2a3.439,3.439,0,0,1-.973,2.586,3.589,3.589,0,0,1-2.613.945,4.348,4.348,0,0,1-1.789-.391,3.08,3.08,0,0,1-1.336-1.07L14.355,1a2.826,2.826,0,0,0,2.273,1.148,2.214,2.214,0,0,0,1.645-.594,2.269,2.269,0,0,0,.59-1.672V-.844a2.971,2.971,0,0,1-2.367,1,2.887,2.887,0,0,1-2.4-1.2A5.224,5.224,0,0,1,13.176-4.3Zm1.453.164a3.79,3.79,0,0,0,.586,2.246,1.9,1.9,0,0,0,1.641.816,2.117,2.117,0,0,0,2.008-1.242V-6.172a2.142,2.142,0,0,0-1.992-1.211,1.921,1.921,0,0,0-1.648.82A4.128,4.128,0,0,0,14.629-4.133ZM27.418-2.242a1.064,1.064,0,0,0-.441-.91,4.249,4.249,0,0,0-1.539-.559A7.277,7.277,0,0,1,23.7-4.273a2.479,2.479,0,0,1-.953-.781,1.869,1.869,0,0,1-.309-1.078,2.193,2.193,0,0,1,.879-1.758,3.432,3.432,0,0,1,2.246-.719,3.532,3.532,0,0,1,2.332.742,2.357,2.357,0,0,1,.895,1.9H27.332a1.3,1.3,0,0,0-.5-1.023,1.888,1.888,0,0,0-1.27-.43,1.976,1.976,0,0,0-1.234.344,1.082,1.082,0,0,0-.445.9.877.877,0,0,0,.414.789,5.1,5.1,0,0,0,1.5.508,7.8,7.8,0,0,1,1.754.578,2.558,2.558,0,0,1,1,.809,1.988,1.988,0,0,1,.324,1.152,2.163,2.163,0,0,1-.906,1.816,3.8,3.8,0,0,1-2.352.684,4.257,4.257,0,0,1-1.8-.359,2.922,2.922,0,0,1-1.223-1A2.42,2.42,0,0,1,22.145-2.6H23.59a1.5,1.5,0,0,0,.582,1.152,2.258,2.258,0,0,0,1.434.426,2.331,2.331,0,0,0,1.316-.332A1.02,1.02,0,0,0,27.418-2.242Z" transform="translate(-1485.355 1360.85)"/>
      <path id="Trazado_107950" data-name="Trazado 107950" d="M-12.8-5.592h.95a2.088,2.088,0,0,0,1.408-.472A1.576,1.576,0,0,0-9.926-7.3a1.544,1.544,0,0,0-1.743-1.75,1.813,1.813,0,0,0-1.309.468,1.639,1.639,0,0,0-.489,1.241h-1.265a2.539,2.539,0,0,1,.865-1.965,3.15,3.15,0,0,1,2.2-.783,3.113,3.113,0,0,1,2.208.745,2.692,2.692,0,0,1,.8,2.071,2.185,2.185,0,0,1-.42,1.258,2.538,2.538,0,0,1-1.145.909,2.446,2.446,0,0,1,1.268.861,2.392,2.392,0,0,1,.448,1.47A2.715,2.715,0,0,1-9.386-.649a3.277,3.277,0,0,1-2.276.786,3.363,3.363,0,0,1-2.28-.759,2.517,2.517,0,0,1-.878-2h1.271a1.627,1.627,0,0,0,.513,1.258A1.95,1.95,0,0,0-11.662-.9a1.914,1.914,0,0,0,1.4-.479,1.844,1.844,0,0,0,.485-1.374,1.673,1.673,0,0,0-.533-1.333,2.323,2.323,0,0,0-1.538-.479h-.95ZM-.212-.9a1.822,1.822,0,0,0,1.183-.41,1.443,1.443,0,0,0,.561-1.025h1.2a2.293,2.293,0,0,1-.437,1.21,2.881,2.881,0,0,1-1.077.916A3.107,3.107,0,0,1-.212.137a3.047,3.047,0,0,1-2.4-1.008A4.016,4.016,0,0,1-3.507-3.63v-.212a4.453,4.453,0,0,1,.4-1.921A3.02,3.02,0,0,1-1.972-7.068,3.233,3.233,0,0,1-.219-7.533a2.966,2.966,0,0,1,2.068.745,2.663,2.663,0,0,1,.878,1.935h-1.2A1.743,1.743,0,0,0,.988-6.033,1.691,1.691,0,0,0-.219-6.494,1.77,1.77,0,0,0-1.712-5.8a3.259,3.259,0,0,0-.53,2.006v.239a3.194,3.194,0,0,0,.526,1.969A1.779,1.779,0,0,0-.212-.9ZM5.339-7.4l.034.82a2.732,2.732,0,0,1,2.194-.957A2.115,2.115,0,0,1,9.68-6.344a2.8,2.8,0,0,1,.96-.861,2.837,2.837,0,0,1,1.4-.328q2.434,0,2.475,2.577V0H13.248V-4.881a1.7,1.7,0,0,0-.362-1.186,1.6,1.6,0,0,0-1.217-.393,1.677,1.677,0,0,0-1.169.42,1.706,1.706,0,0,0-.54,1.131V0H8.688V-4.847A1.411,1.411,0,0,0,7.109-6.46a1.692,1.692,0,0,0-1.7,1.06V0H4.143V-7.4Z" transform="translate(-1984.649 1593.88)" fill="#28c6ba"/>
      <g id="Grupo_55925" data-name="Grupo 55925" transform="translate(-2001.424 1572.271)">
        <line id="Línea_324" data-name="Línea 324" x2="32.223" transform="translate(1.252 4.245)" fill="#fff"/>
        <g id="Grupo_55924" data-name="Grupo 55924">
          <path id="Trazado_106330" data-name="Trazado 106330" d="M-1971.656,1572.368h-29.361a1.252,1.252,0,0,1-1.252-1.251,1.252,1.252,0,0,1,1.252-1.252h29.361a1.252,1.252,0,0,1,1.251,1.252A1.252,1.252,0,0,1-1971.656,1572.368Z" transform="translate(2002.27 -1566.872)" fill="#28c6ba"/>
          <g id="Grupo_55923" data-name="Grupo 55923" transform="translate(25.626)">
            <path id="Trazado_106331" data-name="Trazado 106331" d="M-1977.247,1575.431l4.247-4.245-4.247-4.245h3.6l4.245,4.245-4.245,4.245Z" transform="translate(1977.247 -1566.942)" fill="#28c6ba"/>
          </g>
        </g>
      </g>
      <path id="Trazado_107946" data-name="Trazado 107946" d="M-18.1-5.592h.95a2.088,2.088,0,0,0,1.408-.472A1.576,1.576,0,0,0-15.23-7.3a1.544,1.544,0,0,0-1.743-1.75,1.813,1.813,0,0,0-1.309.468,1.639,1.639,0,0,0-.489,1.241h-1.265a2.539,2.539,0,0,1,.865-1.965,3.15,3.15,0,0,1,2.2-.783,3.113,3.113,0,0,1,2.208.745,2.692,2.692,0,0,1,.8,2.071,2.185,2.185,0,0,1-.42,1.258,2.538,2.538,0,0,1-1.145.909,2.446,2.446,0,0,1,1.268.861,2.392,2.392,0,0,1,.448,1.47A2.715,2.715,0,0,1-14.69-.649a3.277,3.277,0,0,1-2.276.786,3.363,3.363,0,0,1-2.28-.759,2.517,2.517,0,0,1-.878-2h1.271a1.627,1.627,0,0,0,.513,1.258A1.95,1.95,0,0,0-16.967-.9a1.914,1.914,0,0,0,1.4-.479,1.844,1.844,0,0,0,.485-1.374,1.673,1.673,0,0,0-.533-1.333,2.323,2.323,0,0,0-1.538-.479h-.95Zm6.111,7.574-.718-.492a3.3,3.3,0,0,0,.67-1.846V-1.5H-10.8v.991A3.114,3.114,0,0,1-11.139.875,3.233,3.233,0,0,1-11.99,1.982ZM-8.75-4.99l.506-4.963h5.1v1.169H-7.171l-.3,2.714A3.212,3.212,0,0,1-5.811-6.5a2.746,2.746,0,0,1,2.16.9,3.523,3.523,0,0,1,.8,2.43A3.4,3.4,0,0,1-3.681-.749,3.027,3.027,0,0,1-6,.137,3.146,3.146,0,0,1-8.155-.595a2.919,2.919,0,0,1-.95-2.023h1.2A2.009,2.009,0,0,0-7.3-1.33,1.892,1.892,0,0,0-6-.9a1.706,1.706,0,0,0,1.384-.6,2.515,2.515,0,0,0,.5-1.661,2.308,2.308,0,0,0-.543-1.6,1.849,1.849,0,0,0-1.446-.6A2.085,2.085,0,0,0-7.4-5l-.335.273ZM5.093-.9a1.822,1.822,0,0,0,1.183-.41,1.443,1.443,0,0,0,.561-1.025h1.2a2.293,2.293,0,0,1-.437,1.21,2.881,2.881,0,0,1-1.077.916A3.107,3.107,0,0,1,5.093.137,3.047,3.047,0,0,1,2.69-.872,4.016,4.016,0,0,1,1.8-3.63v-.212a4.453,4.453,0,0,1,.4-1.921A3.02,3.02,0,0,1,3.333-7.068a3.233,3.233,0,0,1,1.753-.465,2.966,2.966,0,0,1,2.068.745,2.663,2.663,0,0,1,.878,1.935h-1.2a1.743,1.743,0,0,0-.543-1.179,1.691,1.691,0,0,0-1.207-.461A1.77,1.77,0,0,0,3.592-5.8a3.259,3.259,0,0,0-.53,2.006v.239a3.194,3.194,0,0,0,.526,1.969A1.779,1.779,0,0,0,5.093-.9Zm5.551-6.5.034.82a2.732,2.732,0,0,1,2.194-.957,2.115,2.115,0,0,1,2.112,1.189,2.8,2.8,0,0,1,.96-.861,2.837,2.837,0,0,1,1.4-.328q2.434,0,2.475,2.577V0H18.553V-4.881a1.7,1.7,0,0,0-.362-1.186,1.6,1.6,0,0,0-1.217-.393,1.677,1.677,0,0,0-1.169.42,1.706,1.706,0,0,0-.54,1.131V0H13.993V-4.847A1.411,1.411,0,0,0,12.414-6.46a1.692,1.692,0,0,0-1.7,1.06V0H9.447V-7.4Z" transform="translate(-1569.096 1624.871)" fill="#28c6ba"/>
      <g id="Grupo_55928" data-name="Grupo 55928" transform="translate(-1576.281 1604.286)">
        <line id="Línea_325" data-name="Línea 325" x1="32.223" transform="translate(0 4.245)" fill="#fff"/>
        <g id="Grupo_55927" data-name="Grupo 55927">
          <path id="Trazado_106332" data-name="Trazado 106332" d="M-1554.948,1603.63h-29.361a1.253,1.253,0,0,1-1.253-1.253,1.252,1.252,0,0,1,1.253-1.251h29.361a1.251,1.251,0,0,1,1.251,1.251A1.252,1.252,0,0,1-1554.948,1603.63Z" transform="translate(1587.172 -1598.133)" fill="#28c6ba"/>
          <g id="Grupo_55926" data-name="Grupo 55926">
            <path id="Trazado_106333" data-name="Trazado 106333" d="M-1579.285,1598.2l-4.247,4.245,4.247,4.245h-3.6l-4.245-4.245,4.245-4.245Z" transform="translate(1587.134 -1598.203)" fill="#28c6ba"/>
          </g>
        </g>
      </g>
      <path id="Trazado_107947" data-name="Trazado 107947" d="M-14.055-4.99l.506-4.963h5.1v1.169h-4.026l-.3,2.714A3.212,3.212,0,0,1-11.115-6.5a2.746,2.746,0,0,1,2.16.9,3.523,3.523,0,0,1,.8,2.43A3.4,3.4,0,0,1-8.986-.749a3.027,3.027,0,0,1-2.321.885A3.146,3.146,0,0,1-13.46-.595a2.919,2.919,0,0,1-.95-2.023h1.2a2.009,2.009,0,0,0,.608,1.289,1.892,1.892,0,0,0,1.3.434,1.706,1.706,0,0,0,1.384-.6,2.515,2.515,0,0,0,.5-1.661,2.308,2.308,0,0,0-.543-1.6,1.849,1.849,0,0,0-1.446-.6,2.085,2.085,0,0,0-1.3.362l-.335.273ZM-.212-.9a1.822,1.822,0,0,0,1.183-.41,1.443,1.443,0,0,0,.561-1.025h1.2a2.293,2.293,0,0,1-.437,1.21,2.881,2.881,0,0,1-1.077.916A3.107,3.107,0,0,1-.212.137a3.047,3.047,0,0,1-2.4-1.008A4.016,4.016,0,0,1-3.507-3.63v-.212a4.453,4.453,0,0,1,.4-1.921A3.02,3.02,0,0,1-1.972-7.068,3.233,3.233,0,0,1-.219-7.533a2.966,2.966,0,0,1,2.068.745,2.663,2.663,0,0,1,.878,1.935h-1.2A1.743,1.743,0,0,0,.988-6.033,1.691,1.691,0,0,0-.219-6.494,1.77,1.77,0,0,0-1.712-5.8a3.259,3.259,0,0,0-.53,2.006v.239a3.194,3.194,0,0,0,.526,1.969A1.779,1.779,0,0,0-.212-.9ZM5.339-7.4l.034.82a2.732,2.732,0,0,1,2.194-.957A2.115,2.115,0,0,1,9.68-6.344a2.8,2.8,0,0,1,.96-.861,2.837,2.837,0,0,1,1.4-.328q2.434,0,2.475,2.577V0H13.248V-4.881a1.7,1.7,0,0,0-.362-1.186,1.6,1.6,0,0,0-1.217-.393,1.677,1.677,0,0,0-1.169.42,1.706,1.706,0,0,0-.54,1.131V0H8.688V-4.847A1.411,1.411,0,0,0,7.109-6.46a1.692,1.692,0,0,0-1.7,1.06V0H4.143V-7.4Z" transform="translate(-1779.474 1600.025)" fill="#28c6ba"/>
      <g id="Grupo_55931" data-name="Grupo 55931" transform="translate(-1796.021 1578.583)">
        <line id="Línea_326" data-name="Línea 326" x1="32.223" transform="translate(0 4.245)" fill="#fff"/>
        <g id="Grupo_55930" data-name="Grupo 55930">
          <path id="Trazado_106334" data-name="Trazado 106334" d="M-1769.516,1578.532h-29.361a1.252,1.252,0,0,1-1.252-1.252,1.252,1.252,0,0,1,1.252-1.252h29.361a1.252,1.252,0,0,1,1.252,1.252A1.252,1.252,0,0,1-1769.516,1578.532Z" transform="translate(1801.739 -1573.035)" fill="#28c6ba"/>
          <g id="Grupo_55929" data-name="Grupo 55929">
            <path id="Trazado_106335" data-name="Trazado 106335" d="M-1793.853,1573.106l-4.247,4.245,4.247,4.245h-3.6l-4.245-4.245,4.245-4.245Z" transform="translate(1801.702 -1573.106)" fill="#28c6ba"/>
          </g>
        </g>
      </g>
    </g>
  </g>
</svg>
