<svg xmlns="http://www.w3.org/2000/svg" xmlns:xlink="http://www.w3.org/1999/xlink" width="824.518" height="499.007" viewBox="0 0 824.518 499.007">
  <defs>
    <clipPath id="clip-path">
      <rect id="Rectángulo_362139" data-name="Rectángulo 362139" width="610.152" height="499.007" fill="none"/>
    </clipPath>
    <clipPath id="clip-path-2">
      <rect id="Rectángulo_362127" data-name="Rectángulo 362127" width="610.154" height="499.007" fill="none"/>
    </clipPath>
    <clipPath id="clip-path-4">
      <rect id="Rectángulo_362131" data-name="Rectángulo 362131" width="177.765" height="177.763" fill="none"/>
    </clipPath>
    <clipPath id="clip-path-5">
      <path id="Trazado_775838" data-name="Trazado 775838" d="M359.677,88.882A88.882,88.882,0,1,1,270.794,0a88.881,88.881,0,0,1,88.883,88.882" transform="translate(-181.912)" fill="none"/>
    </clipPath>
    <radialGradient id="radial-gradient" cx="0.5" cy="0.5" r="0.5" gradientTransform="matrix(1, 0, 0, -1, 0, 5.614)" gradientUnits="objectBoundingBox">
      <stop offset="0" stop-color="#acc2d4"/>
      <stop offset="0.36" stop-color="#acc2d4"/>
      <stop offset="0.444" stop-color="#baccdb"/>
      <stop offset="0.684" stop-color="#dfe8ee"/>
      <stop offset="0.878" stop-color="#f6f8fa"/>
      <stop offset="1" stop-color="#fff"/>
    </radialGradient>
    <clipPath id="clip-path-6">
      <rect id="Rectángulo_362133" data-name="Rectángulo 362133" width="177.765" height="177.764" fill="none"/>
    </clipPath>
    <clipPath id="clip-path-7">
      <path id="Trazado_775841" data-name="Trazado 775841" d="M359.677,240.593a88.882,88.882,0,1,1-88.883-88.882,88.882,88.882,0,0,1,88.883,88.882" transform="translate(-181.912 -151.711)" fill="none"/>
    </clipPath>
    <radialGradient id="radial-gradient-2" r="0.5" gradientTransform="matrix(1, 0, 0, -1, 0, 2)" xlink:href="#radial-gradient"/>
    <clipPath id="clip-path-8">
      <rect id="Rectángulo_362135" data-name="Rectángulo 362135" width="177.764" height="177.763" fill="none"/>
    </clipPath>
    <clipPath id="clip-path-9">
      <path id="Trazado_775844" data-name="Trazado 775844" d="M202.482,88.882A88.882,88.882,0,1,1,113.6,0a88.881,88.881,0,0,1,88.882,88.882" transform="translate(-24.717)" fill="none"/>
    </clipPath>
    <radialGradient id="radial-gradient-3" r="0.5" xlink:href="#radial-gradient"/>
    <clipPath id="clip-path-10">
      <rect id="Rectángulo_362137" data-name="Rectángulo 362137" width="177.764" height="177.764" fill="none"/>
    </clipPath>
    <clipPath id="clip-path-11">
      <path id="Trazado_775847" data-name="Trazado 775847" d="M202.482,240.593A88.882,88.882,0,1,1,113.6,151.711a88.882,88.882,0,0,1,88.882,88.882" transform="translate(-24.717 -151.711)" fill="none"/>
    </clipPath>
    <radialGradient id="radial-gradient-4" r="0.5" gradientTransform="matrix(1, 0, 0, -1, 0, 2)" xlink:href="#radial-gradient"/>
  </defs>
  <g id="Grupo_1054936" data-name="Grupo 1054936" transform="translate(-378.027 -6771)">
    <g id="Grupo_1054881" data-name="Grupo 1054881" transform="translate(494.848 6771)" clip-path="url(#clip-path)">
      <g id="Grupo_1054853" data-name="Grupo 1054853">
        <g id="Grupo_1054852" data-name="Grupo 1054852" clip-path="url(#clip-path-2)">
          <path id="Trazado_775823" data-name="Trazado 775823" d="M325.7,92.3a1.059,1.059,0,0,1-1.059-1.059V34.258H252.052a1.059,1.059,0,0,1,0-2.117H325.7a1.059,1.059,0,0,1,1.059,1.059V91.241A1.059,1.059,0,0,1,325.7,92.3" transform="translate(280.474 35.916)" fill="#969696"/>
          <path id="Trazado_775824" data-name="Trazado 775824" d="M253.688,38.723a3.981,3.981,0,1,1,3.981-3.981,3.982,3.982,0,0,1-3.981,3.981" transform="translate(279.038 34.374)" fill="#969696"/>
          <path id="Trazado_775825" data-name="Trazado 775825" d="M284.394,62.059a3.981,3.981,0,1,0,3.981-3.981,3.982,3.982,0,0,0-3.981,3.981" transform="translate(317.799 64.9)" fill="#969696"/>
          <path id="Trazado_775826" data-name="Trazado 775826" d="M325.7,228.165H252.052a1.059,1.059,0,0,1,0-2.117H324.64V169.065a1.059,1.059,0,0,1,2.117,0v58.042a1.059,1.059,0,0,1-1.059,1.059" transform="translate(280.474 187.74)" fill="#969696"/>
          <path id="Trazado_775827" data-name="Trazado 775827" d="M253.688,202a3.981,3.981,0,1,1,3.981-3.981A3.982,3.982,0,0,1,253.688,202" transform="translate(279.038 216.828)" fill="#969696"/>
          <path id="Trazado_775828" data-name="Trazado 775828" d="M292.357,170.7a3.982,3.982,0,1,0-3.983,3.981,3.983,3.983,0,0,0,3.983-3.981" transform="translate(317.798 186.303)" fill="#969696"/>
          <path id="Trazado_775829" data-name="Trazado 775829" d="M2.439,92.3A1.059,1.059,0,0,1,1.38,91.241V33.2a1.059,1.059,0,0,1,1.059-1.059H76.086a1.059,1.059,0,0,1,0,2.117H3.5V91.241A1.059,1.059,0,0,1,2.439,92.3" transform="translate(1.542 35.916)" fill="#969696"/>
          <path id="Trazado_775830" data-name="Trazado 775830" d="M38.668,30.761a3.981,3.981,0,1,1-3.981,3.981,3.982,3.982,0,0,1,3.981-3.981" transform="translate(38.761 34.374)" fill="#969696"/>
          <path id="Trazado_775831" data-name="Trazado 775831" d="M0,62.059a3.981,3.981,0,1,0,3.981-3.981A3.982,3.982,0,0,0,0,62.059" transform="translate(0 64.9)" fill="#969696"/>
          <path id="Trazado_775832" data-name="Trazado 775832" d="M76.086,228.165H2.439a1.059,1.059,0,0,1-1.059-1.059V169.065a1.059,1.059,0,0,1,2.117,0v56.983H76.086a1.059,1.059,0,1,1,0,2.117" transform="translate(1.542 187.74)" fill="#969696"/>
          <path id="Trazado_775833" data-name="Trazado 775833" d="M38.668,194.037a3.981,3.981,0,1,1-3.981,3.981,3.982,3.982,0,0,1,3.981-3.981" transform="translate(38.761 216.828)" fill="#969696"/>
          <path id="Trazado_775834" data-name="Trazado 775834" d="M7.962,170.7a3.981,3.981,0,1,0-3.981,3.981A3.982,3.982,0,0,0,7.962,170.7" transform="translate(0 186.303)" fill="#969696"/>
        </g>
      </g>
      <g id="Grupo_1054880" data-name="Grupo 1054880">
        <g id="Grupo_1054879" data-name="Grupo 1054879" clip-path="url(#clip-path-2)">
          <path id="Trazado_775836" data-name="Trazado 775836" d="M224.39,339.578c-81.317,0-147.473-66.156-147.473-147.473S143.073,44.631,224.39,44.631s147.473,66.158,147.473,147.475S305.706,339.578,224.39,339.578m0-293.666C143.778,45.912,78.2,111.494,78.2,192.106S143.778,338.3,224.39,338.3s146.194-65.582,146.194-146.191S305,45.912,224.39,45.912" transform="translate(85.952 49.873)" fill="#150d36"/>
          <path id="Trazado_775837" data-name="Trazado 775837" d="M346.125,183.213A130.626,130.626,0,1,1,215.5,52.587,130.627,130.627,0,0,1,346.125,183.213" transform="translate(94.842 58.764)" fill="#150d36"/>
          <g id="Grupo_1054863" data-name="Grupo 1054863" transform="translate(385.191)" style="mix-blend-mode: multiply;isolation: isolate">
            <g id="Grupo_1054862" data-name="Grupo 1054862">
              <g id="Grupo_1054861" data-name="Grupo 1054861" clip-path="url(#clip-path-4)">
                <g id="Grupo_1054860" data-name="Grupo 1054860">
                  <g id="Grupo_1054859" data-name="Grupo 1054859" clip-path="url(#clip-path-5)">
                    <rect id="Rectángulo_362130" data-name="Rectángulo 362130" width="177.765" height="177.763" transform="translate(0 0)" fill="url(#radial-gradient)"/>
                  </g>
                </g>
              </g>
            </g>
          </g>
          <path id="Trazado_775839" data-name="Trazado 775839" d="M329.355,74.271A69.034,69.034,0,1,1,260.319,5.235a69.036,69.036,0,0,1,69.036,69.036" transform="translate(213.754 5.85)" fill="#fff"/>
          <path id="Trazado_775840" data-name="Trazado 775840" d="M305.533,66.042A53.442,53.442,0,1,1,252.09,12.6a53.443,53.443,0,0,1,53.443,53.443" transform="translate(221.983 14.079)" fill="#baefe4"/>
          <g id="Grupo_1054868" data-name="Grupo 1054868" transform="translate(385.191 321.242)" style="mix-blend-mode: multiply;isolation: isolate">
            <g id="Grupo_1054867" data-name="Grupo 1054867">
              <g id="Grupo_1054866" data-name="Grupo 1054866" clip-path="url(#clip-path-6)">
                <g id="Grupo_1054865" data-name="Grupo 1054865" transform="translate(0 -0.001)">
                  <g id="Grupo_1054864" data-name="Grupo 1054864" clip-path="url(#clip-path-7)">
                    <rect id="Rectángulo_362132" data-name="Rectángulo 362132" width="177.765" height="177.765" transform="translate(0)" fill="url(#radial-gradient-2)"/>
                  </g>
                </g>
              </g>
            </g>
          </g>
          <path id="Trazado_775842" data-name="Trazado 775842" d="M329.355,225.983a69.034,69.034,0,1,1-69.036-69.036,69.036,69.036,0,0,1,69.036,69.036" transform="translate(213.754 175.382)" fill="#fff"/>
          <path id="Trazado_775843" data-name="Trazado 775843" d="M305.533,217.754a53.442,53.442,0,1,1-53.443-53.443,53.443,53.443,0,0,1,53.443,53.443" transform="translate(221.983 183.611)" fill="#025157"/>
          <g id="Grupo_1054873" data-name="Grupo 1054873" transform="translate(52.338)" style="mix-blend-mode: multiply;isolation: isolate">
            <g id="Grupo_1054872" data-name="Grupo 1054872">
              <g id="Grupo_1054871" data-name="Grupo 1054871" clip-path="url(#clip-path-8)">
                <g id="Grupo_1054870" data-name="Grupo 1054870" transform="translate(-0.001)">
                  <g id="Grupo_1054869" data-name="Grupo 1054869" clip-path="url(#clip-path-9)">
                    <rect id="Rectángulo_362134" data-name="Rectángulo 362134" width="177.765" height="177.763" transform="translate(0 0)" fill="url(#radial-gradient-3)"/>
                  </g>
                </g>
              </g>
            </g>
          </g>
          <path id="Trazado_775845" data-name="Trazado 775845" d="M172.16,74.271A69.034,69.034,0,1,1,103.124,5.235,69.036,69.036,0,0,1,172.16,74.271" transform="translate(38.095 5.85)" fill="#fff"/>
          <path id="Trazado_775846" data-name="Trazado 775846" d="M148.338,66.042A53.442,53.442,0,1,1,94.9,12.6a53.443,53.443,0,0,1,53.443,53.443" transform="translate(46.324 14.079)" fill="#f5947a"/>
          <g id="Grupo_1054878" data-name="Grupo 1054878" transform="translate(52.338 321.242)" style="mix-blend-mode: multiply;isolation: isolate">
            <g id="Grupo_1054877" data-name="Grupo 1054877">
              <g id="Grupo_1054876" data-name="Grupo 1054876" clip-path="url(#clip-path-10)">
                <g id="Grupo_1054875" data-name="Grupo 1054875" transform="translate(-0.001 -0.001)">
                  <g id="Grupo_1054874" data-name="Grupo 1054874" clip-path="url(#clip-path-11)">
                    <rect id="Rectángulo_362136" data-name="Rectángulo 362136" width="177.765" height="177.765" transform="translate(0)" fill="url(#radial-gradient-4)"/>
                  </g>
                </g>
              </g>
            </g>
          </g>
          <path id="Trazado_775848" data-name="Trazado 775848" d="M172.16,225.983a69.034,69.034,0,1,1-69.036-69.036,69.036,69.036,0,0,1,69.036,69.036" transform="translate(38.095 175.382)" fill="#fff"/>
          <path id="Trazado_775849" data-name="Trazado 775849" d="M148.338,217.754A53.442,53.442,0,1,1,94.9,164.311a53.443,53.443,0,0,1,53.443,53.443" transform="translate(46.324 183.611)" fill="#73d8c0"/>
          <path id="Trazado_775850" data-name="Trazado 775850" d="M111.95,75.951A11.854,11.854,0,1,1,100.1,64.1,11.853,11.853,0,0,1,111.95,75.951" transform="translate(98.608 71.626)" fill="#f5947a"/>
          <path id="Trazado_775851" data-name="Trazado 775851" d="M216.31,75.18a11.855,11.855,0,1,1-11.856-11.854A11.855,11.855,0,0,1,216.31,75.18" transform="translate(215.224 70.764)" fill="#baefe4"/>
          <path id="Trazado_775852" data-name="Trazado 775852" d="M112.464,165.773a11.854,11.854,0,1,1-11.854-11.854,11.853,11.853,0,0,1,11.854,11.854" transform="translate(99.182 171.998)" fill="#73d8c0"/>
          <path id="Trazado_775853" data-name="Trazado 775853" d="M216.31,166.8a11.855,11.855,0,1,1-11.856-11.854A11.855,11.855,0,0,1,216.31,166.8" transform="translate(215.224 173.147)" fill="#025157"/>
        </g>
      </g>
    </g>
    <path id="Trazado_777091" data-name="Trazado 777091" d="M8.723-19.094h3.494q4.153,0,4.153-4.065a3.515,3.515,0,0,0-.989-2.582,3.749,3.749,0,0,0-2.791-1,4.014,4.014,0,0,0-2.56.857,2.614,2.614,0,0,0-1.088,2.131h-7.4a7.58,7.58,0,0,1,1.406-4.5,9.287,9.287,0,0,1,3.9-3.087,13.334,13.334,0,0,1,5.482-1.11q5.339,0,8.394,2.439a8.108,8.108,0,0,1,3.054,6.7,6.758,6.758,0,0,1-1.263,3.9,9,9,0,0,1-3.68,2.977,8.6,8.6,0,0,1,4,2.8,7.378,7.378,0,0,1,1.45,4.647,8.255,8.255,0,0,1-3.3,6.855A13.681,13.681,0,0,1,12.327.439a14.188,14.188,0,0,1-5.834-1.2A9.14,9.14,0,0,1,2.417-4.076,8.626,8.626,0,0,1,1.033-8.9H8.481A3.334,3.334,0,0,0,9.668-6.35,4.189,4.189,0,0,0,12.59-5.273a4.388,4.388,0,0,0,3.12-1.088,3.635,3.635,0,0,0,1.165-2.78,4.25,4.25,0,0,0-1.208-3.428,5.052,5.052,0,0,0-3.34-1.011h-3.6Z" transform="translate(618.374 7184.59)" fill="#12263f"/>
    <path id="Trazado_777087" data-name="Trazado 777087" d="M21.511-12.5h3.252V-6.79H21.511V0h-7.4V-6.79H1.736L1.3-11.316l12.81-20.61v-.066h7.4ZM8.35-12.5h5.757v-9.844l-.461.747Z" transform="translate(955.941 7184.59)" fill="#fff"/>
    <path id="Trazado_777093" data-name="Trazado 777093" d="M-101.716,0V-12.8h4.6a6.509,6.509,0,0,1,3.757.905,3.012,3.012,0,0,1,1.288,2.628,3.045,3.045,0,0,1-.457,1.7A2.663,2.663,0,0,1-93.876-6.53a2.7,2.7,0,0,1,1.538.984A2.862,2.862,0,0,1-91.8-3.788,3.388,3.388,0,0,1-92.993-.962,5.667,5.667,0,0,1-96.521,0Zm3.085-5.44v3.067h2.021a1.923,1.923,0,0,0,1.283-.382,1.338,1.338,0,0,0,.448-1.077A1.419,1.419,0,0,0-96.469-5.44Zm0-2.021h1.608a2.29,2.29,0,0,0,1.441-.369,1.308,1.308,0,0,0,.431-1.063,1.373,1.373,0,0,0-.466-1.165,2.5,2.5,0,0,0-1.5-.356h-1.512Zm8.016,2.619a5.613,5.613,0,0,1,.554-2.536,3.96,3.96,0,0,1,1.591-1.709,4.791,4.791,0,0,1,2.435-.6A4.373,4.373,0,0,1-82.67-8.363a5.076,5.076,0,0,1,1.23,3.6v.105a4.925,4.925,0,0,1-1.235,3.529A4.384,4.384,0,0,1-86.019.176a4.434,4.434,0,0,1-3.261-1.217,4.761,4.761,0,0,1-1.327-3.3Zm2.962.185a3.538,3.538,0,0,0,.413,1.934,1.376,1.376,0,0,0,1.222.615q1.582,0,1.617-2.435v-.3q0-2.558-1.635-2.558-1.485,0-1.608,2.206ZM-77.01,0H-79.98V-13.5h2.971Zm6.8-2.672a.684.684,0,0,0-.4-.606,6.016,6.016,0,0,0-1.5-.475A6.853,6.853,0,0,1-73.934-4.4a3.062,3.062,0,0,1-1.1-.971,2.319,2.319,0,0,1-.378-1.31,2.628,2.628,0,0,1,1.081-2.158,4.453,4.453,0,0,1,2.83-.848,4.934,4.934,0,0,1,3.023.853,2.666,2.666,0,0,1,1.143,2.241H-70.3q0-1.143-1.2-1.143a1.194,1.194,0,0,0-.782.259.8.8,0,0,0-.316.646.737.737,0,0,0,.387.642,3.654,3.654,0,0,0,1.235.4,10.671,10.671,0,0,1,1.49.378A2.706,2.706,0,0,1-67.351-2.76,2.491,2.491,0,0,1-68.506-.642,5.068,5.068,0,0,1-71.5.176a5.172,5.172,0,0,1-2.18-.439,3.645,3.645,0,0,1-1.494-1.2,2.707,2.707,0,0,1-.536-1.591h2.769a1.145,1.145,0,0,0,.439.962,1.808,1.808,0,0,0,1.081.3,1.422,1.422,0,0,0,.91-.246A.787.787,0,0,0-70.207-2.672ZM-62.842,0h-2.971V-9.51h2.971Zm-3.146-11.962A1.322,1.322,0,0,1-65.531-13a1.724,1.724,0,0,1,1.187-.4,1.724,1.724,0,0,1,1.187.4,1.322,1.322,0,0,1,.457,1.037,1.322,1.322,0,0,1-.457,1.037,1.724,1.724,0,0,1-1.187.4,1.724,1.724,0,0,1-1.187-.4A1.322,1.322,0,0,1-65.988-11.962ZM-57.894,0h-2.971V-13.5h2.971Zm4.948,0h-2.971V-13.5h2.971Zm1.45-4.843a5.613,5.613,0,0,1,.554-2.536,3.96,3.96,0,0,1,1.591-1.709,4.791,4.791,0,0,1,2.435-.6A4.373,4.373,0,0,1-43.55-8.363a5.076,5.076,0,0,1,1.23,3.6v.105a4.925,4.925,0,0,1-1.235,3.529A4.384,4.384,0,0,1-46.9.176a4.434,4.434,0,0,1-3.261-1.217,4.761,4.761,0,0,1-1.327-3.3Zm2.962.185a3.538,3.538,0,0,0,.413,1.934,1.376,1.376,0,0,0,1.222.615q1.582,0,1.617-2.435v-.3q0-2.558-1.635-2.558-1.485,0-1.608,2.206Zm11.628-.167a5.809,5.809,0,0,1,.976-3.56,3.211,3.211,0,0,1,2.725-1.3,2.731,2.731,0,0,1,2.145,1V-13.5h2.971V0h-2.663L-30.9-1.02a2.8,2.8,0,0,1-2.32,1.2,3.205,3.205,0,0,1-2.689-1.3A5.993,5.993,0,0,1-36.905-4.825Zm2.962.185q0,2.531,1.477,2.531a1.458,1.458,0,0,0,1.406-.826V-6.557A1.419,1.419,0,0,0-32.449-7.4q-1.371,0-1.485,2.215ZM-21.806.176a4.889,4.889,0,0,1-3.542-1.305,4.507,4.507,0,0,1-1.354-3.4v-.246a5.84,5.84,0,0,1,.541-2.575,3.955,3.955,0,0,1,1.578-1.727,4.763,4.763,0,0,1,2.461-.611,4.117,4.117,0,0,1,3.164,1.244A4.887,4.887,0,0,1-17.8-4.975v1.151h-5.889a2.135,2.135,0,0,0,.694,1.257,2.066,2.066,0,0,0,1.389.457,2.662,2.662,0,0,0,2.2-.984l1.354,1.6A3.784,3.784,0,0,1-19.622-.277,5.3,5.3,0,0,1-21.806.176ZM-22.14-7.4q-1.3,0-1.547,1.723H-20.7v-.229a1.467,1.467,0,0,0-.36-1.1A1.434,1.434,0,0,0-22.14-7.4Zm15.768.571-.976-.07a1.752,1.752,0,0,0-1.793.879V0H-12.1V-9.51h2.777l.1,1.222a2.294,2.294,0,0,1,2.083-1.4,2.888,2.888,0,0,1,.826.105ZM-2.18,0H-5.15V-9.51H-2.18ZM-5.326-11.962A1.322,1.322,0,0,1-4.869-13a1.724,1.724,0,0,1,1.187-.4A1.724,1.724,0,0,1-2.5-13a1.322,1.322,0,0,1,.457,1.037A1.322,1.322,0,0,1-2.5-10.925a1.724,1.724,0,0,1-1.187.4,1.724,1.724,0,0,1-1.187-.4A1.322,1.322,0,0,1-5.326-11.962Zm13.8,7.286a5.8,5.8,0,0,1-.967,3.595A3.238,3.238,0,0,1,4.781.176,2.81,2.81,0,0,1,2.443-.976L2.32,0H-.334V-13.5H2.628v4.755a2.711,2.711,0,0,1,2.136-.94A3.239,3.239,0,0,1,7.506-8.411a5.826,5.826,0,0,1,.967,3.586ZM5.5-4.86a3.878,3.878,0,0,0-.365-1.956A1.229,1.229,0,0,0,4.017-7.4a1.418,1.418,0,0,0-1.389.765v3.779A1.426,1.426,0,0,0,4.034-2.1,1.258,1.258,0,0,0,5.361-3.12,7.333,7.333,0,0,0,5.5-4.86ZM14.379.176a4.889,4.889,0,0,1-3.542-1.305,4.507,4.507,0,0,1-1.354-3.4v-.246a5.84,5.84,0,0,1,.541-2.575A3.955,3.955,0,0,1,11.6-9.075a4.763,4.763,0,0,1,2.461-.611,4.117,4.117,0,0,1,3.164,1.244,4.887,4.887,0,0,1,1.16,3.467v1.151H12.5a2.135,2.135,0,0,0,.694,1.257,2.066,2.066,0,0,0,1.389.457,2.662,2.662,0,0,0,2.2-.984l1.354,1.6A3.784,3.784,0,0,1,16.563-.277,5.3,5.3,0,0,1,14.379.176ZM14.045-7.4q-1.3,0-1.547,1.723h2.988v-.229a1.467,1.467,0,0,0-.36-1.1A1.434,1.434,0,0,0,14.045-7.4Zm8.982-4.474V-9.51h1.564v2.057H23.027V-3.1a1.111,1.111,0,0,0,.193.747,1.037,1.037,0,0,0,.765.211,4.345,4.345,0,0,0,.738-.053V-.079a5.466,5.466,0,0,1-1.67.255,3.1,3.1,0,0,1-2.259-.721,2.954,2.954,0,0,1-.729-2.188v-4.72H18.853V-9.51h1.213v-2.364ZM30.357.176a4.889,4.889,0,0,1-3.542-1.305,4.507,4.507,0,0,1-1.354-3.4v-.246A5.84,5.84,0,0,1,26-7.348,3.955,3.955,0,0,1,27.58-9.075a4.763,4.763,0,0,1,2.461-.611,4.117,4.117,0,0,1,3.164,1.244,4.887,4.887,0,0,1,1.16,3.467v1.151H28.477a2.135,2.135,0,0,0,.694,1.257,2.066,2.066,0,0,0,1.389.457,2.662,2.662,0,0,0,2.2-.984l1.354,1.6A3.784,3.784,0,0,1,32.542-.277,5.3,5.3,0,0,1,30.357.176ZM30.023-7.4q-1.3,0-1.547,1.723h2.988v-.229a1.467,1.467,0,0,0-.36-1.1A1.434,1.434,0,0,0,30.023-7.4ZM45.018-2.672a.684.684,0,0,0-.4-.606,6.016,6.016,0,0,0-1.5-.475A6.853,6.853,0,0,1,41.291-4.4a3.062,3.062,0,0,1-1.1-.971,2.319,2.319,0,0,1-.378-1.31A2.628,2.628,0,0,1,40.9-8.837a4.453,4.453,0,0,1,2.83-.848,4.934,4.934,0,0,1,3.023.853,2.666,2.666,0,0,1,1.143,2.241H44.921q0-1.143-1.2-1.143a1.194,1.194,0,0,0-.782.259.8.8,0,0,0-.316.646A.737.737,0,0,0,43-6.187a3.654,3.654,0,0,0,1.235.4,10.671,10.671,0,0,1,1.49.378A2.706,2.706,0,0,1,47.874-2.76,2.491,2.491,0,0,1,46.718-.642a5.068,5.068,0,0,1-2.993.817,5.172,5.172,0,0,1-2.18-.439,3.645,3.645,0,0,1-1.494-1.2,2.707,2.707,0,0,1-.536-1.591h2.769a1.145,1.145,0,0,0,.439.962,1.808,1.808,0,0,0,1.081.3,1.422,1.422,0,0,0,.91-.246A.787.787,0,0,0,45.018-2.672ZM53.859.176a4.889,4.889,0,0,1-3.542-1.305,4.507,4.507,0,0,1-1.354-3.4v-.246A5.84,5.84,0,0,1,49.5-7.348a3.955,3.955,0,0,1,1.578-1.727,4.763,4.763,0,0,1,2.461-.611,4.117,4.117,0,0,1,3.164,1.244,4.887,4.887,0,0,1,1.16,3.467v1.151H51.979a2.135,2.135,0,0,0,.694,1.257,2.066,2.066,0,0,0,1.389.457,2.662,2.662,0,0,0,2.2-.984l1.354,1.6A3.784,3.784,0,0,1,56.043-.277,5.3,5.3,0,0,1,53.859.176ZM53.525-7.4q-1.3,0-1.547,1.723h2.988v-.229a1.467,1.467,0,0,0-.36-1.1A1.434,1.434,0,0,0,53.525-7.4ZM61.778-9.51l.1,1.116a3.225,3.225,0,0,1,2.716-1.292A2.713,2.713,0,0,1,66.81-8.8a4.226,4.226,0,0,1,.76,2.672V0H64.6V-6a1.6,1.6,0,0,0-.29-1.059A1.342,1.342,0,0,0,63.255-7.4a1.413,1.413,0,0,0-1.292.686V0H59V-9.51Zm11.452,7.4a1.317,1.317,0,0,0,.967-.338,1.241,1.241,0,0,0,.334-.945h2.777A3.288,3.288,0,0,1,76.188-.826a4.168,4.168,0,0,1-2.887,1,4.22,4.22,0,0,1-3.27-1.3,5.125,5.125,0,0,1-1.2-3.6v-.123A5.792,5.792,0,0,1,69.368-7.4a3.872,3.872,0,0,1,1.534-1.7,4.573,4.573,0,0,1,2.373-.593,4.116,4.116,0,0,1,2.944,1.028,3.647,3.647,0,0,1,1.09,2.786H74.531A1.626,1.626,0,0,0,74.171-7a1.244,1.244,0,0,0-.967-.4q-1.151,0-1.345,1.468A10.357,10.357,0,0,0,71.8-4.649a4.068,4.068,0,0,0,.343,1.986A1.187,1.187,0,0,0,73.23-2.109ZM81.686,0H78.715V-9.51h2.971ZM78.539-11.962A1.322,1.322,0,0,1,79-13a1.724,1.724,0,0,1,1.187-.4,1.724,1.724,0,0,1,1.187.4,1.322,1.322,0,0,1,.457,1.037,1.322,1.322,0,0,1-.457,1.037,1.724,1.724,0,0,1-1.187.4,1.724,1.724,0,0,1-1.187-.4A1.322,1.322,0,0,1,78.539-11.962ZM86.634,0H83.663V-13.5h2.971Zm4.948,0H88.611V-13.5h2.971Zm1.45-4.843a5.613,5.613,0,0,1,.554-2.536,3.96,3.96,0,0,1,1.591-1.709,4.791,4.791,0,0,1,2.435-.6,4.373,4.373,0,0,1,3.366,1.323,5.076,5.076,0,0,1,1.23,3.6v.105a4.925,4.925,0,0,1-1.235,3.529A4.384,4.384,0,0,1,97.629.176a4.434,4.434,0,0,1-3.261-1.217,4.761,4.761,0,0,1-1.327-3.3Zm2.962.185a3.538,3.538,0,0,0,.413,1.934,1.376,1.376,0,0,0,1.222.615q1.582,0,1.617-2.435v-.3q0-2.558-1.635-2.558Q96.126-7.4,96-5.194Z" transform="translate(496 7083.252)" fill="#12263f"/>
    <path id="Trazado_777092" data-name="Trazado 777092" d="M-116.921-12.8l2.856,8.9,2.848-8.9h4.061V0h-3.094V-2.988l.3-6.117L-113.045,0h-2.039l-3.1-9.114.3,6.126V0h-3.085V-12.8Zm11.215,7.954a5.613,5.613,0,0,1,.554-2.536,3.96,3.96,0,0,1,1.591-1.709,4.791,4.791,0,0,1,2.435-.6,4.373,4.373,0,0,1,3.366,1.323,5.076,5.076,0,0,1,1.23,3.6v.105a4.925,4.925,0,0,1-1.235,3.529A4.384,4.384,0,0,1-101.109.176a4.434,4.434,0,0,1-3.261-1.217,4.761,4.761,0,0,1-1.327-3.3Zm2.962.185a3.538,3.538,0,0,0,.413,1.934,1.376,1.376,0,0,0,1.222.615q1.582,0,1.617-2.435v-.3q0-2.558-1.635-2.558-1.485,0-1.608,2.206ZM-92.5-9.51l.1,1.116a3.225,3.225,0,0,1,2.716-1.292,2.713,2.713,0,0,1,2.219.888,4.226,4.226,0,0,1,.76,2.672V0h-2.971V-6a1.6,1.6,0,0,0-.29-1.059A1.342,1.342,0,0,0-91.028-7.4a1.413,1.413,0,0,0-1.292.686V0h-2.962V-9.51Zm10.881-2.364V-9.51h1.564v2.057h-1.564V-3.1a1.111,1.111,0,0,0,.193.747,1.037,1.037,0,0,0,.765.211,4.345,4.345,0,0,0,.738-.053V-.079A5.466,5.466,0,0,1-81.6.176a3.1,3.1,0,0,1-2.259-.721,2.954,2.954,0,0,1-.729-2.188v-4.72H-85.8V-9.51h1.213v-2.364ZM-73.538,0a3.344,3.344,0,0,1-.281-.853A2.754,2.754,0,0,1-76.1.176,3.374,3.374,0,0,1-78.39-.637a2.588,2.588,0,0,1-.94-2.043,2.66,2.66,0,0,1,1.143-2.338,5.821,5.821,0,0,1,3.322-.791h.914v-.5q0-1.31-1.134-1.31A.925.925,0,0,0-76.14-6.583H-79.1a2.659,2.659,0,0,1,1.173-2.241,4.927,4.927,0,0,1,2.993-.861,4.323,4.323,0,0,1,2.874.888A3.086,3.086,0,0,1-70.98-6.363v4.21a4.311,4.311,0,0,0,.4,2V0Zm-1.854-1.934a1.652,1.652,0,0,0,.918-.237,1.487,1.487,0,0,0,.523-.536V-4.228h-.861q-1.547,0-1.547,1.389a.848.848,0,0,0,.272.655A.986.986,0,0,0-75.393-1.934Zm9.237-7.576V.325a3.452,3.452,0,0,1-.967,2.6,3.714,3.714,0,0,1-2.672.914,6.308,6.308,0,0,1-1.4-.149V1.45a5.667,5.667,0,0,0,.835.079A1.084,1.084,0,0,0-69.126.308V-9.51Zm-3.19-2.452A1.322,1.322,0,0,1-68.889-13a1.724,1.724,0,0,1,1.187-.4,1.724,1.724,0,0,1,1.187.4,1.322,1.322,0,0,1,.457,1.037,1.322,1.322,0,0,1-.457,1.037,1.724,1.724,0,0,1-1.187.4,1.724,1.724,0,0,1-1.187-.4A1.322,1.322,0,0,1-69.346-11.962ZM-59.88.176a4.889,4.889,0,0,1-3.542-1.305,4.507,4.507,0,0,1-1.354-3.4v-.246a5.84,5.84,0,0,1,.541-2.575,3.955,3.955,0,0,1,1.578-1.727A4.763,4.763,0,0,1-60.2-9.686a4.117,4.117,0,0,1,3.164,1.244,4.887,4.887,0,0,1,1.16,3.467v1.151h-5.889a2.135,2.135,0,0,0,.694,1.257,2.066,2.066,0,0,0,1.389.457,2.662,2.662,0,0,0,2.2-.984l1.354,1.6A3.784,3.784,0,0,1-57.7-.277,5.3,5.3,0,0,1-59.88.176ZM-60.214-7.4q-1.3,0-1.547,1.723h2.988v-.229a1.467,1.467,0,0,0-.36-1.1A1.434,1.434,0,0,0-60.214-7.4Zm9.642,2.575a5.809,5.809,0,0,1,.976-3.56,3.211,3.211,0,0,1,2.725-1.3,2.731,2.731,0,0,1,2.145,1V-13.5h2.971V0H-44.42l-.149-1.02a2.8,2.8,0,0,1-2.32,1.2,3.205,3.205,0,0,1-2.689-1.3A5.993,5.993,0,0,1-50.572-4.825Zm2.962.185q0,2.531,1.477,2.531a1.458,1.458,0,0,0,1.406-.826V-6.557A1.419,1.419,0,0,0-46.116-7.4q-1.371,0-1.485,2.215ZM-35.473.176a4.889,4.889,0,0,1-3.542-1.305,4.507,4.507,0,0,1-1.354-3.4v-.246a5.84,5.84,0,0,1,.541-2.575A3.955,3.955,0,0,1-38.25-9.075a4.763,4.763,0,0,1,2.461-.611,4.117,4.117,0,0,1,3.164,1.244,4.887,4.887,0,0,1,1.16,3.467v1.151h-5.889a2.135,2.135,0,0,0,.694,1.257,2.066,2.066,0,0,0,1.389.457,2.662,2.662,0,0,0,2.2-.984l1.354,1.6A3.784,3.784,0,0,1-33.289-.277,5.3,5.3,0,0,1-35.473.176ZM-35.807-7.4q-1.3,0-1.547,1.723h2.988v-.229a1.467,1.467,0,0,0-.36-1.1A1.434,1.434,0,0,0-35.807-7.4Zm14.036,5.291a1.317,1.317,0,0,0,.967-.338,1.241,1.241,0,0,0,.334-.945h2.777A3.288,3.288,0,0,1-18.813-.826a4.168,4.168,0,0,1-2.887,1,4.22,4.22,0,0,1-3.27-1.3,5.125,5.125,0,0,1-1.2-3.6v-.123A5.792,5.792,0,0,1-25.633-7.4a3.872,3.872,0,0,1,1.534-1.7,4.573,4.573,0,0,1,2.373-.593,4.116,4.116,0,0,1,2.944,1.028,3.647,3.647,0,0,1,1.09,2.786H-20.47A1.626,1.626,0,0,0-20.83-7a1.244,1.244,0,0,0-.967-.4q-1.151,0-1.345,1.468A10.357,10.357,0,0,0-23.2-4.649a4.068,4.068,0,0,0,.343,1.986A1.187,1.187,0,0,0-21.771-2.109ZM-13.315,0h-2.971V-9.51h2.971Zm-3.146-11.962A1.322,1.322,0,0,1-16-13a1.724,1.724,0,0,1,1.187-.4,1.724,1.724,0,0,1,1.187.4,1.322,1.322,0,0,1,.457,1.037,1.322,1.322,0,0,1-.457,1.037,1.724,1.724,0,0,1-1.187.4,1.724,1.724,0,0,1-1.187-.4A1.322,1.322,0,0,1-16.462-11.962ZM-6.891.176a4.889,4.889,0,0,1-3.542-1.305,4.507,4.507,0,0,1-1.354-3.4v-.246a5.84,5.84,0,0,1,.541-2.575A3.955,3.955,0,0,1-9.668-9.075a4.763,4.763,0,0,1,2.461-.611A4.117,4.117,0,0,1-4.043-8.442a4.887,4.887,0,0,1,1.16,3.467v1.151H-8.771a2.135,2.135,0,0,0,.694,1.257,2.066,2.066,0,0,0,1.389.457,2.662,2.662,0,0,0,2.2-.984l1.354,1.6A3.784,3.784,0,0,1-4.707-.277,5.3,5.3,0,0,1-6.891.176ZM-7.225-7.4q-1.3,0-1.547,1.723h2.988v-.229a1.467,1.467,0,0,0-.36-1.1A1.434,1.434,0,0,0-7.225-7.4Zm11.285.571L3.085-6.9a1.752,1.752,0,0,0-1.793.879V0H-1.67V-9.51H1.107l.1,1.222a2.294,2.294,0,0,1,2.083-1.4,2.888,2.888,0,0,1,.826.105Zm6.82,0L9.905-6.9a1.752,1.752,0,0,0-1.793.879V0H5.15V-9.51H7.928l.1,1.222a2.294,2.294,0,0,1,2.083-1.4,2.888,2.888,0,0,1,.826.105Zm5.669,7a4.889,4.889,0,0,1-3.542-1.305,4.507,4.507,0,0,1-1.354-3.4v-.246a5.84,5.84,0,0,1,.541-2.575,3.955,3.955,0,0,1,1.578-1.727,4.763,4.763,0,0,1,2.461-.611A4.117,4.117,0,0,1,19.4-8.442a4.887,4.887,0,0,1,1.16,3.467v1.151H14.669a2.135,2.135,0,0,0,.694,1.257,2.066,2.066,0,0,0,1.389.457,2.662,2.662,0,0,0,2.2-.984l1.354,1.6A3.784,3.784,0,0,1,18.734-.277,5.3,5.3,0,0,1,16.55.176ZM16.216-7.4q-1.3,0-1.547,1.723h2.988v-.229a1.467,1.467,0,0,0-.36-1.1A1.434,1.434,0,0,0,16.216-7.4ZM22.79,3.445l-1.494-.7.3-.6a4.874,4.874,0,0,0,.642-2.18v-2.2h2.373L24.6-.325a4.767,4.767,0,0,1-.519,2.057A5.226,5.226,0,0,1,22.79,3.445ZM35.1-2.109a1.317,1.317,0,0,0,.967-.338,1.241,1.241,0,0,0,.334-.945h2.777A3.288,3.288,0,0,1,38.061-.826a4.168,4.168,0,0,1-2.887,1,4.22,4.22,0,0,1-3.27-1.3,5.125,5.125,0,0,1-1.2-3.6v-.123A5.792,5.792,0,0,1,31.241-7.4a3.872,3.872,0,0,1,1.534-1.7,4.573,4.573,0,0,1,2.373-.593,4.116,4.116,0,0,1,2.944,1.028,3.647,3.647,0,0,1,1.09,2.786H36.4A1.626,1.626,0,0,0,36.044-7a1.244,1.244,0,0,0-.967-.4q-1.151,0-1.345,1.468a10.357,10.357,0,0,0-.062,1.283,4.068,4.068,0,0,0,.343,1.986A1.187,1.187,0,0,0,35.1-2.109Zm11.083-4.72-.976-.07a1.752,1.752,0,0,0-1.793.879V0H40.456V-9.51h2.777l.1,1.222a2.294,2.294,0,0,1,2.083-1.4,2.888,2.888,0,0,1,.826.105Zm5.669,7a4.889,4.889,0,0,1-3.542-1.305,4.507,4.507,0,0,1-1.354-3.4v-.246A5.84,5.84,0,0,1,47.5-7.348a3.955,3.955,0,0,1,1.578-1.727,4.763,4.763,0,0,1,2.461-.611A4.117,4.117,0,0,1,54.7-8.442a4.887,4.887,0,0,1,1.16,3.467v1.151H49.975a2.135,2.135,0,0,0,.694,1.257,2.066,2.066,0,0,0,1.389.457,2.662,2.662,0,0,0,2.2-.984l1.354,1.6A3.784,3.784,0,0,1,54.04-.277,5.3,5.3,0,0,1,51.855.176ZM51.521-7.4q-1.3,0-1.547,1.723h2.988v-.229a1.467,1.467,0,0,0-.36-1.1A1.434,1.434,0,0,0,51.521-7.4ZM59.854-9.51l.1,1.116a3.27,3.27,0,0,1,2.716-1.292A2.407,2.407,0,0,1,65.1-8.253,3.165,3.165,0,0,1,67.9-9.686q2.892,0,2.971,3.5V0H67.9V-6a1.813,1.813,0,0,0-.246-1.063,1.048,1.048,0,0,0-.9-.334,1.4,1.4,0,0,0-1.31.782l.009.123V0H62.481V-5.985a1.906,1.906,0,0,0-.237-1.081,1.045,1.045,0,0,0-.905-.334,1.42,1.42,0,0,0-1.3.782V0H57.076V-9.51ZM77.915,0a3.344,3.344,0,0,1-.281-.853A2.754,2.754,0,0,1,75.349.176a3.374,3.374,0,0,1-2.285-.813,2.588,2.588,0,0,1-.94-2.043,2.66,2.66,0,0,1,1.143-2.338,5.821,5.821,0,0,1,3.322-.791H77.5v-.5q0-1.31-1.134-1.31a.925.925,0,0,0-1.055,1.037H72.352a2.659,2.659,0,0,1,1.173-2.241,4.927,4.927,0,0,1,2.993-.861,4.323,4.323,0,0,1,2.874.888,3.086,3.086,0,0,1,1.081,2.435v4.21a4.311,4.311,0,0,0,.4,2V0ZM76.061-1.934a1.652,1.652,0,0,0,.918-.237,1.487,1.487,0,0,0,.523-.536V-4.228h-.861q-1.547,0-1.547,1.389a.848.848,0,0,0,.272.655A.986.986,0,0,0,76.061-1.934ZM85.236,0H82.266V-13.5h2.971Zm4.948,0H87.214V-13.5h2.971Zm6.425.176a4.889,4.889,0,0,1-3.542-1.305,4.507,4.507,0,0,1-1.354-3.4v-.246a5.84,5.84,0,0,1,.541-2.575,3.955,3.955,0,0,1,1.578-1.727,4.763,4.763,0,0,1,2.461-.611,4.117,4.117,0,0,1,3.164,1.244,4.887,4.887,0,0,1,1.16,3.467v1.151H94.729a2.135,2.135,0,0,0,.694,1.257,2.066,2.066,0,0,0,1.389.457,2.662,2.662,0,0,0,2.2-.984l1.354,1.6A3.784,3.784,0,0,1,98.793-.277,5.3,5.3,0,0,1,96.609.176ZM96.275-7.4q-1.3,0-1.547,1.723h2.988v-.229a1.467,1.467,0,0,0-.36-1.1A1.434,1.434,0,0,0,96.275-7.4Zm11.285.571-.976-.07a1.752,1.752,0,0,0-1.793.879V0H101.83V-9.51h2.777l.1,1.222a2.294,2.294,0,0,1,2.083-1.4,2.888,2.888,0,0,1,.826.105ZM113.722,0a3.344,3.344,0,0,1-.281-.853A2.754,2.754,0,0,1,111.155.176a3.374,3.374,0,0,1-2.285-.813,2.588,2.588,0,0,1-.94-2.043,2.66,2.66,0,0,1,1.143-2.338,5.821,5.821,0,0,1,3.322-.791h.914v-.5q0-1.31-1.134-1.31a.925.925,0,0,0-1.055,1.037h-2.962a2.659,2.659,0,0,1,1.173-2.241,4.927,4.927,0,0,1,2.993-.861A4.323,4.323,0,0,1,115.2-8.8a3.086,3.086,0,0,1,1.081,2.435v4.21a4.311,4.311,0,0,0,.4,2V0Zm-1.854-1.934a1.652,1.652,0,0,0,.918-.237,1.487,1.487,0,0,0,.523-.536V-4.228h-.861q-1.547,0-1.547,1.389a.848.848,0,0,0,.272.655A.986.986,0,0,0,111.867-1.934Zm7.093,5.379-1.494-.7.3-.6a4.874,4.874,0,0,0,.642-2.18v-2.2h2.373l-.009,1.907a4.767,4.767,0,0,1-.519,2.057A5.226,5.226,0,0,1,118.96,3.445ZM-108.958,22.891a1.317,1.317,0,0,0,.967-.338,1.241,1.241,0,0,0,.334-.945h2.777A3.288,3.288,0,0,1-106,24.174a4.168,4.168,0,0,1-2.887,1,4.22,4.22,0,0,1-3.27-1.3,5.125,5.125,0,0,1-1.2-3.6v-.123a5.792,5.792,0,0,1,.532-2.544,3.872,3.872,0,0,1,1.534-1.7,4.573,4.573,0,0,1,2.373-.593,4.116,4.116,0,0,1,2.944,1.028,3.647,3.647,0,0,1,1.09,2.786h-2.777a1.626,1.626,0,0,0-.36-1.134,1.244,1.244,0,0,0-.967-.4q-1.151,0-1.345,1.468a10.357,10.357,0,0,0-.062,1.283,4.068,4.068,0,0,0,.343,1.986A1.187,1.187,0,0,0-108.958,22.891ZM-104,20.157a5.613,5.613,0,0,1,.554-2.536,3.96,3.96,0,0,1,1.591-1.709,4.791,4.791,0,0,1,2.435-.6,4.373,4.373,0,0,1,3.366,1.323,5.076,5.076,0,0,1,1.23,3.6v.105a4.925,4.925,0,0,1-1.235,3.529A4.384,4.384,0,0,1-99.4,25.176a4.434,4.434,0,0,1-3.261-1.217,4.761,4.761,0,0,1-1.327-3.3Zm2.962.185a3.538,3.538,0,0,0,.413,1.934,1.376,1.376,0,0,0,1.222.615q1.582,0,1.617-2.435v-.3q0-2.558-1.635-2.558-1.485,0-1.608,2.206Zm13.271-2.171-.976-.07a1.752,1.752,0,0,0-1.793.879V25H-93.5V15.49h2.777l.1,1.222a2.294,2.294,0,0,1,2.083-1.4,2.888,2.888,0,0,1,.826.105Zm6.82,0-.976-.07a1.752,1.752,0,0,0-1.793.879V25h-2.962V15.49H-83.9l.1,1.222a2.294,2.294,0,0,1,2.083-1.4,2.888,2.888,0,0,1,.826.105Zm5.669,7a4.889,4.889,0,0,1-3.542-1.305,4.507,4.507,0,0,1-1.354-3.4v-.246a5.84,5.84,0,0,1,.541-2.575,3.955,3.955,0,0,1,1.578-1.727,4.763,4.763,0,0,1,2.461-.611,4.117,4.117,0,0,1,3.164,1.244,4.887,4.887,0,0,1,1.16,3.467v1.151h-5.889a2.135,2.135,0,0,0,.694,1.257,2.066,2.066,0,0,0,1.389.457,2.662,2.662,0,0,0,2.2-.984l1.354,1.6a3.784,3.784,0,0,1-1.569,1.217A5.3,5.3,0,0,1-75.278,25.176Zm-.334-7.576q-1.3,0-1.547,1.723h2.988v-.229a1.467,1.467,0,0,0-.36-1.1A1.434,1.434,0,0,0-75.612,17.6Zm5.159,2.575a5.809,5.809,0,0,1,.976-3.56,3.211,3.211,0,0,1,2.725-1.3,2.731,2.731,0,0,1,2.145,1V11.5h2.971V25H-64.3l-.149-1.02a2.8,2.8,0,0,1-2.32,1.2,3.205,3.205,0,0,1-2.689-1.3A5.993,5.993,0,0,1-70.453,20.175Zm2.962.185q0,2.531,1.477,2.531a1.458,1.458,0,0,0,1.406-.826V18.443A1.419,1.419,0,0,0-66,17.6q-1.371,0-1.485,2.215Zm12.138,4.816A4.889,4.889,0,0,1-58.9,23.871a4.507,4.507,0,0,1-1.354-3.4v-.246a5.84,5.84,0,0,1,.541-2.575,3.955,3.955,0,0,1,1.578-1.727,4.763,4.763,0,0,1,2.461-.611,4.117,4.117,0,0,1,3.164,1.244,4.887,4.887,0,0,1,1.16,3.467v1.151h-5.889a2.135,2.135,0,0,0,.694,1.257,2.066,2.066,0,0,0,1.389.457,2.662,2.662,0,0,0,2.2-.984l1.354,1.6a3.784,3.784,0,0,1-1.569,1.217A5.3,5.3,0,0,1-55.354,25.176Zm-.334-7.576q-1.3,0-1.547,1.723h2.988v-.229a1.467,1.467,0,0,0-.36-1.1A1.434,1.434,0,0,0-55.687,17.6Zm11.285.571-.976-.07a1.752,1.752,0,0,0-1.793.879V25h-2.962V15.49h2.777l.1,1.222a2.294,2.294,0,0,1,2.083-1.4,2.888,2.888,0,0,1,.826.105ZM-38.241,25a3.344,3.344,0,0,1-.281-.853,2.754,2.754,0,0,1-2.285,1.028,3.374,3.374,0,0,1-2.285-.813,2.588,2.588,0,0,1-.94-2.043,2.66,2.66,0,0,1,1.143-2.338,5.821,5.821,0,0,1,3.322-.791h.914v-.5q0-1.31-1.134-1.31a.925.925,0,0,0-1.055,1.037H-43.8a2.659,2.659,0,0,1,1.173-2.241,4.927,4.927,0,0,1,2.993-.861,4.323,4.323,0,0,1,2.874.888,3.086,3.086,0,0,1,1.081,2.435v4.21a4.311,4.311,0,0,0,.4,2V25ZM-40.1,23.066a1.652,1.652,0,0,0,.918-.237,1.487,1.487,0,0,0,.523-.536V20.772h-.861q-1.547,0-1.547,1.389a.848.848,0,0,0,.272.655A.986.986,0,0,0-40.1,23.066Zm10.16-2.909a5.613,5.613,0,0,1,.554-2.536,3.96,3.96,0,0,1,1.591-1.709,4.791,4.791,0,0,1,2.435-.6,4.373,4.373,0,0,1,3.366,1.323,5.076,5.076,0,0,1,1.23,3.6v.105a4.925,4.925,0,0,1-1.235,3.529,4.384,4.384,0,0,1-3.344,1.305A4.434,4.434,0,0,1-28.6,23.958a4.761,4.761,0,0,1-1.327-3.3Zm2.962.185a3.538,3.538,0,0,0,.413,1.934,1.376,1.376,0,0,0,1.222.615q1.582,0,1.617-2.435v-.3q0-2.558-1.635-2.558-1.485,0-1.608,2.206Zm14.9,2.355,4.166.018L-8.306,25h-7.857l.308-1.775,5-5.432-3.876-.018.4-2.285H-6.75l-.3,1.731ZM-3.8,25H-6.7l1.652-9.51h2.9ZM-4.79,13.091a1.341,1.341,0,0,1,.453-1.072A1.625,1.625,0,0,1-3.2,11.588a1.678,1.678,0,0,1,1.129.387,1.318,1.318,0,0,1,.47,1.011,1.344,1.344,0,0,1-.448,1.077,1.63,1.63,0,0,1-1.143.426,1.7,1.7,0,0,1-1.121-.382A1.3,1.3,0,0,1-4.79,13.091ZM7.436,20.254a7.9,7.9,0,0,1-.782,2.659,4.348,4.348,0,0,1-1.481,1.731,3.417,3.417,0,0,1-1.973.541A2.584,2.584,0,0,1,1.178,24.2L.316,28.656H-2.575L-.29,15.49l2.672-.009-.149.905a2.8,2.8,0,0,1,2.259-1.072,2.662,2.662,0,0,1,2.167.993,4.388,4.388,0,0,1,.831,2.663A10.274,10.274,0,0,1,7.436,20.254ZM4.623,19.076q-.044-1.45-.984-1.477a1.7,1.7,0,0,0-1.521.747l-.677,3.771a1.173,1.173,0,0,0,1.213.782q1.538.026,1.89-2.646Q4.623,19.41,4.623,19.076ZM17.35,20.254a7.9,7.9,0,0,1-.782,2.659,4.348,4.348,0,0,1-1.481,1.731,3.417,3.417,0,0,1-1.973.541,2.584,2.584,0,0,1-2.021-.984l-.861,4.456H7.339L9.624,15.49l2.672-.009-.149.905a2.8,2.8,0,0,1,2.259-1.072,2.662,2.662,0,0,1,2.167.993,4.388,4.388,0,0,1,.831,2.663A10.274,10.274,0,0,1,17.35,20.254Zm-2.812-1.178q-.044-1.45-.984-1.477a1.7,1.7,0,0,0-1.521.747l-.677,3.771a1.173,1.173,0,0,0,1.213.782q1.538.026,1.89-2.646Q14.537,19.41,14.537,19.076Zm8.06,6.1a4.421,4.421,0,0,1-2.272-.6,3.793,3.793,0,0,1-1.507-1.652,4.44,4.44,0,0,1-.4-2.333l.026-.246a5.829,5.829,0,0,1,1.63-3.713,4.51,4.51,0,0,1,3.415-1.314,3.682,3.682,0,0,1,2.092.62A3.463,3.463,0,0,1,26.851,17.6a5.08,5.08,0,0,1,.264,2.377l-.167,1.2h-5.66a1.854,1.854,0,0,0,.422,1.213,1.549,1.549,0,0,0,1.178.492,2.993,2.993,0,0,0,2.259-.967l1.213,1.608a3.58,3.58,0,0,1-1.5,1.2,5.25,5.25,0,0,1-2.1.453Zm.7-7.585a1.483,1.483,0,0,0-1.068.387,3.248,3.248,0,0,0-.787,1.354h2.892l.053-.255a1.949,1.949,0,0,0,.018-.58A1.019,1.019,0,0,0,23.3,17.591Zm11.03.58a8.273,8.273,0,0,0-.9-.088,2.233,2.233,0,0,0-1.986.9L30.375,25H27.483l1.652-9.51,2.7-.009-.22,1.248a2.64,2.64,0,0,1,2.2-1.441,4.144,4.144,0,0,1,.9.123ZM39.823,19.8a13.431,13.431,0,0,1,.571-3.99,9.629,9.629,0,0,1,1.578-3.129,5.6,5.6,0,0,1,2.237-1.793l.563,1.459a5.73,5.73,0,0,0-1.9,2.826,13.782,13.782,0,0,0-.681,4.5v.387a14.051,14.051,0,0,0,.672,4.588A5.706,5.706,0,0,0,44.771,27.5l-.562,1.459a5.547,5.547,0,0,1-2.237-1.8,9.484,9.484,0,0,1-1.578-3.116,13.5,13.5,0,0,1-.571-3.85ZM51.311,25a3.344,3.344,0,0,1-.281-.853,2.754,2.754,0,0,1-2.285,1.028,3.374,3.374,0,0,1-2.285-.813,2.588,2.588,0,0,1-.94-2.043,2.66,2.66,0,0,1,1.143-2.338,5.821,5.821,0,0,1,3.322-.791H50.9v-.5q0-1.31-1.134-1.31a.925.925,0,0,0-1.055,1.037H45.747a2.659,2.659,0,0,1,1.173-2.241,4.927,4.927,0,0,1,2.993-.861,4.323,4.323,0,0,1,2.874.888,3.086,3.086,0,0,1,1.081,2.435v4.21a4.311,4.311,0,0,0,.4,2V25Zm-1.854-1.934a1.652,1.652,0,0,0,.918-.237,1.487,1.487,0,0,0,.523-.536V20.772h-.861q-1.547,0-1.547,1.389a.848.848,0,0,0,.272.655A.986.986,0,0,0,49.456,23.066ZM58.632,25H55.661V11.5h2.971Zm6.425.176a4.889,4.889,0,0,1-3.542-1.305,4.507,4.507,0,0,1-1.354-3.4v-.246a5.84,5.84,0,0,1,.541-2.575,3.955,3.955,0,0,1,1.578-1.727,4.763,4.763,0,0,1,2.461-.611A4.117,4.117,0,0,1,67.9,16.558a4.887,4.887,0,0,1,1.16,3.467v1.151H63.176a2.135,2.135,0,0,0,.694,1.257,2.066,2.066,0,0,0,1.389.457,2.662,2.662,0,0,0,2.2-.984l1.354,1.6a3.784,3.784,0,0,1-1.569,1.217A5.3,5.3,0,0,1,65.057,25.176ZM64.723,17.6q-1.3,0-1.547,1.723h2.988v-.229a1.467,1.467,0,0,0-.36-1.1A1.434,1.434,0,0,0,64.723,17.6Zm8.982-4.474V15.49H75.27v2.057H73.705V21.9a1.111,1.111,0,0,0,.193.747,1.037,1.037,0,0,0,.765.211A4.345,4.345,0,0,0,75.4,22.8v2.118a5.466,5.466,0,0,1-1.67.255,3.1,3.1,0,0,1-2.259-.721,2.954,2.954,0,0,1-.729-2.188v-4.72H69.53V15.49h1.213V13.126ZM79.559,25H76.588V15.49h2.971ZM76.412,13.038A1.322,1.322,0,0,1,76.869,12a1.943,1.943,0,0,1,2.373,0,1.405,1.405,0,0,1,0,2.074,1.943,1.943,0,0,1-2.373,0A1.322,1.322,0,0,1,76.412,13.038ZM84.507,25H81.536V11.5h2.971Zm4.948,0H86.484V11.5h2.971Zm7.181,0a3.344,3.344,0,0,1-.281-.853,2.754,2.754,0,0,1-2.285,1.028,3.374,3.374,0,0,1-2.285-.813,2.588,2.588,0,0,1-.94-2.043,2.66,2.66,0,0,1,1.143-2.338,5.821,5.821,0,0,1,3.322-.791h.914v-.5q0-1.31-1.134-1.31a.925.925,0,0,0-1.055,1.037H91.072a2.659,2.659,0,0,1,1.173-2.241,4.927,4.927,0,0,1,2.993-.861,4.323,4.323,0,0,1,2.874.888,3.086,3.086,0,0,1,1.081,2.435v4.21a4.311,4.311,0,0,0,.4,2V25Zm-1.854-1.934a1.652,1.652,0,0,0,.918-.237,1.487,1.487,0,0,0,.523-.536V20.772h-.861q-1.547,0-1.547,1.389a.848.848,0,0,0,.272.655A.986.986,0,0,0,94.781,23.066Zm14.335-2.215L110.7,15.49h3.173L110,26.591l-.167.4a2.944,2.944,0,0,1-2.918,1.846,4.625,4.625,0,0,1-1.222-.176V26.547h.387a2.027,2.027,0,0,0,.954-.18,1.093,1.093,0,0,0,.488-.646l.237-.633-3.3-9.6h3.164ZM-27.229,50H-30.2V36.5h2.971Zm6.425.176a4.889,4.889,0,0,1-3.542-1.305,4.507,4.507,0,0,1-1.354-3.4v-.246a5.84,5.84,0,0,1,.541-2.575,3.955,3.955,0,0,1,1.578-1.727,4.763,4.763,0,0,1,2.461-.611,4.117,4.117,0,0,1,3.164,1.244,4.887,4.887,0,0,1,1.16,3.467v1.151h-5.889a2.135,2.135,0,0,0,.694,1.257,2.066,2.066,0,0,0,1.389.457,2.662,2.662,0,0,0,2.2-.984l1.354,1.6a3.784,3.784,0,0,1-1.569,1.217A5.3,5.3,0,0,1-20.8,50.176Zm-.334-7.576q-1.3,0-1.547,1.723H-19.7v-.229a1.467,1.467,0,0,0-.36-1.1A1.434,1.434,0,0,0-21.138,42.6Zm8.982-4.474V40.49h1.564v2.057h-1.564V46.9a1.111,1.111,0,0,0,.193.747,1.037,1.037,0,0,0,.765.211,4.345,4.345,0,0,0,.738-.053v2.118a5.466,5.466,0,0,1-1.67.255,3.1,3.1,0,0,1-2.259-.721,2.954,2.954,0,0,1-.729-2.188v-4.72H-16.33V40.49h1.213V38.126ZM-6.3,50H-9.272V40.49H-6.3ZM-9.448,38.038A1.322,1.322,0,0,1-8.991,37,1.724,1.724,0,0,1-7.8,36.6a1.724,1.724,0,0,1,1.187.4,1.322,1.322,0,0,1,.457,1.037,1.322,1.322,0,0,1-.457,1.037,1.724,1.724,0,0,1-1.187.4,1.724,1.724,0,0,1-1.187-.4A1.322,1.322,0,0,1-9.448,38.038ZM-1.354,50H-4.324V36.5h2.971Zm4.948,0H.624V36.5H3.595Zm1.45-4.843A5.613,5.613,0,0,1,5.6,42.622a3.96,3.96,0,0,1,1.591-1.709,4.791,4.791,0,0,1,2.435-.6,4.373,4.373,0,0,1,3.366,1.323,5.076,5.076,0,0,1,1.23,3.6v.105a4.925,4.925,0,0,1-1.235,3.529,4.384,4.384,0,0,1-3.344,1.305,4.434,4.434,0,0,1-3.261-1.217,4.761,4.761,0,0,1-1.327-3.3Zm2.962.185a3.538,3.538,0,0,0,.413,1.934,1.376,1.376,0,0,0,1.222.615q1.582,0,1.617-2.435v-.3q0-2.558-1.635-2.558-1.485,0-1.608,2.206ZM10.028,36.5h3.129l-2.443,2.76H8.3Zm8.218,3.99.1,1.116a3.225,3.225,0,0,1,2.716-1.292,2.713,2.713,0,0,1,2.219.888,4.226,4.226,0,0,1,.76,2.672V50H21.067V44a1.6,1.6,0,0,0-.29-1.059,1.342,1.342,0,0,0-1.055-.338,1.413,1.413,0,0,0-1.292.686V50H15.469V40.49Zm12.1,4.553a12.532,12.532,0,0,1-.606,3.92,10.008,10.008,0,0,1-1.674,3.186,5.574,5.574,0,0,1-2.307,1.806L25.2,52.5a5.787,5.787,0,0,0,1.89-2.812,13.577,13.577,0,0,0,.694-4.368v-.536a14.051,14.051,0,0,0-.672-4.588A5.706,5.706,0,0,0,25.2,37.344l.563-1.459a5.676,5.676,0,0,1,2.29,1.789,9.885,9.885,0,0,1,1.67,3.138,12.426,12.426,0,0,1,.628,3.845Z" transform="translate(499 6955.752)" fill="#12263f"/>
    <path id="Trazado_777088" data-name="Trazado 777088" d="M-72.224-12.8l2.856,8.9,2.848-8.9h4.061V0h-3.094V-2.988l.3-6.117L-68.348,0h-2.039l-3.1-9.114.3,6.126V0h-3.085V-12.8Zm11.215,7.954a5.613,5.613,0,0,1,.554-2.536,3.96,3.96,0,0,1,1.591-1.709,4.791,4.791,0,0,1,2.435-.6,4.373,4.373,0,0,1,3.366,1.323,5.076,5.076,0,0,1,1.23,3.6v.105a4.925,4.925,0,0,1-1.235,3.529A4.384,4.384,0,0,1-56.413.176a4.434,4.434,0,0,1-3.261-1.217A4.761,4.761,0,0,1-61-4.342Zm2.962.185a3.538,3.538,0,0,0,.413,1.934,1.376,1.376,0,0,0,1.222.615q1.582,0,1.617-2.435v-.3Q-54.8-7.4-56.43-7.4q-1.485,0-1.608,2.206ZM-47.808-9.51l.1,1.116A3.225,3.225,0,0,1-45-9.686a2.713,2.713,0,0,1,2.219.888,4.226,4.226,0,0,1,.76,2.672V0h-2.971V-6a1.6,1.6,0,0,0-.29-1.059A1.342,1.342,0,0,0-46.332-7.4a1.413,1.413,0,0,0-1.292.686V0h-2.962V-9.51Zm10.881-2.364V-9.51h1.564v2.057h-1.564V-3.1a1.111,1.111,0,0,0,.193.747,1.037,1.037,0,0,0,.765.211,4.345,4.345,0,0,0,.738-.053V-.079A5.466,5.466,0,0,1-36.9.176,3.1,3.1,0,0,1-39.16-.545a2.954,2.954,0,0,1-.729-2.188v-4.72H-41.1V-9.51h1.213v-2.364ZM-28.841,0a3.344,3.344,0,0,1-.281-.853A2.754,2.754,0,0,1-31.408.176a3.374,3.374,0,0,1-2.285-.813,2.588,2.588,0,0,1-.94-2.043,2.66,2.66,0,0,1,1.143-2.338,5.821,5.821,0,0,1,3.322-.791h.914v-.5q0-1.31-1.134-1.31a.925.925,0,0,0-1.055,1.037H-34.4a2.659,2.659,0,0,1,1.173-2.241,4.927,4.927,0,0,1,2.993-.861,4.323,4.323,0,0,1,2.874.888,3.086,3.086,0,0,1,1.081,2.435v4.21a4.311,4.311,0,0,0,.4,2V0ZM-30.7-1.934a1.652,1.652,0,0,0,.918-.237,1.487,1.487,0,0,0,.523-.536V-4.228h-.861q-1.547,0-1.547,1.389a.848.848,0,0,0,.272.655A.986.986,0,0,0-30.7-1.934Zm9.237-7.576V.325a3.452,3.452,0,0,1-.967,2.6,3.714,3.714,0,0,1-2.672.914,6.308,6.308,0,0,1-1.4-.149V1.45a5.667,5.667,0,0,0,.835.079A1.084,1.084,0,0,0-24.429.308V-9.51Zm-3.19-2.452A1.322,1.322,0,0,1-24.192-13a1.724,1.724,0,0,1,1.187-.4,1.724,1.724,0,0,1,1.187.4,1.322,1.322,0,0,1,.457,1.037,1.322,1.322,0,0,1-.457,1.037,1.724,1.724,0,0,1-1.187.4,1.724,1.724,0,0,1-1.187-.4A1.322,1.322,0,0,1-24.649-11.962ZM-15.183.176a4.889,4.889,0,0,1-3.542-1.305,4.507,4.507,0,0,1-1.354-3.4v-.246a5.84,5.84,0,0,1,.541-2.575A3.955,3.955,0,0,1-17.96-9.075,4.763,4.763,0,0,1-15.5-9.686a4.117,4.117,0,0,1,3.164,1.244,4.887,4.887,0,0,1,1.16,3.467v1.151h-5.889a2.135,2.135,0,0,0,.694,1.257,2.066,2.066,0,0,0,1.389.457,2.662,2.662,0,0,0,2.2-.984l1.354,1.6A3.784,3.784,0,0,1-13-.277,5.3,5.3,0,0,1-15.183.176ZM-15.517-7.4q-1.3,0-1.547,1.723h2.988v-.229a1.467,1.467,0,0,0-.36-1.1A1.434,1.434,0,0,0-15.517-7.4Zm9.642,2.575A5.809,5.809,0,0,1-4.9-8.385a3.211,3.211,0,0,1,2.725-1.3,2.731,2.731,0,0,1,2.145,1V-13.5H2.94V0H.277L.127-1.02a2.8,2.8,0,0,1-2.32,1.2,3.205,3.205,0,0,1-2.689-1.3A5.993,5.993,0,0,1-5.875-4.825Zm2.962.185q0,2.531,1.477,2.531A1.458,1.458,0,0,0-.031-2.936V-6.557A1.419,1.419,0,0,0-1.419-7.4Q-2.791-7.4-2.9-5.186ZM9.224.176A4.889,4.889,0,0,1,5.682-1.129a4.507,4.507,0,0,1-1.354-3.4v-.246a5.84,5.84,0,0,1,.541-2.575A3.955,3.955,0,0,1,6.447-9.075a4.763,4.763,0,0,1,2.461-.611,4.117,4.117,0,0,1,3.164,1.244,4.887,4.887,0,0,1,1.16,3.467v1.151H7.343a2.135,2.135,0,0,0,.694,1.257,2.066,2.066,0,0,0,1.389.457,2.662,2.662,0,0,0,2.2-.984l1.354,1.6A3.784,3.784,0,0,1,11.408-.277,5.3,5.3,0,0,1,9.224.176ZM8.89-7.4q-1.3,0-1.547,1.723h2.988v-.229a1.467,1.467,0,0,0-.36-1.1A1.434,1.434,0,0,0,8.89-7.4ZM22.126-4.342V0H19.042V-12.8h5.106a5.948,5.948,0,0,1,2.6.541,4.074,4.074,0,0,1,1.749,1.538,4.2,4.2,0,0,1,.62,2.263,3.7,3.7,0,0,1-1.34,2.993A5.561,5.561,0,0,1,24.1-4.342Zm0-2.382h2.021a1.906,1.906,0,0,0,1.367-.448,1.665,1.665,0,0,0,.47-1.266A2.059,2.059,0,0,0,25.5-9.87a1.712,1.712,0,0,0-1.318-.545H22.126Zm14.247-.105L35.4-6.9a1.752,1.752,0,0,0-1.793.879V0H30.643V-9.51H33.42l.1,1.222a2.294,2.294,0,0,1,2.083-1.4,2.888,2.888,0,0,1,.826.105Zm5.669,7A4.889,4.889,0,0,1,38.5-1.129a4.507,4.507,0,0,1-1.354-3.4v-.246a5.84,5.84,0,0,1,.541-2.575,3.955,3.955,0,0,1,1.578-1.727,4.763,4.763,0,0,1,2.461-.611A4.117,4.117,0,0,1,44.89-8.442a4.887,4.887,0,0,1,1.16,3.467v1.151H40.162a2.135,2.135,0,0,0,.694,1.257,2.066,2.066,0,0,0,1.389.457,2.662,2.662,0,0,0,2.2-.984l1.354,1.6A3.784,3.784,0,0,1,44.227-.277,5.3,5.3,0,0,1,42.042.176ZM41.708-7.4q-1.3,0-1.547,1.723H43.15v-.229a1.467,1.467,0,0,0-.36-1.1A1.434,1.434,0,0,0,41.708-7.4Zm8.982-4.474V-9.51h1.564v2.057H50.691V-3.1a1.111,1.111,0,0,0,.193.747,1.037,1.037,0,0,0,.765.211,4.345,4.345,0,0,0,.738-.053V-.079a5.466,5.466,0,0,1-1.67.255,3.1,3.1,0,0,1-2.259-.721,2.954,2.954,0,0,1-.729-2.188v-4.72H46.516V-9.51h1.213v-2.364ZM56.544,0H53.574V-9.51h2.971ZM53.4-11.962A1.322,1.322,0,0,1,53.855-13a1.724,1.724,0,0,1,1.187-.4,1.724,1.724,0,0,1,1.187.4,1.322,1.322,0,0,1,.457,1.037,1.322,1.322,0,0,1-.457,1.037,1.724,1.724,0,0,1-1.187.4,1.724,1.724,0,0,1-1.187-.4A1.322,1.322,0,0,1,53.4-11.962Zm7.69,2.452.1,1.116A3.225,3.225,0,0,1,63.9-9.686,2.713,2.713,0,0,1,66.12-8.8a4.226,4.226,0,0,1,.76,2.672V0H63.91V-6a1.6,1.6,0,0,0-.29-1.059A1.342,1.342,0,0,0,62.565-7.4a1.413,1.413,0,0,0-1.292.686V0H58.311V-9.51ZM73.876,0A3.344,3.344,0,0,1,73.6-.853,2.754,2.754,0,0,1,71.31.176a3.374,3.374,0,0,1-2.285-.813,2.588,2.588,0,0,1-.94-2.043,2.66,2.66,0,0,1,1.143-2.338,5.821,5.821,0,0,1,3.322-.791h.914v-.5q0-1.31-1.134-1.31a.925.925,0,0,0-1.055,1.037H68.313a2.659,2.659,0,0,1,1.173-2.241,4.927,4.927,0,0,1,2.993-.861,4.323,4.323,0,0,1,2.874.888,3.086,3.086,0,0,1,1.081,2.435v4.21a4.311,4.311,0,0,0,.4,2V0ZM72.022-1.934a1.652,1.652,0,0,0,.918-.237,1.487,1.487,0,0,0,.523-.536V-4.228H72.6q-1.547,0-1.547,1.389a.848.848,0,0,0,.272.655A.986.986,0,0,0,72.022-1.934Z" transform="translate(1105 7083.252)" fill="#12263f"/>
    <path id="Trazado_777090" data-name="Trazado 777090" d="M-94.03-4.342V0h-3.085V-12.8h5.106a5.948,5.948,0,0,1,2.6.541,4.074,4.074,0,0,1,1.749,1.538,4.2,4.2,0,0,1,.62,2.263,3.7,3.7,0,0,1-1.34,2.993,5.561,5.561,0,0,1-3.678,1.121Zm0-2.382h2.021a1.906,1.906,0,0,0,1.367-.448,1.665,1.665,0,0,0,.47-1.266,2.059,2.059,0,0,0-.483-1.433,1.712,1.712,0,0,0-1.318-.545H-94.03Zm14.247-.105-.976-.07a1.752,1.752,0,0,0-1.793.879V0h-2.962V-9.51h2.777l.1,1.222a2.294,2.294,0,0,1,2.083-1.4,2.888,2.888,0,0,1,.826.105Zm5.669,7a4.889,4.889,0,0,1-3.542-1.305,4.507,4.507,0,0,1-1.354-3.4v-.246a5.84,5.84,0,0,1,.541-2.575,3.955,3.955,0,0,1,1.578-1.727,4.763,4.763,0,0,1,2.461-.611,4.117,4.117,0,0,1,3.164,1.244,4.887,4.887,0,0,1,1.16,3.467v1.151h-5.889A2.135,2.135,0,0,0-75.3-2.566a2.066,2.066,0,0,0,1.389.457,2.662,2.662,0,0,0,2.2-.984l1.354,1.6A3.784,3.784,0,0,1-71.93-.277,5.3,5.3,0,0,1-74.114.176ZM-74.448-7.4q-1.3,0-1.547,1.723h2.988v-.229a1.467,1.467,0,0,0-.36-1.1A1.434,1.434,0,0,0-74.448-7.4Zm14.361,2.716a5.735,5.735,0,0,1-1,3.538A3.2,3.2,0,0,1-63.778.176a2.742,2.742,0,0,1-2.153-.958V3.656h-2.962V-9.51h2.769l.088.879A2.742,2.742,0,0,1-63.8-9.686a3.224,3.224,0,0,1,2.733,1.3,5.805,5.805,0,0,1,.976,3.564Zm-2.962-.185q0-2.531-1.477-2.531a1.394,1.394,0,0,0-1.406.756V-2.9a1.439,1.439,0,0,0,1.424.791q1.415,0,1.459-2.443ZM-53.424,0a3.344,3.344,0,0,1-.281-.853A2.754,2.754,0,0,1-55.991.176a3.374,3.374,0,0,1-2.285-.813,2.588,2.588,0,0,1-.94-2.043,2.66,2.66,0,0,1,1.143-2.338,5.821,5.821,0,0,1,3.322-.791h.914v-.5q0-1.31-1.134-1.31a.925.925,0,0,0-1.055,1.037h-2.962a2.659,2.659,0,0,1,1.173-2.241,4.927,4.927,0,0,1,2.993-.861,4.323,4.323,0,0,1,2.874.888,3.086,3.086,0,0,1,1.081,2.435v4.21a4.311,4.311,0,0,0,.4,2V0Zm-1.854-1.934a1.652,1.652,0,0,0,.918-.237,1.487,1.487,0,0,0,.523-.536V-4.228H-54.7q-1.547,0-1.547,1.389a.848.848,0,0,0,.272.655A.986.986,0,0,0-55.279-1.934Zm11.8-4.9-.976-.07a1.752,1.752,0,0,0-1.793.879V0h-2.962V-9.51h2.777l.1,1.222a2.294,2.294,0,0,1,2.083-1.4,2.888,2.888,0,0,1,.826.105ZM-37.314,0A3.344,3.344,0,0,1-37.6-.853,2.754,2.754,0,0,1-39.88.176a3.374,3.374,0,0,1-2.285-.813,2.588,2.588,0,0,1-.94-2.043,2.66,2.66,0,0,1,1.143-2.338,5.821,5.821,0,0,1,3.322-.791h.914v-.5q0-1.31-1.134-1.31a.925.925,0,0,0-1.055,1.037h-2.962A2.659,2.659,0,0,1-41.7-8.824a4.927,4.927,0,0,1,2.993-.861,4.323,4.323,0,0,1,2.874.888,3.086,3.086,0,0,1,1.081,2.435v4.21a4.311,4.311,0,0,0,.4,2V0Zm-1.854-1.934a1.652,1.652,0,0,0,.918-.237,1.487,1.487,0,0,0,.523-.536V-4.228h-.861q-1.547,0-1.547,1.389a.848.848,0,0,0,.272.655A.986.986,0,0,0-39.168-1.934ZM-29.1-2.109a1.317,1.317,0,0,0,.967-.338,1.241,1.241,0,0,0,.334-.945h2.777A3.288,3.288,0,0,1-26.139-.826a4.168,4.168,0,0,1-2.887,1,4.22,4.22,0,0,1-3.27-1.3,5.125,5.125,0,0,1-1.2-3.6v-.123A5.792,5.792,0,0,1-32.959-7.4a3.872,3.872,0,0,1,1.534-1.7,4.573,4.573,0,0,1,2.373-.593,4.116,4.116,0,0,1,2.944,1.028,3.647,3.647,0,0,1,1.09,2.786H-27.8A1.626,1.626,0,0,0-28.156-7a1.244,1.244,0,0,0-.967-.4q-1.151,0-1.345,1.468a10.357,10.357,0,0,0-.062,1.283,4.068,4.068,0,0,0,.343,1.986A1.187,1.187,0,0,0-29.1-2.109ZM-20.641,0h-2.971V-9.51h2.971Zm-3.146-11.962A1.322,1.322,0,0,1-23.331-13a1.724,1.724,0,0,1,1.187-.4,1.724,1.724,0,0,1,1.187.4,1.322,1.322,0,0,1,.457,1.037,1.322,1.322,0,0,1-.457,1.037,1.724,1.724,0,0,1-1.187.4,1.724,1.724,0,0,1-1.187-.4A1.322,1.322,0,0,1-23.788-11.962Zm4.6,7.119a5.613,5.613,0,0,1,.554-2.536,3.96,3.96,0,0,1,1.591-1.709,4.791,4.791,0,0,1,2.435-.6,4.373,4.373,0,0,1,3.366,1.323,5.076,5.076,0,0,1,1.23,3.6v.105A4.925,4.925,0,0,1-11.25-1.129,4.384,4.384,0,0,1-14.594.176a4.434,4.434,0,0,1-3.261-1.217,4.761,4.761,0,0,1-1.327-3.3Zm2.962.185a3.538,3.538,0,0,0,.413,1.934,1.376,1.376,0,0,0,1.222.615q1.582,0,1.617-2.435v-.3q0-2.558-1.635-2.558-1.485,0-1.608,2.206Zm2.021-8.842h3.129l-2.443,2.76h-2.417ZM-5.99-9.51l.1,1.116A3.225,3.225,0,0,1-3.177-9.686,2.713,2.713,0,0,1-.958-8.8,4.226,4.226,0,0,1-.2-6.126V0H-3.168V-6a1.6,1.6,0,0,0-.29-1.059A1.342,1.342,0,0,0-4.513-7.4a1.413,1.413,0,0,0-1.292.686V0H-8.767V-9.51ZM5.55-4.825a5.809,5.809,0,0,1,.976-3.56,3.211,3.211,0,0,1,2.725-1.3,2.731,2.731,0,0,1,2.145,1V-13.5h2.971V0H11.7l-.149-1.02a2.8,2.8,0,0,1-2.32,1.2,3.205,3.205,0,0,1-2.689-1.3A5.993,5.993,0,0,1,5.55-4.825Zm2.962.185q0,2.531,1.477,2.531A1.458,1.458,0,0,0,11.4-2.936V-6.557A1.419,1.419,0,0,0,10.006-7.4q-1.371,0-1.485,2.215ZM20.65.176a4.889,4.889,0,0,1-3.542-1.305,4.507,4.507,0,0,1-1.354-3.4v-.246a5.84,5.84,0,0,1,.541-2.575,3.955,3.955,0,0,1,1.578-1.727,4.763,4.763,0,0,1,2.461-.611A4.117,4.117,0,0,1,23.5-8.442a4.887,4.887,0,0,1,1.16,3.467v1.151H18.769a2.135,2.135,0,0,0,.694,1.257,2.066,2.066,0,0,0,1.389.457,2.662,2.662,0,0,0,2.2-.984l1.354,1.6A3.784,3.784,0,0,1,22.834-.277,5.3,5.3,0,0,1,20.65.176ZM20.316-7.4q-1.3,0-1.547,1.723h2.988v-.229a1.467,1.467,0,0,0-.36-1.1A1.434,1.434,0,0,0,20.316-7.4ZM39.16-4.676a5.8,5.8,0,0,1-.967,3.595A3.238,3.238,0,0,1,35.468.176,2.81,2.81,0,0,1,33.13-.976L33.007,0H30.353V-13.5h2.962v4.755a2.711,2.711,0,0,1,2.136-.94,3.239,3.239,0,0,1,2.742,1.274,5.826,5.826,0,0,1,.967,3.586ZM36.189-4.86a3.878,3.878,0,0,0-.365-1.956A1.229,1.229,0,0,0,34.7-7.4a1.418,1.418,0,0,0-1.389.765v3.779a1.426,1.426,0,0,0,1.406.756,1.258,1.258,0,0,0,1.327-1.02A7.333,7.333,0,0,0,36.189-4.86Zm3.9.018a5.613,5.613,0,0,1,.554-2.536,3.96,3.96,0,0,1,1.591-1.709,4.791,4.791,0,0,1,2.435-.6,4.373,4.373,0,0,1,3.366,1.323,5.076,5.076,0,0,1,1.23,3.6v.105a4.925,4.925,0,0,1-1.235,3.529A4.384,4.384,0,0,1,44.688.176a4.434,4.434,0,0,1-3.261-1.217,4.761,4.761,0,0,1-1.327-3.3Zm2.962.185a3.538,3.538,0,0,0,.413,1.934,1.376,1.376,0,0,0,1.222.615q1.582,0,1.617-2.435v-.3q0-2.558-1.635-2.558-1.485,0-1.608,2.206ZM53.7,0H50.726V-13.5H53.7Zm6.8-2.672a.684.684,0,0,0-.4-.606,6.016,6.016,0,0,0-1.5-.475A6.853,6.853,0,0,1,56.773-4.4a3.062,3.062,0,0,1-1.1-.971A2.319,2.319,0,0,1,55.3-6.68a2.628,2.628,0,0,1,1.081-2.158,4.453,4.453,0,0,1,2.83-.848,4.934,4.934,0,0,1,3.023.853,2.666,2.666,0,0,1,1.143,2.241H60.4q0-1.143-1.2-1.143a1.194,1.194,0,0,0-.782.259.8.8,0,0,0-.316.646.737.737,0,0,0,.387.642,3.654,3.654,0,0,0,1.235.4,10.671,10.671,0,0,1,1.49.378A2.706,2.706,0,0,1,63.356-2.76,2.491,2.491,0,0,1,62.2-.642a5.068,5.068,0,0,1-2.993.817,5.172,5.172,0,0,1-2.18-.439,3.645,3.645,0,0,1-1.494-1.2A2.707,2.707,0,0,1,55-3.05h2.769a1.145,1.145,0,0,0,.439.962,1.808,1.808,0,0,0,1.081.3,1.422,1.422,0,0,0,.91-.246A.787.787,0,0,0,60.5-2.672ZM67.865,0H64.894V-9.51h2.971ZM64.718-11.962A1.322,1.322,0,0,1,65.175-13a1.724,1.724,0,0,1,1.187-.4,1.724,1.724,0,0,1,1.187.4,1.322,1.322,0,0,1,.457,1.037,1.322,1.322,0,0,1-.457,1.037,1.724,1.724,0,0,1-1.187.4,1.724,1.724,0,0,1-1.187-.4A1.322,1.322,0,0,1,64.718-11.962ZM72.813,0H69.842V-13.5h2.971Zm4.948,0H74.791V-13.5h2.971Zm1.45-4.843a5.613,5.613,0,0,1,.554-2.536,3.96,3.96,0,0,1,1.591-1.709,4.791,4.791,0,0,1,2.435-.6,4.373,4.373,0,0,1,3.366,1.323,5.076,5.076,0,0,1,1.23,3.6v.105a4.925,4.925,0,0,1-1.235,3.529A4.384,4.384,0,0,1,83.808.176a4.434,4.434,0,0,1-3.261-1.217,4.761,4.761,0,0,1-1.327-3.3Zm2.962.185a3.538,3.538,0,0,0,.413,1.934,1.376,1.376,0,0,0,1.222.615q1.582,0,1.617-2.435v-.3q0-2.558-1.635-2.558-1.485,0-1.608,2.206Zm12.5,1.986a.684.684,0,0,0-.4-.606,6.016,6.016,0,0,0-1.5-.475A6.853,6.853,0,0,1,90.945-4.4a3.062,3.062,0,0,1-1.1-.971,2.319,2.319,0,0,1-.378-1.31,2.628,2.628,0,0,1,1.081-2.158,4.453,4.453,0,0,1,2.83-.848,4.934,4.934,0,0,1,3.023.853,2.666,2.666,0,0,1,1.143,2.241H94.575q0-1.143-1.2-1.143a1.194,1.194,0,0,0-.782.259.8.8,0,0,0-.316.646.737.737,0,0,0,.387.642,3.654,3.654,0,0,0,1.235.4,10.671,10.671,0,0,1,1.49.378A2.706,2.706,0,0,1,97.528-2.76,2.491,2.491,0,0,1,96.372-.642a5.068,5.068,0,0,1-2.993.817A5.172,5.172,0,0,1,91.2-.264a3.645,3.645,0,0,1-1.494-1.2,2.707,2.707,0,0,1-.536-1.591h2.769a1.145,1.145,0,0,0,.439.962,1.808,1.808,0,0,0,1.081.3,1.422,1.422,0,0,0,.91-.246A.787.787,0,0,0,94.671-2.672Z" transform="translate(1105 6955.752)" fill="#12263f"/>
    <path id="Trazado_777089" data-name="Trazado 777089" d="M-46.172-4.824V0H-49.6V-14.219h5.674a6.608,6.608,0,0,1,2.886.6A4.526,4.526,0,0,1-39.1-11.909a4.667,4.667,0,0,1,.688,2.515A4.114,4.114,0,0,1-39.9-6.069a6.179,6.179,0,0,1-4.087,1.245Zm0-2.646h2.246a2.118,2.118,0,0,0,1.519-.5,1.85,1.85,0,0,0,.522-1.406,2.287,2.287,0,0,0-.537-1.592,1.9,1.9,0,0,0-1.465-.605h-2.285Zm15.83-.117-1.084-.078a1.947,1.947,0,0,0-1.992.977V0h-3.291V-10.566h3.086l.107,1.357A2.548,2.548,0,0,1-31.2-10.762a3.209,3.209,0,0,1,.918.117Zm.42,2.207A6.236,6.236,0,0,1-29.307-8.2a4.4,4.4,0,0,1,1.768-1.9,5.323,5.323,0,0,1,2.705-.664,4.858,4.858,0,0,1,3.74,1.47,5.64,5.64,0,0,1,1.367,4v.117A5.472,5.472,0,0,1-21.1-1.255,4.871,4.871,0,0,1-24.814.2a4.927,4.927,0,0,1-3.623-1.353,5.29,5.29,0,0,1-1.475-3.667Zm3.291.205a3.932,3.932,0,0,0,.459,2.148,1.529,1.529,0,0,0,1.357.684q1.758,0,1.8-2.705v-.332q0-2.842-1.816-2.842-1.65,0-1.787,2.451Zm12.822,2.832a1.464,1.464,0,0,0,1.074-.376,1.379,1.379,0,0,0,.371-1.05h3.086A3.653,3.653,0,0,1-10.522-.918,4.631,4.631,0,0,1-13.73.2,4.689,4.689,0,0,1-17.363-1.25a5.7,5.7,0,0,1-1.328-4v-.137A6.436,6.436,0,0,1-18.1-8.218,4.3,4.3,0,0,1-16.4-10.1a5.081,5.081,0,0,1,2.637-.659,4.573,4.573,0,0,1,3.271,1.143,4.053,4.053,0,0,1,1.211,3.1h-3.086a1.807,1.807,0,0,0-.4-1.26,1.382,1.382,0,0,0-1.074-.439q-1.279,0-1.494,1.631A11.508,11.508,0,0,0-15.4-5.166a4.52,4.52,0,0,0,.381,2.207A1.319,1.319,0,0,0-13.809-2.344ZM-2.773.2a5.432,5.432,0,0,1-3.936-1.45,5.008,5.008,0,0,1-1.5-3.774V-5.3a6.489,6.489,0,0,1,.6-2.861,4.395,4.395,0,0,1,1.753-1.919,5.292,5.292,0,0,1,2.734-.679A4.574,4.574,0,0,1,.391-9.38,5.43,5.43,0,0,1,1.68-5.527v1.279H-4.863a2.372,2.372,0,0,0,.771,1.4,2.3,2.3,0,0,0,1.543.508A2.958,2.958,0,0,0-.107-3.437L1.4-1.66A4.2,4.2,0,0,1-.347-.308,5.891,5.891,0,0,1-2.773.2Zm-.371-8.418q-1.445,0-1.719,1.914h3.32v-.254a1.63,1.63,0,0,0-.4-1.226A1.593,1.593,0,0,0-3.145-8.223ZM8.535-2.969A.76.76,0,0,0,8.1-3.643a6.685,6.685,0,0,0-1.67-.527,7.615,7.615,0,0,1-2.031-.718A3.4,3.4,0,0,1,3.174-5.967a2.577,2.577,0,0,1-.42-1.455,2.92,2.92,0,0,1,1.2-2.4A4.948,4.948,0,0,1,7.1-10.762a5.482,5.482,0,0,1,3.359.947,2.962,2.962,0,0,1,1.27,2.49h-3.3q0-1.27-1.338-1.27a1.326,1.326,0,0,0-.869.288.892.892,0,0,0-.352.718.819.819,0,0,0,.43.713,4.06,4.06,0,0,0,1.372.449,11.857,11.857,0,0,1,1.655.42,3.007,3.007,0,0,1,2.383,2.939A2.767,2.767,0,0,1,10.425-.713,5.632,5.632,0,0,1,7.1.2,5.747,5.747,0,0,1,4.678-.293a4.05,4.05,0,0,1-1.66-1.328,3.007,3.007,0,0,1-.6-1.768H5.5a1.272,1.272,0,0,0,.488,1.069,2.009,2.009,0,0,0,1.2.337A1.58,1.58,0,0,0,8.2-2.256.875.875,0,0,0,8.535-2.969Zm4.3-2.412A6.236,6.236,0,0,1,13.447-8.2a4.4,4.4,0,0,1,1.768-1.9,5.323,5.323,0,0,1,2.705-.664,4.858,4.858,0,0,1,3.74,1.47,5.64,5.64,0,0,1,1.367,4v.117a5.472,5.472,0,0,1-1.372,3.921A4.871,4.871,0,0,1,17.939.2a4.927,4.927,0,0,1-3.623-1.353,5.29,5.29,0,0,1-1.475-3.667Zm3.291.205a3.932,3.932,0,0,0,.459,2.148,1.529,1.529,0,0,0,1.357.684q1.758,0,1.8-2.705v-.332q0-2.842-1.816-2.842-1.65,0-1.787,2.451Zm12.92-.186a6.455,6.455,0,0,1,1.084-3.955,3.568,3.568,0,0,1,3.027-1.445,3.035,3.035,0,0,1,2.383,1.113V-15h3.3V0H35.879l-.166-1.133A3.116,3.116,0,0,1,33.135.2,3.562,3.562,0,0,1,30.146-1.25,6.659,6.659,0,0,1,29.043-5.361Zm3.291.205q0,2.813,1.641,2.813a1.62,1.62,0,0,0,1.563-.918V-7.285a1.576,1.576,0,0,0-1.543-.937q-1.523,0-1.65,2.461ZM45.82.2a5.432,5.432,0,0,1-3.936-1.45,5.008,5.008,0,0,1-1.5-3.774V-5.3a6.489,6.489,0,0,1,.6-2.861,4.395,4.395,0,0,1,1.753-1.919,5.292,5.292,0,0,1,2.734-.679A4.574,4.574,0,0,1,48.984-9.38a5.43,5.43,0,0,1,1.289,3.853v1.279H43.73a2.372,2.372,0,0,0,.771,1.4,2.3,2.3,0,0,0,1.543.508,2.958,2.958,0,0,0,2.441-1.094l1.5,1.777A4.2,4.2,0,0,1,48.247-.308,5.891,5.891,0,0,1,45.82.2Zm-.371-8.418Q44-8.223,43.73-6.309h3.32v-.254a1.63,1.63,0,0,0-.4-1.226A1.593,1.593,0,0,0,45.449-8.223ZM-36.821,21.795a6.372,6.372,0,0,1-1.108,3.931,3.554,3.554,0,0,1-2.993,1.47,3.046,3.046,0,0,1-2.393-1.064v4.932h-3.291V16.434h3.076l.1.977a3.046,3.046,0,0,1,2.49-1.172,3.582,3.582,0,0,1,3.037,1.44,6.45,6.45,0,0,1,1.084,3.96Zm-3.291-.205q0-2.812-1.641-2.812a1.549,1.549,0,0,0-1.562.84v4.16a1.6,1.6,0,0,0,1.582.879q1.572,0,1.621-2.715ZM-31.9,27h-3.3V12h3.3Zm7.979,0a3.716,3.716,0,0,1-.312-.947A3.06,3.06,0,0,1-26.772,27.2a3.749,3.749,0,0,1-2.539-.9,2.875,2.875,0,0,1-1.045-2.271,2.955,2.955,0,0,1,1.27-2.6,6.468,6.468,0,0,1,3.691-.879h1.016v-.557q0-1.455-1.26-1.455a1.027,1.027,0,0,0-1.172,1.152H-30.1a2.955,2.955,0,0,1,1.3-2.49,5.474,5.474,0,0,1,3.325-.957,4.8,4.8,0,0,1,3.193.986,3.429,3.429,0,0,1,1.2,2.705v4.678a4.79,4.79,0,0,0,.449,2.227V27Zm-2.061-2.148a1.836,1.836,0,0,0,1.021-.264,1.653,1.653,0,0,0,.581-.6V22.3h-.957q-1.719,0-1.719,1.543a.942.942,0,0,0,.3.728A1.1,1.1,0,0,0-25.981,24.852Zm9.746-8.418.107,1.24a3.583,3.583,0,0,1,3.018-1.436,3.015,3.015,0,0,1,2.466.986A4.7,4.7,0,0,1-9.8,20.193V27h-3.3V20.33a1.783,1.783,0,0,0-.322-1.177,1.491,1.491,0,0,0-1.172-.376,1.569,1.569,0,0,0-1.436.762V27h-3.291V16.434Zm12.09-2.627v2.627h1.738v2.285H-4.146v4.834a1.234,1.234,0,0,0,.215.83,1.152,1.152,0,0,0,.85.234,4.828,4.828,0,0,0,.82-.059v2.354a6.074,6.074,0,0,1-1.855.283,3.448,3.448,0,0,1-2.51-.8,3.282,3.282,0,0,1-.811-2.432V18.719H-8.784V16.434h1.348V13.807ZM2.358,27h-3.3V16.434h3.3Zm-3.5-13.291A1.469,1.469,0,0,1-.63,12.557a1.916,1.916,0,0,1,1.318-.449,1.916,1.916,0,0,1,1.318.449,1.561,1.561,0,0,1,0,2.3,1.916,1.916,0,0,1-1.318.449A1.916,1.916,0,0,1-.63,14.861,1.469,1.469,0,0,1-1.138,13.709ZM7.856,27h-3.3V12h3.3Zm5.5,0h-3.3V12h3.3Zm7.979,0a3.716,3.716,0,0,1-.312-.947A3.06,3.06,0,0,1,18.481,27.2a3.749,3.749,0,0,1-2.539-.9A2.875,2.875,0,0,1,14.9,24.021a2.955,2.955,0,0,1,1.27-2.6,6.468,6.468,0,0,1,3.691-.879h1.016v-.557q0-1.455-1.26-1.455a1.027,1.027,0,0,0-1.172,1.152H15.151a2.955,2.955,0,0,1,1.3-2.49,5.474,5.474,0,0,1,3.325-.957,4.8,4.8,0,0,1,3.193.986,3.429,3.429,0,0,1,1.2,2.705v4.678a4.79,4.79,0,0,0,.449,2.227V27Zm-2.061-2.148a1.836,1.836,0,0,0,1.021-.264,1.653,1.653,0,0,0,.581-.6V22.3h-.957q-1.719,0-1.719,1.543a.942.942,0,0,0,.3.728A1.1,1.1,0,0,0,19.272,24.852Zm6.309-3.213a6.455,6.455,0,0,1,1.084-3.955,3.568,3.568,0,0,1,3.027-1.445,3.035,3.035,0,0,1,2.383,1.113V12h3.3V27H32.417l-.166-1.133A3.116,3.116,0,0,1,29.673,27.2a3.562,3.562,0,0,1-2.988-1.445A6.659,6.659,0,0,1,25.581,21.639Zm3.291.205q0,2.813,1.641,2.813a1.62,1.62,0,0,0,1.563-.918V19.715a1.576,1.576,0,0,0-1.543-.937q-1.523,0-1.65,2.461Zm7.959-.225a6.236,6.236,0,0,1,.615-2.817,4.4,4.4,0,0,1,1.768-1.9,5.323,5.323,0,0,1,2.705-.664,4.858,4.858,0,0,1,3.74,1.47,5.64,5.64,0,0,1,1.367,4v.117a5.472,5.472,0,0,1-1.372,3.921,4.871,4.871,0,0,1-3.716,1.45,4.927,4.927,0,0,1-3.623-1.353,5.29,5.29,0,0,1-1.475-3.667Zm3.291.205a3.932,3.932,0,0,0,.459,2.148,1.529,1.529,0,0,0,1.357.684q1.758,0,1.8-2.705v-.332q0-2.842-1.816-2.842-1.65,0-1.787,2.451ZM-50.957,54V45.719H-52.49V43.434h1.533v-.84a3.651,3.651,0,0,1,1.064-2.8,4.206,4.206,0,0,1,2.988-1A6.544,6.544,0,0,1-45.361,39l.01,2.422a3.007,3.007,0,0,0-.811-.088q-1.494,0-1.494,1.289v.811H-45.6v2.285h-2.061V54Zm12.813-1.143A3.393,3.393,0,0,1-40.967,54.2,3.328,3.328,0,0,1-43.6,53.185a4.251,4.251,0,0,1-.894-2.905V43.434H-41.2V50.3a1.183,1.183,0,0,0,1.318,1.357,1.72,1.72,0,0,0,1.611-.811V43.434h3.311V54h-3.086Zm10.518-1.826a.76.76,0,0,0-.439-.674,6.685,6.685,0,0,0-1.67-.527,7.615,7.615,0,0,1-2.031-.718,3.4,3.4,0,0,1-1.221-1.079,2.577,2.577,0,0,1-.42-1.455,2.92,2.92,0,0,1,1.2-2.4,4.948,4.948,0,0,1,3.145-.942,5.482,5.482,0,0,1,3.359.947,2.962,2.962,0,0,1,1.27,2.49h-3.3q0-1.27-1.338-1.27a1.326,1.326,0,0,0-.869.288.892.892,0,0,0-.352.718.819.819,0,0,0,.43.713,4.06,4.06,0,0,0,1.372.449,11.857,11.857,0,0,1,1.655.42,3.007,3.007,0,0,1,2.383,2.939,2.767,2.767,0,0,1-1.284,2.354,5.631,5.631,0,0,1-3.325.908,5.747,5.747,0,0,1-2.422-.488,4.05,4.05,0,0,1-1.66-1.328,3.007,3.007,0,0,1-.6-1.768h3.076a1.272,1.272,0,0,0,.488,1.069,2.009,2.009,0,0,0,1.2.337,1.58,1.58,0,0,0,1.011-.273A.875.875,0,0,0-27.627,51.031ZM-19.443,54h-3.3V43.434h3.3Zm-3.5-13.291a1.469,1.469,0,0,1,.508-1.152,1.916,1.916,0,0,1,1.318-.449,1.916,1.916,0,0,1,1.318.449,1.469,1.469,0,0,1,.508,1.152,1.469,1.469,0,0,1-.508,1.152,1.916,1.916,0,0,1-1.318.449,1.916,1.916,0,0,1-1.318-.449A1.469,1.469,0,0,1-22.939,40.709Zm5.107,7.91a6.236,6.236,0,0,1,.615-2.817,4.4,4.4,0,0,1,1.768-1.9,5.323,5.323,0,0,1,2.705-.664A4.858,4.858,0,0,1-9,44.708a5.64,5.64,0,0,1,1.367,4v.117a5.472,5.472,0,0,1-1.372,3.921,4.871,4.871,0,0,1-3.716,1.45,4.927,4.927,0,0,1-3.623-1.353,5.29,5.29,0,0,1-1.475-3.667Zm3.291.205a3.932,3.932,0,0,0,.459,2.148,1.529,1.529,0,0,0,1.357.684q1.758,0,1.8-2.705v-.332q0-2.842-1.816-2.842-1.65,0-1.787,2.451Zm11.377-5.391.107,1.24A3.583,3.583,0,0,1-.039,43.238a3.015,3.015,0,0,1,2.466.986,4.7,4.7,0,0,1,.845,2.969V54h-3.3V47.33a1.783,1.783,0,0,0-.322-1.177,1.491,1.491,0,0,0-1.172-.376,1.569,1.569,0,0,0-1.436.762V54H-6.25V43.434ZM11.045,54a3.716,3.716,0,0,1-.312-.947A3.06,3.06,0,0,1,8.193,54.2a3.749,3.749,0,0,1-2.539-.9,2.875,2.875,0,0,1-1.045-2.271,2.955,2.955,0,0,1,1.27-2.6,6.468,6.468,0,0,1,3.691-.879h1.016v-.557q0-1.455-1.26-1.455a1.027,1.027,0,0,0-1.172,1.152H4.863a2.955,2.955,0,0,1,1.3-2.49,5.474,5.474,0,0,1,3.325-.957,4.8,4.8,0,0,1,3.193.986,3.429,3.429,0,0,1,1.2,2.705v4.678a4.79,4.79,0,0,0,.449,2.227V54ZM8.984,51.852A1.836,1.836,0,0,0,10,51.588a1.653,1.653,0,0,0,.581-.6V49.3H9.629q-1.719,0-1.719,1.543a.942.942,0,0,0,.3.728A1.1,1.1,0,0,0,8.984,51.852Zm6.309-3.213a6.455,6.455,0,0,1,1.084-3.955A3.568,3.568,0,0,1,19.4,43.238a3.035,3.035,0,0,1,2.383,1.113V39h3.3V54H22.129l-.166-1.133A3.116,3.116,0,0,1,19.385,54.2,3.562,3.562,0,0,1,16.4,52.75,6.659,6.659,0,0,1,15.293,48.639Zm3.291.205q0,2.813,1.641,2.813a1.62,1.62,0,0,0,1.563-.918V46.715a1.576,1.576,0,0,0-1.543-.937q-1.523,0-1.65,2.461Zm7.959-.225a6.236,6.236,0,0,1,.615-2.817,4.4,4.4,0,0,1,1.768-1.9,5.323,5.323,0,0,1,2.705-.664,4.858,4.858,0,0,1,3.74,1.47,5.64,5.64,0,0,1,1.367,4v.117a5.472,5.472,0,0,1-1.372,3.921A4.871,4.871,0,0,1,31.65,54.2a4.927,4.927,0,0,1-3.623-1.353,5.29,5.29,0,0,1-1.475-3.667Zm3.291.205a3.932,3.932,0,0,0,.459,2.148,1.529,1.529,0,0,0,1.357.684q1.758,0,1.8-2.705v-.332q0-2.842-1.816-2.842-1.65,0-1.787,2.451Zm17.559.566,1.758-5.957h3.525L48.369,55.768l-.186.449a3.272,3.272,0,0,1-3.242,2.051,5.139,5.139,0,0,1-1.357-.2V55.719h.43a2.252,2.252,0,0,0,1.06-.2,1.215,1.215,0,0,0,.542-.718l.264-.7L42.207,43.434h3.516Zm-91.733,26.4a6.372,6.372,0,0,1-1.108,3.931,3.554,3.554,0,0,1-2.993,1.47,3.046,3.046,0,0,1-2.393-1.064v4.932h-3.291V70.434h3.076l.1.977a3.046,3.046,0,0,1,2.49-1.172,3.582,3.582,0,0,1,3.037,1.44,6.45,6.45,0,0,1,1.084,3.96Zm-3.291-.205q0-2.812-1.641-2.812a1.549,1.549,0,0,0-1.562.84v4.16a1.6,1.6,0,0,0,1.582.879q1.572,0,1.621-2.715ZM-36.5,73.412l-1.084-.078a1.947,1.947,0,0,0-1.992.977V81h-3.291V70.434h3.086l.107,1.357a2.548,2.548,0,0,1,2.314-1.553,3.209,3.209,0,0,1,.918.117Zm6.3,7.783a5.432,5.432,0,0,1-3.936-1.45,5.008,5.008,0,0,1-1.5-3.774V75.7a6.489,6.489,0,0,1,.6-2.861,4.395,4.395,0,0,1,1.753-1.919,5.292,5.292,0,0,1,2.734-.679,4.574,4.574,0,0,1,3.516,1.382,5.43,5.43,0,0,1,1.289,3.853v1.279H-32.29a2.372,2.372,0,0,0,.771,1.4,2.3,2.3,0,0,0,1.543.508,2.958,2.958,0,0,0,2.441-1.094l1.5,1.777a4.2,4.2,0,0,1-1.743,1.353A5.891,5.891,0,0,1-30.2,81.2Zm-.371-8.418q-1.445,0-1.719,1.914h3.32v-.254a1.63,1.63,0,0,0-.4-1.226A1.593,1.593,0,0,0-30.571,72.777Zm9.365-1.211a3.294,3.294,0,0,1,2.7-1.328,3.284,3.284,0,0,1,2.637,1.035,4.651,4.651,0,0,1,.908,3.057V81h-3.3V74.408a1.86,1.86,0,0,0-.342-1.235,1.469,1.469,0,0,0-1.162-.4,1.582,1.582,0,0,0-1.436.645V81H-24.5V66h3.291Zm7.656,4.053a6.236,6.236,0,0,1,.615-2.817,4.4,4.4,0,0,1,1.768-1.9,5.323,5.323,0,0,1,2.705-.664,4.858,4.858,0,0,1,3.74,1.47,5.64,5.64,0,0,1,1.367,4v.117a5.472,5.472,0,0,1-1.372,3.921A4.871,4.871,0,0,1-8.442,81.2a4.927,4.927,0,0,1-3.623-1.353,5.29,5.29,0,0,1-1.475-3.667Zm3.291.205A3.932,3.932,0,0,0-9.8,77.973a1.529,1.529,0,0,0,1.357.684q1.758,0,1.8-2.705v-.332q0-2.842-1.816-2.842-1.65,0-1.787,2.451ZM4.487,73.412,3.4,73.334a1.947,1.947,0,0,0-1.992.977V81H-1.88V70.434H1.206l.107,1.357a2.548,2.548,0,0,1,2.314-1.553,3.209,3.209,0,0,1,.918.117Zm4.3-2.979.107,1.24a3.633,3.633,0,0,1,3.018-1.436,2.675,2.675,0,0,1,2.705,1.592,3.517,3.517,0,0,1,3.105-1.592q3.213,0,3.3,3.887V81h-3.3V74.33a2.014,2.014,0,0,0-.273-1.182,1.164,1.164,0,0,0-1-.371A1.559,1.559,0,0,0,15,73.646l.01.137V81H11.7V74.35a2.117,2.117,0,0,0-.264-1.2,1.161,1.161,0,0,0-1.006-.371,1.578,1.578,0,0,0-1.445.869V81H5.7V70.434ZM28.853,81a3.716,3.716,0,0,1-.312-.947A3.06,3.06,0,0,1,26,81.2a3.749,3.749,0,0,1-2.539-.9,2.875,2.875,0,0,1-1.045-2.271,2.955,2.955,0,0,1,1.27-2.6,6.468,6.468,0,0,1,3.691-.879h1.016v-.557q0-1.455-1.26-1.455a1.027,1.027,0,0,0-1.172,1.152H22.671a2.955,2.955,0,0,1,1.3-2.49,5.474,5.474,0,0,1,3.325-.957,4.8,4.8,0,0,1,3.193.986,3.429,3.429,0,0,1,1.2,2.705v4.678a4.79,4.79,0,0,0,.449,2.227V81Zm-2.061-2.148a1.836,1.836,0,0,0,1.021-.264,1.653,1.653,0,0,0,.581-.6V76.3h-.957q-1.719,0-1.719,1.543a.942.942,0,0,0,.3.728A1.1,1.1,0,0,0,26.792,78.852ZM33.1,75.639a6.455,6.455,0,0,1,1.084-3.955,3.568,3.568,0,0,1,3.027-1.445,3.035,3.035,0,0,1,2.383,1.113V66h3.3V81H39.937l-.166-1.133A3.116,3.116,0,0,1,37.192,81.2,3.562,3.562,0,0,1,34.2,79.75,6.659,6.659,0,0,1,33.1,75.639Zm3.291.205q0,2.813,1.641,2.813a1.62,1.62,0,0,0,1.563-.918V73.715a1.576,1.576,0,0,0-1.543-.937q-1.523,0-1.65,2.461Zm7.959-.225a6.236,6.236,0,0,1,.615-2.817,4.4,4.4,0,0,1,1.768-1.9,5.323,5.323,0,0,1,2.705-.664,4.858,4.858,0,0,1,3.74,1.47,5.64,5.64,0,0,1,1.367,4v.117a5.472,5.472,0,0,1-1.372,3.921,4.871,4.871,0,0,1-3.716,1.45,4.927,4.927,0,0,1-3.623-1.353,5.29,5.29,0,0,1-1.475-3.667Zm3.291.205a3.932,3.932,0,0,0,.459,2.148,1.529,1.529,0,0,0,1.357.684q1.758,0,1.8-2.705v-.332q0-2.842-1.816-2.842-1.65,0-1.787,2.451Z" transform="translate(800 6978.252)" fill="#fff"/>
  </g>
</svg>
