<svg xmlns="http://www.w3.org/2000/svg" width="102" height="102" viewBox="0 0 102 102">
  <g id="Grupo_56787" data-name="Grupo 56787" transform="translate(-497 -682)">
    <g id="Grupo_56763" data-name="Grupo 56763" transform="translate(510 691)">
      <path id="Trazado_104953" data-name="Trazado 104953" d="M495.025,81.192,496.567,59.2a14.943,14.943,0,0,0-4.54-4.3l-14.8-9.1-27.961-.1-15.053,9.207a15,15,0,0,0-4.51,4.286l.018.018v8.6l1.907,23.44h63.593C495.025,88.115,495.025,81.192,495.025,81.192Z" transform="translate(-425.425 -9.156)" fill="#95f7ff"/>
      <path id="Trazado_104954" data-name="Trazado 104954" d="M462.391,51.151l-.726-3.8-8.584-4.387-6.285.7-6.081,3.453c-.439,2.259-.778,4.031-.778,4.031A41.065,41.065,0,0,0,444,76.93l4.95,9.516h4.434l4.95-9.516A41.065,41.065,0,0,0,462.391,51.151Z" transform="translate(-413.443 -12.533)" fill="#f8f7f8"/>
      <g id="Grupo_56754" data-name="Grupo 56754" transform="translate(33.135 40.995)">
        <path id="Trazado_104955" data-name="Trazado 104955" d="M449.086,52.615l2.669,23.429-4.515,6.431-4.656-6.431,2.669-23.429.513-4.936h2.644Z" transform="translate(-442.584 -47.679)" fill="#2ab9c4"/>
      </g>
      <g id="Grupo_56759" data-name="Grupo 56759" transform="translate(25.936 1.217)">
        <g id="Grupo_56756" data-name="Grupo 56756" transform="translate(3.995 27.542)">
          <g id="Grupo_56755" data-name="Grupo 56755">
            <path id="Trazado_104956" data-name="Trazado 104956" d="M456.736,43.471h0l0,.235a7.611,7.611,0,0,1-5.487,7.208l-2.3.668-2.3-.668a7.611,7.611,0,0,1-5.487-7.208l0-.235h0c.2-.132,1.864-1.044,1.864-1.044a1.722,1.722,0,0,1,.82-.208h10.211a1.722,1.722,0,0,1,.82.208s1.667.912,1.867,1.044Z" transform="translate(-441.154 -42.218)" fill="#efedee"/>
          </g>
        </g>
        <circle id="Elipse_3998" data-name="Elipse 3998" cx="2.683" cy="2.683" r="2.683" transform="translate(9.102 27.235)" fill="#f9e478"/>
        <g id="Grupo_56758" data-name="Grupo 56758" transform="translate(2.653)">
          <g id="Grupo_56757" data-name="Grupo 56757">
            <path id="Trazado_104957" data-name="Trazado 104957" d="M449.688,52.951a2.432,2.432,0,0,1-2.433-2.431V45.756a2.432,2.432,0,0,1,2.433-2.431,4.272,4.272,0,0,0,4.26-4.5,4.267,4.267,0,0,0-8.486-.367,4.423,4.423,0,0,0-.04.6,2.433,2.433,0,1,1-4.867,0,9.243,9.243,0,0,1,.087-1.27,9.133,9.133,0,1,1,11.477,10.07V50.52A2.432,2.432,0,0,1,449.688,52.951Z" transform="translate(-440.555 -29.926)" fill="#f9e478"/>
          </g>
        </g>
        <path id="Trazado_104958" data-name="Trazado 104958" d="M462.383,50.744l-.726-3.8-6.218-3.177a4.339,4.339,0,0,1-2.888,2.7l-1.394.406-1.4-.406a4.328,4.328,0,0,1-3.025-3.173l-6.027,3.422c-.439,2.259-.778,4.031-.778,4.031a41.36,41.36,0,0,0-.558,5.738l0,.007,2.554,2.855a4.084,4.084,0,0,0,6.222-.166l2.254-2.81a.966.966,0,0,1,1.5,0l2.254,2.808a4.079,4.079,0,0,0,6.22.168l2.557-2.855,0,0a41.354,41.354,0,0,0-.558-5.741Z" transform="translate(-439.371 -13.343)" fill="#efedee"/>
        <path id="Trazado_104959" data-name="Trazado 104959" d="M443.893,51.784l1.156,1.992a.755.755,0,0,0,.65.374h5.124a.752.752,0,0,0,.65-.374l1.156-1.992,2.171-4.112-6.621-1.23-6.475.708Z" transform="translate(-436.476 -9.435)" fill="#2ab9c4"/>
      </g>
      <path id="Trazado_104960" data-name="Trazado 104960" d="M450.3,74.65,457.522,86c-7.379-3.906-15.281-10.211-19.873-17.2l-.959-1.463h-2.225a.167.167,0,0,1-.168-.164,27.134,27.134,0,0,1,9.12-20.287l3.605-2.046c-.439,2.259-.778,4.031-.778,4.031A41.074,41.074,0,0,0,450.3,74.65Z" transform="translate(-419.73 -10.208)" fill="#95f7ff"/>
      <path id="Trazado_104961" data-name="Trazado 104961" d="M458.715,46.737l-3.554-1.815.726,3.8a41.064,41.064,0,0,1-4.06,25.779l-7.195,11.315.067.078c7.329-3.914,15.23-10.309,19.783-17.246l.959-1.461h2.225a.167.167,0,0,0,.168-.166,27.123,27.123,0,0,0-9.12-20.285Z" transform="translate(-406.908 -10.104)" fill="#95f7ff"/>
      <path id="Trazado_104962" data-name="Trazado 104962" d="M452.422,42.777a8.12,8.12,0,0,1,1.573,12.187l-2.554,2.855a.835.835,0,0,1-1.275-.034l-5.534-6.9,2.3-.668a7.611,7.611,0,0,0,5.487-7.208Z" transform="translate(-406.909 -12.765)" fill="#f8f7f8"/>
      <path id="Trazado_104963" data-name="Trazado 104963" d="M450.963,50.888l-5.537,6.9a.835.835,0,0,1-1.275.034L441.6,54.964a8.119,8.119,0,0,1,1.575-12.187l0,.235a7.611,7.611,0,0,0,5.487,7.208Z" transform="translate(-413.241 -12.765)" fill="#f8f7f8"/>
      <path id="Trazado_104964" data-name="Trazado 104964" d="M439.544,83.764h-9.415a1.773,1.773,0,0,1-1.775-1.808l.417-22.033a14.966,14.966,0,0,1,2.633-8.208l7.739,10.556a2.085,2.085,0,0,1,.4,1.228V83.764Z" transform="translate(-427.104 -1.675)" fill="#31d9e7"/>
      <g id="Grupo_56761" data-name="Grupo 56761" transform="translate(63.001 50.041)">
        <g id="Grupo_56760" data-name="Grupo 56760">
          <path id="Trazado_104965" data-name="Trazado 104965" d="M466.686,59.924l.421,22.239a1.572,1.572,0,0,1-1.573,1.6h-9.621V63.5a2.085,2.085,0,0,1,.4-1.228l7.739-10.556a14.947,14.947,0,0,1,2.633,8.208Z" transform="translate(-455.913 -51.716)" fill="#31d9e7"/>
        </g>
      </g>
      <g id="Grupo_56762" data-name="Grupo 56762">
        <path id="Trazado_104966" data-name="Trazado 104966" d="M446.791,41.538a3.9,3.9,0,1,0,3.9,3.9A3.9,3.9,0,0,0,446.791,41.538Zm0,5.366a1.467,1.467,0,1,1,1.465-1.465A1.469,1.469,0,0,1,446.791,46.9Z" transform="translate(-409.069 -14.303)" fill="#21949d"/>
        <path id="Trazado_104967" data-name="Trazado 104967" d="M443.662,43.383a3.655,3.655,0,0,0,3.65-3.65,3.046,3.046,0,1,1,3.05,3.05,3.651,3.651,0,0,0-3.65,3.648v4.764a3.649,3.649,0,0,0,7.3,0V49.412a10.373,10.373,0,0,0,3.856-2.557,10.263,10.263,0,0,0,2.83-7.67,10.349,10.349,0,0,0-20.583-.892,10.257,10.257,0,0,0-.1,1.439A3.655,3.655,0,0,0,443.662,43.383Zm-1.141-4.752a7.916,7.916,0,1,1,9.946,8.73,1.214,1.214,0,0,0-.89,1.172v2.662a1.217,1.217,0,1,1-2.433,0V46.43a1.216,1.216,0,0,1,1.217-1.214,5.486,5.486,0,0,0,5.474-5.776,5.493,5.493,0,0,0-5.36-5.187l-.117,0a5.483,5.483,0,0,0-5.481,5.483,1.217,1.217,0,0,1-2.433,0A7.869,7.869,0,0,1,442.521,38.63Z" transform="translate(-412.64 -29.383)" fill="#21949d"/>
        <path id="Trazado_104968" data-name="Trazado 104968" d="M429.237,60.7A1.218,1.218,0,0,0,428,61.9l-.2,10.693a1.217,1.217,0,0,0,1.194,1.239h.022a1.217,1.217,0,0,0,1.217-1.192l.2-10.695a1.218,1.218,0,0,0-1.194-1.239Z" transform="translate(-427.796 9.476)" fill="#21949d"/>
        <path id="Trazado_104969" data-name="Trazado 104969" d="M502.621,72.356a16.145,16.145,0,0,0-7.73-13.516l-14.755-9.057-2.9-2.579a9.254,9.254,0,0,0-3.4-4.067l-.038-.025c-.224-.146-.455-.285-.69-.412l-1.629-.878a1.216,1.216,0,1,0-1.156,2.14l1.584.856a6.351,6.351,0,0,1-4.587,5.6l-1.961.569-1.961-.569a6.35,6.35,0,0,1-4.589-5.6l1.584-.856a1.216,1.216,0,0,0-1.154-2.14L457.6,42.7c-.238.128-.468.267-.692.412l-.038.025a9.268,9.268,0,0,0-3.4,4.067l-2.9,2.579L435.811,58.84a16.15,16.15,0,0,0-7.73,13.516l-.15,7.966a1.215,1.215,0,0,0,1.192,1.239h.025a1.214,1.214,0,0,0,1.215-1.194l.15-7.963a13.8,13.8,0,0,1,1.515-6.041l6.827,9.314V95.769a1.217,1.217,0,1,0,2.433,0V75.278a1.217,1.217,0,0,0-.235-.719l-7.618-10.392a13.782,13.782,0,0,1,3.65-3.251l8.337-5.118a28.349,28.349,0,0,0-4.459,15.252,1.385,1.385,0,0,0,1.383,1.383h1.568l.6.912a50.777,50.777,0,0,0,19.758,17.562v4.865a1.217,1.217,0,0,0,2.433,0v-5a50.68,50.68,0,0,0,12.451-8.9,1.217,1.217,0,1,0-1.7-1.743A48.225,48.225,0,0,1,469.95,86.1l3.648-7.013a42.542,42.542,0,0,0,4.217-26.31A9.17,9.17,0,0,0,478,51.139l.6.533A25.929,25.929,0,0,1,487.286,70h-1.154a1.218,1.218,0,0,0-1.017.549l-.959,1.461a48.1,48.1,0,0,1-3.262,4.405,1.216,1.216,0,1,0,1.871,1.555,51.041,51.041,0,0,0,3.426-4.625l.6-.912h1.568a1.383,1.383,0,0,0,1.383-1.383A28.366,28.366,0,0,0,485.283,55.8l8.335,5.115a13.829,13.829,0,0,1,3.65,3.253L489.65,74.559a1.217,1.217,0,0,0-.235.719V95.769a1.217,1.217,0,0,0,2.433,0V75.677l6.827-9.314A13.77,13.77,0,0,1,500.19,72.4l.45,23.843a1.214,1.214,0,0,0,1.214,1.192h.025a1.213,1.213,0,0,0,1.192-1.239Zm-34.632-19.6a8.773,8.773,0,0,0,6.063-6.16,6.915,6.915,0,0,1-.244,8.925l-2.254,2.519-4.114-5.124ZM465.352,54.2l2.9,3.612-.6,1.037h-4.589l-.6-1.04Zm-2.64-1.443.549.159-4.114,5.124-2.254-2.519a6.916,6.916,0,0,1-.244-8.925,8.773,8.773,0,0,0,6.063,6.16ZM446.546,72.009l-.959-1.461A1.215,1.215,0,0,0,444.569,70h-1.154A25.929,25.929,0,0,1,452.1,51.672l.6-.533a9.123,9.123,0,0,0,.181,1.64,42.285,42.285,0,0,0-.359,10.836,1.216,1.216,0,0,0,1.21,1.1,1.017,1.017,0,0,0,.117-.007,1.217,1.217,0,0,0,1.1-1.326,39.8,39.8,0,0,1-.087-6.5c.072.085.141.173.217.255L457.635,60a2.045,2.045,0,0,0,1.528.683h.056a2.044,2.044,0,0,0,1.544-.766l.058-.072.264.457a1.96,1.96,0,0,0,1,.847L460.008,79.4l-.744-1.43a39.947,39.947,0,0,1-3.516-9.613,1.216,1.216,0,0,0-2.373.536,42.218,42.218,0,0,0,3.731,10.2l3.646,7.013a48.4,48.4,0,0,1-14.206-14.1Zm18.806,16.72c-.224-.112-.448-.226-.67-.343l-2.664-5.124,2.5-21.981h1.66l2.505,21.981-2.666,5.124c-.222.114-.444.231-.668.343Zm6.086-10.76-.744,1.43-2.079-18.25a1.98,1.98,0,0,0,1-.847l.264-.459.058.072a2.044,2.044,0,0,0,1.544.766h.056A2.046,2.046,0,0,0,473.066,60l2.554-2.855c.074-.083.146-.17.217-.255A40.127,40.127,0,0,1,471.437,77.969Z" transform="translate(-427.63 -14.132)" fill="#21949d"/>
      </g>
    </g>
    <rect id="Rectángulo_5554" data-name="Rectángulo 5554" width="102" height="102" transform="translate(497 682)" fill="none"/>
  </g>
</svg>
