<svg xmlns="http://www.w3.org/2000/svg" width="259.603" height="115.938" viewBox="0 0 259.603 115.938">
  <g id="Grupo_56297" data-name="Grupo 56297" transform="translate(1472.281 7001.056)">
    <rect id="Rectángulo_5638" data-name="Rectángulo 5638" width="199.37" height="75.559" transform="translate(-1414.549 -7001.056)" fill="#f4eed7"/>
    <line id="Línea_327" data-name="Línea 327" y2="64.882" transform="translate(-1414.549 -6950)" fill="none" stroke="#ff9696" stroke-miterlimit="10" stroke-width="5"/>
    <line id="Línea_328" data-name="Línea 328" y2="49.008" transform="translate(-1215.179 -6950)" fill="none" stroke="#ff9696" stroke-miterlimit="10" stroke-width="5"/>
    <g id="Grupo_55934" data-name="Grupo 55934" transform="translate(745.191 -9928.678)">
      <rect id="Rectángulo_5639" data-name="Rectángulo 5639" width="50.411" height="5" transform="translate(-2211.758 3015.831)" fill="#ff9696"/>
      <g id="Grupo_55933" data-name="Grupo 55933">
        <path id="Trazado_106336" data-name="Trazado 106336" d="M-2201.8,3026.807l-8.481-8.477,8.481-8.477h-7.2l-8.477,8.477,8.477,8.477Z" fill="#ff9696"/>
      </g>
    </g>
    <line id="Línea_329" data-name="Línea 329" x2="199.37" transform="translate(-1414.549 -6925.497)" fill="none" stroke="#ff9696" stroke-miterlimit="10" stroke-width="5"/>
    <path id="Trazado_106337" data-name="Trazado 106337" d="M-2114.008,3007.843s-4.743,24.378-20.986,22.677-20.778-23.811-20.778-23.811" transform="translate(745.191 -9928.678)" fill="none" stroke="#28c6ba" stroke-miterlimit="10" stroke-width="5" stroke-dasharray="4"/>
    <path id="Trazado_106338" data-name="Trazado 106338" d="M-2064.309,3007.843s-4.743,24.378-20.986,22.677-20.778-23.811-20.778-23.811" transform="translate(745.191 -9928.678)" fill="none" stroke="#28c6ba" stroke-miterlimit="10" stroke-width="5" stroke-dasharray="4"/>
    <path id="Trazado_106339" data-name="Trazado 106339" d="M-2013.583,3007.843s-4.743,24.378-20.985,22.677-20.778-23.811-20.778-23.811" transform="translate(745.191 -9928.678)" fill="none" stroke="#28c6ba" stroke-miterlimit="10" stroke-width="5" stroke-dasharray="4"/>
    <path id="Trazado_106340" data-name="Trazado 106340" d="M-1965.5,3007.843s-4.743,24.378-20.986,22.677-20.778-23.811-20.778-23.811" transform="translate(745.191 -9928.678)" fill="none" stroke="#28c6ba" stroke-miterlimit="10" stroke-width="5" stroke-dasharray="4"/>
    <circle id="Elipse_4127" data-name="Elipse 4127" cx="10.984" cy="10.984" r="10.984" transform="translate(-1402.336 -6908.434)" fill="none" stroke="#666" stroke-miterlimit="10" stroke-width="2"/>
    <circle id="Elipse_4128" data-name="Elipse 4128" cx="10.984" cy="10.984" r="10.984" transform="translate(-1445.118 -6939.969)" fill="none" stroke="#666" stroke-miterlimit="10" stroke-width="2"/>
    <path id="Trazado_107936" data-name="Trazado 107936" d="M-37.81-1.647h4.354V0H-39.86V-9.953h2.051ZM-30.276,0h-1.976V-7.4h1.976Zm-.581-10.4H-28.7L-30.6-8.278H-32.2Zm4.1,3,.062.854a2.582,2.582,0,0,1,2.126-.991,2.146,2.146,0,0,1,1.75.69,3.221,3.221,0,0,1,.588,2.064V0h-1.976V-4.73a1.282,1.282,0,0,0-.273-.913,1.224,1.224,0,0,0-.909-.284,1.359,1.359,0,0,0-1.251.711V0h-1.976V-7.4ZM-17.329.137a3.631,3.631,0,0,1-2.649-1A3.548,3.548,0,0,1-21-3.521v-.191A4.468,4.468,0,0,1-20.569-5.7a3.161,3.161,0,0,1,1.22-1.354,3.425,3.425,0,0,1,1.8-.475,3.07,3.07,0,0,1,2.389.957,3.889,3.889,0,0,1,.872,2.714v.807H-19a1.835,1.835,0,0,0,.578,1.162,1.746,1.746,0,0,0,1.22.438,2.132,2.132,0,0,0,1.784-.827l.971,1.087a2.966,2.966,0,0,1-1.2.981A3.947,3.947,0,0,1-17.329.137Zm-.226-6.077a1.234,1.234,0,0,0-.954.4,2.062,2.062,0,0,0-.468,1.14h2.748V-4.56a1.471,1.471,0,0,0-.355-1.02A1.274,1.274,0,0,0-17.555-5.94ZM-8.88,0a2.194,2.194,0,0,1-.2-.663,2.39,2.39,0,0,1-1.866.8,2.626,2.626,0,0,1-1.8-.629,2.023,2.023,0,0,1-.714-1.586,2.09,2.09,0,0,1,.872-1.8,4.3,4.3,0,0,1,2.519-.636h.909v-.424a1.219,1.219,0,0,0-.263-.82,1.035,1.035,0,0,0-.831-.308,1.177,1.177,0,0,0-.783.239.813.813,0,0,0-.284.656H-13.3a1.984,1.984,0,0,1,.4-1.189,2.621,2.621,0,0,1,1.121-.858,4.086,4.086,0,0,1,1.627-.311,3.228,3.228,0,0,1,2.17.687,2.4,2.4,0,0,1,.8,1.931v3.206A3.536,3.536,0,0,0-6.884-.116V0Zm-1.634-1.374a1.7,1.7,0,0,0,.807-.195,1.28,1.28,0,0,0,.547-.523V-3.363H-9.9q-1.483,0-1.579,1.025l-.007.116a.791.791,0,0,0,.26.608A1.009,1.009,0,0,0-10.514-1.374Zm8.032-2.379a4.457,4.457,0,0,1,.776-2.755A2.517,2.517,0,0,1,.417-7.533,2.265,2.265,0,0,1,2.2-6.727V-10.5H4.184V0H2.4L2.3-.786A2.325,2.325,0,0,1,.4.137a2.511,2.511,0,0,1-2.1-1.029A4.6,4.6,0,0,1-2.481-3.753Zm1.976.147a2.92,2.92,0,0,0,.362,1.6,1.18,1.18,0,0,0,1.053.555A1.322,1.322,0,0,0,2.2-2.23V-5.153A1.3,1.3,0,0,0,.923-5.927Q-.506-5.927-.506-3.606ZM9.119.137a3.631,3.631,0,0,1-2.649-1A3.548,3.548,0,0,1,5.448-3.521v-.191A4.468,4.468,0,0,1,5.879-5.7,3.161,3.161,0,0,1,7.1-7.058a3.425,3.425,0,0,1,1.8-.475,3.07,3.07,0,0,1,2.389.957,3.889,3.889,0,0,1,.872,2.714v.807H7.451a1.835,1.835,0,0,0,.578,1.162,1.746,1.746,0,0,0,1.22.438,2.132,2.132,0,0,0,1.784-.827L12-1.2a2.966,2.966,0,0,1-1.2.981A3.947,3.947,0,0,1,9.119.137ZM8.894-5.94a1.234,1.234,0,0,0-.954.4A2.062,2.062,0,0,0,7.472-4.4H10.22V-4.56a1.471,1.471,0,0,0-.355-1.02A1.274,1.274,0,0,0,8.894-5.94ZM23.98-8.292H20.932V0H18.881V-8.292H15.873V-9.953H23.98ZM27.1,0H25.122V-7.4H27.1Zm-2.1-9.311a.973.973,0,0,1,.3-.731,1.117,1.117,0,0,1,.81-.287,1.12,1.12,0,0,1,.807.287.967.967,0,0,1,.3.731.97.97,0,0,1-.3.738,1.122,1.122,0,0,1-.8.287,1.122,1.122,0,0,1-.8-.287A.97.97,0,0,1,25.006-9.311Zm7.882,3.767a5.367,5.367,0,0,0-.711-.055,1.447,1.447,0,0,0-1.47.759V0H28.731V-7.4H30.6l.055.882A1.831,1.831,0,0,1,32.3-7.533a2.07,2.07,0,0,1,.615.089Zm.4,1.777a4.387,4.387,0,0,1,.424-1.962,3.1,3.1,0,0,1,1.22-1.333,3.56,3.56,0,0,1,1.849-.472,3.368,3.368,0,0,1,2.444.916,3.676,3.676,0,0,1,1.056,2.488l.014.506a3.866,3.866,0,0,1-.95,2.731A3.3,3.3,0,0,1,36.791.137,3.319,3.319,0,0,1,34.238-.889a3.934,3.934,0,0,1-.954-2.789Zm1.976.14a2.765,2.765,0,0,0,.4,1.612,1.308,1.308,0,0,0,1.135.558,1.311,1.311,0,0,0,1.121-.551,3.025,3.025,0,0,0,.4-1.763,2.737,2.737,0,0,0-.4-1.6,1.311,1.311,0,0,0-1.135-.568,1.29,1.29,0,0,0-1.121.565A3.076,3.076,0,0,0,35.26-3.626Z" transform="translate(-1314.864 -6942.568)"/>
  </g>
</svg>
