<svg xmlns="http://www.w3.org/2000/svg" width="102" height="102" viewBox="0 0 102 102">
  <g id="Grupo_56786" data-name="Grupo 56786" transform="translate(-218 -658)">
    <g id="Grupo_56783" data-name="Grupo 56783" transform="translate(229 669)">
      <path id="Trazado_104977" data-name="Trazado 104977" d="M518.331,59.566h17.412s1.786,7.038,0,9.081-5.25,4.871-8.727,4.573-6.216-3.491-7-4.573S518.331,59.566,518.331,59.566Z" transform="translate(-487.159 3.942)" fill="#31d9e7"/>
      <path id="Trazado_104978" data-name="Trazado 104978" d="M529.775,40.532s22.1-.208,20.991,21.338a33.032,33.032,0,0,1-6.6,13.054c-4.959,5.631-2.714,7.43-2.714,7.43H524.036s-2.507-4.638-5.94-10.193-3.948-5.98-3.861-14.963S520.584,41.4,529.775,40.532Z" transform="translate(-492.25 -19.674)" fill="#f9e478"/>
      <g id="Grupo_56782" data-name="Grupo 56782">
        <path id="Trazado_104979" data-name="Trazado 104979" d="M528.872,40.2a20.956,20.956,0,0,0-9.785,35.324,11.022,11.022,0,0,1,3.079,7.869v4.759c0,7.081,5.176,12.355,11.676,12.355A11.691,11.691,0,0,0,545.52,88.834V83.4a11.408,11.408,0,0,1,3.233-8.028,20.734,20.734,0,0,0,6.11-14.726A21.05,21.05,0,0,0,528.872,40.2Zm4.97,55.636c-3.993,0-7.007-3.3-7.007-7.683V86.342H540.85v2.492a7.016,7.016,0,0,1-7.009,7.007Zm11.6-23.762a16.024,16.024,0,0,0-4.5,9.595H526.747A15.466,15.466,0,0,0,522.36,72.2a16.287,16.287,0,0,1,7.56-27.442,16.364,16.364,0,0,1,20.271,15.9,16.092,16.092,0,0,1-4.746,11.427Z" transform="translate(-493.982 -20.791)" fill="#21949d"/>
        <path id="Trazado_104980" data-name="Trazado 104980" d="M521.166,33.558v4.826a2.336,2.336,0,1,0,4.672,0V33.558a2.336,2.336,0,0,0-4.672,0Z" transform="translate(-483.641 -31.223)" fill="#21949d"/>
        <path id="Trazado_104981" data-name="Trazado 104981" d="M513.917,50.3a2.337,2.337,0,0,0-2.337-2.335h-4.826a2.336,2.336,0,0,0,0,4.672h4.826A2.337,2.337,0,0,0,513.917,50.3Z" transform="translate(-504.419 -10.445)" fill="#21949d"/>
        <path id="Trazado_104982" data-name="Trazado 104982" d="M542.922,47.97H538.1a2.336,2.336,0,1,0,0,4.672h4.826a2.336,2.336,0,0,0,0-4.672Z" transform="translate(-465.536 -10.445)" fill="#21949d"/>
        <path id="Trazado_104983" data-name="Trazado 104983" d="M511.935,55.58l-4.044,2.337a2.335,2.335,0,1,0,2.335,4.044l4.047-2.335a2.337,2.337,0,0,0-2.337-4.047Z" transform="translate(-501.561 -1.393)" fill="#21949d"/>
        <path id="Trazado_104984" data-name="Trazado 104984" d="M539.018,39.945l-4.047,2.335a2.335,2.335,0,1,0,2.337,4.044l4.044-2.335a2.335,2.335,0,1,0-2.335-4.044Z" transform="translate(-467.962 -20.791)" fill="#21949d"/>
        <path id="Trazado_104985" data-name="Trazado 104985" d="M531.113,34.7l-2.337,4.044a2.337,2.337,0,0,0,4.047,2.337l2.335-4.047a2.335,2.335,0,1,0-4.044-2.335Z" transform="translate(-474.589 -28.366)" fill="#21949d"/>
        <path id="Trazado_104986" data-name="Trazado 104986" d="M515.475,41.077a2.336,2.336,0,0,0,4.047-2.337L517.185,34.7a2.335,2.335,0,1,0-4.044,2.335Z" transform="translate(-493.987 -28.366)" fill="#21949d"/>
        <path id="Trazado_104987" data-name="Trazado 104987" d="M541.353,57.917l-4.044-2.337a2.336,2.336,0,0,0-2.337,4.047l4.047,2.335a2.335,2.335,0,1,0,2.335-4.044Z" transform="translate(-467.962 -1.393)" fill="#21949d"/>
        <path id="Trazado_104988" data-name="Trazado 104988" d="M514.272,42.279l-4.047-2.335a2.335,2.335,0,1,0-2.335,4.044l4.044,2.335a2.336,2.336,0,0,0,2.337-4.044Z" transform="translate(-501.561 -20.791)" fill="#21949d"/>
        <path id="Trazado_104989" data-name="Trazado 104989" d="M526.088,44.843a7.015,7.015,0,0,0-7.007,7.007,2.336,2.336,0,0,0,4.672,0,2.336,2.336,0,1,1,3.2,2.171,5.053,5.053,0,0,0-3.2,4.719v.117a2.336,2.336,0,0,0,4.672,0V58.74a.41.41,0,0,1,.255-.379,7.007,7.007,0,0,0-2.592-13.518Z" transform="translate(-486.228 -14.325)" fill="#21949d"/>
        <circle id="Elipse_4002" data-name="Elipse 4002" cx="2.336" cy="2.336" r="2.336" transform="translate(37.525 51.538)" fill="#21949d"/>
      </g>
    </g>
    <rect id="Rectángulo_5527" data-name="Rectángulo 5527" width="102" height="102" transform="translate(218 658)" fill="none"/>
  </g>
</svg>
