<svg xmlns="http://www.w3.org/2000/svg" width="604" height="501" viewBox="0 0 604 501">
  <g id="Grupo_56308" data-name="Grupo 56308" transform="translate(-3308 7215.927)">
    <g id="Grupo_55990" data-name="Grupo 55990" transform="translate(1698.576 -11356.689)">
      <g id="Rectángulo_5675" data-name="Rectángulo 5675">
        <rect id="Rectángulo_5685" data-name="Rectángulo 5685" width="604" height="500" transform="translate(1609.424 4140.763)" fill="#fffdf4"/>
        <rect id="Rectángulo_5686" data-name="Rectángulo 5686" width="603" height="499" transform="translate(1609.924 4141.263)" fill="#fffdf4"/>
      </g>
      <path id="Trazado_106457" data-name="Trazado 106457" d="M1753.408,4246.123s-11.542,42.51,2.442,60.274,72.418,30.236,72.418,30.236,19.365-7.937,21.663-8.315,29.888-48,29.51-49.134-25.323-40.063-25.323-40.063Z" fill="#e07575"/>
      <g id="Grupo_55988" data-name="Grupo 55988">
        <path id="Trazado_106458" data-name="Trazado 106458" d="M1849.931,4640.262h30.927l24.52-68.639s5.953-26.079,5.953-34.725,1.7-24.236,1.7-24.236l12.9-34.724s9.071,38.976,10.772,51.59,3.685,40.394,0,58.677-10.488,52.057-10.488,52.057h113.1l65.48-.608-10.063-59.527s-3.071-41.622-1.37-46.866,13.228-61.607,13.228-61.607l17.056,51.5s8.787,57.969,10.488,62.646,20.267,54.466,20.267,54.466h34.158l-18.567-103.08-5.244-21.827-2.126-14.031-10.63-82.63s-7.937-45.5-18.142-54.709-33.59-9.071-33.59-9.071l-50.173-18-2.835-46.205-55.7,2.41-7.228-3.449s1.134,43.654-1.7,47.055-46.677,14.929-46.677,14.929-27.4-1.323-40.252,20.032-19.276,96.756-19.276,96.756l-4.346,46.11s-17.2,53.291-17.2,58.205-4.943,67.505-4.943,67.505" fill="#e7e7e8"/>
        <g id="Grupo_55987" data-name="Grupo 55987">
          <path id="Trazado_106459" data-name="Trazado 106459" d="M1984.5,4315.218l64.29.635-1.542-25.144-48.189-8.409-14.74,7.37S1984.664,4302.8,1984.5,4315.218Z" fill="#d3d3d3"/>
          <path id="Trazado_106460" data-name="Trazado 106460" d="M1911.331,4536.9c0-8.645,1.7-24.236,1.7-24.236l12.9-34.724c-8.693-28.3-2.268-68.457,4.913-79.04s4.914-30.236,4.914-30.236c1.293-3.878-.157-10.786-2.049-17-6.782.212-27.377,2.347-38.014,20.025-12.851,21.354-19.276,96.756-19.276,96.756l-4.346,46.11s-17.2,53.291-17.2,58.205-4.943,67.506-4.943,67.506h30.927l24.52-68.64S1911.331,4545.544,1911.331,4536.9Z" fill="#d3d3d3"/>
          <path id="Trazado_106461" data-name="Trazado 106461" d="M2169.992,4537.182l-5.244-21.827-2.126-14.031-10.63-82.63s-7.937-45.5-18.142-54.709-33.59-9.071-33.59-9.071l-.645-.231c-2.649,7.623-4.659,15.04-4.659,15.04s-2.267,19.653,4.914,30.236c6.436,9.485,12.266,42.73,7.146,69.9l.05,3.232,16.58,50.059s8.787,57.969,10.488,62.646,20.268,54.467,20.268,54.467h34.157Z" fill="#d3d3d3"/>
        </g>
        <line id="Línea_375" data-name="Línea 375" y2="272.1" transform="translate(2016.412 4368.662)" fill="none" stroke="#a8a8a8" stroke-linecap="round" stroke-linejoin="round" stroke-width="2" stroke-dasharray="5"/>
        <path id="Trazado_106462" data-name="Trazado 106462" d="M1921.961,4443.5s151.37,8.5,186.519,0" fill="none" stroke="#a8a8a8" stroke-linecap="round" stroke-linejoin="round" stroke-width="2" stroke-dasharray="5"/>
        <path id="Trazado_106463" data-name="Trazado 106463" d="M2091.472,4560.284s-103.748,6.8-149.669,0" fill="none" stroke="#a8a8a8" stroke-linecap="round" stroke-linejoin="round" stroke-width="2" stroke-dasharray="5"/>
        <path id="Trazado_106464" data-name="Trazado 106464" d="M1980.543,4308.568" fill="none" stroke="#e7e7e8" stroke-linecap="round" stroke-linejoin="round" stroke-width="2"/>
        <circle id="Elipse_4145" data-name="Elipse 4145" cx="2.344" cy="2.344" r="2.344" transform="translate(2014.557 4353.995)" fill="#e7e7e8"/>
        <path id="Trazado_106465" data-name="Trazado 106465" d="M1984.642,4297.965l.009.018c4.126-2.993,24.7-15.629,61.959-2.313,9.319-12.668,13.023-27.275,16.279-43.222,4.1-20.086,4.811-41.374-4.586-60.157a43.8,43.8,0,0,0-16.808-18.515c-7.185-4.149-15.566-5.738-23.852-6.3l-.66-.043c-20.806-1.287-39.362,7.148-45.782,28.208-10.84,35.554,3.035,79.78,3.035,79.78Z" fill="#e7e7e8"/>
      </g>
      <path id="Trazado_106466" data-name="Trazado 106466" d="M1649.238,4640.262h30.927l24.52-68.639s5.953-26.079,5.953-34.725,1.7-24.236,1.7-24.236l12.9-34.724s9.071,38.976,10.772,51.59,3.685,40.394,0,58.677-10.488,52.057-10.488,52.057h113.1l65.48-.608-10.063-59.527s-3.071-41.622-1.37-46.866,13.229-61.607,13.229-61.607l17.055,51.5s8.787,57.969,10.488,62.646,20.268,54.466,20.268,54.466h34.157l-18.567-103.08-5.244-21.827-2.126-14.031-10.63-82.63s-7.937-45.5-18.142-54.709-33.59-9.071-33.59-9.071l-50.173-18-2.835-46.205-55.7,2.41-7.228-3.449s1.134,43.654-1.7,47.055-46.677,14.929-46.677,14.929-27.4-1.323-40.252,20.032-19.276,96.756-19.276,96.756l-4.346,46.11s-17.2,53.291-17.2,58.205-4.943,67.505-4.943,67.505" fill="#e7e7e8"/>
      <g id="Grupo_55989" data-name="Grupo 55989">
        <path id="Trazado_106467" data-name="Trazado 106467" d="M1781.929,4336.725s26.952,9.592,34.936,9.789c9.016.223,33.066-8.109,33.066-8.109l-3.372-47.7-55.7,2.41-7.228-3.449S1782.089,4324.306,1781.929,4336.725Z" fill="#d3d3d3"/>
        <path id="Trazado_106468" data-name="Trazado 106468" d="M1710.638,4536.9c0-8.645,1.7-24.236,1.7-24.236l12.9-34.724c-8.693-28.3-2.268-68.457,4.914-79.04s4.913-30.236,4.913-30.236c1.293-3.878-.157-10.786-2.049-17-6.782.212-27.376,2.347-38.014,20.025-12.85,21.354-19.276,96.756-19.276,96.756l-4.346,46.11s-17.2,53.291-17.2,58.205-4.943,67.506-4.943,67.506h30.927l24.52-68.64S1710.638,4545.544,1710.638,4536.9Z" fill="#d3d3d3"/>
        <path id="Trazado_106469" data-name="Trazado 106469" d="M1969.3,4537.182l-5.244-21.827-2.126-14.031-10.63-82.63s-7.937-45.5-18.142-54.709-33.59-9.071-33.59-9.071l-.645-.231c-2.649,7.623-4.658,15.04-4.658,15.04s-2.268,19.653,4.913,30.236c6.436,9.485,12.266,42.73,7.146,69.9l.05,3.232,16.58,50.059s8.787,57.969,10.488,62.646,20.268,54.467,20.268,54.467h34.157Z" fill="#d3d3d3"/>
      </g>
      <path id="Trazado_106470" data-name="Trazado 106470" d="M1816.95,4167.473l-.66-.043c-20.806-1.287-39.362,7.148-45.782,28.208-10.84,35.554,3.035,79.78,3.035,79.78l10.406,22.547c5.912,12.81,24.908,20.973,37.968,17,6.9-2.1,12.672-6.842,17.748-11.961,14.11-14.23,18.627-31.434,22.531-50.556,4.1-20.085,4.811-41.373-4.586-60.156a43.806,43.806,0,0,0-16.808-18.515C1833.617,4169.627,1825.236,4168.039,1816.95,4167.473Z" fill="#e7e7e8"/>
      <line id="Línea_376" data-name="Línea 376" y2="135.93" transform="translate(1815.72 4173.2)" fill="none" stroke="#a8a8a8" stroke-linecap="round" stroke-linejoin="round" stroke-width="2" stroke-dasharray="5"/>
      <line id="Línea_377" data-name="Línea 377" y2="272.1" transform="translate(1815.72 4368.662)" fill="none" stroke="#a8a8a8" stroke-linecap="round" stroke-linejoin="round" stroke-width="2" stroke-dasharray="5"/>
      <path id="Trazado_106471" data-name="Trazado 106471" d="M1721.268,4443.5s151.37,8.5,186.519,0" fill="none" stroke="#a8a8a8" stroke-linecap="round" stroke-linejoin="round" stroke-width="2" stroke-dasharray="5"/>
      <path id="Trazado_106472" data-name="Trazado 106472" d="M1890.779,4560.284s-103.748,6.8-149.669,0" fill="none" stroke="#a8a8a8" stroke-linecap="round" stroke-linejoin="round" stroke-width="2" stroke-dasharray="5"/>
      <path id="Trazado_106473" data-name="Trazado 106473" d="M1779.85,4308.568" fill="none" stroke="#e7e7e8" stroke-linecap="round" stroke-linejoin="round" stroke-width="2"/>
      <circle id="Elipse_4146" data-name="Elipse 4146" cx="2.344" cy="2.344" r="2.344" transform="translate(1813.865 4353.995)" fill="#e7e7e8"/>
      <path id="Trazado_106474" data-name="Trazado 106474" d="M1768.178,4241.487s51.975,20.863,95.084,0" fill="none" stroke="#a8a8a8" stroke-linecap="round" stroke-linejoin="round" stroke-width="1.933" stroke-dasharray="4.832"/>
      <rect id="Rectángulo_5433" data-name="Rectángulo 5433" width="206.784" height="58.588" transform="translate(1609.424 4582.174)" fill="#d9d9d9"/>
      <path id="Trazado_107958" data-name="Trazado 107958" d="M6.877-4.067H2.939V0H.889V-9.953h6.48v1.661H2.939v2.57H6.877ZM10.514,0H8.531V-7.4h1.982Zm-2.1-9.311a.973.973,0,0,1,.3-.731,1.117,1.117,0,0,1,.81-.287,1.12,1.12,0,0,1,.807.287.967.967,0,0,1,.3.731.97.97,0,0,1-.3.738,1.122,1.122,0,0,1-.8.287,1.122,1.122,0,0,1-.8-.287A.97.97,0,0,1,8.415-9.311Zm3.438,5.558a4.335,4.335,0,0,1,.81-2.741,2.625,2.625,0,0,1,2.184-1.039,2.3,2.3,0,0,1,1.894.834l.082-.7h1.791v7.15a3.161,3.161,0,0,1-.441,1.688,2.832,2.832,0,0,1-1.241,1.094,4.362,4.362,0,0,1-1.873.376,4.056,4.056,0,0,1-1.586-.325A2.815,2.815,0,0,1,12.3,1.75l.875-1.2a2.314,2.314,0,0,0,1.791.827,1.694,1.694,0,0,0,1.224-.42,1.577,1.577,0,0,0,.438-1.193v-.4a2.285,2.285,0,0,1-1.8.772A2.618,2.618,0,0,1,12.677-.906a4.334,4.334,0,0,1-.824-2.765Zm1.976.147a2.7,2.7,0,0,0,.4,1.578,1.283,1.283,0,0,0,1.107.572,1.372,1.372,0,0,0,1.292-.678V-5.249a1.369,1.369,0,0,0-1.278-.678,1.291,1.291,0,0,0-1.118.582A3.042,3.042,0,0,0,13.829-3.606ZM24.562-.752a2.477,2.477,0,0,1-2.023.889,2.337,2.337,0,0,1-1.815-.684,2.918,2.918,0,0,1-.639-2V-7.4H22.06v4.784q0,1.157,1.053,1.157a1.426,1.426,0,0,0,1.381-.7V-7.4h1.982V0H24.616Zm7.561-4.792a5.367,5.367,0,0,0-.711-.055,1.447,1.447,0,0,0-1.47.759V0H27.966V-7.4h1.866l.055.882a1.831,1.831,0,0,1,1.647-1.019,2.07,2.07,0,0,1,.615.089ZM37.153,0a2.194,2.194,0,0,1-.2-.663,2.39,2.39,0,0,1-1.866.8,2.626,2.626,0,0,1-1.8-.629,2.023,2.023,0,0,1-.714-1.586,2.09,2.09,0,0,1,.872-1.8,4.3,4.3,0,0,1,2.519-.636h.909v-.424a1.219,1.219,0,0,0-.263-.82,1.035,1.035,0,0,0-.831-.308A1.177,1.177,0,0,0,35-5.831a.813.813,0,0,0-.284.656H32.737a1.984,1.984,0,0,1,.4-1.189,2.621,2.621,0,0,1,1.121-.858,4.086,4.086,0,0,1,1.627-.311,3.228,3.228,0,0,1,2.17.687,2.4,2.4,0,0,1,.8,1.931v3.206a3.536,3.536,0,0,0,.294,1.593V0ZM35.52-1.374a1.7,1.7,0,0,0,.807-.195,1.28,1.28,0,0,0,.547-.523V-3.363h-.738q-1.483,0-1.579,1.025l-.007.116a.791.791,0,0,0,.26.608A1.009,1.009,0,0,0,35.52-1.374ZM45.787-5.852H46.84a1.483,1.483,0,0,0,1.114-.376,1.378,1.378,0,0,0,.362-1,1.218,1.218,0,0,0-.359-.937A1.391,1.391,0,0,0,46.97-8.5a1.458,1.458,0,0,0-.95.311,1,1,0,0,0-.383.81H43.661a2.43,2.43,0,0,1,.42-1.4,2.8,2.8,0,0,1,1.176-.967,3.924,3.924,0,0,1,1.665-.349,3.722,3.722,0,0,1,2.475.755,2.577,2.577,0,0,1,.9,2.082A2.094,2.094,0,0,1,49.875-6a2.709,2.709,0,0,1-1.094.882,2.473,2.473,0,0,1,1.254.9,2.448,2.448,0,0,1,.414,1.422,2.62,2.62,0,0,1-.967,2.126,3.889,3.889,0,0,1-2.56.8,3.688,3.688,0,0,1-2.437-.786,2.567,2.567,0,0,1-.947-2.078h1.976a1.145,1.145,0,0,0,.42.916,1.549,1.549,0,0,0,1.036.355,1.556,1.556,0,0,0,1.1-.373,1.286,1.286,0,0,0,.4-.988q0-1.49-1.641-1.49H45.787ZM58.632,0H51.81V-1.354l3.22-3.432A7.943,7.943,0,0,0,56.01-6.05a2.032,2.032,0,0,0,.318-1.025,1.52,1.52,0,0,0-.335-1.042,1.209,1.209,0,0,0-.957-.379,1.3,1.3,0,0,0-1.056.461,1.828,1.828,0,0,0-.386,1.213H51.611a3.263,3.263,0,0,1,.434-1.661,3.059,3.059,0,0,1,1.227-1.179,3.73,3.73,0,0,1,1.8-.427,3.531,3.531,0,0,1,2.389.738,2.612,2.612,0,0,1,.851,2.085,3.347,3.347,0,0,1-.383,1.5,8.357,8.357,0,0,1-1.312,1.784L54.353-1.593h4.279Z" transform="translate(1629.791 4605.802)"/>
      <path id="Trazado_107959" data-name="Trazado 107959" d="M8.8,0H7.485L2.475-7.67V0H1.155V-9.953H2.475L7.5-2.249v-7.7H8.8Zm1.8-3.767a4.369,4.369,0,0,1,.427-1.955,3.187,3.187,0,0,1,1.189-1.34,3.238,3.238,0,0,1,1.74-.472A3.119,3.119,0,0,1,16.4-6.487a4.024,4.024,0,0,1,.933,2.782v.089a4.407,4.407,0,0,1-.414,1.938A3.14,3.14,0,0,1,15.74-.342a3.275,3.275,0,0,1-1.767.479A3.111,3.111,0,0,1,11.536-.909,4,4,0,0,1,10.6-3.678Zm1.271.15a3.164,3.164,0,0,0,.571,1.976A1.827,1.827,0,0,0,13.973-.9,1.816,1.816,0,0,0,15.5-1.651a3.46,3.46,0,0,0,.567-2.116,3.159,3.159,0,0,0-.578-1.972,1.836,1.836,0,0,0-1.535-.755,1.816,1.816,0,0,0-1.511.745A3.434,3.434,0,0,0,11.874-3.616Zm8.764-5.571V-7.4h1.381v.978H20.638v4.593a1.027,1.027,0,0,0,.185.667.777.777,0,0,0,.629.222,3.062,3.062,0,0,0,.6-.082V0a3.688,3.688,0,0,1-.971.136A1.575,1.575,0,0,1,19.8-.376a2.2,2.2,0,0,1-.431-1.456V-6.419H18.026V-7.4h1.347V-9.187ZM28.062,0a2.657,2.657,0,0,1-.178-.779,2.822,2.822,0,0,1-2.105.916,2.611,2.611,0,0,1-1.794-.619,2,2,0,0,1-.7-1.569,2.091,2.091,0,0,1,.878-1.794,4.142,4.142,0,0,1,2.471-.639h1.23v-.581a1.42,1.42,0,0,0-.4-1.056A1.593,1.593,0,0,0,26.3-6.515a1.844,1.844,0,0,0-1.135.342,1.007,1.007,0,0,0-.458.827H23.434a1.745,1.745,0,0,1,.393-1.07,2.683,2.683,0,0,1,1.066-.817,3.588,3.588,0,0,1,1.48-.3,2.924,2.924,0,0,1,2,.639,2.306,2.306,0,0,1,.752,1.76v3.4a4.162,4.162,0,0,0,.26,1.62V0Zm-2.1-.964a2.223,2.223,0,0,0,1.128-.308,1.861,1.861,0,0,0,.772-.8V-3.589h-.991q-2.324,0-2.324,1.36a1.151,1.151,0,0,0,.4.93A1.524,1.524,0,0,0,25.963-.964Zm5.175.3a.792.792,0,0,1,.195-.547.742.742,0,0,1,.584-.219.765.765,0,0,1,.591.219.776.776,0,0,1,.2.547.734.734,0,0,1-.2.526.778.778,0,0,1-.591.212.755.755,0,0,1-.584-.212A.748.748,0,0,1,31.138-.663Zm13.72-3.773A6.172,6.172,0,0,1,42.4-5.629a2.279,2.279,0,0,1-.769-1.747,2.408,2.408,0,0,1,.94-1.945,3.736,3.736,0,0,1,2.444-.769,4.078,4.078,0,0,1,1.829.4A3.007,3.007,0,0,1,48.087-8.6a2.8,2.8,0,0,1,.441,1.524H47.209A1.82,1.82,0,0,0,46.635-8.5a2.335,2.335,0,0,0-1.62-.518,2.391,2.391,0,0,0-1.514.428A1.428,1.428,0,0,0,42.957-7.4a1.285,1.285,0,0,0,.516,1.031,5.062,5.062,0,0,0,1.757.77,8.151,8.151,0,0,1,1.941.77,2.946,2.946,0,0,1,1.039.981,2.5,2.5,0,0,1,.338,1.319,2.326,2.326,0,0,1-.943,1.938,4.022,4.022,0,0,1-2.522.728,4.678,4.678,0,0,1-1.914-.393A3.221,3.221,0,0,1,41.8-1.333a2.627,2.627,0,0,1-.482-1.552h1.319A1.714,1.714,0,0,0,43.3-1.459a2.806,2.806,0,0,0,1.781.523,2.58,2.58,0,0,0,1.593-.424,1.377,1.377,0,0,0,.554-1.155,1.351,1.351,0,0,0-.513-1.131A5.911,5.911,0,0,0,44.857-4.437Zm11-.164H51.543v3.527h5.011V0H50.23V-9.953h6.255V-8.88H51.543v3.206h4.313ZM65.837,0H64.518L59.507-7.67V0H58.188V-9.953h1.319l5.024,7.7v-7.7h1.306Zm7.827-2.6h-4.17L68.558,0H67.2L71-9.953h1.148L75.961,0H74.614ZM69.891-3.678h3.384l-1.7-4.655Zm10.63-.362a10.569,10.569,0,0,1,.414-2.967,8.618,8.618,0,0,1,1.234-2.584,5.249,5.249,0,0,1,1.7-1.641l.26.834A5.444,5.444,0,0,0,82.493-8.06a10.135,10.135,0,0,0-.7,3.521l-.007.581a10.188,10.188,0,0,0,.964,4.58A5.47,5.47,0,0,0,84.13,2.44l-.26.772a5.418,5.418,0,0,1-1.736-1.7A9.5,9.5,0,0,1,80.521-4.04ZM91.745,0H85.224V-.909l3.445-3.828a8.185,8.185,0,0,0,1.056-1.412,2.356,2.356,0,0,0,.291-1.125,1.786,1.786,0,0,0-.472-1.278,1.649,1.649,0,0,0-1.258-.5,1.953,1.953,0,0,0-1.466.537A2.05,2.05,0,0,0,86.3-7.021H85.032a2.936,2.936,0,0,1,.885-2.222,3.282,3.282,0,0,1,2.369-.848,3.153,3.153,0,0,1,2.194.728,2.483,2.483,0,0,1,.807,1.938q0,1.47-1.873,3.5L86.748-1.032h5Zm7.581-4.245a5.784,5.784,0,0,1-.759,3.3A2.7,2.7,0,0,1,96.2.137,2.718,2.718,0,0,1,93.837-.919a5.49,5.49,0,0,1-.793-3.155V-5.763A5.655,5.655,0,0,1,93.8-9.023a2.719,2.719,0,0,1,2.379-1.066,2.744,2.744,0,0,1,2.365,1.029,5.458,5.458,0,0,1,.779,3.175ZM98.062-5.975a4.634,4.634,0,0,0-.451-2.341,1.553,1.553,0,0,0-1.429-.735,1.532,1.532,0,0,0-1.415.731,4.525,4.525,0,0,0-.458,2.249v2.023a4.708,4.708,0,0,0,.468,2.382A1.55,1.55,0,0,0,96.2-.9a1.529,1.529,0,0,0,1.391-.725A4.538,4.538,0,0,0,98.062-3.9ZM107.468,0h-6.521V-.909l3.445-3.828a8.185,8.185,0,0,0,1.056-1.412,2.356,2.356,0,0,0,.291-1.125,1.786,1.786,0,0,0-.472-1.278,1.649,1.649,0,0,0-1.258-.5,1.953,1.953,0,0,0-1.466.537,2.05,2.05,0,0,0-.523,1.494h-1.265a2.936,2.936,0,0,1,.885-2.222,3.282,3.282,0,0,1,2.369-.848,3.153,3.153,0,0,1,2.194.728,2.483,2.483,0,0,1,.807,1.938q0,1.47-1.873,3.5l-2.666,2.892h5Zm5.5,0h-1.271V-8.429l-2.55.937V-8.641L112.766-10h.2Zm6.754-3.972a10.574,10.574,0,0,1-.4,2.922,8.641,8.641,0,0,1-1.224,2.581,5.361,5.361,0,0,1-1.726,1.682L116.1,2.44a5.5,5.5,0,0,0,1.692-2.505,10.839,10.839,0,0,0,.653-3.77v-.219a11.253,11.253,0,0,0-.3-2.669,9.009,9.009,0,0,0-.837-2.211,5.108,5.108,0,0,0-1.207-1.524l.267-.772a5.34,5.34,0,0,1,1.719,1.668,8.66,8.66,0,0,1,1.224,2.577A10.818,10.818,0,0,1,119.718-3.972Z" transform="translate(1629.791 4622.802)"/>
      <path id="Trazado_106475" data-name="Trazado 106475" d="M1815.619,4211.318" fill="#fffdf4"/>
      <path id="Trazado_106476" data-name="Trazado 106476" d="M1768.4,4326.165s-1.134,21.26,15.591,25.512a129.155,129.155,0,0,0,30.9,3.968s-16.173-20.126-23.252-22.11S1768.4,4326.165,1768.4,4326.165Z" fill="#fcb1b1"/>
      <path id="Trazado_106477" data-name="Trazado 106477" d="M1814.885,4355.645s.189-11.433-13.984-21.449-43.247-40.441-40.615-55.748-2.471-15.118-5.117-10.582-19.654,48.944-19.654,48.944-.945,10.583,22.677,15.119S1799.389,4338.732,1814.885,4355.645Z" fill="#ff9696"/>
      <path id="Trazado_106478" data-name="Trazado 106478" d="M1863.92,4326.165s1.134,21.26-15.591,25.512a129.155,129.155,0,0,1-30.9,3.968s16.173-20.126,23.252-22.11S1863.92,4326.165,1863.92,4326.165Z" fill="#fcb1b1"/>
      <path id="Trazado_106479" data-name="Trazado 106479" d="M1817.432,4355.645s-.189-11.433,13.984-21.449,43.246-40.441,40.615-55.748,2.471-15.118,5.117-10.582,19.654,48.944,19.654,48.944.944,10.583-22.678,15.119S1832.928,4338.732,1817.432,4355.645Z" fill="#ff9696"/>
      <path id="Trazado_106480" data-name="Trazado 106480" d="M1735.515,4316.81s36.851-73.889,80.882-71.622,80.405,71.622,80.405,71.622,7.081-149.48-79.37-150.614S1735.515,4316.81,1735.515,4316.81Z" fill="#fcb1b1"/>
      <line id="Línea_378" data-name="Línea 378" y2="57.567" transform="translate(1815.619 4170.877)" fill="none" stroke="#e07575" stroke-linecap="round" stroke-linejoin="round" stroke-width="2" stroke-dasharray="5"/>
      <path id="Trazado_106481" data-name="Trazado 106481" d="M1971.871,4340.031s41.953,19.992,90.331,0c0,0,27.968-38.83,30.614-41.521s6.425-135.714-74.079-132.254-80.79,96.115-79.513,126.487c0,0,17.4,24.6,19.163,26.912S1971.871,4340.031,1971.871,4340.031Z" fill="#fcb1b1"/>
      <line id="Línea_379" data-name="Línea 379" y2="147.402" transform="translate(2016.412 4176.854)" fill="none" stroke="#e07575" stroke-linecap="round" stroke-linejoin="round" stroke-width="2" stroke-dasharray="5"/>
    </g>
  </g>
</svg>
