<svg xmlns="http://www.w3.org/2000/svg" xmlns:xlink="http://www.w3.org/1999/xlink" width="83.028" height="83.028" viewBox="0 0 83.028 83.028">
  <defs>
    <clipPath id="clip-path">
      <circle id="Elipse_4166" data-name="Elipse 4166" cx="41.514" cy="41.514" r="41.514" transform="translate(4116.546 -4010.457)" fill="none"/>
    </clipPath>
  </defs>
  <g id="Grupo_56071" data-name="Grupo 56071" transform="translate(-4116.546 4010.457)">
    <circle id="Elipse_4165" data-name="Elipse 4165" cx="41.514" cy="41.514" r="41.514" transform="translate(4116.546 -4010.457)" fill="#8c757e"/>
    <g id="Grupo_56070" data-name="Grupo 56070">
      <g id="Grupo_56069" data-name="Grupo 56069" clip-path="url(#clip-path)">
        <g id="Grupo_56068" data-name="Grupo 56068">
          <path id="Trazado_106670" data-name="Trazado 106670" d="M4192.56-3966.244c-4.173,1.284-5.421.394-5.421.394-9.471-6.742-20.905,2.8-20.905,2.8-11.879-8.668-22.189-1.592-22.189-1.592.963-1.445,2.6-8.348,2.6-8.348a57.626,57.626,0,0,1,4.655-16.373c.642-3.692,4.816-3.211,4.816-3.211a8.781,8.781,0,0,0,4.174,1.606c3.852,1.123,4.655,0,4.655,0,.642,2.408,2.087,1.444,2.087,1.444,2.889-1.444.8-3.852.8-3.852-1.124-1.284.642-1.927.642-1.927,1.606-.642,1.124-1.6,1.124-1.6l-3.853-8.668c-3.852-.8-12.521,2.889-12.521,2.889-7.384,1.606-9.273,10.274-9.273,10.274s-17.868,27.45-15.139,35.8c2.728,8.187,11.089,8.311,11.089,8.311a46.373,46.373,0,0,0,11.076,3.531,61.951,61.951,0,0,0,20.547-2.531c-.16,6.581,4.335,12.2,6.743,14.768C4182.447-3935.584,4195.931-3946.981,4192.56-3966.244Z" fill="#f4d0b8"/>
          <path id="Trazado_106671" data-name="Trazado 106671" d="M4201.55-3968.01c-3.692-.161-8.669,1.766-8.669,1.766h-.321c3.371,19.1-10.113,30.66-14.447,33.71a9.755,9.755,0,0,0,1.445,1.445C4203.958-3943.931,4201.55-3968.01,4201.55-3968.01Z" fill="#ff9696"/>
          <g id="Grupo_56066" data-name="Grupo 56066">
            <path id="Trazado_106672" data-name="Trazado 106672" d="M4168.481-3963.836a4.419,4.419,0,0,1,1.124.642,16.31,16.31,0,0,1,2.569,2.408,19.5,19.5,0,0,1,2.247,4.494c.642,1.766.963,3.532,1.6,5.137a20.5,20.5,0,0,0,5.137,8.187,10.516,10.516,0,0,0,2.568,1.926,9.662,9.662,0,0,0,1.124.482,7.263,7.263,0,0,1-1.284-.161,6.862,6.862,0,0,1-3.21-1.445,14.348,14.348,0,0,1-3.692-3.371,18.7,18.7,0,0,1-2.729-4.976,38.072,38.072,0,0,1-1.284-5.458,27.447,27.447,0,0,0-1.445-4.334,7.971,7.971,0,0,0-1.766-2.729A2.264,2.264,0,0,0,4168.481-3963.836Z" fill="#f7c39f"/>
            <path id="Trazado_106673" data-name="Trazado 106673" d="M4146.169-3954.526s1.444.321,3.692.642a40.623,40.623,0,0,0,7.865.482,9.129,9.129,0,0,0,2.087-.161c.642-.16,1.445-.16,1.927-.321.642-.16,1.284-.321,1.765-.481a4.8,4.8,0,0,0,1.606-.643,9.481,9.481,0,0,1,1.284-.642c.321-.16.642-.481.963-.642a4.507,4.507,0,0,1,.963-.481,1.491,1.491,0,0,1-.482.963,12.72,12.72,0,0,1-2.086,1.926,14.163,14.163,0,0,1-1.606.963,9.882,9.882,0,0,1-1.926.8,20.26,20.26,0,0,1-4.5.8,20.465,20.465,0,0,1-4.5-.321,11.143,11.143,0,0,1-3.692-1.123A15.257,15.257,0,0,1,4146.169-3954.526Z" fill="#f7c39f"/>
            <path id="Trazado_106674" data-name="Trazado 106674" d="M4140.711-3963.194a8.534,8.534,0,0,0-.482-.8,8.474,8.474,0,0,1-1.124-2.408,12.651,12.651,0,0,1-.642-3.692,19.938,19.938,0,0,1,.482-4.334,29.841,29.841,0,0,1,1.6-4.013,25.07,25.07,0,0,1,2.087-3.05,14.372,14.372,0,0,1,2.729-2.408,8.378,8.378,0,0,1-.482.8c-.321.482-.8,1.285-1.284,2.087a30.948,30.948,0,0,0-2.729,6.9,32.2,32.2,0,0,0-.642,3.853,11.756,11.756,0,0,0,0,3.371c.161.963.161,1.926.321,2.408A4.429,4.429,0,0,0,4140.711-3963.194Z" fill="#f7c39f"/>
          </g>
          <path id="Trazado_106675" data-name="Trazado 106675" d="M4179.4-3931.089l.8,2.569h21.35v-39.489l-6.582,15.731-1.926,7.063-4.334,7.063Z" fill="#ff9696"/>
          <g id="Grupo_56067" data-name="Grupo 56067">
            <path id="Trazado_106676" data-name="Trazado 106676" d="M4173.7-3948.747a54.1,54.1,0,0,1-19.148,2.532s-8.219-1.012-13.155-3.58c0,0-8.537.085-11.229-8.263-1.048-3.21,3.889-15.571,3.889-15.571-3.59,6.742-6.433,13.645-5.385,17.177,2.543,8.186,11.229,8.262,11.229,8.262,4.936,2.568,13.155,3.58,13.155,3.58a54.1,54.1,0,0,0,19.148-2.532c-.149,6.582,4.04,12.2,6.284,14.768a38.29,38.29,0,0,0,5.086-4.815,38.047,38.047,0,0,1-3.59,3.21C4177.737-3936.547,4173.548-3942.166,4173.7-3948.747Z" fill="#231f20" opacity="0.1" style="isolation: isolate"/>
            <path id="Trazado_106677" data-name="Trazado 106677" d="M4192.56-3966.244c-4.173,1.284-5.421.394-5.421.394-9.471-6.742-20.905,2.8-20.905,2.8-11.879-8.668-21.189-1.592-21.189-1.592.963-1.445,1.6-8.348,1.6-8.348a57.626,57.626,0,0,1,4.655-16.373,2.322,2.322,0,0,1,.321-1.124,3.619,3.619,0,0,0-1.926,2.729,64.311,64.311,0,0,0-4.655,16.374s-.643,6.9-1.606,8.347c0,0,10.311-7.076,22.19,1.592,0,0,11.594-10.545,20.905-3.8,0,0,.247,1.728,4.421.6,2.408,13.484-3.692,23.276-8.989,28.894C4187.584-3940.881,4195.289-3951.155,4192.56-3966.244Z" fill="#231f20" opacity="0.1" style="isolation: isolate"/>
          </g>
        </g>
      </g>
    </g>
  </g>
</svg>
