<svg xmlns="http://www.w3.org/2000/svg" xmlns:xlink="http://www.w3.org/1999/xlink" width="83.028" height="83.028" viewBox="0 0 83.028 83.028">
  <defs>
    <clipPath id="clip-path">
      <circle id="Elipse_4162" data-name="Elipse 4162" cx="41.514" cy="41.514" r="41.514" transform="translate(3497.775 -4010.457)" fill="none"/>
    </clipPath>
  </defs>
  <g id="Grupo_56058" data-name="Grupo 56058" transform="translate(-284 -4086.972)">
    <g id="Grupo_56053" data-name="Grupo 56053" transform="translate(-3213.775 8097.429)">
      <circle id="Elipse_4161" data-name="Elipse 4161" cx="41.514" cy="41.514" r="41.514" transform="translate(3497.775 -4010.457)" fill="#8c757e"/>
      <g id="Grupo_56057" data-name="Grupo 56057">
        <g id="Grupo_56056" data-name="Grupo 56056">
          <g id="Grupo_56055" data-name="Grupo 56055" clip-path="url(#clip-path)">
            <g id="Grupo_56054" data-name="Grupo 56054">
              <path id="Trazado_106656" data-name="Trazado 106656" d="M3575.26-3963.85c-4.174,1.284-5.892,0-5.892,0-4.64-1.283-8.344-3.2-16.263-1.343-12.513,2.929-31.2,3.185-31.2,3.185.964-1.445,2.974-10.979,2.974-10.979.963-8.668,5.655-17.373,5.655-17.373a7.99,7.99,0,0,1,5.816-2.211,8.781,8.781,0,0,0,4.174,1.606c3.852,1.123,4.655,0,4.655,0,.642,2.408,2.087,1.444,2.087,1.444,2.889-1.444.8-3.852.8-3.852-1.123-1.284.643-1.927.643-1.927,1.6-.642,1.123-1.6,1.123-1.6l-3.852-8.668c-3.853-.8-12.521,2.889-12.521,2.889-7.385,1.606-9.274,10.274-9.274,10.274s-14.868,27.45-12.139,35.8c-1.969,5.865,11.089,6.311,11.089,6.311,25.627-.084,33.131.7,33.131.7,1.771,2.622.921-1.984,3.235,17.072C3563.676-3935.584,3578.631-3944.587,3575.26-3963.85Z" fill="#f4d0b8"/>
              <path id="Trazado_106657" data-name="Trazado 106657" d="M3582.779-3968.01c-3.692-.161.065,4.609.065,4.609-.161,0-13.453-.731-13.613-.731,3.371,19.1-5.554,28.548-9.889,31.6a9.748,9.748,0,0,0,1.445,1.445C3585.187-3943.931,3582.779-3968.01,3582.779-3968.01Z" fill="#ff9696"/>
              <g id="Grupo_56053-2" data-name="Grupo 56053" opacity="0.3">
                <path id="Trazado_106658" data-name="Trazado 106658" d="M3553.935-3962.022a2.491,2.491,0,0,1,.745.364,11.354,11.354,0,0,1,1.844,1.552,17.589,17.589,0,0,1,1.97,3.184c.635,1.278,1.085,2.593,1.7,3.748a17.266,17.266,0,0,0,4.191,5.682,6.666,6.666,0,0,0,1.772,1.184,4.95,4.95,0,0,0,.721.241,3.307,3.307,0,0,1-.766.022,3.644,3.644,0,0,1-2.07-.742,9.921,9.921,0,0,1-2.637-2.162,16.489,16.489,0,0,1-2.321-3.5,37.963,37.963,0,0,1-1.558-4.03,26.252,26.252,0,0,0-1.483-3.152,6.643,6.643,0,0,0-1.428-1.888A1.45,1.45,0,0,0,3553.935-3962.022Z" fill="#f7c39f"/>
                <path id="Trazado_106659" data-name="Trazado 106659" d="M3527.4-3955.65s1.444.161,3.692.321,5.137.321,7.866.241a18.169,18.169,0,0,0,2.086-.08c.643-.08,1.445-.08,1.927-.161.642-.08,1.284-.16,1.765-.24a8.184,8.184,0,0,0,1.606-.321c.481-.161.963-.241,1.284-.322s.642-.24.963-.321a7.23,7.23,0,0,1,.963-.24s0,.24-.481.481a13.358,13.358,0,0,1-2.087.963c-.482.161-.963.321-1.606.482a16.47,16.47,0,0,1-1.926.4,38.9,38.9,0,0,1-4.495.4,40.665,40.665,0,0,1-4.494-.16,19.91,19.91,0,0,1-3.692-.562A22.777,22.777,0,0,1,3527.4-3955.65Z" fill="#f7c39f"/>
                <path id="Trazado_106660" data-name="Trazado 106660" d="M3520.009-3963.341s-.068-.33-.22-.831a11.081,11.081,0,0,1-.454-2.472,19.088,19.088,0,0,1-.006-3.715,30.822,30.822,0,0,1,.78-4.275,40.918,40.918,0,0,1,1.462-3.876,28.436,28.436,0,0,1,1.664-2.886,11.914,11.914,0,0,1,2-2.2s-.137.307-.4.764-.652,1.22-1.046,1.984a42.309,42.309,0,0,0-2.494,6.67c-.345,1.254-.588,2.52-.83,3.785a18.324,18.324,0,0,0-.369,3.351c0,.968-.107,1.926-.058,2.416A6.772,6.772,0,0,0,3520.009-3963.341Z" fill="#f7c39f"/>
              </g>
              <path id="Trazado_106661" data-name="Trazado 106661" d="M3560.626-3931.089l.8,2.569h21.35v-39.489l-6.582,15.731-1.926,7.063-4.334,7.063Z" fill="#ff9696"/>
            </g>
          </g>
        </g>
      </g>
    </g>
  </g>
</svg>
