<svg xmlns="http://www.w3.org/2000/svg" width="604" height="501" viewBox="0 0 604 501">
  <g id="Grupo_56003" data-name="Grupo 56003" transform="translate(-1609.424 -6194.563)">
    <path id="Trazado_106531" data-name="Trazado 106531" d="M1789.3,6464.4"/>
    <g id="Rectángulo_5675" data-name="Rectángulo 5675">
      <rect id="Rectángulo_5694" data-name="Rectángulo 5694" width="604" height="500" transform="translate(1609.424 6194.563)" fill="#fffdf4"/>
      <rect id="Rectángulo_5695" data-name="Rectángulo 5695" width="603" height="499" transform="translate(1609.924 6195.063)" fill="#fffdf4"/>
    </g>
    <g id="Grupo_56001" data-name="Grupo 56001">
      <path id="Trazado_106532" data-name="Trazado 106532" d="M1849.931,6694.063h30.927l24.52-68.64s5.953-26.078,5.953-34.724,1.7-24.236,1.7-24.236l12.9-34.725s9.071,38.977,10.772,51.591,3.685,40.394,0,58.677-10.488,52.057-10.488,52.057h113.1l65.48-.608-10.063-59.528s-3.071-41.622-1.37-46.866,13.228-61.606,13.228-61.606l17.056,51.5s8.787,57.969,10.488,62.646,20.267,54.466,20.267,54.466h34.158l-18.567-103.08-5.244-21.827-2.126-14.032-10.63-82.63s-7.937-45.5-18.142-54.708-33.59-9.071-33.59-9.071l-50.173-18-2.835-46.205-55.7,2.41-7.228-3.449s1.134,43.653-1.7,47.055-46.677,14.929-46.677,14.929-27.4-1.323-40.252,20.031-19.276,96.756-19.276,96.756l-4.346,46.111s-17.2,53.291-17.2,58.2-4.943,67.506-4.943,67.506" fill="#e7e7e8"/>
      <g id="Grupo_56000" data-name="Grupo 56000">
        <path id="Trazado_106533" data-name="Trazado 106533" d="M1983.058,6390.715s18.178,7.321,34.433,7.238a80,80,0,0,0,32.6-7.238l-2.835-46.205-48.189-8.409-14.74,7.369S1983.218,6378.3,1983.058,6390.715Z" fill="#d3d3d3"/>
        <path id="Trazado_106534" data-name="Trazado 106534" d="M1911.331,6590.7c0-8.646,1.7-24.236,1.7-24.236l12.9-34.724c-8.693-28.3-2.268-68.457,4.913-79.04s4.914-30.236,4.914-30.236c1.293-3.879-.157-10.786-2.049-17-6.782.212-27.377,2.347-38.014,20.025-12.851,21.354-19.276,96.755-19.276,96.755l-4.346,46.111s-17.2,53.291-17.2,58.2-4.943,67.506-4.943,67.506h30.927l24.52-68.639S1911.331,6599.344,1911.331,6590.7Z" fill="#d3d3d3"/>
        <path id="Trazado_106535" data-name="Trazado 106535" d="M2169.992,6590.983l-5.244-21.827-2.126-14.032-10.63-82.63s-7.937-45.5-18.142-54.708-33.59-9.071-33.59-9.071l-.645-.232c-2.649,7.623-4.659,15.04-4.659,15.04s-2.267,19.654,4.914,30.237c6.436,9.485,12.266,42.73,7.146,69.9l.05,3.232,16.58,50.059s8.787,57.969,10.488,62.645,20.268,54.467,20.268,54.467h34.157Z" fill="#d3d3d3"/>
      </g>
      <line id="Línea_389" data-name="Línea 389" y2="272.1" transform="translate(2016.412 6422.463)" fill="none" stroke="#a8a8a8" stroke-linecap="round" stroke-linejoin="round" stroke-width="2" stroke-dasharray="5"/>
      <path id="Trazado_106536" data-name="Trazado 106536" d="M1921.961,6497.3s151.37,8.5,186.519,0" fill="none" stroke="#a8a8a8" stroke-linecap="round" stroke-linejoin="round" stroke-width="2" stroke-dasharray="5"/>
      <path id="Trazado_106537" data-name="Trazado 106537" d="M2091.472,6614.085s-103.748,6.8-149.669,0" fill="none" stroke="#a8a8a8" stroke-linecap="round" stroke-linejoin="round" stroke-width="2" stroke-dasharray="5"/>
      <path id="Trazado_106538" data-name="Trazado 106538" d="M1980.543,6362.368" fill="none" stroke="#e7e7e8" stroke-linecap="round" stroke-linejoin="round" stroke-width="2"/>
      <circle id="Elipse_4151" data-name="Elipse 4151" cx="2.344" cy="2.344" r="2.344" transform="translate(2014.557 6407.796)" fill="#e7e7e8"/>
      <path id="Trazado_106539" data-name="Trazado 106539" d="M1984.642,6351.766l.009.017c4.126-2.993,24.7-15.628,61.959-2.313,9.319-12.667,13.023-27.274,16.279-43.222,4.1-20.085,4.811-41.373-4.586-60.156a43.794,43.794,0,0,0-16.808-18.515c-7.185-4.15-15.566-5.738-23.852-6.3-.221-.015-.44-.03-.66-.043-20.806-1.287-39.362,7.148-45.782,28.208-10.84,35.554,3.035,79.78,3.035,79.78Z" fill="#e7e7e8"/>
      <path id="Trazado_106540" data-name="Trazado 106540" d="M2100.26,6408.715a285,285,0,0,1,8.22,77.988c-2.47,61.339-16.555,136.381-13.863,137.953,0,0-92.532,2.835-131.838,0s-21.884-125.469-21.884-125.469l-4.646-63.682-2.542-30.043,48.915-14.936s36.85,16.627,67.465.189Z" fill="#fcb1b1"/>
    </g>
    <path id="Trazado_106541" data-name="Trazado 106541" d="M1649.238,6694.063h30.927l24.52-68.64s5.953-26.078,5.953-34.724,1.7-24.236,1.7-24.236l12.9-34.725s9.071,38.977,10.772,51.591,3.685,40.394,0,58.677-10.488,52.057-10.488,52.057h113.1l65.48-.608-10.063-59.528s-3.071-41.622-1.37-46.866,13.229-61.606,13.229-61.606l17.055,51.5s8.787,57.969,10.488,62.646,20.268,54.466,20.268,54.466h34.157l-18.567-103.08-5.244-21.827-2.126-14.032-10.63-82.63s-7.937-45.5-18.142-54.708-33.59-9.071-33.59-9.071l-50.173-18-2.835-46.205-55.7,2.41-7.228-3.449s1.134,43.653-1.7,47.055-46.677,14.929-46.677,14.929-27.4-1.323-40.252,20.031-19.276,96.756-19.276,96.756l-4.346,46.111s-17.2,53.291-17.2,58.2-4.943,67.506-4.943,67.506" fill="#e7e7e8"/>
    <g id="Grupo_56002" data-name="Grupo 56002">
      <path id="Trazado_106542" data-name="Trazado 106542" d="M1781.929,6390.526s26.952,9.591,34.936,9.789c9.016.222,33.066-8.11,33.066-8.11l-3.372-47.7-55.7,2.41-7.228-3.45S1782.089,6378.107,1781.929,6390.526Z" fill="#d3d3d3"/>
      <path id="Trazado_106543" data-name="Trazado 106543" d="M1710.638,6590.7c0-8.646,1.7-24.236,1.7-24.236l12.9-34.724c-8.693-28.3-2.268-68.457,4.914-79.04s4.913-30.236,4.913-30.236c1.293-3.879-.157-10.786-2.049-17-6.782.212-27.376,2.347-38.014,20.025-12.85,21.354-19.276,96.755-19.276,96.755l-4.346,46.111s-17.2,53.291-17.2,58.2-4.943,67.506-4.943,67.506h30.927l24.52-68.639S1710.638,6599.344,1710.638,6590.7Z" fill="#d3d3d3"/>
      <path id="Trazado_106544" data-name="Trazado 106544" d="M1969.3,6590.983l-5.244-21.827-2.126-14.032-10.63-82.63s-7.937-45.5-18.142-54.708-33.59-9.071-33.59-9.071l-.645-.232c-2.649,7.623-4.658,15.04-4.658,15.04s-2.268,19.654,4.913,30.237c6.436,9.485,12.266,42.73,7.146,69.9l.05,3.232,16.58,50.059s8.787,57.969,10.488,62.645,20.268,54.467,20.268,54.467h34.157Z" fill="#d3d3d3"/>
    </g>
    <path id="Trazado_106545" data-name="Trazado 106545" d="M1816.95,6221.274q-.33-.023-.66-.043c-20.806-1.287-39.362,7.148-45.782,28.208-10.84,35.554,3.035,79.78,3.035,79.78l10.406,22.547c5.912,12.809,24.908,20.973,37.968,17,6.9-2.1,12.672-6.843,17.748-11.962,14.11-14.23,18.627-31.433,22.531-50.555,4.1-20.085,4.811-41.373-4.586-60.156a43.8,43.8,0,0,0-16.808-18.515C1833.617,6223.428,1825.236,6221.839,1816.95,6221.274Z" fill="#e7e7e8"/>
    <line id="Línea_390" data-name="Línea 390" y2="135.93" transform="translate(1815.72 6227)" fill="none" stroke="#a8a8a8" stroke-linecap="round" stroke-linejoin="round" stroke-width="2" stroke-dasharray="5"/>
    <line id="Línea_391" data-name="Línea 391" y2="272.1" transform="translate(1815.72 6422.463)" fill="none" stroke="#a8a8a8" stroke-linecap="round" stroke-linejoin="round" stroke-width="2" stroke-dasharray="5"/>
    <path id="Trazado_106546" data-name="Trazado 106546" d="M1721.268,6497.3s151.37,8.5,186.519,0" fill="none" stroke="#a8a8a8" stroke-linecap="round" stroke-linejoin="round" stroke-width="2" stroke-dasharray="5"/>
    <path id="Trazado_106547" data-name="Trazado 106547" d="M1890.779,6614.085s-103.748,6.8-149.669,0" fill="none" stroke="#a8a8a8" stroke-linecap="round" stroke-linejoin="round" stroke-width="2" stroke-dasharray="5"/>
    <path id="Trazado_106548" data-name="Trazado 106548" d="M1779.85,6362.368" fill="none" stroke="#e7e7e8" stroke-linecap="round" stroke-linejoin="round" stroke-width="2"/>
    <circle id="Elipse_4152" data-name="Elipse 4152" cx="2.344" cy="2.344" r="2.344" transform="translate(1813.865 6407.796)" fill="#e7e7e8"/>
    <path id="Trazado_106549" data-name="Trazado 106549" d="M1768.178,6295.287s51.975,20.863,95.084,0" fill="none" stroke="#a8a8a8" stroke-linecap="round" stroke-linejoin="round" stroke-width="1.933" stroke-dasharray="4.832"/>
    <rect id="Rectángulo_5433" data-name="Rectángulo 5433" width="206.784" height="58.588" transform="translate(1609.424 6635.975)" fill="#d9d9d9"/>
    <path id="Trazado_107967" data-name="Trazado 107967" d="M6.877-4.067H2.939V0H.889V-9.953h6.48v1.661H2.939v2.57H6.877ZM10.514,0H8.531V-7.4h1.982Zm-2.1-9.311a.973.973,0,0,1,.3-.731,1.117,1.117,0,0,1,.81-.287,1.12,1.12,0,0,1,.807.287.967.967,0,0,1,.3.731.97.97,0,0,1-.3.738,1.122,1.122,0,0,1-.8.287,1.122,1.122,0,0,1-.8-.287A.97.97,0,0,1,8.415-9.311Zm3.438,5.558a4.335,4.335,0,0,1,.81-2.741,2.625,2.625,0,0,1,2.184-1.039,2.3,2.3,0,0,1,1.894.834l.082-.7h1.791v7.15a3.161,3.161,0,0,1-.441,1.688,2.832,2.832,0,0,1-1.241,1.094,4.362,4.362,0,0,1-1.873.376,4.056,4.056,0,0,1-1.586-.325A2.815,2.815,0,0,1,12.3,1.75l.875-1.2a2.314,2.314,0,0,0,1.791.827,1.694,1.694,0,0,0,1.224-.42,1.577,1.577,0,0,0,.438-1.193v-.4a2.285,2.285,0,0,1-1.8.772A2.618,2.618,0,0,1,12.677-.906a4.334,4.334,0,0,1-.824-2.765Zm1.976.147a2.7,2.7,0,0,0,.4,1.578,1.283,1.283,0,0,0,1.107.572,1.372,1.372,0,0,0,1.292-.678V-5.249a1.369,1.369,0,0,0-1.278-.678,1.291,1.291,0,0,0-1.118.582A3.042,3.042,0,0,0,13.829-3.606ZM24.562-.752a2.477,2.477,0,0,1-2.023.889,2.337,2.337,0,0,1-1.815-.684,2.918,2.918,0,0,1-.639-2V-7.4H22.06v4.784q0,1.157,1.053,1.157a1.426,1.426,0,0,0,1.381-.7V-7.4h1.982V0H24.616Zm7.561-4.792a5.367,5.367,0,0,0-.711-.055,1.447,1.447,0,0,0-1.47.759V0H27.966V-7.4h1.866l.055.882a1.831,1.831,0,0,1,1.647-1.019,2.07,2.07,0,0,1,.615.089ZM37.153,0a2.194,2.194,0,0,1-.2-.663,2.39,2.39,0,0,1-1.866.8,2.626,2.626,0,0,1-1.8-.629,2.023,2.023,0,0,1-.714-1.586,2.09,2.09,0,0,1,.872-1.8,4.3,4.3,0,0,1,2.519-.636h.909v-.424a1.219,1.219,0,0,0-.263-.82,1.035,1.035,0,0,0-.831-.308A1.177,1.177,0,0,0,35-5.831a.813.813,0,0,0-.284.656H32.737a1.984,1.984,0,0,1,.4-1.189,2.621,2.621,0,0,1,1.121-.858,4.086,4.086,0,0,1,1.627-.311,3.228,3.228,0,0,1,2.17.687,2.4,2.4,0,0,1,.8,1.931v3.206a3.536,3.536,0,0,0,.294,1.593V0ZM35.52-1.374a1.7,1.7,0,0,0,.807-.195,1.28,1.28,0,0,0,.547-.523V-3.363h-.738q-1.483,0-1.579,1.025l-.007.116a.791.791,0,0,0,.26.608A1.009,1.009,0,0,0,35.52-1.374ZM45.787-5.852H46.84a1.483,1.483,0,0,0,1.114-.376,1.378,1.378,0,0,0,.362-1,1.218,1.218,0,0,0-.359-.937A1.391,1.391,0,0,0,46.97-8.5a1.458,1.458,0,0,0-.95.311,1,1,0,0,0-.383.81H43.661a2.43,2.43,0,0,1,.42-1.4,2.8,2.8,0,0,1,1.176-.967,3.924,3.924,0,0,1,1.665-.349,3.722,3.722,0,0,1,2.475.755,2.577,2.577,0,0,1,.9,2.082A2.094,2.094,0,0,1,49.875-6a2.709,2.709,0,0,1-1.094.882,2.473,2.473,0,0,1,1.254.9,2.448,2.448,0,0,1,.414,1.422,2.62,2.62,0,0,1-.967,2.126,3.889,3.889,0,0,1-2.56.8,3.688,3.688,0,0,1-2.437-.786,2.567,2.567,0,0,1-.947-2.078h1.976a1.145,1.145,0,0,0,.42.916,1.549,1.549,0,0,0,1.036.355,1.556,1.556,0,0,0,1.1-.373,1.286,1.286,0,0,0,.4-.988q0-1.49-1.641-1.49H45.787Zm11.382-4.2v1.627h-.191a3.356,3.356,0,0,0-2.157.7,2.833,2.833,0,0,0-.981,1.88,2.691,2.691,0,0,1,2-.807,2.535,2.535,0,0,1,2.064.93,3.727,3.727,0,0,1,.766,2.447,3.666,3.666,0,0,1-.42,1.757A3.015,3.015,0,0,1,57.063-.3a3.456,3.456,0,0,1-1.74.438,3.227,3.227,0,0,1-2.54-1.094,4.246,4.246,0,0,1-.967-2.919v-.711a6.389,6.389,0,0,1,.612-2.861,4.486,4.486,0,0,1,1.757-1.921,5.148,5.148,0,0,1,2.656-.687Zm-1.928,4.99a1.578,1.578,0,0,0-.868.249,1.5,1.5,0,0,0-.574.658v.6a2.66,2.66,0,0,0,.39,1.545,1.259,1.259,0,0,0,1.094.556,1.245,1.245,0,0,0,1.029-.5,2.045,2.045,0,0,0,.393-1.3,2.041,2.041,0,0,0-.4-1.31A1.292,1.292,0,0,0,55.241-5.065Z" transform="translate(1629.791 6659.602)"/>
    <path id="Trazado_107966" data-name="Trazado 107966" d="M8.8,0H7.485L2.475-7.67V0H1.155V-9.953H2.475L7.5-2.249v-7.7H8.8Zm1.8-3.767a4.369,4.369,0,0,1,.427-1.955,3.187,3.187,0,0,1,1.189-1.34,3.238,3.238,0,0,1,1.74-.472A3.119,3.119,0,0,1,16.4-6.487a4.024,4.024,0,0,1,.933,2.782v.089a4.407,4.407,0,0,1-.414,1.938A3.14,3.14,0,0,1,15.74-.342a3.275,3.275,0,0,1-1.767.479A3.111,3.111,0,0,1,11.536-.909,4,4,0,0,1,10.6-3.678Zm1.271.15a3.164,3.164,0,0,0,.571,1.976A1.827,1.827,0,0,0,13.973-.9,1.816,1.816,0,0,0,15.5-1.651a3.46,3.46,0,0,0,.567-2.116,3.159,3.159,0,0,0-.578-1.972,1.836,1.836,0,0,0-1.535-.755,1.816,1.816,0,0,0-1.511.745A3.434,3.434,0,0,0,11.874-3.616Zm8.764-5.571V-7.4h1.381v.978H20.638v4.593a1.027,1.027,0,0,0,.185.667.777.777,0,0,0,.629.222,3.062,3.062,0,0,0,.6-.082V0a3.688,3.688,0,0,1-.971.136A1.575,1.575,0,0,1,19.8-.376a2.2,2.2,0,0,1-.431-1.456V-6.419H18.026V-7.4h1.347V-9.187ZM28.062,0a2.657,2.657,0,0,1-.178-.779,2.822,2.822,0,0,1-2.105.916,2.611,2.611,0,0,1-1.794-.619,2,2,0,0,1-.7-1.569,2.091,2.091,0,0,1,.878-1.794,4.142,4.142,0,0,1,2.471-.639h1.23v-.581a1.42,1.42,0,0,0-.4-1.056A1.593,1.593,0,0,0,26.3-6.515a1.844,1.844,0,0,0-1.135.342,1.007,1.007,0,0,0-.458.827H23.434a1.745,1.745,0,0,1,.393-1.07,2.683,2.683,0,0,1,1.066-.817,3.588,3.588,0,0,1,1.48-.3,2.924,2.924,0,0,1,2,.639,2.306,2.306,0,0,1,.752,1.76v3.4a4.162,4.162,0,0,0,.26,1.62V0Zm-2.1-.964a2.223,2.223,0,0,0,1.128-.308,1.861,1.861,0,0,0,.772-.8V-3.589h-.991q-2.324,0-2.324,1.36a1.151,1.151,0,0,0,.4.93A1.524,1.524,0,0,0,25.963-.964Zm5.175.3a.792.792,0,0,1,.195-.547.742.742,0,0,1,.584-.219.765.765,0,0,1,.591.219.776.776,0,0,1,.2.547.734.734,0,0,1-.2.526.778.778,0,0,1-.591.212.755.755,0,0,1-.584-.212A.748.748,0,0,1,31.138-.663Zm13.72-3.773A6.172,6.172,0,0,1,42.4-5.629a2.279,2.279,0,0,1-.769-1.747,2.408,2.408,0,0,1,.94-1.945,3.736,3.736,0,0,1,2.444-.769,4.078,4.078,0,0,1,1.829.4A3.007,3.007,0,0,1,48.087-8.6a2.8,2.8,0,0,1,.441,1.524H47.209A1.82,1.82,0,0,0,46.635-8.5a2.335,2.335,0,0,0-1.62-.518,2.391,2.391,0,0,0-1.514.428A1.428,1.428,0,0,0,42.957-7.4a1.285,1.285,0,0,0,.516,1.031,5.062,5.062,0,0,0,1.757.77,8.151,8.151,0,0,1,1.941.77,2.946,2.946,0,0,1,1.039.981,2.5,2.5,0,0,1,.338,1.319,2.326,2.326,0,0,1-.943,1.938,4.022,4.022,0,0,1-2.522.728,4.678,4.678,0,0,1-1.914-.393A3.221,3.221,0,0,1,41.8-1.333a2.627,2.627,0,0,1-.482-1.552h1.319A1.714,1.714,0,0,0,43.3-1.459a2.806,2.806,0,0,0,1.781.523,2.58,2.58,0,0,0,1.593-.424,1.377,1.377,0,0,0,.554-1.155,1.351,1.351,0,0,0-.513-1.131A5.911,5.911,0,0,0,44.857-4.437Zm11-.164H51.543v3.527h5.011V0H50.23V-9.953h6.255V-8.88H51.543v3.206h4.313ZM65.837,0H64.518L59.507-7.67V0H58.188V-9.953h1.319l5.024,7.7v-7.7h1.306Zm7.827-2.6h-4.17L68.558,0H67.2L71-9.953h1.148L75.961,0H74.614ZM69.891-3.678h3.384l-1.7-4.655Zm10.63-.362a10.569,10.569,0,0,1,.414-2.967,8.618,8.618,0,0,1,1.234-2.584,5.249,5.249,0,0,1,1.7-1.641l.26.834A5.444,5.444,0,0,0,82.493-8.06a10.135,10.135,0,0,0-.7,3.521l-.007.581a10.188,10.188,0,0,0,.964,4.58A5.47,5.47,0,0,0,84.13,2.44l-.26.772a5.418,5.418,0,0,1-1.736-1.7A9.5,9.5,0,0,1,80.521-4.04ZM91.745,0H85.224V-.909l3.445-3.828a8.185,8.185,0,0,0,1.056-1.412,2.356,2.356,0,0,0,.291-1.125,1.786,1.786,0,0,0-.472-1.278,1.649,1.649,0,0,0-1.258-.5,1.953,1.953,0,0,0-1.466.537A2.05,2.05,0,0,0,86.3-7.021H85.032a2.936,2.936,0,0,1,.885-2.222,3.282,3.282,0,0,1,2.369-.848,3.153,3.153,0,0,1,2.194.728,2.483,2.483,0,0,1,.807,1.938q0,1.47-1.873,3.5L86.748-1.032h5Zm7.581-4.245a5.784,5.784,0,0,1-.759,3.3A2.7,2.7,0,0,1,96.2.137,2.718,2.718,0,0,1,93.837-.919a5.49,5.49,0,0,1-.793-3.155V-5.763A5.655,5.655,0,0,1,93.8-9.023a2.719,2.719,0,0,1,2.379-1.066,2.744,2.744,0,0,1,2.365,1.029,5.458,5.458,0,0,1,.779,3.175ZM98.062-5.975a4.634,4.634,0,0,0-.451-2.341,1.553,1.553,0,0,0-1.429-.735,1.532,1.532,0,0,0-1.415.731,4.525,4.525,0,0,0-.458,2.249v2.023a4.708,4.708,0,0,0,.468,2.382A1.55,1.55,0,0,0,96.2-.9a1.529,1.529,0,0,0,1.391-.725A4.538,4.538,0,0,0,98.062-3.9ZM107.468,0h-6.521V-.909l3.445-3.828a8.185,8.185,0,0,0,1.056-1.412,2.356,2.356,0,0,0,.291-1.125,1.786,1.786,0,0,0-.472-1.278,1.649,1.649,0,0,0-1.258-.5,1.953,1.953,0,0,0-1.466.537,2.05,2.05,0,0,0-.523,1.494h-1.265a2.936,2.936,0,0,1,.885-2.222,3.282,3.282,0,0,1,2.369-.848,3.153,3.153,0,0,1,2.194.728,2.483,2.483,0,0,1,.807,1.938q0,1.47-1.873,3.5l-2.666,2.892h5Zm5.5,0h-1.271V-8.429l-2.55.937V-8.641L112.766-10h.2Zm6.754-3.972a10.574,10.574,0,0,1-.4,2.922,8.641,8.641,0,0,1-1.224,2.581,5.361,5.361,0,0,1-1.726,1.682L116.1,2.44a5.5,5.5,0,0,0,1.692-2.505,10.839,10.839,0,0,0,.653-3.77v-.219a11.253,11.253,0,0,0-.3-2.669,9.009,9.009,0,0,0-.837-2.211,5.108,5.108,0,0,0-1.207-1.524l.267-.772a5.34,5.34,0,0,1,1.719,1.668,8.66,8.66,0,0,1,1.224,2.577A10.818,10.818,0,0,1,119.718-3.972Z" transform="translate(1629.791 6676.602)"/>
    <path id="Trazado_106550" data-name="Trazado 106550" d="M1980.543,6370.672l-10.1,23.572s21.362,10.008,45.966,11.218,43.481-11.229,43.481-11.229l-9.807-21.727-68.315-1.834" fill="#ff9696"/>
    <path id="Trazado_106551" data-name="Trazado 106551" d="M1831.186,6518.767v104.377s-56.627,1.89-70.233,0a147.3,147.3,0,0,1-25.4-6.035s-19.7-110.42-18.257-117.922c2.66-13.877-4.483-62.183-4.483-91.391,0,0,51.881-13.6,53.552-13.88s7.64,14.567,7.64,14.567l21.527,55.919,9.922,25.325Z" fill="#fcb1b1"/>
    <path id="Trazado_106552" data-name="Trazado 106552" d="M1796.424,6518.767v104.377s56.627,1.89,70.233,0a147.333,147.333,0,0,0,25.4-6.035s19.7-110.42,18.257-117.922c-2.66-13.877,4.483-62.183,4.483-91.391,0,0-51.881-13.6-53.552-13.88s-7.641,14.567-7.641,14.567l-21.527,55.919-9.921,25.325Z" fill="#fcb1b1"/>
    <path id="Trazado_106553" data-name="Trazado 106553" d="M1871.044,6393.62a148.968,148.968,0,0,0-21.945-22.948s-2.574,67.387-36.63,125.308l7.129,7.356c15.127-11.431,36.006-30.507,55.193-59.386l-11.579-9.227,16.646-2.533S1880.453,6406.286,1871.044,6393.62Z" fill="#ff9696"/>
    <path id="Trazado_106554" data-name="Trazado 106554" d="M1782.536,6370.2s.883,85.869,48.65,147.025c0,0-41.253-19.9-76.716-73.279l11.58-9.227-16.646-2.534s-.6-25.9,8.813-38.569S1782.536,6370.2,1782.536,6370.2Z" fill="#ff9696"/>
    <line id="Línea_392" data-name="Línea 392" x1="18.959" y2="11.492" transform="translate(1767.316 6422.463)" fill="none" stroke="#e07575" stroke-linecap="round" stroke-linejoin="round" stroke-width="2"/>
    <line id="Línea_393" data-name="Línea 393" x2="16.384" y2="10.24" transform="translate(1843.545 6422.463)" fill="none" stroke="#e07575" stroke-linecap="round" stroke-linejoin="round" stroke-width="2"/>
    <line id="Línea_394" data-name="Línea 394" x2="0.916" y2="101.07" transform="translate(1831.186 6518.767)" fill="none" stroke="#ff9696" stroke-linecap="round" stroke-linejoin="round" stroke-width="2"/>
    <line id="Línea_395" data-name="Línea 395" y2="71.88" transform="translate(1758.874 6549.763)" fill="none" stroke="#ff9696" stroke-linecap="round" stroke-linejoin="round" stroke-width="2" opacity="0.48"/>
    <line id="Línea_396" data-name="Línea 396" y2="71.88" transform="translate(1876.417 6549.763)" fill="none" stroke="#ff9696" stroke-linecap="round" stroke-linejoin="round" stroke-width="2" opacity="0.48"/>
    <circle id="Elipse_4153" data-name="Elipse 4153" cx="4.763" cy="4.763" r="4.763" transform="translate(1813.789 6516.145)" fill="#a8a8a8"/>
  </g>
</svg>
