<svg xmlns="http://www.w3.org/2000/svg" width="266.005" height="209.046" viewBox="0 0 266.005 209.046">
  <g id="Grupo_56026" data-name="Grupo 56026" transform="translate(0)">
    <path id="Trazado_106636" data-name="Trazado 106636" d="M-6523.657,6443.863l-5.124-6.15s-14.813-1.676-22.081,4.473-20.683,25.713-21.988,27.764-26.459,25.9-26.459,25.9l-2.235,1.3s-33.727-12.485-37.454-14.348-24.783-14.72-24.783-14.72-10.342-8.2-11.46-8.758a20.067,20.067,0,0,0-3.913-1.025s-7.547-1.645-7.827-1.615-4.471-1.367-5.4,2.173,0,2.144,0,2.144-4.1-.094-4.285,2.7,1.956,3.168,1.956,3.168-1.118,3.54-.279,4.565l.745.745s-3.073,3.448-.838,4.565a11.224,11.224,0,0,1,2.516,1.677c.466.188,4.845,2.609,4.845,2.609l14.068,2.144,5.869.838,23.759,16.676s17.981,10.808,19.75,11.926,14.255,6.148,17.143,8.105,5.217,3.726,8.106,2.236,23.757-15.653,23.757-15.653l20.683-15.373,9.41-12.577,1.119-2.05s2.48,9.178,3.755,9.48,18.885-4.474,18.885-6.278,3.54-18.947,3.54-18.947Z" transform="translate(6696.68 -6347.279)" fill="#d3d3d3"/>
    <path id="Trazado_106637" data-name="Trazado 106637" d="M-6464.474,6424.92s9.317-2.874,12.3-2.688,16.211,3.168,17.7,5.777,6.149,16.584,6.708,20.684,1.49,36.707,1.49,36.707v20.5l1.491,22.36-1.3,27.679H-6442.3l-2.317-34.76-1.037-26.646-1.677-13.6s-8.385-20.31-9.131-21.988S-6464.474,6424.92-6464.474,6424.92Z" transform="translate(6690.789 -6346.891)" fill="#d3d3d3"/>
    <path id="Trazado_106638" data-name="Trazado 106638" d="M-6508.688,6431.765l-12.3,4.193-3.913,1.4s7.827,38.292-11.739,48.634c0,0,7.546,14.813,5.311,28.788s-13.416,33.187-12.3,41.189h90.559l-3.354-20.227,5.31-31.024s4.751-22.919,4.473-27.391-1.4-14.255-1.4-14.255l-13.7-38.12-.28-1.569h-19.751l-1.491,7.267Z" transform="translate(6692.799 -6346.92)" fill="#e7e7e8"/>
    <path id="Trazado_106639" data-name="Trazado 106639" d="M-6508.7,6414.674l-2.515,18.168s10.341,8.665,22.64,8.665,13.416-10.062,13.416-10.062l-6.987-20.684Z" transform="translate(6691.975 -6346.6)" fill="#d3d3d3"/>
    <g id="Grupo_56025" data-name="Grupo 56025" transform="translate(169.317)">
      <path id="Trazado_106640" data-name="Trazado 106640" d="M-6496.409,6345.019c-.115-.008-.231-.016-.346-.022-10.919-.676-20.659,3.751-24.028,14.8-5.689,18.66,1.593,41.872,1.593,41.872l5.462,11.833c3.1,6.724,13.072,11.008,19.927,8.921,3.619-1.1,6.651-3.59,9.314-6.277,7.406-7.469,9.776-16.5,11.825-26.533,2.152-10.542,2.525-21.715-2.406-31.573a22.993,22.993,0,0,0-8.822-9.717A28.8,28.8,0,0,0-6496.409,6345.019Z" transform="translate(6522.957 -6344.93)" fill="#e7e7e8"/>
      <line id="Línea_419" data-name="Línea 419" y2="71.342" transform="translate(25.901 3.094)" fill="none" stroke="#a8a8a8" stroke-linecap="round" stroke-linejoin="round" stroke-width="1.077" stroke-dasharray="2.693"/>
      <path id="Trazado_106641" data-name="Trazado 106641" d="M-6515.7,6421" transform="translate(6522.772 -6346.86)" fill="none" stroke="#e7e7e8" stroke-linecap="round" stroke-linejoin="round" stroke-width="1.077"/>
      <path id="Trazado_106642" data-name="Trazado 106642" d="M-6521.982,6384.878s27.279,10.949,49.9,0" transform="translate(6522.932 -6345.943)" fill="none" stroke="#a8a8a8" stroke-linecap="round" stroke-linejoin="round" stroke-width="1.041" stroke-dasharray="2.602"/>
    </g>
    <path id="Trazado_106643" data-name="Trazado 106643" d="M-6565.627,6460.248c1.3,1.371,24.066,20.473,24.066,20.473l-5.9,6.354-23.01-21.356Z" transform="translate(6693.478 -6347.855)" fill="#f2db36"/>
    <path id="Trazado_106644" data-name="Trazado 106644" d="M-6600.609,6496.831c-.746,1.738-7.536,23.619-7.536,23.619l-8.161-2.93,8.764-22.994Z" transform="translate(6694.64 -6348.725)" fill="#f2db36"/>
    <path id="Trazado_106645" data-name="Trazado 106645" d="M-6651.812,6474.023c-1.105,1.536-8.945,16.881-8.945,16.881l-7.335-4.626,10.01-16Z" transform="translate(6695.955 -6348.109)" fill="#f2db36"/>
    <line id="Línea_420" data-name="Línea 420" x1="3.13" y2="2.793" transform="translate(124.701 116.644)" fill="none" stroke="#30302f" stroke-miterlimit="10" stroke-width="0.337"/>
    <line id="Línea_421" data-name="Línea 421" x1="3.13" y2="2.793" transform="translate(129.28 120.895)" fill="none" stroke="#30302f" stroke-miterlimit="10" stroke-width="0.337"/>
    <line id="Línea_422" data-name="Línea 422" x1="1.838" y2="1.605" transform="translate(126.978 119.923)" fill="none" stroke="#30302f" stroke-miterlimit="10" stroke-width="0.337"/>
    <line id="Línea_423" data-name="Línea 423" x1="3.13" y2="2.793" transform="translate(134.332 125.493)" fill="none" stroke="#30302f" stroke-miterlimit="10" stroke-width="0.337"/>
    <line id="Línea_424" data-name="Línea 424" x1="1.838" y2="1.605" transform="translate(132.03 124.52)" fill="none" stroke="#30302f" stroke-miterlimit="10" stroke-width="0.337"/>
    <line id="Línea_425" data-name="Línea 425" x1="3.13" y2="2.793" transform="translate(138.981 129.763)" fill="none" stroke="#30302f" stroke-miterlimit="10" stroke-width="0.337"/>
    <line id="Línea_426" data-name="Línea 426" x1="1.838" y2="1.605" transform="translate(136.68 128.789)" fill="none" stroke="#30302f" stroke-miterlimit="10" stroke-width="0.337"/>
    <line id="Línea_427" data-name="Línea 427" x1="3.13" y2="2.793" transform="translate(143.931 134.32)" fill="none" stroke="#30302f" stroke-miterlimit="10" stroke-width="0.337"/>
    <line id="Línea_428" data-name="Línea 428" x1="1.838" y2="1.605" transform="translate(141.63 133.347)" fill="none" stroke="#30302f" stroke-miterlimit="10" stroke-width="0.337"/>
    <line id="Línea_429" data-name="Línea 429" x1="3.913" y1="1.512" transform="translate(86.605 147.349)" fill="none" stroke="#30302f" stroke-miterlimit="10" stroke-width="0.337"/>
    <line id="Línea_430" data-name="Línea 430" x1="3.913" y1="1.512" transform="translate(84.303 153.146)" fill="none" stroke="#30302f" stroke-miterlimit="10" stroke-width="0.337"/>
    <line id="Línea_431" data-name="Línea 431" x1="2.266" y1="0.904" transform="translate(85.781 150.328)" fill="none" stroke="#30302f" stroke-miterlimit="10" stroke-width="0.337"/>
    <line id="Línea_432" data-name="Línea 432" x1="3.913" y1="1.512" transform="translate(81.998 159.543)" fill="none" stroke="#30302f" stroke-miterlimit="10" stroke-width="0.337"/>
    <line id="Línea_433" data-name="Línea 433" x1="2.266" y1="0.904" transform="translate(83.17 156.688)" fill="none" stroke="#30302f" stroke-miterlimit="10" stroke-width="0.337"/>
    <line id="Línea_434" data-name="Línea 434" x1="3.913" y1="1.512" transform="translate(79.69 165.444)" fill="none" stroke="#30302f" stroke-miterlimit="10" stroke-width="0.337"/>
    <line id="Línea_435" data-name="Línea 435" x1="2.266" y1="0.904" transform="translate(80.865 162.429)" fill="none" stroke="#30302f" stroke-miterlimit="10" stroke-width="0.337"/>
    <line id="Línea_436" data-name="Línea 436" x1="3.527" y1="2.271" transform="translate(37.155 123.539)" fill="none" stroke="#30302f" stroke-miterlimit="10" stroke-width="0.337"/>
    <line id="Línea_437" data-name="Línea 437" x1="3.527" y1="2.271" transform="translate(33.732 128.753)" fill="none" stroke="#30302f" stroke-miterlimit="10" stroke-width="0.337"/>
    <line id="Línea_438" data-name="Línea 438" x1="2.037" y1="1.342" transform="translate(35.496 126.129)" fill="none" stroke="#30302f" stroke-miterlimit="10" stroke-width="0.337"/>
    <line id="Línea_439" data-name="Línea 439" x1="3.527" y1="2.271" transform="translate(30.185 134.553)" fill="none" stroke="#30302f" stroke-miterlimit="10" stroke-width="0.337"/>
    <line id="Línea_440" data-name="Línea 440" x1="2.037" y1="1.342" transform="translate(31.908 131.994)" fill="none" stroke="#30302f" stroke-miterlimit="10" stroke-width="0.337"/>
    <line id="Línea_441" data-name="Línea 441" x1="2.037" y1="1.342" transform="translate(28.493 137.152)" fill="none" stroke="#30302f" stroke-miterlimit="10" stroke-width="0.337"/>
  </g>
</svg>
