<svg xmlns="http://www.w3.org/2000/svg" width="305.884" height="223.558" viewBox="0 0 305.884 223.558">
  <g id="Grupo_56311" data-name="Grupo 56311" transform="translate(-226 -5933.456)">
    <g id="Grupo_56081" data-name="Grupo 56081" transform="translate(6831.559 1386.615)">
      <g id="Grupo_56017" data-name="Grupo 56017">
        <g id="Grupo_56016" data-name="Grupo 56016">
          <g id="Grupo_56015" data-name="Grupo 56015">
            <path id="Trazado_106606" data-name="Trazado 106606" d="M-6548.829,4634.716"/>
            <path id="Trazado_106607" data-name="Trazado 106607" d="M-6599.417,4717.666h11.171l8.856-24.791s2.15-9.419,2.15-12.542.614-8.754.614-8.754l4.659-12.542s3.276,14.078,3.89,18.634,1.331,14.589,0,21.193-7.278,34-7.278,34l44.341.682,26.156-1.282-6.14-36.318s-1.109-15.033-.5-16.927,4.778-22.251,4.778-22.251l6.16,18.6s3.174,20.938,3.788,22.627,7.321,19.672,7.321,19.672l11.69-.341-6.059-36.89-1.894-7.883-.768-5.068-3.839-29.845s-2.867-16.433-6.553-19.76S-6509,4614.6-6509,4614.6l-18.122-6.5-1.024-16.688-20.118.87-2.611-1.246s.409,15.767-.615,17-16.859,5.392-16.859,5.392-9.9-.478-14.538,7.235-6.962,34.947-6.962,34.947l-1.57,16.655s-6.211,19.248-6.211,21.022-1.786,24.382-1.786,24.382" fill="#e7e7e8"/>
            <g id="Grupo_56014" data-name="Grupo 56014">
              <path id="Trazado_106608" data-name="Trazado 106608" d="M-6551.491,4608.033s9.735,3.464,12.619,3.536c3.256.08,11.943-2.929,11.943-2.929l-1.218-17.227-20.118.87-2.611-1.246S-6551.433,4603.547-6551.491,4608.033Z" fill="#d3d3d3"/>
              <path id="Trazado_106609" data-name="Trazado 106609" d="M-6577.24,4680.333c0-3.123.614-8.754.614-8.754l4.659-12.542c-3.14-10.221-.819-24.726,1.774-28.548s1.775-10.921,1.775-10.921c.467-1.4-.057-3.9-.74-6.14-2.45.076-9.888.847-13.73,7.232-4.642,7.713-6.962,34.947-6.962,34.947l-1.57,16.655s-6.211,19.248-6.211,21.022-1.786,24.383-1.786,24.383h11.171l8.856-24.792S-6577.24,4683.455-6577.24,4680.333Z" fill="#d3d3d3"/>
              <path id="Trazado_106610" data-name="Trazado 106610" d="M-6483.815,4680.435l-1.894-7.883-.768-5.068-3.839-29.845s-2.867-16.433-6.553-19.76S-6509,4614.6-6509,4614.6l-.233-.084c-.957,2.753-1.683,5.432-1.683,5.432s-.819,7.1,1.775,10.921c2.325,3.426,4.43,15.434,2.581,25.247l.018,1.168,5.988,18.08s3.174,20.938,3.788,22.627,7.09,19.362,7.09,19.362l11.273-6.993Z" fill="#d3d3d3"/>
            </g>
            <path id="Trazado_106611" data-name="Trazado 106611" d="M-6538.842,4546.9l-.238-.015c-7.515-.465-14.217,2.582-16.536,10.188-3.915,12.842,1.1,28.816,1.1,28.816l3.759,8.143c2.135,4.627,9,7.576,13.714,6.14a15.894,15.894,0,0,0,6.41-4.32c5.1-5.14,6.728-11.353,8.138-18.26,1.481-7.254,1.738-14.943-1.657-21.728a15.81,15.81,0,0,0-6.071-6.687A19.816,19.816,0,0,0-6538.842,4546.9Z" fill="#e7e7e8"/>
            <line id="Línea_415" data-name="Línea 415" y2="49.096" transform="translate(-6539.286 4548.97)" fill="none" stroke="#a8a8a8" stroke-linecap="round" stroke-linejoin="round" stroke-width="0.722" stroke-dasharray="1.806"/>
            <line id="Línea_416" data-name="Línea 416" y2="98.279" transform="translate(-6539.286 4619.568)" fill="none" stroke="#a8a8a8" stroke-linecap="round" stroke-linejoin="round" stroke-width="0.722" stroke-dasharray="1.806"/>
            <path id="Trazado_106612" data-name="Trazado 106612" d="M-6573.4,4646.6s54.673,3.072,67.369,0" fill="none" stroke="#a8a8a8" stroke-linecap="round" stroke-linejoin="round" stroke-width="0.722" stroke-dasharray="1.806"/>
            <path id="Trazado_106613" data-name="Trazado 106613" d="M-6512.175,4688.779s-37.473,2.458-54.059,0" fill="none" stroke="#a8a8a8" stroke-linecap="round" stroke-linejoin="round" stroke-width="0.722" stroke-dasharray="1.806"/>
            <path id="Trazado_106614" data-name="Trazado 106614" d="M-6552.241,4597.863" fill="none" stroke="#e7e7e8" stroke-linecap="round" stroke-linejoin="round" stroke-width="0.722"/>
            <circle id="Elipse_4155" data-name="Elipse 4155" cx="0.847" cy="0.847" r="0.847" transform="translate(-6539.956 4614.271)" fill="#e7e7e8"/>
            <path id="Trazado_106615" data-name="Trazado 106615" d="M-6556.457,4573.634s18.772,7.536,34.343,0" fill="none" stroke="#a8a8a8" stroke-linecap="round" stroke-linejoin="round" stroke-width="0.698" stroke-dasharray="1.745"/>
          </g>
          <path id="Trazado_106616" data-name="Trazado 106616" d="M-6593.068,4708.872l4.822,8.795s-4.514,11.886-4.822,12.194-1.74,7.883,0,10.136,2.867,8.088,2.867,8.088v5.324a18.646,18.646,0,0,1-.879,3.583c-.35.41-1.885,1.536-2.09,0s-.744-4.3-.744-4.3-1-2.969-1.3-2.969-4.1.1-3.071,1.741a52.789,52.789,0,0,0,3.481,4.5s3.583,2.969,3.89,3.277a4.647,4.647,0,0,1,.922,2.252,6.4,6.4,0,0,1,.1,2.355c-.205.307-.819,1.433-.819,1.433s-1.536,1.536-1.945,1.434-9.624-11.57-9.624-11.57l-3.276-10.033,3.173-11.57,3.481-22.831Z" fill="#d3d3d3"/>
          <path id="Trazado_106617" data-name="Trazado 106617" d="M-6484.674,4708.224l-5.14,8.794s4.813,11.887,5.14,12.194,1.856,7.884,0,10.136-3.056,8.088-3.056,8.088v5.324a17.729,17.729,0,0,0,.937,3.584c.373.409,2.01,1.536,2.228,0s.794-4.3.794-4.3,1.062-2.969,1.389-2.969,4.367.1,3.275,1.74a53.42,53.42,0,0,1-3.711,4.5s-3.82,2.969-4.148,3.276a4.509,4.509,0,0,0-.982,2.253c-.109.921-.328,2.047-.109,2.355s.873,1.433.873,1.433,1.637,1.536,2.074,1.433,10.26-11.569,10.26-11.569l3.493-10.034-3.384-11.569-3.711-22.832Z" fill="#d3d3d3"/>
        </g>
        <path id="Trazado_106618" data-name="Trazado 106618" d="M-6555.623,4607.836l-19.437,6.683s-9.025-1.154-14.759,22.6a305.841,305.841,0,0,0-7.083,47.915l-7.631,42.8,15.124,3.071,13.719-47.506,2.289-17.848v-1.195l1.4,9.419-3.89,34.453,72.692-1.215-2.83-38.3,2.83,9.363,14.538,51.6,18.839-2.664-13.515-58.3s-7.781-47.357-12.886-50.9c-2.193-1.523-28.067-9.969-28.067-9.969s-2.048,10.921-11.74,10.716S-6555.281,4615.344-6555.623,4607.836Z" fill="#86bec4"/>
        <path id="Trazado_106619" data-name="Trazado 106619" d="M-6573.4,4615.964s7.54,11.325,2.011,39.378" fill="none" stroke="#d97c7c" stroke-linecap="round" stroke-linejoin="round" stroke-width="0.722" opacity="0.47"/>
        <path id="Trazado_106620" data-name="Trazado 106620" d="M-6505.711,4615.964s-7.54,11.325-2.011,39.378" fill="none" stroke="#d97c7c" stroke-linecap="round" stroke-linejoin="round" stroke-width="0.722" opacity="0.47"/>
        <path id="Trazado_106621" data-name="Trazado 106621" d="M-6585.149,4716.643c-.476.269-2.481,3.659-6.85-5.487s-8.166-8.225-8.166-8.225l-4.478,25.022,15.6,2.948Z" fill="#ffad54"/>
        <path id="Trazado_106622" data-name="Trazado 106622" d="M-6490.85,4721.912l2.187,7.761,18.838-2.664-2.238-9.653-19.119,3.379Z" fill="#ffad54"/>
      </g>
      <path id="Trazado_106623" data-name="Trazado 106623" d="M-6513.945,4723.514l9.087,8.75,2.4,18.508v16.923h-75.976v-16.782l3.5-20.012s21.725-6.066,22.292-5.5S-6513.945,4723.514-6513.945,4723.514Z" fill="#e7e7e8"/>
    </g>
    <g id="Grupo_56082" data-name="Grupo 56082" transform="translate(7109.049 1385.717)">
      <path id="Trazado_106597" data-name="Trazado 106597" d="M-6583.93,4714.351l3.539,23.214,3.227,11.763-3.332,10.2s-9.368,11.658-9.784,11.763-1.978-1.458-1.978-1.458-.625-1.145-.832-1.457a6.508,6.508,0,0,1,.1-2.394,4.736,4.736,0,0,1,.937-2.291c.312-.312,3.957-3.331,3.957-3.331a53.426,53.426,0,0,0,3.538-4.58c1.042-1.665-2.809-1.77-3.122-1.77s-1.325,3.019-1.325,3.019-.548,2.811-.757,4.373-1.77.416-2.126,0a19,19,0,0,1-.893-3.644v-5.41s1.145-5.937,2.915-8.224.312-9.992,0-10.305-4.9-12.4-4.9-12.4l4.9-8.941Z" fill="#d3d3d3"/>
      <path id="Trazado_106598" data-name="Trazado 106598" d="M-6706.406,4713.693l-3.768,23.212-3.44,11.763,3.551,10.2s9.99,11.66,10.433,11.763,2.108-1.458,2.108-1.458.666-1.144.888-1.457,0-1.457-.111-2.394a4.575,4.575,0,0,0-1-2.29c-.334-.312-4.218-3.331-4.218-3.331a54.18,54.18,0,0,1-3.768-4.58c-1.115-1.666,3-1.77,3.329-1.77s1.413,3.019,1.413,3.019.584,2.809.806,4.371,1.887.416,2.265,0a17.925,17.925,0,0,0,.954-3.643v-5.41s-1.221-5.936-3.108-8.223-.333-9.994,0-10.306,5.227-12.4,5.227-12.4l-5.227-8.942Z" fill="#d3d3d3"/>
      <g id="Grupo_56021" data-name="Grupo 56021">
        <path id="Trazado_106624" data-name="Trazado 106624" d="M-6708.217,4723.242h11.476l9.1-25.47s2.209-9.678,2.209-12.886.631-8.993.631-8.993l4.786-12.886s3.366,14.464,4,19.144,1.367,14.989,0,21.774l-3.892,19.317h41.969l24.3-.226-3.735-22.089s-1.139-15.445-.508-17.391,4.909-22.86,4.909-22.86l6.328,19.109s3.261,21.51,3.892,23.246,7.521,20.211,7.521,20.211h12.675l-6.89-38.251-1.946-8.1-.788-5.207-3.945-30.661s-2.945-16.883-6.732-20.3-12.464-3.366-12.464-3.366l-18.618-6.68-1.052-17.145-20.669.894-2.683-1.28s.421,16.2-.631,17.461-17.321,5.54-17.321,5.54-10.168-.491-14.936,7.433-7.153,35.9-7.153,35.9l-1.613,17.11s-6.381,19.775-6.381,21.6-1.834,25.05-1.834,25.05" fill="#e7e7e8"/>
        <g id="Grupo_56020" data-name="Grupo 56020">
          <path id="Trazado_106625" data-name="Trazado 106625" d="M-6658.28,4602.626l23.856.236-.572-9.33-17.882-3.121-5.47,2.735S-6658.221,4598.018-6658.28,4602.626Z" fill="#d3d3d3"/>
          <path id="Trazado_106626" data-name="Trazado 106626" d="M-6685.433,4684.886c0-3.208.631-8.993.631-8.993l4.786-12.885c-3.226-10.5-.842-25.4,1.823-29.33s1.823-11.22,1.823-11.22c.48-1.439-.058-4-.76-6.309-2.517.079-10.159.871-14.106,7.431-4.768,7.924-7.153,35.9-7.153,35.9l-1.613,17.11s-6.381,19.775-6.381,21.6-1.834,25.05-1.834,25.05h11.476l9.1-25.47S-6685.433,4688.094-6685.433,4684.886Z" fill="#d3d3d3"/>
          <path id="Trazado_106627" data-name="Trazado 106627" d="M-6589.451,4684.992l-1.946-8.1-.788-5.207-3.945-30.661s-2.945-16.883-6.732-20.3-12.464-3.367-12.464-3.367l-.24-.085c-.983,2.828-1.728,5.581-1.728,5.581s-.842,7.292,1.823,11.22c2.388,3.519,4.551,15.856,2.652,25.938l.018,1.2,6.152,18.576s3.261,21.51,3.892,23.246,7.521,20.211,7.521,20.211h12.675Z" fill="#d3d3d3"/>
        </g>
        <line id="Línea_417" data-name="Línea 417" y2="100.969" transform="translate(-6646.44 4622.458)" fill="none" stroke="#a8a8a8" stroke-linecap="round" stroke-linejoin="round" stroke-width="0.742" stroke-dasharray="1.855"/>
        <path id="Trazado_106628" data-name="Trazado 106628" d="M-6681.489,4650.227s56.17,3.156,69.213,0" fill="none" stroke="#a8a8a8" stroke-linecap="round" stroke-linejoin="round" stroke-width="0.742" stroke-dasharray="1.855"/>
        <path id="Trazado_106629" data-name="Trazado 106629" d="M-6618.587,4693.564s-38.5,2.525-55.539,0" fill="none" stroke="#a8a8a8" stroke-linecap="round" stroke-linejoin="round" stroke-width="0.742" stroke-dasharray="1.855"/>
        <path id="Trazado_106630" data-name="Trazado 106630" d="M-6659.75,4600.159" fill="none" stroke="#e7e7e8" stroke-linecap="round" stroke-linejoin="round" stroke-width="0.742"/>
        <circle id="Elipse_4156" data-name="Elipse 4156" cx="0.87" cy="0.87" r="0.87" transform="translate(-6647.128 4617.016)" fill="#e7e7e8"/>
        <path id="Trazado_106631" data-name="Trazado 106631" d="M-6658.229,4596.224l0,.007c1.531-1.111,9.164-5.8,22.991-.858,3.458-4.7,4.833-10.121,6.041-16.039,1.522-7.453,1.786-15.353-1.7-22.323a16.242,16.242,0,0,0-6.237-6.87,20.361,20.361,0,0,0-8.851-2.339l-.244-.016c-7.721-.478-14.606,2.652-16.989,10.467-4.022,13.194,1.126,29.6,1.126,29.6Z" fill="#e7e7e8"/>
      </g>
      <line id="Línea_418" data-name="Línea 418" x2="2.895" y2="14.548" transform="translate(-6613.644 4723.016)" fill="#d3d3d3"/>
      <path id="Trazado_106602" data-name="Trazado 106602" d="M-6679.553,4721.308l-5.824,34.034v14.878h78.244v-14.658l-5.978-34.254Z" fill="#e7e7e8"/>
      <g id="Grupo_56023" data-name="Grupo 56023">
        <path id="Trazado_106632" data-name="Trazado 106632" d="M-6662.625,4609.755l2.469-1.046s24.021-.707,26.251-.638a6.461,6.461,0,0,1,3.881,1.69s-1,13.441-1.372,13.441-21.3,2.191-22.611,1.644-8.359-8.264-8.618-8.7S-6662.625,4609.755-6662.625,4609.755Z" fill="#86bec4"/>
        <g id="Grupo_56022" data-name="Grupo 56022">
          <path id="Trazado_106633" data-name="Trazado 106633" d="M-6630.4,4609.568l24.048,8.188s7.133,1.252,10.63,21.472c4.163,24.078,6.6,47.537,6.6,47.537l7.631,42.8-15.125,3.072-13.719-47.506-2.289-17.848v-1.195l-1.4,9.419,3.891,34.452-72.693-1.214,2.831-38.3-2.831,9.364-14.538,51.6-18.839-2.663,13.515-58.3s7.781-47.357,12.886-50.9c2.193-1.523,28.067-9.969,28.067-9.969s2.048,10.921,11.74,10.716S-6630.743,4617.076-6630.4,4609.568Z" fill="#86bec4"/>
          <path id="Trazado_106634" data-name="Trazado 106634" d="M-6600.876,4718.374c.476.269,2.482,3.66,6.85-5.487s8.166-8.224,8.166-8.224l4.478,25.021-15.6,2.949Z" fill="#ffad54"/>
          <path id="Trazado_106635" data-name="Trazado 106635" d="M-6695.174,4723.644l-2.187,7.76-18.839-2.664,2.238-9.653,19.119,3.379Z" fill="#ffad54"/>
        </g>
      </g>
    </g>
  </g>
</svg>
