<svg xmlns="http://www.w3.org/2000/svg" width="604" height="501" viewBox="0 0 604 501">
  <g id="Grupo_56307" data-name="Grupo 56307" transform="translate(-3305 7798)">
    <g id="Grupo_55986" data-name="Grupo 55986" transform="translate(1695.576 -11349.92)">
      <g id="Rectángulo_5675" data-name="Rectángulo 5675">
        <rect id="Rectángulo_5683" data-name="Rectángulo 5683" width="604" height="500" transform="translate(1609.424 3551.92)" fill="#fffdf4"/>
        <rect id="Rectángulo_5684" data-name="Rectángulo 5684" width="603" height="499" transform="translate(1609.924 3552.42)" fill="#fffdf4"/>
      </g>
      <g id="Grupo_55984" data-name="Grupo 55984">
        <path id="Trazado_106433" data-name="Trazado 106433" d="M1849.931,4051.42h30.927l24.52-68.639s5.953-26.079,5.953-34.725,1.7-24.236,1.7-24.236l12.9-34.724s9.071,38.976,10.772,51.59,3.685,40.394,0,58.677-10.488,52.057-10.488,52.057h113.1l65.48-.608-10.063-59.527s-3.071-41.622-1.37-46.866,13.228-61.607,13.228-61.607l17.056,51.5s8.787,57.969,10.488,62.646,20.267,54.466,20.267,54.466h34.158l-18.567-103.08-5.244-21.827-2.126-14.031-10.63-82.63s-7.937-45.5-18.142-54.709-33.59-9.071-33.59-9.071l-50.173-18-2.835-46.205-55.7,2.41-7.228-3.449s1.134,43.654-1.7,47.055-46.677,14.929-46.677,14.929-27.4-1.323-40.252,20.032-19.276,96.756-19.276,96.756l-4.346,46.11s-17.2,53.291-17.2,58.205-4.943,67.5-4.943,67.5" fill="#e7e7e8"/>
        <g id="Grupo_55983" data-name="Grupo 55983">
          <path id="Trazado_106434" data-name="Trazado 106434" d="M1984.5,3726.376l64.29.635-1.542-25.144-48.189-8.409-14.74,7.37S1984.664,3713.957,1984.5,3726.376Z" fill="#d3d3d3"/>
          <path id="Trazado_106435" data-name="Trazado 106435" d="M1911.331,3948.056c0-8.645,1.7-24.236,1.7-24.236l12.9-34.724c-8.693-28.3-2.268-68.457,4.913-79.04s4.914-30.236,4.914-30.236c1.293-3.878-.157-10.786-2.049-17-6.782.212-27.377,2.347-38.014,20.025-12.851,21.354-19.276,96.756-19.276,96.756l-4.346,46.11s-17.2,53.291-17.2,58.205-4.943,67.506-4.943,67.506h30.927l24.52-68.64S1911.331,3956.7,1911.331,3948.056Z" fill="#d3d3d3"/>
          <path id="Trazado_106436" data-name="Trazado 106436" d="M2169.992,3948.34l-5.244-21.827-2.126-14.031-10.63-82.63s-7.937-45.5-18.142-54.709-33.59-9.071-33.59-9.071l-.645-.232c-2.649,7.623-4.659,15.04-4.659,15.04s-2.267,19.654,4.914,30.237c6.436,9.485,12.266,42.73,7.146,69.9l.05,3.232,16.58,50.059s8.787,57.969,10.488,62.646,20.268,54.467,20.268,54.467h34.157Z" fill="#d3d3d3"/>
        </g>
        <line id="Línea_370" data-name="Línea 370" y2="272.1" transform="translate(2016.412 3779.82)" fill="none" stroke="#a8a8a8" stroke-linecap="round" stroke-linejoin="round" stroke-width="2" stroke-dasharray="5"/>
        <path id="Trazado_106437" data-name="Trazado 106437" d="M1921.961,3854.655s151.37,8.5,186.519,0" fill="none" stroke="#a8a8a8" stroke-linecap="round" stroke-linejoin="round" stroke-width="2" stroke-dasharray="5"/>
        <path id="Trazado_106438" data-name="Trazado 106438" d="M2091.472,3971.442s-103.748,6.8-149.669,0" fill="none" stroke="#a8a8a8" stroke-linecap="round" stroke-linejoin="round" stroke-width="2" stroke-dasharray="5"/>
        <path id="Trazado_106439" data-name="Trazado 106439" d="M1980.543,3719.726" fill="none" stroke="#e7e7e8" stroke-linecap="round" stroke-linejoin="round" stroke-width="2"/>
        <circle id="Elipse_4143" data-name="Elipse 4143" cx="2.344" cy="2.344" r="2.344" transform="translate(2014.557 3765.153)" fill="#e7e7e8"/>
        <path id="Trazado_106440" data-name="Trazado 106440" d="M1984.642,3709.123l.009.018c4.126-2.993,24.7-15.629,61.959-2.313,9.319-12.668,13.023-27.275,16.279-43.222,4.1-20.086,4.811-41.374-4.586-60.157a43.8,43.8,0,0,0-16.808-18.515c-7.185-4.149-15.566-5.738-23.852-6.3l-.66-.043c-20.806-1.287-39.362,7.148-45.782,28.208-10.84,35.554,3.035,79.78,3.035,79.78Z" fill="#e7e7e8"/>
      </g>
      <path id="Trazado_106441" data-name="Trazado 106441" d="M1649.238,4051.42h30.927l24.52-68.639s5.953-26.079,5.953-34.725,1.7-24.236,1.7-24.236l12.9-34.724s9.071,38.976,10.772,51.59,3.685,40.394,0,58.677-10.488,52.057-10.488,52.057h113.1l65.48-.608-10.063-59.527s-3.071-41.622-1.37-46.866,13.229-61.607,13.229-61.607l17.055,51.5s8.787,57.969,10.488,62.646,20.268,54.466,20.268,54.466h34.157L1969.3,3948.34l-5.244-21.827-2.126-14.031-10.63-82.63s-7.937-45.5-18.142-54.709-33.59-9.071-33.59-9.071l-50.173-18-2.835-46.205-55.7,2.41-7.228-3.449s1.134,43.654-1.7,47.055-46.677,14.929-46.677,14.929-27.4-1.323-40.252,20.032-19.276,96.756-19.276,96.756l-4.346,46.11s-17.2,53.291-17.2,58.205-4.943,67.5-4.943,67.5" fill="#e7e7e8"/>
      <g id="Grupo_55985" data-name="Grupo 55985">
        <path id="Trazado_106442" data-name="Trazado 106442" d="M1781.929,3747.883s26.952,9.592,34.936,9.789c9.016.223,33.066-8.109,33.066-8.109l-3.372-47.7-55.7,2.41-7.228-3.449S1782.089,3735.464,1781.929,3747.883Z" fill="#d3d3d3"/>
        <path id="Trazado_106443" data-name="Trazado 106443" d="M1710.638,3948.056c0-8.645,1.7-24.236,1.7-24.236l12.9-34.724c-8.693-28.3-2.268-68.457,4.914-79.04s4.913-30.236,4.913-30.236c1.293-3.878-.157-10.786-2.049-17-6.782.212-27.376,2.347-38.014,20.025-12.85,21.354-19.276,96.756-19.276,96.756l-4.346,46.11s-17.2,53.291-17.2,58.205-4.943,67.506-4.943,67.506h30.927l24.52-68.64S1710.638,3956.7,1710.638,3948.056Z" fill="#d3d3d3"/>
        <path id="Trazado_106444" data-name="Trazado 106444" d="M1969.3,3948.34l-5.244-21.827-2.126-14.031-10.63-82.63s-7.937-45.5-18.142-54.709-33.59-9.071-33.59-9.071l-.645-.232c-2.649,7.623-4.658,15.04-4.658,15.04s-2.268,19.654,4.913,30.237c6.436,9.485,12.266,42.73,7.146,69.9l.05,3.232,16.58,50.059s8.787,57.969,10.488,62.646,20.268,54.467,20.268,54.467h34.157Z" fill="#d3d3d3"/>
      </g>
      <path id="Trazado_106445" data-name="Trazado 106445" d="M1816.95,3578.631l-.66-.043c-20.806-1.287-39.362,7.148-45.782,28.208-10.84,35.554,3.035,79.78,3.035,79.78l10.406,22.547c5.912,12.81,24.908,20.973,37.968,17,6.9-2.1,12.672-6.843,17.748-11.961,14.11-14.23,18.627-31.434,22.531-50.556,4.1-20.085,4.811-41.373-4.586-60.156a43.805,43.805,0,0,0-16.808-18.515C1833.617,3580.785,1825.236,3579.2,1816.95,3578.631Z" fill="#e7e7e8"/>
      <line id="Línea_371" data-name="Línea 371" y2="135.93" transform="translate(1815.72 3584.358)" fill="none" stroke="#a8a8a8" stroke-linecap="round" stroke-linejoin="round" stroke-width="2" stroke-dasharray="5"/>
      <line id="Línea_372" data-name="Línea 372" y2="272.1" transform="translate(1815.72 3779.82)" fill="none" stroke="#a8a8a8" stroke-linecap="round" stroke-linejoin="round" stroke-width="2" stroke-dasharray="5"/>
      <path id="Trazado_106446" data-name="Trazado 106446" d="M1721.268,3854.655s151.37,8.5,186.519,0" fill="none" stroke="#a8a8a8" stroke-linecap="round" stroke-linejoin="round" stroke-width="2" stroke-dasharray="5"/>
      <path id="Trazado_106447" data-name="Trazado 106447" d="M1890.779,3971.442s-103.748,6.8-149.669,0" fill="none" stroke="#a8a8a8" stroke-linecap="round" stroke-linejoin="round" stroke-width="2" stroke-dasharray="5"/>
      <path id="Trazado_106448" data-name="Trazado 106448" d="M1779.85,3719.726" fill="none" stroke="#e7e7e8" stroke-linecap="round" stroke-linejoin="round" stroke-width="2"/>
      <circle id="Elipse_4144" data-name="Elipse 4144" cx="2.344" cy="2.344" r="2.344" transform="translate(1813.865 3765.153)" fill="#e7e7e8"/>
      <path id="Trazado_106449" data-name="Trazado 106449" d="M1768.178,3652.645s51.975,20.863,95.084,0" fill="none" stroke="#a8a8a8" stroke-linecap="round" stroke-linejoin="round" stroke-width="1.933" stroke-dasharray="4.832"/>
      <rect id="Rectángulo_5433" data-name="Rectángulo 5433" width="206.784" height="58.588" transform="translate(1609.424 3993.333)" fill="#d9d9d9"/>
      <text id="Figura_31" data-name="Figura 31" transform="translate(1629.791 4016.96)" font-size="14" font-family="Roboto-Bold, Roboto" font-weight="700" style="isolation: isolate"><tspan x="0" y="0">Figura 31</tspan></text>
      <text id="Nota._SENA_2021_" data-name="Nota.  SENA (2021)" transform="translate(1629.791 4033.96)" font-size="14" font-family="Roboto-Regular, Roboto" style="isolation: isolate"><tspan x="0" y="0" xml:space="preserve">Nota.  SENA (2021)</tspan></text>
      <path id="Trazado_106450" data-name="Trazado 106450" d="M1752.623,3663.2s-4.642-27.855,60.816-31.569c0,0,60.352-6.035,65.459,31.569,0,0,6.5-71.958-40.854-82.172s-71.029,12.071-79.85,32.033S1752.623,3663.2,1752.623,3663.2Z" fill="#fcb1b1"/>
      <path id="Trazado_106451" data-name="Trazado 106451" d="M1864.042,3678.748v69.236s-10.329,20.364-50.6,17.346l11.955-30.524,23.676-56.058Z" fill="#fcb1b1"/>
      <path id="Trazado_106452" data-name="Trazado 106452" d="M1766.551,3678.748v71.236s9.571,18.364,46.888,15.346l-11.077-30.524-21.938-56.058Z" fill="#fcb1b1"/>
      <path id="Trazado_106453" data-name="Trazado 106453" d="M1813.439,3765.33l-38.532-128.6s-26,6.035-22.284,26.462S1813.439,3765.33,1813.439,3765.33Z" fill="#ff9696"/>
      <path id="Trazado_106454" data-name="Trazado 106454" d="M1854.293,3636.734l-40.854,128.6s62.209-88.207,65.459-102.134S1869.149,3633.948,1854.293,3636.734Z" fill="#ff9696"/>
      <path id="Trazado_106455" data-name="Trazado 106455" d="M1815.619,3622.476" fill="#fffdf4"/>
      <line id="Línea_373" data-name="Línea 373" y2="40.441" transform="translate(1815.619 3582.035)" fill="none" stroke="#e07575" stroke-linecap="round" stroke-linejoin="round" stroke-width="2" stroke-dasharray="5"/>
      <path id="Trazado_106456" data-name="Trazado 106456" d="M1975.588,3747.149c-5.294-21.019-9.906-50.626-16.975-71.126-5.777-16.755-6.239-36.749-3.013-54.2,1.672-9.04,5.222-17.924,11.429-24.706,7.034-7.685,16.909-12.127,26.8-15.387,10.653-3.51,22.146-5.9,33.048-3.254,10.094,2.445,18.705,8.966,26.281,16.07,7.918,7.423,15.156,15.792,19.821,25.592,9.415,19.778,3.493,40.778-2.775,60.3-5.031,15.668-11.62,39.828-13.6,56.264-.09.751-.169,1.5-.219,2.258C2055.257,3755.966,2015.84,3768.246,1975.588,3747.149Z" fill="#fcb1b1"/>
      <line id="Línea_374" data-name="Línea 374" y2="151.004" transform="translate(2014.557 3591.035)" fill="none" stroke="#e07575" stroke-linecap="round" stroke-linejoin="round" stroke-width="2" stroke-dasharray="5"/>
    </g>
  </g>
</svg>
