<svg id="Grupo_56038" data-name="Grupo 56038" xmlns="http://www.w3.org/2000/svg" width="265.135" height="202.227" viewBox="0 0 265.135 202.227">
  <path id="Trazado_106646" data-name="Trazado 106646" d="M-6229.235,6443.372l4.956-5.948s14.331-1.623,21.36,4.326,20.009,24.875,21.27,26.857,25.6,25.057,25.6,25.057l2.162,1.261s32.626-12.077,36.231-13.879,23.975-14.241,23.975-14.241,10-7.931,11.085-8.471a19.447,19.447,0,0,1,3.785-.992s7.3-1.59,7.572-1.561,4.326-1.323,5.227,2.1,0,2.074,0,2.074,3.966-.091,4.145,2.613-1.893,3.064-1.893,3.064,1.083,3.425.271,4.417l-.721.722s2.974,3.334.811,4.416a10.918,10.918,0,0,0-2.434,1.622c-.451.181-4.686,2.523-4.686,2.523l-13.61,2.073-5.678.811-22.982,16.133s-17.4,10.454-19.107,11.536-13.79,5.949-16.584,7.841-5.047,3.605-7.841,2.164-22.982-15.142-22.982-15.142l-20.009-14.872-9.1-12.167-1.082-1.982s-2.4,8.877-3.634,9.17-18.268-4.329-18.268-6.074-3.425-18.329-3.425-18.329Z" transform="translate(6319.184 -6349.938)" fill="#d3d3d3"/>
  <path id="Trazado_106647" data-name="Trazado 106647" d="M-6286.111,6424.515s-9.013-2.781-11.9-2.6-15.683,3.064-17.125,5.587-5.949,16.043-6.49,20.009-1.442,35.51-1.442,35.51v19.828l-1.442,21.631,1.262,26.776h15.682l2.242-33.627,1-25.775,1.621-13.159s8.112-19.648,8.833-21.27S-6286.111,6424.515-6286.111,6424.515Z" transform="translate(6324.506 -6349.03)" fill="#d3d3d3"/>
  <path id="Trazado_106648" data-name="Trazado 106648" d="M-6244.073,6431.176l11.9,4.056,3.786,1.352s-7.571,37.042,11.356,47.047c0,0-7.3,14.33-5.137,27.849s12.978,32.1,11.9,39.846h-87.6l3.244-19.567-5.137-30.013s-4.6-22.171-4.327-26.5,1.352-13.791,1.352-13.791l13.248-36.875.271-1.519h19.106l1.442,7.03Z" transform="translate(6323.296 -6349.099)" fill="#e7e7e8"/>
  <path id="Trazado_106649" data-name="Trazado 106649" d="M-6241.47,6414.2l2.434,17.575s-10,8.382-21.9,8.382-12.978-9.734-12.978-9.734l6.76-20.008Z" transform="translate(6321.503 -6348.349)" fill="#d3d3d3"/>
  <g id="Grupo_56032" data-name="Grupo 56032" transform="translate(43.42)">
    <path id="Trazado_106650" data-name="Trazado 106650" d="M-6253.914,6344.519l.335-.021c10.564-.653,19.984,3.629,23.245,14.322,5.5,18.052-1.541,40.506-1.541,40.506l-5.284,11.448c-3,6.5-12.646,10.648-19.278,8.63-3.5-1.066-6.433-3.474-9.01-6.073-7.165-7.225-9.458-15.96-11.439-25.667-2.082-10.2-2.443-21.007,2.328-30.543a22.245,22.245,0,0,1,8.533-9.4A27.864,27.864,0,0,1-6253.914,6344.519Z" transform="translate(6278.346 -6344.433)" fill="#e7e7e8"/>
    <line id="Línea_442" data-name="Línea 442" y2="69.015" transform="translate(25.057 2.994)" fill="none" stroke="#a8a8a8" stroke-linecap="round" stroke-linejoin="round" stroke-width="1.08" stroke-dasharray="2.699"/>
    <path id="Trazado_106651" data-name="Trazado 106651" d="M-6232.348,6420.681" transform="translate(6275.617 -6348.958)" fill="none" stroke="#e7e7e8" stroke-linecap="round" stroke-linejoin="round" stroke-width="1.08"/>
    <path id="Trazado_106652" data-name="Trazado 106652" d="M-6229.094,6384.474s-26.388,10.591-48.275,0" transform="translate(6278.288 -6346.809)" fill="none" stroke="#a8a8a8" stroke-linecap="round" stroke-linejoin="round" stroke-width="1.043" stroke-dasharray="2.608"/>
  </g>
  <path id="Trazado_106653" data-name="Trazado 106653" d="M-6155.8,6523.22l-1.211-.73c-21.02-12.655-66.7-67.595-68.688-69.981l.807-5.91c.472.568,48.207,57.405,69.155,71.061,21.644-12.652,61.467-36.061,65.171-38.736l2.793,3.868c-4.9,3.541-64.279,38.24-66.8,39.715Z" transform="translate(6318.642 -6350.496)" fill="#f2db36"/>
  <path id="Trazado_107976" data-name="Trazado 107976" d="M7.871-2.933A3.4,3.4,0,0,1,6.789-.67a3.547,3.547,0,0,1-2.422.8A3.257,3.257,0,0,1,1.742-1.047,4.724,4.724,0,0,1,.755-4.189v-.889a5.266,5.266,0,0,1,.46-2.266,3.438,3.438,0,0,1,1.3-1.5,3.632,3.632,0,0,1,1.955-.524,3.34,3.34,0,0,1,2.361.822A3.441,3.441,0,0,1,7.871-6.271H6.646a2.655,2.655,0,0,0-.689-1.6,2.084,2.084,0,0,0-1.482-.5,2.181,2.181,0,0,0-1.831.864A3.966,3.966,0,0,0,1.98-5.05v.9a4.077,4.077,0,0,0,.628,2.4A2.031,2.031,0,0,0,4.367-.87a2.345,2.345,0,0,0,1.558-.46,2.554,2.554,0,0,0,.72-1.6ZM9.039-3.5a4.057,4.057,0,0,1,.4-1.815,2.96,2.96,0,0,1,1.1-1.244A3.007,3.007,0,0,1,12.156-7a2.9,2.9,0,0,1,2.269.971,3.736,3.736,0,0,1,.866,2.583v.083a4.092,4.092,0,0,1-.384,1.8,2.916,2.916,0,0,1-1.1,1.241,3.041,3.041,0,0,1-1.641.444A2.889,2.889,0,0,1,9.906-.844a3.718,3.718,0,0,1-.866-2.571Zm1.181.14a2.938,2.938,0,0,0,.53,1.834,1.7,1.7,0,0,0,1.419.692,1.686,1.686,0,0,0,1.422-.7A3.213,3.213,0,0,0,14.117-3.5a2.933,2.933,0,0,0-.536-1.831,1.705,1.705,0,0,0-1.425-.7,1.686,1.686,0,0,0-1.4.692A3.189,3.189,0,0,0,10.22-3.358Zm6.259-.133a4.023,4.023,0,0,1,.749-2.542A2.369,2.369,0,0,1,19.189-7,2.382,2.382,0,0,1,21.1-6.17V-9.75h1.174V0H21.195l-.057-.736a2.391,2.391,0,0,1-1.961.863,2.346,2.346,0,0,1-1.946-.978A4.069,4.069,0,0,1,16.479-3.4Zm1.174.133a3.046,3.046,0,0,0,.482,1.828,1.56,1.56,0,0,0,1.333.66,1.713,1.713,0,0,0,1.631-1V-5.027A1.726,1.726,0,0,0,19.481-6a1.567,1.567,0,0,0-1.346.667A3.354,3.354,0,0,0,17.653-3.358Zm6.132-.14a4.057,4.057,0,0,1,.4-1.815,2.96,2.96,0,0,1,1.1-1.244A3.007,3.007,0,0,1,26.9-7a2.9,2.9,0,0,1,2.269.971,3.736,3.736,0,0,1,.866,2.583v.083a4.092,4.092,0,0,1-.384,1.8,2.916,2.916,0,0,1-1.1,1.241,3.041,3.041,0,0,1-1.641.444,2.889,2.889,0,0,1-2.263-.971,3.718,3.718,0,0,1-.866-2.571Zm1.181.14a2.938,2.938,0,0,0,.53,1.834,1.7,1.7,0,0,0,1.419.692,1.686,1.686,0,0,0,1.422-.7A3.213,3.213,0,0,0,28.863-3.5a2.933,2.933,0,0,0-.536-1.831,1.705,1.705,0,0,0-1.425-.7,1.686,1.686,0,0,0-1.4.692A3.189,3.189,0,0,0,24.965-3.358Z" transform="translate(148.04 185.627)"/>
  <path id="Trazado_107977" data-name="Trazado 107977" d="M2.292-3.618V0H1.073V-9.242H4.481a3.425,3.425,0,0,1,2.377.774,2.625,2.625,0,0,1,.86,2.05,2.591,2.591,0,0,1-.841,2.073,3.578,3.578,0,0,1-2.409.727Zm0-1h2.19a2.19,2.19,0,0,0,1.5-.461A1.686,1.686,0,0,0,6.5-6.408a1.742,1.742,0,0,0-.521-1.323,2.051,2.051,0,0,0-1.428-.515H2.292ZM13.33-.679a2.494,2.494,0,0,1-2.012.806A2.135,2.135,0,0,1,9.645-.511,2.761,2.761,0,0,1,9.064-2.4V-6.868h1.174v4.437q0,1.562,1.27,1.562a1.758,1.758,0,0,0,1.79-1v-5h1.174V0H13.355Zm4.037-6.189L17.405-6A2.5,2.5,0,0,1,19.462-7q2.177,0,2.2,2.457V0H20.484V-4.545a1.581,1.581,0,0,0-.34-1.1A1.361,1.361,0,0,0,19.106-6a1.7,1.7,0,0,0-1,.3,2.069,2.069,0,0,0-.673.8V0H16.256V-6.868Zm3.885-2.679a1.578,1.578,0,0,1-.39,1.111,1.268,1.268,0,0,1-.974.425,1.43,1.43,0,0,1-.451-.063,2.432,2.432,0,0,1-.5-.26,2.158,2.158,0,0,0-.444-.238,1.087,1.087,0,0,0-.314-.041.582.582,0,0,0-.444.2.725.725,0,0,0-.184.511l-.787-.044a1.657,1.657,0,0,1,.384-1.124,1.232,1.232,0,0,1,.974-.444,1.184,1.184,0,0,1,.4.063A2.914,2.914,0,0,1,19-9.2a2.839,2.839,0,0,0,.467.241,1.072,1.072,0,0,0,.359.057.568.568,0,0,0,.454-.216.757.757,0,0,0,.181-.5ZM23.118-3.5a4.057,4.057,0,0,1,.4-1.815,2.96,2.96,0,0,1,1.1-1.244A3.007,3.007,0,0,1,26.235-7a2.9,2.9,0,0,1,2.269.971,3.736,3.736,0,0,1,.866,2.583v.083a4.092,4.092,0,0,1-.384,1.8,2.916,2.916,0,0,1-1.1,1.241,3.041,3.041,0,0,1-1.641.444,2.889,2.889,0,0,1-2.263-.971,3.718,3.718,0,0,1-.866-2.571Zm1.181.14a2.938,2.938,0,0,0,.53,1.834,1.7,1.7,0,0,0,1.419.692,1.686,1.686,0,0,0,1.422-.7A3.213,3.213,0,0,0,28.2-3.5a2.933,2.933,0,0,0-.536-1.831,1.705,1.705,0,0,0-1.425-.7,1.686,1.686,0,0,0-1.4.692A3.189,3.189,0,0,0,24.3-3.358Z" transform="translate(235.765 149.368)"/>
  <g id="Grupo_56033" data-name="Grupo 56033" transform="translate(94.397 102.016)">
    <line id="Línea_443" data-name="Línea 443" x1="2.001" y2="1.735" fill="none" stroke="#30302f" stroke-miterlimit="10" stroke-width="0.338"/>
    <line id="Línea_444" data-name="Línea 444" x1="0.981" y2="0.84" transform="translate(1.922 3.177)" fill="none" stroke="#30302f" stroke-miterlimit="10" stroke-width="0.338"/>
    <line id="Línea_445" data-name="Línea 445" x1="2.001" y2="1.735" transform="translate(4.134 4.976)" fill="none" stroke="#30302f" stroke-miterlimit="10" stroke-width="0.338"/>
    <line id="Línea_446" data-name="Línea 446" x1="0.981" y2="0.84" transform="translate(6.056 8.153)" fill="none" stroke="#30302f" stroke-miterlimit="10" stroke-width="0.338"/>
    <line id="Línea_447" data-name="Línea 447" x1="2.001" y2="1.735" transform="translate(8.117 9.619)" fill="none" stroke="#30302f" stroke-miterlimit="10" stroke-width="0.338"/>
    <line id="Línea_448" data-name="Línea 448" x1="0.981" y2="0.84" transform="translate(10.118 12.796)" fill="none" stroke="#30302f" stroke-miterlimit="10" stroke-width="0.338"/>
    <line id="Línea_449" data-name="Línea 449" x1="2.001" y2="1.735" transform="translate(12.16 14.124)" fill="none" stroke="#30302f" stroke-miterlimit="10" stroke-width="0.338"/>
    <line id="Línea_450" data-name="Línea 450" x1="0.981" y2="0.84" transform="translate(14.082 17.301)" fill="none" stroke="#30302f" stroke-miterlimit="10" stroke-width="0.338"/>
    <line id="Línea_451" data-name="Línea 451" x1="2.001" y2="1.735" transform="translate(15.906 18.561)" fill="none" stroke="#30302f" stroke-miterlimit="10" stroke-width="0.338"/>
    <line id="Línea_452" data-name="Línea 452" x1="0.981" y2="0.84" transform="translate(17.991 21.641)" fill="none" stroke="#30302f" stroke-miterlimit="10" stroke-width="0.338"/>
  </g>
  <g id="Grupo_56034" data-name="Grupo 56034" transform="translate(115.583 126.38)">
    <line id="Línea_453" data-name="Línea 453" x1="1.93" y2="1.814" fill="none" stroke="#30302f" stroke-miterlimit="10" stroke-width="0.338"/>
    <line id="Línea_454" data-name="Línea 454" x1="0.946" y2="0.879" transform="translate(2.012 3.138)" fill="none" stroke="#30302f" stroke-miterlimit="10" stroke-width="0.338"/>
    <line id="Línea_455" data-name="Línea 455" x1="1.93" y2="1.814" transform="translate(4.33 4.807)" fill="none" stroke="#30302f" stroke-miterlimit="10" stroke-width="0.338"/>
    <line id="Línea_456" data-name="Línea 456" x1="0.946" y2="0.879" transform="translate(6.342 7.945)" fill="none" stroke="#30302f" stroke-miterlimit="10" stroke-width="0.338"/>
    <line id="Línea_457" data-name="Línea 457" x1="1.93" y2="1.814" transform="translate(8.495 9.286)" fill="none" stroke="#30302f" stroke-miterlimit="10" stroke-width="0.338"/>
    <line id="Línea_458" data-name="Línea 458" x1="0.946" y2="0.879" transform="translate(10.587 12.421)" fill="none" stroke="#30302f" stroke-miterlimit="10" stroke-width="0.338"/>
    <line id="Línea_459" data-name="Línea 459" x1="1.93" y2="1.814" transform="translate(12.716 13.626)" fill="none" stroke="#30302f" stroke-miterlimit="10" stroke-width="0.338"/>
    <line id="Línea_460" data-name="Línea 460" x1="0.946" y2="0.879" transform="translate(14.728 16.764)" fill="none" stroke="#30302f" stroke-miterlimit="10" stroke-width="0.338"/>
    <line id="Línea_461" data-name="Línea 461" x1="1.93" y2="1.814" transform="translate(16.636 17.909)" fill="none" stroke="#30302f" stroke-miterlimit="10" stroke-width="0.338"/>
    <line id="Línea_462" data-name="Línea 462" x1="0.946" y2="0.879" transform="translate(18.807 20.945)" fill="none" stroke="#30302f" stroke-miterlimit="10" stroke-width="0.338"/>
  </g>
  <g id="Grupo_56035" data-name="Grupo 56035" transform="translate(137.016 148.719)">
    <line id="Línea_463" data-name="Línea 463" x1="1.769" y2="1.972" fill="none" stroke="#30302f" stroke-miterlimit="10" stroke-width="0.338"/>
    <line id="Línea_464" data-name="Línea 464" x1="0.868" y2="0.956" transform="translate(2.192 3.04)" fill="none" stroke="#30302f" stroke-miterlimit="10" stroke-width="0.338"/>
    <line id="Línea_465" data-name="Línea 465" x1="1.769" y2="1.972" transform="translate(4.723 4.42)" fill="none" stroke="#30302f" stroke-miterlimit="10" stroke-width="0.338"/>
    <line id="Línea_466" data-name="Línea 466" x1="0.868" y2="0.956" transform="translate(6.916 7.46)" fill="none" stroke="#30302f" stroke-miterlimit="10" stroke-width="0.338"/>
    <line id="Línea_467" data-name="Línea 467" x1="1.769" y2="1.972" transform="translate(9.255 8.529)" fill="none" stroke="#30302f" stroke-miterlimit="10" stroke-width="0.338"/>
    <line id="Línea_468" data-name="Línea 468" x1="0.868" y2="0.956" transform="translate(11.526 11.558)" fill="none" stroke="#30302f" stroke-miterlimit="10" stroke-width="0.338"/>
    <line id="Línea_469" data-name="Línea 469" x1="1.769" y2="1.972" transform="translate(13.83 12.494)" fill="none" stroke="#30302f" stroke-miterlimit="10" stroke-width="0.338"/>
    <line id="Línea_470" data-name="Línea 470" x1="0.868" y2="0.956" transform="translate(16.022 15.533)" fill="none" stroke="#30302f" stroke-miterlimit="10" stroke-width="0.338"/>
    <line id="Línea_471" data-name="Línea 471" x1="1.769" y2="1.972" transform="translate(18.101 16.427)" fill="none" stroke="#30302f" stroke-miterlimit="10" stroke-width="0.338"/>
    <line id="Línea_472" data-name="Línea 472" x1="0.868" y2="0.956" transform="translate(20.442 19.351)" fill="none" stroke="#30302f" stroke-miterlimit="10" stroke-width="0.338"/>
  </g>
  <g id="Grupo_56036" data-name="Grupo 56036" transform="translate(162.925 156.864)">
    <line id="Línea_473" data-name="Línea 473" x2="1.333" y2="2.289" transform="translate(0 12.651)" fill="none" stroke="#30302f" stroke-miterlimit="10" stroke-width="0.338"/>
    <line id="Línea_474" data-name="Línea 474" x2="0.643" y2="1.12" transform="translate(3.29 12.356)" fill="none" stroke="#30302f" stroke-miterlimit="10" stroke-width="0.338"/>
    <line id="Línea_475" data-name="Línea 475" x2="1.333" y2="2.289" transform="translate(5.658 9.514)" fill="none" stroke="#30302f" stroke-miterlimit="10" stroke-width="0.338"/>
    <line id="Línea_476" data-name="Línea 476" x2="0.643" y2="1.12" transform="translate(8.947 9.219)" fill="none" stroke="#30302f" stroke-miterlimit="10" stroke-width="0.338"/>
    <line id="Línea_477" data-name="Línea 477" x2="1.333" y2="2.289" transform="translate(10.96 6.463)" fill="none" stroke="#30302f" stroke-miterlimit="10" stroke-width="0.338"/>
    <line id="Línea_478" data-name="Línea 478" x2="0.643" y2="1.12" transform="translate(14.264 6.091)" fill="none" stroke="#30302f" stroke-miterlimit="10" stroke-width="0.338"/>
    <line id="Línea_479" data-name="Línea 479" x2="1.333" y2="2.289" transform="translate(16.139 3.329)" fill="none" stroke="#30302f" stroke-miterlimit="10" stroke-width="0.338"/>
    <line id="Línea_480" data-name="Línea 480" x2="0.643" y2="1.12" transform="translate(19.428 3.033)" fill="none" stroke="#30302f" stroke-miterlimit="10" stroke-width="0.338"/>
    <line id="Línea_481" data-name="Línea 481" x2="1.333" y2="2.289" transform="translate(21.194 0.472)" fill="none" stroke="#30302f" stroke-miterlimit="10" stroke-width="0.338"/>
    <line id="Línea_482" data-name="Línea 482" x2="0.643" y2="1.12" transform="translate(24.419)" fill="none" stroke="#30302f" stroke-miterlimit="10" stroke-width="0.338"/>
  </g>
  <g id="Grupo_56037" data-name="Grupo 56037" transform="translate(189.05 131.781)">
    <line id="Línea_483" data-name="Línea 483" x2="1.333" y2="2.289" transform="translate(0 22.188)" fill="none" stroke="#30302f" stroke-miterlimit="10" stroke-width="0.338"/>
    <line id="Línea_484" data-name="Línea 484" x2="0.643" y2="1.12" transform="translate(3.289 21.893)" fill="none" stroke="#30302f" stroke-miterlimit="10" stroke-width="0.338"/>
    <line id="Línea_485" data-name="Línea 485" x2="1.333" y2="2.289" transform="translate(5.658 19.051)" fill="none" stroke="#30302f" stroke-miterlimit="10" stroke-width="0.338"/>
    <line id="Línea_486" data-name="Línea 486" x2="0.643" y2="1.12" transform="translate(8.947 18.756)" fill="none" stroke="#30302f" stroke-miterlimit="10" stroke-width="0.338"/>
    <line id="Línea_487" data-name="Línea 487" x2="1.333" y2="2.289" transform="translate(10.96 16)" fill="none" stroke="#30302f" stroke-miterlimit="10" stroke-width="0.338"/>
    <line id="Línea_488" data-name="Línea 488" x2="0.643" y2="1.12" transform="translate(14.264 15.628)" fill="none" stroke="#30302f" stroke-miterlimit="10" stroke-width="0.338"/>
    <line id="Línea_489" data-name="Línea 489" x2="1.333" y2="2.289" transform="translate(16.139 12.866)" fill="none" stroke="#30302f" stroke-miterlimit="10" stroke-width="0.338"/>
    <line id="Línea_490" data-name="Línea 490" x2="0.643" y2="1.12" transform="translate(19.428 12.57)" fill="none" stroke="#30302f" stroke-miterlimit="10" stroke-width="0.338"/>
    <line id="Línea_491" data-name="Línea 491" x2="1.333" y2="2.289" transform="translate(21.194 10.009)" fill="none" stroke="#30302f" stroke-miterlimit="10" stroke-width="0.338"/>
    <line id="Línea_492" data-name="Línea 492" x2="0.643" y2="1.12" transform="translate(24.419 9.537)" fill="none" stroke="#30302f" stroke-miterlimit="10" stroke-width="0.338"/>
    <line id="Línea_493" data-name="Línea 493" x2="1.415" y2="2.239" transform="translate(26.348 6.749)" fill="none" stroke="#30302f" stroke-miterlimit="10" stroke-width="0.338"/>
    <line id="Línea_494" data-name="Línea 494" x2="0.683" y2="1.096" transform="translate(29.804 6.455)" fill="none" stroke="#30302f" stroke-miterlimit="10" stroke-width="0.338"/>
    <line id="Línea_495" data-name="Línea 495" x2="1.415" y2="2.239" transform="translate(31.577 3.626)" fill="none" stroke="#30302f" stroke-miterlimit="10" stroke-width="0.338"/>
    <line id="Línea_496" data-name="Línea 496" x2="0.683" y2="1.096" transform="translate(34.853 3.212)" fill="none" stroke="#30302f" stroke-miterlimit="10" stroke-width="0.338"/>
    <line id="Línea_497" data-name="Línea 497" x2="1.415" y2="2.239" transform="translate(36.526 0.588)" fill="none" stroke="#30302f" stroke-miterlimit="10" stroke-width="0.338"/>
    <line id="Línea_498" data-name="Línea 498" x2="0.683" y2="1.096" transform="translate(39.732)" fill="none" stroke="#30302f" stroke-miterlimit="10" stroke-width="0.338"/>
  </g>
</svg>
