<svg xmlns="http://www.w3.org/2000/svg" width="64" height="64" viewBox="0 0 64 64">
  <g id="Grupo_56899" data-name="Grupo 56899" transform="translate(-1057 -820.789)">
    <g id="Grupo_53373" data-name="Grupo 53373" transform="translate(197 -1119.211)">
      <rect id="Rectángulo_5068" data-name="Rectángulo 5068" width="64" height="64" transform="translate(860 1940)" fill="none"/>
    </g>
    <path id="Trazado_105382" data-name="Trazado 105382" d="M471.01,214.622h-.8v-20.89a3.6,3.6,0,0,0,1.408-2.86v-3.228a2.23,2.23,0,0,0-.507-1.412l-3.541-4.291a1.63,1.63,0,0,0,.076-.5V174.2A1.643,1.643,0,0,0,466,172.561H438.558a1.644,1.644,0,0,0-1.643,1.643v7.243a1.638,1.638,0,0,0,.078.5l-3.541,4.288a2.222,2.222,0,0,0-.509,1.414v3.228a3.6,3.6,0,0,0,1.41,2.86v20.89h-.8a1.413,1.413,0,0,0-1.41,1.412v2.813a1.412,1.412,0,0,0,1.41,1.411h37.46a1.412,1.412,0,0,0,1.411-1.411v-2.813A1.413,1.413,0,0,0,471.01,214.622ZM439.287,179.95a1.3,1.3,0,0,0,.763.767h-.763Zm19.219-.328a1.188,1.188,0,0,0-1.187-1.185H441.567v-1.224h21.427v1.224h-2.482a1.185,1.185,0,0,0-.455,2.28h-2.281A1.188,1.188,0,0,0,458.506,179.622Zm6.769.335v.76h-.764A1.306,1.306,0,0,0,465.275,179.956Zm0-4.263a1.3,1.3,0,0,0-.764-.76h.764Zm-25.988.007v-.767h.763A1.3,1.3,0,0,0,439.287,175.7Zm24.767,40.108a1.189,1.189,0,0,0-1.187-1.186h-5.081v-1.928h10.051v1.928H466.06a1.186,1.186,0,0,0,0,2.372h3.99v.892H434.512v-.892h28.355A1.188,1.188,0,0,0,464.054,215.808ZM440.2,190.872a1.237,1.237,0,0,1-1.236,1.236h-2.418a1.236,1.236,0,0,1-1.234-1.236V188.46H440.2Zm1.935-7.783-1.485,3h-4.007l2.474-3Zm21.768,3-1.483-3h3.018l2.474,3Zm-15.944,16.2a1.185,1.185,0,0,0-1.094.734v-2.288a1.185,1.185,0,0,0,2.28-.451v-1.012h6.264v5.391a1.186,1.186,0,0,0-2.28.458v4.509a1.186,1.186,0,0,0,2.28.459v4.532h-6.264V203.475A1.187,1.187,0,0,0,447.962,202.291Zm-11.239,5.471a1.336,1.336,0,0,0,1.252.892h7.551a1.334,1.334,0,0,0,1.25-.892v2.56H436.724ZM439,206.281v-7.008H444.5v7.008Zm7.817-8.264a1.325,1.325,0,0,0-1.3-1.117h-7.551a1.336,1.336,0,0,0-1.252.89V194.48h2.245a3.59,3.59,0,0,0,2.422-.936,3.589,3.589,0,0,0,2.42.936h2.419a3.589,3.589,0,0,0,2.42-.934,3.592,3.592,0,0,0,2.421.934h2.419a3.587,3.587,0,0,0,2.42-.936,3.593,3.593,0,0,0,2.422.936h2.419a3.586,3.586,0,0,0,2.419-.934,3.6,3.6,0,0,0,2.422.934h2.245v3.305a1.336,1.336,0,0,0-1.252-.885h-7.549a1.312,1.312,0,0,1-2.594,0H448.12A1.328,1.328,0,0,0,446.822,198.017Zm10.964,9.751a1.336,1.336,0,0,0,1.25.885h7.549a1.338,1.338,0,0,0,1.252-.885v2.553H457.786Zm2.28-1.487v-7.008h5.492v7.008Zm1.92-15.409a1.236,1.236,0,0,1-1.234,1.236h-2.419a1.237,1.237,0,0,1-1.236-1.236V188.46h4.889Zm-7.26,0a1.237,1.237,0,0,1-1.236,1.236h-2.419a1.236,1.236,0,0,1-1.234-1.236V188.46h4.889Zm-7.261,0a1.236,1.236,0,0,1-1.234,1.236h-2.419a1.269,1.269,0,0,1-1.234-1.36V188.46h4.888Zm9.453-4.785-.5-3h3.354l1.486,3Zm-13.615,0,1.483-3h3.354l-.494,3Zm24.709,6.02h-2.419a1.236,1.236,0,0,1-1.234-1.236V188.46h4.888v2.412A1.237,1.237,0,0,1,468.012,192.108Zm-17.962-6.02.5-3h3.473l.5,3Zm-3.273,26.606v1.928H436.724v-1.928Z" transform="translate(636.719 656.379)" fill="#f9e478"/>
  </g>
</svg>
