<svg xmlns="http://www.w3.org/2000/svg" width="328.362" height="238.674" viewBox="0 0 328.362 238.674">
  <g id="Grupo_56310" data-name="Grupo 56310" transform="translate(-215.586 -5669.946)">
    <g id="Grupo_56079" data-name="Grupo 56079" transform="translate(279 5678.242)">
      <path id="Trazado_106603" data-name="Trazado 106603" d="M-6003.081,3922.409l-42.667-58.4h-97.179" transform="translate(6155.938 -3854.162)" fill="none" stroke="#636363" stroke-miterlimit="10" stroke-width="1"/>
      <path id="Trazado_107975" data-name="Trazado 107975" d="M4.38-4.753A6.612,6.612,0,0,1,1.747-6.031,2.442,2.442,0,0,1,.923-7.9,2.58,2.58,0,0,1,1.93-9.987a4,4,0,0,1,2.618-.824,4.369,4.369,0,0,1,1.959.425A3.222,3.222,0,0,1,7.841-9.214a3,3,0,0,1,.472,1.633H6.9a1.95,1.95,0,0,0-.615-1.525,2.5,2.5,0,0,0-1.736-.555A2.561,2.561,0,0,0,2.926-9.2a1.53,1.53,0,0,0-.582,1.273,1.376,1.376,0,0,0,.553,1.1A5.424,5.424,0,0,0,4.779-6a8.734,8.734,0,0,1,2.08.825A3.157,3.157,0,0,1,7.972-4.124,2.683,2.683,0,0,1,8.335-2.71,2.492,2.492,0,0,1,7.324-.634a4.31,4.31,0,0,1-2.7.78A5.013,5.013,0,0,1,2.571-.275,3.451,3.451,0,0,1,1.1-1.428,2.815,2.815,0,0,1,.586-3.091H2a1.837,1.837,0,0,0,.714,1.527A3.007,3.007,0,0,0,4.622-1a2.764,2.764,0,0,0,1.707-.454A1.475,1.475,0,0,0,6.921-2.7a1.448,1.448,0,0,0-.549-1.212A6.333,6.333,0,0,0,4.38-4.753ZM11.4,0H10.042V-7.925H11.4ZM9.932-10.027a.809.809,0,0,1,.2-.557.756.756,0,0,1,.6-.227.768.768,0,0,1,.6.227.8.8,0,0,1,.205.557.774.774,0,0,1-.205.549.782.782,0,0,1-.6.22.77.77,0,0,1-.6-.22A.782.782,0,0,1,9.932-10.027Zm4.915,2.1.044,1a2.888,2.888,0,0,1,2.373-1.143q2.512,0,2.534,2.834V0H18.442V-5.244a1.824,1.824,0,0,0-.392-1.267,1.57,1.57,0,0,0-1.2-.41A1.956,1.956,0,0,0,15.7-6.57a2.387,2.387,0,0,0-.776.923V0H13.564V-7.925Zm11.982,0,.037.879a2.927,2.927,0,0,1,2.351-1.025A2.266,2.266,0,0,1,31.479-6.8a3,3,0,0,1,1.029-.923,3.039,3.039,0,0,1,1.5-.352q2.607,0,2.651,2.761V0H35.3V-5.229A1.82,1.82,0,0,0,34.915-6.5a1.71,1.71,0,0,0-1.3-.421,1.8,1.8,0,0,0-1.252.45,1.827,1.827,0,0,0-.579,1.212V0H30.417V-5.193a1.512,1.512,0,0,0-1.692-1.729A1.813,1.813,0,0,0,26.9-5.786V0H25.547V-7.925ZM43.594,0a2.846,2.846,0,0,1-.19-.835,3.023,3.023,0,0,1-2.256.981,2.8,2.8,0,0,1-1.923-.663A2.145,2.145,0,0,1,38.474-2.2a2.24,2.24,0,0,1,.941-1.923A4.437,4.437,0,0,1,42.063-4.8h1.318v-.623a1.522,1.522,0,0,0-.425-1.132A1.707,1.707,0,0,0,41.7-6.98a1.976,1.976,0,0,0-1.216.366A1.079,1.079,0,0,0,40-5.728H38.635a1.87,1.87,0,0,1,.421-1.146A2.874,2.874,0,0,1,40.2-7.749a3.844,3.844,0,0,1,1.586-.322,3.133,3.133,0,0,1,2.146.685A2.47,2.47,0,0,1,44.736-5.5v3.647a4.459,4.459,0,0,0,.278,1.736V0ZM41.345-1.033a2.381,2.381,0,0,0,1.208-.33,1.994,1.994,0,0,0,.828-.857V-3.845H42.319q-2.49,0-2.49,1.458a1.234,1.234,0,0,0,.425,1A1.633,1.633,0,0,0,41.345-1.033Zm6.8-6.892.044,1a2.888,2.888,0,0,1,2.373-1.143q2.512,0,2.534,2.834V0H51.738V-5.244a1.824,1.824,0,0,0-.392-1.267,1.57,1.57,0,0,0-1.2-.41,1.956,1.956,0,0,0-1.157.352,2.387,2.387,0,0,0-.776.923V0H46.86V-7.925Zm6.672,3.9a4.658,4.658,0,0,1,.857-2.948,2.741,2.741,0,0,1,2.271-1.095,2.726,2.726,0,0,1,2.263,1.025l.066-.879h1.238V-.19A3.224,3.224,0,0,1,60.6,2.234a3.365,3.365,0,0,1-2.45.886,4.076,4.076,0,0,1-1.677-.366,2.887,2.887,0,0,1-1.252-1l.7-.813a2.65,2.65,0,0,0,2.131,1.077,2.076,2.076,0,0,0,1.542-.557A2.128,2.128,0,0,0,60.146-.11V-.791a2.785,2.785,0,0,1-2.219.938A2.707,2.707,0,0,1,55.675-.974,4.9,4.9,0,0,1,54.814-4.028Zm1.362.154a3.553,3.553,0,0,0,.549,2.106A1.785,1.785,0,0,0,58.264-1a1.985,1.985,0,0,0,1.882-1.165V-5.786a2.008,2.008,0,0,0-1.868-1.135,1.8,1.8,0,0,0-1.545.769A3.87,3.87,0,0,0,56.177-3.875ZM68.445,0a2.846,2.846,0,0,1-.19-.835A3.023,3.023,0,0,1,66,.146a2.8,2.8,0,0,1-1.923-.663A2.145,2.145,0,0,1,63.325-2.2a2.24,2.24,0,0,1,.941-1.923A4.437,4.437,0,0,1,66.914-4.8h1.318v-.623a1.522,1.522,0,0,0-.425-1.132,1.707,1.707,0,0,0-1.252-.421,1.976,1.976,0,0,0-1.216.366,1.079,1.079,0,0,0-.491.886H63.486a1.87,1.87,0,0,1,.421-1.146,2.874,2.874,0,0,1,1.143-.875,3.844,3.844,0,0,1,1.586-.322,3.133,3.133,0,0,1,2.146.685A2.47,2.47,0,0,1,69.587-5.5v3.647a4.459,4.459,0,0,0,.278,1.736V0ZM66.2-1.033a2.381,2.381,0,0,0,1.208-.33,1.994,1.994,0,0,0,.828-.857V-3.845H67.17q-2.49,0-2.49,1.458a1.234,1.234,0,0,0,.425,1A1.633,1.633,0,0,0,66.2-1.033Z" transform="translate(-64 12)" fill="#515151"/>
      <path id="Trazado_107974" data-name="Trazado 107974" d="M3.054-10.664l3.486,8.7,3.486-8.7h1.824V0H10.444V-4.153l.132-4.482L7.075,0H6L2.5-8.613l.139,4.46V0H1.238V-10.664ZM19.014,0a2.846,2.846,0,0,1-.19-.835,3.023,3.023,0,0,1-2.256.981,2.8,2.8,0,0,1-1.923-.663A2.145,2.145,0,0,1,13.894-2.2a2.24,2.24,0,0,1,.941-1.923A4.437,4.437,0,0,1,17.483-4.8H18.8v-.623a1.522,1.522,0,0,0-.425-1.132,1.707,1.707,0,0,0-1.252-.421,1.976,1.976,0,0,0-1.216.366,1.079,1.079,0,0,0-.491.886H14.055a1.87,1.87,0,0,1,.421-1.146,2.874,2.874,0,0,1,1.143-.875A3.844,3.844,0,0,1,17.2-8.071a3.133,3.133,0,0,1,2.146.685A2.47,2.47,0,0,1,20.156-5.5v3.647a4.459,4.459,0,0,0,.278,1.736V0ZM16.765-1.033a2.381,2.381,0,0,0,1.208-.33,1.994,1.994,0,0,0,.828-.857V-3.845H17.739q-2.49,0-2.49,1.458a1.234,1.234,0,0,0,.425,1A1.633,1.633,0,0,0,16.765-1.033Zm6.8-6.892.044,1a2.888,2.888,0,0,1,2.373-1.143q2.512,0,2.534,2.834V0H27.158V-5.244a1.824,1.824,0,0,0-.392-1.267,1.57,1.57,0,0,0-1.2-.41,1.956,1.956,0,0,0-1.157.352,2.387,2.387,0,0,0-.776.923V0H22.28V-7.925Zm6.672,3.9a4.658,4.658,0,0,1,.857-2.948,2.741,2.741,0,0,1,2.271-1.095,2.726,2.726,0,0,1,2.263,1.025l.066-.879h1.238V-.19a3.224,3.224,0,0,1-.912,2.424,3.365,3.365,0,0,1-2.45.886,4.076,4.076,0,0,1-1.677-.366,2.887,2.887,0,0,1-1.252-1l.7-.813a2.65,2.65,0,0,0,2.131,1.077,2.076,2.076,0,0,0,1.542-.557A2.128,2.128,0,0,0,35.566-.11V-.791a2.785,2.785,0,0,1-2.219.938A2.707,2.707,0,0,1,31.095-.974,4.9,4.9,0,0,1,30.234-4.028Zm1.362.154a3.553,3.553,0,0,0,.549,2.106A1.785,1.785,0,0,0,33.684-1a1.985,1.985,0,0,0,1.882-1.165V-5.786A2.008,2.008,0,0,0,33.7-6.921a1.8,1.8,0,0,0-1.545.769A3.87,3.87,0,0,0,31.6-3.875ZM43.865,0a2.846,2.846,0,0,1-.19-.835,3.023,3.023,0,0,1-2.256.981A2.8,2.8,0,0,1,39.5-.516,2.145,2.145,0,0,1,38.745-2.2a2.24,2.24,0,0,1,.941-1.923A4.437,4.437,0,0,1,42.334-4.8h1.318v-.623a1.522,1.522,0,0,0-.425-1.132,1.707,1.707,0,0,0-1.252-.421,1.976,1.976,0,0,0-1.216.366,1.079,1.079,0,0,0-.491.886H38.906a1.87,1.87,0,0,1,.421-1.146,2.874,2.874,0,0,1,1.143-.875,3.844,3.844,0,0,1,1.586-.322,3.133,3.133,0,0,1,2.146.685A2.47,2.47,0,0,1,45.007-5.5v3.647a4.459,4.459,0,0,0,.278,1.736V0ZM41.616-1.033a2.381,2.381,0,0,0,1.208-.33,1.994,1.994,0,0,0,.828-.857V-3.845H42.59q-2.49,0-2.49,1.458a1.234,1.234,0,0,0,.425,1A1.633,1.633,0,0,0,41.616-1.033Zm12.407.073A1.952,1.952,0,0,0,55.291-1.4a1.546,1.546,0,0,0,.6-1.1h1.282A2.457,2.457,0,0,1,56.7-1.2a3.087,3.087,0,0,1-1.154.981,3.329,3.329,0,0,1-1.527.366,3.265,3.265,0,0,1-2.574-1.08,4.3,4.3,0,0,1-.956-2.955v-.227a4.771,4.771,0,0,1,.425-2.058,3.236,3.236,0,0,1,1.219-1.4,3.464,3.464,0,0,1,1.879-.5,3.178,3.178,0,0,1,2.216.8A2.853,2.853,0,0,1,57.173-5.2H55.891a1.867,1.867,0,0,0-.582-1.263,1.811,1.811,0,0,0-1.293-.494,1.9,1.9,0,0,0-1.6.743,3.491,3.491,0,0,0-.568,2.15v.256A3.422,3.422,0,0,0,52.412-1.7,1.906,1.906,0,0,0,54.023-.959Zm4.314-3.076A4.681,4.681,0,0,1,58.8-6.13,3.415,3.415,0,0,1,60.07-7.566a3.469,3.469,0,0,1,1.864-.505,3.342,3.342,0,0,1,2.618,1.121,4.311,4.311,0,0,1,1,2.981v.1A4.722,4.722,0,0,1,65.109-1.8,3.365,3.365,0,0,1,63.842-.366a3.509,3.509,0,0,1-1.893.513A3.334,3.334,0,0,1,59.337-.974a4.29,4.29,0,0,1-1-2.966Zm1.362.161a3.39,3.39,0,0,0,.612,2.117,1.957,1.957,0,0,0,1.637.8,1.945,1.945,0,0,0,1.641-.809A3.707,3.707,0,0,0,64.2-4.036a3.384,3.384,0,0,0-.619-2.113,1.968,1.968,0,0,0-1.644-.809,1.946,1.946,0,0,0-1.619.8A3.68,3.68,0,0,0,59.7-3.875Zm7.222-.154a4.651,4.651,0,0,1,.857-2.955,2.777,2.777,0,0,1,2.3-1.088,2.775,2.775,0,0,1,2.219.945l.059-.8H73.6V3.047H72.246V-.732a2.844,2.844,0,0,1-2.183.879A2.733,2.733,0,0,1,67.775-.97a4.755,4.755,0,0,1-.853-2.963Zm1.355.154a3.526,3.526,0,0,0,.575,2.139A1.829,1.829,0,0,0,70.4-.959a2.029,2.029,0,0,0,1.846-1.069V-5.911a2.035,2.035,0,0,0-1.831-1.047,1.843,1.843,0,0,0-1.56.78A3.838,3.838,0,0,0,68.276-3.875ZM80.669-.784a2.878,2.878,0,0,1-2.322.93,2.464,2.464,0,0,1-1.93-.736,3.186,3.186,0,0,1-.67-2.179V-7.925H77.1v5.12Q77.1-1,78.567-1a2.028,2.028,0,0,0,2.065-1.157V-7.925h1.355V0H80.7Zm6.665.93A3.463,3.463,0,0,1,84.712-.912,3.928,3.928,0,0,1,83.7-3.743v-.249a4.756,4.756,0,0,1,.45-2.106,3.514,3.514,0,0,1,1.26-1.45,3.167,3.167,0,0,1,1.754-.524,2.968,2.968,0,0,1,2.4,1.018,4.408,4.408,0,0,1,.857,2.915v.564H85.056a2.817,2.817,0,0,0,.685,1.893,2.153,2.153,0,0,0,1.666.721,2.36,2.36,0,0,0,1.216-.293,3.055,3.055,0,0,0,.872-.776l.828.645A3.328,3.328,0,0,1,87.334.146Zm-.168-7.1a1.807,1.807,0,0,0-1.377.6A2.9,2.9,0,0,0,85.1-4.687h3.97v-.1a2.581,2.581,0,0,0-.557-1.6A1.7,1.7,0,0,0,87.166-6.958Zm6.665-2.886v1.919H95.31v1.047H93.831v4.921a1.1,1.1,0,0,0,.2.715A.832.832,0,0,0,94.7-1a3.281,3.281,0,0,0,.645-.088V0a3.951,3.951,0,0,1-1.04.146A1.687,1.687,0,0,1,92.937-.4a2.36,2.36,0,0,1-.461-1.56V-6.877H91.033V-7.925h1.443V-9.844ZM101.785,0a2.846,2.846,0,0,1-.19-.835,3.023,3.023,0,0,1-2.256.981,2.8,2.8,0,0,1-1.923-.663A2.145,2.145,0,0,1,96.665-2.2a2.24,2.24,0,0,1,.941-1.923,4.437,4.437,0,0,1,2.648-.685h1.318v-.623a1.522,1.522,0,0,0-.425-1.132A1.707,1.707,0,0,0,99.9-6.98a1.976,1.976,0,0,0-1.216.366,1.079,1.079,0,0,0-.491.886H96.826a1.87,1.87,0,0,1,.421-1.146,2.874,2.874,0,0,1,1.143-.875,3.844,3.844,0,0,1,1.586-.322,3.133,3.133,0,0,1,2.146.685,2.47,2.47,0,0,1,.806,1.886v3.647a4.459,4.459,0,0,0,.278,1.736V0ZM99.536-1.033a2.381,2.381,0,0,0,1.208-.33,1.994,1.994,0,0,0,.828-.857V-3.845H100.51q-2.49,0-2.49,1.458a1.234,1.234,0,0,0,.425,1A1.633,1.633,0,0,0,99.536-1.033Z" transform="translate(-64 37.209)" fill="#515151"/>
      <path id="Trazado_107973" data-name="Trazado 107973" d="M3.054-10.664l3.486,8.7,3.486-8.7h1.824V0H10.444V-4.153l.132-4.482L7.075,0H6L2.5-8.613l.139,4.46V0H1.238V-10.664ZM19.014,0a2.846,2.846,0,0,1-.19-.835,3.023,3.023,0,0,1-2.256.981,2.8,2.8,0,0,1-1.923-.663A2.145,2.145,0,0,1,13.894-2.2a2.24,2.24,0,0,1,.941-1.923A4.437,4.437,0,0,1,17.483-4.8H18.8v-.623a1.522,1.522,0,0,0-.425-1.132,1.707,1.707,0,0,0-1.252-.421,1.976,1.976,0,0,0-1.216.366,1.079,1.079,0,0,0-.491.886H14.055a1.87,1.87,0,0,1,.421-1.146,2.874,2.874,0,0,1,1.143-.875A3.844,3.844,0,0,1,17.2-8.071a3.133,3.133,0,0,1,2.146.685A2.47,2.47,0,0,1,20.156-5.5v3.647a4.459,4.459,0,0,0,.278,1.736V0ZM16.765-1.033a2.381,2.381,0,0,0,1.208-.33,1.994,1.994,0,0,0,.828-.857V-3.845H17.739q-2.49,0-2.49,1.458a1.234,1.234,0,0,0,.425,1A1.633,1.633,0,0,0,16.765-1.033Zm6.8-6.892.044,1a2.888,2.888,0,0,1,2.373-1.143q2.512,0,2.534,2.834V0H27.158V-5.244a1.824,1.824,0,0,0-.392-1.267,1.57,1.57,0,0,0-1.2-.41,1.956,1.956,0,0,0-1.157.352,2.387,2.387,0,0,0-.776.923V0H22.28V-7.925Zm6.672,3.9a4.658,4.658,0,0,1,.857-2.948,2.741,2.741,0,0,1,2.271-1.095,2.726,2.726,0,0,1,2.263,1.025l.066-.879h1.238V-.19a3.224,3.224,0,0,1-.912,2.424,3.365,3.365,0,0,1-2.45.886,4.076,4.076,0,0,1-1.677-.366,2.887,2.887,0,0,1-1.252-1l.7-.813a2.65,2.65,0,0,0,2.131,1.077,2.076,2.076,0,0,0,1.542-.557A2.128,2.128,0,0,0,35.566-.11V-.791a2.785,2.785,0,0,1-2.219.938A2.707,2.707,0,0,1,31.095-.974,4.9,4.9,0,0,1,30.234-4.028Zm1.362.154a3.553,3.553,0,0,0,.549,2.106A1.785,1.785,0,0,0,33.684-1a1.985,1.985,0,0,0,1.882-1.165V-5.786A2.008,2.008,0,0,0,33.7-6.921a1.8,1.8,0,0,0-1.545.769A3.87,3.87,0,0,0,31.6-3.875ZM43.865,0a2.846,2.846,0,0,1-.19-.835,3.023,3.023,0,0,1-2.256.981A2.8,2.8,0,0,1,39.5-.516,2.145,2.145,0,0,1,38.745-2.2a2.24,2.24,0,0,1,.941-1.923A4.437,4.437,0,0,1,42.334-4.8h1.318v-.623a1.522,1.522,0,0,0-.425-1.132,1.707,1.707,0,0,0-1.252-.421,1.976,1.976,0,0,0-1.216.366,1.079,1.079,0,0,0-.491.886H38.906a1.87,1.87,0,0,1,.421-1.146,2.874,2.874,0,0,1,1.143-.875,3.844,3.844,0,0,1,1.586-.322,3.133,3.133,0,0,1,2.146.685A2.47,2.47,0,0,1,45.007-5.5v3.647a4.459,4.459,0,0,0,.278,1.736V0ZM41.616-1.033a2.381,2.381,0,0,0,1.208-.33,1.994,1.994,0,0,0,.828-.857V-3.845H42.59q-2.49,0-2.49,1.458a1.234,1.234,0,0,0,.425,1A1.633,1.633,0,0,0,41.616-1.033Zm12.407.073A1.952,1.952,0,0,0,55.291-1.4a1.546,1.546,0,0,0,.6-1.1h1.282A2.457,2.457,0,0,1,56.7-1.2a3.087,3.087,0,0,1-1.154.981,3.329,3.329,0,0,1-1.527.366,3.265,3.265,0,0,1-2.574-1.08,4.3,4.3,0,0,1-.956-2.955v-.227a4.771,4.771,0,0,1,.425-2.058,3.236,3.236,0,0,1,1.219-1.4,3.464,3.464,0,0,1,1.879-.5,3.178,3.178,0,0,1,2.216.8A2.853,2.853,0,0,1,57.173-5.2H55.891a1.867,1.867,0,0,0-.582-1.263,1.811,1.811,0,0,0-1.293-.494,1.9,1.9,0,0,0-1.6.743,3.491,3.491,0,0,0-.568,2.15v.256A3.422,3.422,0,0,0,52.412-1.7,1.906,1.906,0,0,0,54.023-.959Zm4.314-3.076A4.681,4.681,0,0,1,58.8-6.13,3.415,3.415,0,0,1,60.07-7.566a3.469,3.469,0,0,1,1.864-.505,3.342,3.342,0,0,1,2.618,1.121,4.311,4.311,0,0,1,1,2.981v.1A4.722,4.722,0,0,1,65.109-1.8,3.365,3.365,0,0,1,63.842-.366a3.509,3.509,0,0,1-1.893.513A3.334,3.334,0,0,1,59.337-.974a4.29,4.29,0,0,1-1-2.966Zm1.362.161a3.39,3.39,0,0,0,.612,2.117,1.957,1.957,0,0,0,1.637.8,1.945,1.945,0,0,0,1.641-.809A3.707,3.707,0,0,0,64.2-4.036a3.384,3.384,0,0,0-.619-2.113,1.968,1.968,0,0,0-1.644-.809,1.946,1.946,0,0,0-1.619.8A3.68,3.68,0,0,0,59.7-3.875ZM71.082-6.709a4.061,4.061,0,0,0-.667-.051,1.786,1.786,0,0,0-1.809,1.135V0H67.251V-7.925h1.318l.022.916a2.11,2.11,0,0,1,1.89-1.062,1.384,1.384,0,0,1,.6.1Zm3.45-3.135v1.919h1.479v1.047H74.531v4.921a1.1,1.1,0,0,0,.2.715A.832.832,0,0,0,75.4-1a3.281,3.281,0,0,0,.645-.088V0a3.951,3.951,0,0,1-1.04.146A1.687,1.687,0,0,1,73.638-.4a2.36,2.36,0,0,1-.461-1.56V-6.877H71.733V-7.925h1.443V-9.844ZM82.485,0a2.846,2.846,0,0,1-.19-.835,3.023,3.023,0,0,1-2.256.981,2.8,2.8,0,0,1-1.923-.663A2.145,2.145,0,0,1,77.366-2.2a2.24,2.24,0,0,1,.941-1.923A4.437,4.437,0,0,1,80.955-4.8h1.318v-.623a1.522,1.522,0,0,0-.425-1.132A1.707,1.707,0,0,0,80.6-6.98a1.976,1.976,0,0,0-1.216.366,1.079,1.079,0,0,0-.491.886H77.527a1.87,1.87,0,0,1,.421-1.146,2.874,2.874,0,0,1,1.143-.875,3.844,3.844,0,0,1,1.586-.322,3.133,3.133,0,0,1,2.146.685A2.47,2.47,0,0,1,83.628-5.5v3.647a4.459,4.459,0,0,0,.278,1.736V0ZM80.237-1.033a2.381,2.381,0,0,0,1.208-.33,1.994,1.994,0,0,0,.828-.857V-3.845H81.211q-2.49,0-2.49,1.458a1.234,1.234,0,0,0,.425,1A1.633,1.633,0,0,0,80.237-1.033Z" transform="translate(-64 62.018)" fill="#515151"/>
      <path id="Trazado_107972" data-name="Trazado 107972" d="M3.054-10.664l3.486,8.7,3.486-8.7h1.824V0H10.444V-4.153l.132-4.482L7.075,0H6L2.5-8.613l.139,4.46V0H1.238V-10.664ZM19.014,0a2.846,2.846,0,0,1-.19-.835,3.023,3.023,0,0,1-2.256.981,2.8,2.8,0,0,1-1.923-.663A2.145,2.145,0,0,1,13.894-2.2a2.24,2.24,0,0,1,.941-1.923A4.437,4.437,0,0,1,17.483-4.8H18.8v-.623a1.522,1.522,0,0,0-.425-1.132,1.707,1.707,0,0,0-1.252-.421,1.976,1.976,0,0,0-1.216.366,1.079,1.079,0,0,0-.491.886H14.055a1.87,1.87,0,0,1,.421-1.146,2.874,2.874,0,0,1,1.143-.875A3.844,3.844,0,0,1,17.2-8.071a3.133,3.133,0,0,1,2.146.685A2.47,2.47,0,0,1,20.156-5.5v3.647a4.459,4.459,0,0,0,.278,1.736V0ZM16.765-1.033a2.381,2.381,0,0,0,1.208-.33,1.994,1.994,0,0,0,.828-.857V-3.845H17.739q-2.49,0-2.49,1.458a1.234,1.234,0,0,0,.425,1A1.633,1.633,0,0,0,16.765-1.033Zm6.8-6.892.044,1a2.888,2.888,0,0,1,2.373-1.143q2.512,0,2.534,2.834V0H27.158V-5.244a1.824,1.824,0,0,0-.392-1.267,1.57,1.57,0,0,0-1.2-.41,1.956,1.956,0,0,0-1.157.352,2.387,2.387,0,0,0-.776.923V0H22.28V-7.925Zm6.672,3.9a4.658,4.658,0,0,1,.857-2.948,2.741,2.741,0,0,1,2.271-1.095,2.726,2.726,0,0,1,2.263,1.025l.066-.879h1.238V-.19a3.224,3.224,0,0,1-.912,2.424,3.365,3.365,0,0,1-2.45.886,4.076,4.076,0,0,1-1.677-.366,2.887,2.887,0,0,1-1.252-1l.7-.813a2.65,2.65,0,0,0,2.131,1.077,2.076,2.076,0,0,0,1.542-.557A2.128,2.128,0,0,0,35.566-.11V-.791a2.785,2.785,0,0,1-2.219.938A2.707,2.707,0,0,1,31.095-.974,4.9,4.9,0,0,1,30.234-4.028Zm1.362.154a3.553,3.553,0,0,0,.549,2.106A1.785,1.785,0,0,0,33.684-1a1.985,1.985,0,0,0,1.882-1.165V-5.786A2.008,2.008,0,0,0,33.7-6.921a1.8,1.8,0,0,0-1.545.769A3.87,3.87,0,0,0,31.6-3.875ZM43.865,0a2.846,2.846,0,0,1-.19-.835,3.023,3.023,0,0,1-2.256.981A2.8,2.8,0,0,1,39.5-.516,2.145,2.145,0,0,1,38.745-2.2a2.24,2.24,0,0,1,.941-1.923A4.437,4.437,0,0,1,42.334-4.8h1.318v-.623a1.522,1.522,0,0,0-.425-1.132,1.707,1.707,0,0,0-1.252-.421,1.976,1.976,0,0,0-1.216.366,1.079,1.079,0,0,0-.491.886H38.906a1.87,1.87,0,0,1,.421-1.146,2.874,2.874,0,0,1,1.143-.875,3.844,3.844,0,0,1,1.586-.322,3.133,3.133,0,0,1,2.146.685A2.47,2.47,0,0,1,45.007-5.5v3.647a4.459,4.459,0,0,0,.278,1.736V0ZM41.616-1.033a2.381,2.381,0,0,0,1.208-.33,1.994,1.994,0,0,0,.828-.857V-3.845H42.59q-2.49,0-2.49,1.458a1.234,1.234,0,0,0,.425,1A1.633,1.633,0,0,0,41.616-1.033ZM60.659-2.791H56.191L55.188,0h-1.45L57.81-10.664h1.23L63.12,0H61.677ZM56.616-3.94h3.625L58.425-8.928ZM65.815,0H64.46V-11.25h1.355Zm4.006-9.844v1.919H71.3v1.047H69.822v4.921a1.1,1.1,0,0,0,.2.715A.832.832,0,0,0,70.693-1a3.281,3.281,0,0,0,.645-.088V0A3.951,3.951,0,0,1,70.3.146,1.687,1.687,0,0,1,68.928-.4a2.36,2.36,0,0,1-.461-1.56V-6.877H67.024V-7.925h1.443V-9.844ZM72.913-.71a.849.849,0,0,1,.209-.586.8.8,0,0,1,.626-.234.819.819,0,0,1,.634.234A.831.831,0,0,1,74.6-.71a.786.786,0,0,1-.216.564.834.834,0,0,1-.634.227.809.809,0,0,1-.626-.227A.8.8,0,0,1,72.913-.71ZM83.723-.959A1.952,1.952,0,0,0,84.99-1.4a1.546,1.546,0,0,0,.6-1.1h1.282A2.457,2.457,0,0,1,86.4-1.2,3.087,3.087,0,0,1,85.25-.22a3.329,3.329,0,0,1-1.527.366,3.265,3.265,0,0,1-2.574-1.08,4.3,4.3,0,0,1-.956-2.955v-.227a4.771,4.771,0,0,1,.425-2.058,3.236,3.236,0,0,1,1.219-1.4,3.464,3.464,0,0,1,1.879-.5,3.178,3.178,0,0,1,2.216.8A2.853,2.853,0,0,1,86.873-5.2H85.591a1.867,1.867,0,0,0-.582-1.263,1.811,1.811,0,0,0-1.293-.494,1.9,1.9,0,0,0-1.6.743,3.491,3.491,0,0,0-.568,2.15v.256A3.422,3.422,0,0,0,82.112-1.7,1.906,1.906,0,0,0,83.723-.959Zm4.314-3.076a4.681,4.681,0,0,1,.458-2.095,3.415,3.415,0,0,1,1.274-1.436,3.469,3.469,0,0,1,1.864-.505,3.342,3.342,0,0,1,2.618,1.121,4.311,4.311,0,0,1,1,2.981v.1A4.722,4.722,0,0,1,94.808-1.8,3.365,3.365,0,0,1,93.541-.366a3.509,3.509,0,0,1-1.893.513A3.334,3.334,0,0,1,89.037-.974a4.29,4.29,0,0,1-1-2.966Zm1.362.161a3.39,3.39,0,0,0,.612,2.117,1.957,1.957,0,0,0,1.637.8,1.945,1.945,0,0,0,1.641-.809A3.707,3.707,0,0,0,93.9-4.036a3.384,3.384,0,0,0-.619-2.113,1.968,1.968,0,0,0-1.644-.809,1.946,1.946,0,0,0-1.619.8A3.68,3.68,0,0,0,89.4-3.875Zm7.222-.154a4.642,4.642,0,0,1,.864-2.933,2.733,2.733,0,0,1,2.263-1.11,2.748,2.748,0,0,1,2.2.952V-11.25h1.355V0h-1.245L102-.85a2.759,2.759,0,0,1-2.263,1A2.707,2.707,0,0,1,97.489-.981a4.7,4.7,0,0,1-.868-2.944Zm1.355.154a3.515,3.515,0,0,0,.557,2.109A1.8,1.8,0,0,0,100.071-1a1.977,1.977,0,0,0,1.882-1.157V-5.8a1.992,1.992,0,0,0-1.868-1.121,1.808,1.808,0,0,0-1.553.769A3.87,3.87,0,0,0,97.976-3.875Zm7.075-.161a4.681,4.681,0,0,1,.458-2.095,3.415,3.415,0,0,1,1.274-1.436,3.469,3.469,0,0,1,1.864-.505,3.342,3.342,0,0,1,2.618,1.121,4.311,4.311,0,0,1,1,2.981v.1a4.722,4.722,0,0,1-.443,2.076,3.365,3.365,0,0,1-1.267,1.432,3.509,3.509,0,0,1-1.893.513,3.334,3.334,0,0,1-2.611-1.121,4.29,4.29,0,0,1-1-2.966Zm1.362.161a3.39,3.39,0,0,0,.612,2.117,1.957,1.957,0,0,0,1.637.8,1.945,1.945,0,0,0,1.641-.809,3.707,3.707,0,0,0,.608-2.267,3.384,3.384,0,0,0-.619-2.113,1.968,1.968,0,0,0-1.644-.809,1.946,1.946,0,0,0-1.619.8A3.68,3.68,0,0,0,106.414-3.875Z" transform="translate(-64 87.872)" fill="#515151"/>
      <path id="Trazado_107971" data-name="Trazado 107971" d="M3.054-10.664l3.486,8.7,3.486-8.7h1.824V0H10.444V-4.153l.132-4.482L7.075,0H6L2.5-8.613l.139,4.46V0H1.238V-10.664ZM19.014,0a2.846,2.846,0,0,1-.19-.835,3.023,3.023,0,0,1-2.256.981,2.8,2.8,0,0,1-1.923-.663A2.145,2.145,0,0,1,13.894-2.2a2.24,2.24,0,0,1,.941-1.923A4.437,4.437,0,0,1,17.483-4.8H18.8v-.623a1.522,1.522,0,0,0-.425-1.132,1.707,1.707,0,0,0-1.252-.421,1.976,1.976,0,0,0-1.216.366,1.079,1.079,0,0,0-.491.886H14.055a1.87,1.87,0,0,1,.421-1.146,2.874,2.874,0,0,1,1.143-.875A3.844,3.844,0,0,1,17.2-8.071a3.133,3.133,0,0,1,2.146.685A2.47,2.47,0,0,1,20.156-5.5v3.647a4.459,4.459,0,0,0,.278,1.736V0ZM16.765-1.033a2.381,2.381,0,0,0,1.208-.33,1.994,1.994,0,0,0,.828-.857V-3.845H17.739q-2.49,0-2.49,1.458a1.234,1.234,0,0,0,.425,1A1.633,1.633,0,0,0,16.765-1.033Zm6.8-6.892.044,1a2.888,2.888,0,0,1,2.373-1.143q2.512,0,2.534,2.834V0H27.158V-5.244a1.824,1.824,0,0,0-.392-1.267,1.57,1.57,0,0,0-1.2-.41,1.956,1.956,0,0,0-1.157.352,2.387,2.387,0,0,0-.776.923V0H22.28V-7.925Zm6.672,3.9a4.658,4.658,0,0,1,.857-2.948,2.741,2.741,0,0,1,2.271-1.095,2.726,2.726,0,0,1,2.263,1.025l.066-.879h1.238V-.19a3.224,3.224,0,0,1-.912,2.424,3.365,3.365,0,0,1-2.45.886,4.076,4.076,0,0,1-1.677-.366,2.887,2.887,0,0,1-1.252-1l.7-.813a2.65,2.65,0,0,0,2.131,1.077,2.076,2.076,0,0,0,1.542-.557A2.128,2.128,0,0,0,35.566-.11V-.791a2.785,2.785,0,0,1-2.219.938A2.707,2.707,0,0,1,31.095-.974,4.9,4.9,0,0,1,30.234-4.028Zm1.362.154a3.553,3.553,0,0,0,.549,2.106A1.785,1.785,0,0,0,33.684-1a1.985,1.985,0,0,0,1.882-1.165V-5.786A2.008,2.008,0,0,0,33.7-6.921a1.8,1.8,0,0,0-1.545.769A3.87,3.87,0,0,0,31.6-3.875ZM43.865,0a2.846,2.846,0,0,1-.19-.835,3.023,3.023,0,0,1-2.256.981A2.8,2.8,0,0,1,39.5-.516,2.145,2.145,0,0,1,38.745-2.2a2.24,2.24,0,0,1,.941-1.923A4.437,4.437,0,0,1,42.334-4.8h1.318v-.623a1.522,1.522,0,0,0-.425-1.132,1.707,1.707,0,0,0-1.252-.421,1.976,1.976,0,0,0-1.216.366,1.079,1.079,0,0,0-.491.886H38.906a1.87,1.87,0,0,1,.421-1.146,2.874,2.874,0,0,1,1.143-.875,3.844,3.844,0,0,1,1.586-.322,3.133,3.133,0,0,1,2.146.685A2.47,2.47,0,0,1,45.007-5.5v3.647a4.459,4.459,0,0,0,.278,1.736V0ZM41.616-1.033a2.381,2.381,0,0,0,1.208-.33,1.994,1.994,0,0,0,.828-.857V-3.845H42.59q-2.49,0-2.49,1.458a1.234,1.234,0,0,0,.425,1A1.633,1.633,0,0,0,41.616-1.033ZM56.4-9.844v1.919h1.479v1.047H56.4v4.921a1.1,1.1,0,0,0,.2.715A.832.832,0,0,0,57.268-1a3.281,3.281,0,0,0,.645-.088V0a3.951,3.951,0,0,1-1.04.146A1.687,1.687,0,0,1,55.5-.4a2.36,2.36,0,0,1-.461-1.56V-6.877H53.6V-7.925h1.443V-9.844Zm6.892,3.135a4.061,4.061,0,0,0-.667-.051,1.786,1.786,0,0,0-1.809,1.135V0H59.458V-7.925h1.318l.022.916a2.11,2.11,0,0,1,1.89-1.062,1.384,1.384,0,0,1,.6.1ZM67.822.146A3.463,3.463,0,0,1,65.2-.912a3.928,3.928,0,0,1-1.011-2.831v-.249A4.756,4.756,0,0,1,64.64-6.1a3.514,3.514,0,0,1,1.26-1.45,3.167,3.167,0,0,1,1.754-.524,2.968,2.968,0,0,1,2.4,1.018,4.408,4.408,0,0,1,.857,2.915v.564H65.544a2.817,2.817,0,0,0,.685,1.893A2.153,2.153,0,0,0,67.9-.959a2.36,2.36,0,0,0,1.216-.293,3.055,3.055,0,0,0,.872-.776l.828.645A3.328,3.328,0,0,1,67.822.146Zm-.168-7.1a1.807,1.807,0,0,0-1.377.6,2.9,2.9,0,0,0-.688,1.674h3.97v-.1A2.581,2.581,0,0,0,69-6.39,1.7,1.7,0,0,0,67.654-6.958ZM77.095-2.1a1,1,0,0,0-.414-.853,3.983,3.983,0,0,0-1.443-.524A6.822,6.822,0,0,1,73.6-4.006a2.324,2.324,0,0,1-.894-.732,1.752,1.752,0,0,1-.289-1.011A2.056,2.056,0,0,1,73.246-7.4a3.218,3.218,0,0,1,2.106-.674,3.311,3.311,0,0,1,2.186.7,2.21,2.21,0,0,1,.839,1.78H77.014a1.223,1.223,0,0,0-.472-.959,1.77,1.77,0,0,0-1.19-.4,1.852,1.852,0,0,0-1.157.322,1.014,1.014,0,0,0-.417.842.822.822,0,0,0,.388.74,4.776,4.776,0,0,0,1.4.476,7.308,7.308,0,0,1,1.644.542,2.4,2.4,0,0,1,.934.758,1.864,1.864,0,0,1,.3,1.08,2.028,2.028,0,0,1-.85,1.7,3.564,3.564,0,0,1-2.2.641A3.991,3.991,0,0,1,73.711-.19a2.74,2.74,0,0,1-1.146-.941,2.268,2.268,0,0,1-.414-1.307h1.355a1.4,1.4,0,0,0,.546,1.08,2.117,2.117,0,0,0,1.344.4,2.185,2.185,0,0,0,1.234-.311A.956.956,0,0,0,77.095-2.1ZM87.107-.959A1.952,1.952,0,0,0,88.374-1.4a1.546,1.546,0,0,0,.6-1.1h1.282a2.457,2.457,0,0,1-.469,1.3,3.087,3.087,0,0,1-1.154.981,3.329,3.329,0,0,1-1.527.366,3.265,3.265,0,0,1-2.574-1.08,4.3,4.3,0,0,1-.956-2.955v-.227A4.771,4.771,0,0,1,84-6.174a3.236,3.236,0,0,1,1.219-1.4,3.464,3.464,0,0,1,1.879-.5,3.178,3.178,0,0,1,2.216.8A2.853,2.853,0,0,1,90.256-5.2H88.975a1.867,1.867,0,0,0-.582-1.263A1.811,1.811,0,0,0,87.1-6.958a1.9,1.9,0,0,0-1.6.743,3.491,3.491,0,0,0-.568,2.15v.256A3.422,3.422,0,0,0,85.5-1.7,1.906,1.906,0,0,0,87.107-.959Zm9.565.176a2.878,2.878,0,0,1-2.322.93,2.464,2.464,0,0,1-1.93-.736,3.186,3.186,0,0,1-.67-2.179V-7.925h1.355v5.12q0,1.8,1.465,1.8a2.028,2.028,0,0,0,2.065-1.157V-7.925h1.355V0H96.7ZM104.941,0a2.846,2.846,0,0,1-.19-.835A3.023,3.023,0,0,1,102.5.146a2.8,2.8,0,0,1-1.923-.663A2.145,2.145,0,0,1,99.822-2.2a2.24,2.24,0,0,1,.941-1.923,4.437,4.437,0,0,1,2.648-.685h1.318v-.623a1.522,1.522,0,0,0-.425-1.132,1.707,1.707,0,0,0-1.252-.421,1.976,1.976,0,0,0-1.216.366,1.079,1.079,0,0,0-.491.886H99.983a1.87,1.87,0,0,1,.421-1.146,2.874,2.874,0,0,1,1.143-.875,3.844,3.844,0,0,1,1.586-.322,3.133,3.133,0,0,1,2.146.685,2.47,2.47,0,0,1,.806,1.886v3.647a4.459,4.459,0,0,0,.278,1.736V0Zm-2.249-1.033a2.381,2.381,0,0,0,1.208-.33,1.994,1.994,0,0,0,.828-.857V-3.845h-1.062q-2.49,0-2.49,1.458a1.234,1.234,0,0,0,.425,1A1.633,1.633,0,0,0,102.693-1.033Zm9.346-5.676a4.061,4.061,0,0,0-.667-.051,1.786,1.786,0,0,0-1.809,1.135V0h-1.355V-7.925h1.318l.022.916a2.11,2.11,0,0,1,1.89-1.062,1.384,1.384,0,0,1,.6.1Zm3.45-3.135v1.919h1.479v1.047h-1.479v4.921a1.1,1.1,0,0,0,.2.715A.832.832,0,0,0,116.36-1,3.281,3.281,0,0,0,117-1.091V0a3.951,3.951,0,0,1-1.04.146,1.687,1.687,0,0,1-1.37-.549,2.36,2.36,0,0,1-.461-1.56V-6.877H112.69V-7.925h1.443V-9.844Zm2.556,5.808A4.681,4.681,0,0,1,118.5-6.13a3.415,3.415,0,0,1,1.274-1.436,3.469,3.469,0,0,1,1.864-.505,3.342,3.342,0,0,1,2.618,1.121,4.311,4.311,0,0,1,1,2.981v.1a4.722,4.722,0,0,1-.443,2.076,3.365,3.365,0,0,1-1.267,1.432,3.509,3.509,0,0,1-1.893.513,3.334,3.334,0,0,1-2.611-1.121,4.29,4.29,0,0,1-1-2.966Zm1.362.161a3.39,3.39,0,0,0,.612,2.117,1.957,1.957,0,0,0,1.637.8,1.945,1.945,0,0,0,1.641-.809,3.707,3.707,0,0,0,.608-2.267,3.384,3.384,0,0,0-.619-2.113,1.968,1.968,0,0,0-1.644-.809,1.946,1.946,0,0,0-1.619.8A3.68,3.68,0,0,0,119.407-3.875ZM131.572-2.1a1,1,0,0,0-.414-.853,3.983,3.983,0,0,0-1.443-.524,6.822,6.822,0,0,1-1.633-.527,2.324,2.324,0,0,1-.894-.732A1.752,1.752,0,0,1,126.9-5.75a2.056,2.056,0,0,1,.824-1.648,3.218,3.218,0,0,1,2.106-.674,3.311,3.311,0,0,1,2.186.7,2.21,2.21,0,0,1,.839,1.78h-1.362a1.223,1.223,0,0,0-.472-.959,1.77,1.77,0,0,0-1.19-.4,1.852,1.852,0,0,0-1.157.322,1.014,1.014,0,0,0-.417.842.822.822,0,0,0,.388.74,4.776,4.776,0,0,0,1.4.476,7.308,7.308,0,0,1,1.644.542,2.4,2.4,0,0,1,.934.758,1.864,1.864,0,0,1,.3,1.08,2.028,2.028,0,0,1-.85,1.7,3.564,3.564,0,0,1-2.2.641,3.991,3.991,0,0,1-1.685-.337,2.74,2.74,0,0,1-1.146-.941,2.268,2.268,0,0,1-.414-1.307h1.355a1.4,1.4,0,0,0,.546,1.08,2.117,2.117,0,0,0,1.344.4,2.185,2.185,0,0,0,1.234-.311A.956.956,0,0,0,131.572-2.1Z" transform="translate(-64 114.646)" fill="#515151"/>
      <path id="Trazado_106604" data-name="Trazado 106604" d="M-6010.581,3961.879l-37.032-62.522h-56.425" transform="translate(6147.765 -3863.155)" fill="none" stroke="#636363" stroke-miterlimit="10" stroke-width="1"/>
      <path id="Trazado_106605" data-name="Trazado 106605" d="M-6022.041,3988.8c-28.47-44.9-35.855-56.323-35.855-56.323h-68.957" transform="translate(6152.669 -3871.073)" fill="none" stroke="#636363" stroke-miterlimit="10" stroke-width="1"/>
      <path id="Trazado_106654" data-name="Trazado 106654" d="M-33.445,0H11.57s1.075-.216,29.4,44.961" transform="translate(87.148 87.108)" fill="none" stroke="#636363" stroke-width="1"/>
      <path id="Trazado_106655" data-name="Trazado 106655" d="M-6088.5,4006.563h26.931l23.144,47.163" transform="translate(6160.701 -3890.432)" fill="none" stroke="#707070" stroke-width="1"/>
    </g>
    <g id="Grupo_56080" data-name="Grupo 56080" transform="translate(396.616 5669.946)">
      <g id="Grupo_56011" data-name="Grupo 56011" transform="translate(0 0)">
        <g id="Grupo_56010" data-name="Grupo 56010">
          <g id="Grupo_56009" data-name="Grupo 56009" transform="translate(6.667)">
            <path id="Trazado_106587" data-name="Trazado 106587" d="M-6024.264,3924.207" transform="translate(6079.174 -3828.821)"/>
            <path id="Trazado_106588" data-name="Trazado 106588" d="M-6077.5,4015.689h12.125l9.614-26.91s2.333-10.224,2.333-13.614.667-9.5.667-9.5l5.057-13.615s3.556,15.281,4.223,20.227,1.445,15.835,0,23-7.9,36.905-7.9,36.905l48.131.742,28.391-1.392-6.665-39.422s-1.2-16.317-.536-18.374,5.186-24.152,5.186-24.152l6.687,20.189s3.444,22.726,4.112,24.56,7.946,21.354,7.946,21.354l12.689-.371-6.577-40.042-2.056-8.558-.833-5.5-4.168-32.4s-3.112-17.837-7.112-21.448-13.169-3.556-13.169-3.556l-19.67-7.057-1.112-18.115-21.837.945-2.834-1.352s.445,17.115-.666,18.448-18.3,5.854-18.3,5.854-10.743-.519-15.78,7.853-7.558,37.933-7.558,37.933l-1.7,18.079s-6.742,20.892-6.742,22.819-1.938,26.466-1.938,26.466" transform="translate(6077.504 -3830.264)" fill="#e7e7e8"/>
            <g id="Grupo_56008" data-name="Grupo 56008" transform="translate(0 47.974)">
              <path id="Trazado_106589" data-name="Trazado 106589" d="M-6027.065,3896.687s10.566,3.76,13.7,3.838c3.535.088,12.964-3.179,12.964-3.179l-1.322-18.7-21.837.945-2.834-1.352S-6027,3891.817-6027.065,3896.687Z" transform="translate(6079.087 -3878.238)" fill="#d3d3d3"/>
              <path id="Trazado_106590" data-name="Trazado 106590" d="M-6053.432,3974.425c0-3.389.667-9.5.667-9.5l5.057-13.613c-3.409-11.094-.889-26.839,1.926-30.988s1.927-11.854,1.927-11.854c.507-1.52-.062-4.229-.8-6.665-2.659.083-10.733.92-14.9,7.85-5.038,8.373-7.558,37.933-7.558,37.933l-1.7,18.078s-6.742,20.893-6.742,22.819-1.938,26.466-1.938,26.466h12.125l9.614-26.91S-6053.432,3977.815-6053.432,3974.425Z" transform="translate(6077.504 -3877.499)" fill="#d3d3d3"/>
              <path id="Trazado_106591" data-name="Trazado 106591" d="M-5954.943,3974.5l-2.055-8.558-.834-5.5-4.168-32.4s-3.111-17.837-7.112-21.449-13.169-3.557-13.169-3.557l-.254-.09c-1.037,2.989-1.825,5.9-1.825,5.9s-.889,7.706,1.925,11.855c2.524,3.718,4.809,16.752,2.8,27.4l.019,1.268,6.5,19.625s3.444,22.726,4.111,24.56,7.7,21.018,7.7,21.018l12.236-7.592Z" transform="translate(6080.423 -3877.463)" fill="#d3d3d3"/>
            </g>
            <path id="Trazado_106592" data-name="Trazado 106592" d="M-6013.149,3831.792l-.26-.018c-8.157-.5-15.431,2.8-17.948,11.06-4.25,13.939,1.189,31.277,1.189,31.277l4.08,8.84c2.318,5.022,9.765,8.223,14.885,6.664a17.252,17.252,0,0,0,6.959-4.689c5.531-5.579,7.3-12.323,8.833-19.82,1.607-7.874,1.886-16.22-1.8-23.584a17.16,17.16,0,0,0-6.59-7.258A21.484,21.484,0,0,0-6013.149,3831.792Z" transform="translate(6078.901 -3831.724)" fill="#e7e7e8"/>
            <line id="Línea_403" data-name="Línea 403" y2="53.292" transform="translate(65.269 2.312)" fill="none" stroke="#a8a8a8" stroke-linecap="round" stroke-linejoin="round" stroke-width="0.76" stroke-dasharray="1.901"/>
            <line id="Línea_404" data-name="Línea 404" y2="106.677" transform="translate(65.269 78.944)" fill="none" stroke="#a8a8a8" stroke-linecap="round" stroke-linejoin="round" stroke-width="0.76" stroke-dasharray="1.901"/>
            <path id="Trazado_106593" data-name="Trazado 106593" d="M-6050.124,3936.711s59.344,3.335,73.125,0" transform="translate(6078.363 -3828.428)" fill="none" stroke="#a8a8a8" stroke-linecap="round" stroke-linejoin="round" stroke-width="0.76" stroke-dasharray="1.901"/>
            <path id="Trazado_106594" data-name="Trazado 106594" d="M-5983.9,3981.1s-40.674,2.667-58.676,0" transform="translate(6078.6 -3827.036)" fill="none" stroke="#a8a8a8" stroke-linecap="round" stroke-linejoin="round" stroke-width="0.76" stroke-dasharray="1.901"/>
            <path id="Trazado_106595" data-name="Trazado 106595" d="M-6027.855,3885.422" transform="translate(6079.062 -3830.038)" fill="none" stroke="#e7e7e8" stroke-linecap="round" stroke-linejoin="round" stroke-width="0.76"/>
            <circle id="Elipse_4154" data-name="Elipse 4154" cx="0.919" cy="0.919" r="0.919" transform="translate(64.542 73.193)" fill="#e7e7e8"/>
            <path id="Trazado_106596" data-name="Trazado 106596" d="M-6032.293,3859.923s20.378,8.178,37.278,0" transform="translate(6078.924 -3830.839)" fill="none" stroke="#a8a8a8" stroke-linecap="round" stroke-linejoin="round" stroke-width="0.735" stroke-dasharray="1.837"/>
          </g>
          <path id="Trazado_106597" data-name="Trazado 106597" d="M-6070.41,4002.251l5.233,9.545s-4.9,12.9-5.233,13.237-1.889,8.557,0,11,3.111,8.779,3.111,8.779v5.779a20.3,20.3,0,0,1-.954,3.891c-.379.444-2.046,1.667-2.269,0s-.808-4.668-.808-4.668-1.081-3.223-1.415-3.223-4.446.111-3.333,1.889a57.185,57.185,0,0,0,3.778,4.89s3.89,3.223,4.223,3.557a5.044,5.044,0,0,1,1,2.445,6.941,6.941,0,0,1,.11,2.556c-.221.333-.889,1.555-.889,1.555s-1.667,1.668-2.111,1.556-10.445-12.558-10.445-12.558l-3.557-10.891,3.445-12.558,3.778-24.783Z" transform="translate(6083.968 -3826.372)" fill="#d3d3d3"/>
          <path id="Trazado_106598" data-name="Trazado 106598" d="M-5956.576,4001.568l-5.579,9.546s5.224,12.9,5.579,13.235,2.015,8.558,0,11-3.317,8.779-3.317,8.779v5.779s.613,3.445,1.018,3.889,2.181,1.668,2.418,0,.861-4.667.861-4.667,1.152-3.223,1.508-3.223,4.74.111,3.554,1.889a57.886,57.886,0,0,1-4.027,4.891s-4.147,3.223-4.5,3.556a4.894,4.894,0,0,0-1.065,2.444c-.119,1-.356,2.223-.119,2.557s.948,1.555.948,1.555,1.777,1.667,2.25,1.556,11.137-12.558,11.137-12.558l3.792-10.892-3.673-12.558-4.027-24.782Z" transform="translate(6087.791 -3826.394)" fill="#d3d3d3"/>
        </g>
        <path id="Trazado_106599" data-name="Trazado 106599" d="M-6029.8,3895.918l-21.1,7.254s-9.8-1.252-16.021,24.53a332.037,332.037,0,0,0-7.689,52.009l-8.283,46.453,16.417,3.335,14.892-51.566,2.485-19.373v-1.3l1.516,10.225-4.223,37.4,78.9-1.318-3.073-41.574,3.073,10.163,15.78,56.011,20.449-2.891-14.668-63.283s-8.447-51.4-13.988-55.253c-2.38-1.653-30.466-10.821-30.466-10.821s-2.223,11.854-12.743,11.632S-6029.429,3904.068-6029.8,3895.918Z" transform="translate(6084.002 -3829.709)" fill="#86bec4"/>
        <path id="Trazado_106600" data-name="Trazado 106600" d="M-6050.124,3904.472s8.184,12.294,2.184,42.744" transform="translate(6085.03 -3829.44)" fill="none" stroke="#e7fcfe" stroke-linecap="round" stroke-linejoin="round" stroke-width="0.76" stroke-dasharray="1.901"/>
        <line id="Línea_405" data-name="Línea 405" x2="16.921" y2="4.001" transform="translate(6.667 172.526)" fill="none" stroke="#e7fcfe" stroke-linecap="round" stroke-linejoin="round" stroke-width="0.76" stroke-dasharray="1.901"/>
        <line id="Línea_406" data-name="Línea 406" x2="18.67" y2="4.001" transform="translate(12.638 141.908)" fill="none" stroke="#e7fcfe" stroke-linecap="round" stroke-linejoin="round" stroke-width="0.76" stroke-dasharray="1.901"/>
        <line id="Línea_407" data-name="Línea 407" x2="18.967" y2="3.704" transform="translate(15.127 126.999)" fill="none" stroke="#e7fcfe" stroke-linecap="round" stroke-linejoin="round" stroke-width="0.76" stroke-dasharray="1.901"/>
        <line id="Línea_408" data-name="Línea 408" x2="16.342" y2="16.892" transform="translate(17.752 105.995)" fill="none" stroke="#e7fcfe" stroke-linecap="round" stroke-linejoin="round" stroke-width="0.76" stroke-dasharray="1.901"/>
        <path id="Trazado_106601" data-name="Trazado 106601" d="M-5978.753,3904.472s-8.184,12.294-2.183,42.744" transform="translate(6087.133 -3829.44)" fill="none" stroke="#c0dee1" stroke-linecap="round" stroke-linejoin="round" stroke-width="0.76" stroke-dasharray="1.901"/>
        <line id="Línea_409" data-name="Línea 409" x1="16.921" y2="4.001" transform="translate(123.57 171.856)" fill="none" stroke="#c0dee1" stroke-linecap="round" stroke-linejoin="round" stroke-width="0.76" stroke-dasharray="1.901"/>
        <line id="Línea_410" data-name="Línea 410" x1="18.67" y2="4.001" transform="translate(114.235 141.908)" fill="none" stroke="#c0dee1" stroke-linecap="round" stroke-linejoin="round" stroke-width="0.76" stroke-dasharray="1.901"/>
        <line id="Línea_411" data-name="Línea 411" x1="18.967" y2="3.704" transform="translate(109.192 126.999)" fill="none" stroke="#c0dee1" stroke-linecap="round" stroke-linejoin="round" stroke-width="0.76" stroke-dasharray="1.901"/>
        <line id="Línea_412" data-name="Línea 412" x1="16.342" y2="16.892" transform="translate(109.192 105.995)" fill="none" stroke="#c0dee1" stroke-linecap="round" stroke-linejoin="round" stroke-width="0.76" stroke-dasharray="1.901"/>
        <path id="Trazado_106602" data-name="Trazado 106602" d="M-6052.084,4027.52l-3.216,20.867v15.886h83.534v-15.651l-3.8-21.753Z" transform="translate(6084.868 -3825.6)" fill="#e7e7e8"/>
      </g>
    </g>
  </g>
</svg>
