<svg xmlns="http://www.w3.org/2000/svg" width="64" height="64" viewBox="0 0 64 64">
  <g id="Grupo_56897" data-name="Grupo 56897" transform="translate(-509 -820.789)">
    <g id="Grupo_53374" data-name="Grupo 53374" transform="translate(-448 -1119.211)">
      <rect id="Rectángulo_5069" data-name="Rectángulo 5069" width="64" height="64" transform="translate(957 1940)" fill="none"/>
    </g>
    <g id="Grupo_56896" data-name="Grupo 56896" transform="translate(-37.272 113.947)">
      <path id="Trazado_105379" data-name="Trazado 105379" d="M434.4,174.348c-1.078-1.08-2.849-1.181-4.979-.292a16.21,16.21,0,0,0-4.305,2.8,1.483,1.483,0,0,0-.926-.321l-13.444.284a1.41,1.41,0,0,0-.967.412l-4.651,4.651a1.411,1.411,0,0,0,0,1.993,1.443,1.443,0,0,0,1.995,0l4.249-4.251,11.3-.238a17.265,17.265,0,0,0-1.826,2.692,5.536,5.536,0,1,0,5.834,5.526,5.751,5.751,0,0,0-.05-.739,5.548,5.548,0,0,0-2.9-4.154,15.859,15.859,0,0,1,1.394-1.869l4.253,4.252-.26,12.276L409.152,217.34l-17.746-17.748,10.549-10.548a1.412,1.412,0,0,0,0-1.993,1.444,1.444,0,0,0-1.995,0L388.416,198.6a1.418,1.418,0,0,0-.414,1,1.4,1.4,0,0,0,.414,1l19.74,19.741a1.412,1.412,0,0,0,1.993,0l21.364-21.364a1.413,1.413,0,0,0,.411-.965l.282-13.444a1.417,1.417,0,0,0-.32-.925,16.189,16.189,0,0,0,2.8-4.307c.89-2.133.789-3.9-.289-4.977Zm-2.309,3.892a13.153,13.153,0,0,1-2.2,3.39l-2.774-2.777a13.049,13.049,0,0,1,3.388-2.194c1.17-.489,1.811-.4,1.9-.319S432.574,177.071,432.088,178.239Zm-9.477,7.895c-.037-.037-.119-.285-.019-.821a2.684,2.684,0,0,1,.465.372,2.772,2.772,0,0,1,.378.467A1.306,1.306,0,0,1,422.611,186.134Zm-2.857-.866a3.161,3.161,0,0,0,3.723,3.724,2.7,2.7,0,0,1-.42.538,2.782,2.782,0,0,1-3.844,0,2.715,2.715,0,0,1,.541-4.263Z" transform="translate(166.626 541.742)" fill="#f9e478"/>
      <path id="Trazado_105380" data-name="Trazado 105380" d="M401.589,193.8a1.411,1.411,0,0,0-1.995,0,5.472,5.472,0,0,0-.983,6.391l-.627.627a1.41,1.41,0,1,0,1.995,1.993l.54-.541a5.513,5.513,0,0,0,2.943.859l.258-.005a4.9,4.9,0,0,0,3.818-2.1,4.712,4.712,0,0,0,.629-4.137,5.8,5.8,0,0,0-.75-1.518l2.779-2.779a2.655,2.655,0,0,1-.758,2.178,1.41,1.41,0,0,0,1.995,1.993,5.474,5.474,0,0,0,.981-6.391l.627-.625a1.409,1.409,0,0,0-1.992-1.993l-.544.541a5.437,5.437,0,0,0-3.2-.854,4.894,4.894,0,0,0-3.817,2.1,4.7,4.7,0,0,0-.631,4.137,5.826,5.826,0,0,0,.751,1.518l-2.779,2.781a2.668,2.668,0,0,1-.019-.309,2.624,2.624,0,0,1,.776-1.87A1.414,1.414,0,0,0,401.589,193.8Zm3.636,5.616a2.1,2.1,0,0,1-1.64.892,2.712,2.712,0,0,1-.968-.134l2.742-2.742a2.483,2.483,0,0,1,.12.308h0A1.9,1.9,0,0,1,405.225,199.417Zm3.185-9.023-2.742,2.742a2.693,2.693,0,0,1-.122-.309,1.911,1.911,0,0,1,.257-1.675,2.1,2.1,0,0,1,1.636-.893A2.609,2.609,0,0,1,408.41,190.393Z" transform="translate(169.869 546.447)" fill="#f9e478"/>
      <path id="Trazado_105381" data-name="Trazado 105381" d="M398.662,183.322a1.429,1.429,0,0,0,1.3.87l.088,0a1.411,1.411,0,1,0-1.392-.869Z" transform="translate(170.203 544.425)" fill="#f9e478"/>
    </g>
  </g>
</svg>
