<svg xmlns="http://www.w3.org/2000/svg" xmlns:xlink="http://www.w3.org/1999/xlink" width="83.028" height="83.028" viewBox="0 0 83.028 83.028">
  <defs>
    <clipPath id="clip-path">
      <circle id="Elipse_4164" data-name="Elipse 4164" cx="41.514" cy="41.514" r="41.514" transform="translate(3782.922 -4010.457)" fill="none"/>
    </clipPath>
  </defs>
  <g id="Grupo_56065" data-name="Grupo 56065" transform="translate(-3782.922 4010.457)">
    <circle id="Elipse_4163" data-name="Elipse 4163" cx="41.514" cy="41.514" r="41.514" transform="translate(3782.922 -4010.457)" fill="#8c757e"/>
    <g id="Grupo_56064" data-name="Grupo 56064">
      <g id="Grupo_56063" data-name="Grupo 56063">
        <g id="Grupo_56062" data-name="Grupo 56062" clip-path="url(#clip-path)">
          <g id="Grupo_56061" data-name="Grupo 56061">
            <path id="Trazado_106662" data-name="Trazado 106662" d="M3858.936-3966.244a26,26,0,0,1-4.479,1.223c-6.027-2.426-21.237.462-21.237.462a106.859,106.859,0,0,0-22.8-.08c.963-1.445,1.6-8.348,1.6-8.348a45.511,45.511,0,0,1,5.655-16.373c.642-3.692,4.816-3.211,4.816-3.211a8.78,8.78,0,0,0,4.173,1.606c3.853,1.123,4.656,0,4.656,0,.642,2.408,2.086,1.444,2.086,1.444,2.89-1.444.8-3.852.8-3.852-1.124-1.284.642-1.927.642-1.927,1.6-.642,1.124-1.6,1.124-1.6l-3.853-8.668c-3.852-.8-12.521,2.889-12.521,2.889-7.384,1.606-9.273,10.274-9.273,10.274s-17.868,27.45-15.14,35.8c2.729,8.187,11.09,6.311,11.09,6.311,24.054,4.129,32.623,2,32.623,2,.888,6.294,6.172,11.5,6.742,15.768C3849.823-3935.584,3862.307-3946.981,3858.936-3966.244Z" fill="#f4d0b8"/>
            <g id="Grupo_56059" data-name="Grupo 56059" opacity="0.1" style="isolation: isolate">
              <path id="Trazado_106663" data-name="Trazado 106663" d="M3838.907-3948.3a14.72,14.72,0,0,0,.378,1.772C3841.367-3947.776,3838.907-3948.3,3838.907-3948.3Z" fill="#231f20"/>
              <path id="Trazado_106664" data-name="Trazado 106664" d="M3808.984-3951.59s-3.685-.284-8.079-.567-3.118-3.26-4.252-6.52,5.4-19.566,6.378-19.276c.527.157,2.224-4.369,3.672-8.562-5.068,8.545-13.439,24-11.509,29.9,2.729,8.187,11.09,6.311,11.09,6.311,24.054,4.129,32.623,2,32.623,2s-5.4-.17-9.23-.17S3808.984-3951.59,3808.984-3951.59Z" fill="#231f20"/>
            </g>
            <path id="Trazado_106665" data-name="Trazado 106665" d="M3867.926-3968.01c-3.692-.161-8.669,1.766-8.669,1.766-.16,0-4.994.386-5.155.386,3.371,19.1-5.279,30.274-9.613,33.324a9.748,9.748,0,0,0,1.445,1.445C3870.334-3943.931,3867.926-3968.01,3867.926-3968.01Z" fill="#ff9696"/>
            <g id="Grupo_56060" data-name="Grupo 56060" opacity="0.62">
              <path id="Trazado_106666" data-name="Trazado 106666" d="M3839.081-3962.022a2.491,2.491,0,0,1,.745.364,11.313,11.313,0,0,1,1.844,1.552,17.533,17.533,0,0,1,1.971,3.184c.635,1.278,1.084,2.593,1.695,3.748a17.28,17.28,0,0,0,4.192,5.682,6.654,6.654,0,0,0,1.772,1.184,4.95,4.95,0,0,0,.721.241,3.307,3.307,0,0,1-.766.022,3.646,3.646,0,0,1-2.071-.742,9.928,9.928,0,0,1-2.636-2.162,16.444,16.444,0,0,1-2.321-3.5,37.754,37.754,0,0,1-1.558-4.03,26.556,26.556,0,0,0-1.483-3.152,6.643,6.643,0,0,0-1.428-1.888A1.455,1.455,0,0,0,3839.081-3962.022Z" fill="#f7c39f"/>
              <path id="Trazado_106667" data-name="Trazado 106667" d="M3812.544-3955.65s1.445.161,3.692.321,5.137.321,7.866.241a18.184,18.184,0,0,0,2.087-.08c.642-.08,1.445-.08,1.926-.161.643-.08,1.285-.16,1.766-.24a8.174,8.174,0,0,0,1.6-.321c.482-.161.964-.241,1.285-.322s.642-.24.963-.321a7.191,7.191,0,0,1,.963-.24s0,.24-.482.481a13.271,13.271,0,0,1-2.087.963c-.481.161-.963.321-1.6.482a16.459,16.459,0,0,1-1.926.4,38.914,38.914,0,0,1-4.495.4,40.692,40.692,0,0,1-4.5-.16,19.924,19.924,0,0,1-3.692-.562A22.834,22.834,0,0,1,3812.544-3955.65Z" fill="#f7c39f"/>
              <path id="Trazado_106668" data-name="Trazado 106668" d="M3805.155-3963.341s-.067-.33-.219-.831a11.081,11.081,0,0,1-.454-2.472,19.179,19.179,0,0,1-.007-3.715,30.646,30.646,0,0,1,.781-4.275,40.852,40.852,0,0,1,1.462-3.876,28.252,28.252,0,0,1,1.664-2.886,11.914,11.914,0,0,1,2-2.2s-.138.307-.4.764-.652,1.22-1.047,1.984a42.406,42.406,0,0,0-2.494,6.67c-.345,1.254-.587,2.52-.83,3.785a18.4,18.4,0,0,0-.368,3.351c0,.968-.108,1.926-.058,2.416A6.724,6.724,0,0,0,3805.155-3963.341Z" fill="#f7c39f"/>
            </g>
            <path id="Trazado_106669" data-name="Trazado 106669" d="M3845.773-3931.089l.8,2.569h21.35v-39.489l-6.582,15.731-1.926,7.063-4.334,7.063Z" fill="#ff9696"/>
          </g>
        </g>
      </g>
    </g>
  </g>
</svg>
