<svg xmlns="http://www.w3.org/2000/svg" width="604" height="500" viewBox="0 0 604 500">
  <g id="Grupo_55991" data-name="Grupo 55991" transform="translate(-1609.424 -7487.491)">
    <g id="Rectángulo_5675" data-name="Rectángulo 5675">
      <rect id="Rectángulo_5687" data-name="Rectángulo 5687" width="604" height="500" transform="translate(1609.424 7487.491)" fill="#fffdf4"/>
      <rect id="Rectángulo_5688" data-name="Rectángulo 5688" width="603" height="499" transform="translate(1609.924 7487.991)" fill="#fffdf4"/>
    </g>
    <rect id="Rectángulo_5433" data-name="Rectángulo 5433" width="206.784" height="58.588" transform="translate(1609.424 7928.903)" fill="#d9d9d9"/>
    <path id="Trazado_107961" data-name="Trazado 107961" d="M6.877-4.067H2.939V0H.889V-9.953h6.48v1.661H2.939v2.57H6.877ZM10.514,0H8.531V-7.4h1.982Zm-2.1-9.311a.973.973,0,0,1,.3-.731,1.117,1.117,0,0,1,.81-.287,1.12,1.12,0,0,1,.807.287.967.967,0,0,1,.3.731.97.97,0,0,1-.3.738,1.122,1.122,0,0,1-.8.287,1.122,1.122,0,0,1-.8-.287A.97.97,0,0,1,8.415-9.311Zm3.438,5.558a4.335,4.335,0,0,1,.81-2.741,2.625,2.625,0,0,1,2.184-1.039,2.3,2.3,0,0,1,1.894.834l.082-.7h1.791v7.15a3.161,3.161,0,0,1-.441,1.688,2.832,2.832,0,0,1-1.241,1.094,4.362,4.362,0,0,1-1.873.376,4.056,4.056,0,0,1-1.586-.325A2.815,2.815,0,0,1,12.3,1.75l.875-1.2a2.314,2.314,0,0,0,1.791.827,1.694,1.694,0,0,0,1.224-.42,1.577,1.577,0,0,0,.438-1.193v-.4a2.285,2.285,0,0,1-1.8.772A2.618,2.618,0,0,1,12.677-.906a4.334,4.334,0,0,1-.824-2.765Zm1.976.147a2.7,2.7,0,0,0,.4,1.578,1.283,1.283,0,0,0,1.107.572,1.372,1.372,0,0,0,1.292-.678V-5.249a1.369,1.369,0,0,0-1.278-.678,1.291,1.291,0,0,0-1.118.582A3.042,3.042,0,0,0,13.829-3.606ZM24.562-.752a2.477,2.477,0,0,1-2.023.889,2.337,2.337,0,0,1-1.815-.684,2.918,2.918,0,0,1-.639-2V-7.4H22.06v4.784q0,1.157,1.053,1.157a1.426,1.426,0,0,0,1.381-.7V-7.4h1.982V0H24.616Zm7.561-4.792a5.367,5.367,0,0,0-.711-.055,1.447,1.447,0,0,0-1.47.759V0H27.966V-7.4h1.866l.055.882a1.831,1.831,0,0,1,1.647-1.019,2.07,2.07,0,0,1,.615.089ZM37.153,0a2.194,2.194,0,0,1-.2-.663,2.39,2.39,0,0,1-1.866.8,2.626,2.626,0,0,1-1.8-.629,2.023,2.023,0,0,1-.714-1.586,2.09,2.09,0,0,1,.872-1.8,4.3,4.3,0,0,1,2.519-.636h.909v-.424a1.219,1.219,0,0,0-.263-.82,1.035,1.035,0,0,0-.831-.308A1.177,1.177,0,0,0,35-5.831a.813.813,0,0,0-.284.656H32.737a1.984,1.984,0,0,1,.4-1.189,2.621,2.621,0,0,1,1.121-.858,4.086,4.086,0,0,1,1.627-.311,3.228,3.228,0,0,1,2.17.687,2.4,2.4,0,0,1,.8,1.931v3.206a3.536,3.536,0,0,0,.294,1.593V0ZM35.52-1.374a1.7,1.7,0,0,0,.807-.195,1.28,1.28,0,0,0,.547-.523V-3.363h-.738q-1.483,0-1.579,1.025l-.007.116a.791.791,0,0,0,.26.608A1.009,1.009,0,0,0,35.52-1.374ZM45.787-5.852H46.84a1.483,1.483,0,0,0,1.114-.376,1.378,1.378,0,0,0,.362-1,1.218,1.218,0,0,0-.359-.937A1.391,1.391,0,0,0,46.97-8.5a1.458,1.458,0,0,0-.95.311,1,1,0,0,0-.383.81H43.661a2.43,2.43,0,0,1,.42-1.4,2.8,2.8,0,0,1,1.176-.967,3.924,3.924,0,0,1,1.665-.349,3.722,3.722,0,0,1,2.475.755,2.577,2.577,0,0,1,.9,2.082A2.094,2.094,0,0,1,49.875-6a2.709,2.709,0,0,1-1.094.882,2.473,2.473,0,0,1,1.254.9,2.448,2.448,0,0,1,.414,1.422,2.62,2.62,0,0,1-.967,2.126,3.889,3.889,0,0,1-2.56.8,3.688,3.688,0,0,1-2.437-.786,2.567,2.567,0,0,1-.947-2.078h1.976a1.145,1.145,0,0,0,.42.916,1.549,1.549,0,0,0,1.036.355,1.556,1.556,0,0,0,1.1-.373,1.286,1.286,0,0,0,.4-.988q0-1.49-1.641-1.49H45.787Zm8.032,0h1.053a1.483,1.483,0,0,0,1.114-.376,1.378,1.378,0,0,0,.362-1,1.218,1.218,0,0,0-.359-.937A1.391,1.391,0,0,0,55-8.5a1.458,1.458,0,0,0-.95.311,1,1,0,0,0-.383.81H51.693a2.43,2.43,0,0,1,.42-1.4,2.8,2.8,0,0,1,1.176-.967,3.924,3.924,0,0,1,1.665-.349,3.722,3.722,0,0,1,2.475.755,2.577,2.577,0,0,1,.9,2.082A2.094,2.094,0,0,1,57.907-6a2.709,2.709,0,0,1-1.094.882,2.473,2.473,0,0,1,1.254.9,2.448,2.448,0,0,1,.414,1.422,2.62,2.62,0,0,1-.967,2.126,3.889,3.889,0,0,1-2.56.8,3.688,3.688,0,0,1-2.437-.786,2.567,2.567,0,0,1-.947-2.078h1.976a1.145,1.145,0,0,0,.42.916A1.549,1.549,0,0,0,55-1.456a1.556,1.556,0,0,0,1.1-.373,1.286,1.286,0,0,0,.4-.988q0-1.49-1.641-1.49H53.819Z" transform="translate(1629.791 7952.53)"/>
    <path id="Trazado_107960" data-name="Trazado 107960" d="M8.8,0H7.485L2.475-7.67V0H1.155V-9.953H2.475L7.5-2.249v-7.7H8.8Zm1.8-3.767a4.369,4.369,0,0,1,.427-1.955,3.187,3.187,0,0,1,1.189-1.34,3.238,3.238,0,0,1,1.74-.472A3.119,3.119,0,0,1,16.4-6.487a4.024,4.024,0,0,1,.933,2.782v.089a4.407,4.407,0,0,1-.414,1.938A3.14,3.14,0,0,1,15.74-.342a3.275,3.275,0,0,1-1.767.479A3.111,3.111,0,0,1,11.536-.909,4,4,0,0,1,10.6-3.678Zm1.271.15a3.164,3.164,0,0,0,.571,1.976A1.827,1.827,0,0,0,13.973-.9,1.816,1.816,0,0,0,15.5-1.651a3.46,3.46,0,0,0,.567-2.116,3.159,3.159,0,0,0-.578-1.972,1.836,1.836,0,0,0-1.535-.755,1.816,1.816,0,0,0-1.511.745A3.434,3.434,0,0,0,11.874-3.616Zm8.764-5.571V-7.4h1.381v.978H20.638v4.593a1.027,1.027,0,0,0,.185.667.777.777,0,0,0,.629.222,3.062,3.062,0,0,0,.6-.082V0a3.688,3.688,0,0,1-.971.136A1.575,1.575,0,0,1,19.8-.376a2.2,2.2,0,0,1-.431-1.456V-6.419H18.026V-7.4h1.347V-9.187ZM28.062,0a2.657,2.657,0,0,1-.178-.779,2.822,2.822,0,0,1-2.105.916,2.611,2.611,0,0,1-1.794-.619,2,2,0,0,1-.7-1.569,2.091,2.091,0,0,1,.878-1.794,4.142,4.142,0,0,1,2.471-.639h1.23v-.581a1.42,1.42,0,0,0-.4-1.056A1.593,1.593,0,0,0,26.3-6.515a1.844,1.844,0,0,0-1.135.342,1.007,1.007,0,0,0-.458.827H23.434a1.745,1.745,0,0,1,.393-1.07,2.683,2.683,0,0,1,1.066-.817,3.588,3.588,0,0,1,1.48-.3,2.924,2.924,0,0,1,2,.639,2.306,2.306,0,0,1,.752,1.76v3.4a4.162,4.162,0,0,0,.26,1.62V0Zm-2.1-.964a2.223,2.223,0,0,0,1.128-.308,1.861,1.861,0,0,0,.772-.8V-3.589h-.991q-2.324,0-2.324,1.36a1.151,1.151,0,0,0,.4.93A1.524,1.524,0,0,0,25.963-.964Zm5.175.3a.792.792,0,0,1,.195-.547.742.742,0,0,1,.584-.219.765.765,0,0,1,.591.219.776.776,0,0,1,.2.547.734.734,0,0,1-.2.526.778.778,0,0,1-.591.212.755.755,0,0,1-.584-.212A.748.748,0,0,1,31.138-.663Zm13.72-3.773A6.172,6.172,0,0,1,42.4-5.629a2.279,2.279,0,0,1-.769-1.747,2.408,2.408,0,0,1,.94-1.945,3.736,3.736,0,0,1,2.444-.769,4.078,4.078,0,0,1,1.829.4A3.007,3.007,0,0,1,48.087-8.6a2.8,2.8,0,0,1,.441,1.524H47.209A1.82,1.82,0,0,0,46.635-8.5a2.335,2.335,0,0,0-1.62-.518,2.391,2.391,0,0,0-1.514.428A1.428,1.428,0,0,0,42.957-7.4a1.285,1.285,0,0,0,.516,1.031,5.062,5.062,0,0,0,1.757.77,8.151,8.151,0,0,1,1.941.77,2.946,2.946,0,0,1,1.039.981,2.5,2.5,0,0,1,.338,1.319,2.326,2.326,0,0,1-.943,1.938,4.022,4.022,0,0,1-2.522.728,4.678,4.678,0,0,1-1.914-.393A3.221,3.221,0,0,1,41.8-1.333a2.627,2.627,0,0,1-.482-1.552h1.319A1.714,1.714,0,0,0,43.3-1.459a2.806,2.806,0,0,0,1.781.523,2.58,2.58,0,0,0,1.593-.424,1.377,1.377,0,0,0,.554-1.155,1.351,1.351,0,0,0-.513-1.131A5.911,5.911,0,0,0,44.857-4.437Zm11-.164H51.543v3.527h5.011V0H50.23V-9.953h6.255V-8.88H51.543v3.206h4.313ZM65.837,0H64.518L59.507-7.67V0H58.188V-9.953h1.319l5.024,7.7v-7.7h1.306Zm7.827-2.6h-4.17L68.558,0H67.2L71-9.953h1.148L75.961,0H74.614ZM69.891-3.678h3.384l-1.7-4.655Zm10.63-.362a10.569,10.569,0,0,1,.414-2.967,8.618,8.618,0,0,1,1.234-2.584,5.249,5.249,0,0,1,1.7-1.641l.26.834A5.444,5.444,0,0,0,82.493-8.06a10.135,10.135,0,0,0-.7,3.521l-.007.581a10.188,10.188,0,0,0,.964,4.58A5.47,5.47,0,0,0,84.13,2.44l-.26.772a5.418,5.418,0,0,1-1.736-1.7A9.5,9.5,0,0,1,80.521-4.04ZM91.745,0H85.224V-.909l3.445-3.828a8.185,8.185,0,0,0,1.056-1.412,2.356,2.356,0,0,0,.291-1.125,1.786,1.786,0,0,0-.472-1.278,1.649,1.649,0,0,0-1.258-.5,1.953,1.953,0,0,0-1.466.537A2.05,2.05,0,0,0,86.3-7.021H85.032a2.936,2.936,0,0,1,.885-2.222,3.282,3.282,0,0,1,2.369-.848,3.153,3.153,0,0,1,2.194.728,2.483,2.483,0,0,1,.807,1.938q0,1.47-1.873,3.5L86.748-1.032h5Zm7.581-4.245a5.784,5.784,0,0,1-.759,3.3A2.7,2.7,0,0,1,96.2.137,2.718,2.718,0,0,1,93.837-.919a5.49,5.49,0,0,1-.793-3.155V-5.763A5.655,5.655,0,0,1,93.8-9.023a2.719,2.719,0,0,1,2.379-1.066,2.744,2.744,0,0,1,2.365,1.029,5.458,5.458,0,0,1,.779,3.175ZM98.062-5.975a4.634,4.634,0,0,0-.451-2.341,1.553,1.553,0,0,0-1.429-.735,1.532,1.532,0,0,0-1.415.731,4.525,4.525,0,0,0-.458,2.249v2.023a4.708,4.708,0,0,0,.468,2.382A1.55,1.55,0,0,0,96.2-.9a1.529,1.529,0,0,0,1.391-.725A4.538,4.538,0,0,0,98.062-3.9ZM107.468,0h-6.521V-.909l3.445-3.828a8.185,8.185,0,0,0,1.056-1.412,2.356,2.356,0,0,0,.291-1.125,1.786,1.786,0,0,0-.472-1.278,1.649,1.649,0,0,0-1.258-.5,1.953,1.953,0,0,0-1.466.537,2.05,2.05,0,0,0-.523,1.494h-1.265a2.936,2.936,0,0,1,.885-2.222,3.282,3.282,0,0,1,2.369-.848,3.153,3.153,0,0,1,2.194.728,2.483,2.483,0,0,1,.807,1.938q0,1.47-1.873,3.5l-2.666,2.892h5Zm5.5,0h-1.271V-8.429l-2.55.937V-8.641L112.766-10h.2Zm6.754-3.972a10.574,10.574,0,0,1-.4,2.922,8.641,8.641,0,0,1-1.224,2.581,5.361,5.361,0,0,1-1.726,1.682L116.1,2.44a5.5,5.5,0,0,0,1.692-2.505,10.839,10.839,0,0,0,.653-3.77v-.219a11.253,11.253,0,0,0-.3-2.669,9.009,9.009,0,0,0-.837-2.211,5.108,5.108,0,0,0-1.207-1.524l.267-.772a5.34,5.34,0,0,1,1.719,1.668,8.66,8.66,0,0,1,1.224,2.577A10.818,10.818,0,0,1,119.718-3.972Z" transform="translate(1629.791 7969.53)"/>
    <path id="Trazado_106482" data-name="Trazado 106482" d="M1838.828,7521.427" fill="none"/>
    <rect id="Rectángulo_5689" data-name="Rectángulo 5689" width="107.481" height="122.457" transform="translate(1834.292 7522.63)" fill="none" stroke="#707070" stroke-miterlimit="10" stroke-width="1"/>
    <path id="Trazado_106483" data-name="Trazado 106483" d="M1836.182,7681.748s35.528-1.512,44.787-29.1v-1.7l66.9,22.11s-26.079,128.882,18.142,130.772,22.677-142.866,22.677-142.866l65.291-19.276s22.678,9.071,47.055,7.37v278.362H1968.607s-67.7,10.489-133.748,10.772Z" fill="#fcb1b1"/>
    <path id="Trazado_106484" data-name="Trazado 106484" d="M2099.048,7803.827H1837.127" fill="none" stroke="#e87777" stroke-linecap="round" stroke-linejoin="round" stroke-width="2" stroke-dasharray="5"/>
    <line id="Línea_380" data-name="Línea 380" y1="122.173" transform="translate(1966.387 7803.827)" fill="none" stroke="#e87777" stroke-linecap="round" stroke-linejoin="round" stroke-width="2" stroke-dasharray="5"/>
    <path id="Trazado_106485" data-name="Trazado 106485" d="M1835.71,7675.417s2.551-43.653,3.685-48.755,3.4-33.733,3.4-42.52-16.157-51.591-16.157-51.591,18.141-5.669,28.913-9.071,43.654-1.984,52.158,0,29.48,16.158,33.165,36.851-5.1,57.26-5.953,64.346l-1.7,20.693s-41.1-.567-52.441,4.819S1857.536,7679.669,1835.71,7675.417Z" fill="#fcb1b1"/>
    <line id="Línea_381" data-name="Línea 381" y2="14.173" transform="translate(1925.568 7637.906)" fill="none" stroke="#707070" stroke-miterlimit="10" stroke-width="1"/>
    <line id="Línea_382" data-name="Línea 382" y2="14.173" transform="translate(1880.969 7637.906)" fill="none" stroke="#707070" stroke-miterlimit="10" stroke-width="1"/>
    <path id="Trazado_106486" data-name="Trazado 106486" d="M2053.977,7641.685s27.986,10.914,47.055,7.37" fill="none" stroke="#23e230" stroke-miterlimit="10" stroke-width="2"/>
    <path id="Trazado_106487" data-name="Trazado 106487" d="M1881.889,7649.717s17.246-4.89,43.045-4.335" fill="none" stroke="#23e230" stroke-miterlimit="10" stroke-width="2"/>
    <path id="Trazado_106488" data-name="Trazado 106488" d="M1836.182,7681.748s33.414.041,45.707-30.5l-1.109-1.06a106.527,106.527,0,0,0-16.616,14.452c-9.243,9.643-22.154,13.044-28.454,10.776" fill="none" stroke="#c528e5" stroke-miterlimit="10" stroke-width="2"/>
  </g>
</svg>
