<svg xmlns="http://www.w3.org/2000/svg" width="64" height="64" viewBox="0 0 64 64">
  <g id="Grupo_56900" data-name="Grupo 56900" transform="translate(-240 -820.789)">
    <g id="Grupo_53375" data-name="Grupo 53375" transform="translate(-527 -1119.211)">
      <rect id="Rectángulo_5067" data-name="Rectángulo 5067" width="64" height="64" transform="translate(767 1940)" fill="none"/>
    </g>
    <g id="Grupo_56895" data-name="Grupo 56895" transform="translate(-245.971 113.496)">
      <path id="Trazado_105371" data-name="Trazado 105371" d="M388.825,196.83H377.656l-.5-10.116a1.312,1.312,0,0,0-1.312-1.248h-5.181v-3.556a7.8,7.8,0,0,0-10.241-7.417,7.8,7.8,0,0,0-10.243,7.417v3.556h-5.18a1.312,1.312,0,0,0-1.312,1.248l-1.624,32.469a1.329,1.329,0,0,0,1.312,1.379h47.08a1.305,1.305,0,0,0,.928-.384,1.365,1.365,0,0,0,.382-1.031l-1.624-21.1A1.32,1.32,0,0,0,388.825,196.83Zm-14.84-8.735h.6l.439,8.735H374.5Zm-3.26,0h.628l.514,8.735h-.7Zm-20.358,11.982V195.6l1.121-.748,1.122.748v4.475Zm-.193-7.506-1.85,1.234a1.31,1.31,0,0,0-.585,1.092v6.494a1.315,1.315,0,0,0,1.313,1.313h4.87a1.315,1.315,0,0,0,1.313-1.313V194.9a1.306,1.306,0,0,0-.585-1.092L352.8,192.57v-4.475h10.359v1.933a1.314,1.314,0,0,0,2.628,0v-1.933h2.305l.438,8.735h-4.058a1.319,1.319,0,0,0-1.309,1.213l-1.53,19.891H344.752l1.493-29.839h3.929Zm7.5-7.1v-3.556a5.214,5.214,0,0,1,2.746-4.57,5.215,5.215,0,0,1,2.744,4.57v3.556Zm10.359,0h-2.241v-3.556a7.762,7.762,0,0,0-1.87-5.068,5.2,5.2,0,0,1,4.111,5.068Zm-15.228,0v-3.556a5.2,5.2,0,0,1,4.111-5.068,7.76,7.76,0,0,0-1.869,5.068v3.556Zm29.735,32.467H364.27l1.422-18.476h15.424Zm5.458,0H386.41l.793-1.187Zm.758-3.6-.276-.414-1.446-14.464h.578Zm-2.9-.295-.876,1.313-1.222-15.9h.639Z" transform="translate(151.063 541.961)" fill="#f9e478"/>
      <path id="Trazado_105372" data-name="Trazado 105372" d="M370.889,194.717a1.315,1.315,0,0,0-1.313,1.313v6.493a1.939,1.939,0,0,1-1.933,1.934H366.02a1.939,1.939,0,0,1-1.935-1.933V196.03a1.314,1.314,0,0,0-2.628,0v6.494a4.574,4.574,0,0,0,4.561,4.561h1.624a4.573,4.573,0,0,0,4.56-4.561V196.03A1.315,1.315,0,0,0,370.889,194.717Z" transform="translate(157.635 548.945)" fill="#f9e478"/>
    </g>
  </g>
</svg>
