<svg xmlns="http://www.w3.org/2000/svg" xmlns:xlink="http://www.w3.org/1999/xlink" width="83.028" height="83.028" viewBox="0 0 83.028 83.028">
  <defs>
    <clipPath id="clip-path">
      <circle id="Elipse_4168" data-name="Elipse 4168" cx="41.514" cy="41.514" r="41.514" transform="translate(4423.875 -4010.457)" fill="none"/>
    </clipPath>
  </defs>
  <g id="Grupo_56077" data-name="Grupo 56077" transform="translate(-4423.875 4010.457)">
    <circle id="Elipse_4167" data-name="Elipse 4167" cx="41.514" cy="41.514" r="41.514" transform="translate(4423.875 -4010.457)" fill="#8c757e"/>
    <g id="Grupo_56076" data-name="Grupo 56076">
      <g id="Grupo_56075" data-name="Grupo 56075" clip-path="url(#clip-path)">
        <g id="Grupo_56074" data-name="Grupo 56074">
          <path id="Trazado_106678" data-name="Trazado 106678" d="M4499.835-3966.5a5.9,5.9,0,0,1-6.422-1.6c-9.47-6.742-19.905.8-19.905.8-11.879-8.668-21.189,2.408-21.189,2.408.963-1.445,2.579-3.295,3.241-5.613,2.394-8.386,1.464-14.314,3.019-19.108a4.675,4.675,0,0,1,4.816-3.21,8.785,8.785,0,0,0,4.174,1.6c3.852,1.124,4.655,0,4.655,0,.642,2.408,2.087,1.445,2.087,1.445,2.889-1.445.8-3.853.8-3.853-1.123-1.284.643-1.926.643-1.926,1.6-.642,1.123-1.6,1.123-1.6l-3.852-8.669c-3.853-.8-12.521,2.89-12.521,2.89-7.385,1.6-10.274,10.273-10.274,10.273a103.038,103.038,0,0,0-11.444,14.977c-4.75,7.773-8.029,16.74-6.7,20.821,2.729,8.186,15.089,9.31,15.089,9.31a46.377,46.377,0,0,0,11.077,3.532,54.115,54.115,0,0,0,19.371-2.372c-.161,6.582,5.51,11.04,7.918,13.608C4489.721-3935.836,4503.206-3947.233,4499.835-3966.5Z" fill="#f4d0b8"/>
          <path id="Trazado_106679" data-name="Trazado 106679" d="M4507.795-3970.795c-3.692-.161-7.913,4.417-7.913,4.417-.161,0,.168.134.007.134,3.371,19.1-10.113,30.66-14.447,33.71a9.755,9.755,0,0,0,1.445,1.445C4511.286-3943.931,4507.795-3970.795,4507.795-3970.795Z" fill="#ff9696"/>
          <g id="Grupo_56072" data-name="Grupo 56072">
            <path id="Trazado_106680" data-name="Trazado 106680" d="M4475.81-3963.836a4.419,4.419,0,0,1,1.124.642,16.269,16.269,0,0,1,2.568,2.408,19.458,19.458,0,0,1,2.248,4.494c.642,1.766.963,3.532,1.6,5.137a20.5,20.5,0,0,0,5.137,8.187,10.516,10.516,0,0,0,2.568,1.926,9.58,9.58,0,0,0,1.124.482,7.253,7.253,0,0,1-1.284-.161,6.869,6.869,0,0,1-3.211-1.445,14.372,14.372,0,0,1-3.692-3.371,18.727,18.727,0,0,1-2.729-4.976,38.072,38.072,0,0,1-1.284-5.458,27.449,27.449,0,0,0-1.444-4.334,7.986,7.986,0,0,0-1.766-2.729A2.264,2.264,0,0,0,4475.81-3963.836Z" fill="#f7c39f"/>
            <path id="Trazado_106681" data-name="Trazado 106681" d="M4453.5-3954.526s1.445.321,3.692.642a40.639,40.639,0,0,0,7.866.482,9.136,9.136,0,0,0,2.087-.161c.642-.16,1.445-.16,1.926-.321.643-.16,1.285-.321,1.766-.481a4.789,4.789,0,0,0,1.6-.643,9.512,9.512,0,0,1,1.285-.642c.321-.16.642-.481.963-.642a4.507,4.507,0,0,1,.963-.481,1.491,1.491,0,0,1-.482.963,12.693,12.693,0,0,1-2.087,1.926,14.058,14.058,0,0,1-1.6.963,9.874,9.874,0,0,1-1.926.8,20.261,20.261,0,0,1-4.495.8,20.465,20.465,0,0,1-4.5-.321,11.136,11.136,0,0,1-3.692-1.123A15.237,15.237,0,0,1,4453.5-3954.526Z" fill="#f7c39f"/>
            <path id="Trazado_106682" data-name="Trazado 106682" d="M4448.039-3963.194a8.362,8.362,0,0,0-.481-.8,8.46,8.46,0,0,1-1.124-2.408,12.635,12.635,0,0,1-.642-3.692,19.938,19.938,0,0,1,.482-4.334,29.777,29.777,0,0,1,1.6-4.013,25.125,25.125,0,0,1,2.087-3.05,14.354,14.354,0,0,1,2.729-2.408,8.294,8.294,0,0,1-.482.8c-.321.482-.8,1.285-1.284,2.087a30.9,30.9,0,0,0-2.729,6.9,31.908,31.908,0,0,0-.642,3.853,11.756,11.756,0,0,0,0,3.371c.16.963.16,1.926.321,2.408A4.454,4.454,0,0,0,4448.039-3963.194Z" fill="#f7c39f"/>
          </g>
          <path id="Trazado_106683" data-name="Trazado 106683" d="M4486.726-3931.089l.8,2.569h21.35v-39.489l-6.582,15.731-1.926,7.063-4.334,7.063Z" fill="#ff9696"/>
          <g id="Grupo_56073" data-name="Grupo 56073">
            <path id="Trazado_106684" data-name="Trazado 106684" d="M4478.679-3948.123a44.541,44.541,0,0,1-18.921,2.908,46.4,46.4,0,0,1-11.076-3.532s-12.2-.963-15.09-9.311c-1.124-3.21,3.121-15.978,3.121-15.978-3.853,6.742-5.85,14.052-4.726,17.584,2.729,8.186,15.089,9.31,15.089,9.31a46.364,46.364,0,0,0,11.077,3.532,49.886,49.886,0,0,0,19.477-2.784c-.161,6.582,5.4,11.452,7.812,14.02a40.048,40.048,0,0,0,5.458-4.815,40.126,40.126,0,0,1-3.853,3.21C4484.639-3936.547,4478.519-3941.541,4478.679-3948.123Z" fill="#231f20" opacity="0.1" style="isolation: isolate"/>
            <path id="Trazado_106685" data-name="Trazado 106685" d="M4499.889-3966.244a5.9,5.9,0,0,1-6.421-1.606c-9.471-6.742-19.9.8-19.9.8-11.879-8.668-21.19,2.408-21.19,2.408.964-1.445,3.165-4.847,3.611-6.991,1.775-8.539,2.65-17.73,2.65-17.73a2.323,2.323,0,0,1,.321-1.124,3.617,3.617,0,0,0-1.926,2.729,122.387,122.387,0,0,1-2.277,15.613,40.03,40.03,0,0,1-3.984,9.108s9.311-11.076,21.19-2.408c0,0,10.594-7.545,19.9-.8a6.233,6.233,0,0,0,6.421,1.6c2.408,13.484-3.692,23.276-8.99,28.894C4494.913-3940.881,4502.618-3951.155,4499.889-3966.244Z" fill="#231f20" opacity="0.1" style="isolation: isolate"/>
          </g>
        </g>
      </g>
    </g>
  </g>
</svg>
