<svg xmlns="http://www.w3.org/2000/svg" width="64" height="64" viewBox="0 0 64 64">
  <g id="Grupo_56898" data-name="Grupo 56898" transform="translate(-791 -820.789)">
    <g id="Grupo_56027" data-name="Grupo 56027" transform="translate(-69 -1119.211)">
      <rect id="Rectángulo_5068" data-name="Rectángulo 5068" width="64" height="64" transform="translate(860 1940)" fill="none"/>
    </g>
    <g id="Grupo_56894" data-name="Grupo 56894" transform="translate(368.522 113.414)">
      <path id="Trazado_105373" data-name="Trazado 105373" d="M303.785,197.709a1.539,1.539,0,0,0,.395.052,1.518,1.518,0,0,0,1.311-2.276,1.517,1.517,0,1,0-1.706,2.224Z" transform="translate(137.717 548.948)" fill="#f9e478"/>
      <path id="Trazado_105374" data-name="Trazado 105374" d="M333.56,191.117l1.984-3a1.509,1.509,0,0,0,.047-1.594L333.563,183a1.513,1.513,0,0,0-1.4-.756l-3.595.216-3.588-6.214a3.545,3.545,0,0,0-6.03-.178L305.752,192.88l-8.532,4.925a7.608,7.608,0,0,0-2.783,10.389,7.639,7.639,0,0,0,9,3.408l4.9,8.485a4.56,4.56,0,1,0,7.9-4.56l-2.793-4.838,2.2-1.27a1.521,1.521,0,0,0,.554-2.072l-.968-1.676L333.9,202a3.545,3.545,0,0,0,2.874-5.314Zm-3.3-5.716,1.145-.068,1.091,1.892-.631.956Zm3.17,13.608L321.3,177.992a2.651,2.651,0,0,0,.171-.234v0a.491.491,0,0,1,.431-.246.46.46,0,0,1,.45.256l11.8,20.441a.513.513,0,0,1-.431.768A1.627,1.627,0,0,0,333.43,199.009Zm-24.648,9.682,2.479,4.295c1.092,1.892,1.724,2.987,2.123,3.6l-.028.016.245.435.067-.039,0,.005-.067.039a1.528,1.528,0,0,1-2.647,1.528l-4.822-8.354Zm3.516-2.028.511.888-.888.511-.513-.888Zm-3.707-12.487,10.686-13.614,11.007,19.064-16.659,3.268Zm-11.528,12.5a4.57,4.57,0,0,1,1.673-6.245l7.473-4.313,4.572,7.916-7.474,4.316A4.577,4.577,0,0,1,297.063,206.677Z" transform="translate(134.585 542.088)" fill="#f9e478"/>
      <path id="Trazado_105375" data-name="Trazado 105375" d="M301.7,200.088l1.758-1.015a1.518,1.518,0,0,0,.556-2.071h0a1.52,1.52,0,0,0-2.072-.556l-1.756,1.015a.515.515,0,0,1-.7-.187,1.517,1.517,0,0,0-2.628,1.517,3.549,3.549,0,0,0,4.844,1.3Z" transform="translate(135.682 549.462)" fill="#f9e478"/>
      <path id="Trazado_105376" data-name="Trazado 105376" d="M332.913,176.192h0l-5.655,3.146a1.519,1.519,0,0,0-.586,2.063,1.515,1.515,0,0,0,2.062.588l5.654-3.146a1.517,1.517,0,0,0-1.475-2.651Z" transform="translate(145.787 542.604)" fill="#f9e478"/>
      <path id="Trazado_105377" data-name="Trazado 105377" d="M332.6,184.237l-3.92-1.05a1.517,1.517,0,1,0-.786,2.931l3.921,1.05a1.517,1.517,0,0,0,.784-2.931Z" transform="translate(145.883 545.021)" fill="#f9e478"/>
      <path id="Trazado_105378" data-name="Trazado 105378" d="M323.606,179.685a1.582,1.582,0,0,0,.391.051,1.518,1.518,0,0,0,1.466-1.125l1.052-3.92a1.517,1.517,0,1,0-2.931-.786l-1.051,3.92A1.521,1.521,0,0,0,323.606,179.685Z" transform="translate(144.431 541.514)" fill="#f9e478"/>
    </g>
  </g>
</svg>
