<svg xmlns="http://www.w3.org/2000/svg" width="604" height="500" viewBox="0 0 604 500">
  <g id="Grupo_56306" data-name="Grupo 56306" transform="translate(-3305 8384.412)">
    <g id="Grupo_55982" data-name="Grupo 55982" transform="translate(1695.576 -15250.549)">
      <g id="Rectángulo_5675" data-name="Rectángulo 5675">
        <rect id="Rectángulo_5681" data-name="Rectángulo 5681" width="604" height="500" transform="translate(1609.424 6866.137)" fill="#fffdf4"/>
        <rect id="Rectángulo_5682" data-name="Rectángulo 5682" width="603" height="499" transform="translate(1609.924 6866.637)" fill="#fffdf4"/>
      </g>
      <rect id="Rectángulo_5433" data-name="Rectángulo 5433" width="206.784" height="58.588" transform="translate(1609.424 7307.549)" fill="#d9d9d9"/>
      <path id="Trazado_107954" data-name="Trazado 107954" d="M6.877-4.067H2.939V0H.889V-9.953h6.48v1.661H2.939v2.57H6.877ZM10.514,0H8.531V-7.4h1.982Zm-2.1-9.311a.973.973,0,0,1,.3-.731,1.117,1.117,0,0,1,.81-.287,1.12,1.12,0,0,1,.807.287.967.967,0,0,1,.3.731.97.97,0,0,1-.3.738,1.122,1.122,0,0,1-.8.287,1.122,1.122,0,0,1-.8-.287A.97.97,0,0,1,8.415-9.311Zm3.438,5.558a4.335,4.335,0,0,1,.81-2.741,2.625,2.625,0,0,1,2.184-1.039,2.3,2.3,0,0,1,1.894.834l.082-.7h1.791v7.15a3.161,3.161,0,0,1-.441,1.688,2.832,2.832,0,0,1-1.241,1.094,4.362,4.362,0,0,1-1.873.376,4.056,4.056,0,0,1-1.586-.325A2.815,2.815,0,0,1,12.3,1.75l.875-1.2a2.314,2.314,0,0,0,1.791.827,1.694,1.694,0,0,0,1.224-.42,1.577,1.577,0,0,0,.438-1.193v-.4a2.285,2.285,0,0,1-1.8.772A2.618,2.618,0,0,1,12.677-.906a4.334,4.334,0,0,1-.824-2.765Zm1.976.147a2.7,2.7,0,0,0,.4,1.578,1.283,1.283,0,0,0,1.107.572,1.372,1.372,0,0,0,1.292-.678V-5.249a1.369,1.369,0,0,0-1.278-.678,1.291,1.291,0,0,0-1.118.582A3.042,3.042,0,0,0,13.829-3.606ZM24.562-.752a2.477,2.477,0,0,1-2.023.889,2.337,2.337,0,0,1-1.815-.684,2.918,2.918,0,0,1-.639-2V-7.4H22.06v4.784q0,1.157,1.053,1.157a1.426,1.426,0,0,0,1.381-.7V-7.4h1.982V0H24.616Zm7.561-4.792a5.367,5.367,0,0,0-.711-.055,1.447,1.447,0,0,0-1.47.759V0H27.966V-7.4h1.866l.055.882a1.831,1.831,0,0,1,1.647-1.019,2.07,2.07,0,0,1,.615.089ZM37.153,0a2.194,2.194,0,0,1-.2-.663,2.39,2.39,0,0,1-1.866.8,2.626,2.626,0,0,1-1.8-.629,2.023,2.023,0,0,1-.714-1.586,2.09,2.09,0,0,1,.872-1.8,4.3,4.3,0,0,1,2.519-.636h.909v-.424a1.219,1.219,0,0,0-.263-.82,1.035,1.035,0,0,0-.831-.308A1.177,1.177,0,0,0,35-5.831a.813.813,0,0,0-.284.656H32.737a1.984,1.984,0,0,1,.4-1.189,2.621,2.621,0,0,1,1.121-.858,4.086,4.086,0,0,1,1.627-.311,3.228,3.228,0,0,1,2.17.687,2.4,2.4,0,0,1,.8,1.931v3.206a3.536,3.536,0,0,0,.294,1.593V0ZM35.52-1.374a1.7,1.7,0,0,0,.807-.195,1.28,1.28,0,0,0,.547-.523V-3.363h-.738q-1.483,0-1.579,1.025l-.007.116a.791.791,0,0,0,.26.608A1.009,1.009,0,0,0,35.52-1.374ZM45.787-5.852H46.84a1.483,1.483,0,0,0,1.114-.376,1.378,1.378,0,0,0,.362-1,1.218,1.218,0,0,0-.359-.937A1.391,1.391,0,0,0,46.97-8.5a1.458,1.458,0,0,0-.95.311,1,1,0,0,0-.383.81H43.661a2.43,2.43,0,0,1,.42-1.4,2.8,2.8,0,0,1,1.176-.967,3.924,3.924,0,0,1,1.665-.349,3.722,3.722,0,0,1,2.475.755,2.577,2.577,0,0,1,.9,2.082A2.094,2.094,0,0,1,49.875-6a2.709,2.709,0,0,1-1.094.882,2.473,2.473,0,0,1,1.254.9,2.448,2.448,0,0,1,.414,1.422,2.62,2.62,0,0,1-.967,2.126,3.889,3.889,0,0,1-2.56.8,3.688,3.688,0,0,1-2.437-.786,2.567,2.567,0,0,1-.947-2.078h1.976a1.145,1.145,0,0,0,.42.916,1.549,1.549,0,0,0,1.036.355,1.556,1.556,0,0,0,1.1-.373,1.286,1.286,0,0,0,.4-.988q0-1.49-1.641-1.49H45.787ZM58.509-4.115a5.042,5.042,0,0,1-.854,3.158,2.983,2.983,0,0,1-2.5,1.094A3,3,0,0,1,52.664-.937a4.895,4.895,0,0,1-.882-3.076V-5.845a4.976,4.976,0,0,1,.865-3.165,3,3,0,0,1,2.492-1.08,3.008,3.008,0,0,1,2.488,1.07,4.879,4.879,0,0,1,.882,3.073ZM56.533-6.129a3.645,3.645,0,0,0-.338-1.8A1.144,1.144,0,0,0,55.139-8.5a1.123,1.123,0,0,0-1.029.537,3.411,3.411,0,0,0-.352,1.68v2.422a3.826,3.826,0,0,0,.332,1.81,1.128,1.128,0,0,0,1.063.592A1.109,1.109,0,0,0,56.2-2.024a3.734,3.734,0,0,0,.335-1.738Z" transform="translate(1629.791 7331.176)"/>
      <path id="Trazado_107953" data-name="Trazado 107953" d="M8.8,0H7.485L2.475-7.67V0H1.155V-9.953H2.475L7.5-2.249v-7.7H8.8Zm1.8-3.767a4.369,4.369,0,0,1,.427-1.955,3.187,3.187,0,0,1,1.189-1.34,3.238,3.238,0,0,1,1.74-.472A3.119,3.119,0,0,1,16.4-6.487a4.024,4.024,0,0,1,.933,2.782v.089a4.407,4.407,0,0,1-.414,1.938A3.14,3.14,0,0,1,15.74-.342a3.275,3.275,0,0,1-1.767.479A3.111,3.111,0,0,1,11.536-.909,4,4,0,0,1,10.6-3.678Zm1.271.15a3.164,3.164,0,0,0,.571,1.976A1.827,1.827,0,0,0,13.973-.9,1.816,1.816,0,0,0,15.5-1.651a3.46,3.46,0,0,0,.567-2.116,3.159,3.159,0,0,0-.578-1.972,1.836,1.836,0,0,0-1.535-.755,1.816,1.816,0,0,0-1.511.745A3.434,3.434,0,0,0,11.874-3.616Zm8.764-5.571V-7.4h1.381v.978H20.638v4.593a1.027,1.027,0,0,0,.185.667.777.777,0,0,0,.629.222,3.062,3.062,0,0,0,.6-.082V0a3.688,3.688,0,0,1-.971.136A1.575,1.575,0,0,1,19.8-.376a2.2,2.2,0,0,1-.431-1.456V-6.419H18.026V-7.4h1.347V-9.187ZM28.062,0a2.657,2.657,0,0,1-.178-.779,2.822,2.822,0,0,1-2.105.916,2.611,2.611,0,0,1-1.794-.619,2,2,0,0,1-.7-1.569,2.091,2.091,0,0,1,.878-1.794,4.142,4.142,0,0,1,2.471-.639h1.23v-.581a1.42,1.42,0,0,0-.4-1.056A1.593,1.593,0,0,0,26.3-6.515a1.844,1.844,0,0,0-1.135.342,1.007,1.007,0,0,0-.458.827H23.434a1.745,1.745,0,0,1,.393-1.07,2.683,2.683,0,0,1,1.066-.817,3.588,3.588,0,0,1,1.48-.3,2.924,2.924,0,0,1,2,.639,2.306,2.306,0,0,1,.752,1.76v3.4a4.162,4.162,0,0,0,.26,1.62V0Zm-2.1-.964a2.223,2.223,0,0,0,1.128-.308,1.861,1.861,0,0,0,.772-.8V-3.589h-.991q-2.324,0-2.324,1.36a1.151,1.151,0,0,0,.4.93A1.524,1.524,0,0,0,25.963-.964Zm5.175.3a.792.792,0,0,1,.195-.547.742.742,0,0,1,.584-.219.765.765,0,0,1,.591.219.776.776,0,0,1,.2.547.734.734,0,0,1-.2.526.778.778,0,0,1-.591.212.755.755,0,0,1-.584-.212A.748.748,0,0,1,31.138-.663Zm13.72-3.773A6.172,6.172,0,0,1,42.4-5.629a2.279,2.279,0,0,1-.769-1.747,2.408,2.408,0,0,1,.94-1.945,3.736,3.736,0,0,1,2.444-.769,4.078,4.078,0,0,1,1.829.4A3.007,3.007,0,0,1,48.087-8.6a2.8,2.8,0,0,1,.441,1.524H47.209A1.82,1.82,0,0,0,46.635-8.5a2.335,2.335,0,0,0-1.62-.518,2.391,2.391,0,0,0-1.514.428A1.428,1.428,0,0,0,42.957-7.4a1.285,1.285,0,0,0,.516,1.031,5.062,5.062,0,0,0,1.757.77,8.151,8.151,0,0,1,1.941.77,2.946,2.946,0,0,1,1.039.981,2.5,2.5,0,0,1,.338,1.319,2.326,2.326,0,0,1-.943,1.938,4.022,4.022,0,0,1-2.522.728,4.678,4.678,0,0,1-1.914-.393A3.221,3.221,0,0,1,41.8-1.333a2.627,2.627,0,0,1-.482-1.552h1.319A1.714,1.714,0,0,0,43.3-1.459a2.806,2.806,0,0,0,1.781.523,2.58,2.58,0,0,0,1.593-.424,1.377,1.377,0,0,0,.554-1.155,1.351,1.351,0,0,0-.513-1.131A5.911,5.911,0,0,0,44.857-4.437Zm11-.164H51.543v3.527h5.011V0H50.23V-9.953h6.255V-8.88H51.543v3.206h4.313ZM65.837,0H64.518L59.507-7.67V0H58.188V-9.953h1.319l5.024,7.7v-7.7h1.306Zm7.827-2.6h-4.17L68.558,0H67.2L71-9.953h1.148L75.961,0H74.614ZM69.891-3.678h3.384l-1.7-4.655Zm10.63-.362a10.569,10.569,0,0,1,.414-2.967,8.618,8.618,0,0,1,1.234-2.584,5.249,5.249,0,0,1,1.7-1.641l.26.834A5.444,5.444,0,0,0,82.493-8.06a10.135,10.135,0,0,0-.7,3.521l-.007.581a10.188,10.188,0,0,0,.964,4.58A5.47,5.47,0,0,0,84.13,2.44l-.26.772a5.418,5.418,0,0,1-1.736-1.7A9.5,9.5,0,0,1,80.521-4.04ZM91.745,0H85.224V-.909l3.445-3.828a8.185,8.185,0,0,0,1.056-1.412,2.356,2.356,0,0,0,.291-1.125,1.786,1.786,0,0,0-.472-1.278,1.649,1.649,0,0,0-1.258-.5,1.953,1.953,0,0,0-1.466.537A2.05,2.05,0,0,0,86.3-7.021H85.032a2.936,2.936,0,0,1,.885-2.222,3.282,3.282,0,0,1,2.369-.848,3.153,3.153,0,0,1,2.194.728,2.483,2.483,0,0,1,.807,1.938q0,1.47-1.873,3.5L86.748-1.032h5Zm7.581-4.245a5.784,5.784,0,0,1-.759,3.3A2.7,2.7,0,0,1,96.2.137,2.718,2.718,0,0,1,93.837-.919a5.49,5.49,0,0,1-.793-3.155V-5.763A5.655,5.655,0,0,1,93.8-9.023a2.719,2.719,0,0,1,2.379-1.066,2.744,2.744,0,0,1,2.365,1.029,5.458,5.458,0,0,1,.779,3.175ZM98.062-5.975a4.634,4.634,0,0,0-.451-2.341,1.553,1.553,0,0,0-1.429-.735,1.532,1.532,0,0,0-1.415.731,4.525,4.525,0,0,0-.458,2.249v2.023a4.708,4.708,0,0,0,.468,2.382A1.55,1.55,0,0,0,96.2-.9a1.529,1.529,0,0,0,1.391-.725A4.538,4.538,0,0,0,98.062-3.9ZM107.468,0h-6.521V-.909l3.445-3.828a8.185,8.185,0,0,0,1.056-1.412,2.356,2.356,0,0,0,.291-1.125,1.786,1.786,0,0,0-.472-1.278,1.649,1.649,0,0,0-1.258-.5,1.953,1.953,0,0,0-1.466.537,2.05,2.05,0,0,0-.523,1.494h-1.265a2.936,2.936,0,0,1,.885-2.222,3.282,3.282,0,0,1,2.369-.848,3.153,3.153,0,0,1,2.194.728,2.483,2.483,0,0,1,.807,1.938q0,1.47-1.873,3.5l-2.666,2.892h5Zm5.5,0h-1.271V-8.429l-2.55.937V-8.641L112.766-10h.2Zm6.754-3.972a10.574,10.574,0,0,1-.4,2.922,8.641,8.641,0,0,1-1.224,2.581,5.361,5.361,0,0,1-1.726,1.682L116.1,2.44a5.5,5.5,0,0,0,1.692-2.505,10.839,10.839,0,0,0,.653-3.77v-.219a11.253,11.253,0,0,0-.3-2.669,9.009,9.009,0,0,0-.837-2.211,5.108,5.108,0,0,0-1.207-1.524l.267-.772a5.34,5.34,0,0,1,1.719,1.668,8.66,8.66,0,0,1,1.224,2.577A10.818,10.818,0,0,1,119.718-3.972Z" transform="translate(1629.791 7348.176)"/>
      <g id="Grupo_55981" data-name="Grupo 55981">
        <path id="Trazado_106424" data-name="Trazado 106424" d="M1924.525,6976.585l77.314,23.811s-34.227,151.937,17.93,152.5,28.914-164.409,28.914-164.409l70.3-24.378s29.48,13.606,55.559,8.5v323.149H2022.6s-114.52,15.874-150.8,10.772l-17.008,1.011V7012.3h15.874S1912.053,7011.735,1924.525,6976.585Z" fill="#fcb1b1"/>
        <path id="Trazado_106425" data-name="Trazado 106425" d="M1870.667,7017.971V7298.6" fill="none" stroke="#e87777" stroke-linecap="round" stroke-linejoin="round" stroke-width="2" stroke-dasharray="5"/>
        <path id="Trazado_106426" data-name="Trazado 106426" d="M2174.541,7152.9H1870.667" fill="none" stroke="#e87777" stroke-linecap="round" stroke-linejoin="round" stroke-width="2" stroke-dasharray="5"/>
        <path id="Trazado_106427" data-name="Trazado 106427" d="M2022.6,7292.932" fill="none" stroke="#a8a8a8" stroke-linecap="round" stroke-linejoin="round" stroke-width="2" stroke-dasharray="5"/>
        <line id="Línea_363" data-name="Línea 363" y1="141.383" transform="translate(2021.01 7154.601)" fill="none" stroke="#e87777" stroke-linecap="round" stroke-linejoin="round" stroke-width="2" stroke-dasharray="5"/>
        <path id="Trazado_106428" data-name="Trazado 106428" d="M2118.982,6964.113s30.8,13.606,55.559,8.5" fill="none" stroke="#75c955" stroke-linecap="round" stroke-linejoin="round" stroke-width="2"/>
        <path id="Trazado_106429" data-name="Trazado 106429" d="M1980.651,6955.577v18.571h-56.126s-51.4,1.817-61.606-6.459-2.646-16.351,0-16.755,3.591-2.422,13.039,2.221S1972.525,6958.2,1980.651,6955.577Z" fill="#fcb1b1"/>
        <path id="Trazado_106430" data-name="Trazado 106430" d="M1979.518,6941.813v-28.724H1854.793l15.874,36.283a184.2,184.2,0,0,1,34.583-6.425C1923.769,6941.435,1979.518,6941.813,1979.518,6941.813Z" fill="#fcb1b1"/>
        <path id="Trazado_107957" data-name="Trazado 107957" d="M1.32,0V-11.375H4.531a5.169,5.169,0,0,1,2.625.656A4.438,4.438,0,0,1,8.918-8.852,6.078,6.078,0,0,1,9.547-6.07v.727a6.1,6.1,0,0,1-.621,2.82A4.369,4.369,0,0,1,7.152-.664,5.5,5.5,0,0,1,4.469,0Zm1.5-10.148v8.922H4.4A3.434,3.434,0,0,0,7.1-2.306a4.458,4.458,0,0,0,.965-3.073v-.665a4.529,4.529,0,0,0-.91-3.014A3.239,3.239,0,0,0,4.57-10.148Z" transform="translate(1891.349 6935.521)"/>
        <path id="Trazado_107955" data-name="Trazado 107955" d="M9.688-3.609A4.185,4.185,0,0,1,8.355-.824a4.365,4.365,0,0,1-2.98.98,4.008,4.008,0,0,1-3.23-1.445A5.815,5.815,0,0,1,.93-5.156V-6.25A6.481,6.481,0,0,1,1.5-9.039,4.231,4.231,0,0,1,3.1-10.887a4.47,4.47,0,0,1,2.406-.645A4.11,4.11,0,0,1,8.414-10.52a4.235,4.235,0,0,1,1.273,2.8H8.18a3.268,3.268,0,0,0-.848-1.975A2.565,2.565,0,0,0,5.508-10.3,2.684,2.684,0,0,0,3.254-9.241a4.882,4.882,0,0,0-.816,3.026v1.1a5.018,5.018,0,0,0,.773,2.948A2.5,2.5,0,0,0,5.375-1.07a2.887,2.887,0,0,0,1.918-.566A3.143,3.143,0,0,0,8.18-3.609ZM16.727-.836A3.07,3.07,0,0,1,14.25.156a2.628,2.628,0,0,1-2.059-.785,3.4,3.4,0,0,1-.715-2.324v-5.5h1.445v5.461q0,1.922,1.563,1.922a2.163,2.163,0,0,0,2.2-1.234V-8.453h1.445V0H16.758Zm7.688-6.32a4.331,4.331,0,0,0-.711-.055A1.9,1.9,0,0,0,21.773-6V0H20.328V-8.453h1.406l.023.977a2.251,2.251,0,0,1,2.016-1.133,1.477,1.477,0,0,1,.641.109Zm4.258,5.2,2.094-6.492h1.477L29.211,0h-1.1L25.047-8.453h1.477ZM38.734,0a3.036,3.036,0,0,1-.2-.891A3.225,3.225,0,0,1,36.125.156a2.984,2.984,0,0,1-2.051-.707,2.287,2.287,0,0,1-.8-1.793,2.39,2.39,0,0,1,1-2.051,4.733,4.733,0,0,1,2.824-.73h1.406v-.664A1.623,1.623,0,0,0,38.055-7a1.821,1.821,0,0,0-1.336-.449,2.107,2.107,0,0,0-1.3.391,1.151,1.151,0,0,0-.523.945H33.445a2,2,0,0,1,.449-1.223,3.066,3.066,0,0,1,1.219-.934A4.1,4.1,0,0,1,36.8-8.609a3.342,3.342,0,0,1,2.289.73,2.635,2.635,0,0,1,.859,2.012v3.891a4.757,4.757,0,0,0,.3,1.852V0Zm-2.4-1.1a2.54,2.54,0,0,0,1.289-.352,2.127,2.127,0,0,0,.883-.914V-4.1H37.375q-2.656,0-2.656,1.555a1.316,1.316,0,0,0,.453,1.063A1.742,1.742,0,0,0,36.336-1.1Zm9.492-3.2a4.952,4.952,0,0,1,.922-3.129,2.915,2.915,0,0,1,2.414-1.184,2.932,2.932,0,0,1,2.352,1.016V-12h1.445V0H51.633l-.07-.906A2.943,2.943,0,0,1,49.148.156a2.887,2.887,0,0,1-2.395-1.2,5.008,5.008,0,0,1-.926-3.141Zm1.445.164a3.749,3.749,0,0,0,.594,2.25,1.92,1.92,0,0,0,1.641.813A2.108,2.108,0,0,0,51.516-2.3V-6.187a2.125,2.125,0,0,0-1.992-1.2,1.929,1.929,0,0,0-1.656.82A4.128,4.128,0,0,0,47.273-4.133ZM56.773,0H55.328V-8.453h1.445ZM55.211-10.7a.863.863,0,0,1,.215-.594.807.807,0,0,1,.637-.242.819.819,0,0,1,.641.242.854.854,0,0,1,.219.594.826.826,0,0,1-.219.586.834.834,0,0,1-.641.234.821.821,0,0,1-.637-.234A.834.834,0,0,1,55.211-10.7Zm8.8,8.453a1.064,1.064,0,0,0-.441-.91,4.249,4.249,0,0,0-1.539-.559,7.277,7.277,0,0,1-1.742-.562,2.479,2.479,0,0,1-.953-.781,1.869,1.869,0,0,1-.309-1.078A2.193,2.193,0,0,1,59.9-7.891a3.432,3.432,0,0,1,2.246-.719,3.532,3.532,0,0,1,2.332.742,2.357,2.357,0,0,1,.895,1.9H63.922a1.3,1.3,0,0,0-.5-1.023,1.888,1.888,0,0,0-1.27-.43,1.976,1.976,0,0,0-1.234.344,1.082,1.082,0,0,0-.445.9.877.877,0,0,0,.414.789,5.1,5.1,0,0,0,1.5.508,7.8,7.8,0,0,1,1.754.578,2.558,2.558,0,0,1,1,.809,1.988,1.988,0,0,1,.324,1.152,2.163,2.163,0,0,1-.906,1.816A3.8,3.8,0,0,1,62.2.156,4.257,4.257,0,0,1,60.4-.2a2.922,2.922,0,0,1-1.223-1A2.42,2.42,0,0,1,58.734-2.6H60.18a1.5,1.5,0,0,0,.582,1.152,2.258,2.258,0,0,0,1.434.426,2.331,2.331,0,0,0,1.316-.332A1.02,1.02,0,0,0,64.008-2.242ZM68.906,0H67.453V-8.453h1.453Zm.016-11.992h1.75L68.578-9.7l-1.164,0Zm3.727,3.539.039.938A3.122,3.122,0,0,1,75.2-8.609,2.417,2.417,0,0,1,77.609-7.25a3.2,3.2,0,0,1,1.1-.984,3.242,3.242,0,0,1,1.6-.375q2.781,0,2.828,2.945V0H81.688V-5.578a1.941,1.941,0,0,0-.414-1.355,1.823,1.823,0,0,0-1.391-.449,1.916,1.916,0,0,0-1.336.48,1.949,1.949,0,0,0-.617,1.293V0H76.477V-5.539a1.613,1.613,0,0,0-1.8-1.844,1.934,1.934,0,0,0-1.945,1.211V0H71.281V-8.453ZM86.883,0H85.438V-8.453h1.445ZM85.32-10.7a.863.863,0,0,1,.215-.594.807.807,0,0,1,.637-.242.819.819,0,0,1,.641.242.854.854,0,0,1,.219.594.826.826,0,0,1-.219.586.834.834,0,0,1-.641.234.821.821,0,0,1-.637-.234A.834.834,0,0,1,85.32-10.7ZM90.766,0H89.32V-12h1.445Zm11.492,0a3.036,3.036,0,0,1-.2-.891A3.225,3.225,0,0,1,99.648.156,2.984,2.984,0,0,1,97.6-.551a2.288,2.288,0,0,1-.8-1.793,2.39,2.39,0,0,1,1-2.051,4.733,4.733,0,0,1,2.824-.73h1.406v-.664A1.623,1.623,0,0,0,101.578-7a1.821,1.821,0,0,0-1.336-.449,2.108,2.108,0,0,0-1.3.391,1.151,1.151,0,0,0-.523.945H96.969a2,2,0,0,1,.449-1.223,3.066,3.066,0,0,1,1.219-.934,4.1,4.1,0,0,1,1.691-.344,3.342,3.342,0,0,1,2.289.73,2.635,2.635,0,0,1,.859,2.012v3.891a4.757,4.757,0,0,0,.3,1.852V0Zm-2.4-1.1a2.54,2.54,0,0,0,1.289-.352,2.127,2.127,0,0,0,.883-.914V-4.1H100.9q-2.656,0-2.656,1.555A1.316,1.316,0,0,0,98.7-1.484,1.742,1.742,0,0,0,99.859-1.1ZM111.273,0h-1.445V-12h1.445ZM118.8,0a3.036,3.036,0,0,1-.2-.891A3.225,3.225,0,0,1,116.2.156a2.984,2.984,0,0,1-2.051-.707,2.288,2.288,0,0,1-.8-1.793,2.39,2.39,0,0,1,1-2.051,4.733,4.733,0,0,1,2.824-.73h1.406v-.664A1.623,1.623,0,0,0,118.125-7a1.821,1.821,0,0,0-1.336-.449,2.108,2.108,0,0,0-1.3.391,1.151,1.151,0,0,0-.523.945h-1.453a2,2,0,0,1,.449-1.223,3.066,3.066,0,0,1,1.219-.934,4.1,4.1,0,0,1,1.691-.344,3.342,3.342,0,0,1,2.289.73,2.635,2.635,0,0,1,.859,2.012v3.891a4.757,4.757,0,0,0,.3,1.852V0Zm-2.4-1.1a2.54,2.54,0,0,0,1.289-.352,2.127,2.127,0,0,0,.883-.914V-4.1h-1.133q-2.656,0-2.656,1.555a1.316,1.316,0,0,0,.453,1.063A1.742,1.742,0,0,0,116.406-1.1ZM125.9-4.3a4.952,4.952,0,0,1,.922-3.129,2.915,2.915,0,0,1,2.414-1.184,2.932,2.932,0,0,1,2.352,1.016V-12h1.445V0H131.7l-.07-.906A2.943,2.943,0,0,1,129.219.156a2.887,2.887,0,0,1-2.395-1.2,5.008,5.008,0,0,1-.926-3.141Zm1.445.164a3.749,3.749,0,0,0,.594,2.25,1.919,1.919,0,0,0,1.641.813A2.108,2.108,0,0,0,131.586-2.3V-6.187a2.125,2.125,0,0,0-1.992-1.2,1.929,1.929,0,0,0-1.656.82A4.128,4.128,0,0,0,127.344-4.133ZM138.781.156a3.693,3.693,0,0,1-2.8-1.129,4.19,4.19,0,0,1-1.078-3.02v-.266a5.073,5.073,0,0,1,.48-2.246,3.748,3.748,0,0,1,1.344-1.547,3.378,3.378,0,0,1,1.871-.559,3.166,3.166,0,0,1,2.563,1.086,4.7,4.7,0,0,1,.914,3.109v.6h-5.727a3,3,0,0,0,.73,2.02,2.3,2.3,0,0,0,1.777.77,2.517,2.517,0,0,0,1.3-.312,3.258,3.258,0,0,0,.93-.828l.883.688A3.55,3.55,0,0,1,138.781.156Zm-.18-7.578a1.928,1.928,0,0,0-1.469.637A3.1,3.1,0,0,0,136.4-5h4.234v-.109a2.753,2.753,0,0,0-.594-1.707A1.815,1.815,0,0,0,138.6-7.422ZM145.32,0h-1.445V-12h1.445ZM155.1.156a3.693,3.693,0,0,1-2.8-1.129,4.19,4.19,0,0,1-1.078-3.02v-.266a5.073,5.073,0,0,1,.48-2.246,3.748,3.748,0,0,1,1.344-1.547,3.378,3.378,0,0,1,1.871-.559,3.166,3.166,0,0,1,2.563,1.086,4.7,4.7,0,0,1,.914,3.109v.6h-5.727a3,3,0,0,0,.73,2.02,2.3,2.3,0,0,0,1.777.77,2.517,2.517,0,0,0,1.3-.312,3.258,3.258,0,0,0,.93-.828l.883.688A3.55,3.55,0,0,1,155.1.156Zm-.18-7.578a1.928,1.928,0,0,0-1.469.637A3.1,3.1,0,0,0,152.719-5h4.234v-.109a2.753,2.753,0,0,0-.594-1.707A1.815,1.815,0,0,0,154.922-7.422Zm10.07,5.18a1.064,1.064,0,0,0-.441-.91,4.249,4.249,0,0,0-1.539-.559,7.277,7.277,0,0,1-1.742-.562,2.479,2.479,0,0,1-.953-.781,1.869,1.869,0,0,1-.309-1.078,2.193,2.193,0,0,1,.879-1.758,3.432,3.432,0,0,1,2.246-.719,3.532,3.532,0,0,1,2.332.742,2.357,2.357,0,0,1,.895,1.9h-1.453a1.3,1.3,0,0,0-.5-1.023,1.888,1.888,0,0,0-1.27-.43,1.976,1.976,0,0,0-1.234.344,1.082,1.082,0,0,0-.445.9.877.877,0,0,0,.414.789,5.1,5.1,0,0,0,1.5.508,7.8,7.8,0,0,1,1.754.578,2.558,2.558,0,0,1,1,.809,1.988,1.988,0,0,1,.324,1.152,2.163,2.163,0,0,1-.906,1.816,3.8,3.8,0,0,1-2.352.684,4.257,4.257,0,0,1-1.8-.359,2.922,2.922,0,0,1-1.223-1,2.42,2.42,0,0,1-.441-1.395h1.445a1.5,1.5,0,0,0,.582,1.152,2.258,2.258,0,0,0,1.434.426,2.331,2.331,0,0,0,1.316-.332A1.02,1.02,0,0,0,164.992-2.242Zm6.719,1.219a2.082,2.082,0,0,0,1.352-.469,1.649,1.649,0,0,0,.641-1.172h1.367a2.621,2.621,0,0,1-.5,1.383,3.293,3.293,0,0,1-1.23,1.047,3.55,3.55,0,0,1-1.629.391A3.482,3.482,0,0,1,168.965-1a4.59,4.59,0,0,1-1.02-3.152v-.242a5.089,5.089,0,0,1,.453-2.2,3.451,3.451,0,0,1,1.3-1.492,3.7,3.7,0,0,1,2-.531,3.39,3.39,0,0,1,2.363.852,3.043,3.043,0,0,1,1,2.211H173.7a1.992,1.992,0,0,0-.621-1.348,1.932,1.932,0,0,0-1.379-.527A2.023,2.023,0,0,0,170-6.629a3.724,3.724,0,0,0-.605,2.293v.273a3.65,3.65,0,0,0,.6,2.25A2.033,2.033,0,0,0,171.711-1.023Zm4.6-3.281a4.993,4.993,0,0,1,.488-2.234A3.642,3.642,0,0,1,178.16-8.07a3.7,3.7,0,0,1,1.988-.539,3.565,3.565,0,0,1,2.793,1.2,4.6,4.6,0,0,1,1.066,3.18v.1a5.036,5.036,0,0,1-.473,2.215,3.589,3.589,0,0,1-1.352,1.527,3.743,3.743,0,0,1-2.02.547,3.556,3.556,0,0,1-2.785-1.2A4.575,4.575,0,0,1,176.313-4.2Zm1.453.172a3.616,3.616,0,0,0,.652,2.258,2.088,2.088,0,0,0,1.746.852,2.075,2.075,0,0,0,1.75-.863,3.954,3.954,0,0,0,.648-2.418,3.61,3.61,0,0,0-.66-2.254,2.1,2.1,0,0,0-1.754-.863,2.075,2.075,0,0,0-1.727.852A3.925,3.925,0,0,0,177.766-4.133ZM187.781-10.5v2.047h1.578v1.117h-1.578v5.249a1.173,1.173,0,0,0,.211.763.888.888,0,0,0,.719.254,3.5,3.5,0,0,0,.688-.094V0a4.215,4.215,0,0,1-1.109.155,1.8,1.8,0,0,1-1.461-.586,2.517,2.517,0,0,1-.492-1.664V-7.336H184.8V-8.453h1.539V-10.5ZM194.555.156a3.693,3.693,0,0,1-2.8-1.129,4.19,4.19,0,0,1-1.078-3.02v-.266a5.073,5.073,0,0,1,.48-2.246A3.748,3.748,0,0,1,192.5-8.051a3.378,3.378,0,0,1,1.871-.559,3.166,3.166,0,0,1,2.563,1.086,4.7,4.7,0,0,1,.914,3.109v.6h-5.727a3,3,0,0,0,.73,2.02,2.3,2.3,0,0,0,1.777.77,2.517,2.517,0,0,0,1.3-.312,3.258,3.258,0,0,0,.93-.828l.883.688A3.55,3.55,0,0,1,194.555.156Zm-.18-7.578a1.928,1.928,0,0,0-1.469.637A3.1,3.1,0,0,0,192.172-5h4.234v-.109a2.753,2.753,0,0,0-.594-1.707A1.815,1.815,0,0,0,194.375-7.422Z" transform="translate(1628.785 6985.089)"/>
        <path id="Trazado_107956" data-name="Trazado 107956" d="M2.82-4.453V0H1.32V-11.375h4.2a4.215,4.215,0,0,1,2.926.953A3.231,3.231,0,0,1,9.5-7.9,3.189,3.189,0,0,1,8.465-5.348,4.4,4.4,0,0,1,5.5-4.453Zm0-1.227h2.7a2.7,2.7,0,0,0,1.844-.567A2.075,2.075,0,0,0,8-7.887a2.143,2.143,0,0,0-.641-1.628A2.525,2.525,0,0,0,5.6-10.148H2.82Z" transform="translate(1947.347 6935.521)"/>
        <path id="Trazado_106431" data-name="Trazado 106431" d="M1870.667,6971.1s-12.094,55.559-87.5,43.275" fill="none" stroke="#000" stroke-miterlimit="10" stroke-width="1"/>
        <line id="Línea_364" data-name="Línea 364" y2="68.93" transform="translate(1854.793 6904.16)" fill="none" stroke="#000" stroke-miterlimit="10" stroke-width="2"/>
        <line id="Línea_365" data-name="Línea 365" y2="68.93" transform="translate(1870.667 6904.16)" fill="none" stroke="#000" stroke-miterlimit="10" stroke-width="2"/>
        <line id="Línea_366" data-name="Línea 366" y2="68.93" transform="translate(1923.958 6904.16)" fill="none" stroke="#000" stroke-miterlimit="10" stroke-width="2"/>
        <line id="Línea_367" data-name="Línea 367" y2="68.93" transform="translate(1980.651 6904.16)" fill="none" stroke="#000" stroke-miterlimit="10" stroke-width="2"/>
        <line id="Línea_368" data-name="Línea 368" x2="15.874" transform="translate(1854.793 6974.317)" fill="none" stroke="#6e679b" stroke-miterlimit="10" stroke-width="2"/>
        <circle id="Elipse_4142" data-name="Elipse 4142" cx="3.331" cy="3.331" r="3.331" transform="translate(1867.336 6956.672)" fill="#545454"/>
        <path id="Trazado_106432" data-name="Trazado 106432" d="M1872.084,6974.317h51.874s-5.4,33.683-53.291,37.985" fill="none" stroke="#c528e5" stroke-miterlimit="10" stroke-width="2"/>
      </g>
      <line id="Línea_369" data-name="Línea 369" x1="56.126" transform="translate(1924.525 6974.148)" fill="none" stroke="#75c955" stroke-linecap="round" stroke-linejoin="round" stroke-width="2"/>
    </g>
  </g>
</svg>
