<svg xmlns="http://www.w3.org/2000/svg" width="708" height="363" viewBox="0 0 708 363">
  <g id="Grupo_55899" data-name="Grupo 55899" transform="translate(3181.859 -581.669)">
    <rect id="Rectángulo_5441" data-name="Rectángulo 5441" width="708" height="363" transform="translate(-3181.859 581.669)" fill="#e8e8e8"/>
    <path id="Trazado_106296" data-name="Trazado 106296" d="M0,0H674.362V337.335H0Z" transform="translate(-3165.662 594.779)" fill="#ffefef"/>
    <path id="Trazado_107916" data-name="Trazado 107916" d="M5.813-3.943h-3.7V-.92H6.41V0H.99V-8.531H6.352v.92H2.115v2.748h3.7Zm5.52,2.262A.8.8,0,0,0,11-2.364a3.187,3.187,0,0,0-1.154-.419A5.457,5.457,0,0,1,8.54-3.205a1.859,1.859,0,0,1-.715-.586A1.4,1.4,0,0,1,7.594-4.6a1.645,1.645,0,0,1,.659-1.318,2.574,2.574,0,0,1,1.685-.539,2.649,2.649,0,0,1,1.749.557,1.768,1.768,0,0,1,.671,1.424h-1.09a.979.979,0,0,0-.378-.768,1.416,1.416,0,0,0-.952-.322,1.482,1.482,0,0,0-.926.258.812.812,0,0,0-.334.674.658.658,0,0,0,.311.592,3.821,3.821,0,0,0,1.122.381,5.847,5.847,0,0,1,1.315.434,1.919,1.919,0,0,1,.747.606,1.491,1.491,0,0,1,.243.864A1.623,1.623,0,0,1,11.736-.4,2.851,2.851,0,0,1,9.973.117a3.193,3.193,0,0,1-1.348-.27,2.192,2.192,0,0,1-.917-.753,1.815,1.815,0,0,1-.331-1.046H8.461a1.122,1.122,0,0,0,.437.864,1.693,1.693,0,0,0,1.075.319,1.748,1.748,0,0,0,.987-.249A.765.765,0,0,0,11.332-1.682ZM19.184-3.1a3.8,3.8,0,0,1-.662,2.332,2.122,2.122,0,0,1-1.793.885,2.325,2.325,0,0,1-1.816-.732V2.438H13.828V-6.34h.99l.053.7a2.233,2.233,0,0,1,1.84-.82,2.162,2.162,0,0,1,1.808.861,3.838,3.838,0,0,1,.665,2.4ZM18.1-3.223a2.8,2.8,0,0,0-.457-1.693,1.472,1.472,0,0,0-1.254-.621,1.593,1.593,0,0,0-1.477.873v3.029A1.6,1.6,0,0,0,16.4-.768a1.465,1.465,0,0,0,1.239-.618A3.058,3.058,0,0,0,18.1-3.223ZM24.475,0a2.277,2.277,0,0,1-.152-.668,2.419,2.419,0,0,1-1.8.785,2.238,2.238,0,0,1-1.538-.53,1.716,1.716,0,0,1-.6-1.345A1.792,1.792,0,0,1,21.132-3.3a3.55,3.55,0,0,1,2.118-.548H24.3v-.5a1.217,1.217,0,0,0-.34-.905,1.366,1.366,0,0,0-1-.337,1.581,1.581,0,0,0-.973.293.863.863,0,0,0-.393.709h-1.09a1.5,1.5,0,0,1,.337-.917,2.3,2.3,0,0,1,.914-.7,3.075,3.075,0,0,1,1.269-.258,2.506,2.506,0,0,1,1.717.548A1.976,1.976,0,0,1,25.389-4.4v2.918a3.567,3.567,0,0,0,.223,1.389V0Zm-1.8-.826a1.905,1.905,0,0,0,.967-.264,1.6,1.6,0,0,0,.662-.686v-1.3h-.85q-1.992,0-1.992,1.166a.987.987,0,0,0,.34.8A1.306,1.306,0,0,0,22.676-.826ZM28.266,0H27.182V-9h1.084Zm1.471-3.223a3.714,3.714,0,0,1,.691-2.347,2.186,2.186,0,0,1,1.811-.888A2.2,2.2,0,0,1,34-5.7V-9h1.084V0h-1l-.053-.68a2.208,2.208,0,0,1-1.811.8,2.165,2.165,0,0,1-1.8-.9,3.756,3.756,0,0,1-.694-2.355ZM30.82-3.1a2.812,2.812,0,0,0,.445,1.688A1.44,1.44,0,0,0,32.5-.8,1.581,1.581,0,0,0,34-1.729V-4.641a1.593,1.593,0,0,0-1.494-.9,1.446,1.446,0,0,0-1.242.615A3.1,3.1,0,0,0,30.82-3.1ZM40.682,0a2.277,2.277,0,0,1-.152-.668,2.419,2.419,0,0,1-1.8.785,2.238,2.238,0,0,1-1.538-.53,1.716,1.716,0,0,1-.6-1.345A1.792,1.792,0,0,1,37.339-3.3a3.55,3.55,0,0,1,2.118-.548h1.055v-.5a1.217,1.217,0,0,0-.34-.905,1.366,1.366,0,0,0-1-.337,1.581,1.581,0,0,0-.973.293.863.863,0,0,0-.393.709h-1.09a1.5,1.5,0,0,1,.337-.917,2.3,2.3,0,0,1,.914-.7,3.075,3.075,0,0,1,1.269-.258,2.506,2.506,0,0,1,1.717.548A1.976,1.976,0,0,1,41.6-4.4v2.918a3.567,3.567,0,0,0,.223,1.389V0Zm-1.8-.826a1.905,1.905,0,0,0,.967-.264,1.6,1.6,0,0,0,.662-.686v-1.3h-.85q-1.992,0-1.992,1.166a.987.987,0,0,0,.34.8A1.306,1.306,0,0,0,38.883-.826Z" transform="translate(-2604.617 879.268)"/>
    <path id="Trazado_107914" data-name="Trazado 107914" d="M3.814-1.494,6.252-8.531h1.23L4.318,0h-1L.164-8.531H1.389Zm8.391.867a2.3,2.3,0,0,1-1.857.744A1.971,1.971,0,0,1,8.8-.472a2.549,2.549,0,0,1-.536-1.743V-6.34H9.352v4.1Q9.352-.8,10.523-.8a1.623,1.623,0,0,0,1.652-.926V-6.34H13.26V0H12.229Zm5.332.744a2.77,2.77,0,0,1-2.1-.847,3.142,3.142,0,0,1-.809-2.265v-.2a3.8,3.8,0,0,1,.36-1.685A2.811,2.811,0,0,1,16-6.038a2.534,2.534,0,0,1,1.4-.419,2.374,2.374,0,0,1,1.922.814,3.526,3.526,0,0,1,.686,2.332v.451H15.715a2.254,2.254,0,0,0,.548,1.515A1.722,1.722,0,0,0,17.6-.768,1.888,1.888,0,0,0,18.568-1a2.444,2.444,0,0,0,.7-.621l.662.516A2.662,2.662,0,0,1,17.537.117ZM17.4-5.566a1.446,1.446,0,0,0-1.1.478A2.321,2.321,0,0,0,15.75-3.75h3.176v-.082a2.065,2.065,0,0,0-.445-1.28A1.361,1.361,0,0,0,17.4-5.566ZM22.441,0H21.357V-9h1.084Zm3.205-7.875V-6.34H26.83V-5.5H25.646v3.937a.88.88,0,0,0,.158.572.666.666,0,0,0,.539.191,2.624,2.624,0,0,0,.516-.07V0a3.161,3.161,0,0,1-.832.116,1.35,1.35,0,0,1-1.1-.439,1.888,1.888,0,0,1-.369-1.248V-5.5H23.408V-6.34h1.154V-7.875ZM32.01,0a2.277,2.277,0,0,1-.152-.668,2.419,2.419,0,0,1-1.8.785,2.238,2.238,0,0,1-1.538-.53,1.716,1.716,0,0,1-.6-1.345A1.792,1.792,0,0,1,28.667-3.3a3.55,3.55,0,0,1,2.118-.548H31.84v-.5a1.217,1.217,0,0,0-.34-.905,1.366,1.366,0,0,0-1-.337,1.581,1.581,0,0,0-.973.293.863.863,0,0,0-.393.709h-1.09A1.5,1.5,0,0,1,28.38-5.5a2.3,2.3,0,0,1,.914-.7,3.075,3.075,0,0,1,1.269-.258,2.506,2.506,0,0,1,1.717.548A1.976,1.976,0,0,1,32.924-4.4v2.918a3.567,3.567,0,0,0,.223,1.389V0Zm-1.8-.826a1.905,1.905,0,0,0,.967-.264,1.6,1.6,0,0,0,.662-.686v-1.3h-.85Q29-3.076,29-1.91a.987.987,0,0,0,.34.8A1.306,1.306,0,0,0,30.211-.826ZM40.225.117a2.77,2.77,0,0,1-2.1-.847,3.142,3.142,0,0,1-.809-2.265v-.2a3.8,3.8,0,0,1,.36-1.685,2.811,2.811,0,0,1,1.008-1.16,2.534,2.534,0,0,1,1.4-.419,2.374,2.374,0,0,1,1.922.814A3.526,3.526,0,0,1,42.7-3.311v.451H38.4a2.254,2.254,0,0,0,.548,1.515,1.722,1.722,0,0,0,1.333.577A1.888,1.888,0,0,0,41.256-1a2.444,2.444,0,0,0,.7-.621l.662.516A2.662,2.662,0,0,1,40.225.117ZM40.09-5.566a1.446,1.446,0,0,0-1.1.478,2.321,2.321,0,0,0-.551,1.339h3.176v-.082a2.065,2.065,0,0,0-.445-1.28A1.361,1.361,0,0,0,40.09-5.566Zm7.553,3.885a.8.8,0,0,0-.331-.683,3.187,3.187,0,0,0-1.154-.419,5.457,5.457,0,0,1-1.307-.422,1.859,1.859,0,0,1-.715-.586A1.4,1.4,0,0,1,43.9-4.6a1.645,1.645,0,0,1,.659-1.318,2.574,2.574,0,0,1,1.685-.539A2.649,2.649,0,0,1,48-5.9a1.768,1.768,0,0,1,.671,1.424h-1.09a.979.979,0,0,0-.378-.768,1.416,1.416,0,0,0-.952-.322,1.482,1.482,0,0,0-.926.258.812.812,0,0,0-.334.674.658.658,0,0,0,.311.592,3.821,3.821,0,0,0,1.122.381,5.847,5.847,0,0,1,1.315.434,1.919,1.919,0,0,1,.747.606,1.491,1.491,0,0,1,.243.864A1.623,1.623,0,0,1,48.047-.4a2.851,2.851,0,0,1-1.764.513,3.193,3.193,0,0,1-1.348-.27,2.192,2.192,0,0,1-.917-.753,1.815,1.815,0,0,1-.331-1.046h1.084a1.122,1.122,0,0,0,.437.864,1.693,1.693,0,0,0,1.075.319,1.748,1.748,0,0,0,.987-.249A.765.765,0,0,0,47.643-1.682ZM55.494-3.1a3.8,3.8,0,0,1-.662,2.332,2.122,2.122,0,0,1-1.793.885,2.325,2.325,0,0,1-1.816-.732V2.438H50.139V-6.34h.99l.053.7a2.233,2.233,0,0,1,1.84-.82,2.162,2.162,0,0,1,1.808.861,3.838,3.838,0,0,1,.665,2.4ZM54.41-3.223a2.8,2.8,0,0,0-.457-1.693A1.472,1.472,0,0,0,52.7-5.537a1.593,1.593,0,0,0-1.477.873v3.029a1.6,1.6,0,0,0,1.488.867,1.465,1.465,0,0,0,1.239-.618A3.058,3.058,0,0,0,54.41-3.223ZM60.785,0a2.277,2.277,0,0,1-.152-.668,2.419,2.419,0,0,1-1.8.785,2.238,2.238,0,0,1-1.538-.53,1.716,1.716,0,0,1-.6-1.345A1.792,1.792,0,0,1,57.442-3.3a3.55,3.55,0,0,1,2.118-.548h1.055v-.5a1.217,1.217,0,0,0-.34-.905,1.366,1.366,0,0,0-1-.337,1.581,1.581,0,0,0-.973.293.863.863,0,0,0-.393.709h-1.09a1.5,1.5,0,0,1,.337-.917,2.3,2.3,0,0,1,.914-.7,3.075,3.075,0,0,1,1.269-.258,2.506,2.506,0,0,1,1.717.548A1.976,1.976,0,0,1,61.7-4.4v2.918a3.567,3.567,0,0,0,.223,1.389V0Zm-1.8-.826a1.905,1.905,0,0,0,.967-.264,1.6,1.6,0,0,0,.662-.686v-1.3h-.85q-1.992,0-1.992,1.166a.987.987,0,0,0,.34.8A1.306,1.306,0,0,0,58.986-.826ZM64.576,0H63.492V-9h1.084Zm1.471-3.223a3.714,3.714,0,0,1,.691-2.347,2.186,2.186,0,0,1,1.811-.888,2.2,2.2,0,0,1,1.764.762V-9H71.4V0h-1l-.053-.68a2.208,2.208,0,0,1-1.811.8,2.165,2.165,0,0,1-1.8-.9,3.756,3.756,0,0,1-.694-2.355Zm1.084.123a2.812,2.812,0,0,0,.445,1.688,1.44,1.44,0,0,0,1.23.609,1.581,1.581,0,0,0,1.506-.926V-4.641a1.593,1.593,0,0,0-1.494-.9,1.446,1.446,0,0,0-1.242.615A3.1,3.1,0,0,0,67.131-3.1ZM76.992,0a2.277,2.277,0,0,1-.152-.668,2.419,2.419,0,0,1-1.8.785A2.238,2.238,0,0,1,73.5-.413a1.716,1.716,0,0,1-.6-1.345A1.792,1.792,0,0,1,73.649-3.3a3.55,3.55,0,0,1,2.118-.548h1.055v-.5a1.217,1.217,0,0,0-.34-.905,1.366,1.366,0,0,0-1-.337,1.581,1.581,0,0,0-.973.293.863.863,0,0,0-.393.709h-1.09a1.5,1.5,0,0,1,.337-.917,2.3,2.3,0,0,1,.914-.7,3.075,3.075,0,0,1,1.269-.258,2.506,2.506,0,0,1,1.717.548A1.976,1.976,0,0,1,77.906-4.4v2.918a3.567,3.567,0,0,0,.223,1.389V0Zm-1.8-.826a1.905,1.905,0,0,0,.967-.264,1.6,1.6,0,0,0,.662-.686v-1.3h-.85q-1.992,0-1.992,1.166a.987.987,0,0,0,.34.8A1.306,1.306,0,0,0,75.193-.826Z" transform="translate(-2601.464 644.043)"/>
    <path id="Trazado_107915" data-name="Trazado 107915" d="M7.266-2.707a3.139,3.139,0,0,1-1,2.089A3.274,3.274,0,0,1,4.031.117,3.006,3.006,0,0,1,1.608-.967,4.361,4.361,0,0,1,.7-3.867v-.82a4.861,4.861,0,0,1,.425-2.092,3.173,3.173,0,0,1,1.2-1.386,3.353,3.353,0,0,1,1.8-.483,3.083,3.083,0,0,1,2.18.759,3.176,3.176,0,0,1,.955,2.1H6.135A2.451,2.451,0,0,0,5.5-7.27a1.924,1.924,0,0,0-1.368-.458,2.013,2.013,0,0,0-1.69.8,3.661,3.661,0,0,0-.612,2.269v.827a3.764,3.764,0,0,0,.58,2.211A1.874,1.874,0,0,0,4.031-.8,2.165,2.165,0,0,0,5.47-1.228a2.357,2.357,0,0,0,.665-1.479Zm4,2.824a2.77,2.77,0,0,1-2.1-.847,3.142,3.142,0,0,1-.809-2.265v-.2a3.8,3.8,0,0,1,.36-1.685,2.811,2.811,0,0,1,1.008-1.16,2.534,2.534,0,0,1,1.4-.419,2.374,2.374,0,0,1,1.922.814,3.526,3.526,0,0,1,.686,2.332v.451H9.439a2.254,2.254,0,0,0,.548,1.515,1.722,1.722,0,0,0,1.333.577A1.888,1.888,0,0,0,12.293-1a2.444,2.444,0,0,0,.7-.621l.662.516A2.662,2.662,0,0,1,11.262.117Zm-.135-5.684a1.446,1.446,0,0,0-1.1.478A2.321,2.321,0,0,0,9.475-3.75H12.65v-.082a2.065,2.065,0,0,0-.445-1.28A1.361,1.361,0,0,0,11.127-5.566Zm6.926.2a3.248,3.248,0,0,0-.533-.041,1.428,1.428,0,0,0-1.447.908V0H14.988V-6.34h1.055l.018.732a1.688,1.688,0,0,1,1.512-.85,1.107,1.107,0,0,1,.48.082Zm4.061,0a3.248,3.248,0,0,0-.533-.041,1.428,1.428,0,0,0-1.447.908V0H19.049V-6.34H20.1l.018.732a1.688,1.688,0,0,1,1.512-.85,1.107,1.107,0,0,1,.48.082ZM26.789,0a2.277,2.277,0,0,1-.152-.668,2.419,2.419,0,0,1-1.8.785,2.238,2.238,0,0,1-1.538-.53,1.716,1.716,0,0,1-.6-1.345A1.792,1.792,0,0,1,23.446-3.3a3.55,3.55,0,0,1,2.118-.548h1.055v-.5a1.217,1.217,0,0,0-.34-.905,1.366,1.366,0,0,0-1-.337,1.581,1.581,0,0,0-.973.293.863.863,0,0,0-.393.709h-1.09a1.5,1.5,0,0,1,.337-.917,2.3,2.3,0,0,1,.914-.7,3.075,3.075,0,0,1,1.269-.258,2.506,2.506,0,0,1,1.717.548A1.976,1.976,0,0,1,27.7-4.4v2.918a3.567,3.567,0,0,0,.223,1.389V0Zm-1.8-.826a1.905,1.905,0,0,0,.967-.264,1.6,1.6,0,0,0,.662-.686v-1.3h-.85q-1.992,0-1.992,1.166a.987.987,0,0,0,.34.8A1.306,1.306,0,0,0,24.99-.826Zm7.477-4.541a3.248,3.248,0,0,0-.533-.041,1.428,1.428,0,0,0-1.447.908V0H29.4V-6.34h1.055l.018.732a1.688,1.688,0,0,1,1.512-.85,1.107,1.107,0,0,1,.48.082ZM41.789-3.1a3.8,3.8,0,0,1-.662,2.332,2.122,2.122,0,0,1-1.793.885,2.325,2.325,0,0,1-1.816-.732V2.438H36.434V-6.34h.99l.053.7a2.233,2.233,0,0,1,1.84-.82,2.162,2.162,0,0,1,1.808.861,3.838,3.838,0,0,1,.665,2.4Zm-1.084-.123a2.8,2.8,0,0,0-.457-1.693,1.472,1.472,0,0,0-1.254-.621,1.593,1.593,0,0,0-1.477.873v3.029a1.6,1.6,0,0,0,1.488.867,1.465,1.465,0,0,0,1.239-.618A3.058,3.058,0,0,0,40.705-3.223ZM44.344,0H43.26V-6.34h1.084ZM43.172-8.021a.647.647,0,0,1,.161-.445.6.6,0,0,1,.478-.182.614.614,0,0,1,.48.182.64.64,0,0,1,.164.445.619.619,0,0,1-.164.439.626.626,0,0,1-.48.176.616.616,0,0,1-.478-.176A.626.626,0,0,1,43.172-8.021ZM47.1-6.34l.035.8a2.31,2.31,0,0,1,1.9-.914q2.01,0,2.027,2.268V0H49.98V-4.2a1.459,1.459,0,0,0-.313-1.014,1.256,1.256,0,0,0-.958-.328,1.564,1.564,0,0,0-.926.281,1.91,1.91,0,0,0-.621.738V0H46.078V-6.34ZM53.719-.885h3.709V0H52.395V-.8l3.5-4.646H52.447v-.9h4.8v.768ZM62.561,0a2.277,2.277,0,0,1-.152-.668,2.419,2.419,0,0,1-1.8.785,2.238,2.238,0,0,1-1.538-.53,1.716,1.716,0,0,1-.6-1.345A1.792,1.792,0,0,1,59.218-3.3a3.55,3.55,0,0,1,2.118-.548h1.055v-.5a1.217,1.217,0,0,0-.34-.905,1.366,1.366,0,0,0-1-.337,1.581,1.581,0,0,0-.973.293.863.863,0,0,0-.393.709h-1.09a1.5,1.5,0,0,1,.337-.917,2.3,2.3,0,0,1,.914-.7,3.075,3.075,0,0,1,1.269-.258,2.506,2.506,0,0,1,1.717.548A1.976,1.976,0,0,1,63.475-4.4v2.918A3.567,3.567,0,0,0,63.7-.094V0Zm-1.8-.826a1.905,1.905,0,0,0,.967-.264,1.6,1.6,0,0,0,.662-.686v-1.3h-.85q-1.992,0-1.992,1.166a.987.987,0,0,0,.34.8A1.306,1.306,0,0,0,60.762-.826Z" transform="translate(-2622.772 712.219)"/>
    <path id="Trazado_107918" data-name="Trazado 107918" d="M3.814-1.494,6.252-8.531h1.23L4.318,0h-1L.164-8.531H1.389Zm8.391.867a2.3,2.3,0,0,1-1.857.744A1.971,1.971,0,0,1,8.8-.472a2.549,2.549,0,0,1-.536-1.743V-6.34H9.352v4.1Q9.352-.8,10.523-.8a1.623,1.623,0,0,0,1.652-.926V-6.34H13.26V0H12.229Zm5.332.744a2.77,2.77,0,0,1-2.1-.847,3.142,3.142,0,0,1-.809-2.265v-.2a3.8,3.8,0,0,1,.36-1.685A2.811,2.811,0,0,1,16-6.038a2.534,2.534,0,0,1,1.4-.419,2.374,2.374,0,0,1,1.922.814,3.526,3.526,0,0,1,.686,2.332v.451H15.715a2.254,2.254,0,0,0,.548,1.515A1.722,1.722,0,0,0,17.6-.768,1.888,1.888,0,0,0,18.568-1a2.444,2.444,0,0,0,.7-.621l.662.516A2.662,2.662,0,0,1,17.537.117ZM17.4-5.566a1.446,1.446,0,0,0-1.1.478A2.321,2.321,0,0,0,15.75-3.75h3.176v-.082a2.065,2.065,0,0,0-.445-1.28A1.361,1.361,0,0,0,17.4-5.566ZM22.441,0H21.357V-9h1.084Zm3.205-7.875V-6.34H26.83V-5.5H25.646v3.937a.88.88,0,0,0,.158.572.666.666,0,0,0,.539.191,2.624,2.624,0,0,0,.516-.07V0a3.161,3.161,0,0,1-.832.116,1.35,1.35,0,0,1-1.1-.439,1.888,1.888,0,0,1-.369-1.248V-5.5H23.408V-6.34h1.154V-7.875ZM32.01,0a2.277,2.277,0,0,1-.152-.668,2.419,2.419,0,0,1-1.8.785,2.238,2.238,0,0,1-1.538-.53,1.716,1.716,0,0,1-.6-1.345A1.792,1.792,0,0,1,28.667-3.3a3.55,3.55,0,0,1,2.118-.548H31.84v-.5a1.217,1.217,0,0,0-.34-.905,1.366,1.366,0,0,0-1-.337,1.581,1.581,0,0,0-.973.293.863.863,0,0,0-.393.709h-1.09A1.5,1.5,0,0,1,28.38-5.5a2.3,2.3,0,0,1,.914-.7,3.075,3.075,0,0,1,1.269-.258,2.506,2.506,0,0,1,1.717.548A1.976,1.976,0,0,1,32.924-4.4v2.918a3.567,3.567,0,0,0,.223,1.389V0Zm-1.8-.826a1.905,1.905,0,0,0,.967-.264,1.6,1.6,0,0,0,.662-.686v-1.3h-.85Q29-3.076,29-1.91a.987.987,0,0,0,.34.8A1.306,1.306,0,0,0,30.211-.826Zm7.119-2.4a3.714,3.714,0,0,1,.691-2.347,2.186,2.186,0,0,1,1.811-.888A2.2,2.2,0,0,1,41.6-5.7V-9H42.68V0h-1l-.053-.68a2.208,2.208,0,0,1-1.811.8,2.165,2.165,0,0,1-1.8-.9,3.756,3.756,0,0,1-.694-2.355Zm1.084.123a2.812,2.812,0,0,0,.445,1.688A1.44,1.44,0,0,0,40.09-.8,1.581,1.581,0,0,0,41.6-1.729V-4.641a1.593,1.593,0,0,0-1.494-.9,1.446,1.446,0,0,0-1.242.615A3.1,3.1,0,0,0,38.414-3.1ZM46.992.117a2.77,2.77,0,0,1-2.1-.847,3.142,3.142,0,0,1-.809-2.265v-.2a3.8,3.8,0,0,1,.36-1.685,2.811,2.811,0,0,1,1.008-1.16,2.534,2.534,0,0,1,1.4-.419,2.374,2.374,0,0,1,1.922.814,3.526,3.526,0,0,1,.686,2.332v.451H45.17a2.254,2.254,0,0,0,.548,1.515,1.722,1.722,0,0,0,1.333.577A1.888,1.888,0,0,0,48.023-1a2.444,2.444,0,0,0,.7-.621l.662.516A2.662,2.662,0,0,1,46.992.117Zm-.135-5.684a1.446,1.446,0,0,0-1.1.478,2.321,2.321,0,0,0-.551,1.339h3.176v-.082a2.065,2.065,0,0,0-.445-1.28A1.361,1.361,0,0,0,46.857-5.566ZM51.9,0H50.813V-9H51.9Zm5.648,0a2.277,2.277,0,0,1-.152-.668,2.419,2.419,0,0,1-1.8.785,2.238,2.238,0,0,1-1.538-.53,1.716,1.716,0,0,1-.6-1.345A1.792,1.792,0,0,1,54.2-3.3a3.55,3.55,0,0,1,2.118-.548h1.055v-.5a1.217,1.217,0,0,0-.34-.905,1.366,1.366,0,0,0-1-.337,1.581,1.581,0,0,0-.973.293.863.863,0,0,0-.393.709h-1.09a1.5,1.5,0,0,1,.337-.917,2.3,2.3,0,0,1,.914-.7A3.075,3.075,0,0,1,56.1-6.457a2.506,2.506,0,0,1,1.717.548A1.976,1.976,0,0,1,58.459-4.4v2.918a3.567,3.567,0,0,0,.223,1.389V0Zm-1.8-.826a1.905,1.905,0,0,0,.967-.264,1.6,1.6,0,0,0,.662-.686v-1.3h-.85q-1.992,0-1.992,1.166a.987.987,0,0,0,.34.8A1.306,1.306,0,0,0,55.746-.826ZM61.184-6.34l.035.8a2.31,2.31,0,0,1,1.9-.914q2.01,0,2.027,2.268V0H64.061V-4.2a1.459,1.459,0,0,0-.313-1.014,1.256,1.256,0,0,0-.958-.328,1.564,1.564,0,0,0-.926.281,1.91,1.91,0,0,0-.621.738V0H60.158V-6.34ZM68.25-7.875V-6.34h1.184V-5.5H68.25v3.937a.88.88,0,0,0,.158.572.666.666,0,0,0,.539.191,2.624,2.624,0,0,0,.516-.07V0a3.161,3.161,0,0,1-.832.116,1.35,1.35,0,0,1-1.1-.439,1.888,1.888,0,0,1-.369-1.248V-5.5H66.012V-6.34h1.154V-7.875ZM73.33.117a2.77,2.77,0,0,1-2.1-.847,3.142,3.142,0,0,1-.809-2.265v-.2a3.8,3.8,0,0,1,.36-1.685,2.811,2.811,0,0,1,1.008-1.16,2.534,2.534,0,0,1,1.4-.419,2.374,2.374,0,0,1,1.922.814A3.526,3.526,0,0,1,75.8-3.311v.451H71.508a2.254,2.254,0,0,0,.548,1.515,1.722,1.722,0,0,0,1.333.577A1.888,1.888,0,0,0,74.361-1a2.444,2.444,0,0,0,.7-.621l.662.516A2.662,2.662,0,0,1,73.33.117ZM73.2-5.566a1.446,1.446,0,0,0-1.1.478,2.321,2.321,0,0,0-.551,1.339h3.176v-.082a2.065,2.065,0,0,0-.445-1.28A1.361,1.361,0,0,0,73.2-5.566Zm6.926.2a3.248,3.248,0,0,0-.533-.041,1.428,1.428,0,0,0-1.447.908V0H77.057V-6.34h1.055l.018.732a1.688,1.688,0,0,1,1.512-.85,1.107,1.107,0,0,1,.48.082Zm.592,2.139A3.745,3.745,0,0,1,81.079-4.9,2.732,2.732,0,0,1,82.1-6.053a2.775,2.775,0,0,1,1.491-.4,2.674,2.674,0,0,1,2.095.9,3.449,3.449,0,0,1,.8,2.385V-3.1a3.777,3.777,0,0,1-.354,1.661A2.692,2.692,0,0,1,85.116-.293,2.807,2.807,0,0,1,83.6.117a2.667,2.667,0,0,1-2.089-.9,3.432,3.432,0,0,1-.8-2.373ZM81.8-3.1a2.712,2.712,0,0,0,.489,1.693,1.566,1.566,0,0,0,1.31.639,1.556,1.556,0,0,0,1.313-.647A2.966,2.966,0,0,0,85.4-3.229a2.708,2.708,0,0,0-.5-1.69,1.574,1.574,0,0,0-1.315-.647,1.557,1.557,0,0,0-1.295.639A2.944,2.944,0,0,0,81.8-3.1Z" transform="translate(-3128.741 639.293)"/>
    <rect id="Rectángulo_5543" data-name="Rectángulo 5543" width="121.401" height="34.016" transform="translate(-2644.081 858.858)" fill="none" stroke="#86bec4" stroke-linecap="round" stroke-linejoin="round" stroke-width="1.806" stroke-dasharray="8.101"/>
    <path id="Trazado_107917" data-name="Trazado 107917" d="M.99,0V-8.531H3.4a3.877,3.877,0,0,1,1.969.492,3.329,3.329,0,0,1,1.321,1.4A4.558,4.558,0,0,1,7.16-4.553v.545a4.574,4.574,0,0,1-.466,2.115A3.277,3.277,0,0,1,5.364-.5,4.124,4.124,0,0,1,3.352,0ZM2.115-7.611V-.92H3.3a2.575,2.575,0,0,0,2.024-.809,3.344,3.344,0,0,0,.724-2.3v-.5a3.4,3.4,0,0,0-.683-2.261,2.429,2.429,0,0,0-1.937-.818ZM11.32.117a2.77,2.77,0,0,1-2.1-.847,3.142,3.142,0,0,1-.809-2.265v-.2a3.8,3.8,0,0,1,.36-1.685,2.811,2.811,0,0,1,1.008-1.16,2.534,2.534,0,0,1,1.4-.419,2.374,2.374,0,0,1,1.922.814,3.526,3.526,0,0,1,.686,2.332v.451H9.5a2.254,2.254,0,0,0,.548,1.515,1.722,1.722,0,0,0,1.333.577A1.888,1.888,0,0,0,12.352-1a2.444,2.444,0,0,0,.7-.621l.662.516A2.662,2.662,0,0,1,11.32.117Zm-.135-5.684a1.446,1.446,0,0,0-1.1.478A2.321,2.321,0,0,0,9.533-3.75h3.176v-.082a2.065,2.065,0,0,0-.445-1.28A1.361,1.361,0,0,0,11.186-5.566ZM16.225,0H15.141V-9h1.084Zm5.648,0a2.277,2.277,0,0,1-.152-.668,2.419,2.419,0,0,1-1.8.785,2.238,2.238,0,0,1-1.538-.53,1.716,1.716,0,0,1-.6-1.345A1.792,1.792,0,0,1,18.53-3.3a3.55,3.55,0,0,1,2.118-.548H21.7v-.5a1.217,1.217,0,0,0-.34-.905,1.366,1.366,0,0,0-1-.337,1.581,1.581,0,0,0-.973.293A.863.863,0,0,0,19-4.582h-1.09a1.5,1.5,0,0,1,.337-.917,2.3,2.3,0,0,1,.914-.7,3.075,3.075,0,0,1,1.269-.258,2.506,2.506,0,0,1,1.717.548A1.976,1.976,0,0,1,22.787-4.4v2.918A3.567,3.567,0,0,0,23.01-.094V0Zm-1.8-.826a1.905,1.905,0,0,0,.967-.264,1.6,1.6,0,0,0,.662-.686v-1.3h-.85q-1.992,0-1.992,1.166a.987.987,0,0,0,.34.8A1.306,1.306,0,0,0,20.074-.826ZM25.512-6.34l.035.8a2.31,2.31,0,0,1,1.9-.914q2.01,0,2.027,2.268V0H28.389V-4.2a1.459,1.459,0,0,0-.313-1.014,1.256,1.256,0,0,0-.958-.328,1.564,1.564,0,0,0-.926.281,1.91,1.91,0,0,0-.621.738V0H24.486V-6.34Zm7.066-1.535V-6.34h1.184V-5.5H32.578v3.937a.88.88,0,0,0,.158.572.666.666,0,0,0,.539.191,2.624,2.624,0,0,0,.516-.07V0a3.161,3.161,0,0,1-.832.116,1.35,1.35,0,0,1-1.1-.439,1.888,1.888,0,0,1-.369-1.248V-5.5H30.34V-6.34h1.154V-7.875ZM37.658.117a2.77,2.77,0,0,1-2.1-.847,3.142,3.142,0,0,1-.809-2.265v-.2a3.8,3.8,0,0,1,.36-1.685,2.811,2.811,0,0,1,1.008-1.16,2.534,2.534,0,0,1,1.4-.419,2.374,2.374,0,0,1,1.922.814,3.526,3.526,0,0,1,.686,2.332v.451H35.836a2.254,2.254,0,0,0,.548,1.515,1.722,1.722,0,0,0,1.333.577A1.888,1.888,0,0,0,38.689-1a2.444,2.444,0,0,0,.7-.621l.662.516A2.662,2.662,0,0,1,37.658.117Zm-.135-5.684a1.446,1.446,0,0,0-1.1.478,2.321,2.321,0,0,0-.551,1.339h3.176v-.082a2.065,2.065,0,0,0-.445-1.28A1.361,1.361,0,0,0,37.523-5.566Zm6.926.2a3.248,3.248,0,0,0-.533-.041,1.428,1.428,0,0,0-1.447.908V0H41.385V-6.34h1.055l.018.732a1.688,1.688,0,0,1,1.512-.85,1.107,1.107,0,0,1,.48.082Zm.592,2.139A3.745,3.745,0,0,1,45.407-4.9a2.732,2.732,0,0,1,1.02-1.148,2.775,2.775,0,0,1,1.491-.4,2.674,2.674,0,0,1,2.095.9,3.449,3.449,0,0,1,.8,2.385V-3.1a3.777,3.777,0,0,1-.354,1.661A2.692,2.692,0,0,1,49.444-.293a2.807,2.807,0,0,1-1.515.41,2.667,2.667,0,0,1-2.089-.9,3.432,3.432,0,0,1-.8-2.373Zm1.09.129a2.712,2.712,0,0,0,.489,1.693,1.566,1.566,0,0,0,1.31.639,1.556,1.556,0,0,0,1.313-.647,2.966,2.966,0,0,0,.486-1.813,2.708,2.708,0,0,0-.5-1.69,1.574,1.574,0,0,0-1.315-.647,1.557,1.557,0,0,0-1.295.639A2.944,2.944,0,0,0,46.131-3.1Z" transform="translate(-3093.717 879.267)"/>
    <rect id="Rectángulo_5544" data-name="Rectángulo 5544" width="121.401" height="34.016" transform="translate(-3128.741 858.858)" fill="none" stroke="#86bec4" stroke-linecap="round" stroke-linejoin="round" stroke-width="1.806" stroke-dasharray="8.101"/>
    <path id="Trazado_106289" data-name="Trazado 106289" d="M-2825.315,650.693l-2.544,18.9s56.213,6.047,67.93-68.41c0,0,56.315,4.914,58.2,2.268V583.795s-55.938,4.914-72.945-12.094l-15.118,5.291S-2775.425,646.913-2825.315,650.693Z" transform="translate(0 43)" fill="#fff" stroke="#8c757e" stroke-linecap="round" stroke-linejoin="round" stroke-width="2.235"/>
    <line id="Línea_263" data-name="Línea 263" y1="16.157" x2="2.929" transform="translate(-2759.646 625.378)" fill="none" stroke="#ff9696" stroke-linecap="round" stroke-linejoin="round" stroke-width="1.932" stroke-dasharray="3"/>
    <path id="Trazado_106290" data-name="Trazado 106290" d="M-2898.26,571.7l15.307,3.968s-21.921,77.859,36.095,76.914l2.456,19.464s-47.055.945-57.071-24.945-14.929-27.661-60.85-26.4V583.984S-2906.386,587.008-2898.26,571.7Z" transform="translate(0 43)" fill="#fff" stroke="#8c757e" stroke-linecap="round" stroke-linejoin="round" stroke-width="2.235"/>
    <path id="Trazado_106291" data-name="Trazado 106291" d="M-2772.78,675.638l1.512,20.787,6.476-20.787s38.5,6.425,52.107,2.268l1.89,177.259-37.04,1.89-8.882-83.9-8.075,83.9s-38.224-1.134-44.649,0l-13.984-99.779s45.354-5.292,19.275-79.37l12.095-8.2Z" transform="translate(0 43)" fill="#fff" stroke="#8c757e" stroke-linecap="round" stroke-linejoin="round" stroke-width="2.235"/>
    <path id="Trazado_106292" data-name="Trazado 106292" d="M-2899.772,679.795l16.63,5.292s-15.874,83.905,35.528,75.59l13.984,97.89-48.378,14.183-32.882-77.679-11.716,83.905-35.717-2.645V692.268S-2903.929,697.937-2899.772,679.795Z" transform="translate(0 43)" fill="#fff" stroke="#8c757e" stroke-linecap="round" stroke-linejoin="round" stroke-width="2.235"/>
    <path id="Trazado_106293" data-name="Trazado 106293" d="M-2818.134,776.173s51.024-9.354,46.205-75.685l-.284-3.472,2.41-1.559s51.874,4.606,55.63,1.842" transform="translate(0 43)" fill="none" stroke="#ff9696" stroke-linecap="round" stroke-linejoin="round" stroke-width="1.932" stroke-dasharray="3"/>
    <path id="Trazado_106294" data-name="Trazado 106294" d="M-2848.37,781.465s-27.024,6.236-46.866-18.9-12.473-33.827-41.575-34.583h-22.394" transform="translate(0 43)" fill="none" stroke="#ff9696" stroke-linecap="round" stroke-linejoin="round" stroke-width="1.932" stroke-dasharray="3"/>
    <path id="Trazado_106295" data-name="Trazado 106295" d="M-2775.331,620.7l107.717,49h39.187" transform="translate(0 43)" fill="none" stroke="#86bec4" stroke-linecap="round" stroke-linejoin="round" stroke-width="1.806" stroke-dasharray="8.101"/>
    <line id="Línea_264" data-name="Línea 264" x2="122.346" transform="translate(-2773.157 892.874)" fill="none" stroke="#86bec4" stroke-linecap="round" stroke-linejoin="round" stroke-width="1.806" stroke-dasharray="8.101"/>
    <line id="Línea_265" data-name="Línea 265" x1="129.111" transform="translate(-3007.34 892.874)" fill="none" stroke="#86bec4" stroke-linecap="round" stroke-linejoin="round" stroke-width="1.806" stroke-dasharray="8.101"/>
    <line id="Línea_266" data-name="Línea 266" x2="105.543" transform="translate(-2711.929 641.536)" fill="none" stroke="#86bec4" stroke-linecap="round" stroke-linejoin="round" stroke-width="1.806" stroke-dasharray="8.101"/>
    <line id="Línea_267" data-name="Línea 267" x2="86.092" transform="translate(-3031.927 637.707)" fill="none" stroke="#86bec4" stroke-linecap="round" stroke-linejoin="round" stroke-width="1.952" stroke-dasharray="8.754"/>
    <line id="Línea_268" data-name="Línea 268" y2="139.181" transform="translate(-2724.024 746.323)" fill="none" stroke="#424242" stroke-linecap="round" stroke-linejoin="round" stroke-width="1"/>
    <line id="Línea_269" data-name="Línea 269" y2="163.559" transform="translate(-2951.929 746.323)" fill="none" stroke="#424242" stroke-linecap="round" stroke-linejoin="round" stroke-width="1"/>
    <line id="Línea_270" data-name="Línea 270" y2="29.279" transform="translate(-2910.827 629.737)" fill="none" stroke="#424242" stroke-linecap="round" stroke-linejoin="round" stroke-width="1"/>
    <line id="Línea_271" data-name="Línea 271" y2="12.082" transform="translate(-2752.323 628.603)" fill="none" stroke="#424242" stroke-linecap="round" stroke-linejoin="round" stroke-width="1"/>
  </g>
</svg>
