<svg xmlns="http://www.w3.org/2000/svg" width="708" height="363" viewBox="0 0 708 363">
  <g id="Grupo_56295" data-name="Grupo 56295" transform="translate(2476 6966)">
    <rect id="Rectángulo_5441" data-name="Rectángulo 5441" width="708" height="363" transform="translate(-2476 -6966)" fill="#e8e8e8"/>
    <g id="Grupo_56294" data-name="Grupo 56294">
      <rect id="Rectángulo_5527" data-name="Rectángulo 5527" width="674.362" height="337.335" transform="translate(-2459.803 -6952.89)" fill="#ffefef"/>
      <path id="Trazado_106268" data-name="Trazado 106268" d="M-2822.291-345.213V-592.394h22.3c48.378-3.4,55.559-79.37,55.559-79.37l43.464,14.74v311.2Z" transform="translate(705.859 -6270.343)" fill="#fff"/>
      <path id="Trazado_106269" data-name="Trazado 106269" d="M-2700.969-657.024l-43.464-14.74s-7.181,75.969-55.559,79.37h-22.3v247.181" transform="translate(705.859 -6270.343)" fill="none" stroke="#8c757e" stroke-linecap="round" stroke-linejoin="round" stroke-width="2.235"/>
      <line id="Línea_244" data-name="Línea 244" y1="247.181" transform="translate(-2094.133 -6862.736)" fill="none" stroke="#8c757e" stroke-linecap="round" stroke-linejoin="round" stroke-width="2.235"/>
      <circle id="Elipse_4106" data-name="Elipse 4106" cx="10.961" cy="10.961" r="10.961" transform="translate(-2105.094 -6846.862)" fill="none" stroke="#8c757e" stroke-linecap="round" stroke-linejoin="round" stroke-width="2.235"/>
      <circle id="Elipse_4107" data-name="Elipse 4107" cx="10.961" cy="10.961" r="10.961" transform="translate(-2105.094 -6779.78)" fill="none" stroke="#8c757e" stroke-linecap="round" stroke-linejoin="round" stroke-width="2.235"/>
      <path id="Trazado_107897" data-name="Trazado 107897" d="M.99,0V-8.531H3.4a3.877,3.877,0,0,1,1.969.492,3.329,3.329,0,0,1,1.321,1.4A4.558,4.558,0,0,1,7.16-4.553v.545a4.574,4.574,0,0,1-.466,2.115A3.277,3.277,0,0,1,5.364-.5,4.124,4.124,0,0,1,3.352,0ZM2.115-7.611V-.92H3.3a2.575,2.575,0,0,0,2.024-.809,3.344,3.344,0,0,0,.724-2.3v-.5a3.4,3.4,0,0,0-.683-2.261,2.429,2.429,0,0,0-1.937-.818ZM11.32.117a2.77,2.77,0,0,1-2.1-.847,3.142,3.142,0,0,1-.809-2.265v-.2a3.8,3.8,0,0,1,.36-1.685,2.811,2.811,0,0,1,1.008-1.16,2.534,2.534,0,0,1,1.4-.419,2.374,2.374,0,0,1,1.922.814,3.526,3.526,0,0,1,.686,2.332v.451H9.5a2.254,2.254,0,0,0,.548,1.515,1.722,1.722,0,0,0,1.333.577A1.888,1.888,0,0,0,12.352-1a2.444,2.444,0,0,0,.7-.621l.662.516A2.662,2.662,0,0,1,11.32.117Zm-.135-5.684a1.446,1.446,0,0,0-1.1.478A2.321,2.321,0,0,0,9.533-3.75h3.176v-.082a2.065,2.065,0,0,0-.445-1.28A1.361,1.361,0,0,0,11.186-5.566ZM16.225,0H15.141V-9h1.084Zm5.648,0a2.277,2.277,0,0,1-.152-.668,2.419,2.419,0,0,1-1.8.785,2.238,2.238,0,0,1-1.538-.53,1.716,1.716,0,0,1-.6-1.345A1.792,1.792,0,0,1,18.53-3.3a3.55,3.55,0,0,1,2.118-.548H21.7v-.5a1.217,1.217,0,0,0-.34-.905,1.366,1.366,0,0,0-1-.337,1.581,1.581,0,0,0-.973.293A.863.863,0,0,0,19-4.582h-1.09a1.5,1.5,0,0,1,.337-.917,2.3,2.3,0,0,1,.914-.7,3.075,3.075,0,0,1,1.269-.258,2.506,2.506,0,0,1,1.717.548A1.976,1.976,0,0,1,22.787-4.4v2.918A3.567,3.567,0,0,0,23.01-.094V0Zm-1.8-.826a1.905,1.905,0,0,0,.967-.264,1.6,1.6,0,0,0,.662-.686v-1.3h-.85q-1.992,0-1.992,1.166a.987.987,0,0,0,.34.8A1.306,1.306,0,0,0,20.074-.826ZM25.512-6.34l.035.8a2.31,2.31,0,0,1,1.9-.914q2.01,0,2.027,2.268V0H28.389V-4.2a1.459,1.459,0,0,0-.313-1.014,1.256,1.256,0,0,0-.958-.328,1.564,1.564,0,0,0-.926.281,1.91,1.91,0,0,0-.621.738V0H24.486V-6.34Zm7.066-1.535V-6.34h1.184V-5.5H32.578v3.937a.88.88,0,0,0,.158.572.666.666,0,0,0,.539.191,2.624,2.624,0,0,0,.516-.07V0a3.161,3.161,0,0,1-.832.116,1.35,1.35,0,0,1-1.1-.439,1.888,1.888,0,0,1-.369-1.248V-5.5H30.34V-6.34h1.154V-7.875ZM37.658.117a2.77,2.77,0,0,1-2.1-.847,3.142,3.142,0,0,1-.809-2.265v-.2a3.8,3.8,0,0,1,.36-1.685,2.811,2.811,0,0,1,1.008-1.16,2.534,2.534,0,0,1,1.4-.419,2.374,2.374,0,0,1,1.922.814,3.526,3.526,0,0,1,.686,2.332v.451H35.836a2.254,2.254,0,0,0,.548,1.515,1.722,1.722,0,0,0,1.333.577A1.888,1.888,0,0,0,38.689-1a2.444,2.444,0,0,0,.7-.621l.662.516A2.662,2.662,0,0,1,37.658.117Zm-.135-5.684a1.446,1.446,0,0,0-1.1.478,2.321,2.321,0,0,0-.551,1.339h3.176v-.082a2.065,2.065,0,0,0-.445-1.28A1.361,1.361,0,0,0,37.523-5.566Zm6.926.2a3.248,3.248,0,0,0-.533-.041,1.428,1.428,0,0,0-1.447.908V0H41.385V-6.34h1.055l.018.732a1.688,1.688,0,0,1,1.512-.85,1.107,1.107,0,0,1,.48.082Zm.592,2.139A3.745,3.745,0,0,1,45.407-4.9a2.732,2.732,0,0,1,1.02-1.148,2.775,2.775,0,0,1,1.491-.4,2.674,2.674,0,0,1,2.095.9,3.449,3.449,0,0,1,.8,2.385V-3.1a3.777,3.777,0,0,1-.354,1.661A2.692,2.692,0,0,1,49.444-.293a2.807,2.807,0,0,1-1.515.41,2.667,2.667,0,0,1-2.089-.9,3.432,3.432,0,0,1-.8-2.373Zm1.09.129a2.712,2.712,0,0,0,.489,1.693,1.566,1.566,0,0,0,1.31.639,1.556,1.556,0,0,0,1.313-.647,2.966,2.966,0,0,0,.486-1.813,2.708,2.708,0,0,0-.5-1.69,1.574,1.574,0,0,0-1.315-.647,1.557,1.557,0,0,0-1.295.639A2.944,2.944,0,0,0,46.131-3.1ZM56.52,0H55.395V-8.531H56.52Zm2.906-.885h3.709V0H58.1V-.8l3.5-4.646H58.154v-.9h4.8v.768ZM64.09-3.223a3.721,3.721,0,0,1,.686-2.364,2.221,2.221,0,0,1,1.84-.87,2.22,2.22,0,0,1,1.775.756l.047-.639h1V2.438H68.35V-.586a2.275,2.275,0,0,1-1.746.7,2.186,2.186,0,0,1-1.831-.894,3.8,3.8,0,0,1-.683-2.37Zm1.084.123a2.821,2.821,0,0,0,.46,1.711,1.463,1.463,0,0,0,1.239.621,1.623,1.623,0,0,0,1.477-.855V-4.729a1.628,1.628,0,0,0-1.465-.838,1.474,1.474,0,0,0-1.248.624A3.071,3.071,0,0,0,65.174-3.1ZM75.088-.627A2.3,2.3,0,0,1,73.23.117a1.971,1.971,0,0,1-1.544-.589,2.549,2.549,0,0,1-.536-1.743V-6.34h1.084v4.1Q72.234-.8,73.406-.8a1.623,1.623,0,0,0,1.652-.926V-6.34h1.084V0H75.111ZM78.967,0H77.883V-6.34h1.084ZM77.795-8.021a.647.647,0,0,1,.161-.445.6.6,0,0,1,.478-.182.614.614,0,0,1,.48.182.64.64,0,0,1,.164.445.619.619,0,0,1-.164.439.626.626,0,0,1-.48.176.616.616,0,0,1-.478-.176A.626.626,0,0,1,77.795-8.021ZM83.332.117a2.77,2.77,0,0,1-2.1-.847,3.142,3.142,0,0,1-.809-2.265v-.2a3.8,3.8,0,0,1,.36-1.685,2.811,2.811,0,0,1,1.008-1.16,2.534,2.534,0,0,1,1.4-.419,2.374,2.374,0,0,1,1.922.814A3.526,3.526,0,0,1,85.8-3.311v.451H81.51a2.254,2.254,0,0,0,.548,1.515,1.722,1.722,0,0,0,1.333.577A1.888,1.888,0,0,0,84.363-1a2.444,2.444,0,0,0,.7-.621l.662.516A2.662,2.662,0,0,1,83.332.117ZM83.2-5.566a1.446,1.446,0,0,0-1.1.478,2.321,2.321,0,0,0-.551,1.339h3.176v-.082a2.065,2.065,0,0,0-.445-1.28A1.361,1.361,0,0,0,83.2-5.566Zm6.926.2a3.248,3.248,0,0,0-.533-.041,1.428,1.428,0,0,0-1.447.908V0H87.059V-6.34h1.055l.018.732a1.688,1.688,0,0,1,1.512-.85,1.107,1.107,0,0,1,.48.082Zm.732,2.145a3.714,3.714,0,0,1,.691-2.347,2.186,2.186,0,0,1,1.811-.888,2.2,2.2,0,0,1,1.764.762V-9h1.084V0h-1l-.053-.68a2.208,2.208,0,0,1-1.811.8,2.165,2.165,0,0,1-1.8-.9,3.756,3.756,0,0,1-.694-2.355Zm1.084.123a2.812,2.812,0,0,0,.445,1.688,1.44,1.44,0,0,0,1.23.609,1.581,1.581,0,0,0,1.506-.926V-4.641a1.593,1.593,0,0,0-1.494-.9,1.446,1.446,0,0,0-1.242.615A3.1,3.1,0,0,0,91.939-3.1Zm5.66-.129A3.745,3.745,0,0,1,97.966-4.9a2.732,2.732,0,0,1,1.02-1.148,2.775,2.775,0,0,1,1.491-.4,2.674,2.674,0,0,1,2.095.9,3.449,3.449,0,0,1,.8,2.385V-3.1a3.777,3.777,0,0,1-.354,1.661A2.692,2.692,0,0,1,102-.293a2.807,2.807,0,0,1-1.515.41,2.667,2.667,0,0,1-2.089-.9,3.432,3.432,0,0,1-.8-2.373Zm1.09.129a2.712,2.712,0,0,0,.489,1.693,1.566,1.566,0,0,0,1.31.639,1.556,1.556,0,0,0,1.313-.647,2.966,2.966,0,0,0,.486-1.813,2.708,2.708,0,0,0-.5-1.69,1.574,1.574,0,0,0-1.315-.647,1.557,1.557,0,0,0-1.295.639A2.944,2.944,0,0,0,98.689-3.1Z" transform="translate(-1944.952 -6839.004)"/>
      <path id="Trazado_107898" data-name="Trazado 107898" d="M2.121-.92H6.164V0H.99V-8.531H2.121ZM8.455,0H7.365V-6.34h1.09Zm.012-8.994H9.779L8.209-7.271l-.873,0Zm2.8,2.654.035.8a2.31,2.31,0,0,1,1.9-.914q2.01,0,2.027,2.268V0H14.145V-4.2a1.459,1.459,0,0,0-.313-1.014,1.256,1.256,0,0,0-.958-.328,1.564,1.564,0,0,0-.926.281,1.91,1.91,0,0,0-.621.738V0H10.242V-6.34ZM19.494.117a2.77,2.77,0,0,1-2.1-.847,3.142,3.142,0,0,1-.809-2.265v-.2a3.8,3.8,0,0,1,.36-1.685,2.811,2.811,0,0,1,1.008-1.16,2.534,2.534,0,0,1,1.4-.419,2.374,2.374,0,0,1,1.922.814,3.526,3.526,0,0,1,.686,2.332v.451H17.672a2.254,2.254,0,0,0,.548,1.515,1.722,1.722,0,0,0,1.333.577A1.888,1.888,0,0,0,20.525-1a2.444,2.444,0,0,0,.7-.621l.662.516A2.662,2.662,0,0,1,19.494.117Zm-.135-5.684a1.446,1.446,0,0,0-1.1.478,2.321,2.321,0,0,0-.551,1.339h3.176v-.082a2.065,2.065,0,0,0-.445-1.28A1.361,1.361,0,0,0,19.359-5.566ZM27.135,0a2.277,2.277,0,0,1-.152-.668,2.419,2.419,0,0,1-1.8.785,2.238,2.238,0,0,1-1.538-.53,1.716,1.716,0,0,1-.6-1.345A1.792,1.792,0,0,1,23.792-3.3a3.55,3.55,0,0,1,2.118-.548h1.055v-.5a1.217,1.217,0,0,0-.34-.905,1.366,1.366,0,0,0-1-.337,1.581,1.581,0,0,0-.973.293.863.863,0,0,0-.393.709h-1.09A1.5,1.5,0,0,1,23.5-5.5a2.3,2.3,0,0,1,.914-.7,3.075,3.075,0,0,1,1.269-.258,2.506,2.506,0,0,1,1.717.548A1.976,1.976,0,0,1,28.049-4.4v2.918a3.567,3.567,0,0,0,.223,1.389V0Zm-1.8-.826A1.905,1.905,0,0,0,26.3-1.09a1.6,1.6,0,0,0,.662-.686v-1.3h-.85q-1.992,0-1.992,1.166a.987.987,0,0,0,.34.8A1.306,1.306,0,0,0,25.336-.826Zm7.119-2.4a3.714,3.714,0,0,1,.691-2.347,2.186,2.186,0,0,1,1.811-.888,2.2,2.2,0,0,1,1.764.762V-9H37.8V0h-1l-.053-.68a2.208,2.208,0,0,1-1.811.8,2.165,2.165,0,0,1-1.8-.9,3.756,3.756,0,0,1-.694-2.355Zm1.084.123a2.812,2.812,0,0,0,.445,1.688,1.44,1.44,0,0,0,1.23.609,1.581,1.581,0,0,0,1.506-.926V-4.641a1.593,1.593,0,0,0-1.494-.9,1.446,1.446,0,0,0-1.242.615A3.1,3.1,0,0,0,33.539-3.1ZM42.117.117a2.77,2.77,0,0,1-2.1-.847,3.142,3.142,0,0,1-.809-2.265v-.2a3.8,3.8,0,0,1,.36-1.685,2.811,2.811,0,0,1,1.008-1.16,2.534,2.534,0,0,1,1.4-.419,2.374,2.374,0,0,1,1.922.814,3.526,3.526,0,0,1,.686,2.332v.451H40.295a2.254,2.254,0,0,0,.548,1.515,1.722,1.722,0,0,0,1.333.577A1.888,1.888,0,0,0,43.148-1a2.444,2.444,0,0,0,.7-.621l.662.516A2.662,2.662,0,0,1,42.117.117Zm-.135-5.684a1.446,1.446,0,0,0-1.1.478A2.321,2.321,0,0,0,40.33-3.75h3.176v-.082a2.065,2.065,0,0,0-.445-1.28A1.361,1.361,0,0,0,41.982-5.566ZM47.021,0H45.938V-9h1.084ZM54.27-.768a1.561,1.561,0,0,0,1.014-.352A1.237,1.237,0,0,0,55.764-2h1.025a1.966,1.966,0,0,1-.375,1.037,2.47,2.47,0,0,1-.923.785A2.663,2.663,0,0,1,54.27.117a2.612,2.612,0,0,1-2.06-.864,3.442,3.442,0,0,1-.765-2.364v-.182a3.817,3.817,0,0,1,.34-1.646,2.588,2.588,0,0,1,.976-1.119,2.771,2.771,0,0,1,1.5-.4,2.543,2.543,0,0,1,1.772.639,2.283,2.283,0,0,1,.753,1.658H55.764A1.494,1.494,0,0,0,55.3-5.171a1.449,1.449,0,0,0-1.034-.4,1.517,1.517,0,0,0-1.28.595,2.793,2.793,0,0,0-.454,1.72v.205a2.737,2.737,0,0,0,.451,1.688A1.524,1.524,0,0,0,54.27-.768Zm6.369.885a2.77,2.77,0,0,1-2.1-.847,3.142,3.142,0,0,1-.809-2.265v-.2a3.8,3.8,0,0,1,.36-1.685A2.811,2.811,0,0,1,59.1-6.038a2.534,2.534,0,0,1,1.4-.419,2.374,2.374,0,0,1,1.922.814,3.526,3.526,0,0,1,.686,2.332v.451H58.816a2.254,2.254,0,0,0,.548,1.515A1.722,1.722,0,0,0,60.7-.768,1.888,1.888,0,0,0,61.67-1a2.444,2.444,0,0,0,.7-.621l.662.516A2.662,2.662,0,0,1,60.639.117ZM60.5-5.566a1.446,1.446,0,0,0-1.1.478,2.321,2.321,0,0,0-.551,1.339h3.176v-.082a2.065,2.065,0,0,0-.445-1.28A1.361,1.361,0,0,0,60.5-5.566Zm4.887-.773.035.8a2.31,2.31,0,0,1,1.9-.914q2.01,0,2.027,2.268V0H68.268V-4.2a1.459,1.459,0,0,0-.313-1.014A1.256,1.256,0,0,0,67-5.537a1.564,1.564,0,0,0-.926.281,1.91,1.91,0,0,0-.621.738V0H64.365V-6.34Zm7.066-1.535V-6.34h1.184V-5.5H72.457v3.937a.88.88,0,0,0,.158.572.666.666,0,0,0,.539.191,2.624,2.624,0,0,0,.516-.07V0a3.161,3.161,0,0,1-.832.116,1.35,1.35,0,0,1-1.1-.439,1.888,1.888,0,0,1-.369-1.248V-5.5H70.219V-6.34h1.154V-7.875Zm5.514,2.508a3.248,3.248,0,0,0-.533-.041A1.428,1.428,0,0,0,75.99-4.5V0H74.906V-6.34h1.055l.018.732a1.688,1.688,0,0,1,1.512-.85,1.107,1.107,0,0,1,.48.082Zm.592,2.139A3.745,3.745,0,0,1,78.929-4.9a2.732,2.732,0,0,1,1.02-1.148,2.775,2.775,0,0,1,1.491-.4,2.674,2.674,0,0,1,2.095.9,3.449,3.449,0,0,1,.8,2.385V-3.1a3.777,3.777,0,0,1-.354,1.661A2.692,2.692,0,0,1,82.966-.293a2.807,2.807,0,0,1-1.515.41,2.667,2.667,0,0,1-2.089-.9,3.432,3.432,0,0,1-.8-2.373Zm1.09.129a2.712,2.712,0,0,0,.489,1.693,1.566,1.566,0,0,0,1.31.639,1.556,1.556,0,0,0,1.313-.647,2.966,2.966,0,0,0,.486-1.813,2.708,2.708,0,0,0-.5-1.69,1.574,1.574,0,0,0-1.315-.647,1.557,1.557,0,0,0-1.295.639A2.944,2.944,0,0,0,79.652-3.1Z" transform="translate(-1922.569 -6723.746)"/>
      <path id="Trazado_107899" data-name="Trazado 107899" d="M5.813-3.943h-3.7V-.92H6.41V0H.99V-8.531H6.352v.92H2.115v2.748h3.7Zm3.955-.082L11.174-6.34h1.266L10.365-3.205,12.5,0H11.25L9.785-2.373,8.32,0H7.061L9.2-3.205,7.125-6.34H8.379Zm5.291-3.85V-6.34h1.184V-5.5H15.059v3.937a.88.88,0,0,0,.158.572.666.666,0,0,0,.539.191,2.624,2.624,0,0,0,.516-.07V0a3.161,3.161,0,0,1-.832.116,1.35,1.35,0,0,1-1.1-.439,1.888,1.888,0,0,1-.369-1.248V-5.5H12.82V-6.34h1.154V-7.875ZM20.139.117a2.77,2.77,0,0,1-2.1-.847,3.142,3.142,0,0,1-.809-2.265v-.2a3.8,3.8,0,0,1,.36-1.685A2.811,2.811,0,0,1,18.6-6.038,2.534,2.534,0,0,1,20-6.457a2.374,2.374,0,0,1,1.922.814,3.526,3.526,0,0,1,.686,2.332v.451H18.316a2.254,2.254,0,0,0,.548,1.515A1.722,1.722,0,0,0,20.2-.768,1.888,1.888,0,0,0,21.17-1a2.444,2.444,0,0,0,.7-.621l.662.516A2.662,2.662,0,0,1,20.139.117ZM20-5.566a1.446,1.446,0,0,0-1.1.478,2.321,2.321,0,0,0-.551,1.339h3.176v-.082a2.065,2.065,0,0,0-.445-1.28A1.361,1.361,0,0,0,20-5.566Zm4.887-.773.035.8a2.31,2.31,0,0,1,1.9-.914q2.01,0,2.027,2.268V0H27.768V-4.2a1.459,1.459,0,0,0-.313-1.014,1.256,1.256,0,0,0-.958-.328,1.564,1.564,0,0,0-.926.281,1.91,1.91,0,0,0-.621.738V0H23.865V-6.34Zm9.287,4.658a.8.8,0,0,0-.331-.683,3.187,3.187,0,0,0-1.154-.419,5.457,5.457,0,0,1-1.307-.422,1.859,1.859,0,0,1-.715-.586,1.4,1.4,0,0,1-.231-.809A1.645,1.645,0,0,1,31.1-5.918a2.574,2.574,0,0,1,1.685-.539,2.649,2.649,0,0,1,1.749.557A1.768,1.768,0,0,1,35.2-4.477h-1.09a.979.979,0,0,0-.378-.768,1.416,1.416,0,0,0-.952-.322,1.482,1.482,0,0,0-.926.258.812.812,0,0,0-.334.674.658.658,0,0,0,.311.592,3.821,3.821,0,0,0,1.122.381,5.847,5.847,0,0,1,1.315.434,1.919,1.919,0,0,1,.747.606,1.491,1.491,0,0,1,.243.864A1.623,1.623,0,0,1,34.582-.4a2.851,2.851,0,0,1-1.764.513,3.193,3.193,0,0,1-1.348-.27,2.192,2.192,0,0,1-.917-.753,1.815,1.815,0,0,1-.331-1.046h1.084a1.122,1.122,0,0,0,.437.864,1.693,1.693,0,0,0,1.075.319,1.748,1.748,0,0,0,.987-.249A.765.765,0,0,0,34.178-1.682ZM37.852,0H36.768V-6.34h1.084ZM36.68-8.021a.647.647,0,0,1,.161-.445.6.6,0,0,1,.478-.182.614.614,0,0,1,.48.182.64.64,0,0,1,.164.445.619.619,0,0,1-.164.439.626.626,0,0,1-.48.176.616.616,0,0,1-.478-.176A.626.626,0,0,1,36.68-8.021ZM39.3-3.229A3.745,3.745,0,0,1,39.665-4.9a2.732,2.732,0,0,1,1.02-1.148,2.775,2.775,0,0,1,1.491-.4,2.674,2.674,0,0,1,2.095.9,3.449,3.449,0,0,1,.8,2.385V-3.1a3.777,3.777,0,0,1-.354,1.661A2.692,2.692,0,0,1,43.7-.293a2.807,2.807,0,0,1-1.515.41,2.667,2.667,0,0,1-2.089-.9,3.432,3.432,0,0,1-.8-2.373Zm1.09.129a2.712,2.712,0,0,0,.489,1.693,1.566,1.566,0,0,0,1.31.639A1.556,1.556,0,0,0,43.5-1.415a2.966,2.966,0,0,0,.486-1.813,2.708,2.708,0,0,0-.5-1.69,1.574,1.574,0,0,0-1.315-.647,1.557,1.557,0,0,0-1.295.639A2.944,2.944,0,0,0,40.389-3.1ZM42.668-9H43.98L42.41-7.277l-.873,0Zm4.787,2.66.035.8a2.31,2.31,0,0,1,1.9-.914q2.01,0,2.027,2.268V0H50.332V-4.2a1.459,1.459,0,0,0-.313-1.014,1.256,1.256,0,0,0-.958-.328,1.564,1.564,0,0,0-.926.281,1.91,1.91,0,0,0-.621.738V0H46.43V-6.34Z" transform="translate(-1922.569 -6648.815)"/>
      <path id="Trazado_107901" data-name="Trazado 107901" d="M2.121-.92H6.164V0H.99V-8.531H2.121ZM8.455,0H7.365V-6.34h1.09Zm.012-8.994H9.779L8.209-7.271l-.873,0Zm2.8,2.654.035.8a2.31,2.31,0,0,1,1.9-.914q2.01,0,2.027,2.268V0H14.145V-4.2a1.459,1.459,0,0,0-.313-1.014,1.256,1.256,0,0,0-.958-.328,1.564,1.564,0,0,0-.926.281,1.91,1.91,0,0,0-.621.738V0H10.242V-6.34ZM19.494.117a2.77,2.77,0,0,1-2.1-.847,3.142,3.142,0,0,1-.809-2.265v-.2a3.8,3.8,0,0,1,.36-1.685,2.811,2.811,0,0,1,1.008-1.16,2.534,2.534,0,0,1,1.4-.419,2.374,2.374,0,0,1,1.922.814,3.526,3.526,0,0,1,.686,2.332v.451H17.672a2.254,2.254,0,0,0,.548,1.515,1.722,1.722,0,0,0,1.333.577A1.888,1.888,0,0,0,20.525-1a2.444,2.444,0,0,0,.7-.621l.662.516A2.662,2.662,0,0,1,19.494.117Zm-.135-5.684a1.446,1.446,0,0,0-1.1.478,2.321,2.321,0,0,0-.551,1.339h3.176v-.082a2.065,2.065,0,0,0-.445-1.28A1.361,1.361,0,0,0,19.359-5.566ZM27.135,0a2.277,2.277,0,0,1-.152-.668,2.419,2.419,0,0,1-1.8.785,2.238,2.238,0,0,1-1.538-.53,1.716,1.716,0,0,1-.6-1.345A1.792,1.792,0,0,1,23.792-3.3a3.55,3.55,0,0,1,2.118-.548h1.055v-.5a1.217,1.217,0,0,0-.34-.905,1.366,1.366,0,0,0-1-.337,1.581,1.581,0,0,0-.973.293.863.863,0,0,0-.393.709h-1.09A1.5,1.5,0,0,1,23.5-5.5a2.3,2.3,0,0,1,.914-.7,3.075,3.075,0,0,1,1.269-.258,2.506,2.506,0,0,1,1.717.548A1.976,1.976,0,0,1,28.049-4.4v2.918a3.567,3.567,0,0,0,.223,1.389V0Zm-1.8-.826A1.905,1.905,0,0,0,26.3-1.09a1.6,1.6,0,0,0,.662-.686v-1.3h-.85q-1.992,0-1.992,1.166a.987.987,0,0,0,.34.8A1.306,1.306,0,0,0,25.336-.826Zm7.119-2.4a3.714,3.714,0,0,1,.691-2.347,2.186,2.186,0,0,1,1.811-.888,2.2,2.2,0,0,1,1.764.762V-9H37.8V0h-1l-.053-.68a2.208,2.208,0,0,1-1.811.8,2.165,2.165,0,0,1-1.8-.9,3.756,3.756,0,0,1-.694-2.355Zm1.084.123a2.812,2.812,0,0,0,.445,1.688,1.44,1.44,0,0,0,1.23.609,1.581,1.581,0,0,0,1.506-.926V-4.641a1.593,1.593,0,0,0-1.494-.9,1.446,1.446,0,0,0-1.242.615A3.1,3.1,0,0,0,33.539-3.1ZM42.117.117a2.77,2.77,0,0,1-2.1-.847,3.142,3.142,0,0,1-.809-2.265v-.2a3.8,3.8,0,0,1,.36-1.685,2.811,2.811,0,0,1,1.008-1.16,2.534,2.534,0,0,1,1.4-.419,2.374,2.374,0,0,1,1.922.814,3.526,3.526,0,0,1,.686,2.332v.451H40.295a2.254,2.254,0,0,0,.548,1.515,1.722,1.722,0,0,0,1.333.577A1.888,1.888,0,0,0,43.148-1a2.444,2.444,0,0,0,.7-.621l.662.516A2.662,2.662,0,0,1,42.117.117Zm-.135-5.684a1.446,1.446,0,0,0-1.1.478A2.321,2.321,0,0,0,40.33-3.75h3.176v-.082a2.065,2.065,0,0,0-.445-1.28A1.361,1.361,0,0,0,41.982-5.566ZM47.021,0H45.938V-9h1.084ZM54.27-.768a1.561,1.561,0,0,0,1.014-.352A1.237,1.237,0,0,0,55.764-2h1.025a1.966,1.966,0,0,1-.375,1.037,2.47,2.47,0,0,1-.923.785A2.663,2.663,0,0,1,54.27.117a2.612,2.612,0,0,1-2.06-.864,3.442,3.442,0,0,1-.765-2.364v-.182a3.817,3.817,0,0,1,.34-1.646,2.588,2.588,0,0,1,.976-1.119,2.771,2.771,0,0,1,1.5-.4,2.543,2.543,0,0,1,1.772.639,2.283,2.283,0,0,1,.753,1.658H55.764A1.494,1.494,0,0,0,55.3-5.171a1.449,1.449,0,0,0-1.034-.4,1.517,1.517,0,0,0-1.28.595,2.793,2.793,0,0,0-.454,1.72v.205a2.737,2.737,0,0,0,.451,1.688A1.524,1.524,0,0,0,54.27-.768Zm6.369.885a2.77,2.77,0,0,1-2.1-.847,3.142,3.142,0,0,1-.809-2.265v-.2a3.8,3.8,0,0,1,.36-1.685A2.811,2.811,0,0,1,59.1-6.038a2.534,2.534,0,0,1,1.4-.419,2.374,2.374,0,0,1,1.922.814,3.526,3.526,0,0,1,.686,2.332v.451H58.816a2.254,2.254,0,0,0,.548,1.515A1.722,1.722,0,0,0,60.7-.768,1.888,1.888,0,0,0,61.67-1a2.444,2.444,0,0,0,.7-.621l.662.516A2.662,2.662,0,0,1,60.639.117ZM60.5-5.566a1.446,1.446,0,0,0-1.1.478,2.321,2.321,0,0,0-.551,1.339h3.176v-.082a2.065,2.065,0,0,0-.445-1.28A1.361,1.361,0,0,0,60.5-5.566Zm4.887-.773.035.8a2.31,2.31,0,0,1,1.9-.914q2.01,0,2.027,2.268V0H68.268V-4.2a1.459,1.459,0,0,0-.313-1.014A1.256,1.256,0,0,0,67-5.537a1.564,1.564,0,0,0-.926.281,1.91,1.91,0,0,0-.621.738V0H64.365V-6.34Zm7.066-1.535V-6.34h1.184V-5.5H72.457v3.937a.88.88,0,0,0,.158.572.666.666,0,0,0,.539.191,2.624,2.624,0,0,0,.516-.07V0a3.161,3.161,0,0,1-.832.116,1.35,1.35,0,0,1-1.1-.439,1.888,1.888,0,0,1-.369-1.248V-5.5H70.219V-6.34h1.154V-7.875Zm5.514,2.508a3.248,3.248,0,0,0-.533-.041A1.428,1.428,0,0,0,75.99-4.5V0H74.906V-6.34h1.055l.018.732a1.688,1.688,0,0,1,1.512-.85,1.107,1.107,0,0,1,.48.082Zm.592,2.139A3.745,3.745,0,0,1,78.929-4.9a2.732,2.732,0,0,1,1.02-1.148,2.775,2.775,0,0,1,1.491-.4,2.674,2.674,0,0,1,2.095.9,3.449,3.449,0,0,1,.8,2.385V-3.1a3.777,3.777,0,0,1-.354,1.661A2.692,2.692,0,0,1,82.966-.293a2.807,2.807,0,0,1-1.515.41,2.667,2.667,0,0,1-2.089-.9,3.432,3.432,0,0,1-.8-2.373Zm1.09.129a2.712,2.712,0,0,0,.489,1.693,1.566,1.566,0,0,0,1.31.639,1.556,1.556,0,0,0,1.313-.647,2.966,2.966,0,0,0,.486-1.813,2.708,2.708,0,0,0-.5-1.69,1.574,1.574,0,0,0-1.315-.647,1.557,1.557,0,0,0-1.295.639A2.944,2.944,0,0,0,79.652-3.1Z" transform="translate(-2417.221 -6723.746)"/>
      <path id="Trazado_107900" data-name="Trazado 107900" d="M5.813-3.943h-3.7V-.92H6.41V0H.99V-8.531H6.352v.92H2.115v2.748h3.7Zm3.955-.082L11.174-6.34h1.266L10.365-3.205,12.5,0H11.25L9.785-2.373,8.32,0H7.061L9.2-3.205,7.125-6.34H8.379Zm5.291-3.85V-6.34h1.184V-5.5H15.059v3.937a.88.88,0,0,0,.158.572.666.666,0,0,0,.539.191,2.624,2.624,0,0,0,.516-.07V0a3.161,3.161,0,0,1-.832.116,1.35,1.35,0,0,1-1.1-.439,1.888,1.888,0,0,1-.369-1.248V-5.5H12.82V-6.34h1.154V-7.875ZM20.139.117a2.77,2.77,0,0,1-2.1-.847,3.142,3.142,0,0,1-.809-2.265v-.2a3.8,3.8,0,0,1,.36-1.685A2.811,2.811,0,0,1,18.6-6.038,2.534,2.534,0,0,1,20-6.457a2.374,2.374,0,0,1,1.922.814,3.526,3.526,0,0,1,.686,2.332v.451H18.316a2.254,2.254,0,0,0,.548,1.515A1.722,1.722,0,0,0,20.2-.768,1.888,1.888,0,0,0,21.17-1a2.444,2.444,0,0,0,.7-.621l.662.516A2.662,2.662,0,0,1,20.139.117ZM20-5.566a1.446,1.446,0,0,0-1.1.478,2.321,2.321,0,0,0-.551,1.339h3.176v-.082a2.065,2.065,0,0,0-.445-1.28A1.361,1.361,0,0,0,20-5.566Zm4.887-.773.035.8a2.31,2.31,0,0,1,1.9-.914q2.01,0,2.027,2.268V0H27.768V-4.2a1.459,1.459,0,0,0-.313-1.014,1.256,1.256,0,0,0-.958-.328,1.564,1.564,0,0,0-.926.281,1.91,1.91,0,0,0-.621.738V0H23.865V-6.34Zm9.287,4.658a.8.8,0,0,0-.331-.683,3.187,3.187,0,0,0-1.154-.419,5.457,5.457,0,0,1-1.307-.422,1.859,1.859,0,0,1-.715-.586,1.4,1.4,0,0,1-.231-.809A1.645,1.645,0,0,1,31.1-5.918a2.574,2.574,0,0,1,1.685-.539,2.649,2.649,0,0,1,1.749.557A1.768,1.768,0,0,1,35.2-4.477h-1.09a.979.979,0,0,0-.378-.768,1.416,1.416,0,0,0-.952-.322,1.482,1.482,0,0,0-.926.258.812.812,0,0,0-.334.674.658.658,0,0,0,.311.592,3.821,3.821,0,0,0,1.122.381,5.847,5.847,0,0,1,1.315.434,1.919,1.919,0,0,1,.747.606,1.491,1.491,0,0,1,.243.864A1.623,1.623,0,0,1,34.582-.4a2.851,2.851,0,0,1-1.764.513,3.193,3.193,0,0,1-1.348-.27,2.192,2.192,0,0,1-.917-.753,1.815,1.815,0,0,1-.331-1.046h1.084a1.122,1.122,0,0,0,.437.864,1.693,1.693,0,0,0,1.075.319,1.748,1.748,0,0,0,.987-.249A.765.765,0,0,0,34.178-1.682ZM37.852,0H36.768V-6.34h1.084ZM36.68-8.021a.647.647,0,0,1,.161-.445.6.6,0,0,1,.478-.182.614.614,0,0,1,.48.182.64.64,0,0,1,.164.445.619.619,0,0,1-.164.439.626.626,0,0,1-.48.176.616.616,0,0,1-.478-.176A.626.626,0,0,1,36.68-8.021ZM39.3-3.229A3.745,3.745,0,0,1,39.665-4.9a2.732,2.732,0,0,1,1.02-1.148,2.775,2.775,0,0,1,1.491-.4,2.674,2.674,0,0,1,2.095.9,3.449,3.449,0,0,1,.8,2.385V-3.1a3.777,3.777,0,0,1-.354,1.661A2.692,2.692,0,0,1,43.7-.293a2.807,2.807,0,0,1-1.515.41,2.667,2.667,0,0,1-2.089-.9,3.432,3.432,0,0,1-.8-2.373Zm1.09.129a2.712,2.712,0,0,0,.489,1.693,1.566,1.566,0,0,0,1.31.639A1.556,1.556,0,0,0,43.5-1.415a2.966,2.966,0,0,0,.486-1.813,2.708,2.708,0,0,0-.5-1.69,1.574,1.574,0,0,0-1.315-.647,1.557,1.557,0,0,0-1.295.639A2.944,2.944,0,0,0,40.389-3.1ZM42.668-9H43.98L42.41-7.277l-.873,0Zm4.787,2.66.035.8a2.31,2.31,0,0,1,1.9-.914q2.01,0,2.027,2.268V0H50.332V-4.2a1.459,1.459,0,0,0-.313-1.014,1.256,1.256,0,0,0-.958-.328,1.564,1.564,0,0,0-.926.281,1.91,1.91,0,0,0-.621.738V0H46.43V-6.34Z" transform="translate(-2385.149 -6648.815)"/>
      <path id="Trazado_106270" data-name="Trazado 106270" d="M-2819.646-378.472H-2635.2v-12.746" transform="translate(705.859 -6270.343)" fill="none" stroke="#ff9696" stroke-linecap="round" stroke-linejoin="round" stroke-width="2" stroke-dasharray="8.969"/>
      <path id="Trazado_106271" data-name="Trazado 106271" d="M-2798.48-453.4H-2635.2V-466.15" transform="translate(705.859 -6270.343)" fill="none" stroke="#ff9696" stroke-linecap="round" stroke-linejoin="round" stroke-width="2" stroke-dasharray="8.969"/>
      <rect id="Rectángulo_5528" data-name="Rectángulo 5528" width="148.535" height="34.016" transform="translate(-1965.866 -6859.414)" fill="none" stroke="#ff9696" stroke-linecap="round" stroke-linejoin="round" stroke-width="2" stroke-dasharray="8.969"/>
      <path id="Trazado_107896" data-name="Trazado 107896" d="M.99,0V-8.531H3.4a3.877,3.877,0,0,1,1.969.492,3.329,3.329,0,0,1,1.321,1.4A4.558,4.558,0,0,1,7.16-4.553v.545a4.574,4.574,0,0,1-.466,2.115A3.277,3.277,0,0,1,5.364-.5,4.124,4.124,0,0,1,3.352,0ZM2.115-7.611V-.92H3.3a2.575,2.575,0,0,0,2.024-.809,3.344,3.344,0,0,0,.724-2.3v-.5a3.4,3.4,0,0,0-.683-2.261,2.429,2.429,0,0,0-1.937-.818ZM11.32.117a2.77,2.77,0,0,1-2.1-.847,3.142,3.142,0,0,1-.809-2.265v-.2a3.8,3.8,0,0,1,.36-1.685,2.811,2.811,0,0,1,1.008-1.16,2.534,2.534,0,0,1,1.4-.419,2.374,2.374,0,0,1,1.922.814,3.526,3.526,0,0,1,.686,2.332v.451H9.5a2.254,2.254,0,0,0,.548,1.515,1.722,1.722,0,0,0,1.333.577A1.888,1.888,0,0,0,12.352-1a2.444,2.444,0,0,0,.7-.621l.662.516A2.662,2.662,0,0,1,11.32.117Zm-.135-5.684a1.446,1.446,0,0,0-1.1.478A2.321,2.321,0,0,0,9.533-3.75h3.176v-.082a2.065,2.065,0,0,0-.445-1.28A1.361,1.361,0,0,0,11.186-5.566ZM16.225,0H15.141V-9h1.084Zm5.648,0a2.277,2.277,0,0,1-.152-.668,2.419,2.419,0,0,1-1.8.785,2.238,2.238,0,0,1-1.538-.53,1.716,1.716,0,0,1-.6-1.345A1.792,1.792,0,0,1,18.53-3.3a3.55,3.55,0,0,1,2.118-.548H21.7v-.5a1.217,1.217,0,0,0-.34-.905,1.366,1.366,0,0,0-1-.337,1.581,1.581,0,0,0-.973.293A.863.863,0,0,0,19-4.582h-1.09a1.5,1.5,0,0,1,.337-.917,2.3,2.3,0,0,1,.914-.7,3.075,3.075,0,0,1,1.269-.258,2.506,2.506,0,0,1,1.717.548A1.976,1.976,0,0,1,22.787-4.4v2.918A3.567,3.567,0,0,0,23.01-.094V0Zm-1.8-.826a1.905,1.905,0,0,0,.967-.264,1.6,1.6,0,0,0,.662-.686v-1.3h-.85q-1.992,0-1.992,1.166a.987.987,0,0,0,.34.8A1.306,1.306,0,0,0,20.074-.826ZM25.512-6.34l.035.8a2.31,2.31,0,0,1,1.9-.914q2.01,0,2.027,2.268V0H28.389V-4.2a1.459,1.459,0,0,0-.313-1.014,1.256,1.256,0,0,0-.958-.328,1.564,1.564,0,0,0-.926.281,1.91,1.91,0,0,0-.621.738V0H24.486V-6.34Zm7.066-1.535V-6.34h1.184V-5.5H32.578v3.937a.88.88,0,0,0,.158.572.666.666,0,0,0,.539.191,2.624,2.624,0,0,0,.516-.07V0a3.161,3.161,0,0,1-.832.116,1.35,1.35,0,0,1-1.1-.439,1.888,1.888,0,0,1-.369-1.248V-5.5H30.34V-6.34h1.154V-7.875ZM37.658.117a2.77,2.77,0,0,1-2.1-.847,3.142,3.142,0,0,1-.809-2.265v-.2a3.8,3.8,0,0,1,.36-1.685,2.811,2.811,0,0,1,1.008-1.16,2.534,2.534,0,0,1,1.4-.419,2.374,2.374,0,0,1,1.922.814,3.526,3.526,0,0,1,.686,2.332v.451H35.836a2.254,2.254,0,0,0,.548,1.515,1.722,1.722,0,0,0,1.333.577A1.888,1.888,0,0,0,38.689-1a2.444,2.444,0,0,0,.7-.621l.662.516A2.662,2.662,0,0,1,37.658.117Zm-.135-5.684a1.446,1.446,0,0,0-1.1.478,2.321,2.321,0,0,0-.551,1.339h3.176v-.082a2.065,2.065,0,0,0-.445-1.28A1.361,1.361,0,0,0,37.523-5.566Zm6.926.2a3.248,3.248,0,0,0-.533-.041,1.428,1.428,0,0,0-1.447.908V0H41.385V-6.34h1.055l.018.732a1.688,1.688,0,0,1,1.512-.85,1.107,1.107,0,0,1,.48.082Zm.592,2.139A3.745,3.745,0,0,1,45.407-4.9a2.732,2.732,0,0,1,1.02-1.148,2.775,2.775,0,0,1,1.491-.4,2.674,2.674,0,0,1,2.095.9,3.449,3.449,0,0,1,.8,2.385V-3.1a3.777,3.777,0,0,1-.354,1.661A2.692,2.692,0,0,1,49.444-.293a2.807,2.807,0,0,1-1.515.41,2.667,2.667,0,0,1-2.089-.9,3.432,3.432,0,0,1-.8-2.373Zm1.09.129a2.712,2.712,0,0,0,.489,1.693,1.566,1.566,0,0,0,1.31.639,1.556,1.556,0,0,0,1.313-.647,2.966,2.966,0,0,0,.486-1.813,2.708,2.708,0,0,0-.5-1.69,1.574,1.574,0,0,0-1.315-.647,1.557,1.557,0,0,0-1.295.639A2.944,2.944,0,0,0,46.131-3.1ZM55.313,0V-8.531h2.408a3.877,3.877,0,0,1,1.969.492,3.329,3.329,0,0,1,1.321,1.4,4.558,4.558,0,0,1,.472,2.086v.545a4.574,4.574,0,0,1-.466,2.115A3.277,3.277,0,0,1,59.687-.5a4.124,4.124,0,0,1-2.013.5Zm1.125-7.611V-.92h1.184a2.575,2.575,0,0,0,2.024-.809,3.344,3.344,0,0,0,.724-2.3v-.5a3.4,3.4,0,0,0-.683-2.261,2.429,2.429,0,0,0-1.937-.818ZM65.643.117a2.77,2.77,0,0,1-2.1-.847,3.142,3.142,0,0,1-.809-2.265v-.2a3.8,3.8,0,0,1,.36-1.685A2.811,2.811,0,0,1,64.1-6.038a2.534,2.534,0,0,1,1.4-.419,2.374,2.374,0,0,1,1.922.814,3.526,3.526,0,0,1,.686,2.332v.451H63.82a2.254,2.254,0,0,0,.548,1.515A1.722,1.722,0,0,0,65.7-.768,1.888,1.888,0,0,0,66.674-1a2.444,2.444,0,0,0,.7-.621l.662.516A2.662,2.662,0,0,1,65.643.117Zm-.135-5.684a1.446,1.446,0,0,0-1.1.478,2.321,2.321,0,0,0-.551,1.339h3.176v-.082a2.065,2.065,0,0,0-.445-1.28A1.361,1.361,0,0,0,65.508-5.566Zm6.926.2a3.248,3.248,0,0,0-.533-.041,1.428,1.428,0,0,0-1.447.908V0H69.369V-6.34h1.055l.018.732a1.688,1.688,0,0,1,1.512-.85,1.107,1.107,0,0,1,.48.082ZM76.061.117a2.77,2.77,0,0,1-2.1-.847,3.142,3.142,0,0,1-.809-2.265v-.2a3.8,3.8,0,0,1,.36-1.685,2.811,2.811,0,0,1,1.008-1.16,2.534,2.534,0,0,1,1.4-.419,2.374,2.374,0,0,1,1.922.814,3.526,3.526,0,0,1,.686,2.332v.451H74.238a2.254,2.254,0,0,0,.548,1.515,1.722,1.722,0,0,0,1.333.577A1.888,1.888,0,0,0,77.092-1a2.444,2.444,0,0,0,.7-.621l.662.516A2.662,2.662,0,0,1,76.061.117Zm-.135-5.684a1.446,1.446,0,0,0-1.1.478,2.321,2.321,0,0,0-.551,1.339h3.176v-.082A2.065,2.065,0,0,0,77-5.112,1.361,1.361,0,0,0,75.926-5.566Zm6.4,4.8a1.561,1.561,0,0,0,1.014-.352A1.237,1.237,0,0,0,83.824-2H84.85a1.966,1.966,0,0,1-.375,1.037,2.47,2.47,0,0,1-.923.785A2.663,2.663,0,0,1,82.33.117a2.612,2.612,0,0,1-2.06-.864,3.442,3.442,0,0,1-.765-2.364v-.182a3.817,3.817,0,0,1,.34-1.646,2.588,2.588,0,0,1,.976-1.119,2.771,2.771,0,0,1,1.5-.4,2.543,2.543,0,0,1,1.772.639A2.283,2.283,0,0,1,84.85-4.16H83.824a1.494,1.494,0,0,0-.466-1.011,1.449,1.449,0,0,0-1.034-.4,1.517,1.517,0,0,0-1.28.595,2.793,2.793,0,0,0-.454,1.72v.205a2.737,2.737,0,0,0,.451,1.688A1.524,1.524,0,0,0,82.33-.768Zm4.822-4.8a2.3,2.3,0,0,1,1.875-.885q2.01,0,2.027,2.268V0H89.971V-4.2a1.459,1.459,0,0,0-.313-1.014,1.256,1.256,0,0,0-.958-.328,1.564,1.564,0,0,0-.926.281,1.91,1.91,0,0,0-.621.738V0H86.068V-9h1.084Zm5.238,2.344A3.745,3.745,0,0,1,92.757-4.9a2.732,2.732,0,0,1,1.02-1.148,2.775,2.775,0,0,1,1.491-.4,2.674,2.674,0,0,1,2.095.9,3.449,3.449,0,0,1,.8,2.385V-3.1a3.777,3.777,0,0,1-.354,1.661A2.692,2.692,0,0,1,96.794-.293a2.807,2.807,0,0,1-1.515.41,2.667,2.667,0,0,1-2.089-.9,3.432,3.432,0,0,1-.8-2.373Zm1.09.129a2.712,2.712,0,0,0,.489,1.693,1.566,1.566,0,0,0,1.31.639,1.556,1.556,0,0,0,1.313-.647,2.966,2.966,0,0,0,.486-1.813,2.708,2.708,0,0,0-.5-1.69,1.574,1.574,0,0,0-1.315-.647,1.557,1.557,0,0,0-1.295.639A2.944,2.944,0,0,0,93.48-3.1Z" transform="translate(-2414.106 -6839.004)"/>
      <rect id="Rectángulo_5529" data-name="Rectángulo 5529" width="148.535" height="34.016" transform="translate(-2435.019 -6859.414)" fill="none" stroke="#ff9696" stroke-linecap="round" stroke-linejoin="round" stroke-width="2" stroke-dasharray="8.969"/>
      <g id="Grupo_55888" data-name="Grupo 55888" transform="translate(705.859 -6270.343)">
        <path id="Trazado_106272" data-name="Trazado 106272" d="M-2841.945-345.213V-590.976l-23.244-1.418c-52.724-1.417-55.559-77.669-55.559-77.669l-43.937,14.457v309.779h122.74" fill="#fff"/>
        <path id="Trazado_106273" data-name="Trazado 106273" d="M-2964.685-655.606l43.937-14.457s2.835,76.252,55.559,77.669l23.244,1.418v245.763" fill="none" stroke="#8c757e" stroke-linecap="round" stroke-linejoin="round" stroke-width="2.235"/>
        <line id="Línea_245" data-name="Línea 245" y1="246.566" transform="translate(-2866.89 -592.394)" fill="none" stroke="#8c757e" stroke-linecap="round" stroke-linejoin="round" stroke-width="2.235"/>
        <line id="Línea_246" data-name="Línea 246" x1="20.22" transform="translate(-2887.11 -566.693)" fill="none" stroke="#8c757e" stroke-linecap="round" stroke-linejoin="round" stroke-width="2.235"/>
        <line id="Línea_247" data-name="Línea 247" x1="19.465" transform="translate(-2887.11 -498.476)" fill="none" stroke="#8c757e" stroke-linecap="round" stroke-linejoin="round" stroke-width="2.235"/>
      </g>
      <path id="Trazado_106274" data-name="Trazado 106274" d="M-2846.268-378.472h-184.441v-12.746" transform="translate(705.859 -6270.343)" fill="none" stroke="#ff9696" stroke-linecap="round" stroke-linejoin="round" stroke-width="2" stroke-dasharray="8.969"/>
      <path id="Trazado_106275" data-name="Trazado 106275" d="M-2867.433-453.4h-163.276V-466.15" transform="translate(705.859 -6270.343)" fill="none" stroke="#ff9696" stroke-linecap="round" stroke-linejoin="round" stroke-width="2" stroke-dasharray="8.969"/>
      <text id="_0.3_cm" data-name="0.3 cm" transform="translate(-2222.714 -6800.375)" font-size="12" font-family="Roboto-Regular, Roboto"><tspan x="0" y="0">0.3 cm</tspan></text>
      <g id="Grupo_55891" data-name="Grupo 55891" transform="translate(705.859 -6270.343)">
        <line id="Línea_248" data-name="Línea 248" y1="13.496" x2="9.656" transform="translate(-2892.986 -555.055)"/>
        <g id="Grupo_55890" data-name="Grupo 55890">
          <rect id="Rectángulo_5530" data-name="Rectángulo 5530" width="15.451" height="1" transform="matrix(0.582, -0.813, 0.813, 0.582, -2893.393, -541.85)" fill="#ff9696"/>
          <g id="Grupo_55889" data-name="Grupo 55889">
            <path id="Trazado_106276" data-name="Trazado 106276" d="M-2883.776-551.519l-.392-2.366-2.366.393.838-1.171,2.365-.392.392,2.365Z" fill="#ff9696"/>
          </g>
        </g>
      </g>
      <g id="Grupo_55894" data-name="Grupo 55894" transform="translate(705.859 -6270.343)">
        <line id="Línea_249" data-name="Línea 249" x2="13.496" y2="9.656" transform="translate(-2894.907 -524.595)"/>
        <g id="Grupo_55893" data-name="Grupo 55893">
          <rect id="Rectángulo_5531" data-name="Rectángulo 5531" width="1" height="15.451" transform="translate(-2895.198 -524.188) rotate(-54.419)" fill="#ff9696"/>
          <g id="Grupo_55892" data-name="Grupo 55892">
            <path id="Trazado_106277" data-name="Trazado 106277" d="M-2884.947-515.385l2.366-.392-.393-2.366,1.171.838.392,2.365-2.365.392Z" fill="#ff9696"/>
          </g>
        </g>
      </g>
    </g>
  </g>
</svg>
