<svg xmlns="http://www.w3.org/2000/svg" width="708" height="363" viewBox="0 0 708 363">
  <g id="Grupo_55898" data-name="Grupo 55898" transform="translate(3181.859 -142.83)">
    <rect id="Rectángulo_5441" data-name="Rectángulo 5441" width="708" height="363" transform="translate(-3181.859 142.83)" fill="#e8e8e8"/>
    <rect id="Rectángulo_5539" data-name="Rectángulo 5539" width="674.362" height="337.335" transform="translate(-3165.662 155.94)" fill="#ffefef"/>
    <path id="Trazado_107910" data-name="Trazado 107910" d="M.99,0V-8.531H3.4a3.877,3.877,0,0,1,1.969.492,3.329,3.329,0,0,1,1.321,1.4A4.558,4.558,0,0,1,7.16-4.553v.545a4.574,4.574,0,0,1-.466,2.115A3.277,3.277,0,0,1,5.364-.5,4.124,4.124,0,0,1,3.352,0ZM2.115-7.611V-.92H3.3a2.575,2.575,0,0,0,2.024-.809,3.344,3.344,0,0,0,.724-2.3v-.5a3.4,3.4,0,0,0-.683-2.261,2.429,2.429,0,0,0-1.937-.818ZM11.32.117a2.77,2.77,0,0,1-2.1-.847,3.142,3.142,0,0,1-.809-2.265v-.2a3.8,3.8,0,0,1,.36-1.685,2.811,2.811,0,0,1,1.008-1.16,2.534,2.534,0,0,1,1.4-.419,2.374,2.374,0,0,1,1.922.814,3.526,3.526,0,0,1,.686,2.332v.451H9.5a2.254,2.254,0,0,0,.548,1.515,1.722,1.722,0,0,0,1.333.577A1.888,1.888,0,0,0,12.352-1a2.444,2.444,0,0,0,.7-.621l.662.516A2.662,2.662,0,0,1,11.32.117Zm-.135-5.684a1.446,1.446,0,0,0-1.1.478A2.321,2.321,0,0,0,9.533-3.75h3.176v-.082a2.065,2.065,0,0,0-.445-1.28A1.361,1.361,0,0,0,11.186-5.566ZM16.225,0H15.141V-9h1.084Zm5.648,0a2.277,2.277,0,0,1-.152-.668,2.419,2.419,0,0,1-1.8.785,2.238,2.238,0,0,1-1.538-.53,1.716,1.716,0,0,1-.6-1.345A1.792,1.792,0,0,1,18.53-3.3a3.55,3.55,0,0,1,2.118-.548H21.7v-.5a1.217,1.217,0,0,0-.34-.905,1.366,1.366,0,0,0-1-.337,1.581,1.581,0,0,0-.973.293A.863.863,0,0,0,19-4.582h-1.09a1.5,1.5,0,0,1,.337-.917,2.3,2.3,0,0,1,.914-.7,3.075,3.075,0,0,1,1.269-.258,2.506,2.506,0,0,1,1.717.548A1.976,1.976,0,0,1,22.787-4.4v2.918A3.567,3.567,0,0,0,23.01-.094V0Zm-1.8-.826a1.905,1.905,0,0,0,.967-.264,1.6,1.6,0,0,0,.662-.686v-1.3h-.85q-1.992,0-1.992,1.166a.987.987,0,0,0,.34.8A1.306,1.306,0,0,0,20.074-.826ZM25.512-6.34l.035.8a2.31,2.31,0,0,1,1.9-.914q2.01,0,2.027,2.268V0H28.389V-4.2a1.459,1.459,0,0,0-.313-1.014,1.256,1.256,0,0,0-.958-.328,1.564,1.564,0,0,0-.926.281,1.91,1.91,0,0,0-.621.738V0H24.486V-6.34Zm7.066-1.535V-6.34h1.184V-5.5H32.578v3.937a.88.88,0,0,0,.158.572.666.666,0,0,0,.539.191,2.624,2.624,0,0,0,.516-.07V0a3.161,3.161,0,0,1-.832.116,1.35,1.35,0,0,1-1.1-.439,1.888,1.888,0,0,1-.369-1.248V-5.5H30.34V-6.34h1.154V-7.875ZM37.658.117a2.77,2.77,0,0,1-2.1-.847,3.142,3.142,0,0,1-.809-2.265v-.2a3.8,3.8,0,0,1,.36-1.685,2.811,2.811,0,0,1,1.008-1.16,2.534,2.534,0,0,1,1.4-.419,2.374,2.374,0,0,1,1.922.814,3.526,3.526,0,0,1,.686,2.332v.451H35.836a2.254,2.254,0,0,0,.548,1.515,1.722,1.722,0,0,0,1.333.577A1.888,1.888,0,0,0,38.689-1a2.444,2.444,0,0,0,.7-.621l.662.516A2.662,2.662,0,0,1,37.658.117Zm-.135-5.684a1.446,1.446,0,0,0-1.1.478,2.321,2.321,0,0,0-.551,1.339h3.176v-.082a2.065,2.065,0,0,0-.445-1.28A1.361,1.361,0,0,0,37.523-5.566Zm6.926.2a3.248,3.248,0,0,0-.533-.041,1.428,1.428,0,0,0-1.447.908V0H41.385V-6.34h1.055l.018.732a1.688,1.688,0,0,1,1.512-.85,1.107,1.107,0,0,1,.48.082Zm.592,2.139A3.745,3.745,0,0,1,45.407-4.9a2.732,2.732,0,0,1,1.02-1.148,2.775,2.775,0,0,1,1.491-.4,2.674,2.674,0,0,1,2.095.9,3.449,3.449,0,0,1,.8,2.385V-3.1a3.777,3.777,0,0,1-.354,1.661A2.692,2.692,0,0,1,49.444-.293a2.807,2.807,0,0,1-1.515.41,2.667,2.667,0,0,1-2.089-.9,3.432,3.432,0,0,1-.8-2.373Zm1.09.129a2.712,2.712,0,0,0,.489,1.693,1.566,1.566,0,0,0,1.31.639,1.556,1.556,0,0,0,1.313-.647,2.966,2.966,0,0,0,.486-1.813,2.708,2.708,0,0,0-.5-1.69,1.574,1.574,0,0,0-1.315-.647,1.557,1.557,0,0,0-1.295.639A2.944,2.944,0,0,0,46.131-3.1Z" transform="translate(-2588.652 448.462)"/>
    <rect id="Rectángulo_5540" data-name="Rectángulo 5540" width="121.401" height="34.016" transform="translate(-2623.677 428.053)" fill="none" stroke="#86bec4" stroke-linecap="round" stroke-linejoin="round" stroke-width="1.806" stroke-dasharray="8.101"/>
    <rect id="Rectángulo_5541" data-name="Rectángulo 5541" width="121.401" height="34.016" transform="translate(-3153.631 428.053)" fill="none" stroke="#86bec4" stroke-linecap="round" stroke-linejoin="round" stroke-width="1.806" stroke-dasharray="8.101"/>
    <path id="Trazado_107911" data-name="Trazado 107911" d="M5.813-3.943h-3.7V-.92H6.41V0H.99V-8.531H6.352v.92H2.115v2.748h3.7Zm5.52,2.262A.8.8,0,0,0,11-2.364a3.187,3.187,0,0,0-1.154-.419A5.457,5.457,0,0,1,8.54-3.205a1.859,1.859,0,0,1-.715-.586A1.4,1.4,0,0,1,7.594-4.6a1.645,1.645,0,0,1,.659-1.318,2.574,2.574,0,0,1,1.685-.539,2.649,2.649,0,0,1,1.749.557,1.768,1.768,0,0,1,.671,1.424h-1.09a.979.979,0,0,0-.378-.768,1.416,1.416,0,0,0-.952-.322,1.482,1.482,0,0,0-.926.258.812.812,0,0,0-.334.674.658.658,0,0,0,.311.592,3.821,3.821,0,0,0,1.122.381,5.847,5.847,0,0,1,1.315.434,1.919,1.919,0,0,1,.747.606,1.491,1.491,0,0,1,.243.864A1.623,1.623,0,0,1,11.736-.4,2.851,2.851,0,0,1,9.973.117a3.193,3.193,0,0,1-1.348-.27,2.192,2.192,0,0,1-.917-.753,1.815,1.815,0,0,1-.331-1.046H8.461a1.122,1.122,0,0,0,.437.864,1.693,1.693,0,0,0,1.075.319,1.748,1.748,0,0,0,.987-.249A.765.765,0,0,0,11.332-1.682ZM19.184-3.1a3.8,3.8,0,0,1-.662,2.332,2.122,2.122,0,0,1-1.793.885,2.325,2.325,0,0,1-1.816-.732V2.438H13.828V-6.34h.99l.053.7a2.233,2.233,0,0,1,1.84-.82,2.162,2.162,0,0,1,1.808.861,3.838,3.838,0,0,1,.665,2.4ZM18.1-3.223a2.8,2.8,0,0,0-.457-1.693,1.472,1.472,0,0,0-1.254-.621,1.593,1.593,0,0,0-1.477.873v3.029A1.6,1.6,0,0,0,16.4-.768a1.465,1.465,0,0,0,1.239-.618A3.058,3.058,0,0,0,18.1-3.223ZM24.475,0a2.277,2.277,0,0,1-.152-.668,2.419,2.419,0,0,1-1.8.785,2.238,2.238,0,0,1-1.538-.53,1.716,1.716,0,0,1-.6-1.345A1.792,1.792,0,0,1,21.132-3.3a3.55,3.55,0,0,1,2.118-.548H24.3v-.5a1.217,1.217,0,0,0-.34-.905,1.366,1.366,0,0,0-1-.337,1.581,1.581,0,0,0-.973.293.863.863,0,0,0-.393.709h-1.09a1.5,1.5,0,0,1,.337-.917,2.3,2.3,0,0,1,.914-.7,3.075,3.075,0,0,1,1.269-.258,2.506,2.506,0,0,1,1.717.548A1.976,1.976,0,0,1,25.389-4.4v2.918a3.567,3.567,0,0,0,.223,1.389V0Zm-1.8-.826a1.905,1.905,0,0,0,.967-.264,1.6,1.6,0,0,0,.662-.686v-1.3h-.85q-1.992,0-1.992,1.166a.987.987,0,0,0,.34.8A1.306,1.306,0,0,0,22.676-.826ZM28.266,0H27.182V-9h1.084Zm1.471-3.223a3.714,3.714,0,0,1,.691-2.347,2.186,2.186,0,0,1,1.811-.888A2.2,2.2,0,0,1,34-5.7V-9h1.084V0h-1l-.053-.68a2.208,2.208,0,0,1-1.811.8,2.165,2.165,0,0,1-1.8-.9,3.756,3.756,0,0,1-.694-2.355ZM30.82-3.1a2.812,2.812,0,0,0,.445,1.688A1.44,1.44,0,0,0,32.5-.8,1.581,1.581,0,0,0,34-1.729V-4.641a1.593,1.593,0,0,0-1.494-.9,1.446,1.446,0,0,0-1.242.615A3.1,3.1,0,0,0,30.82-3.1ZM40.682,0a2.277,2.277,0,0,1-.152-.668,2.419,2.419,0,0,1-1.8.785,2.238,2.238,0,0,1-1.538-.53,1.716,1.716,0,0,1-.6-1.345A1.792,1.792,0,0,1,37.339-3.3a3.55,3.55,0,0,1,2.118-.548h1.055v-.5a1.217,1.217,0,0,0-.34-.905,1.366,1.366,0,0,0-1-.337,1.581,1.581,0,0,0-.973.293.863.863,0,0,0-.393.709h-1.09a1.5,1.5,0,0,1,.337-.917,2.3,2.3,0,0,1,.914-.7,3.075,3.075,0,0,1,1.269-.258,2.506,2.506,0,0,1,1.717.548A1.976,1.976,0,0,1,41.6-4.4v2.918a3.567,3.567,0,0,0,.223,1.389V0Zm-1.8-.826a1.905,1.905,0,0,0,.967-.264,1.6,1.6,0,0,0,.662-.686v-1.3h-.85q-1.992,0-1.992,1.166a.987.987,0,0,0,.34.8A1.306,1.306,0,0,0,38.883-.826Z" transform="translate(-3121.561 448.462)"/>
    <path id="Trazado_107908" data-name="Trazado 107908" d="M-32.546-1.494l2.438-7.037h1.23L-32.042,0h-1L-36.2-8.531h1.225Zm8.391.867a2.3,2.3,0,0,1-1.857.744,1.971,1.971,0,0,1-1.544-.589,2.549,2.549,0,0,1-.536-1.743V-6.34h1.084v4.1q0,1.441,1.172,1.441a1.623,1.623,0,0,0,1.652-.926V-6.34H-23.1V0h-1.031Zm5.332.744a2.77,2.77,0,0,1-2.1-.847,3.142,3.142,0,0,1-.809-2.265v-.2a3.8,3.8,0,0,1,.36-1.685,2.811,2.811,0,0,1,1.008-1.16,2.534,2.534,0,0,1,1.4-.419,2.374,2.374,0,0,1,1.922.814,3.526,3.526,0,0,1,.686,2.332v.451h-4.295A2.254,2.254,0,0,0-20.1-1.345a1.722,1.722,0,0,0,1.333.577A1.888,1.888,0,0,0-17.792-1a2.444,2.444,0,0,0,.7-.621l.662.516A2.662,2.662,0,0,1-18.823.117Zm-.135-5.684a1.446,1.446,0,0,0-1.1.478A2.321,2.321,0,0,0-20.61-3.75h3.176v-.082a2.065,2.065,0,0,0-.445-1.28A1.361,1.361,0,0,0-18.958-5.566ZM-13.919,0H-15V-9h1.084Zm3.205-7.875V-6.34H-9.53V-5.5h-1.184v3.937a.88.88,0,0,0,.158.572.666.666,0,0,0,.539.191A2.624,2.624,0,0,0-9.5-.873V0a3.161,3.161,0,0,1-.832.116,1.35,1.35,0,0,1-1.1-.439A1.888,1.888,0,0,1-11.8-1.57V-5.5h-1.154V-6.34H-11.8V-7.875ZM-4.351,0A2.277,2.277,0,0,1-4.5-.668a2.419,2.419,0,0,1-1.8.785,2.238,2.238,0,0,1-1.538-.53,1.716,1.716,0,0,1-.6-1.345A1.792,1.792,0,0,1-7.693-3.3a3.55,3.55,0,0,1,2.118-.548h1.055v-.5a1.217,1.217,0,0,0-.34-.905,1.366,1.366,0,0,0-1-.337,1.581,1.581,0,0,0-.973.293.863.863,0,0,0-.393.709h-1.09A1.5,1.5,0,0,1-7.98-5.5a2.3,2.3,0,0,1,.914-.7A3.075,3.075,0,0,1-5.8-6.457a2.506,2.506,0,0,1,1.717.548A1.976,1.976,0,0,1-3.437-4.4v2.918A3.567,3.567,0,0,0-3.214-.094V0Zm-1.8-.826a1.905,1.905,0,0,0,.967-.264,1.6,1.6,0,0,0,.662-.686v-1.3h-.85q-1.992,0-1.992,1.166a.987.987,0,0,0,.34.8A1.306,1.306,0,0,0-6.149-.826ZM3.864.117a2.77,2.77,0,0,1-2.1-.847A3.142,3.142,0,0,1,.958-2.994v-.2a3.8,3.8,0,0,1,.36-1.685,2.811,2.811,0,0,1,1.008-1.16,2.534,2.534,0,0,1,1.4-.419,2.374,2.374,0,0,1,1.922.814,3.526,3.526,0,0,1,.686,2.332v.451H2.042A2.254,2.254,0,0,0,2.59-1.345a1.722,1.722,0,0,0,1.333.577A1.888,1.888,0,0,0,4.9-1a2.444,2.444,0,0,0,.7-.621l.662.516A2.662,2.662,0,0,1,3.864.117ZM3.729-5.566a1.446,1.446,0,0,0-1.1.478A2.321,2.321,0,0,0,2.077-3.75H5.253v-.082a2.065,2.065,0,0,0-.445-1.28A1.361,1.361,0,0,0,3.729-5.566Zm7.553,3.885a.8.8,0,0,0-.331-.683A3.187,3.187,0,0,0,9.8-2.783,5.457,5.457,0,0,1,8.49-3.205a1.859,1.859,0,0,1-.715-.586A1.4,1.4,0,0,1,7.544-4.6,1.645,1.645,0,0,1,8.2-5.918a2.574,2.574,0,0,1,1.685-.539,2.649,2.649,0,0,1,1.749.557,1.768,1.768,0,0,1,.671,1.424h-1.09a.979.979,0,0,0-.378-.768,1.416,1.416,0,0,0-.952-.322,1.482,1.482,0,0,0-.926.258.812.812,0,0,0-.334.674.658.658,0,0,0,.311.592,3.821,3.821,0,0,0,1.122.381,5.847,5.847,0,0,1,1.315.434,1.919,1.919,0,0,1,.747.606,1.491,1.491,0,0,1,.243.864A1.623,1.623,0,0,1,11.687-.4,2.851,2.851,0,0,1,9.923.117a3.193,3.193,0,0,1-1.348-.27,2.192,2.192,0,0,1-.917-.753,1.815,1.815,0,0,1-.331-1.046H8.411a1.122,1.122,0,0,0,.437.864,1.693,1.693,0,0,0,1.075.319,1.748,1.748,0,0,0,.987-.249A.765.765,0,0,0,11.282-1.682Zm5.039.914a1.561,1.561,0,0,0,1.014-.352A1.237,1.237,0,0,0,17.815-2h1.025a1.966,1.966,0,0,1-.375,1.037,2.47,2.47,0,0,1-.923.785,2.663,2.663,0,0,1-1.222.293,2.612,2.612,0,0,1-2.06-.864A3.442,3.442,0,0,1,13.5-3.111v-.182a3.817,3.817,0,0,1,.34-1.646,2.588,2.588,0,0,1,.976-1.119,2.771,2.771,0,0,1,1.5-.4,2.543,2.543,0,0,1,1.772.639,2.283,2.283,0,0,1,.753,1.658H17.815a1.494,1.494,0,0,0-.466-1.011,1.449,1.449,0,0,0-1.034-.4,1.517,1.517,0,0,0-1.28.595,2.793,2.793,0,0,0-.454,1.72v.205a2.737,2.737,0,0,0,.451,1.688A1.524,1.524,0,0,0,16.321-.768Zm3.451-2.461A3.745,3.745,0,0,1,20.139-4.9a2.732,2.732,0,0,1,1.02-1.148,2.775,2.775,0,0,1,1.491-.4,2.674,2.674,0,0,1,2.095.9,3.449,3.449,0,0,1,.8,2.385V-3.1a3.777,3.777,0,0,1-.354,1.661A2.692,2.692,0,0,1,24.176-.293a2.807,2.807,0,0,1-1.515.41,2.667,2.667,0,0,1-2.089-.9,3.432,3.432,0,0,1-.8-2.373Zm1.09.129a2.712,2.712,0,0,0,.489,1.693,1.566,1.566,0,0,0,1.31.639,1.556,1.556,0,0,0,1.313-.647,2.966,2.966,0,0,0,.486-1.813,2.708,2.708,0,0,0-.5-1.69,1.574,1.574,0,0,0-1.315-.647,1.557,1.557,0,0,0-1.295.639A2.944,2.944,0,0,0,20.862-3.1Zm7.512-4.775V-6.34h1.184V-5.5H28.374v3.937a.88.88,0,0,0,.158.572.666.666,0,0,0,.539.191,2.624,2.624,0,0,0,.516-.07V0a3.161,3.161,0,0,1-.832.116,1.35,1.35,0,0,1-1.1-.439A1.888,1.888,0,0,1,27.29-1.57V-5.5H26.136V-6.34H27.29V-7.875ZM33.454.117a2.77,2.77,0,0,1-2.1-.847,3.142,3.142,0,0,1-.809-2.265v-.2a3.8,3.8,0,0,1,.36-1.685,2.811,2.811,0,0,1,1.008-1.16,2.534,2.534,0,0,1,1.4-.419,2.374,2.374,0,0,1,1.922.814,3.526,3.526,0,0,1,.686,2.332v.451H31.632a2.254,2.254,0,0,0,.548,1.515,1.722,1.722,0,0,0,1.333.577A1.888,1.888,0,0,0,34.485-1a2.444,2.444,0,0,0,.7-.621l.662.516A2.662,2.662,0,0,1,33.454.117Zm-.135-5.684a1.446,1.446,0,0,0-1.1.478,2.321,2.321,0,0,0-.551,1.339h3.176v-.082a2.065,2.065,0,0,0-.445-1.28A1.361,1.361,0,0,0,33.319-5.566ZM-24.568,11.177a3.714,3.714,0,0,1,.691-2.347,2.186,2.186,0,0,1,1.811-.888A2.2,2.2,0,0,1-20.3,8.7V5.4h1.084v9h-1l-.053-.68a2.208,2.208,0,0,1-1.811.8,2.165,2.165,0,0,1-1.8-.9,3.756,3.756,0,0,1-.694-2.355Zm1.084.123a2.812,2.812,0,0,0,.445,1.688,1.44,1.44,0,0,0,1.23.609,1.581,1.581,0,0,0,1.506-.926V9.759a1.593,1.593,0,0,0-1.494-.9,1.446,1.446,0,0,0-1.242.615A3.1,3.1,0,0,0-23.484,11.3Zm8.578,3.217a2.77,2.77,0,0,1-2.1-.847,3.142,3.142,0,0,1-.809-2.265v-.2a3.8,3.8,0,0,1,.36-1.685,2.811,2.811,0,0,1,1.008-1.16,2.534,2.534,0,0,1,1.4-.419,2.374,2.374,0,0,1,1.922.814,3.526,3.526,0,0,1,.686,2.332v.451h-4.295a2.254,2.254,0,0,0,.548,1.515,1.722,1.722,0,0,0,1.333.577,1.888,1.888,0,0,0,.973-.234,2.444,2.444,0,0,0,.7-.621l.662.516A2.662,2.662,0,0,1-14.906,14.517Zm-.135-5.684a1.446,1.446,0,0,0-1.1.478,2.321,2.321,0,0,0-.551,1.339h3.176v-.082a2.065,2.065,0,0,0-.445-1.28A1.361,1.361,0,0,0-15.041,8.834ZM-10,14.4h-1.084v-9H-10Zm5.648,0a2.277,2.277,0,0,1-.152-.668,2.419,2.419,0,0,1-1.8.785,2.238,2.238,0,0,1-1.538-.53,1.716,1.716,0,0,1-.6-1.345A1.792,1.792,0,0,1-7.7,11.1a3.55,3.55,0,0,1,2.118-.548h1.055v-.5a1.217,1.217,0,0,0-.34-.905,1.366,1.366,0,0,0-1-.337,1.581,1.581,0,0,0-.973.293.863.863,0,0,0-.393.709H-8.32A1.5,1.5,0,0,1-7.983,8.9a2.3,2.3,0,0,1,.914-.7A3.075,3.075,0,0,1-5.8,7.943a2.506,2.506,0,0,1,1.717.548A1.976,1.976,0,0,1-3.439,10v2.918a3.567,3.567,0,0,0,.223,1.389V14.4Zm-1.8-.826a1.905,1.905,0,0,0,.967-.264,1.6,1.6,0,0,0,.662-.686v-1.3h-.85q-1.992,0-1.992,1.166a.987.987,0,0,0,.34.8A1.306,1.306,0,0,0-6.152,13.574ZM-.715,8.06l.035.8a2.31,2.31,0,0,1,1.9-.914q2.01,0,2.027,2.268V14.4H2.162V10.2a1.459,1.459,0,0,0-.313-1.014,1.256,1.256,0,0,0-.958-.328,1.564,1.564,0,0,0-.926.281,1.91,1.91,0,0,0-.621.738V14.4H-1.74V8.06ZM6.352,6.525V8.06H7.535V8.9H6.352v3.937a.88.88,0,0,0,.158.572.666.666,0,0,0,.539.191,2.624,2.624,0,0,0,.516-.07V14.4a3.161,3.161,0,0,1-.832.116,1.35,1.35,0,0,1-1.1-.439,1.888,1.888,0,0,1-.369-1.248V8.9H4.113V8.06H5.268V6.525Zm5.08,7.992a2.77,2.77,0,0,1-2.1-.847,3.142,3.142,0,0,1-.809-2.265v-.2a3.8,3.8,0,0,1,.36-1.685,2.811,2.811,0,0,1,1.008-1.16,2.534,2.534,0,0,1,1.4-.419,2.374,2.374,0,0,1,1.922.814,3.526,3.526,0,0,1,.686,2.332v.451H9.609a2.254,2.254,0,0,0,.548,1.515,1.722,1.722,0,0,0,1.333.577,1.888,1.888,0,0,0,.973-.234,2.444,2.444,0,0,0,.7-.621l.662.516A2.662,2.662,0,0,1,11.432,14.517ZM11.3,8.834a1.446,1.446,0,0,0-1.1.478,2.321,2.321,0,0,0-.551,1.339H12.82v-.082a2.065,2.065,0,0,0-.445-1.28A1.361,1.361,0,0,0,11.3,8.834Zm6.926.2a3.249,3.249,0,0,0-.533-.041,1.428,1.428,0,0,0-1.447.908v4.5H15.158V8.06h1.055l.018.732a1.688,1.688,0,0,1,1.512-.85,1.107,1.107,0,0,1,.48.082Zm.592,2.139A3.745,3.745,0,0,1,19.181,9.5,2.732,2.732,0,0,1,20.2,8.347a2.775,2.775,0,0,1,1.491-.4,2.674,2.674,0,0,1,2.095.9,3.449,3.449,0,0,1,.8,2.385V11.3a3.777,3.777,0,0,1-.354,1.661,2.692,2.692,0,0,1-1.014,1.146,2.807,2.807,0,0,1-1.515.41,2.667,2.667,0,0,1-2.089-.9,3.432,3.432,0,0,1-.8-2.373Zm1.09.129a2.712,2.712,0,0,0,.489,1.693,1.658,1.658,0,0,0,2.622-.009,2.966,2.966,0,0,0,.486-1.813,2.708,2.708,0,0,0-.5-1.69,1.574,1.574,0,0,0-1.315-.647,1.557,1.557,0,0,0-1.295.639A2.944,2.944,0,0,0,19.9,11.3Z" transform="translate(-2572.049 187.97)"/>
    <path id="Trazado_107909" data-name="Trazado 107909" d="M-25.479-1.494l2.438-7.037h1.23L-24.976,0h-1L-29.13-8.531h1.225Zm8.391.867a2.3,2.3,0,0,1-1.857.744A1.971,1.971,0,0,1-20.49-.472a2.549,2.549,0,0,1-.536-1.743V-6.34h1.084v4.1q0,1.441,1.172,1.441a1.623,1.623,0,0,0,1.652-.926V-6.34h1.084V0h-1.031Zm5.332.744a2.77,2.77,0,0,1-2.1-.847,3.142,3.142,0,0,1-.809-2.265v-.2a3.8,3.8,0,0,1,.36-1.685,2.811,2.811,0,0,1,1.008-1.16,2.534,2.534,0,0,1,1.4-.419,2.374,2.374,0,0,1,1.922.814,3.526,3.526,0,0,1,.686,2.332v.451h-4.295a2.254,2.254,0,0,0,.548,1.515A1.722,1.722,0,0,0-11.7-.768,1.888,1.888,0,0,0-10.726-1a2.444,2.444,0,0,0,.7-.621l.662.516A2.662,2.662,0,0,1-11.757.117Zm-.135-5.684a1.446,1.446,0,0,0-1.1.478,2.321,2.321,0,0,0-.551,1.339h3.176v-.082a2.065,2.065,0,0,0-.445-1.28A1.361,1.361,0,0,0-11.892-5.566ZM-6.853,0H-7.937V-9h1.084Zm3.205-7.875V-6.34h1.184V-5.5H-3.647v3.937a.88.88,0,0,0,.158.572A.666.666,0,0,0-2.95-.8a2.624,2.624,0,0,0,.516-.07V0a3.161,3.161,0,0,1-.832.116,1.35,1.35,0,0,1-1.1-.439A1.888,1.888,0,0,1-4.731-1.57V-5.5H-5.886V-6.34h1.154V-7.875ZM2.716,0a2.277,2.277,0,0,1-.152-.668,2.419,2.419,0,0,1-1.8.785A2.238,2.238,0,0,1-.779-.413a1.716,1.716,0,0,1-.6-1.345A1.792,1.792,0,0,1-.627-3.3a3.55,3.55,0,0,1,2.118-.548H2.546v-.5a1.217,1.217,0,0,0-.34-.905,1.366,1.366,0,0,0-1-.337,1.581,1.581,0,0,0-.973.293.863.863,0,0,0-.393.709h-1.09A1.5,1.5,0,0,1-.914-5.5,2.3,2.3,0,0,1,0-6.2a3.075,3.075,0,0,1,1.269-.258,2.506,2.506,0,0,1,1.717.548A1.976,1.976,0,0,1,3.63-4.4v2.918A3.567,3.567,0,0,0,3.853-.094V0ZM.917-.826a1.905,1.905,0,0,0,.967-.264,1.6,1.6,0,0,0,.662-.686v-1.3H1.7Q-.3-3.076-.3-1.91a.987.987,0,0,0,.34.8A1.306,1.306,0,0,0,.917-.826Zm11.074-.855a.8.8,0,0,0-.331-.683,3.187,3.187,0,0,0-1.154-.419A5.457,5.457,0,0,1,9.2-3.205a1.859,1.859,0,0,1-.715-.586A1.4,1.4,0,0,1,8.253-4.6a1.645,1.645,0,0,1,.659-1.318A2.574,2.574,0,0,1,10.6-6.457a2.649,2.649,0,0,1,1.749.557,1.768,1.768,0,0,1,.671,1.424h-1.09a.979.979,0,0,0-.378-.768,1.416,1.416,0,0,0-.952-.322,1.482,1.482,0,0,0-.926.258.812.812,0,0,0-.334.674.658.658,0,0,0,.311.592,3.821,3.821,0,0,0,1.122.381,5.847,5.847,0,0,1,1.315.434,1.919,1.919,0,0,1,.747.606,1.491,1.491,0,0,1,.243.864A1.623,1.623,0,0,1,12.4-.4a2.851,2.851,0,0,1-1.764.513,3.193,3.193,0,0,1-1.348-.27,2.192,2.192,0,0,1-.917-.753,1.815,1.815,0,0,1-.331-1.046H9.12a1.122,1.122,0,0,0,.437.864,1.693,1.693,0,0,0,1.075.319,1.748,1.748,0,0,0,.987-.249A.765.765,0,0,0,11.991-1.682ZM15.665,0H14.581V-6.34h1.084ZM14.493-8.021a.647.647,0,0,1,.161-.445.6.6,0,0,1,.478-.182.614.614,0,0,1,.48.182.64.64,0,0,1,.164.445.619.619,0,0,1-.164.439.626.626,0,0,1-.48.176.616.616,0,0,1-.478-.176A.626.626,0,0,1,14.493-8.021Zm6.6,6.34a.8.8,0,0,0-.331-.683,3.187,3.187,0,0,0-1.154-.419A5.457,5.457,0,0,1,18.3-3.205a1.859,1.859,0,0,1-.715-.586,1.4,1.4,0,0,1-.231-.809,1.645,1.645,0,0,1,.659-1.318A2.574,2.574,0,0,1,19.7-6.457a2.649,2.649,0,0,1,1.749.557,1.768,1.768,0,0,1,.671,1.424h-1.09a.979.979,0,0,0-.378-.768,1.416,1.416,0,0,0-.952-.322,1.482,1.482,0,0,0-.926.258.812.812,0,0,0-.334.674.658.658,0,0,0,.311.592,3.821,3.821,0,0,0,1.122.381,5.847,5.847,0,0,1,1.315.434,1.919,1.919,0,0,1,.747.606,1.491,1.491,0,0,1,.243.864A1.623,1.623,0,0,1,21.5-.4a2.851,2.851,0,0,1-1.764.513,3.193,3.193,0,0,1-1.348-.27,2.192,2.192,0,0,1-.917-.753,1.815,1.815,0,0,1-.331-1.046H18.22a1.122,1.122,0,0,0,.437.864,1.693,1.693,0,0,0,1.075.319,1.748,1.748,0,0,0,.987-.249A.765.765,0,0,0,21.091-1.682ZM27.5,0a2.277,2.277,0,0,1-.152-.668,2.419,2.419,0,0,1-1.8.785,2.238,2.238,0,0,1-1.538-.53,1.716,1.716,0,0,1-.6-1.345A1.792,1.792,0,0,1,24.158-3.3a3.55,3.55,0,0,1,2.118-.548h1.055v-.5a1.217,1.217,0,0,0-.34-.905,1.366,1.366,0,0,0-1-.337,1.581,1.581,0,0,0-.973.293.863.863,0,0,0-.393.709h-1.09a1.5,1.5,0,0,1,.337-.917,2.3,2.3,0,0,1,.914-.7,3.075,3.075,0,0,1,1.269-.258,2.506,2.506,0,0,1,1.717.548A1.976,1.976,0,0,1,28.415-4.4v2.918a3.567,3.567,0,0,0,.223,1.389V0ZM25.7-.826a1.905,1.905,0,0,0,.967-.264,1.6,1.6,0,0,0,.662-.686v-1.3h-.85q-1.992,0-1.992,1.166a.987.987,0,0,0,.34.8A1.306,1.306,0,0,0,25.7-.826Zm-50.271,12a3.714,3.714,0,0,1,.691-2.347,2.186,2.186,0,0,1,1.811-.888A2.2,2.2,0,0,1-20.3,8.7V5.4h1.084v9h-1l-.053-.68a2.208,2.208,0,0,1-1.811.8,2.165,2.165,0,0,1-1.8-.9,3.756,3.756,0,0,1-.694-2.355Zm1.084.123a2.812,2.812,0,0,0,.445,1.688,1.44,1.44,0,0,0,1.23.609,1.581,1.581,0,0,0,1.506-.926V9.759a1.593,1.593,0,0,0-1.494-.9,1.446,1.446,0,0,0-1.242.615A3.1,3.1,0,0,0-23.484,11.3Zm8.578,3.217a2.77,2.77,0,0,1-2.1-.847,3.142,3.142,0,0,1-.809-2.265v-.2a3.8,3.8,0,0,1,.36-1.685,2.811,2.811,0,0,1,1.008-1.16,2.534,2.534,0,0,1,1.4-.419,2.374,2.374,0,0,1,1.922.814,3.526,3.526,0,0,1,.686,2.332v.451h-4.295a2.254,2.254,0,0,0,.548,1.515,1.722,1.722,0,0,0,1.333.577,1.888,1.888,0,0,0,.973-.234,2.444,2.444,0,0,0,.7-.621l.662.516A2.662,2.662,0,0,1-14.906,14.517Zm-.135-5.684a1.446,1.446,0,0,0-1.1.478,2.321,2.321,0,0,0-.551,1.339h3.176v-.082a2.065,2.065,0,0,0-.445-1.28A1.361,1.361,0,0,0-15.041,8.834ZM-10,14.4h-1.084v-9H-10Zm5.648,0a2.277,2.277,0,0,1-.152-.668,2.419,2.419,0,0,1-1.8.785,2.238,2.238,0,0,1-1.538-.53,1.716,1.716,0,0,1-.6-1.345A1.792,1.792,0,0,1-7.7,11.1a3.55,3.55,0,0,1,2.118-.548h1.055v-.5a1.217,1.217,0,0,0-.34-.905,1.366,1.366,0,0,0-1-.337,1.581,1.581,0,0,0-.973.293.863.863,0,0,0-.393.709H-8.32A1.5,1.5,0,0,1-7.983,8.9a2.3,2.3,0,0,1,.914-.7A3.075,3.075,0,0,1-5.8,7.943a2.506,2.506,0,0,1,1.717.548A1.976,1.976,0,0,1-3.439,10v2.918a3.567,3.567,0,0,0,.223,1.389V14.4Zm-1.8-.826a1.905,1.905,0,0,0,.967-.264,1.6,1.6,0,0,0,.662-.686v-1.3h-.85q-1.992,0-1.992,1.166a.987.987,0,0,0,.34.8A1.306,1.306,0,0,0-6.152,13.574ZM-.715,8.06l.035.8a2.31,2.31,0,0,1,1.9-.914q2.01,0,2.027,2.268V14.4H2.162V10.2a1.459,1.459,0,0,0-.313-1.014,1.256,1.256,0,0,0-.958-.328,1.564,1.564,0,0,0-.926.281,1.91,1.91,0,0,0-.621.738V14.4H-1.74V8.06ZM6.352,6.525V8.06H7.535V8.9H6.352v3.937a.88.88,0,0,0,.158.572.666.666,0,0,0,.539.191,2.624,2.624,0,0,0,.516-.07V14.4a3.161,3.161,0,0,1-.832.116,1.35,1.35,0,0,1-1.1-.439,1.888,1.888,0,0,1-.369-1.248V8.9H4.113V8.06H5.268V6.525Zm5.08,7.992a2.77,2.77,0,0,1-2.1-.847,3.142,3.142,0,0,1-.809-2.265v-.2a3.8,3.8,0,0,1,.36-1.685,2.811,2.811,0,0,1,1.008-1.16,2.534,2.534,0,0,1,1.4-.419,2.374,2.374,0,0,1,1.922.814,3.526,3.526,0,0,1,.686,2.332v.451H9.609a2.254,2.254,0,0,0,.548,1.515,1.722,1.722,0,0,0,1.333.577,1.888,1.888,0,0,0,.973-.234,2.444,2.444,0,0,0,.7-.621l.662.516A2.662,2.662,0,0,1,11.432,14.517ZM11.3,8.834a1.446,1.446,0,0,0-1.1.478,2.321,2.321,0,0,0-.551,1.339H12.82v-.082a2.065,2.065,0,0,0-.445-1.28A1.361,1.361,0,0,0,11.3,8.834Zm6.926.2a3.249,3.249,0,0,0-.533-.041,1.428,1.428,0,0,0-1.447.908v4.5H15.158V8.06h1.055l.018.732a1.688,1.688,0,0,1,1.512-.85,1.107,1.107,0,0,1,.48.082Zm.592,2.139A3.745,3.745,0,0,1,19.181,9.5,2.732,2.732,0,0,1,20.2,8.347a2.775,2.775,0,0,1,1.491-.4,2.674,2.674,0,0,1,2.095.9,3.449,3.449,0,0,1,.8,2.385V11.3a3.777,3.777,0,0,1-.354,1.661,2.692,2.692,0,0,1-1.014,1.146,2.807,2.807,0,0,1-1.515.41,2.667,2.667,0,0,1-2.089-.9,3.432,3.432,0,0,1-.8-2.373Zm1.09.129a2.712,2.712,0,0,0,.489,1.693,1.658,1.658,0,0,0,2.622-.009,2.966,2.966,0,0,0,.486-1.813,2.708,2.708,0,0,0-.5-1.69,1.574,1.574,0,0,0-1.315-.647,1.557,1.557,0,0,0-1.295.639A2.944,2.944,0,0,0,19.9,11.3Z" transform="translate(-2566.714 342.067)"/>
    <path id="Trazado_107912" data-name="Trazado 107912" d="M-25.479-1.494l2.438-7.037h1.23L-24.976,0h-1L-29.13-8.531h1.225Zm8.391.867a2.3,2.3,0,0,1-1.857.744A1.971,1.971,0,0,1-20.49-.472a2.549,2.549,0,0,1-.536-1.743V-6.34h1.084v4.1q0,1.441,1.172,1.441a1.623,1.623,0,0,0,1.652-.926V-6.34h1.084V0h-1.031Zm5.332.744a2.77,2.77,0,0,1-2.1-.847,3.142,3.142,0,0,1-.809-2.265v-.2a3.8,3.8,0,0,1,.36-1.685,2.811,2.811,0,0,1,1.008-1.16,2.534,2.534,0,0,1,1.4-.419,2.374,2.374,0,0,1,1.922.814,3.526,3.526,0,0,1,.686,2.332v.451h-4.295a2.254,2.254,0,0,0,.548,1.515A1.722,1.722,0,0,0-11.7-.768,1.888,1.888,0,0,0-10.726-1a2.444,2.444,0,0,0,.7-.621l.662.516A2.662,2.662,0,0,1-11.757.117Zm-.135-5.684a1.446,1.446,0,0,0-1.1.478,2.321,2.321,0,0,0-.551,1.339h3.176v-.082a2.065,2.065,0,0,0-.445-1.28A1.361,1.361,0,0,0-11.892-5.566ZM-6.853,0H-7.937V-9h1.084Zm3.205-7.875V-6.34h1.184V-5.5H-3.647v3.937a.88.88,0,0,0,.158.572A.666.666,0,0,0-2.95-.8a2.624,2.624,0,0,0,.516-.07V0a3.161,3.161,0,0,1-.832.116,1.35,1.35,0,0,1-1.1-.439A1.888,1.888,0,0,1-4.731-1.57V-5.5H-5.886V-6.34h1.154V-7.875ZM2.716,0a2.277,2.277,0,0,1-.152-.668,2.419,2.419,0,0,1-1.8.785A2.238,2.238,0,0,1-.779-.413a1.716,1.716,0,0,1-.6-1.345A1.792,1.792,0,0,1-.627-3.3a3.55,3.55,0,0,1,2.118-.548H2.546v-.5a1.217,1.217,0,0,0-.34-.905,1.366,1.366,0,0,0-1-.337,1.581,1.581,0,0,0-.973.293.863.863,0,0,0-.393.709h-1.09A1.5,1.5,0,0,1-.914-5.5,2.3,2.3,0,0,1,0-6.2a3.075,3.075,0,0,1,1.269-.258,2.506,2.506,0,0,1,1.717.548A1.976,1.976,0,0,1,3.63-4.4v2.918A3.567,3.567,0,0,0,3.853-.094V0ZM.917-.826a1.905,1.905,0,0,0,.967-.264,1.6,1.6,0,0,0,.662-.686v-1.3H1.7Q-.3-3.076-.3-1.91a.987.987,0,0,0,.34.8A1.306,1.306,0,0,0,.917-.826Zm11.074-.855a.8.8,0,0,0-.331-.683,3.187,3.187,0,0,0-1.154-.419A5.457,5.457,0,0,1,9.2-3.205a1.859,1.859,0,0,1-.715-.586A1.4,1.4,0,0,1,8.253-4.6a1.645,1.645,0,0,1,.659-1.318A2.574,2.574,0,0,1,10.6-6.457a2.649,2.649,0,0,1,1.749.557,1.768,1.768,0,0,1,.671,1.424h-1.09a.979.979,0,0,0-.378-.768,1.416,1.416,0,0,0-.952-.322,1.482,1.482,0,0,0-.926.258.812.812,0,0,0-.334.674.658.658,0,0,0,.311.592,3.821,3.821,0,0,0,1.122.381,5.847,5.847,0,0,1,1.315.434,1.919,1.919,0,0,1,.747.606,1.491,1.491,0,0,1,.243.864A1.623,1.623,0,0,1,12.4-.4a2.851,2.851,0,0,1-1.764.513,3.193,3.193,0,0,1-1.348-.27,2.192,2.192,0,0,1-.917-.753,1.815,1.815,0,0,1-.331-1.046H9.12a1.122,1.122,0,0,0,.437.864,1.693,1.693,0,0,0,1.075.319,1.748,1.748,0,0,0,.987-.249A.765.765,0,0,0,11.991-1.682ZM15.665,0H14.581V-6.34h1.084ZM14.493-8.021a.647.647,0,0,1,.161-.445.6.6,0,0,1,.478-.182.614.614,0,0,1,.48.182.64.64,0,0,1,.164.445.619.619,0,0,1-.164.439.626.626,0,0,1-.48.176.616.616,0,0,1-.478-.176A.626.626,0,0,1,14.493-8.021Zm6.6,6.34a.8.8,0,0,0-.331-.683,3.187,3.187,0,0,0-1.154-.419A5.457,5.457,0,0,1,18.3-3.205a1.859,1.859,0,0,1-.715-.586,1.4,1.4,0,0,1-.231-.809,1.645,1.645,0,0,1,.659-1.318A2.574,2.574,0,0,1,19.7-6.457a2.649,2.649,0,0,1,1.749.557,1.768,1.768,0,0,1,.671,1.424h-1.09a.979.979,0,0,0-.378-.768,1.416,1.416,0,0,0-.952-.322,1.482,1.482,0,0,0-.926.258.812.812,0,0,0-.334.674.658.658,0,0,0,.311.592,3.821,3.821,0,0,0,1.122.381,5.847,5.847,0,0,1,1.315.434,1.919,1.919,0,0,1,.747.606,1.491,1.491,0,0,1,.243.864A1.623,1.623,0,0,1,21.5-.4a2.851,2.851,0,0,1-1.764.513,3.193,3.193,0,0,1-1.348-.27,2.192,2.192,0,0,1-.917-.753,1.815,1.815,0,0,1-.331-1.046H18.22a1.122,1.122,0,0,0,.437.864,1.693,1.693,0,0,0,1.075.319,1.748,1.748,0,0,0,.987-.249A.765.765,0,0,0,21.091-1.682ZM27.5,0a2.277,2.277,0,0,1-.152-.668,2.419,2.419,0,0,1-1.8.785,2.238,2.238,0,0,1-1.538-.53,1.716,1.716,0,0,1-.6-1.345A1.792,1.792,0,0,1,24.158-3.3a3.55,3.55,0,0,1,2.118-.548h1.055v-.5a1.217,1.217,0,0,0-.34-.905,1.366,1.366,0,0,0-1-.337,1.581,1.581,0,0,0-.973.293.863.863,0,0,0-.393.709h-1.09a1.5,1.5,0,0,1,.337-.917,2.3,2.3,0,0,1,.914-.7,3.075,3.075,0,0,1,1.269-.258,2.506,2.506,0,0,1,1.717.548A1.976,1.976,0,0,1,28.415-4.4v2.918a3.567,3.567,0,0,0,.223,1.389V0ZM25.7-.826a1.905,1.905,0,0,0,.967-.264,1.6,1.6,0,0,0,.662-.686v-1.3h-.85q-1.992,0-1.992,1.166a.987.987,0,0,0,.34.8A1.306,1.306,0,0,0,25.7-.826ZM-17.555,14.517a2.77,2.77,0,0,1-2.1-.847,3.142,3.142,0,0,1-.809-2.265v-.2a3.8,3.8,0,0,1,.36-1.685,2.811,2.811,0,0,1,1.008-1.16,2.534,2.534,0,0,1,1.4-.419,2.374,2.374,0,0,1,1.922.814,3.526,3.526,0,0,1,.686,2.332v.451h-4.295a2.254,2.254,0,0,0,.548,1.515,1.722,1.722,0,0,0,1.333.577,1.888,1.888,0,0,0,.973-.234,2.444,2.444,0,0,0,.7-.621l.662.516A2.662,2.662,0,0,1-17.555,14.517Zm-.135-5.684a1.446,1.446,0,0,0-1.1.478,2.321,2.321,0,0,0-.551,1.339h3.176v-.082a2.065,2.065,0,0,0-.445-1.28A1.361,1.361,0,0,0-17.689,8.834Zm7.553,3.885a.8.8,0,0,0-.331-.683,3.187,3.187,0,0,0-1.154-.419,5.457,5.457,0,0,1-1.307-.422,1.859,1.859,0,0,1-.715-.586,1.4,1.4,0,0,1-.231-.809,1.645,1.645,0,0,1,.659-1.318,2.574,2.574,0,0,1,1.685-.539A2.649,2.649,0,0,1-9.782,8.5a1.768,1.768,0,0,1,.671,1.424H-10.2a.979.979,0,0,0-.378-.768,1.416,1.416,0,0,0-.952-.322,1.482,1.482,0,0,0-.926.258.812.812,0,0,0-.334.674.658.658,0,0,0,.311.592,3.821,3.821,0,0,0,1.122.381,5.847,5.847,0,0,1,1.315.434,1.919,1.919,0,0,1,.747.606,1.491,1.491,0,0,1,.243.864A1.623,1.623,0,0,1-9.732,14a2.851,2.851,0,0,1-1.764.513,3.193,3.193,0,0,1-1.348-.27,2.192,2.192,0,0,1-.917-.753,1.815,1.815,0,0,1-.331-1.046h1.084a1.122,1.122,0,0,0,.437.864,1.693,1.693,0,0,0,1.075.319,1.748,1.748,0,0,0,.987-.249A.765.765,0,0,0-10.137,12.718ZM-2.285,11.3a3.8,3.8,0,0,1-.662,2.332,2.122,2.122,0,0,1-1.793.885,2.325,2.325,0,0,1-1.816-.732v3.053H-7.641V8.06h.99l.053.7a2.233,2.233,0,0,1,1.84-.82A2.162,2.162,0,0,1-2.95,8.8a3.838,3.838,0,0,1,.665,2.4Zm-1.084-.123a2.8,2.8,0,0,0-.457-1.693A1.472,1.472,0,0,0-5.08,8.863a1.593,1.593,0,0,0-1.477.873v3.029a1.6,1.6,0,0,0,1.488.867,1.465,1.465,0,0,0,1.239-.618A3.058,3.058,0,0,0-3.369,11.177ZM3.006,14.4a2.277,2.277,0,0,1-.152-.668,2.419,2.419,0,0,1-1.8.785,2.238,2.238,0,0,1-1.538-.53,1.716,1.716,0,0,1-.6-1.345A1.792,1.792,0,0,1-.337,11.1a3.55,3.55,0,0,1,2.118-.548H2.836v-.5a1.217,1.217,0,0,0-.34-.905,1.366,1.366,0,0,0-1-.337,1.581,1.581,0,0,0-.973.293.863.863,0,0,0-.393.709H-.961A1.5,1.5,0,0,1-.624,8.9,2.3,2.3,0,0,1,.29,8.2a3.075,3.075,0,0,1,1.269-.258,2.506,2.506,0,0,1,1.717.548A1.976,1.976,0,0,1,3.92,10v2.918a3.567,3.567,0,0,0,.223,1.389V14.4Zm-1.8-.826a1.905,1.905,0,0,0,.967-.264,1.6,1.6,0,0,0,.662-.686v-1.3h-.85q-1.992,0-1.992,1.166a.987.987,0,0,0,.34.8A1.306,1.306,0,0,0,1.207,13.574ZM6.8,14.4H5.713v-9H6.8Zm1.471-3.223a3.714,3.714,0,0,1,.691-2.347,2.186,2.186,0,0,1,1.811-.888,2.2,2.2,0,0,1,1.764.762V5.4h1.084v9h-1l-.053-.68a2.208,2.208,0,0,1-1.811.8,2.165,2.165,0,0,1-1.8-.9,3.756,3.756,0,0,1-.694-2.355Zm1.084.123A2.812,2.812,0,0,0,9.8,12.988a1.44,1.44,0,0,0,1.23.609,1.581,1.581,0,0,0,1.506-.926V9.759a1.593,1.593,0,0,0-1.494-.9A1.446,1.446,0,0,0,9.8,9.478,3.1,3.1,0,0,0,9.352,11.3Zm9.861,3.1a2.277,2.277,0,0,1-.152-.668,2.419,2.419,0,0,1-1.8.785,2.238,2.238,0,0,1-1.538-.53,1.716,1.716,0,0,1-.6-1.345A1.792,1.792,0,0,1,15.87,11.1a3.55,3.55,0,0,1,2.118-.548h1.055v-.5a1.217,1.217,0,0,0-.34-.905,1.366,1.366,0,0,0-1-.337,1.581,1.581,0,0,0-.973.293.863.863,0,0,0-.393.709h-1.09a1.5,1.5,0,0,1,.337-.917,2.3,2.3,0,0,1,.914-.7,3.075,3.075,0,0,1,1.269-.258,2.506,2.506,0,0,1,1.717.548A1.976,1.976,0,0,1,20.127,10v2.918a3.567,3.567,0,0,0,.223,1.389V14.4Zm-1.8-.826a1.905,1.905,0,0,0,.967-.264,1.6,1.6,0,0,0,.662-.686v-1.3h-.85q-1.992,0-1.992,1.166a.987.987,0,0,0,.34.8A1.306,1.306,0,0,0,17.414,13.574Z" transform="translate(-3102.73 342.067)"/>
    <path id="Trazado_107913" data-name="Trazado 107913" d="M-32.546-1.494l2.438-7.037h1.23L-32.042,0h-1L-36.2-8.531h1.225Zm8.391.867a2.3,2.3,0,0,1-1.857.744,1.971,1.971,0,0,1-1.544-.589,2.549,2.549,0,0,1-.536-1.743V-6.34h1.084v4.1q0,1.441,1.172,1.441a1.623,1.623,0,0,0,1.652-.926V-6.34H-23.1V0h-1.031Zm5.332.744a2.77,2.77,0,0,1-2.1-.847,3.142,3.142,0,0,1-.809-2.265v-.2a3.8,3.8,0,0,1,.36-1.685,2.811,2.811,0,0,1,1.008-1.16,2.534,2.534,0,0,1,1.4-.419,2.374,2.374,0,0,1,1.922.814,3.526,3.526,0,0,1,.686,2.332v.451h-4.295A2.254,2.254,0,0,0-20.1-1.345a1.722,1.722,0,0,0,1.333.577A1.888,1.888,0,0,0-17.792-1a2.444,2.444,0,0,0,.7-.621l.662.516A2.662,2.662,0,0,1-18.823.117Zm-.135-5.684a1.446,1.446,0,0,0-1.1.478A2.321,2.321,0,0,0-20.61-3.75h3.176v-.082a2.065,2.065,0,0,0-.445-1.28A1.361,1.361,0,0,0-18.958-5.566ZM-13.919,0H-15V-9h1.084Zm3.205-7.875V-6.34H-9.53V-5.5h-1.184v3.937a.88.88,0,0,0,.158.572.666.666,0,0,0,.539.191A2.624,2.624,0,0,0-9.5-.873V0a3.161,3.161,0,0,1-.832.116,1.35,1.35,0,0,1-1.1-.439A1.888,1.888,0,0,1-11.8-1.57V-5.5h-1.154V-6.34H-11.8V-7.875ZM-4.351,0A2.277,2.277,0,0,1-4.5-.668a2.419,2.419,0,0,1-1.8.785,2.238,2.238,0,0,1-1.538-.53,1.716,1.716,0,0,1-.6-1.345A1.792,1.792,0,0,1-7.693-3.3a3.55,3.55,0,0,1,2.118-.548h1.055v-.5a1.217,1.217,0,0,0-.34-.905,1.366,1.366,0,0,0-1-.337,1.581,1.581,0,0,0-.973.293.863.863,0,0,0-.393.709h-1.09A1.5,1.5,0,0,1-7.98-5.5a2.3,2.3,0,0,1,.914-.7A3.075,3.075,0,0,1-5.8-6.457a2.506,2.506,0,0,1,1.717.548A1.976,1.976,0,0,1-3.437-4.4v2.918A3.567,3.567,0,0,0-3.214-.094V0Zm-1.8-.826a1.905,1.905,0,0,0,.967-.264,1.6,1.6,0,0,0,.662-.686v-1.3h-.85q-1.992,0-1.992,1.166a.987.987,0,0,0,.34.8A1.306,1.306,0,0,0-6.149-.826ZM3.864.117a2.77,2.77,0,0,1-2.1-.847A3.142,3.142,0,0,1,.958-2.994v-.2a3.8,3.8,0,0,1,.36-1.685,2.811,2.811,0,0,1,1.008-1.16,2.534,2.534,0,0,1,1.4-.419,2.374,2.374,0,0,1,1.922.814,3.526,3.526,0,0,1,.686,2.332v.451H2.042A2.254,2.254,0,0,0,2.59-1.345a1.722,1.722,0,0,0,1.333.577A1.888,1.888,0,0,0,4.9-1a2.444,2.444,0,0,0,.7-.621l.662.516A2.662,2.662,0,0,1,3.864.117ZM3.729-5.566a1.446,1.446,0,0,0-1.1.478A2.321,2.321,0,0,0,2.077-3.75H5.253v-.082a2.065,2.065,0,0,0-.445-1.28A1.361,1.361,0,0,0,3.729-5.566Zm7.553,3.885a.8.8,0,0,0-.331-.683A3.187,3.187,0,0,0,9.8-2.783,5.457,5.457,0,0,1,8.49-3.205a1.859,1.859,0,0,1-.715-.586A1.4,1.4,0,0,1,7.544-4.6,1.645,1.645,0,0,1,8.2-5.918a2.574,2.574,0,0,1,1.685-.539,2.649,2.649,0,0,1,1.749.557,1.768,1.768,0,0,1,.671,1.424h-1.09a.979.979,0,0,0-.378-.768,1.416,1.416,0,0,0-.952-.322,1.482,1.482,0,0,0-.926.258.812.812,0,0,0-.334.674.658.658,0,0,0,.311.592,3.821,3.821,0,0,0,1.122.381,5.847,5.847,0,0,1,1.315.434,1.919,1.919,0,0,1,.747.606,1.491,1.491,0,0,1,.243.864A1.623,1.623,0,0,1,11.687-.4,2.851,2.851,0,0,1,9.923.117a3.193,3.193,0,0,1-1.348-.27,2.192,2.192,0,0,1-.917-.753,1.815,1.815,0,0,1-.331-1.046H8.411a1.122,1.122,0,0,0,.437.864,1.693,1.693,0,0,0,1.075.319,1.748,1.748,0,0,0,.987-.249A.765.765,0,0,0,11.282-1.682Zm5.039.914a1.561,1.561,0,0,0,1.014-.352A1.237,1.237,0,0,0,17.815-2h1.025a1.966,1.966,0,0,1-.375,1.037,2.47,2.47,0,0,1-.923.785,2.663,2.663,0,0,1-1.222.293,2.612,2.612,0,0,1-2.06-.864A3.442,3.442,0,0,1,13.5-3.111v-.182a3.817,3.817,0,0,1,.34-1.646,2.588,2.588,0,0,1,.976-1.119,2.771,2.771,0,0,1,1.5-.4,2.543,2.543,0,0,1,1.772.639,2.283,2.283,0,0,1,.753,1.658H17.815a1.494,1.494,0,0,0-.466-1.011,1.449,1.449,0,0,0-1.034-.4,1.517,1.517,0,0,0-1.28.595,2.793,2.793,0,0,0-.454,1.72v.205a2.737,2.737,0,0,0,.451,1.688A1.524,1.524,0,0,0,16.321-.768Zm3.451-2.461A3.745,3.745,0,0,1,20.139-4.9a2.732,2.732,0,0,1,1.02-1.148,2.775,2.775,0,0,1,1.491-.4,2.674,2.674,0,0,1,2.095.9,3.449,3.449,0,0,1,.8,2.385V-3.1a3.777,3.777,0,0,1-.354,1.661A2.692,2.692,0,0,1,24.176-.293a2.807,2.807,0,0,1-1.515.41,2.667,2.667,0,0,1-2.089-.9,3.432,3.432,0,0,1-.8-2.373Zm1.09.129a2.712,2.712,0,0,0,.489,1.693,1.566,1.566,0,0,0,1.31.639,1.556,1.556,0,0,0,1.313-.647,2.966,2.966,0,0,0,.486-1.813,2.708,2.708,0,0,0-.5-1.69,1.574,1.574,0,0,0-1.315-.647,1.557,1.557,0,0,0-1.295.639A2.944,2.944,0,0,0,20.862-3.1Zm7.512-4.775V-6.34h1.184V-5.5H28.374v3.937a.88.88,0,0,0,.158.572.666.666,0,0,0,.539.191,2.624,2.624,0,0,0,.516-.07V0a3.161,3.161,0,0,1-.832.116,1.35,1.35,0,0,1-1.1-.439A1.888,1.888,0,0,1,27.29-1.57V-5.5H26.136V-6.34H27.29V-7.875ZM33.454.117a2.77,2.77,0,0,1-2.1-.847,3.142,3.142,0,0,1-.809-2.265v-.2a3.8,3.8,0,0,1,.36-1.685,2.811,2.811,0,0,1,1.008-1.16,2.534,2.534,0,0,1,1.4-.419,2.374,2.374,0,0,1,1.922.814,3.526,3.526,0,0,1,.686,2.332v.451H31.632a2.254,2.254,0,0,0,.548,1.515,1.722,1.722,0,0,0,1.333.577A1.888,1.888,0,0,0,34.485-1a2.444,2.444,0,0,0,.7-.621l.662.516A2.662,2.662,0,0,1,33.454.117Zm-.135-5.684a1.446,1.446,0,0,0-1.1.478,2.321,2.321,0,0,0-.551,1.339h3.176v-.082a2.065,2.065,0,0,0-.445-1.28A1.361,1.361,0,0,0,33.319-5.566ZM-24.568,11.177a3.714,3.714,0,0,1,.691-2.347,2.186,2.186,0,0,1,1.811-.888A2.2,2.2,0,0,1-20.3,8.7V5.4h1.084v9h-1l-.053-.68a2.208,2.208,0,0,1-1.811.8,2.165,2.165,0,0,1-1.8-.9,3.756,3.756,0,0,1-.694-2.355Zm1.084.123a2.812,2.812,0,0,0,.445,1.688,1.44,1.44,0,0,0,1.23.609,1.581,1.581,0,0,0,1.506-.926V9.759a1.593,1.593,0,0,0-1.494-.9,1.446,1.446,0,0,0-1.242.615A3.1,3.1,0,0,0-23.484,11.3Zm8.578,3.217a2.77,2.77,0,0,1-2.1-.847,3.142,3.142,0,0,1-.809-2.265v-.2a3.8,3.8,0,0,1,.36-1.685,2.811,2.811,0,0,1,1.008-1.16,2.534,2.534,0,0,1,1.4-.419,2.374,2.374,0,0,1,1.922.814,3.526,3.526,0,0,1,.686,2.332v.451h-4.295a2.254,2.254,0,0,0,.548,1.515,1.722,1.722,0,0,0,1.333.577,1.888,1.888,0,0,0,.973-.234,2.444,2.444,0,0,0,.7-.621l.662.516A2.662,2.662,0,0,1-14.906,14.517Zm-.135-5.684a1.446,1.446,0,0,0-1.1.478,2.321,2.321,0,0,0-.551,1.339h3.176v-.082a2.065,2.065,0,0,0-.445-1.28A1.361,1.361,0,0,0-15.041,8.834ZM-10,14.4h-1.084v-9H-10Zm5.648,0a2.277,2.277,0,0,1-.152-.668,2.419,2.419,0,0,1-1.8.785,2.238,2.238,0,0,1-1.538-.53,1.716,1.716,0,0,1-.6-1.345A1.792,1.792,0,0,1-7.7,11.1a3.55,3.55,0,0,1,2.118-.548h1.055v-.5a1.217,1.217,0,0,0-.34-.905,1.366,1.366,0,0,0-1-.337,1.581,1.581,0,0,0-.973.293.863.863,0,0,0-.393.709H-8.32A1.5,1.5,0,0,1-7.983,8.9a2.3,2.3,0,0,1,.914-.7A3.075,3.075,0,0,1-5.8,7.943a2.506,2.506,0,0,1,1.717.548A1.976,1.976,0,0,1-3.439,10v2.918a3.567,3.567,0,0,0,.223,1.389V14.4Zm-1.8-.826a1.905,1.905,0,0,0,.967-.264,1.6,1.6,0,0,0,.662-.686v-1.3h-.85q-1.992,0-1.992,1.166a.987.987,0,0,0,.34.8A1.306,1.306,0,0,0-6.152,13.574ZM-.715,8.06l.035.8a2.31,2.31,0,0,1,1.9-.914q2.01,0,2.027,2.268V14.4H2.162V10.2a1.459,1.459,0,0,0-.313-1.014,1.256,1.256,0,0,0-.958-.328,1.564,1.564,0,0,0-.926.281,1.91,1.91,0,0,0-.621.738V14.4H-1.74V8.06ZM6.352,6.525V8.06H7.535V8.9H6.352v3.937a.88.88,0,0,0,.158.572.666.666,0,0,0,.539.191,2.624,2.624,0,0,0,.516-.07V14.4a3.161,3.161,0,0,1-.832.116,1.35,1.35,0,0,1-1.1-.439,1.888,1.888,0,0,1-.369-1.248V8.9H4.113V8.06H5.268V6.525Zm5.08,7.992a2.77,2.77,0,0,1-2.1-.847,3.142,3.142,0,0,1-.809-2.265v-.2a3.8,3.8,0,0,1,.36-1.685,2.811,2.811,0,0,1,1.008-1.16,2.534,2.534,0,0,1,1.4-.419,2.374,2.374,0,0,1,1.922.814,3.526,3.526,0,0,1,.686,2.332v.451H9.609a2.254,2.254,0,0,0,.548,1.515,1.722,1.722,0,0,0,1.333.577,1.888,1.888,0,0,0,.973-.234,2.444,2.444,0,0,0,.7-.621l.662.516A2.662,2.662,0,0,1,11.432,14.517ZM11.3,8.834a1.446,1.446,0,0,0-1.1.478,2.321,2.321,0,0,0-.551,1.339H12.82v-.082a2.065,2.065,0,0,0-.445-1.28A1.361,1.361,0,0,0,11.3,8.834Zm6.926.2a3.249,3.249,0,0,0-.533-.041,1.428,1.428,0,0,0-1.447.908v4.5H15.158V8.06h1.055l.018.732a1.688,1.688,0,0,1,1.512-.85,1.107,1.107,0,0,1,.48.082Zm.592,2.139A3.745,3.745,0,0,1,19.181,9.5,2.732,2.732,0,0,1,20.2,8.347a2.775,2.775,0,0,1,1.491-.4,2.674,2.674,0,0,1,2.095.9,3.449,3.449,0,0,1,.8,2.385V11.3a3.777,3.777,0,0,1-.354,1.661,2.692,2.692,0,0,1-1.014,1.146,2.807,2.807,0,0,1-1.515.41,2.667,2.667,0,0,1-2.089-.9,3.432,3.432,0,0,1-.8-2.373Zm1.09.129a2.712,2.712,0,0,0,.489,1.693,1.658,1.658,0,0,0,2.622-.009,2.966,2.966,0,0,0,.486-1.813,2.708,2.708,0,0,0-.5-1.69,1.574,1.574,0,0,0-1.315-.647,1.557,1.557,0,0,0-1.295.639A2.944,2.944,0,0,0,19.9,11.3Z" transform="translate(-3104.244 187.97)"/>
    <line id="Línea_257" data-name="Línea 257" x2="79.933" transform="translate(-2690.778 196.096)" fill="none" stroke="#86bec4" stroke-linecap="round" stroke-linejoin="round" stroke-width="1.806" stroke-dasharray="8.101"/>
    <line id="Línea_258" data-name="Línea 258" x2="79.933" transform="translate(-3059.956 196.096)" fill="none" stroke="#86bec4" stroke-linecap="round" stroke-linejoin="round" stroke-width="1.806" stroke-dasharray="8.101"/>
    <line id="Línea_259" data-name="Línea 259" x2="57.26" transform="translate(-2680.937 462.068)" fill="none" stroke="#86bec4" stroke-linecap="round" stroke-linejoin="round" stroke-width="1.806" stroke-dasharray="8.101"/>
    <line id="Línea_262" data-name="Línea 262" x2="57.26" transform="translate(-3032.23 462.068)" fill="none" stroke="#86bec4" stroke-linecap="round" stroke-linejoin="round" stroke-width="1.806" stroke-dasharray="8.101"/>
    <line id="Línea_260" data-name="Línea 260" x2="67.791" y2="20.295" transform="translate(-2665.957 335.406)" fill="none" stroke="#86bec4" stroke-linecap="round" stroke-linejoin="round" stroke-width="1.806" stroke-dasharray="8.101"/>
    <line id="Línea_261" data-name="Línea 261" x1="51.583" y2="38.616" transform="translate(-3104.244 290.439)" fill="none" stroke="#86bec4" stroke-linecap="round" stroke-linejoin="round" stroke-width="1.806" stroke-dasharray="8.101"/>
    <g id="Grupo_55897" data-name="Grupo 55897">
      <path id="Trazado_106279" data-name="Trazado 106279" d="M-2686.708,270.749V468.041l-42.331,1.889-8.315-107.716-44.6,99.779-51.4-11.716,17.386-111.5s22.3,6.425,30.992-11.717,6.047-49.134-2.268-81.259l63.874-18.9S-2721.793,264.324-2686.708,270.749Z" fill="#fff" stroke="#8c757e" stroke-linecap="round" stroke-linejoin="round" stroke-width="2.235"/>
      <path id="Trazado_106280" data-name="Trazado 106280" d="M-2983.692,232.954V453.3h44.6l6.8-97.512,9.449,97.512,51.78,2.645,6.425-114.855s-20.41,2.225-20.41-31.412,7.559-56.315,7.559-56.315l-31.37-17.764-9.826,38.173,3.023-38.929-29.48-13.984S-2948.921,235.6-2983.692,232.954Z" transform="translate(0 9)" fill="#fff" stroke="#8c757e" stroke-linecap="round" stroke-linejoin="round" stroke-width="2.235"/>
      <path id="Trazado_106281" data-name="Trazado 106281" d="M-2660.63,234.749v21.827s-53.575-2.834-56.126-58.677l20.977-6.236S-2696.63,233.332-2660.63,234.749Z" fill="#fff" stroke="#8c757e" stroke-linecap="round" stroke-linejoin="round" stroke-width="2.235"/>
      <path id="Trazado_106282" data-name="Trazado 106282" d="M-2634.587,220.86l21.166-5.292s41.952,135.685-52.536,118.3l3.78-19.653s34.11,8.976,35.933-27.583C-2624.642,254.51-2634.587,220.86-2634.587,220.86Z" fill="#fff" stroke="#8c757e" stroke-linecap="round" stroke-linejoin="round" stroke-width="2.235"/>
      <path id="Trazado_106283" data-name="Trazado 106283" d="M-3041.392,234.466l18.992,10.205s-23.527,82.488,11.906,87.59v22.11s-34.631-4.577-41.1-36.283C-3057.266,290.315-3041.392,234.466-3041.392,234.466Z" fill="#fff" stroke="#8c757e" stroke-linecap="round" stroke-linejoin="round" stroke-width="2.235"/>
      <path id="Trazado_106284" data-name="Trazado 106284" d="M-2983.692,190.245v21.922s47.055,7.37,56.5-24.378l-20.032-8.5s-2.645,10.771-17.953,10.96S-2983.692,190.245-2983.692,190.245Z" fill="#fff" stroke="#8c757e" stroke-linecap="round" stroke-linejoin="round" stroke-width="2.235"/>
      <path id="Trazado_106285" data-name="Trazado 106285" d="M-2897.807,246.7s-18.417,49.38-9.43,78.671,24.444,34.483,34.868,37.078" transform="translate(0 9)" fill="none" stroke="#ff9696" stroke-linecap="round" stroke-linejoin="round" stroke-width="1.932" stroke-dasharray="8.664"/>
      <path id="Trazado_106286" data-name="Trazado 106286" d="M-2981.991,254.308s27.779,3.969,38.976-5.385,15.827-17.15,15.827-17.15" transform="translate(0 9)" fill="none" stroke="#ff9696" stroke-linecap="round" stroke-linejoin="round" stroke-width="1.932" stroke-dasharray="8.664"/>
      <path id="Trazado_106287" data-name="Trazado 106287" d="M-2765.89,242.4s16.63,54.236,8.693,77.858-25.322,40.252-57.637,38.362" fill="none" stroke="#ff9696" stroke-linecap="round" stroke-linejoin="round" stroke-width="1.932" stroke-dasharray="8.664"/>
      <path id="Trazado_106288" data-name="Trazado 106288" d="M-2743.212,236.167s11.905,54.8,53.1,54.425" fill="none" stroke="#ff9696" stroke-linecap="round" stroke-linejoin="round" stroke-width="1.932" stroke-dasharray="8.664"/>
    </g>
  </g>
</svg>
