<svg xmlns="http://www.w3.org/2000/svg" width="812" height="408.816" viewBox="0 0 812 408.816">
  <g id="Grupo_55886" data-name="Grupo 55886" transform="translate(2411.996 3555.523)">
    <g id="Rectángulo_5516" data-name="Rectángulo 5516">
      <rect id="Rectángulo_5516-2" data-name="Rectángulo 5516-2" width="812" height="408.816" transform="translate(-2411.996 -3555.523)" fill="#c0dee1"/>
    </g>
    <path id="Trazado_106267" data-name="Trazado 106267" d="M-1886.669-3433.276c.567-5.1,14.279-52.455,14.279-52.455l-193.429,134.616,2.835,33.419,18.708,41.224,7.758,5.948,223.454,20.154Z" fill="#fff" opacity="0.33"/>
    <g id="Grupo_55864" data-name="Grupo 55864">
      <path id="Trazado_106252" data-name="Trazado 106252" d="M-2246.009-3522.065s6.2,50.834,42.154,45.048v308.727s-77.284-3.306-84.723-5.786-50.007-20.251-60.339-19.425c0,0-1.24-45.876,12.4-75.633l-14.052-77.572,51.823-25.635-54.1,12.082,2.273-27.9s46.7.413,44.223-49.594-8.679-61.993-8.679-61.993Z" fill="#fff" stroke="#8c757e" stroke-linecap="round" stroke-linejoin="round" stroke-width="2.341"/>
      <path id="Trazado_106253" data-name="Trazado 106253" d="M-2297.665-3398.493h63.852v65.713l-31.926,15.084-31.926-13.639Z" fill="none" stroke="#8c757e" stroke-linecap="round" stroke-linejoin="round" stroke-width="2.341"/>
      <path id="Trazado_106254" data-name="Trazado 106254" d="M-2293.328-3391.467h55.175v55.532l-27.588,12.748-27.587-11.525Z" fill="none" stroke="#ff9696" stroke-linecap="round" stroke-linejoin="round" stroke-width="2.341" stroke-dasharray="6.466"/>
      <path id="Trazado_106255" data-name="Trazado 106255" d="M-2154.922-3471.741h76.045v78.259l-38.022,17.965-38.023-16.242Z" fill="#fff" stroke="#8c757e" stroke-linecap="round" stroke-linejoin="round" stroke-width="2.341"/>
      <path id="Trazado_106256" data-name="Trazado 106256" d="M-2149.754-3463.374h65.7v66.135l-32.855,15.181-32.854-13.727Z" fill="none" stroke="#ff9696" stroke-linecap="round" stroke-linejoin="round" stroke-width="2.341" stroke-dasharray="6.466"/>
      <line id="Línea_228-2" data-name="Línea 228-2" y2="295.045" transform="translate(-2211.289 -3470.818)" fill="none" stroke="#ff9696" stroke-linecap="round" stroke-linejoin="round" stroke-width="2.341" stroke-dasharray="6.466"/>
    </g>
    <circle id="Elipse_4102" data-name="Elipse 4102" cx="125.147" cy="125.147" r="125.147" transform="translate(-1938.21 -3500.664)" fill="#fff"/>
    <g id="Grupo_55868" data-name="Grupo 55868">
      <path id="Trazado_106257-2" data-name="Trazado 106257-2" d="M-1778.38-3453.046v176.574l-71.086-33.05v-143.524Z" fill="#fff" stroke="#8c757e" stroke-linecap="round" stroke-linejoin="round" stroke-width="1.723"/>
      <line id="Línea_229-3" data-name="Línea 229-3" x1="68.435" transform="translate(-1847.281 -3309.977)" fill="none" stroke="#8c757e" stroke-linecap="round" stroke-linejoin="round" stroke-width="1.723"/>
    </g>
    <g id="_6_cm" data-name=" 6 cm" style="isolation: isolate">
      <path id="Trazado_107920" data-name="Trazado 107920" d="M5.345-9.195V-8.2H5.131A3.074,3.074,0,0,0,2.96-7.4a3.361,3.361,0,0,0-.934,2.2,2.492,2.492,0,0,1,1.982-.833,2.383,2.383,0,0,1,1.915.846A3.262,3.262,0,0,1,6.639-3,3.251,3.251,0,0,1,5.866-.726,2.662,2.662,0,0,1,3.793.126,2.623,2.623,0,0,1,1.653-.887,4.014,4.014,0,0,1,.833-3.5v-.448A6.049,6.049,0,0,1,1.915-7.822,3.975,3.975,0,0,1,5.137-9.195ZM3.812-5.055a1.863,1.863,0,0,0-1.1.36,1.874,1.874,0,0,0-.7.9v.429a3.014,3.014,0,0,0,.511,1.83,1.532,1.532,0,0,0,1.275.694,1.484,1.484,0,0,0,1.24-.581,2.409,2.409,0,0,0,.451-1.521,2.41,2.41,0,0,0-.458-1.53A1.467,1.467,0,0,0,3.812-5.055ZM14.08-.827a1.682,1.682,0,0,0,1.092-.379,1.332,1.332,0,0,0,.517-.947h1.1a2.117,2.117,0,0,1-.4,1.117,2.66,2.66,0,0,1-.994.846A2.868,2.868,0,0,1,14.08.126,2.813,2.813,0,0,1,11.861-.8a3.708,3.708,0,0,1-.824-2.546v-.2A4.111,4.111,0,0,1,11.4-5.32a2.788,2.788,0,0,1,1.051-1.205,2.985,2.985,0,0,1,1.619-.429,2.739,2.739,0,0,1,1.909.688,2.458,2.458,0,0,1,.811,1.786h-1.1a1.609,1.609,0,0,0-.5-1.089A1.561,1.561,0,0,0,14.073-6a1.634,1.634,0,0,0-1.379.641A3.008,3.008,0,0,0,12.205-3.5v.221a2.948,2.948,0,0,0,.486,1.818A1.642,1.642,0,0,0,14.08-.827Zm5.124-6,.032.757a2.522,2.522,0,0,1,2.026-.884,1.952,1.952,0,0,1,1.95,1.1,2.587,2.587,0,0,1,.887-.8,2.619,2.619,0,0,1,1.291-.3q2.247,0,2.285,2.379V0H26.506V-4.506A1.568,1.568,0,0,0,26.171-5.6a1.473,1.473,0,0,0-1.123-.363,1.548,1.548,0,0,0-1.079.388,1.575,1.575,0,0,0-.5,1.044V0H22.3V-4.474a1.3,1.3,0,0,0-1.458-1.489,1.562,1.562,0,0,0-1.571.978V0H18.1V-6.828Z" transform="translate(-1827.416 -3463.161)"/>
    </g>
    <g id="_12_cm" data-name=" 12 cm" style="isolation: isolate">
      <path id="Trazado_107921" data-name="Trazado 107921" d="M4.6,0H3.427V-7.781l-2.354.865v-1.06L4.418-9.233H4.6Zm9.441,0H8.021V-.839L11.2-4.373a7.556,7.556,0,0,0,.975-1.3,2.175,2.175,0,0,0,.268-1.038,1.649,1.649,0,0,0-.435-1.18,1.523,1.523,0,0,0-1.161-.461,1.8,1.8,0,0,0-1.354.5,1.892,1.892,0,0,0-.483,1.379H7.844a2.71,2.71,0,0,1,.817-2.051,3.03,3.03,0,0,1,2.187-.783,2.911,2.911,0,0,1,2.026.672,2.293,2.293,0,0,1,.745,1.789A5.256,5.256,0,0,1,11.89-3.622L9.428-.953h4.613Zm7.3-.827a1.682,1.682,0,0,0,1.092-.379,1.332,1.332,0,0,0,.517-.947h1.1a2.117,2.117,0,0,1-.4,1.117,2.66,2.66,0,0,1-.994.846,2.868,2.868,0,0,1-1.316.316A2.813,2.813,0,0,1,19.119-.8,3.708,3.708,0,0,1,18.3-3.351v-.2a4.111,4.111,0,0,1,.366-1.773,2.788,2.788,0,0,1,1.051-1.205,2.985,2.985,0,0,1,1.619-.429,2.739,2.739,0,0,1,1.909.688,2.458,2.458,0,0,1,.811,1.786h-1.1a1.609,1.609,0,0,0-.5-1.089A1.561,1.561,0,0,0,21.331-6a1.634,1.634,0,0,0-1.379.641A3.008,3.008,0,0,0,19.463-3.5v.221a2.948,2.948,0,0,0,.486,1.818A1.642,1.642,0,0,0,21.337-.827Zm5.124-6,.032.757a2.522,2.522,0,0,1,2.026-.884,1.952,1.952,0,0,1,1.95,1.1,2.587,2.587,0,0,1,.887-.8,2.619,2.619,0,0,1,1.291-.3q2.247,0,2.285,2.379V0H33.763V-4.506A1.568,1.568,0,0,0,33.429-5.6a1.473,1.473,0,0,0-1.123-.363,1.548,1.548,0,0,0-1.079.388,1.575,1.575,0,0,0-.5,1.044V0H29.554V-4.474A1.3,1.3,0,0,0,28.1-5.964a1.562,1.562,0,0,0-1.571.978V0H25.357V-6.828Z" transform="translate(-1907.318 -3381.482)"/>
    </g>
    <g id="_2_5_cm" data-name=" 2 5 cm" style="isolation: isolate">
      <path id="Trazado_107919" data-name="Trazado 107919" d="M6.784,0H.764V-.839L3.944-4.373a7.557,7.557,0,0,0,.975-1.3,2.175,2.175,0,0,0,.268-1.038,1.649,1.649,0,0,0-.435-1.18,1.523,1.523,0,0,0-1.161-.461,1.8,1.8,0,0,0-1.354.5,1.892,1.892,0,0,0-.483,1.379H.587A2.71,2.71,0,0,1,1.4-8.532a3.03,3.03,0,0,1,2.187-.783,2.911,2.911,0,0,1,2.026.672,2.293,2.293,0,0,1,.745,1.789A5.256,5.256,0,0,1,4.632-3.622L2.171-.953H6.784ZM8.1,1.83l-.663-.454a3.045,3.045,0,0,0,.618-1.7V-1.382H9.2v.915A2.875,2.875,0,0,1,8.889.808,2.985,2.985,0,0,1,8.1,1.83Zm2.991-6.437.467-4.582H16.27V-8.11H12.552L12.275-5.6A2.965,2.965,0,0,1,13.808-6a2.535,2.535,0,0,1,1.994.83,3.252,3.252,0,0,1,.738,2.244,3.139,3.139,0,0,1-.767,2.237,2.8,2.8,0,0,1-2.143.817,2.9,2.9,0,0,1-1.988-.675,2.7,2.7,0,0,1-.877-1.868h1.1a1.854,1.854,0,0,0,.562,1.19,1.746,1.746,0,0,0,1.2.4,1.575,1.575,0,0,0,1.278-.555,2.322,2.322,0,0,0,.464-1.534,2.131,2.131,0,0,0-.5-1.48,1.707,1.707,0,0,0-1.335-.559,1.925,1.925,0,0,0-1.2.334l-.309.252Zm12.78,3.78a1.682,1.682,0,0,0,1.092-.379,1.332,1.332,0,0,0,.517-.947h1.1a2.117,2.117,0,0,1-.4,1.117,2.66,2.66,0,0,1-.994.846,2.868,2.868,0,0,1-1.316.316A2.813,2.813,0,0,1,21.656-.8a3.708,3.708,0,0,1-.824-2.546v-.2A4.111,4.111,0,0,1,21.2-5.32a2.788,2.788,0,0,1,1.051-1.205,2.985,2.985,0,0,1,1.619-.429,2.739,2.739,0,0,1,1.909.688,2.458,2.458,0,0,1,.811,1.786h-1.1a1.609,1.609,0,0,0-.5-1.089A1.561,1.561,0,0,0,23.868-6a1.634,1.634,0,0,0-1.379.641A3.008,3.008,0,0,0,22-3.5v.221a2.948,2.948,0,0,0,.486,1.818A1.642,1.642,0,0,0,23.874-.827Zm5.124-6,.032.757a2.522,2.522,0,0,1,2.026-.884,1.952,1.952,0,0,1,1.95,1.1,2.587,2.587,0,0,1,.887-.8,2.619,2.619,0,0,1,1.291-.3q2.247,0,2.285,2.379V0H36.3V-4.506A1.568,1.568,0,0,0,35.966-5.6a1.473,1.473,0,0,0-1.123-.363,1.548,1.548,0,0,0-1.079.388,1.575,1.575,0,0,0-.5,1.044V0H32.091V-4.474a1.3,1.3,0,0,0-1.458-1.489,1.562,1.562,0,0,0-1.571.978V0H27.894V-6.828Z" transform="translate(-1771.301 -3289.556)"/>
    </g>
    <line id="Línea_242" data-name="Línea 242" y1="122.034" x2="179.174" transform="translate(-2068.962 -3473.149)" fill="none" stroke="#fff" stroke-miterlimit="10" stroke-width="1"/>
    <line id="Línea_243" data-name="Línea 243" x2="215.187" y2="19.091" transform="translate(-2036.518 -3270.524)" fill="none" stroke="#fff" stroke-miterlimit="10" stroke-width="1"/>
    <path id="Trazado_106257" data-name="Trazado 106257" d="M-2036.518-3351.115v80.591l-32.444-15.085v-65.506Z" fill="#fff" stroke="#8c757e" stroke-linecap="round" stroke-linejoin="round" stroke-width="2.341"/>
    <line id="Línea_229-2" data-name="Línea 229-2" x1="30.414" transform="translate(-2067.966 -3285.816)" fill="none" stroke="#8c757e" stroke-linecap="round" stroke-linejoin="round" stroke-width="2.341"/>
  </g>
</svg>
