<svg xmlns="http://www.w3.org/2000/svg" width="812" height="408.816" viewBox="0 0 812 408.816">
  <g id="Grupo_55885" data-name="Grupo 55885" transform="translate(2411.996 2574.579)">
    <g id="Rectángulo_5516" data-name="Rectángulo 5516">
      <rect id="Rectángulo_5516-2" data-name="Rectángulo 5516-2" width="812" height="408.816" transform="translate(-2411.996 -2574.579)" fill="#c0dee1"/>
    </g>
    <path id="Trazado_106258" data-name="Trazado 106258" d="M-2339.35-2224.476s-16.827-101.738-32.35-121.429c0,0,42.664-3.751,45.477-46.884s11.721-110.645,11.721-110.645,89.079-1.876,108.3-4.22,69.856-9.846,69.856-9.846,22.5,60.949,25.318,81.109-12.19,202.538-14.534,209.1" fill="#fff" stroke="#8c757e" stroke-linecap="round" stroke-linejoin="round" stroke-width="2.235"/>
    <path id="Trazado_106259" data-name="Trazado 106259" d="M-2317.315-2450.69s34.108,1.055,45.009,13.713,20.746,50.635,41.14,60.129,88.259,4.571,113.224-9.494" fill="none" stroke="#ff9696" stroke-linecap="round" stroke-linejoin="round" stroke-width="2.235" stroke-dasharray="7.443"/>
    <path id="Trazado_106260" data-name="Trazado 106260" d="M-2256.307-2501.149s-4.044,52.041,50.458,64.348,91.424,9.846,91.424,9.846" fill="none" stroke="#ff9696" stroke-linecap="round" stroke-linejoin="round" stroke-width="2.235" stroke-dasharray="7.443"/>
    <path id="Trazado_106261" data-name="Trazado 106261" d="M-2232.924-2503.083s-2.989,29.713,24.79,36.218,85.094,1.582,85.094,1.582" fill="none" stroke="#ff9696" stroke-linecap="round" stroke-linejoin="round" stroke-width="2.235" stroke-dasharray="7.443"/>
    <path id="Trazado_106262" data-name="Trazado 106262" d="M-2124.623-2473.019s-39.03,5.626-64.7,0-32.35-6.153-37.449-30.064" fill="none" stroke="#636363" stroke-linecap="round" stroke-linejoin="round" stroke-width="2.235" stroke-dasharray="7.443"/>
    <path id="Trazado_106263" data-name="Trazado 106263" d="M-2048.228-2540.642l-5.663,48.314s38.38.133,46.56,15.863,13.842,49.077,42.784,54.739,96.9-14.156,96.9-14.156-2.2-63.681-6.921-74.154c0,0-65.435,8.911-79.277-3.14a46.108,46.108,0,0,1-15.416-27.466Z" fill="#fff" stroke="#8c757e" stroke-linecap="round" stroke-linejoin="round" stroke-width="2"/>
    <path id="Trazado_106264" data-name="Trazado 106264" d="M-2031.315-2376.317l-6.292,47.818s46.56-1.259,54.949,27.684,27.16,42.05,44.148,42.994,81.165-7.865,88.715-16.044v-40.582s-13.527-67.953-19.19-72.357S-1931.9-2373.8-2031.315-2376.317Z" fill="#fff" stroke="#8c757e" stroke-linecap="round" stroke-linejoin="round" stroke-width="2"/>
    <path id="Trazado_106265" data-name="Trazado 106265" d="M-1773.578-2482.252h27.055s-6.607,28.942,15.73,30.2,62.289,2.831,62.289,2.831v37.122l-55.683-1.573s-46.245.944-47.818-38.066Z" fill="#fff" stroke="#8c757e" stroke-linecap="round" stroke-linejoin="round" stroke-width="2"/>
    <path id="Trazado_106266" data-name="Trazado 106266" d="M-1668.5-2367.739s12.9,39.954,14.786,44.987,6.606,34.6,6.606,34.6-129.927,19.338-129.612-70.709C-1776.724-2358.856-1688.953-2356.1-1668.5-2367.739Z" fill="#fff" stroke="#8c757e" stroke-linecap="round" stroke-linejoin="round" stroke-width="2"/>
    <g id="_2_5_cm" data-name=" 2 5 cm">
      <g id="Grupo_55878" data-name="Grupo 55878">
        <path id="Trazado_107931" data-name="Trazado 107931" d="M1.238,0V-10.664h3.01a4.846,4.846,0,0,1,2.461.615A4.161,4.161,0,0,1,8.361-8.3a5.7,5.7,0,0,1,.59,2.607v.681a5.718,5.718,0,0,1-.582,2.644A4.1,4.1,0,0,1,6.705-.623,5.155,5.155,0,0,1,4.189,0ZM2.644-9.514V-1.15H4.124A3.219,3.219,0,0,0,6.654-2.162a4.18,4.18,0,0,0,.9-2.881v-.623a4.246,4.246,0,0,0-.853-2.826A3.036,3.036,0,0,0,4.285-9.514ZM14.15.146A3.463,3.463,0,0,1,11.528-.912a3.928,3.928,0,0,1-1.011-2.831v-.249a4.756,4.756,0,0,1,.45-2.106,3.514,3.514,0,0,1,1.26-1.45,3.167,3.167,0,0,1,1.754-.524,2.968,2.968,0,0,1,2.4,1.018,4.408,4.408,0,0,1,.857,2.915v.564H11.873a2.817,2.817,0,0,0,.685,1.893,2.153,2.153,0,0,0,1.666.721,2.36,2.36,0,0,0,1.216-.293,3.055,3.055,0,0,0,.872-.776l.828.645A3.328,3.328,0,0,1,14.15.146Zm-.168-7.1a1.807,1.807,0,0,0-1.377.6,2.9,2.9,0,0,0-.688,1.674h3.97v-.1a2.581,2.581,0,0,0-.557-1.6A1.7,1.7,0,0,0,13.982-6.958ZM20.281,0H18.926V-11.25h1.355Zm7.061,0a2.846,2.846,0,0,1-.19-.835A3.023,3.023,0,0,1,24.9.146a2.8,2.8,0,0,1-1.923-.663A2.145,2.145,0,0,1,22.222-2.2a2.24,2.24,0,0,1,.941-1.923A4.437,4.437,0,0,1,25.811-4.8h1.318v-.623A1.522,1.522,0,0,0,26.7-6.559a1.707,1.707,0,0,0-1.252-.421,1.976,1.976,0,0,0-1.216.366,1.079,1.079,0,0,0-.491.886H22.383A1.87,1.87,0,0,1,22.8-6.874a2.874,2.874,0,0,1,1.143-.875,3.844,3.844,0,0,1,1.586-.322,3.133,3.133,0,0,1,2.146.685A2.47,2.47,0,0,1,28.484-5.5v3.647a4.459,4.459,0,0,0,.278,1.736V0ZM25.093-1.033a2.381,2.381,0,0,0,1.208-.33,1.994,1.994,0,0,0,.828-.857V-3.845H26.067q-2.49,0-2.49,1.458a1.234,1.234,0,0,0,.425,1A1.633,1.633,0,0,0,25.093-1.033Zm6.8-6.892.044,1a2.888,2.888,0,0,1,2.373-1.143q2.512,0,2.534,2.834V0H35.486V-5.244a1.824,1.824,0,0,0-.392-1.267,1.57,1.57,0,0,0-1.2-.41,1.956,1.956,0,0,0-1.157.352,2.387,2.387,0,0,0-.776.923V0H30.608V-7.925Zm8.833-1.919v1.919H42.2v1.047H40.723v4.921a1.1,1.1,0,0,0,.2.715A.832.832,0,0,0,41.594-1a3.281,3.281,0,0,0,.645-.088V0A3.951,3.951,0,0,1,41.2.146,1.687,1.687,0,0,1,39.829-.4a2.36,2.36,0,0,1-.461-1.56V-6.877H37.925V-7.925h1.443V-9.844Zm6.35,9.99A3.463,3.463,0,0,1,44.451-.912,3.928,3.928,0,0,1,43.44-3.743v-.249A4.756,4.756,0,0,1,43.89-6.1a3.514,3.514,0,0,1,1.26-1.45A3.167,3.167,0,0,1,46.9-8.071a2.968,2.968,0,0,1,2.4,1.018,4.408,4.408,0,0,1,.857,2.915v.564H44.795a2.817,2.817,0,0,0,.685,1.893,2.153,2.153,0,0,0,1.666.721,2.36,2.36,0,0,0,1.216-.293,3.055,3.055,0,0,0,.872-.776l.828.645A3.328,3.328,0,0,1,47.073.146Zm-.168-7.1a1.807,1.807,0,0,0-1.377.6,2.9,2.9,0,0,0-.688,1.674h3.97v-.1a2.581,2.581,0,0,0-.557-1.6A1.7,1.7,0,0,0,46.9-6.958Zm8.657.249A4.061,4.061,0,0,0,54.9-6.76a1.786,1.786,0,0,0-1.809,1.135V0H51.731V-7.925h1.318l.022.916a2.11,2.11,0,0,1,1.89-1.062,1.384,1.384,0,0,1,.6.1Zm.74,2.673a4.681,4.681,0,0,1,.458-2.095,3.415,3.415,0,0,1,1.274-1.436A3.469,3.469,0,0,1,59.9-8.071a3.342,3.342,0,0,1,2.618,1.121,4.311,4.311,0,0,1,1,2.981v.1A4.722,4.722,0,0,1,63.073-1.8,3.365,3.365,0,0,1,61.805-.366a3.509,3.509,0,0,1-1.893.513A3.334,3.334,0,0,1,57.3-.974a4.29,4.29,0,0,1-1-2.966Zm1.362.161a3.39,3.39,0,0,0,.612,2.117,1.957,1.957,0,0,0,1.637.8,1.945,1.945,0,0,0,1.641-.809,3.707,3.707,0,0,0,.608-2.267,3.384,3.384,0,0,0-.619-2.113A1.968,1.968,0,0,0,59.9-6.958a1.946,1.946,0,0,0-1.619.8A3.68,3.68,0,0,0,57.664-3.875Z" transform="translate(-2262.149 -2322.636)"/>
      </g>
    </g>
    <g id="_2_5_cm-2" data-name=" 2 5 cm">
      <g id="Grupo_55879" data-name="Grupo 55879">
        <path id="Trazado_107929" data-name="Trazado 107929" d="M1.238,0V-10.664H4.724a4.047,4.047,0,0,1,2.611.718A2.587,2.587,0,0,1,8.21-7.822,2.166,2.166,0,0,1,7.786-6.5a2.754,2.754,0,0,1-1.157.89,2.473,2.473,0,0,1,1.366.919,2.638,2.638,0,0,1,.5,1.615A2.852,2.852,0,0,1,7.566-.82,3.847,3.847,0,0,1,4.937,0ZM2.644-4.988V-1.15H4.966a2.236,2.236,0,0,0,1.549-.509,1.788,1.788,0,0,0,.568-1.4q0-1.926-2.095-1.926Zm0-1.128H4.768a2.226,2.226,0,0,0,1.476-.462A1.55,1.55,0,0,0,6.8-7.833a1.524,1.524,0,0,0-.513-1.281,2.518,2.518,0,0,0-1.56-.4H2.644ZM10-4.036a4.681,4.681,0,0,1,.458-2.095,3.415,3.415,0,0,1,1.274-1.436A3.469,3.469,0,0,1,13.6-8.071a3.342,3.342,0,0,1,2.618,1.121,4.311,4.311,0,0,1,1,2.981v.1A4.722,4.722,0,0,1,16.776-1.8,3.365,3.365,0,0,1,15.509-.366a3.509,3.509,0,0,1-1.893.513A3.334,3.334,0,0,1,11-.974,4.29,4.29,0,0,1,10-3.94Zm1.362.161a3.39,3.39,0,0,0,.612,2.117,1.957,1.957,0,0,0,1.637.8,1.945,1.945,0,0,0,1.641-.809,3.707,3.707,0,0,0,.608-2.267,3.384,3.384,0,0,0-.619-2.113A1.968,1.968,0,0,0,13.6-6.958a1.946,1.946,0,0,0-1.619.8A3.68,3.68,0,0,0,11.367-3.875ZM20.391,0H19.036V-11.25h1.355Zm6.782-2.1a1,1,0,0,0-.414-.853,3.983,3.983,0,0,0-1.443-.524,6.822,6.822,0,0,1-1.633-.527,2.324,2.324,0,0,1-.894-.732A1.752,1.752,0,0,1,22.5-5.75,2.056,2.056,0,0,1,23.324-7.4a3.218,3.218,0,0,1,2.106-.674,3.311,3.311,0,0,1,2.186.7,2.21,2.21,0,0,1,.839,1.78H27.092a1.223,1.223,0,0,0-.472-.959,1.77,1.77,0,0,0-1.19-.4,1.852,1.852,0,0,0-1.157.322,1.014,1.014,0,0,0-.417.842.822.822,0,0,0,.388.74,4.776,4.776,0,0,0,1.4.476,7.308,7.308,0,0,1,1.644.542,2.4,2.4,0,0,1,.934.758,1.864,1.864,0,0,1,.3,1.08,2.028,2.028,0,0,1-.85,1.7,3.564,3.564,0,0,1-2.2.641A3.991,3.991,0,0,1,23.789-.19a2.74,2.74,0,0,1-1.146-.941,2.268,2.268,0,0,1-.414-1.307h1.355a1.4,1.4,0,0,0,.546,1.08,2.117,2.117,0,0,0,1.344.4,2.185,2.185,0,0,0,1.234-.311A.956.956,0,0,0,27.173-2.1ZM31.765,0H30.41V-7.925h1.355ZM30.3-10.027a.809.809,0,0,1,.2-.557.756.756,0,0,1,.6-.227.768.768,0,0,1,.6.227.8.8,0,0,1,.205.557.774.774,0,0,1-.205.549.782.782,0,0,1-.6.22.77.77,0,0,1-.6-.22A.782.782,0,0,1,30.3-10.027ZM35.405,0H34.05V-11.25h1.355Zm3.64,0H37.69V-11.25h1.355Zm1.809-4.036a4.681,4.681,0,0,1,.458-2.095,3.415,3.415,0,0,1,1.274-1.436,3.469,3.469,0,0,1,1.864-.505,3.342,3.342,0,0,1,2.618,1.121,4.311,4.311,0,0,1,1,2.981v.1A4.722,4.722,0,0,1,47.626-1.8,3.365,3.365,0,0,1,46.359-.366a3.509,3.509,0,0,1-1.893.513A3.334,3.334,0,0,1,41.854-.974a4.29,4.29,0,0,1-1-2.966Zm1.362.161a3.39,3.39,0,0,0,.612,2.117,1.957,1.957,0,0,0,1.637.8,1.945,1.945,0,0,0,1.641-.809,3.707,3.707,0,0,0,.608-2.267,3.384,3.384,0,0,0-.619-2.113,1.968,1.968,0,0,0-1.644-.809,1.946,1.946,0,0,0-1.619.8A3.68,3.68,0,0,0,42.217-3.875Zm12.539-4.05.037.879a2.927,2.927,0,0,1,2.351-1.025A2.266,2.266,0,0,1,59.407-6.8a3,3,0,0,1,1.029-.923,3.039,3.039,0,0,1,1.5-.352q2.607,0,2.651,2.761V0H63.23V-5.229A1.82,1.82,0,0,0,62.842-6.5a1.71,1.71,0,0,0-1.3-.421,1.8,1.8,0,0,0-1.252.45,1.827,1.827,0,0,0-.579,1.212V0H58.345V-5.193a1.512,1.512,0,0,0-1.692-1.729,1.813,1.813,0,0,0-1.824,1.135V0H53.474V-7.925ZM69.917.146A3.463,3.463,0,0,1,67.295-.912a3.928,3.928,0,0,1-1.011-2.831v-.249a4.756,4.756,0,0,1,.45-2.106,3.514,3.514,0,0,1,1.26-1.45,3.167,3.167,0,0,1,1.754-.524,2.968,2.968,0,0,1,2.4,1.018,4.408,4.408,0,0,1,.857,2.915v.564H67.639a2.817,2.817,0,0,0,.685,1.893,2.153,2.153,0,0,0,1.666.721,2.36,2.36,0,0,0,1.216-.293,3.055,3.055,0,0,0,.872-.776l.828.645A3.328,3.328,0,0,1,69.917.146Zm-.168-7.1a1.807,1.807,0,0,0-1.377.6,2.9,2.9,0,0,0-.688,1.674h3.97v-.1a2.581,2.581,0,0,0-.557-1.6A1.7,1.7,0,0,0,69.749-6.958Zm6.108-.967.044,1a2.888,2.888,0,0,1,2.373-1.143q2.512,0,2.534,2.834V0H79.453V-5.244a1.824,1.824,0,0,0-.392-1.267,1.57,1.57,0,0,0-1.2-.41,1.956,1.956,0,0,0-1.157.352,2.387,2.387,0,0,0-.776.923V0H74.575V-7.925Zm6.636,3.889A4.681,4.681,0,0,1,82.95-6.13a3.415,3.415,0,0,1,1.274-1.436,3.469,3.469,0,0,1,1.864-.505,3.342,3.342,0,0,1,2.618,1.121,4.311,4.311,0,0,1,1,2.981v.1A4.722,4.722,0,0,1,89.264-1.8,3.365,3.365,0,0,1,88-.366,3.509,3.509,0,0,1,86.1.146,3.334,3.334,0,0,1,83.492-.974a4.29,4.29,0,0,1-1-2.966Zm1.362.161a3.39,3.39,0,0,0,.612,2.117,1.957,1.957,0,0,0,1.637.8,1.945,1.945,0,0,0,1.641-.809,3.707,3.707,0,0,0,.608-2.267,3.384,3.384,0,0,0-.619-2.113,1.968,1.968,0,0,0-1.644-.809,1.946,1.946,0,0,0-1.619.8A3.68,3.68,0,0,0,83.855-3.875ZM95.237-6.709a4.061,4.061,0,0,0-.667-.051,1.786,1.786,0,0,0-1.809,1.135V0H91.406V-7.925h1.318l.022.916a2.11,2.11,0,0,1,1.89-1.062,1.384,1.384,0,0,1,.6.1Z" transform="translate(-1949.903 -2526.756)"/>
      </g>
    </g>
    <g id="_2_5_cm-3" data-name=" 2 5 cm">
      <g id="Grupo_55880" data-name="Grupo 55880">
        <path id="Trazado_107932" data-name="Trazado 107932" d="M5.339,0H3.977V-9.031l-2.732,1v-1.23l3.882-1.458h.212Zm8.423,0H12.4V-9.031l-2.732,1v-1.23l3.882-1.458h.212Zm11-.959A1.952,1.952,0,0,0,26.03-1.4a1.546,1.546,0,0,0,.6-1.1h1.282a2.457,2.457,0,0,1-.469,1.3A3.087,3.087,0,0,1,26.29-.22a3.329,3.329,0,0,1-1.527.366,3.265,3.265,0,0,1-2.574-1.08,4.3,4.3,0,0,1-.956-2.955v-.227a4.771,4.771,0,0,1,.425-2.058,3.236,3.236,0,0,1,1.219-1.4,3.464,3.464,0,0,1,1.879-.5,3.178,3.178,0,0,1,2.216.8A2.853,2.853,0,0,1,27.913-5.2H26.631a1.867,1.867,0,0,0-.582-1.263,1.811,1.811,0,0,0-1.293-.494,1.9,1.9,0,0,0-1.6.743,3.491,3.491,0,0,0-.568,2.15v.256A3.422,3.422,0,0,0,23.152-1.7,1.906,1.906,0,0,0,24.763-.959ZM30.71-7.925l.037.879A2.927,2.927,0,0,1,33.1-8.071,2.266,2.266,0,0,1,35.361-6.8,3,3,0,0,1,36.39-7.72a3.039,3.039,0,0,1,1.5-.352q2.607,0,2.651,2.761V0H39.185V-5.229A1.82,1.82,0,0,0,38.8-6.5a1.71,1.71,0,0,0-1.3-.421,1.8,1.8,0,0,0-1.252.45,1.827,1.827,0,0,0-.579,1.212V0H34.3V-5.193a1.512,1.512,0,0,0-1.692-1.729,1.813,1.813,0,0,0-1.824,1.135V0H29.429V-7.925Z" transform="translate(-2207.423 -2520.095)"/>
      </g>
    </g>
    <g id="_2_5_cm-4" data-name=" 2 5 cm">
      <g id="Grupo_55881" data-name="Grupo 55881">
        <path id="Trazado_107933" data-name="Trazado 107933" d="M1.509-5.347l.542-5.317H7.515v1.252H3.2L2.878-6.5a3.441,3.441,0,0,1,1.78-.461A2.942,2.942,0,0,1,6.973-6,3.775,3.775,0,0,1,7.83-3.4,3.643,3.643,0,0,1,6.94-.8,3.243,3.243,0,0,1,4.453.146,3.371,3.371,0,0,1,2.146-.637,3.128,3.128,0,0,1,1.128-2.805H2.41a2.152,2.152,0,0,0,.652,1.381,2.027,2.027,0,0,0,1.392.465A1.828,1.828,0,0,0,5.936-1.6a2.694,2.694,0,0,0,.538-1.78A2.473,2.473,0,0,0,5.892-5.1,1.981,1.981,0,0,0,4.343-5.75a2.234,2.234,0,0,0-1.392.388l-.359.293ZM9.4,2.124,8.635,1.6A3.534,3.534,0,0,0,9.353-.381V-1.6h1.326V-.542A3.336,3.336,0,0,1,10.316.938,3.464,3.464,0,0,1,9.4,2.124Zm3.472-7.471.542-5.317h5.464v1.252H14.568L14.246-6.5a3.441,3.441,0,0,1,1.78-.461A2.942,2.942,0,0,1,18.34-6,3.775,3.775,0,0,1,19.2-3.4a3.643,3.643,0,0,1-.89,2.6A3.243,3.243,0,0,1,15.82.146a3.371,3.371,0,0,1-2.307-.784A3.128,3.128,0,0,1,12.5-2.805h1.282a2.152,2.152,0,0,0,.652,1.381,2.027,2.027,0,0,0,1.392.465A1.828,1.828,0,0,0,17.3-1.6a2.694,2.694,0,0,0,.538-1.78A2.473,2.473,0,0,0,17.26-5.1,1.981,1.981,0,0,0,15.71-5.75a2.234,2.234,0,0,0-1.392.388l-.359.293ZM27.708-.959A1.952,1.952,0,0,0,28.975-1.4a1.546,1.546,0,0,0,.6-1.1h1.282a2.457,2.457,0,0,1-.469,1.3,3.087,3.087,0,0,1-1.154.981,3.329,3.329,0,0,1-1.527.366,3.265,3.265,0,0,1-2.574-1.08,4.3,4.3,0,0,1-.956-2.955v-.227A4.771,4.771,0,0,1,24.6-6.174a3.236,3.236,0,0,1,1.219-1.4,3.464,3.464,0,0,1,1.879-.5,3.178,3.178,0,0,1,2.216.8A2.853,2.853,0,0,1,30.857-5.2H29.575a1.867,1.867,0,0,0-.582-1.263A1.811,1.811,0,0,0,27.7-6.958a1.9,1.9,0,0,0-1.6.743,3.491,3.491,0,0,0-.568,2.15v.256A3.422,3.422,0,0,0,26.1-1.7,1.906,1.906,0,0,0,27.708-.959Zm5.947-6.965.037.879a2.927,2.927,0,0,1,2.351-1.025A2.266,2.266,0,0,1,38.306-6.8a3,3,0,0,1,1.029-.923,3.039,3.039,0,0,1,1.5-.352q2.607,0,2.651,2.761V0H42.129V-5.229A1.82,1.82,0,0,0,41.741-6.5a1.71,1.71,0,0,0-1.3-.421,1.8,1.8,0,0,0-1.252.45,1.827,1.827,0,0,0-.579,1.212V0H37.244V-5.193a1.512,1.512,0,0,0-1.692-1.729,1.813,1.813,0,0,0-1.824,1.135V0H32.373V-7.925Z" transform="translate(-2123.041 -2494.441)"/>
      </g>
    </g>
    <g id="_2_5_cm-5" data-name=" 2 5 cm">
      <g id="Grupo_55882" data-name="Grupo 55882">
        <path id="Trazado_107930" data-name="Trazado 107930" d="M1.238,0V-10.664H4.724a4.047,4.047,0,0,1,2.611.718A2.587,2.587,0,0,1,8.21-7.822,2.166,2.166,0,0,1,7.786-6.5a2.754,2.754,0,0,1-1.157.89,2.473,2.473,0,0,1,1.366.919,2.638,2.638,0,0,1,.5,1.615A2.852,2.852,0,0,1,7.566-.82,3.847,3.847,0,0,1,4.937,0ZM2.644-4.988V-1.15H4.966a2.236,2.236,0,0,0,1.549-.509,1.788,1.788,0,0,0,.568-1.4q0-1.926-2.095-1.926Zm0-1.128H4.768a2.226,2.226,0,0,0,1.476-.462A1.55,1.55,0,0,0,6.8-7.833a1.524,1.524,0,0,0-.513-1.281,2.518,2.518,0,0,0-1.56-.4H2.644ZM10-4.036a4.681,4.681,0,0,1,.458-2.095,3.415,3.415,0,0,1,1.274-1.436A3.469,3.469,0,0,1,13.6-8.071a3.342,3.342,0,0,1,2.618,1.121,4.311,4.311,0,0,1,1,2.981v.1A4.722,4.722,0,0,1,16.776-1.8,3.365,3.365,0,0,1,15.509-.366a3.509,3.509,0,0,1-1.893.513A3.334,3.334,0,0,1,11-.974,4.29,4.29,0,0,1,10-3.94Zm1.362.161a3.39,3.39,0,0,0,.612,2.117,1.957,1.957,0,0,0,1.637.8,1.945,1.945,0,0,0,1.641-.809,3.707,3.707,0,0,0,.608-2.267,3.384,3.384,0,0,0-.619-2.113A1.968,1.968,0,0,0,13.6-6.958a1.946,1.946,0,0,0-1.619.8A3.68,3.68,0,0,0,11.367-3.875ZM20.391,0H19.036V-11.25h1.355Zm6.782-2.1a1,1,0,0,0-.414-.853,3.983,3.983,0,0,0-1.443-.524,6.822,6.822,0,0,1-1.633-.527,2.324,2.324,0,0,1-.894-.732A1.752,1.752,0,0,1,22.5-5.75,2.056,2.056,0,0,1,23.324-7.4a3.218,3.218,0,0,1,2.106-.674,3.311,3.311,0,0,1,2.186.7,2.21,2.21,0,0,1,.839,1.78H27.092a1.223,1.223,0,0,0-.472-.959,1.77,1.77,0,0,0-1.19-.4,1.852,1.852,0,0,0-1.157.322,1.014,1.014,0,0,0-.417.842.822.822,0,0,0,.388.74,4.776,4.776,0,0,0,1.4.476,7.308,7.308,0,0,1,1.644.542,2.4,2.4,0,0,1,.934.758,1.864,1.864,0,0,1,.3,1.08,2.028,2.028,0,0,1-.85,1.7,3.564,3.564,0,0,1-2.2.641A3.991,3.991,0,0,1,23.789-.19a2.74,2.74,0,0,1-1.146-.941,2.268,2.268,0,0,1-.414-1.307h1.355a1.4,1.4,0,0,0,.546,1.08,2.117,2.117,0,0,0,1.344.4,2.185,2.185,0,0,0,1.234-.311A.956.956,0,0,0,27.173-2.1ZM31.765,0H30.41V-7.925h1.355ZM30.3-10.027a.809.809,0,0,1,.2-.557.756.756,0,0,1,.6-.227.768.768,0,0,1,.6.227.8.8,0,0,1,.205.557.774.774,0,0,1-.205.549.782.782,0,0,1-.6.22.77.77,0,0,1-.6-.22A.782.782,0,0,1,30.3-10.027ZM35.405,0H34.05V-11.25h1.355Zm3.64,0H37.69V-11.25h1.355Zm1.809-4.036a4.681,4.681,0,0,1,.458-2.095,3.415,3.415,0,0,1,1.274-1.436,3.469,3.469,0,0,1,1.864-.505,3.342,3.342,0,0,1,2.618,1.121,4.311,4.311,0,0,1,1,2.981v.1A4.722,4.722,0,0,1,47.626-1.8,3.365,3.365,0,0,1,46.359-.366a3.509,3.509,0,0,1-1.893.513A3.334,3.334,0,0,1,41.854-.974a4.29,4.29,0,0,1-1-2.966Zm1.362.161a3.39,3.39,0,0,0,.612,2.117,1.957,1.957,0,0,0,1.637.8,1.945,1.945,0,0,0,1.641-.809,3.707,3.707,0,0,0,.608-2.267,3.384,3.384,0,0,0-.619-2.113,1.968,1.968,0,0,0-1.644-.809,1.946,1.946,0,0,0-1.619.8A3.68,3.68,0,0,0,42.217-3.875Zm12.539-4.05.037.879a2.927,2.927,0,0,1,2.351-1.025A2.266,2.266,0,0,1,59.407-6.8a3,3,0,0,1,1.029-.923,3.039,3.039,0,0,1,1.5-.352q2.607,0,2.651,2.761V0H63.23V-5.229A1.82,1.82,0,0,0,62.842-6.5a1.71,1.71,0,0,0-1.3-.421,1.8,1.8,0,0,0-1.252.45,1.827,1.827,0,0,0-.579,1.212V0H58.345V-5.193a1.512,1.512,0,0,0-1.692-1.729,1.813,1.813,0,0,0-1.824,1.135V0H53.474V-7.925ZM71.521,0a2.846,2.846,0,0,1-.19-.835,3.023,3.023,0,0,1-2.256.981,2.8,2.8,0,0,1-1.923-.663A2.145,2.145,0,0,1,66.4-2.2a2.24,2.24,0,0,1,.941-1.923A4.437,4.437,0,0,1,69.99-4.8h1.318v-.623a1.522,1.522,0,0,0-.425-1.132,1.707,1.707,0,0,0-1.252-.421,1.976,1.976,0,0,0-1.216.366,1.079,1.079,0,0,0-.491.886H66.563a1.87,1.87,0,0,1,.421-1.146,2.874,2.874,0,0,1,1.143-.875,3.844,3.844,0,0,1,1.586-.322,3.133,3.133,0,0,1,2.146.685A2.47,2.47,0,0,1,72.664-5.5v3.647a4.459,4.459,0,0,0,.278,1.736V0ZM69.272-1.033a2.381,2.381,0,0,0,1.208-.33,1.994,1.994,0,0,0,.828-.857V-3.845H70.247q-2.49,0-2.49,1.458a1.234,1.234,0,0,0,.425,1A1.633,1.633,0,0,0,69.272-1.033Zm8.108-.952,1.846-5.94h1.45L77.49,1.223Q76.75,3.2,75.139,3.2l-.256-.022-.505-.1v-1.1l.366.029a1.8,1.8,0,0,0,1.073-.278A2.014,2.014,0,0,0,76.45.718l.3-.806L73.923-7.925H75.4Zm4.146-2.051a4.681,4.681,0,0,1,.458-2.095,3.415,3.415,0,0,1,1.274-1.436,3.469,3.469,0,0,1,1.864-.505A3.342,3.342,0,0,1,87.74-6.951a4.311,4.311,0,0,1,1,2.981v.1A4.722,4.722,0,0,1,88.3-1.8,3.365,3.365,0,0,1,87.03-.366a3.509,3.509,0,0,1-1.893.513A3.334,3.334,0,0,1,82.526-.974a4.29,4.29,0,0,1-1-2.966Zm1.362.161A3.39,3.39,0,0,0,83.5-1.758a1.957,1.957,0,0,0,1.637.8,1.945,1.945,0,0,0,1.641-.809,3.707,3.707,0,0,0,.608-2.267,3.384,3.384,0,0,0-.619-2.113,1.968,1.968,0,0,0-1.644-.809,1.946,1.946,0,0,0-1.619.8A3.68,3.68,0,0,0,82.888-3.875ZM94.27-6.709A4.061,4.061,0,0,0,93.6-6.76a1.786,1.786,0,0,0-1.809,1.135V0H90.439V-7.925h1.318l.022.916a2.11,2.11,0,0,1,1.89-1.062,1.384,1.384,0,0,1,.6.1Z" transform="translate(-1948.665 -2396.928)"/>
      </g>
    </g>
    <g id="_2_5_cm-6" data-name=" 2 5 cm">
      <g id="Grupo_55883" data-name="Grupo 55883">
        <path id="Trazado_107927" data-name="Trazado 107927" d="M4.768-1.868l3.047-8.8H9.353L5.4,0H4.153L.205-10.664H1.736ZM12.041,0H10.686V-7.925h1.355ZM10.576-10.027a.809.809,0,0,1,.2-.557.756.756,0,0,1,.6-.227.768.768,0,0,1,.6.227.8.8,0,0,1,.205.557.774.774,0,0,1-.205.549.782.782,0,0,1-.6.22.77.77,0,0,1-.6-.22A.782.782,0,0,1,10.576-10.027ZM18.823-2.1a1,1,0,0,0-.414-.853,3.983,3.983,0,0,0-1.443-.524,6.822,6.822,0,0,1-1.633-.527,2.324,2.324,0,0,1-.894-.732A1.752,1.752,0,0,1,14.15-5.75,2.056,2.056,0,0,1,14.974-7.4a3.218,3.218,0,0,1,2.106-.674,3.311,3.311,0,0,1,2.186.7A2.21,2.21,0,0,1,20.1-5.6H18.743a1.223,1.223,0,0,0-.472-.959,1.77,1.77,0,0,0-1.19-.4,1.852,1.852,0,0,0-1.157.322,1.014,1.014,0,0,0-.417.842.822.822,0,0,0,.388.74,4.776,4.776,0,0,0,1.4.476,7.308,7.308,0,0,1,1.644.542,2.4,2.4,0,0,1,.934.758,1.864,1.864,0,0,1,.3,1.08,2.028,2.028,0,0,1-.85,1.7,3.564,3.564,0,0,1-2.2.641A3.991,3.991,0,0,1,15.439-.19a2.74,2.74,0,0,1-1.146-.941,2.268,2.268,0,0,1-.414-1.307h1.355a1.4,1.4,0,0,0,.546,1.08,2.117,2.117,0,0,0,1.344.4,2.185,2.185,0,0,0,1.234-.311A.956.956,0,0,0,18.823-2.1Zm4.958-7.742v1.919h1.479v1.047H23.782v4.921a1.1,1.1,0,0,0,.2.715A.832.832,0,0,0,24.653-1a3.281,3.281,0,0,0,.645-.088V0a3.951,3.951,0,0,1-1.04.146A1.687,1.687,0,0,1,22.888-.4a2.36,2.36,0,0,1-.461-1.56V-6.877H20.984V-7.925h1.443V-9.844ZM31.736,0a2.846,2.846,0,0,1-.19-.835A3.023,3.023,0,0,1,29.29.146a2.8,2.8,0,0,1-1.923-.663A2.145,2.145,0,0,1,26.616-2.2a2.24,2.24,0,0,1,.941-1.923A4.437,4.437,0,0,1,30.205-4.8h1.318v-.623A1.522,1.522,0,0,0,31.1-6.559a1.707,1.707,0,0,0-1.252-.421,1.976,1.976,0,0,0-1.216.366,1.079,1.079,0,0,0-.491.886H26.777A1.87,1.87,0,0,1,27.2-6.874a2.874,2.874,0,0,1,1.143-.875,3.844,3.844,0,0,1,1.586-.322,3.133,3.133,0,0,1,2.146.685A2.47,2.47,0,0,1,32.878-5.5v3.647a4.459,4.459,0,0,0,.278,1.736V0ZM29.487-1.033a2.381,2.381,0,0,0,1.208-.33,1.994,1.994,0,0,0,.828-.857V-3.845H30.461q-2.49,0-2.49,1.458a1.234,1.234,0,0,0,.425,1A1.633,1.633,0,0,0,29.487-1.033Z" transform="translate(-1731.647 -2373.21)"/>
      </g>
    </g>
    <g id="_2_5_cm-7" data-name=" 2 5 cm">
      <g id="Grupo_55884" data-name="Grupo 55884">
        <path id="Trazado_107928" data-name="Trazado 107928" d="M4.768-1.868l3.047-8.8H9.353L5.4,0H4.153L.205-10.664H1.736ZM15.256-.784a2.878,2.878,0,0,1-2.322.93A2.464,2.464,0,0,1,11-.59a3.186,3.186,0,0,1-.67-2.179V-7.925h1.355v5.12q0,1.8,1.465,1.8A2.028,2.028,0,0,0,15.22-2.161V-7.925h1.355V0H15.286Zm6.665.93A3.463,3.463,0,0,1,19.3-.912a3.928,3.928,0,0,1-1.011-2.831v-.249a4.756,4.756,0,0,1,.45-2.106A3.514,3.514,0,0,1,20-7.548a3.167,3.167,0,0,1,1.754-.524,2.968,2.968,0,0,1,2.4,1.018,4.408,4.408,0,0,1,.857,2.915v.564H19.644a2.817,2.817,0,0,0,.685,1.893,2.153,2.153,0,0,0,1.666.721,2.36,2.36,0,0,0,1.216-.293,3.055,3.055,0,0,0,.872-.776l.828.645A3.328,3.328,0,0,1,21.921.146Zm-.168-7.1a1.807,1.807,0,0,0-1.377.6,2.9,2.9,0,0,0-.688,1.674h3.97v-.1a2.581,2.581,0,0,0-.557-1.6A1.7,1.7,0,0,0,21.753-6.958ZM28.052,0H26.7V-11.25h1.355Zm4.006-9.844v1.919h1.479v1.047H32.058v4.921a1.1,1.1,0,0,0,.2.715A.832.832,0,0,0,32.93-1a3.281,3.281,0,0,0,.645-.088V0a3.951,3.951,0,0,1-1.04.146A1.687,1.687,0,0,1,31.165-.4a2.36,2.36,0,0,1-.461-1.56V-6.877H29.26V-7.925H30.7V-9.844ZM40.012,0a2.846,2.846,0,0,1-.19-.835,3.023,3.023,0,0,1-2.256.981,2.8,2.8,0,0,1-1.923-.663A2.145,2.145,0,0,1,34.893-2.2a2.24,2.24,0,0,1,.941-1.923A4.437,4.437,0,0,1,38.481-4.8H39.8v-.623a1.522,1.522,0,0,0-.425-1.132,1.707,1.707,0,0,0-1.252-.421,1.976,1.976,0,0,0-1.216.366,1.079,1.079,0,0,0-.491.886H35.054a1.87,1.87,0,0,1,.421-1.146,2.874,2.874,0,0,1,1.143-.875A3.844,3.844,0,0,1,38.2-8.071a3.133,3.133,0,0,1,2.146.685A2.47,2.47,0,0,1,41.155-5.5v3.647a4.459,4.459,0,0,0,.278,1.736V0ZM37.764-1.033a2.381,2.381,0,0,0,1.208-.33,1.994,1.994,0,0,0,.828-.857V-3.845H38.738q-2.49,0-2.49,1.458a1.234,1.234,0,0,0,.425,1A1.633,1.633,0,0,0,37.764-1.033Z" transform="translate(-1731.444 -2464.304)"/>
      </g>
    </g>
    <line id="Línea_238" data-name="Línea 238" y2="61.606" transform="translate(-1893.284 -2501.055)" fill="none" stroke="#000" stroke-miterlimit="10" stroke-width="1"/>
    <line id="Línea_239" data-name="Línea 239" y2="54.174" transform="translate(-1677.473 -2350.441)" fill="none" stroke="#000" stroke-miterlimit="10" stroke-width="1"/>
    <line id="Línea_240" data-name="Línea 240" y2="22.62" transform="translate(-1677.473 -2442.708)" fill="none" stroke="#000" stroke-miterlimit="10" stroke-width="1"/>
    <line id="Línea_241" data-name="Línea 241" y2="94.488" transform="translate(-1893.284 -2367.638)" fill="none" stroke="#000" stroke-miterlimit="10" stroke-width="1"/>
  </g>
</svg>
