<?xml version="1.0" encoding="utf-8"?>
<!-- Generator: Adobe Illustrator 25.2.3, SVG Export Plug-In . SVG Version: 6.00 Build 0)  -->
<svg version="1.1" id="Capa_1" xmlns="http://www.w3.org/2000/svg" xmlns:xlink="http://www.w3.org/1999/xlink" x="0px" y="0px"
	 viewBox="0 0 36 31.5" style="enable-background:new 0 0 36 31.5;" xml:space="preserve">
<style type="text/css">
	.st0{fill:#FF4A69;}
</style>
<path class="st0" d="M32.6,0h-9c-1.9,0-3.4,1.5-3.4,3.4v9c0,1.9,1.5,3.4,3.4,3.4h5.6v4.5c0,2.5-2,4.5-4.5,4.5h-0.6
	c-0.9,0-1.7,0.7-1.7,1.7c0,0,0,0,0,0v3.4c0,0.9,0.7,1.7,1.7,1.7c0,0,0,0,0,0h0.6c6.2,0,11.2-5,11.2-11.2c0,0,0,0,0,0V3.4
	C36,1.5,34.5,0,32.6,0z M12.4,0h-9C1.5,0,0,1.5,0,3.4v9c0,1.9,1.5,3.4,3.4,3.4H9v4.5c0,2.5-2,4.5-4.5,4.5H3.9
	c-0.9,0-1.7,0.7-1.7,1.7c0,0,0,0,0,0v3.4c0,0.9,0.7,1.7,1.7,1.7c0,0,0,0,0,0h0.6c6.2,0,11.2-5,11.2-11.2c0,0,0,0,0,0V3.4
	C15.7,1.5,14.2,0,12.4,0z"/>
</svg>
