<svg xmlns="http://www.w3.org/2000/svg" width="157.755" height="157.755" viewBox="0 0 157.755 157.755">
  <g id="Grupo_55730" data-name="Grupo 55730" transform="translate(-461.122 -8661.622)">
    <g id="Grupo_55730-2" data-name="Grupo 55730" transform="translate(-2567.793 10494.74)">
      <path id="Trazado_106041" data-name="Trazado 106041" d="M78.877,0A78.877,78.877,0,1,1,0,78.877,78.877,78.877,0,0,1,78.877,0Z" transform="translate(3028.915 -1833.118)" fill="#fff"/>
      <path id="Trazado_106030" data-name="Trazado 106030" d="M3186.346-1747.118l-50.86-50.86-1.612,1.6-18.093-18.093-32.975,71.88,26.835,26.835v12.144l-22.492,8.629,19.606,19.607c.346,0,.69.013,1.037.013a78.881,78.881,0,0,0,78.554-71.755Z" fill="#e8e8e8"/>
      <path id="Trazado_106031" data-name="Trazado 106031" d="M3112.722-1702.686v-75.845h-9.859v75.845h-15.714v7.7h41.287v-7.7Z" fill="#c38778"/>
      <path id="Trazado_106032" data-name="Trazado 106032" d="M3128.436-1702.686h-15.714v-75.845h-4.93v83.548h20.644Z" fill="#a65d4e"/>
      <path id="Trazado_106033" data-name="Trazado 106033" d="M3132.778-1742.591l-8-20.965,10.708-34.422-18.474-9.355-1.231-7.138H3099.8l-1.231,7.138-18.475,9.355,10.709,34.422-8,20.965Z" fill="#ff9696"/>
      <path id="Trazado_106034" data-name="Trazado 106034" d="M3124.778-1763.556l10.708-34.422-18.474-9.355-1.231-7.138h-7.989v71.88h24.986Z" fill="#f47171"/>
      <path id="Trazado_106035" data-name="Trazado 106035" d="M3103.656-1743.647l-3.54,16.467-10.209-15.232-20.42-30.775a12.408,12.408,0,0,1,1.112-15.561,2.135,2.135,0,0,1,3.252.288l16.055,24.271Z" fill="#b7e0f6"/>
      <path id="Trazado_106036" data-name="Trazado 106036" d="M3103.656-1743.647l-3.541,16.467-10.209-15.232v-21.777Z" fill="#a4d9f5"/>
      <path id="Trazado_106037" data-name="Trazado 106037" d="M3110.325-1773.187l-20.419,30.775L3079.7-1727.18l-3.54-16.467,13.749-20.542,16.056-24.271a2.135,2.135,0,0,1,3.252-.288A12.407,12.407,0,0,1,3110.325-1773.187Z" fill="#cae8f9"/>
      <path id="Trazado_106038" data-name="Trazado 106038" d="M3069.186-1747.928a14.408,14.408,0,0,0-14.409,14.408,14.409,14.409,0,0,0,14.409,14.409,14.409,14.409,0,0,0,14.408-14.409A14.408,14.408,0,0,0,3069.186-1747.928Zm0,20.583a6.175,6.175,0,0,1-6.175-6.175,6.175,6.175,0,0,1,6.175-6.175,6.175,6.175,0,0,1,6.175,6.175A6.176,6.176,0,0,1,3069.186-1727.345Z" fill="#86bec4"/>
      <path id="Trazado_106039" data-name="Trazado 106039" d="M3110.627-1747.928a14.408,14.408,0,0,0-14.408,14.408,14.409,14.409,0,0,0,14.408,14.409,14.409,14.409,0,0,0,14.409-14.409A14.408,14.408,0,0,0,3110.627-1747.928Zm0,20.583a6.176,6.176,0,0,1-6.175-6.175,6.175,6.175,0,0,1,6.175-6.175,6.175,6.175,0,0,1,6.175,6.175A6.175,6.175,0,0,1,3110.627-1727.345Z" fill="#86bec4"/>
      <path id="Trazado_106040" data-name="Trazado 106040" d="M3110.325-1773.187l-20.419,30.775v-21.777l16.056-24.271a2.135,2.135,0,0,1,3.252-.288A12.407,12.407,0,0,1,3110.325-1773.187Z" fill="#b7e0f6"/>
    </g>
  </g>
</svg>
