<svg xmlns="http://www.w3.org/2000/svg" width="102" height="102" viewBox="0 0 102 102">
  <g id="Grupo_56619" data-name="Grupo 56619" transform="translate(-455 -864)">
    <g id="Grupo_56612" data-name="Grupo 56612" transform="translate(463 872)">
      <g id="Grupo_56610" data-name="Grupo 56610" transform="translate(1.392 1.392)">
        <g id="Grupo_56597" data-name="Grupo 56597" transform="translate(68.144 57.017)">
          <path id="Trazado_104762" data-name="Trazado 104762" d="M465.609,144.2v8.345H451.7V144.2Z" transform="translate(-451.702 -144.198)" fill="#f9e478"/>
        </g>
        <g id="Grupo_56598" data-name="Grupo 56598" transform="translate(68.144 73.706)">
          <path id="Trazado_104763" data-name="Trazado 104763" d="M465.609,151.474v8.345H451.7v-8.345h13.907Z" transform="translate(-451.702 -151.474)" fill="#f9e478"/>
        </g>
        <g id="Grupo_56599" data-name="Grupo 56599" transform="translate(40.33 73.706)">
          <path id="Trazado_104764" data-name="Trazado 104764" d="M453.483,155.646v4.172H439.576v-8.345h13.907Z" transform="translate(-439.576 -151.474)" fill="#f9e478"/>
        </g>
        <g id="Grupo_56600" data-name="Grupo 56600" transform="translate(40.33 57.017)">
          <path id="Trazado_104765" data-name="Trazado 104765" d="M453.483,148.37v4.172H439.576V144.2h13.907Z" transform="translate(-439.576 -144.198)" fill="#f9e478"/>
        </g>
        <g id="Grupo_56601" data-name="Grupo 56601" transform="translate(0 72.316)">
          <path id="Trazado_104766" data-name="Trazado 104766" d="M421.993,161.993V150.868H435.9v11.125Z" transform="translate(-421.993 -150.868)" fill="#f17781"/>
        </g>
        <g id="Grupo_56602" data-name="Grupo 56602" transform="translate(0 55.627)">
          <path id="Trazado_104767" data-name="Trazado 104767" d="M421.993,154.719V143.592H435.9v11.127Z" transform="translate(-421.993 -143.592)" fill="#f17781"/>
        </g>
        <g id="Grupo_56603" data-name="Grupo 56603" transform="translate(0 38.938)">
          <path id="Trazado_104768" data-name="Trazado 104768" d="M421.993,147.443V136.316H435.9v11.127Z" transform="translate(-421.993 -136.316)" fill="#f17781"/>
        </g>
        <g id="Grupo_56604" data-name="Grupo 56604" transform="translate(37.702 11.125)">
          <path id="Trazado_104769" data-name="Trazado 104769" d="M482.625,125.734a5.233,5.233,0,0,0-3.727-1.544H447.4l-1.654,14.783a5.261,5.261,0,0,1-5.23,4.688H438.43l.722,6.438a5.255,5.255,0,0,0,5.23,4.686h2.239v3.6a1.944,1.944,0,0,0,1.418,1.879,1.731,1.731,0,0,0,.544.083,1.974,1.974,0,0,0,1.39-.569l4.993-4.993,22.249-.028A5.268,5.268,0,0,0,481.9,150.1l2.239-20.054c.014-.195.028-.39.028-.585A5.241,5.241,0,0,0,482.625,125.734Z" transform="translate(-438.43 -124.19)" fill="#ccd1d9"/>
        </g>
        <g id="Grupo_56605" data-name="Grupo 56605">
          <path id="Trazado_104770" data-name="Trazado 104770" d="M467.732,120.884A5.224,5.224,0,0,0,464,119.34H427.262a5.275,5.275,0,0,0-5.269,5.271c0,.195.014.388.027.583l2.239,20.054a5.264,5.264,0,0,0,4.686,4.659l19.469.03,4.993,4.991a1.966,1.966,0,0,0,3.351-1.39v-3.6h5.021a5.261,5.261,0,0,0,5.23-4.688l1.654-14.783.585-5.271c.014-.195.028-.388.028-.583a5.233,5.233,0,0,0-1.544-3.727Z" transform="translate(-421.993 -119.34)" fill="#e6e9ed"/>
        </g>
        <g id="Grupo_56606" data-name="Grupo 56606" transform="translate(6.952 16.687)">
          <path id="Trazado_104771" data-name="Trazado 104771" d="M444.493,136.352v4.172H425.568c-.181,0-.362-.016-.544-.03v-4.142a9.735,9.735,0,1,1,19.469,0Z" transform="translate(-425.024 -126.615)" fill="#f9e478"/>
        </g>
        <g id="Grupo_56607" data-name="Grupo 56607" transform="translate(57.017 27.814)">
          <path id="Trazado_104772" data-name="Trazado 104772" d="M466.32,141.2v4.145c-.179.014-.36.028-.541.028H446.851V141.2a9.735,9.735,0,1,1,19.469,0Z" transform="translate(-446.851 -131.466)" fill="#f17781"/>
        </g>
        <g id="Grupo_56608" data-name="Grupo 56608" transform="translate(11.125 5.562)">
          <circle id="Elipse_3982" data-name="Elipse 3982" cx="5.563" cy="5.563" r="5.563" fill="#f0d0b4"/>
        </g>
        <g id="Grupo_56609" data-name="Grupo 56609" transform="translate(61.19 16.688)">
          <circle id="Elipse_3983" data-name="Elipse 3983" cx="5.563" cy="5.563" r="5.563" fill="#f0d0b4"/>
        </g>
      </g>
      <g id="Grupo_56611" data-name="Grupo 56611">
        <path id="Trazado_104773" data-name="Trazado 104773" d="M434.725,121.159h13.907v2.78H434.725Z" transform="translate(-404.129 -115.594)" fill="#855db5"/>
        <path id="Trazado_104774" data-name="Trazado 104774" d="M434.725,123.584h13.907v2.782H434.725Z" transform="translate(-404.129 -112.457)" fill="#855db5"/>
        <path id="Trazado_104775" data-name="Trazado 104775" d="M437.15,126.009h2.782v2.782H437.15Z" transform="translate(-400.992 -109.32)" fill="#855db5"/>
        <path id="Trazado_104776" data-name="Trazado 104776" d="M439.576,126.009h2.78v2.782h-2.78Z" transform="translate(-397.853 -109.32)" fill="#855db5"/>
        <path id="Trazado_104777" data-name="Trazado 104777" d="M434.725,126.009h2.782v2.782h-2.782Z" transform="translate(-404.129 -109.32)" fill="#855db5"/>
        <path id="Trazado_104778" data-name="Trazado 104778" d="M473.011,167.816l4.581-4.581h21.127a6.656,6.656,0,0,0,6.622-5.925l2.229-20.052a7.212,7.212,0,0,0,.039-.739,6.668,6.668,0,0,0-6.661-6.661H471l.415-3.727a7.169,7.169,0,0,0,.039-.736,6.668,6.668,0,0,0-6.661-6.663H428.047a6.67,6.67,0,0,0-6.661,6.663,6.536,6.536,0,0,0,.041.734l2.227,20.054a6.659,6.659,0,0,0,6.622,5.927h13.361v11.125h-5.562v-5.562H421.386V171.58h16.689v-5.562h5.562v13.907h-5.562v-5.562H421.386v13.907h16.689v-5.562h5.562v13.907h-5.562v-5.565H421.386v13.909h16.689v-5.565h8.345V182.707h15.3v4.172h6.955v5.562h-6.955v11.125h16.689v-4.172H489.53v4.172h16.689V192.442h-6.955v-5.562h6.955V175.753H489.53v4.172H478.406v-4.172h-6.954v-7.067a3.379,3.379,0,0,0,1.56-.869Zm-37.718.984H424.168v-8.345h11.125Zm0,16.687H424.168v-8.345h11.125Zm0,16.689H424.168v-8.345h11.125Zm50.065-59.8a4.172,4.172,0,1,1,4.172,4.172A4.179,4.179,0,0,1,485.358,142.377Zm12.517,18.079H481.188v-2.782a8.343,8.343,0,1,1,16.687,0Zm-27.187-27.814h30.261a3.866,3.866,0,0,1,3.856,4.308L502.577,157a3.866,3.866,0,0,1-1.922,2.927v-2.255a11.133,11.133,0,0,0-6.528-10.12,6.952,6.952,0,1,0-9.193,0,11.133,11.133,0,0,0-6.528,10.12v2.782H476.44l-5.395,5.395a.6.6,0,0,1-.984-.408v-4.987h-3.626A3.875,3.875,0,0,1,462.579,157l-.544-4.892h.528a6.659,6.659,0,0,0,6.622-5.927Zm-44.267,13.235-2.227-20.054a3.8,3.8,0,0,1-.025-.427,3.885,3.885,0,0,1,3.879-3.881H464.79a3.885,3.885,0,0,1,3.881,3.881,3.788,3.788,0,0,1-.025.427l-2.227,20.054a3.876,3.876,0,0,1-3.858,3.452h-6.406v4.987a.6.6,0,0,1-.984.408l-4.578-4.578v-3.6a11.128,11.128,0,0,0-6.53-10.12,6.952,6.952,0,1,0-9.193,0,11.13,11.13,0,0,0-6.528,10.12V148.8a3.864,3.864,0,0,1-1.92-2.927Zm8.872-14.627a4.172,4.172,0,1,1,4.172,4.172A4.177,4.177,0,0,1,435.293,131.25Zm12.517,18.079H431.121v-2.78a8.345,8.345,0,1,1,16.689,0Zm27.814,51.457H464.5v-5.565h11.125Zm27.814,0H492.312v-5.565h11.125Zm-11.125-22.251h11.125V184.1H492.312Zm-2.782,4.172v4.172h6.955v5.562H489.53v4.172H478.406v-4.172h-6.954v-5.562h6.954v-4.172Zm-13.907,1.39H464.5v-5.562h11.125Zm-13.907-8.345v4.172h-15.3V152.111h2.2l4.578,4.578a3.359,3.359,0,0,0,5.734-2.374v-2.2h.3l.576,5.2a6.657,6.657,0,0,0,6.622,5.925h.844v2.207a3.342,3.342,0,0,0,1.392,2.707v7.6Z" transform="translate(-421.386 -118.733)" fill="#855db5"/>
        <path id="Trazado_104779" data-name="Trazado 104779" d="M423.812,152.687h5.562v2.78h-5.562Z" transform="translate(-418.247 -74.806)" fill="#855db5"/>
        <path id="Trazado_104780" data-name="Trazado 104780" d="M423.812,145.411h5.562v2.782h-5.562Z" transform="translate(-418.247 -84.219)" fill="#855db5"/>
        <path id="Trazado_104781" data-name="Trazado 104781" d="M423.812,138.135h5.562v2.782h-5.562Z" transform="translate(-418.247 -93.632)" fill="#855db5"/>
      </g>
    </g>
    <rect id="Rectángulo_5528" data-name="Rectángulo 5528" width="102" height="102" transform="translate(455 864)" fill="none"/>
  </g>
</svg>
