<svg xmlns="http://www.w3.org/2000/svg" width="157.755" height="157.755" viewBox="0 0 157.755 157.755">
  <g id="Grupo_55729" data-name="Grupo 55729" transform="translate(-2833.891 1833.118)">
    <path id="Trazado_106029" data-name="Trazado 106029" d="M78.877,0A78.877,78.877,0,1,1,0,78.877,78.877,78.877,0,0,1,78.877,0Z" transform="translate(2833.891 -1833.118)" fill="#fff"/>
    <path id="Path" d="M2901.236-1750.521l-7.2.609a24.85,24.85,0,0,1-24.488-20.337,24.85,24.85,0,0,1,15.608-27.742Z" fill="#f29c1f" fill-rule="evenodd"/>
    <path id="Trazado_106024" data-name="Trazado 106024" d="M2991.322-1747.118l-50.86-50.86-1.611,1.6-18.094-18.093-32.974,71.88,26.834,26.835v12.144l-22.492,8.629,19.607,19.607c.345,0,.69.013,1.037.013a78.883,78.883,0,0,0,78.554-71.755Z" fill="#e8e8e8"/>
    <path id="Trazado_106025" data-name="Trazado 106025" d="M2917.7-1702.686v-75.845h-9.86v75.845h-15.714v7.7h41.287v-7.7Z" fill="#c38778"/>
    <path id="Trazado_106026" data-name="Trazado 106026" d="M2933.412-1702.686H2917.7v-75.845h-4.93v83.548h20.643Z" fill="#a65d4e"/>
    <path id="Trazado_106027" data-name="Trazado 106027" d="M2937.755-1742.591l-8-20.965,10.708-34.422-18.474-9.355-1.231-7.138H2904.78l-1.231,7.138-18.474,9.355,10.708,34.422-8,20.965Z" fill="#d8c987"/>
    <path id="Trazado_106028" data-name="Trazado 106028" d="M2929.754-1763.556l10.708-34.422-18.474-9.355-1.231-7.138h-7.988v71.88h24.986Z" fill="#ede3b7"/>
    <path id="Path-2" data-name="Path" d="M2963.191-1744.38v22.131a5.549,5.549,0,0,1-5.533,5.532h-16.6v-33.195h16.6A5.549,5.549,0,0,1,2963.191-1744.38Z" fill="#95a5a5" fill-rule="evenodd"/>
    <path id="Path-3" data-name="Path" d="M2941.06-1749.912v33.195h-47.027a24.9,24.9,0,0,1-24.9-24.9v-33.2a24.788,24.788,0,0,0,8.3,18.534,24.409,24.409,0,0,0,5.533,3.762,25.369,25.369,0,0,0,5.532,1.992,25.934,25.934,0,0,0,5.533.609Z" fill="#f0c419" fill-rule="evenodd"/>
    <g id="Grupo_55729-2" data-name="Grupo 55729">
      <path id="Path-4" data-name="Path" d="M2882.968-1752.513v13.666a2.766,2.766,0,0,1-2.766,2.766,2.766,2.766,0,0,1-2.767-2.766v-17.428a24.409,24.409,0,0,0,5.533,3.762Z" fill="#e57e25" fill-rule="evenodd"/>
      <path id="Path-5" data-name="Path" d="M2905.1-1749.912v16.6a2.766,2.766,0,0,1-2.766,2.767,2.766,2.766,0,0,1-2.766-2.767v-16.6Z" fill="#e57e25" fill-rule="evenodd"/>
      <path id="Path-6" data-name="Path" d="M2927.229-1749.912v16.6a2.767,2.767,0,0,1-2.766,2.767,2.767,2.767,0,0,1-2.767-2.767v-16.6Z" fill="#e57e25" fill-rule="evenodd"/>
      <path id="Path-7" data-name="Path" d="M2894.033-1749.912v11.065a2.765,2.765,0,0,1-2.766,2.766,2.766,2.766,0,0,1-2.767-2.766v-11.674A25.934,25.934,0,0,0,2894.033-1749.912Z" fill="#e57e25" fill-rule="evenodd"/>
      <path id="Path-8" data-name="Path" d="M2916.164-1749.912v11.065a2.766,2.766,0,0,1-2.767,2.766,2.765,2.765,0,0,1-2.766-2.766v-11.065Z" fill="#e57e25" fill-rule="evenodd"/>
    </g>
    <circle id="Oval" cx="2.766" cy="2.766" r="2.766" transform="translate(2949.359 -1736.081)" fill="#7f8c8d"/>
  </g>
</svg>
