<svg xmlns="http://www.w3.org/2000/svg" width="102" height="102" viewBox="0 0 102 102">
  <g id="Grupo_56621" data-name="Grupo 56621" transform="translate(-847 -504)">
    <g id="Grupo_56617" data-name="Grupo 56617" transform="translate(858 512)">
      <path id="Trazado_104800" data-name="Trazado 104800" d="M298.569,149.172V161.98c7.294.321,5.189,1.61,17.881,7.318a12.016,12.016,0,0,0,9.345-.16l.007,0,24.935-8.928c.811-.372,4.9-2.6,3.289-6.737-1.886-4.416-6.744-2.575-7.151-2.443l-13.017,3.6" transform="translate(-278.623 -85.433)" fill="#dcbfff"/>
      <g id="Grupo_56615" data-name="Grupo 56615" transform="translate(19.946 55.325)">
        <path id="Trazado_104801" data-name="Trazado 104801" d="M313.3,159.166l14.5,4.595a4.763,4.763,0,0,0,5.884-3.278h0c.719-2.53-.748-5.165-3.648-6.24l-12.862-4.365a10.929,10.929,0,0,0-9.283-4.483c-4.127,0-7.686,3.336-9.316,6.258v5.831" transform="translate(-298.569 -145.394)" fill="#dcbfff"/>
      </g>
      <path id="Trazado_104802" data-name="Trazado 104802" d="M303.519,153.373a1.86,1.86,0,0,1-.332-.031,1.891,1.891,0,0,1-.314-.1,1.743,1.743,0,0,1-.292-.156,1.678,1.678,0,0,1-.258-.212,1.784,1.784,0,0,1-.209-.256,1.734,1.734,0,0,1-.154-.292,1.825,1.825,0,0,1-.1-.314,1.883,1.883,0,0,1-.033-.332,1.838,1.838,0,0,1,.033-.33,1.711,1.711,0,0,1,.1-.314,1.578,1.578,0,0,1,.154-.292,1.687,1.687,0,0,1,.209-.258,1.8,1.8,0,0,1,.258-.209,1.732,1.732,0,0,1,.292-.154,1.706,1.706,0,0,1,.314-.1,1.739,1.739,0,0,1,.661,0,1.785,1.785,0,0,1,.316.1,1.922,1.922,0,0,1,.292.154,1.787,1.787,0,0,1,.256.209,1.561,1.561,0,0,1,.209.258,1.584,1.584,0,0,1,.156.292,1.891,1.891,0,0,1,.1.314,1.652,1.652,0,0,1,.031.33,1.689,1.689,0,0,1-.031.332,2.03,2.03,0,0,1-.1.314,1.743,1.743,0,0,1-.156.292,1.8,1.8,0,0,1-.212.256A1.684,1.684,0,0,1,303.519,153.373Z" transform="translate(-274.623 -84.419)" fill="#855db5"/>
      <rect id="Rectángulo_5521" data-name="Rectángulo 5521" width="6.12" height="17.355" transform="translate(13.827 61.376)" fill="#eaecf0"/>
      <rect id="Rectángulo_5522" data-name="Rectángulo 5522" width="9.604" height="20.365" transform="translate(4.223 61.376)" fill="#bb83ff"/>
      <path id="Trazado_104803" data-name="Trazado 104803" d="M347.34,142.307V129.5c-7.294-.321-5.189-1.61-17.881-7.316a12.013,12.013,0,0,0-9.345.158l-.007,0-24.935,8.926c-.813.374-4.9,2.6-3.289,6.739,1.886,4.416,6.744,2.575,7.151,2.441l13.017-3.6" transform="translate(-287.286 -119.627)" fill="#dcbfff"/>
      <g id="Grupo_56616" data-name="Grupo 56616" transform="translate(24.765 12.544)">
        <path id="Trazado_104804" data-name="Trazado 104804" d="M321.294,130.962l-14.5-4.595a4.763,4.763,0,0,0-5.884,3.278h0c-.719,2.53.748,5.165,3.648,6.24l12.862,4.365a10.929,10.929,0,0,0,9.283,4.483c4.127,0,7.686-3.336,9.316-6.256v-5.833" transform="translate(-300.733 -126.185)" fill="#dcbfff"/>
      </g>
      <path id="Trazado_104805" data-name="Trazado 104805" d="M313.491,131.769a1.663,1.663,0,0,1-.332-.033,1.782,1.782,0,0,1-.316-.1,1.75,1.75,0,0,1-.292-.156,1.636,1.636,0,0,1-.256-.209,1.545,1.545,0,0,1-.209-.256,1.836,1.836,0,0,1-.156-.292,1.667,1.667,0,0,1-.1-.316,1.615,1.615,0,0,1-.033-.327,1.658,1.658,0,0,1,.033-.332,1.717,1.717,0,0,1,.1-.316,1.816,1.816,0,0,1,.156-.29,1.545,1.545,0,0,1,.209-.256,1.651,1.651,0,0,1,.256-.212,1.928,1.928,0,0,1,.292-.156,1.782,1.782,0,0,1,.316-.1,1.709,1.709,0,0,1,1.526.463,1.672,1.672,0,0,1,.363.546,1.735,1.735,0,0,1,.1.316,1.84,1.84,0,0,1,.031.332,1.791,1.791,0,0,1-.031.327,1.684,1.684,0,0,1-.1.316,1.735,1.735,0,0,1-.154.292,1.81,1.81,0,0,1-.209.256,1.66,1.66,0,0,1-.258.209,1.6,1.6,0,0,1-.292.156,1.707,1.707,0,0,1-.314.1A1.673,1.673,0,0,1,313.491,131.769Z" transform="translate(-262.386 -110.929)" fill="#855db5"/>
      <rect id="Rectángulo_5523" data-name="Rectángulo 5523" width="6.12" height="17.355" transform="translate(60.055 7.689)" fill="#eaecf0"/>
      <rect id="Rectángulo_5524" data-name="Rectángulo 5524" width="9.604" height="20.365" transform="translate(66.173 4.679)" fill="#bb83ff"/>
      <path id="Trazado_104806" data-name="Trazado 104806" d="M365.192,158.422l-.02-.049c-1.5-3.519-5.024-4.819-9.189-3.4L344.8,158.068a7.463,7.463,0,0,0-4.59-4.477l-.047-.018-12.349-4.191a12.845,12.845,0,0,0-10.336-4.746c-4.232,0-7.978,2.891-10.127,6.051H292.439a1.687,1.687,0,0,0-1.688,1.688V172.74a1.688,1.688,0,0,0,1.688,1.688h9.6a1.689,1.689,0,0,0,1.688-1.688v-1.323h4.432a1.687,1.687,0,0,0,1.688-1.688v-.383c2.548.229,3.416.731,5.79,2.1a98.379,98.379,0,0,0,9.71,4.958l.076.031a14.562,14.562,0,0,0,5.223.984,12.956,12.956,0,0,0,5.381-1.151l24.87-8.9c.045-.018.091-.036.136-.056C363.437,166.2,367.012,163.09,365.192,158.422Zm-64.838,12.63h-6.227V154.063h6.227v16.988Zm6.12-3.011h-2.744V154.063h2.744Zm53.212-3.831s-24.984,8.951-25,8.96a10.39,10.39,0,0,1-7.984.136,93.471,93.471,0,0,1-9.372-4.786c-2.637-1.521-3.915-2.258-7.476-2.559V153.039c1.523-2.488,4.463-5.027,7.628-5.027a9.257,9.257,0,0,1,7.846,3.681,1.68,1.68,0,0,0,.9.713l12.837,4.358c2.011.755,3.076,2.474,2.588,4.187a3.073,3.073,0,0,1-3.775,2.122L323.4,158.489a1.688,1.688,0,1,0-1.02,3.218l14.5,4.595.049.013a6.451,6.451,0,0,0,7.969-4.441c.033-.116.062-.234.089-.352l12.091-3.35c1.721-.59,3.982-.8,4.982,1.5C363.092,162.377,360.395,163.872,359.687,164.21Z" transform="translate(-288.217 -90.999)" fill="#855db5"/>
      <path id="Trazado_104807" data-name="Trazado 104807" d="M291.266,139.6c1.5,3.517,5.024,4.817,9.189,3.394l11.182-3.091a7.466,7.466,0,0,0,4.59,4.479l.045.016,12.349,4.191a12.844,12.844,0,0,0,10.338,4.746c4.232,0,7.975-2.891,10.127-6.049H364a1.69,1.69,0,0,0,1.688-1.688V125.233A1.689,1.689,0,0,0,364,123.545h-9.6a1.689,1.689,0,0,0-1.69,1.688v1.321h-4.43a1.687,1.687,0,0,0-1.688,1.688v.385c-2.55-.232-3.416-.731-5.791-2.1a97.385,97.385,0,0,0-9.71-4.958l-.076-.033a13.83,13.83,0,0,0-10.6.167l-24.87,8.906a1.162,1.162,0,0,0-.136.056c-2.4,1.1-5.975,4.216-4.158,8.884Zm64.818-12.679h6.227v16.988h-6.227Zm-6.12,3.009h2.744v13.98h-2.744Zm-53.212,3.831,25-8.96a10.39,10.39,0,0,1,7.984-.136,93.484,93.484,0,0,1,9.372,4.786c2.637,1.521,3.915,2.258,7.476,2.559v12.924c-1.523,2.485-4.463,5.024-7.628,5.024a9.254,9.254,0,0,1-7.846-3.679,1.684,1.684,0,0,0-.9-.715l-12.837-4.356c-2.011-.757-3.076-2.477-2.59-4.187a3.072,3.072,0,0,1,3.777-2.122l14.469,4.586a1.689,1.689,0,1,0,1.02-3.22l-14.5-4.592-.049-.016a6.451,6.451,0,0,0-7.969,4.441c-.033.118-.062.236-.089.354l-12.091,3.35c-1.722.588-3.982.8-4.982-1.5C293.346,135.593,296.043,134.1,296.751,133.76Z" transform="translate(-288.222 -120.552)" fill="#855db5"/>
      <circle id="Elipse_3984" data-name="Elipse 3984" cx="14.154" cy="14.154" r="14.154" transform="translate(1.689 24.914)" fill="#f9e478"/>
      <path id="Trazado_104808" data-name="Trazado 104808" d="M305.454,162.666A15.843,15.843,0,1,1,321.3,146.822,15.862,15.862,0,0,1,305.454,162.666Zm0-28.309a12.465,12.465,0,1,0,12.467,12.465A12.48,12.48,0,0,0,305.454,134.357Z" transform="translate(-289.613 -107.755)" fill="#855db5"/>
      <path id="Trazado_104809" data-name="Trazado 104809" d="M304.078,148.069c0,.657-.278,1.312-.835,1.312h-7.868c-.557,0-.835-.655-.835-1.312s.278-1.314.835-1.314h.929l.595-4.441h-.873c-.463,0-.706-.521-.706-1.062,0-.521.243-1.062.706-1.062h1.169l.185-1.332a5.039,5.039,0,0,1,4.993-4.307h.78c.592,0,.926.657.926,1.294s-.334,1.312-.926,1.312h-.873a1.811,1.811,0,0,0-2.022,1.7l-.185,1.334h1.984c.463,0,.706.541.706,1.062,0,.541-.243,1.062-.706,1.062h-2.283l-.612,4.441h4.082C303.8,146.755,304.078,147.412,304.078,148.069Z" transform="translate(-283.568 -103.376)" fill="#855db5"/>
      <circle id="Elipse_3985" data-name="Elipse 3985" cx="14.154" cy="14.154" r="14.154" transform="translate(50.004 33.198)" fill="#f9e478"/>
      <path id="Trazado_104810" data-name="Trazado 104810" d="M327.148,166.386a15.843,15.843,0,1,1,15.844-15.844A15.86,15.86,0,0,1,327.148,166.386Zm0-28.309a12.466,12.466,0,1,0,12.467,12.465A12.48,12.48,0,0,0,327.148,138.077Z" transform="translate(-262.992 -103.191)" fill="#855db5"/>
      <path id="Trazado_104811" data-name="Trazado 104811" d="M320.311,153.092c-2.227-.078-4.044-1.276-4.044-2.512,0-.657.557-1.621,1.261-1.621.779,0,1.41,1.14,2.784,1.39v-3.129c-1.706-.675-3.71-1.506-3.71-3.978,0-2.452,1.744-3.63,3.71-3.92v-.541c0-.27.3-.521.706-.521.352,0,.7.252.7.521v.483c1.151.038,3.323.347,3.323,1.679,0,.521-.334,1.583-1.151,1.583-.613,0-.964-.617-2.169-.713v2.82c1.688.655,3.655,1.563,3.655,4.171a4.047,4.047,0,0,1-3.655,4.209v.559c0,.272-.354.523-.706.523-.407,0-.706-.252-.706-.523v-.481Zm.185-8.924v-2.3c-.835.174-1.187.617-1.187,1.08C319.309,143.513,319.793,143.86,320.5,144.168Zm1.04,3.575v2.588a1.267,1.267,0,0,0,1.131-1.218C322.668,148.475,322.2,148.069,321.536,147.742Z" transform="translate(-256.906 -98.825)" fill="#855db5"/>
    </g>
    <rect id="Rectángulo_5526" data-name="Rectángulo 5526" width="102" height="102" transform="translate(847 504)" fill="none"/>
  </g>
</svg>
