<svg xmlns="http://www.w3.org/2000/svg" width="102" height="102" viewBox="0 0 102 102">
  <g id="Grupo_56618" data-name="Grupo 56618" transform="translate(-843 -864)">
    <g id="Grupo_56613" data-name="Grupo 56613" transform="translate(853 876)">
      <path id="Trazado_104782" data-name="Trazado 104782" d="M425.566,186.061H378.532l2.767-55.334h41.5Z" transform="translate(-376.915 -109.975)" fill="#dcbfff"/>
      <path id="Trazado_104783" data-name="Trazado 104783" d="M411.664,186.061H400.6l-2.768-55.334H408.9Z" transform="translate(-352.182 -109.975)" fill="#a271dc"/>
      <path id="Trazado_104784" data-name="Trazado 104784" d="M421.365,175.182H410.3l-.173-2.236v0l-2.594-33.728H418.6l2.549,33.146h0Z" transform="translate(-339.75 -99.096)" fill="#bb83ff"/>
      <path id="Trazado_104785" data-name="Trazado 104785" d="M390.972,149.411h-8.3V138.346l4.148-2.768,4.15,2.768Z" transform="translate(-371.607 -103.758)" fill="#f9e478"/>
      <path id="Trazado_104786" data-name="Trazado 104786" d="M428.947,175.182H392.981l2.765-35.966H426.18Z" transform="translate(-358.398 -99.096)" fill="#bb83ff"/>
      <path id="Trazado_104787" data-name="Trazado 104787" d="M458.051,161.644a1.383,1.383,0,0,0-1.378-1.278H436.824l-.9-18.052A1.381,1.381,0,0,0,434.54,141h-9.683v-6.915a12.445,12.445,0,0,0-16.6-11.736,12.446,12.446,0,0,0-16.6,11.736V141h-9.683a1.385,1.385,0,0,0-1.383,1.314l-2.765,55.332a1.382,1.382,0,0,0,1.312,1.451l.068,0h80.233a1.384,1.384,0,0,0,1.385-1.383c0-.036,0-.071,0-.107Zm-4.146,30.267,2.948,4.422h-5.9Zm3.749.634-2.407-3.609-2.58-25.8h2.724Zm-7.766-29.411,2.592,25.928-3.034,4.554L447.1,163.134Zm-15.834-2.768h-2.6l-.979-16.6h2.752Zm-6.352-16.6.977,16.6h-2.923l-.831-16.6Zm-15.3-19.368a9.7,9.7,0,0,1,9.683,9.685V141h-5.533v-6.915a12.429,12.429,0,0,0-4.622-9.672C412.092,124.4,412.247,124.4,412.406,124.4Zm-4.15.938a9.7,9.7,0,0,1,5.533,8.747V141H402.724v-6.915A9.691,9.691,0,0,1,408.256,125.338Zm-13.833,8.747a9.7,9.7,0,0,1,9.683-9.685q.236,0,.472.014a12.429,12.429,0,0,0-4.622,9.672V141h-5.533Zm16.7,62.248H380.661l2.628-52.565h8.366v8.941l-3.534,2.357a1.39,1.39,0,0,0-.616,1.152v11.066a1.384,1.384,0,0,0,1.385,1.383h8.3a1.384,1.384,0,0,0,1.385-1.383V156.219a1.39,1.39,0,0,0-.616-1.152l-3.534-2.357v-8.941h19.366v4.15a1.384,1.384,0,0,0,2.767,0v-4.15h5.6l.831,16.6h-7.814a1.383,1.383,0,0,0-1.378,1.278Zm-18.086-41.218,2.767,1.843V165.9h-5.533v-8.944Zm23.416,8.02h27.871l2.553,33.2H413.9Z" transform="translate(-377.823 -121.631)" fill="#855db5"/>
      <path id="Trazado_104788" data-name="Trazado 104788" d="M412.441,142.247a1.384,1.384,0,0,0-1.383,1.385V154.7a4.155,4.155,0,0,1-4.15,4.15H404.14a4.153,4.153,0,0,1-4.148-4.15V143.632a1.384,1.384,0,1,0-2.767,0V154.7a6.925,6.925,0,0,0,6.915,6.918h2.767a6.925,6.925,0,0,0,6.918-6.918V143.632A1.386,1.386,0,0,0,412.441,142.247Z" transform="translate(-352.959 -95.212)" fill="#855db5"/>
    </g>
    <rect id="Rectángulo_5527" data-name="Rectángulo 5527" width="102" height="102" transform="translate(843 864)" fill="none"/>
  </g>
</svg>
