<svg xmlns="http://www.w3.org/2000/svg" xmlns:xlink="http://www.w3.org/1999/xlink" width="93" height="93" viewBox="0 0 93 93">
  <defs>
    <clipPath id="clip-path">
      <path id="Intersección_3" data-name="Intersección 3" d="M3662.26,1802.358a46,46,0,1,1,46,46A46,46,0,0,1,3662.26,1802.358Z" fill="none"/>
    </clipPath>
  </defs>
  <g id="Grupo_55840" data-name="Grupo 55840" transform="translate(-3661.76 -1755.858)">
    <g id="Elipse_4065" data-name="Elipse 4065">
      <circle id="Elipse_4075" data-name="Elipse 4075" cx="46.5" cy="46.5" r="46.5" transform="translate(3661.76 1755.858)" fill="#8c757e"/>
      <circle id="Elipse_4076" data-name="Elipse 4076" cx="46" cy="46" r="46" transform="translate(3662.26 1756.358)" fill="#8c757e"/>
    </g>
    <g id="Grupo_55852" data-name="Grupo 55852">
      <g id="Grupo_55851" data-name="Grupo 55851" clip-path="url(#clip-path)">
        <g id="Grupo_55850" data-name="Grupo 55850">
          <g id="Grupo_55849" data-name="Grupo 55849">
            <g id="Grupo_55848" data-name="Grupo 55848">
              <g id="Grupo_55840-2" data-name="Grupo 55840">
                <path id="Trazado_106230" data-name="Trazado 106230" d="M3687.716,1780.949l-4.138,9.311a74.846,74.846,0,0,0,0,60.8l4.138,9.311h18.531v-29.12h5.295v29.12h18.531l4.138-9.311a74.844,74.844,0,0,0,0-60.8l-4.138-9.311Z" fill="#fab991"/>
              </g>
              <g id="Grupo_55841" data-name="Grupo 55841">
                <path id="Trazado_106231" data-name="Trazado 106231" d="M3730.073,1860.367l4.138-9.311a74.844,74.844,0,0,0,0-60.8l-3.295-7.413-.843-1.9h-2.648l2.919,8.757a97.876,97.876,0,0,1,0,61.9l-2.919,8.757Z" fill="#f0915a"/>
              </g>
              <g id="Grupo_55842" data-name="Grupo 55842">
                <path id="Trazado_106232" data-name="Trazado 106232" d="M3703.6,1820.658h2.647v39.709H3703.6Z" fill="#f0915a"/>
              </g>
              <g id="Grupo_55843" data-name="Grupo 55843">
                <path id="Trazado_106233" data-name="Trazado 106233" d="M3711.542,1820.658h2.647v39.709h-2.647Z" fill="#f0915a"/>
              </g>
              <g id="Grupo_55844" data-name="Grupo 55844">
                <path id="Trazado_106234" data-name="Trazado 106234" d="M3722.131,1820.658h18.531a74.873,74.873,0,0,0-1.707-15.884h-60.121a74.873,74.873,0,0,0-1.707,15.884h18.531a10.589,10.589,0,0,1,10.589,10.589h5.295A10.589,10.589,0,0,1,3722.131,1820.658Z" fill="#ff9696"/>
              </g>
              <g id="Grupo_55845" data-name="Grupo 55845">
                <path id="Trazado_106235" data-name="Trazado 106235" d="M3735.367,1820.658h5.3a74.873,74.873,0,0,0-1.707-15.884h-4.886A97.91,97.91,0,0,1,3735.367,1820.658Z" fill="#ea7171"/>
              </g>
              <g id="Grupo_55846" data-name="Grupo 55846">
                <path id="Trazado_106236" data-name="Trazado 106236" d="M3706.247,1831.247a10.589,10.589,0,0,0-10.589-10.589h26.473a10.589,10.589,0,0,0-10.589,10.589Z" fill="#ea7171"/>
              </g>
              <g id="Grupo_55847" data-name="Grupo 55847">
                <circle id="Elipse_4077" data-name="Elipse 4077" cx="1.753" cy="1.753" r="1.753" transform="translate(3707.141 1791.253)" fill="#f0915a"/>
              </g>
            </g>
          </g>
          <path id="Trazado_106237" data-name="Trazado 106237" d="M3686.679,1783.283a52.223,52.223,0,0,0,1.384-12.541c.016-12.364-5.086-17.041-5.086-17.041s18.023-3.667,20.2-3.506,14.628,1.705,16.158,1.947,12.331,5.953,12.331,5.953l-4.237,12.888,1.368,12.3s-5.876,1.223-6.118,1.223S3686.679,1783.283,3686.679,1783.283Z" fill="#fab991"/>
        </g>
        <path id="Trazado_106238" data-name="Trazado 106238" d="M3738.323,1754.622l-5.1,5.669s-3.677,9.339-3.6,14.074.675,7.852,2.03,10.141-2.416,1.881-2.416,1.881a34.221,34.221,0,0,1,0-26.754c6.18-14.011,5.046-5.011,5.046-5.011Z" fill="#f0915a"/>
      </g>
    </g>
    <g id="Grupo_55853" data-name="Grupo 55853">
      <path id="Trazado_106239" data-name="Trazado 106239" d="M3685.473,1804.774h-2.711a76.09,76.09,0,0,0-1.664,15.884h2.648A73.353,73.353,0,0,1,3685.473,1804.774Z" fill="#fcb6b6"/>
    </g>
    <g id="Grupo_55854" data-name="Grupo 55854">
      <path id="Trazado_106240" data-name="Trazado 106240" d="M3735.367,1820.658h5.3a74.873,74.873,0,0,0-1.707-15.884h-4.886A97.91,97.91,0,0,1,3735.367,1820.658Z" fill="#ea7171"/>
    </g>
  </g>
</svg>
