<svg xmlns="http://www.w3.org/2000/svg" xmlns:xlink="http://www.w3.org/1999/xlink" width="93" height="93" viewBox="0 0 93 93">
  <defs>
    <clipPath id="clip-path">
      <path id="Intersección_2" data-name="Intersección 2" d="M3531.152,1802.358a46,46,0,1,1,46,46A46,46,0,0,1,3531.152,1802.358Z" fill="none"/>
    </clipPath>
  </defs>
  <g id="Grupo_55825" data-name="Grupo 55825" transform="translate(-3530.652 -1755.858)">
    <g id="Elipse_4065" data-name="Elipse 4065">
      <circle id="Elipse_4070" data-name="Elipse 4070" cx="46.5" cy="46.5" r="46.5" transform="translate(3530.652 1755.858)" fill="#8c757e"/>
      <circle id="Elipse_4071" data-name="Elipse 4071" cx="46" cy="46" r="46" transform="translate(3531.152 1756.358)" fill="#8c757e"/>
    </g>
    <g id="Grupo_55837" data-name="Grupo 55837">
      <g id="Grupo_55836" data-name="Grupo 55836" clip-path="url(#clip-path)">
        <g id="Grupo_55835" data-name="Grupo 55835">
          <g id="Grupo_55834" data-name="Grupo 55834">
            <g id="Grupo_55833" data-name="Grupo 55833">
              <g id="Grupo_55825-2" data-name="Grupo 55825">
                <path id="Trazado_106217" data-name="Trazado 106217" d="M3556.608,1780.949l-4.138,9.311a74.846,74.846,0,0,0,0,60.8l4.138,9.311h18.531v-29.12h5.294v29.12h18.531l4.138-9.311a74.846,74.846,0,0,0,0-60.8l-4.138-9.311Z" fill="#fab991"/>
              </g>
              <g id="Grupo_55826" data-name="Grupo 55826">
                <path id="Trazado_106218" data-name="Trazado 106218" d="M3598.964,1860.367l4.138-9.311a74.846,74.846,0,0,0,0-60.8l-3.294-7.413-.844-1.9h-2.647l2.919,8.757a97.876,97.876,0,0,1,0,61.9l-2.919,8.757Z" fill="#f0915a"/>
              </g>
              <g id="Grupo_55827" data-name="Grupo 55827">
                <path id="Trazado_106219" data-name="Trazado 106219" d="M3572.492,1820.658h2.647v39.709h-2.647Z" fill="#f0915a"/>
              </g>
              <g id="Grupo_55828" data-name="Grupo 55828">
                <path id="Trazado_106220" data-name="Trazado 106220" d="M3580.433,1820.658h2.648v39.709h-2.648Z" fill="#f0915a"/>
              </g>
              <g id="Grupo_55829" data-name="Grupo 55829">
                <path id="Trazado_106221" data-name="Trazado 106221" d="M3591.022,1820.658h18.531a74.857,74.857,0,0,0-1.706-15.884h-60.122a74.857,74.857,0,0,0-1.706,15.884h18.531a10.589,10.589,0,0,1,10.589,10.589h5.294A10.589,10.589,0,0,1,3591.022,1820.658Z" fill="#ff9696"/>
              </g>
              <g id="Grupo_55830" data-name="Grupo 55830">
                <path id="Trazado_106222" data-name="Trazado 106222" d="M3604.259,1820.658h5.294a74.857,74.857,0,0,0-1.706-15.884h-4.887A97.774,97.774,0,0,1,3604.259,1820.658Z" fill="#ea7171"/>
              </g>
              <g id="Grupo_55831" data-name="Grupo 55831">
                <path id="Trazado_106223" data-name="Trazado 106223" d="M3575.139,1831.247a10.589,10.589,0,0,0-10.589-10.589h26.472a10.589,10.589,0,0,0-10.589,10.589Z" fill="#ea7171"/>
              </g>
              <g id="Grupo_55832" data-name="Grupo 55832">
                <circle id="Elipse_4072" data-name="Elipse 4072" cx="1.753" cy="1.753" r="1.753" transform="translate(3576.033 1787.253)" fill="#f0915a"/>
              </g>
            </g>
          </g>
          <path id="Trazado_106224" data-name="Trazado 106224" d="M3555.571,1783.283a52.258,52.258,0,0,0,1.383-12.541c.017-12.364-5.086-17.041-5.086-17.041s18.024-3.667,20.2-3.506,14.628,1.705,16.157,1.947,12.331,5.953,12.331,5.953l-4.236,12.888,1.368,12.3s-5.877,1.223-6.118,1.223S3555.571,1783.283,3555.571,1783.283Z" fill="#fab991"/>
        </g>
        <path id="Trazado_106225" data-name="Trazado 106225" d="M3607.215,1754.622l-5.1,5.669s-3.677,9.339-3.6,14.074.676,7.852,2.03,10.141-2.415,1.881-2.415,1.881a34.216,34.216,0,0,1,0-26.754c6.179-14.011,5.045-5.011,5.045-5.011Z" fill="#f0915a"/>
      </g>
    </g>
    <path id="Trazado_106226" data-name="Trazado 106226" d="M3550.631,1793.528c-1.947,5.5-3.665,11.506-3.739,15.748-.173,9.952,60.3-1.2,60.3-1.2l-4.977-14.551Z" fill="#ff9696"/>
    <path id="Trazado_106227" data-name="Trazado 106227" d="M3604.475,1793.528H3599.9c1.7,5.872,3.285,11.726,3.386,13.368.221,3.592,4.86-.68,4.86-.68S3608.1,1803.107,3604.475,1793.528Z" fill="#ea7171"/>
    <g id="Grupo_55838" data-name="Grupo 55838">
      <path id="Trazado_106228" data-name="Trazado 106228" d="M3604.259,1820.658h5.294a74.857,74.857,0,0,0-1.706-15.884h-4.887A97.774,97.774,0,0,1,3604.259,1820.658Z" fill="#ea7171"/>
    </g>
    <g id="Grupo_55839" data-name="Grupo 55839">
      <path id="Trazado_106229" data-name="Trazado 106229" d="M3554.364,1804.774h-2.71a76.09,76.09,0,0,0-1.664,15.884h2.647A73.414,73.414,0,0,1,3554.364,1804.774Z" fill="#fcb6b6"/>
    </g>
  </g>
</svg>
