<svg xmlns="http://www.w3.org/2000/svg" width="102" height="102" viewBox="0 0 102 102">
  <g id="Grupo_56620" data-name="Grupo 56620" transform="translate(-344 -504)">
    <rect id="Rectángulo_5525" data-name="Rectángulo 5525" width="102" height="102" transform="translate(344 504)" fill="none"/>
    <g id="Grupo_56614" data-name="Grupo 56614" transform="translate(354 516)">
      <path id="Trazado_104789" data-name="Trazado 104789" d="M351.9,136.686l9.669,16.744c-4.39,2.532-9.49,5.477-13.955,8.055a9.667,9.667,0,1,1-9.667-16.744Z" transform="translate(-331.497 -102.802)" fill="#bb83ff"/>
      <path id="Trazado_104790" data-name="Trazado 104790" d="M376.857,157.271a3.223,3.223,0,0,1-2.713,4.832l-1.811.357-.04-.206L351.551,126.33l-.136-.106,1.161-1.48a3.221,3.221,0,0,1,5.54.068C390.308,180.565,349.7,110.225,376.857,157.271Z" transform="translate(-310.884 -117.987)" fill="#bb83ff"/>
      <path id="Trazado_104791" data-name="Trazado 104791" d="M357.164,161.429a4.834,4.834,0,0,1-8.372,4.834l-8.863-15.352,8.372-4.834C348.378,146.211,357.149,161.405,357.164,161.429Z" transform="translate(-323.817 -92.228)" fill="#a271dc"/>
      <path id="Trazado_104792" data-name="Trazado 104792" d="M364.79,129l3.223,5.581-3.971,6.012L357.6,129.436Z" transform="translate(-303.922 -111.451)" fill="#e9eef0"/>
      <path id="Trazado_104793" data-name="Trazado 104793" d="M382.955,160.653l.04.206-31.381,6.155-9.669-16.744,20.133-25.648.136.106Z" transform="translate(-321.547 -116.385)" fill="#dcbfff"/>
      <path id="Trazado_104794" data-name="Trazado 104794" d="M344.01,145.7a1.61,1.61,0,1,0-2.2-.589A1.611,1.611,0,0,0,344.01,145.7Z" transform="translate(-321.942 -96.036)" fill="#855db5"/>
      <path id="Trazado_104795" data-name="Trazado 104795" d="M347.816,179.624l8.113,14.055a6.445,6.445,0,1,0,11.163-6.444l-4.834-8.374,4.186-2.415a1.613,1.613,0,0,0,.591-2.2l-2.1-3.629c.251-.047,1.892-.37,30.863-6.053a4.833,4.833,0,0,0,3.916-7.243l-5.353-9.274,3.421-5.183a1.612,1.612,0,0,0,.051-1.694l-3.221-5.581a1.617,1.617,0,0,0-1.492-.8l-6.2.372-5.944-10.3a4.792,4.792,0,0,0-4.126-2.417h-.062a4.793,4.793,0,0,0-4.069,2.228l-21.049,26.815-13.683,7.9a11.278,11.278,0,0,0,9.826,20.239Zm16.487,9.222a3.223,3.223,0,0,1-5.583,3.223l-8.057-13.957,5.583-3.221C365.568,191.043,364.152,188.59,364.3,188.847Zm-3.657-12.777-1.609-2.789,2.789-1.611,1.611,2.791Zm31.675-38.01,2.226,3.857-1.986,3.008-3.837-6.648Zm-16.906-11.623a1.614,1.614,0,0,1,2.772.032l18.74,32.462a1.611,1.611,0,0,1-1.356,2.415,6.041,6.041,0,0,0-.884.151L374.865,127.16A8.959,8.959,0,0,0,375.416,126.437Zm-2.7,3.455,18.626,32.26-28.11,5.515L354.69,152.86Zm-36.067,43.289a8.05,8.05,0,0,1,2.949-11.006l12.558-7.25,8.055,13.953-12.558,7.252A8.067,8.067,0,0,1,336.653,173.181Z" transform="translate(-332.35 -118.84)" fill="#855db5"/>
      <path id="Trazado_104796" data-name="Trazado 104796" d="M345.783,145.016a1.61,1.61,0,0,0-2.2-.591l-2.791,1.611a1.612,1.612,0,0,1-2.2-.589,1.611,1.611,0,1,0-2.789,1.611,4.839,4.839,0,0,0,6.6,1.769l2.791-1.612A1.609,1.609,0,0,0,345.783,145.016Z" transform="translate(-328.708 -94.33)" fill="#855db5"/>
      <path id="Trazado_104797" data-name="Trazado 104797" d="M375.22,124.171l-8.978,5a1.612,1.612,0,0,0,1.567,2.817l8.978-5a1.612,1.612,0,1,0-1.567-2.817Z" transform="translate(-295.12 -117.122)" fill="#855db5"/>
      <path id="Trazado_104798" data-name="Trazado 104798" d="M373.955,132.826l-6.225-1.669a1.611,1.611,0,1,0-.833,3.112l6.225,1.669a1.611,1.611,0,1,0,.833-3.112Z" transform="translate(-294.797 -109.089)" fill="#855db5"/>
      <path id="Trazado_104799" data-name="Trazado 104799" d="M363.14,121.943l-1.671,6.225a1.612,1.612,0,1,0,3.115.836l1.669-6.227a1.611,1.611,0,0,0-3.112-.833Z" transform="translate(-299.625 -120.748)" fill="#855db5"/>
    </g>
  </g>
</svg>
