<svg xmlns="http://www.w3.org/2000/svg" width="1019" height="254.706" viewBox="0 0 1019 254.706">
  <g id="Grupo_55731" data-name="Grupo 55731" transform="translate(-3401.369 1534.547)">
    <rect id="Rectángulo_5431" data-name="Rectángulo 5431" width="1019" height="254.706" transform="translate(3401.369 -1534.547)" fill="#fffdf4" style="isolation: isolate"/>
    <path id="Trazado_106042" data-name="Trazado 106042" d="M3446.848-1371.082v-74.885s13.035-5.825,14.977-17.2l23.575,8.043s-8.321,31.341,15.809,28.845l7.766,46.04-20.477,8.71-16.688,7.1-1.346-39.939Z" fill="#fff" stroke="#1d1d1b" stroke-linecap="round" stroke-linejoin="round" stroke-width="2"/>
    <line id="Línea_187" data-name="Línea 187" x2="15.929" y2="32.916" transform="translate(3470.491 -1403.557)" fill="none" stroke="#1d1d1b" stroke-linecap="round" stroke-linejoin="round" stroke-width="2"/>
    <path id="Trazado_106045" data-name="Trazado 106045" d="M3674.064-1372.6l-17.03-1.625v-75.2l23.222,38.482" fill="#fff" stroke="#1d1d1b" stroke-linecap="round" stroke-linejoin="round" stroke-width="2"/>
    <path id="Trazado_106046" data-name="Trazado 106046" d="M3781.549-1454.727l11.722,42.463-.234,2.187-4.189,39.171-18.135-1.692v-76.6Z" fill="#fff" stroke="#1d1d1b" stroke-linecap="round" stroke-linejoin="round" stroke-width="2"/>
    <path id="Trazado_106047" data-name="Trazado 106047" d="M3807.646-1456.5l7.741-5.75,17.472,17.03s-27.425,20.568-4.424,36.27l-16.587,41.358-23-3.318,4.19-39.17Z" fill="#fff" stroke="#1d1d1b" stroke-linecap="round" stroke-linejoin="round" stroke-width="2"/>
    <path id="Trazado_106048" data-name="Trazado 106048" d="M3902.746-1464.016s-2.212,16.366-12.827,16.808l-1.106,78.071h17.693l8.215-90.677Z" fill="#fff" stroke="#1d1d1b" stroke-linecap="round" stroke-linejoin="round" stroke-width="2"/>
    <path id="Trazado_106049" data-name="Trazado 106049" d="M3941.007-1451.189l8.4,8.626s-25.345,21.01-3.494,36.049l-17.074,41.358-22.337-3.981,3.893-39.035Z" fill="#fff" stroke="#1d1d1b" stroke-linecap="round" stroke-linejoin="round" stroke-width="2"/>
    <path id="Trazado_106050" data-name="Trazado 106050" d="M4002.933-1465.564l25.169,7.74s-15,48.214-15.217,50.868-5.971,39.588-5.971,39.588h-16.145l-1.327-81.609S3998.731-1445.66,4002.933-1465.564Z" fill="#fff" stroke="#1d1d1b" stroke-linecap="round" stroke-linejoin="round" stroke-width="2"/>
    <path id="Trazado_106051" data-name="Trazado 106051" d="M4051.81-1444.111l-38.666,35.939-6.23,40.8,22.448,4.866,18.246-45.67S4027.261-1414.254,4051.81-1444.111Z" fill="#fff" stroke="#1d1d1b" stroke-linecap="round" stroke-linejoin="round" stroke-width="2"/>
    <path id="Trazado_106052" data-name="Trazado 106052" d="M4115.652-1468.292l22.116,6.782s-4.423,20.053,0,25.36l-14.154,26.245-7.962,37.306-15.629,1.619V-1450.6S4112.7-1457.086,4115.652-1468.292Z" fill="#fff" stroke="#1d1d1b" stroke-linecap="round" stroke-linejoin="round" stroke-width="2"/>
    <path id="Trazado_106053" data-name="Trazado 106053" d="M4126.268-1411.379l22.116-10.616s.59,8.257,7.667,10.616l-14.892,44.011-25.507-5.231,7.962-37.306Z" fill="#fff" stroke="#1d1d1b" stroke-linecap="round" stroke-linejoin="round" stroke-width="2"/>
    <path id="Trazado_106054" data-name="Trazado 106054" d="M4229.182-1468.292l21.822,9.436s-11.206,32.143,16.808,32.438l2.359,17.4-33.591,1.179,27.988,16.514-10.616,26.244-24.77-4.128h-13.859l-1.18-81.093S4225.349-1449.714,4229.182-1468.292Z" fill="#fff" stroke="#1d1d1b" stroke-linecap="round" stroke-linejoin="round" stroke-width="2"/>
    <line id="Línea_188" data-name="Línea 188" x1="5.485" y2="36.884" transform="translate(4231.095 -1405.777)" fill="none" stroke="#1d1d1b" stroke-linecap="round" stroke-linejoin="round" stroke-width="2"/>
    <path id="Trazado_106055" data-name="Trazado 106055" d="M4338.879-1465.343s-2.654,14.6-14.6,17.693v78.758l40.252,5.947,4.423-9.654-21.232-33.178,34.944,17.4-6.192-35.608s-24.107-1.769-14.818-32.953Z" fill="#fff" stroke="#1d1d1b" stroke-linecap="round" stroke-linejoin="round" stroke-width="2"/>
    <line id="Línea_189" data-name="Línea 189" x1="6.822" y2="39.34" transform="translate(4340.903 -1405.777)" fill="none" stroke="#1d1d1b" stroke-linecap="round" stroke-linejoin="round" stroke-width="2"/>
    <circle id="Elipse_4042" data-name="Elipse 4042" cx="14.598" cy="14.598" r="14.598" transform="translate(3452.848 -1512.487)" fill="#ff9696"/>
    <path id="Trazado_106056" data-name="Trazado 106056" d="M3682.91-1455.612l-2.654,44.675-6.192,38.338,26.318,3.462,17.914-40.252s-20.125-11.058-3.1-30.963l6.635-5.529-16.366-17.282S3693.526-1446.765,3682.91-1455.612Z" fill="#fff" stroke="#1d1d1b" stroke-linecap="round" stroke-linejoin="round" stroke-width="2"/>
    <text id="_1" data-name="1" transform="translate(3462.504 -1491.691)" fill="#fff" font-size="16" font-family="Roboto-Bold, Roboto" font-weight="700"><tspan x="0" y="0">1</tspan></text>
    <circle id="Elipse_4043" data-name="Elipse 4043" cx="14.598" cy="14.598" r="14.598" transform="translate(3562.421 -1512.487)" fill="#ff9696"/>
    <text id="_2" data-name="2" transform="translate(3572.077 -1491.691)" fill="#fff" font-size="16" font-family="Roboto-Bold, Roboto" font-weight="700"><tspan x="0" y="0">2</tspan></text>
    <circle id="Elipse_4044" data-name="Elipse 4044" cx="14.598" cy="14.598" r="14.598" transform="translate(3668.645 -1512.487)" fill="#ff9696"/>
    <text id="_3" data-name="3" transform="translate(3678.301 -1491.691)" fill="#fff" font-size="16" font-family="Roboto-Bold, Roboto" font-weight="700"><tspan x="0" y="0">3</tspan></text>
    <circle id="Elipse_4045" data-name="Elipse 4045" cx="14.598" cy="14.598" r="14.598" transform="translate(3778.672 -1512.487)" fill="#ff9696"/>
    <text id="_4" data-name="4" transform="translate(3788.328 -1491.691)" fill="#fff" font-size="16" font-family="Roboto-Bold, Roboto" font-weight="700"><tspan x="0" y="0">4</tspan></text>
    <circle id="Elipse_4046" data-name="Elipse 4046" cx="14.598" cy="14.598" r="14.598" transform="translate(3900.122 -1512.487)" fill="#ff9696"/>
    <text id="_5" data-name="5" transform="translate(3909.778 -1491.691)" fill="#fff" font-size="16" font-family="Roboto-Bold, Roboto" font-weight="700"><tspan x="0" y="0">5</tspan></text>
    <circle id="Elipse_4047" data-name="Elipse 4047" cx="14.598" cy="14.598" r="14.598" transform="translate(4006.914 -1512.487)" fill="#ff9696"/>
    <text id="_6" data-name="6" transform="translate(4016.57 -1491.691)" fill="#fff" font-size="16" font-family="Roboto-Bold, Roboto" font-weight="700"><tspan x="0" y="0">6</tspan></text>
    <circle id="Elipse_4048" data-name="Elipse 4048" cx="14.598" cy="14.598" r="14.598" transform="translate(4108.571 -1512.487)" fill="#ff9696"/>
    <text id="_7" data-name="7" transform="translate(4118.228 -1491.691)" fill="#fff" font-size="16" font-family="Roboto-Bold, Roboto" font-weight="700"><tspan x="0" y="0">7</tspan></text>
    <circle id="Elipse_4049" data-name="Elipse 4049" cx="14.598" cy="14.598" r="14.598" transform="translate(4219.239 -1512.487)" fill="#ff9696"/>
    <text id="_8" data-name="8" transform="translate(4228.895 -1491.691)" fill="#fff" font-size="16" font-family="Roboto-Bold, Roboto" font-weight="700"><tspan x="0" y="0">8</tspan></text>
    <circle id="Elipse_4050" data-name="Elipse 4050" cx="14.598" cy="14.598" r="14.598" transform="translate(4333.127 -1512.487)" fill="#ff9696"/>
    <text id="_9" data-name="9" transform="translate(4342.783 -1491.691)" fill="#fff" font-size="16" font-family="Roboto-Bold, Roboto" font-weight="700"><tspan x="0" y="0">9</tspan></text>
    <path id="Trazado_106044" data-name="Trazado 106044" d="M3595.423-1371.525l-16.459,9.391-20.347-33.027,22.123-9.2" fill="#fff" stroke="#1d1d1b" stroke-linecap="round" stroke-linejoin="round" stroke-width="2"/>
    <path id="Trazado_106043" data-name="Trazado 106043" d="M3553.773-1404.892v-41.075s13.035-5.825,14.977-17.2l23.575,8.043s-8.321,31.341,15.809,28.845l7.765,46.04-20.476,8.71-14.684-32.84Z" fill="#fff" stroke="#1d1d1b" stroke-linecap="round" stroke-linejoin="round" stroke-width="2"/>
  </g>
</svg>
