<svg id="Grupo_58949" data-name="Grupo 58949" xmlns="http://www.w3.org/2000/svg" width="178.871" height="145.666" viewBox="0 0 178.871 145.666">
  <path id="Trazado_106410" data-name="Trazado 106410" d="M694.089,52.637c-29.518-17.042-77.221-17.042-106.545,0s-29.173,44.674.345,61.716,77.221,17.042,106.549,0S723.607,69.679,694.089,52.637Z" transform="translate(-554.064 18.531)" fill="#c595ff"/>
  <g id="Grupo_58903" data-name="Grupo 58903">
    <path id="Trazado_106411" data-name="Trazado 106411" d="M625.427,70.678,621.4,65.2a4.764,4.764,0,0,0-3.472-1.928l-5.937-.455-9.435-5.733,3.526-2.037a.317.317,0,0,0,0-.55l-1.469-.834a1.907,1.907,0,0,0-1.9.006L568.152,73.65a.318.318,0,0,0,0,.55l1.431.826a1.906,1.906,0,0,0,1.906,0l15-8.665,9.3,5.336,1.217,3.42a5.4,5.4,0,0,0,5.09,3.591h8.679l5.89,3.4,14.231-8.27Z" transform="translate(-551.684 32.296)" fill="#9d73d8"/>
    <path id="Trazado_106412" data-name="Trazado 106412" d="M574.013,67.455a9.858,9.858,0,0,0-8.945,0c-2.46,1.431-2.448,3.75.03,5.181a9.853,9.853,0,0,0,8.943,0C576.5,71.2,576.489,68.885,574.013,67.455Z" transform="translate(-556.519 45.46)" fill="#e0e0e0"/>
    <g id="Grupo_58861" data-name="Grupo 58861" transform="translate(10.142)">
      <g id="Grupo_58859" data-name="Grupo 58859" transform="translate(19.182)">
        <path id="Trazado_106413" data-name="Trazado 106413" d="M586.736,11.874l1.739-.993.109,38.014,0,0-14.018,8-.006-1.991-.1-36.023Z" transform="translate(-574.452 -10.881)" fill="#f0f0f0"/>
        <path id="Trazado_106414" data-name="Trazado 106414" d="M580.651,47.9l-.1-36.023,1.739-.993L582.4,48.9l0,0-1.746-1Z" transform="translate(-568.264 -10.881)" opacity="0.1"/>
        <path id="Trazado_106415" data-name="Trazado 106415" d="M574.5,36.262l12.277-7.01,1.746,1-14.018,8Z" transform="translate(-574.4 7.768)" opacity="0.2"/>
      </g>
      <g id="Grupo_58860" data-name="Grupo 58860" transform="translate(0 10.952)">
        <path id="Trazado_106416" data-name="Trazado 106416" d="M577.217,17.309l1.739-.993.109,38.014,0,0-14.018,8-.006-1.991-.1-36.023Z" transform="translate(-564.933 -16.316)" fill="#f0f0f0"/>
        <path id="Trazado_106417" data-name="Trazado 106417" d="M571.132,53.332l-.1-36.023,1.739-.993.109,38.014,0,0-1.746-1Z" transform="translate(-558.745 -16.316)" opacity="0.1"/>
        <path id="Trazado_106418" data-name="Trazado 106418" d="M564.984,41.7l12.277-7.01,1.747,1-14.018,8Z" transform="translate(-564.881 2.333)" opacity="0.2"/>
      </g>
    </g>
    <g id="Grupo_58894" data-name="Grupo 58894" transform="translate(16.492 14.199)">
      <g id="Grupo_58870" data-name="Grupo 58870">
        <g id="Grupo_58869" data-name="Grupo 58869">
          <g id="Grupo_58868" data-name="Grupo 58868">
            <path id="Trazado_106419" data-name="Trazado 106419" d="M605.08,20.23l0,0a4.182,4.182,0,0,0-3.484-2.3,1.365,1.365,0,0,0-.455.089L569.609,35.958a3.052,3.052,0,0,0-1.525,2.622v68.209a2.9,2.9,0,0,0,3.885,2.6l.012-.01a.762.762,0,0,0,.121-.048l31.535-17.971a3.015,3.015,0,0,0,1.523-2.62V20.558A.726.726,0,0,0,605.08,20.23Z" transform="translate(-568.084 -17.928)" fill="#455a64"/>
            <path id="Trazado_106420" data-name="Trazado 106420" d="M570.267,40.856a1.509,1.509,0,0,1,.762-1.312l29.28-16.657a.754.754,0,0,1,1.127.655v55a1.515,1.515,0,0,1-.762,1.312l-29.28,16.683a.753.753,0,0,1-1.126-.655Z" transform="translate(-565.868 -12.994)" fill="#bb83ff"/>
            <path id="Trazado_106421" data-name="Trazado 106421" d="M570.267,40.856a1.509,1.509,0,0,1,.762-1.312l29.28-16.657a.754.754,0,0,1,1.127.655v55a1.515,1.515,0,0,1-.762,1.312l-29.28,16.683a.753.753,0,0,1-1.126-.655Z" transform="translate(-565.868 -12.994)" opacity="0.2"/>
            <path id="Trazado_106422" data-name="Trazado 106422" d="M570.267,40.856a1.509,1.509,0,0,1,.762-1.312l29.28-16.657a.754.754,0,0,1,1.127.655v55a1.515,1.515,0,0,1-.762,1.312l-29.28,16.683a.753.753,0,0,1-1.126-.655Z" transform="translate(-565.868 -12.994)" fill="#fff" opacity="0.1"/>
            <path id="Trazado_106423" data-name="Trazado 106423" d="M568.084,28.843V97.052a2.9,2.9,0,0,0,3.885,2.6l.012-.01a.75.75,0,0,1-1.008-.7V30.727a3.013,3.013,0,0,1,.51-1.665L568.4,27.519A3,3,0,0,0,568.084,28.843Z" transform="translate(-568.084 -8.191)" opacity="0.3"/>
            <path id="Trazado_106424" data-name="Trazado 106424" d="M601.441,17.928a1.366,1.366,0,0,0-.456.089L569.452,35.958a3.012,3.012,0,0,0-1.213,1.3l3.087,1.544a3.023,3.023,0,0,1,1.016-.957L603.877,19.9a.751.751,0,0,1,1.046.328l0,0A4.182,4.182,0,0,0,601.441,17.928Z" transform="translate(-567.927 -17.928)" fill="#fff" opacity="0.1"/>
            <g id="Grupo_58867" data-name="Grupo 58867" transform="translate(15.692 12.608)">
              <g id="Grupo_58864" data-name="Grupo 58864" transform="translate(0 0.575)">
                <g id="Grupo_58862" data-name="Grupo 58862" transform="translate(1.592)">
                  <path id="Trazado_106425" data-name="Trazado 106425" d="M583.247,24.525c.222-.127.4-.028.407.226a.9.9,0,0,1-.4.7l-6.189,3.573c-.222.127-.4.02-.4-.234a.875.875,0,0,1,.4-.689Z" transform="translate(-576.661 -24.47)" fill="#263238"/>
                </g>
                <g id="Grupo_58863" data-name="Grupo 58863" transform="translate(0 4.489)">
                  <path id="Trazado_106426" data-name="Trazado 106426" d="M576.274,26.753c.222-.129.4-.026.4.228a.886.886,0,0,1-.4.7c-.222.129-.405.024-.405-.232A.878.878,0,0,1,576.274,26.753Z" transform="translate(-575.871 -26.697)" fill="#263238"/>
                </g>
              </g>
              <g id="Grupo_58865" data-name="Grupo 58865" transform="translate(3.557)">
                <path id="Trazado_106427" data-name="Trazado 106427" d="M578.442,24.295c.441-.256.8-.052.8.457a1.765,1.765,0,0,1-.8,1.388c-.441.256-.808.046-.81-.461A1.768,1.768,0,0,1,578.442,24.295Z" transform="translate(-577.636 -24.184)" fill="#263238"/>
              </g>
              <g id="Grupo_58866" data-name="Grupo 58866" transform="translate(2.725 64.101)">
                <path id="Trazado_106428" data-name="Trazado 106428" d="M578.863,56.218c.9-.52,1.628-.107,1.632.929a3.6,3.6,0,0,1-1.622,2.829c-.9.522-1.648.095-1.65-.941A3.6,3.6,0,0,1,578.863,56.218Z" transform="translate(-577.223 -55.994)" fill="#263238"/>
              </g>
            </g>
          </g>
        </g>
      </g>
      <g id="Grupo_58872" data-name="Grupo 58872" transform="translate(4.356 9.031)">
        <g id="Grupo_58871" data-name="Grupo 58871">
          <path id="Trazado_106429" data-name="Trazado 106429" d="M587.641,22.409l10.648,8.839-3.881,2.242-10.647-8.839Z" transform="translate(-556.525 -22.409)" fill="#bb83ff"/>
          <path id="Trazado_106430" data-name="Trazado 106430" d="M583.79,24.635l10.646,8.838-3.881,2.242L579.91,26.877Z" transform="translate(-560.434 -20.15)" fill="#bb83ff"/>
          <path id="Trazado_106431" data-name="Trazado 106431" d="M581.865,25.747l10.644,8.837-3.881,2.242L577.985,27.99Z" transform="translate(-562.389 -19.02)" fill="#fff"/>
          <path id="Trazado_106432" data-name="Trazado 106432" d="M585.716,23.522l10.647,8.839L592.481,34.6l-10.646-8.838Z" transform="translate(-558.48 -21.279)" fill="#fff"/>
          <path id="Trazado_106433" data-name="Trazado 106433" d="M576.089,29.086l10.641,8.836-3.881,2.242-10.64-8.835Z" transform="translate(-568.253 -15.631)" fill="#bb83ff"/>
          <path id="Trazado_106434" data-name="Trazado 106434" d="M579.939,26.86,590.583,35.7,586.7,37.939,576.059,29.1Z" transform="translate(-564.344 -17.89)" fill="#bb83ff"/>
          <path id="Trazado_106435" data-name="Trazado 106435" d="M570.245,32.485,574.2,30.2l10.64,8.835-3.966,2.291Z" transform="translate(-570.245 -14.501)" fill="#fff"/>
          <path id="Trazado_106436" data-name="Trazado 106436" d="M578.014,27.973l10.642,8.836-3.881,2.242-10.641-8.836Z" transform="translate(-566.298 -16.761)" fill="#fff"/>
        </g>
        <path id="Trazado_106437" data-name="Trazado 106437" d="M592.925,26.8l-3.881,2.243h0a1.5,1.5,0,0,0,2.247,1.3h0a3.272,3.272,0,0,0,1.634-2.835Z" transform="translate(-551.162 -17.957)" fill="#bb83ff"/>
        <path id="Trazado_106438" data-name="Trazado 106438" d="M591,27.908l-3.881,2.241h0a1.5,1.5,0,0,0,2.247,1.3h0A3.272,3.272,0,0,0,591,28.611Z" transform="translate(-553.117 -16.827)" fill="#e0e0e0"/>
        <path id="Trazado_106439" data-name="Trazado 106439" d="M589.073,29.02l-3.881,2.243h0a1.5,1.5,0,0,0,2.247,1.3h0a3.272,3.272,0,0,0,1.634-2.835Z" transform="translate(-555.073 -15.698)" fill="#bb83ff"/>
        <path id="Trazado_106440" data-name="Trazado 106440" d="M587.147,30.133l-3.881,2.241h0a1.5,1.5,0,0,0,2.247,1.3h0a3.272,3.272,0,0,0,1.634-2.833Z" transform="translate(-557.028 -14.568)" fill="#e0e0e0"/>
        <path id="Trazado_106441" data-name="Trazado 106441" d="M585.22,31.245l-3.879,2.243h0a1.5,1.5,0,0,0,2.245,1.3h0a3.273,3.273,0,0,0,1.634-2.835Z" transform="translate(-558.982 -13.439)" fill="#bb83ff"/>
        <path id="Trazado_106442" data-name="Trazado 106442" d="M583.3,32.358,579.414,34.6h0a1.5,1.5,0,0,0,2.247,1.3h0a3.279,3.279,0,0,0,1.636-2.835Z" transform="translate(-560.938 -12.309)" fill="#e0e0e0"/>
        <path id="Trazado_106443" data-name="Trazado 106443" d="M581.369,33.47l-3.881,2.243h0a1.5,1.5,0,0,0,2.247,1.3h0a3.272,3.272,0,0,0,1.634-2.835Z" transform="translate(-562.893 -11.181)" fill="#bb83ff"/>
        <path id="Trazado_106444" data-name="Trazado 106444" d="M592.925,26.8l-3.881,2.243h0a1.5,1.5,0,0,0,2.247,1.3h0a3.272,3.272,0,0,0,1.634-2.835Z" transform="translate(-551.162 -17.957)" opacity="0.2"/>
        <path id="Trazado_106445" data-name="Trazado 106445" d="M589.073,29.02l-3.881,2.243h0a1.5,1.5,0,0,0,2.247,1.3h0a3.272,3.272,0,0,0,1.634-2.835Z" transform="translate(-555.073 -15.698)" opacity="0.2"/>
        <path id="Trazado_106446" data-name="Trazado 106446" d="M585.22,31.245l-3.879,2.243h0a1.5,1.5,0,0,0,2.245,1.3h0a3.273,3.273,0,0,0,1.634-2.835Z" transform="translate(-558.982 -13.439)" opacity="0.2"/>
        <path id="Trazado_106447" data-name="Trazado 106447" d="M581.369,33.47l-3.881,2.243h0a1.5,1.5,0,0,0,2.247,1.3h0a3.272,3.272,0,0,0,1.634-2.835Z" transform="translate(-562.893 -11.181)" opacity="0.2"/>
        <path id="Trazado_106448" data-name="Trazado 106448" d="M579.485,34.583l-3.964,2.291h0a1.5,1.5,0,0,0,2.245,1.3h0a3.442,3.442,0,0,0,1.719-2.98Z" transform="translate(-564.89 -10.051)" fill="#e0e0e0"/>
      </g>
      <g id="Grupo_58878" data-name="Grupo 58878" transform="translate(12.408 43.609)">
        <g id="Grupo_58873" data-name="Grupo 58873" transform="translate(2.107 1.398)">
          <path id="Trazado_106449" data-name="Trazado 106449" d="M584.246,40.262a9.585,9.585,0,0,0-3.295,1.018,10.5,10.5,0,0,0-5.117,5.89,9.545,9.545,0,0,0-.544,3.406,16.092,16.092,0,0,1,1.1-3.178,13.512,13.512,0,0,1,4.861-5.6A16.08,16.08,0,0,1,584.246,40.262Z" transform="translate(-575.287 -40.262)" fill="#bb83ff"/>
        </g>
        <g id="Grupo_58874" data-name="Grupo 58874" transform="translate(2.525 13.608)">
          <path id="Trazado_106450" data-name="Trazado 106450" d="M581,51.129a6.086,6.086,0,0,1-1.854-.322,5.249,5.249,0,0,1-3.065-2.688,6.047,6.047,0,0,1-.56-1.8,4.212,4.212,0,0,0,.25,1.933,4.559,4.559,0,0,0,3.283,2.88A4.245,4.245,0,0,0,581,51.129Z" transform="translate(-575.495 -46.321)" fill="#bb83ff"/>
        </g>
        <g id="Grupo_58875" data-name="Grupo 58875" transform="translate(9.611 7.96)">
          <path id="Trazado_106451" data-name="Trazado 106451" d="M582.469,43.518a14.859,14.859,0,0,1-.038,2.612,13.1,13.1,0,0,1-1.862,5.5,14.733,14.733,0,0,1-1.558,2.1,8.093,8.093,0,0,0,1.943-1.834,9.448,9.448,0,0,0,1.943-5.735A8.085,8.085,0,0,0,582.469,43.518Z" transform="translate(-579.011 -43.518)" fill="#bb83ff"/>
        </g>
        <g id="Grupo_58876" data-name="Grupo 58876" transform="translate(0 4.373)">
          <path id="Trazado_106452" data-name="Trazado 106452" d="M577.118,41.738a9.026,9.026,0,0,0-1.894,2.634,9.909,9.909,0,0,0-.512,7.323,9.027,9.027,0,0,0,1.511,2.872,15.221,15.221,0,0,1-.963-3.015,12.778,12.778,0,0,1,.486-6.962A15.316,15.316,0,0,1,577.118,41.738Z" transform="translate(-574.242 -41.738)" fill="#bb83ff"/>
        </g>
        <g id="Grupo_58877" data-name="Grupo 58877" transform="translate(6.576)">
          <path id="Trazado_106453" data-name="Trazado 106453" d="M586.225,44.324a5.023,5.023,0,0,0-.923-2.463,5.35,5.35,0,0,0-5.423-2.2,5.015,5.015,0,0,0-2.374,1.124,6.752,6.752,0,0,1,2.436-.671,5.869,5.869,0,0,1,5,2.029A6.726,6.726,0,0,1,586.225,44.324Z" transform="translate(-577.505 -39.568)" fill="#bb83ff"/>
        </g>
      </g>
      <g id="Grupo_58893" data-name="Grupo 58893" transform="translate(16.849 24.831)">
        <path id="Trazado_106454" data-name="Trazado 106454" d="M589.151,36.888h0a4.1,4.1,0,0,1,4.457,3.363l1.511,8.458,9.459,6.614-2.114,2.571-9-4.726a4.476,4.476,0,0,1-2.211-2.692l-2.9-9.782Z" transform="translate(-564.355 -23.533)" fill="#ffa8a7"/>
        <g id="Grupo_58879" data-name="Grupo 58879" transform="translate(24 13.319)">
          <path id="Trazado_106455" data-name="Trazado 106455" d="M592.661,45.967a4.4,4.4,0,0,0,1.912-2.005l-.85-3.875a4.1,4.1,0,0,0-4.425-3.206l-.147.014-.8,3.807,1.257,5.616A4.388,4.388,0,0,0,592.661,45.967Z" transform="translate(-588.355 -36.859)" fill="#455a64"/>
          <path id="Trazado_106456" data-name="Trazado 106456" d="M592.028,42.389a4.388,4.388,0,0,1-3.049.351l.31,1.384c1.175.262,4.179.173,4.963-2.307l-.312-1.433A4.4,4.4,0,0,1,592.028,42.389Z" transform="translate(-587.721 -33.281)" fill="#455a64"/>
          <path id="Trazado_106457" data-name="Trazado 106457" d="M592.661,45.967a4.4,4.4,0,0,0,1.912-2.005l-.85-3.875a4.1,4.1,0,0,0-4.425-3.206l-.147.014-.8,3.807,1.257,5.616A4.388,4.388,0,0,0,592.661,45.967Z" transform="translate(-588.355 -36.859)" fill="#fff" opacity="0.2"/>
          <path id="Trazado_106458" data-name="Trazado 106458" d="M592.028,42.389a4.388,4.388,0,0,1-3.049.351l.31,1.384c1.175.262,4.179.173,4.963-2.307l-.312-1.433A4.4,4.4,0,0,1,592.028,42.389Z" transform="translate(-587.721 -33.281)" fill="#fff" opacity="0.5"/>
        </g>
        <path id="Trazado_106459" data-name="Trazado 106459" d="M603.335,40.5s-.375-2.876-2.094-3.627c0,0-4.1,1.231-7.515,2.525a40.182,40.182,0,0,0-3.952,1.681,32.353,32.353,0,0,1-4.036,3.2,4.982,4.982,0,0,1-1.624.488l-.008,0a5.608,5.608,0,0,0-2.019.736,12.44,12.44,0,0,0-5.642,9.776c.006,2.356,1.1,3.782,2.739,3.982v.008h.069a3.581,3.581,0,0,0,.776-.008c2.843-.026,7.406-.048,9.2-.56C597.6,56.257,604.181,50.207,603.335,40.5Z" transform="translate(-576.445 -23.523)" fill="#455a64"/>
        <g id="Grupo_58880" data-name="Grupo 58880" transform="translate(18.594 13.578)">
          <path id="Trazado_106460" data-name="Trazado 106460" d="M585.994,39.211l1.227-2.223,4.929,3.323L590.2,42.933a3.286,3.286,0,0,1-2.646.1,3.367,3.367,0,0,1-1.789-2A2.376,2.376,0,0,1,585.994,39.211Z" transform="translate(-585.672 -36.988)" fill="#ffa8a7"/>
          <path id="Trazado_106461" data-name="Trazado 106461" d="M586.671,37.142a4.758,4.758,0,0,0,3.428,4.407l1.038-1.394Z" transform="translate(-584.658 -36.832)" opacity="0.2"/>
        </g>
        <g id="Grupo_58883" data-name="Grupo 58883" transform="translate(17.422)">
          <g id="Grupo_58882" data-name="Grupo 58882">
            <path id="Trazado_106462" data-name="Trazado 106462" d="M585.692,39.819a9.031,9.031,0,0,1-.159-3.234,3.071,3.071,0,0,1,1.937-2.42,3.659,3.659,0,0,1,2.2-1.926,10,10,0,0,1,2.89-.351,13.97,13.97,0,0,1,3.218.179,4.756,4.756,0,0,1,2.757,1.562,4.588,4.588,0,0,1,.8,3.531A10.36,10.36,0,0,1,598,40.615c-2.07.147-4.175.383-6.245.53a16.809,16.809,0,0,1-3.168.028A5.883,5.883,0,0,1,585.692,39.819Z" transform="translate(-584.735 -28.602)" fill="#263238"/>
            <path id="Trazado_106463" data-name="Trazado 106463" d="M598.7,33.4a17.683,17.683,0,0,1-1.014,9.445,3.362,3.362,0,0,1-1.282,1.777,3.551,3.551,0,0,1-2.291.189A11.646,11.646,0,0,1,590.5,43.8a4.943,4.943,0,0,1-2.5-2.7,2.166,2.166,0,0,1-2.193-.858,4.105,4.105,0,0,1-.711-2.4,1.474,1.474,0,0,1,.586-1.421,1.369,1.369,0,0,1,1.388.345,4.142,4.142,0,0,1,1.352,2.029c.357-1.32.915-2.594,1.274-3.913a2.223,2.223,0,0,1,.768-1.376,2.473,2.473,0,0,1,1.914.008A12.588,12.588,0,0,0,598.7,33.4Z" transform="translate(-585.091 -27.143)" fill="#ffa8a7"/>
            <path id="Trazado_106464" data-name="Trazado 106464" d="M590.086,35.345l1.544,2.6-1.84.346Z" transform="translate(-580.321 -25.078)" fill="#f28f8f"/>
            <path id="Trazado_106465" data-name="Trazado 106465" d="M588.929,37.25l1.4.679a.912.912,0,0,1-1.06.3A.823.823,0,0,1,588.929,37.25Z" transform="translate(-581.234 -23.144)" fill="#f28f8f"/>
            <path id="Trazado_106466" data-name="Trazado 106466" d="M588.929,37.25l1.4.679a.912.912,0,0,1-1.06.3A.823.823,0,0,1,588.929,37.25Z" transform="translate(-581.234 -23.144)" opacity="0.3"/>
            <path id="Trazado_106467" data-name="Trazado 106467" d="M589.752,38.155a.854.854,0,0,1-.486-.046.747.747,0,0,1-.375-.738.9.9,0,0,1,.552.191A.879.879,0,0,1,589.752,38.155Z" transform="translate(-581.233 -23.021)" fill="#f28f8f"/>
            <path id="Trazado_106468" data-name="Trazado 106468" d="M588.615,35.636a.529.529,0,1,0,.578-.474A.528.528,0,0,0,588.615,35.636Z" transform="translate(-581.515 -25.266)" fill="#263238"/>
            <path id="Trazado_106469" data-name="Trazado 106469" d="M590.815,35.772a.529.529,0,0,0,1.052.107.529.529,0,1,0-1.052-.107Z" transform="translate(-579.282 -25.128)" fill="#263238"/>
            <path id="Trazado_106470" data-name="Trazado 106470" d="M591.172,34.568c.363.308.724.617,1.086.923a.754.754,0,0,0-.145-.848A.9.9,0,0,0,591.172,34.568Z" transform="translate(-578.917 -25.965)" fill="#263238"/>
            <path id="Trazado_106471" data-name="Trazado 106471" d="M589.668,34.584l-1.247.689a.753.753,0,0,1,.312-.8A.892.892,0,0,1,589.668,34.584Z" transform="translate(-581.735 -26.054)" fill="#263238"/>
            <g id="Grupo_58881" data-name="Grupo 58881" transform="translate(0.94)">
              <path id="Trazado_106472" data-name="Trazado 106472" d="M599.22,37.579a43.336,43.336,0,0,1-13.663.01c.212-5.532,2.7-7.339,6.989-7.339S599.252,32.527,599.22,37.579Z" transform="translate(-585.557 -30.25)" fill="#455a64"/>
              <path id="Trazado_106473" data-name="Trazado 106473" d="M597.354,36.731a8.514,8.514,0,0,0-1.215-4.923l-1.793-.5a5.94,5.94,0,0,0-2.588-.139l-1.713.288a2.728,2.728,0,0,0-2.259,2.374l-.391,3.335h0A43.239,43.239,0,0,0,597.354,36.731Z" transform="translate(-583.691 -29.402)" fill="#455a64"/>
              <path id="Trazado_106474" data-name="Trazado 106474" d="M597.354,36.731a8.514,8.514,0,0,0-1.215-4.923l-1.793-.5a5.94,5.94,0,0,0-2.588-.139l-1.713.288a2.728,2.728,0,0,0-2.259,2.374l-.391,3.335h0A43.239,43.239,0,0,0,597.354,36.731Z" transform="translate(-583.691 -29.402)" fill="#fff" opacity="0.29"/>
              <path id="Trazado_106475" data-name="Trazado 106475" d="M597.892,31.577H597.1c-.256,0-.512.012-.766.032a10.518,10.518,0,0,0-6.265,2.66l-2.672,2.4a43.239,43.239,0,0,0,9.959-.433l1.739-2.1A1.561,1.561,0,0,0,597.892,31.577Z" transform="translate(-583.691 -28.903)" fill="#455a64"/>
              <path id="Trazado_106476" data-name="Trazado 106476" d="M597.892,31.577H597.1c-.256,0-.512.012-.766.032a10.518,10.518,0,0,0-6.265,2.66l-2.672,2.4a43.239,43.239,0,0,0,9.959-.433l1.739-2.1A1.561,1.561,0,0,0,597.892,31.577Z" transform="translate(-583.691 -28.903)" opacity="0.2"/>
            </g>
          </g>
        </g>
        <g id="Grupo_58890" data-name="Grupo 58890" transform="translate(21.95 25.175)">
          <g id="Grupo_58884" data-name="Grupo 58884" transform="translate(0.035)">
            <path id="Trazado_106477" data-name="Trazado 106477" d="M611.671,49.785l-12.118,7.042-12.2-7.042,12.119-7.042Z" transform="translate(-587.355 -42.743)" fill="#bb83ff"/>
          </g>
          <g id="Grupo_58885" data-name="Grupo 58885" transform="translate(0.035)" opacity="0.3">
            <path id="Trazado_106478" data-name="Trazado 106478" d="M611.671,49.785l-12.118,7.042-12.2-7.042,12.119-7.042Z" transform="translate(-587.355 -42.743)" fill="#fff"/>
          </g>
          <g id="Grupo_58886" data-name="Grupo 58886" transform="translate(12.198 7.042)">
            <path id="Trazado_106479" data-name="Trazado 106479" d="M605.544,46.238l-.035,12.328L593.39,65.608l.035-12.328Z" transform="translate(-593.39 -46.238)" fill="#bb83ff"/>
          </g>
          <g id="Grupo_58887" data-name="Grupo 58887" transform="translate(12.198 7.042)" opacity="0.1">
            <path id="Trazado_106480" data-name="Trazado 106480" d="M605.544,46.238l-.035,12.328L593.39,65.608l.035-12.328Z" transform="translate(-593.39 -46.238)" fill="#fff"/>
          </g>
          <g id="Grupo_58888" data-name="Grupo 58888" transform="translate(0 7.042)">
            <path id="Trazado_106481" data-name="Trazado 106481" d="M599.57,53.28l-.035,12.328-12.2-7.042.035-12.328Z" transform="translate(-587.337 -46.238)" fill="#bb83ff"/>
          </g>
          <g id="Grupo_58889" data-name="Grupo 58889" transform="translate(4.339 2.385)">
            <path id="Trazado_106482" data-name="Trazado 106482" d="M595.519,47.662l4.1-2.507-2.094-1.209L593.408,46.4Z" transform="translate(-585.514 -43.907)" fill="#e0e0e0"/>
            <path id="Trazado_106483" data-name="Trazado 106483" d="M598.678,47.681l-2.112-1.259-4.184-2.5L590.3,45.139l4.158,2.542,2.112,1.291,5.58,3.411,2.237-1.3Z" transform="translate(-588.672 -43.927)" fill="#fff"/>
            <path id="Trazado_106484" data-name="Trazado 106484" d="M595.246,45.79l-5.73,3.417,2.244,1.3,5.6-3.422Z" transform="translate(-589.464 -42.035)" fill="#e0e0e0"/>
            <path id="Trazado_106485" data-name="Trazado 106485" d="M598.414,47.478l-2.237,1.3.018.011.035,12.266,2.262-1.314L598.456,47.5Z" transform="translate(-582.703 -40.322)" fill="#e0e0e0"/>
            <path id="Trazado_106486" data-name="Trazado 106486" d="M591.787,48.781l-2.244-1.3-.017.01L589.49,59.8l2.262,1.306.035-12.328Z" transform="translate(-589.49 -40.314)" fill="#fff"/>
            <path id="Trazado_106487" data-name="Trazado 106487" d="M591.787,48.781l-2.244-1.3-.017.01L589.49,59.8l2.262,1.306.035-12.328Z" transform="translate(-589.49 -40.314)" opacity="0.2"/>
          </g>
          <path id="Trazado_106488" data-name="Trazado 106488" d="M594.684,47.639l-2.537,1.551,2.537,1.465,2.529-1.47Z" transform="translate(-582.456 -37.773)" fill="#fff"/>
        </g>
        <g id="Grupo_58891" data-name="Grupo 58891" transform="translate(10.161 17.66)">
          <path id="Trazado_106489" data-name="Trazado 106489" d="M581.513,55.968s.945-13.768,1.143-14.618a3.033,3.033,0,0,1,5.957.29c.183,1.358-1.985,14.553-1.985,14.553l7.855,8.308,1.592,1.461,1.414-.288,3.232.3a.4.4,0,0,1,.351.314h0a.4.4,0,0,1-.294.466l-2.132.522,1.54,1.052a1.863,1.863,0,0,0,.718.3l2.416.457a.443.443,0,0,1,.361.465h0a.443.443,0,0,1-.288.389l-1.3.484a6.251,6.251,0,0,1-5.185-.369l-2.817-1.538a7.265,7.265,0,0,1-1.151-.78l-10.029-8.3A3.917,3.917,0,0,1,581.513,55.968Z" transform="translate(-581.487 -39.014)" fill="#ffa8a7"/>
        </g>
        <g id="Grupo_58892" data-name="Grupo 58892" transform="translate(9.372 17.441)">
          <path id="Trazado_106490" data-name="Trazado 106490" d="M588.785,50.8l1-7.468a3.908,3.908,0,1,0-7.758-.947l-.838,7.629a9.361,9.361,0,0,0,7.593.786Z" transform="translate(-580.999 -38.905)" fill="#455a64"/>
          <path id="Trazado_106491" data-name="Trazado 106491" d="M588.785,50.8l1-7.468a3.908,3.908,0,1,0-7.758-.947l-.838,7.629a9.361,9.361,0,0,0,7.593.786Z" transform="translate(-580.999 -38.905)" fill="#fff" opacity="0.2"/>
          <path id="Trazado_106492" data-name="Trazado 106492" d="M584.848,45.6a9.5,9.5,0,0,1-3.559-1.185l-.194,1.759c3.377,2.593,7.521,1,7.521,1l.266-1.969A9.5,9.5,0,0,1,584.848,45.6Z" transform="translate(-581.096 -33.307)" fill="#455a64"/>
          <path id="Trazado_106493" data-name="Trazado 106493" d="M584.848,45.6a9.5,9.5,0,0,1-3.559-1.185l-.194,1.759c3.377,2.593,7.521,1,7.521,1l.266-1.969A9.5,9.5,0,0,1,584.848,45.6Z" transform="translate(-581.096 -33.307)" fill="#fff" opacity="0.5"/>
        </g>
      </g>
    </g>
    <g id="Grupo_58902" data-name="Grupo 58902" transform="translate(0 79.084)">
      <g id="Grupo_58898" data-name="Grupo 58898" transform="translate(6.988 22.125)">
        <path id="Trazado_106494" data-name="Trazado 106494" d="M575.415,62.83l-6,.173-6-.173c-.258,4.05.532,8.179,1.622,10.2l0,0a2.732,2.732,0,0,0,1.189,1.209,7.04,7.04,0,0,0,6.388,0,2.662,2.662,0,0,0,1.187-1.239C574.889,70.967,575.671,66.86,575.415,62.83Z" transform="translate(-563.368 -59.354)" fill="#fff"/>
        <g id="Grupo_58895" data-name="Grupo 58895" transform="translate(0.049)">
          <path id="Trazado_106495" data-name="Trazado 106495" d="M573.619,62.122c2.35,1.358,2.364,3.557.028,4.915a9.354,9.354,0,0,1-8.484,0c-2.352-1.358-2.364-3.557-.028-4.915A9.354,9.354,0,0,1,573.619,62.122Z" transform="translate(-563.392 -61.105)" fill="#eaeaea"/>
        </g>
        <g id="Grupo_58896" data-name="Grupo 58896" transform="translate(1.368 0.764)">
          <path id="Trazado_106496" data-name="Trazado 106496" d="M572.026,62.278c1.834,1.06,1.844,2.775.02,3.835a7.3,7.3,0,0,1-6.618,0c-1.834-1.06-1.844-2.775-.022-3.835A7.3,7.3,0,0,1,572.026,62.278Z" transform="translate(-564.046 -61.484)" fill="#e0e0e0"/>
        </g>
        <g id="Grupo_58897" data-name="Grupo 58897" transform="translate(1.368 0.764)" opacity="0.15">
          <path id="Trazado_106497" data-name="Trazado 106497" d="M572.026,62.278c1.834,1.06,1.844,2.775.02,3.835a7.3,7.3,0,0,1-6.618,0c-1.834-1.06-1.844-2.775-.022-3.835A7.3,7.3,0,0,1,572.026,62.278Z" transform="translate(-564.046 -61.484)"/>
        </g>
      </g>
      <g id="Grupo_58899" data-name="Grupo 58899" transform="translate(10.688)">
        <path id="Trazado_106498" data-name="Trazado 106498" d="M577.414,50.126C563.9,54.553,563.773,63.6,566.82,70.038c.77,1.3,3.1,2,5.12-6.007l-3.551.455,4.137-2.1,1.076-3.214-3.452.256,4.381-1.842A64.646,64.646,0,0,1,577.414,50.126Z" transform="translate(-565.204 -50.126)" fill="#bb83ff"/>
        <path id="Trazado_106499" data-name="Trazado 106499" d="M577.414,50.126C563.9,54.553,563.773,63.6,566.82,70.038c.77,1.3,3.1,2,5.12-6.007l-3.551.455,4.137-2.1,1.076-3.214-3.452.256,4.381-1.842A64.646,64.646,0,0,1,577.414,50.126Z" transform="translate(-565.204 -50.126)" opacity="0.2"/>
        <path id="Trazado_106500" data-name="Trazado 106500" d="M577.414,50.126C563.9,54.553,563.773,63.6,566.82,70.038c.77,1.3,3.1,2,5.12-6.007l-3.551.455,4.137-2.1,1.076-3.214-3.452.256,4.381-1.842A64.646,64.646,0,0,1,577.414,50.126Z" transform="translate(-565.204 -50.126)" fill="#fff" opacity="0.2"/>
        <path id="Trazado_106501" data-name="Trazado 106501" d="M572.767,51.248c-7.13,5.413-7.773,11.615-5.759,18.092C566.3,63.637,565.525,57.872,572.767,51.248Z" transform="translate(-564.38 -48.987)" fill="#fff"/>
      </g>
      <g id="Grupo_58900" data-name="Grupo 58900" transform="translate(0 9.187)">
        <path id="Trazado_106502" data-name="Trazado 106502" d="M559.9,54.685c13.326,1.876,14.944,10.279,13.175,16.784-.5,1.342-2.549,2.38-5.765-4.744l3.383-.165-4.2-1.266-1.534-2.813,3.254-.337-4.385-.987A61.4,61.4,0,0,0,559.9,54.685Z" transform="translate(-559.9 -54.685)" fill="#bb83ff"/>
        <path id="Trazado_106503" data-name="Trazado 106503" d="M559.9,54.685c13.326,1.876,14.944,10.279,13.175,16.784-.5,1.342-2.549,2.38-5.765-4.744l3.383-.165-4.2-1.266-1.534-2.813,3.254-.337-4.385-.987A61.4,61.4,0,0,0,559.9,54.685Z" transform="translate(-559.9 -54.685)" fill="#fff" opacity="0.2"/>
        <path id="Trazado_106504" data-name="Trazado 106504" d="M559.9,54.685c13.326,1.876,14.944,10.279,13.175,16.784-.5,1.342-2.549,2.38-5.765-4.744l3.383-.165-4.2-1.266-1.534-2.813,3.254-.337-4.385-.987A61.4,61.4,0,0,0,559.9,54.685Z" transform="translate(-559.9 -54.685)" opacity="0.1"/>
        <path id="Trazado_106505" data-name="Trazado 106505" d="M561.854,55.415c7.539,3.855,9.169,9.526,8.369,15.891C569.939,65.878,569.7,60.38,561.854,55.415Z" transform="translate(-557.917 -53.944)" fill="#fff"/>
      </g>
      <g id="Grupo_58901" data-name="Grupo 58901" transform="translate(12.887 12.337)">
        <path id="Trazado_106506" data-name="Trazado 106506" d="M580.207,56.248c-12.222.2-14.618,7.591-13.753,13.653.3,1.266,2.031,2.43,5.727-3.629l-3.029-.528,3.93-.671,1.7-2.364-2.9-.667,4.063-.4A55.435,55.435,0,0,1,580.207,56.248Z" transform="translate(-566.295 -56.248)" fill="#bb83ff"/>
        <path id="Trazado_106507" data-name="Trazado 106507" d="M576.051,56.687c-7.226,2.632-9.33,7.559-9.32,13.387C567.594,65.211,568.426,60.284,576.051,56.687Z" transform="translate(-565.853 -55.802)" fill="#fff"/>
        <path id="Trazado_106508" data-name="Trazado 106508" d="M580.207,56.248c-12.222.2-14.618,7.591-13.753,13.653.3,1.266,2.031,2.43,5.727-3.629l-3.029-.528,3.93-.671,1.7-2.364-2.9-.667,4.063-.4A55.435,55.435,0,0,1,580.207,56.248Z" transform="translate(-566.295 -56.248)" fill="#fff" opacity="0.2"/>
      </g>
    </g>
  </g>
  <g id="Grupo_58948" data-name="Grupo 58948" transform="translate(99.229)">
    <path id="Trazado_106509" data-name="Trazado 106509" d="M614.828,70.678l4.028-5.475a4.764,4.764,0,0,1,3.472-1.928l5.937-.455,9.435-5.733-3.526-2.037a.317.317,0,0,1,0-.55l1.467-.834a1.911,1.911,0,0,1,1.9.006L672.1,73.65a.318.318,0,0,1,0,.55l-1.431.826a1.906,1.906,0,0,1-1.906,0l-15-8.665-9.3,5.336-1.217,3.42a5.4,5.4,0,0,1-5.09,3.591h-8.679l-5.89,3.4-14.231-8.27Z" transform="translate(-608.929 32.296)" fill="#9d73d8"/>
    <path id="Trazado_106510" data-name="Trazado 106510" d="M640.922,67.455a9.853,9.853,0,0,1,8.943,0c2.463,1.431,2.45,3.75-.028,5.181a9.853,9.853,0,0,1-8.943,0C638.431,71.2,638.446,68.885,640.922,67.455Z" transform="translate(-578.774 45.46)" fill="#e0e0e0"/>
    <g id="Grupo_58906" data-name="Grupo 58906" transform="translate(36.185)">
      <g id="Grupo_58904" data-name="Grupo 58904">
        <path id="Trazado_106511" data-name="Trazado 106511" d="M628.946,11.874l-1.739-.993L627.1,48.9l0,0,14.018,8,.006-1.991.1-36.023Z" transform="translate(-627.098 -10.881)" fill="#f0f0f0"/>
        <path id="Trazado_106512" data-name="Trazado 106512" d="M628.843,47.9l.1-36.023-1.739-.993L627.1,48.9l0,0,1.746-1Z" transform="translate(-627.098 -10.881)" opacity="0.1"/>
        <path id="Trazado_106513" data-name="Trazado 106513" d="M641.124,36.262l-12.277-7.01-1.746,1,14.018,8Z" transform="translate(-627.096 7.768)" opacity="0.2"/>
      </g>
      <g id="Grupo_58905" data-name="Grupo 58905" transform="translate(19.182 10.952)">
        <path id="Trazado_106514" data-name="Trazado 106514" d="M638.465,17.309l-1.739-.993-.109,38.014,0,0,14.018,8,.006-1.991.1-36.023Z" transform="translate(-636.617 -16.316)" fill="#f0f0f0"/>
        <path id="Trazado_106515" data-name="Trazado 106515" d="M638.362,53.332l.1-36.023-1.739-.993-.109,38.014,0,0,1.746-1Z" transform="translate(-636.617 -16.316)" opacity="0.1"/>
        <path id="Trazado_106516" data-name="Trazado 106516" d="M650.643,41.7l-12.277-7.01-1.746,1,14.018,8Z" transform="translate(-636.615 2.333)" opacity="0.2"/>
      </g>
    </g>
    <g id="Grupo_58939" data-name="Grupo 58939" transform="translate(0 14.199)">
      <g id="Grupo_58915" data-name="Grupo 58915" transform="translate(26.073)">
        <g id="Grupo_58914" data-name="Grupo 58914">
          <g id="Grupo_58913" data-name="Grupo 58913">
            <path id="Trazado_106517" data-name="Trazado 106517" d="M622.161,20.23l0,0a4.182,4.182,0,0,1,3.484-2.3,1.366,1.366,0,0,1,.455.089l31.533,17.941a3.052,3.052,0,0,1,1.525,2.622v68.209a2.9,2.9,0,0,1-3.885,2.6l-.012-.01a.765.765,0,0,1-.121-.048L623.6,91.358a3.015,3.015,0,0,1-1.523-2.62V20.558A.726.726,0,0,1,622.161,20.23Z" transform="translate(-622.08 -17.928)" fill="#455a64"/>
            <path id="Trazado_106518" data-name="Trazado 106518" d="M654,40.856a1.509,1.509,0,0,0-.762-1.312l-29.28-16.657a.754.754,0,0,0-1.127.655v55a1.515,1.515,0,0,0,.762,1.312l29.28,16.683A.753.753,0,0,0,654,95.884Z" transform="translate(-621.32 -12.994)" fill="#f9e478"/>
            <path id="Trazado_106519" data-name="Trazado 106519" d="M654,40.856a1.509,1.509,0,0,0-.762-1.312l-29.28-16.657a.754.754,0,0,0-1.127.655v55a1.515,1.515,0,0,0,.762,1.312l29.28,16.683A.753.753,0,0,0,654,95.884Z" transform="translate(-621.32 -12.994)" opacity="0.2"/>
            <path id="Trazado_106520" data-name="Trazado 106520" d="M654,40.856a1.509,1.509,0,0,0-.762-1.312l-29.28-16.657a.754.754,0,0,0-1.127.655v55a1.515,1.515,0,0,0,.762,1.312l29.28,16.683A.753.753,0,0,0,654,95.884Z" transform="translate(-621.32 -12.994)" fill="#fff" opacity="0.1"/>
            <path id="Trazado_106521" data-name="Trazado 106521" d="M642.442,28.843V97.052a2.9,2.9,0,0,1-3.885,2.6l-.012-.01a.75.75,0,0,0,1.008-.7V30.727a3.013,3.013,0,0,0-.51-1.665l3.087-1.544A3.031,3.031,0,0,1,642.442,28.843Z" transform="translate(-605.366 -8.191)" opacity="0.3"/>
            <path id="Trazado_106522" data-name="Trazado 106522" d="M625.6,17.928a1.366,1.366,0,0,1,.455.089l31.533,17.941a3.013,3.013,0,0,1,1.213,1.3L655.718,38.8a3.023,3.023,0,0,0-1.016-.957L623.167,19.9a.751.751,0,0,0-1.046.328l0,0A4.182,4.182,0,0,1,625.6,17.928Z" transform="translate(-622.04 -17.928)" fill="#fff" opacity="0.1"/>
            <g id="Grupo_58912" data-name="Grupo 58912" transform="translate(12.8 12.608)">
              <g id="Grupo_58909" data-name="Grupo 58909" transform="translate(0 0.575)">
                <g id="Grupo_58907" data-name="Grupo 58907">
                  <path id="Trazado_106523" data-name="Trazado 106523" d="M628.839,24.525c-.222-.127-.4-.028-.407.226a.9.9,0,0,0,.4.7l6.188,3.573c.222.127.4.02.4-.234a.875.875,0,0,0-.4-.689Z" transform="translate(-628.432 -24.47)" fill="#263238"/>
                </g>
                <g id="Grupo_58908" data-name="Grupo 58908" transform="translate(7.781 4.489)">
                  <path id="Trazado_106524" data-name="Trazado 106524" d="M632.694,26.753c-.222-.129-.4-.026-.4.228a.886.886,0,0,0,.4.7c.222.129.405.024.405-.232A.878.878,0,0,0,632.694,26.753Z" transform="translate(-632.293 -26.697)" fill="#263238"/>
                </g>
              </g>
              <g id="Grupo_58910" data-name="Grupo 58910" transform="translate(3.422)">
                <path id="Trazado_106525" data-name="Trazado 106525" d="M630.93,24.295c-.441-.256-.8-.052-.8.457a1.764,1.764,0,0,0,.8,1.388c.441.256.808.046.81-.461A1.773,1.773,0,0,0,630.93,24.295Z" transform="translate(-630.13 -24.184)" fill="#263238"/>
              </g>
              <g id="Grupo_58911" data-name="Grupo 58911" transform="translate(2.587 64.101)">
                <path id="Trazado_106526" data-name="Trazado 106526" d="M631.348,56.218c-.9-.52-1.628-.107-1.632.929a3.6,3.6,0,0,0,1.622,2.829c.9.522,1.648.095,1.65-.941A3.605,3.605,0,0,0,631.348,56.218Z" transform="translate(-629.716 -55.994)" fill="#263238"/>
              </g>
            </g>
          </g>
        </g>
      </g>
      <g id="Grupo_58917" data-name="Grupo 58917" transform="translate(17.03 9.031)">
        <g id="Grupo_58916" data-name="Grupo 58916">
          <path id="Trazado_106527" data-name="Trazado 106527" d="M628.241,22.409l-10.648,8.839,3.881,2.242,10.647-8.839Z" transform="translate(-617.593 -22.409)" fill="#f9e478"/>
          <path id="Trazado_106528" data-name="Trazado 106528" d="M632.09,24.635l-10.646,8.838,3.881,2.242,10.645-8.837Z" transform="translate(-613.682 -20.15)" fill="#f9e478"/>
          <path id="Trazado_106529" data-name="Trazado 106529" d="M634.015,25.747l-10.645,8.837,3.881,2.242L637.9,27.99Z" transform="translate(-611.727 -19.02)" fill="#fff"/>
          <path id="Trazado_106530" data-name="Trazado 106530" d="M630.166,23.522,619.519,32.36,623.4,34.6l10.646-8.838Z" transform="translate(-615.637 -21.279)" fill="#fff"/>
          <path id="Trazado_106531" data-name="Trazado 106531" d="M639.79,29.086l-10.641,8.836,3.881,2.242,10.64-8.835Z" transform="translate(-605.861 -15.631)" fill="#f9e478"/>
          <path id="Trazado_106532" data-name="Trazado 106532" d="M635.94,26.86,625.3,35.7l3.881,2.242L639.82,29.1Z" transform="translate(-609.772 -17.89)" fill="#f9e478"/>
          <path id="Trazado_106533" data-name="Trazado 106533" d="M645.67,32.485,641.714,30.2l-10.64,8.835,3.966,2.291Z" transform="translate(-603.906 -14.501)" fill="#fff"/>
          <path id="Trazado_106534" data-name="Trazado 106534" d="M637.865,27.973l-10.642,8.836,3.881,2.242,10.641-8.836Z" transform="translate(-607.817 -16.761)" fill="#fff"/>
        </g>
        <path id="Trazado_106535" data-name="Trazado 106535" d="M617.593,26.8l3.881,2.243h0a1.5,1.5,0,0,1-2.247,1.3h0a3.272,3.272,0,0,1-1.634-2.835Z" transform="translate(-617.592 -17.957)" fill="#f9e478"/>
        <path id="Trazado_106536" data-name="Trazado 106536" d="M619.519,27.908l3.881,2.241h0a1.5,1.5,0,0,1-2.247,1.3h0a3.272,3.272,0,0,1-1.634-2.833Z" transform="translate(-615.637 -16.827)" fill="#e0e0e0"/>
        <path id="Trazado_106537" data-name="Trazado 106537" d="M621.445,29.02l3.881,2.243h0a1.5,1.5,0,0,1-2.247,1.3h0a3.273,3.273,0,0,1-1.634-2.835Z" transform="translate(-613.682 -15.698)" fill="#f9e478"/>
        <path id="Trazado_106538" data-name="Trazado 106538" d="M623.371,30.133l3.881,2.241h0a1.5,1.5,0,0,1-2.247,1.3h0a3.272,3.272,0,0,1-1.634-2.833Z" transform="translate(-611.727 -14.568)" fill="#e0e0e0"/>
        <path id="Trazado_106539" data-name="Trazado 106539" d="M625.3,31.245l3.879,2.243h0a1.5,1.5,0,0,1-2.245,1.3h0a3.273,3.273,0,0,1-1.634-2.835Z" transform="translate(-609.771 -13.439)" fill="#f9e478"/>
        <path id="Trazado_106540" data-name="Trazado 106540" d="M627.222,32.358,631.1,34.6h0a1.5,1.5,0,0,1-2.245,1.3h0a3.279,3.279,0,0,1-1.636-2.835Z" transform="translate(-607.817 -12.309)" fill="#e0e0e0"/>
        <path id="Trazado_106541" data-name="Trazado 106541" d="M629.148,33.47l3.881,2.243h0a1.5,1.5,0,0,1-2.245,1.3h0a3.274,3.274,0,0,1-1.636-2.835Z" transform="translate(-605.862 -11.181)" fill="#f9e478"/>
        <path id="Trazado_106542" data-name="Trazado 106542" d="M617.593,26.8l3.881,2.243h0a1.5,1.5,0,0,1-2.247,1.3h0a3.272,3.272,0,0,1-1.634-2.835Z" transform="translate(-617.592 -17.957)" opacity="0.2"/>
        <path id="Trazado_106543" data-name="Trazado 106543" d="M621.445,29.02l3.881,2.243h0a1.5,1.5,0,0,1-2.247,1.3h0a3.273,3.273,0,0,1-1.634-2.835Z" transform="translate(-613.682 -15.698)" opacity="0.2"/>
        <path id="Trazado_106544" data-name="Trazado 106544" d="M625.3,31.245l3.879,2.243h0a1.5,1.5,0,0,1-2.245,1.3h0a3.273,3.273,0,0,1-1.634-2.835Z" transform="translate(-609.771 -13.439)" opacity="0.2"/>
        <path id="Trazado_106545" data-name="Trazado 106545" d="M629.148,33.47l3.881,2.243h0a1.5,1.5,0,0,1-2.245,1.3h0a3.274,3.274,0,0,1-1.636-2.835Z" transform="translate(-605.862 -11.181)" opacity="0.2"/>
        <path id="Trazado_106546" data-name="Trazado 106546" d="M631.074,34.583l3.966,2.291h0a1.5,1.5,0,0,1-2.245,1.3h0a3.444,3.444,0,0,1-1.721-2.98Z" transform="translate(-603.907 -10.051)" fill="#e0e0e0"/>
      </g>
      <g id="Grupo_58923" data-name="Grupo 58923" transform="translate(35.445 43.609)">
        <g id="Grupo_58918" data-name="Grupo 58918" transform="translate(4.23 1.398)">
          <path id="Trazado_106547" data-name="Trazado 106547" d="M628.83,40.262a9.586,9.586,0,0,1,3.295,1.018,10.5,10.5,0,0,1,5.117,5.89,9.546,9.546,0,0,1,.544,3.406,16.08,16.08,0,0,0-1.1-3.178,13.508,13.508,0,0,0-4.861-5.6A16.072,16.072,0,0,0,628.83,40.262Z" transform="translate(-628.83 -40.262)" fill="#f9e478"/>
        </g>
        <g id="Grupo_58919" data-name="Grupo 58919" transform="translate(7.267 13.608)">
          <path id="Trazado_106548" data-name="Trazado 106548" d="M630.337,51.129a6.089,6.089,0,0,0,1.854-.322,5.249,5.249,0,0,0,3.065-2.688,6.049,6.049,0,0,0,.56-1.8,4.213,4.213,0,0,1-.25,1.933,4.559,4.559,0,0,1-3.283,2.88A4.245,4.245,0,0,1,630.337,51.129Z" transform="translate(-630.337 -46.321)" fill="#f9e478"/>
        </g>
        <g id="Grupo_58920" data-name="Grupo 58920" transform="translate(1.799 7.96)">
          <path id="Trazado_106549" data-name="Trazado 106549" d="M628.051,43.518a14.865,14.865,0,0,0,.038,2.612,13.1,13.1,0,0,0,1.862,5.5,14.738,14.738,0,0,0,1.558,2.1,8.091,8.091,0,0,1-1.943-1.834,9.446,9.446,0,0,1-1.943-5.735A8.078,8.078,0,0,1,628.051,43.518Z" transform="translate(-627.624 -43.518)" fill="#f9e478"/>
        </g>
        <g id="Grupo_58921" data-name="Grupo 58921" transform="translate(12.419 4.373)">
          <path id="Trazado_106550" data-name="Trazado 106550" d="M632.894,41.738a9.028,9.028,0,0,1,1.894,2.634,9.909,9.909,0,0,1,.512,7.323,9.023,9.023,0,0,1-1.511,2.872,15.213,15.213,0,0,0,.963-3.015,12.824,12.824,0,0,0-.486-6.962A15.309,15.309,0,0,0,632.894,41.738Z" transform="translate(-632.894 -41.738)" fill="#f9e478"/>
        </g>
        <g id="Grupo_58922" data-name="Grupo 58922">
          <path id="Trazado_106551" data-name="Trazado 106551" d="M626.731,44.324a5.022,5.022,0,0,1,.923-2.463,5.349,5.349,0,0,1,5.423-2.2,5.014,5.014,0,0,1,2.374,1.124,6.75,6.75,0,0,0-2.436-.671,5.869,5.869,0,0,0-5,2.029A6.727,6.727,0,0,0,626.731,44.324Z" transform="translate(-626.731 -39.568)" fill="#f9e478"/>
        </g>
      </g>
      <g id="Grupo_58938" data-name="Grupo 58938" transform="translate(0 24.831)">
        <path id="Trazado_106552" data-name="Trazado 106552" d="M627.585,36.888h0a4.1,4.1,0,0,0-4.457,3.363l-1.511,8.458-9.459,6.614,2.114,2.571,9-4.726a4.476,4.476,0,0,0,2.211-2.692l2.9-9.782Z" transform="translate(-606.081 -23.533)" fill="#ffa8a7"/>
        <g id="Grupo_58924" data-name="Grupo 58924" transform="translate(15.769 13.319)">
          <path id="Trazado_106553" data-name="Trazado 106553" d="M619.032,45.967a4.4,4.4,0,0,1-1.91-2.005l.85-3.875a4.1,4.1,0,0,1,4.425-3.206l.147.014.8,3.807-1.257,5.616A4.395,4.395,0,0,1,619.032,45.967Z" transform="translate(-616.81 -36.859)" fill="#455a64"/>
          <path id="Trazado_106554" data-name="Trazado 106554" d="M619.19,42.389a4.395,4.395,0,0,0,3.051.351l-.31,1.384c-1.175.262-4.179.173-4.963-2.307l.312-1.433A4.4,4.4,0,0,0,619.19,42.389Z" transform="translate(-616.967 -33.281)" fill="#455a64"/>
          <path id="Trazado_106555" data-name="Trazado 106555" d="M619.032,45.967a4.4,4.4,0,0,1-1.91-2.005l.85-3.875a4.1,4.1,0,0,1,4.425-3.206l.147.014.8,3.807-1.257,5.616A4.395,4.395,0,0,1,619.032,45.967Z" transform="translate(-616.81 -36.859)" fill="#fff" opacity="0.2"/>
          <path id="Trazado_106556" data-name="Trazado 106556" d="M619.19,42.389a4.395,4.395,0,0,0,3.051.351l-.31,1.384c-1.175.262-4.179.173-4.963-2.307l.312-1.433A4.4,4.4,0,0,0,619.19,42.389Z" transform="translate(-616.967 -33.281)" fill="#fff" opacity="0.5"/>
        </g>
        <path id="Trazado_106557" data-name="Trazado 106557" d="M618.811,40.5s.375-2.876,2.094-3.627c0,0,4.1,1.231,7.514,2.525a40.176,40.176,0,0,1,3.952,1.681,32.375,32.375,0,0,0,4.036,3.2,4.983,4.983,0,0,0,1.624.488l.008,0a5.607,5.607,0,0,1,2.019.736,12.44,12.44,0,0,1,5.642,9.776c-.006,2.356-1.1,3.782-2.739,3.982v.008h-.068a3.58,3.58,0,0,1-.776-.008c-2.844-.026-7.406-.048-9.2-.56C624.544,56.257,617.965,50.207,618.811,40.5Z" transform="translate(-599.4 -23.523)" fill="#455a64"/>
        <g id="Grupo_58925" data-name="Grupo 58925" transform="translate(21.228 13.578)">
          <path id="Trazado_106558" data-name="Trazado 106558" d="M625.832,39.211,624.6,36.988l-4.927,3.323,1.949,2.622a3.286,3.286,0,0,0,2.646.1,3.367,3.367,0,0,0,1.789-2A2.375,2.375,0,0,0,625.832,39.211Z" transform="translate(-619.676 -36.988)" fill="#ffa8a7"/>
          <path id="Trazado_106559" data-name="Trazado 106559" d="M624.142,37.142a4.759,4.759,0,0,1-3.428,4.407l-1.038-1.394Z" transform="translate(-619.676 -36.832)" opacity="0.2"/>
        </g>
        <g id="Grupo_58928" data-name="Grupo 58928" transform="translate(12.176)">
          <g id="Grupo_58927" data-name="Grupo 58927">
            <path id="Trazado_106560" data-name="Trazado 106560" d="M629.9,39.819a9.031,9.031,0,0,0,.159-3.234,3.071,3.071,0,0,0-1.937-2.42,3.66,3.66,0,0,0-2.2-1.926,10,10,0,0,0-2.89-.351,13.97,13.97,0,0,0-3.218.179,4.755,4.755,0,0,0-2.757,1.562,4.587,4.587,0,0,0-.8,3.531,10.356,10.356,0,0,0,1.334,3.456c2.07.147,4.175.383,6.245.53a16.808,16.808,0,0,0,3.168.028A5.882,5.882,0,0,0,629.9,39.819Z" transform="translate(-614.155 -28.602)" fill="#263238"/>
            <path id="Trazado_106561" data-name="Trazado 106561" d="M616.838,33.4a17.683,17.683,0,0,0,1.014,9.445,3.362,3.362,0,0,0,1.282,1.777,3.551,3.551,0,0,0,2.291.189,11.645,11.645,0,0,0,3.617-1.018,4.943,4.943,0,0,0,2.5-2.7,2.167,2.167,0,0,0,2.193-.858,4.1,4.1,0,0,0,.711-2.4,1.474,1.474,0,0,0-.586-1.421,1.369,1.369,0,0,0-1.388.345,4.141,4.141,0,0,0-1.352,2.029c-.357-1.32-.915-2.594-1.273-3.913a2.223,2.223,0,0,0-.768-1.376,2.473,2.473,0,0,0-1.914.008A12.588,12.588,0,0,1,616.838,33.4Z" transform="translate(-613.748 -27.143)" fill="#ffa8a7"/>
            <path id="Trazado_106562" data-name="Trazado 106562" d="M619.4,35.345l-1.544,2.6,1.841.346Z" transform="translate(-612.466 -25.078)" fill="#f28f8f"/>
            <path id="Trazado_106563" data-name="Trazado 106563" d="M620.359,37.25l-1.4.679a.912.912,0,0,0,1.06.3A.824.824,0,0,0,620.359,37.25Z" transform="translate(-611.35 -23.144)" fill="#f28f8f"/>
            <path id="Trazado_106564" data-name="Trazado 106564" d="M620.359,37.25l-1.4.679a.912.912,0,0,0,1.06.3A.824.824,0,0,0,620.359,37.25Z" transform="translate(-611.35 -23.144)" opacity="0.3"/>
            <path id="Trazado_106565" data-name="Trazado 106565" d="M619.245,38.155a.855.855,0,0,0,.486-.046.747.747,0,0,0,.375-.738.9.9,0,0,0-.552.191A.879.879,0,0,0,619.245,38.155Z" transform="translate(-611.061 -23.021)" fill="#f28f8f"/>
            <path id="Trazado_106566" data-name="Trazado 106566" d="M620.48,35.636a.529.529,0,1,1-.578-.474A.528.528,0,0,1,620.48,35.636Z" transform="translate(-610.877 -25.266)" fill="#263238"/>
            <path id="Trazado_106567" data-name="Trazado 106567" d="M618.28,35.772a.529.529,0,0,1-1.052.107.529.529,0,1,1,1.052-.107Z" transform="translate(-613.11 -25.128)" fill="#263238"/>
            <path id="Trazado_106568" data-name="Trazado 106568" d="M617.975,34.568c-.363.308-.724.617-1.086.923a.753.753,0,0,1,.145-.848A.9.9,0,0,1,617.975,34.568Z" transform="translate(-613.527 -25.965)" fill="#263238"/>
            <path id="Trazado_106569" data-name="Trazado 106569" d="M619.536,34.584l1.247.689a.753.753,0,0,0-.312-.8A.892.892,0,0,0,619.536,34.584Z" transform="translate(-610.765 -26.054)" fill="#263238"/>
            <g id="Grupo_58926" data-name="Grupo 58926">
              <path id="Trazado_106570" data-name="Trazado 106570" d="M616.226,37.579a43.336,43.336,0,0,0,13.663.01c-.212-5.532-2.7-7.339-6.989-7.339S616.194,32.527,616.226,37.579Z" transform="translate(-614.126 -30.25)" fill="#455a64"/>
              <path id="Trazado_106571" data-name="Trazado 106571" d="M616.226,36.731a8.514,8.514,0,0,1,1.215-4.923l1.793-.5a5.94,5.94,0,0,1,2.588-.139l1.713.288a2.728,2.728,0,0,1,2.259,2.374l.391,3.335h0A43.24,43.24,0,0,1,616.226,36.731Z" transform="translate(-614.126 -29.402)" fill="#455a64"/>
              <path id="Trazado_106572" data-name="Trazado 106572" d="M616.226,36.731a8.514,8.514,0,0,1,1.215-4.923l1.793-.5a5.94,5.94,0,0,1,2.588-.139l1.713.288a2.728,2.728,0,0,1,2.259,2.374l.391,3.335h0A43.24,43.24,0,0,1,616.226,36.731Z" transform="translate(-614.126 -29.402)" fill="#fff" opacity="0.29"/>
              <path id="Trazado_106573" data-name="Trazado 106573" d="M616.746,31.577h.794c.256,0,.512.012.766.032a10.517,10.517,0,0,1,6.265,2.66l2.672,2.4a43.241,43.241,0,0,1-9.959-.433l-1.739-2.1A1.561,1.561,0,0,1,616.746,31.577Z" transform="translate(-615.184 -28.903)" fill="#455a64"/>
              <path id="Trazado_106574" data-name="Trazado 106574" d="M616.746,31.577h.794c.256,0,.512.012.766.032a10.517,10.517,0,0,1,6.265,2.66l2.672,2.4a43.241,43.241,0,0,1-9.959-.433l-1.739-2.1A1.561,1.561,0,0,1,616.746,31.577Z" transform="translate(-615.184 -28.903)" opacity="0.2"/>
            </g>
          </g>
        </g>
        <g id="Grupo_58935" data-name="Grupo 58935" transform="translate(0 25.175)">
          <g id="Grupo_58929" data-name="Grupo 58929">
            <path id="Trazado_106575" data-name="Trazado 106575" d="M609.142,49.785l12.118,7.042,12.2-7.042-12.119-7.042Z" transform="translate(-609.142 -42.743)" fill="#f9e478"/>
          </g>
          <g id="Grupo_58930" data-name="Grupo 58930" opacity="0.3">
            <path id="Trazado_106576" data-name="Trazado 106576" d="M609.142,49.785l12.118,7.042,12.2-7.042-12.119-7.042Z" transform="translate(-609.142 -42.743)" fill="#fff"/>
          </g>
          <g id="Grupo_58931" data-name="Grupo 58931" transform="translate(0 7.042)">
            <path id="Trazado_106577" data-name="Trazado 106577" d="M609.142,46.238l.035,12.328L621.3,65.608,621.26,53.28Z" transform="translate(-609.142 -46.238)" fill="#f9e478"/>
          </g>
          <g id="Grupo_58932" data-name="Grupo 58932" transform="translate(0 7.042)" opacity="0.1">
            <path id="Trazado_106578" data-name="Trazado 106578" d="M609.142,46.238l.035,12.328L621.3,65.608,621.26,53.28Z" transform="translate(-609.142 -46.238)" fill="#fff"/>
          </g>
          <g id="Grupo_58933" data-name="Grupo 58933" transform="translate(12.118 7.042)">
            <path id="Trazado_106579" data-name="Trazado 106579" d="M615.155,53.28l.035,12.328,12.2-7.042-.035-12.328Z" transform="translate(-615.155 -46.238)" fill="#f9e478"/>
          </g>
          <g id="Grupo_58934" data-name="Grupo 58934" transform="translate(4.225 2.385)">
            <path id="Trazado_106580" data-name="Trazado 106580" d="M616.174,47.662l-4.1-2.507,2.094-1.209,4.119,2.457Z" transform="translate(-610.391 -43.907)" fill="#e0e0e0"/>
            <path id="Trazado_106581" data-name="Trazado 106581" d="M616.981,47.681l2.112-1.259,4.184-2.5,2.086,1.212L621.2,47.681l-2.112,1.291-5.58,3.411-2.237-1.3Z" transform="translate(-611.199 -43.927)" fill="#fff"/>
            <path id="Trazado_106582" data-name="Trazado 106582" d="M617.267,45.79,623,49.207l-2.244,1.3-5.6-3.422Z" transform="translate(-607.261 -42.035)" fill="#e0e0e0"/>
            <path id="Trazado_106583" data-name="Trazado 106583" d="M611.315,47.478l2.237,1.3-.018.011L613.5,61.055l-2.262-1.314.035-12.238Z" transform="translate(-611.238 -40.322)" fill="#e0e0e0"/>
            <path id="Trazado_106584" data-name="Trazado 106584" d="M617.933,48.781l2.244-1.3.017.01L620.23,59.8l-2.262,1.306-.035-12.328Z" transform="translate(-604.442 -40.314)" fill="#fff"/>
            <path id="Trazado_106585" data-name="Trazado 106585" d="M617.933,48.781l2.244-1.3.017.01L620.23,59.8l-2.262,1.306-.035-12.328Z" transform="translate(-604.442 -40.314)" opacity="0.2"/>
          </g>
          <path id="Trazado_106586" data-name="Trazado 106586" d="M616.432,47.639l2.537,1.551-2.537,1.465-2.529-1.47Z" transform="translate(-604.309 -37.773)" fill="#fff"/>
        </g>
        <g id="Grupo_58936" data-name="Grupo 58936" transform="translate(13.947 17.66)">
          <path id="Trazado_106587" data-name="Trazado 106587" d="M638.23,55.968s-.945-13.768-1.143-14.618a3.033,3.033,0,0,0-5.957.29c-.183,1.358,1.985,14.553,1.985,14.553L625.261,64.5l-1.592,1.461-1.415-.288-3.232.3a.4.4,0,0,0-.351.314h0a.4.4,0,0,0,.294.466l2.132.522-1.54,1.052a1.862,1.862,0,0,1-.717.3l-2.416.457a.444.444,0,0,0-.361.465h0a.443.443,0,0,0,.288.389l1.3.484a6.251,6.251,0,0,0,5.185-.369l2.817-1.538a7.265,7.265,0,0,0,1.151-.78l10.029-8.3A3.917,3.917,0,0,0,638.23,55.968Z" transform="translate(-616.063 -39.014)" fill="#ffa8a7"/>
        </g>
        <g id="Grupo_58937" data-name="Grupo 58937" transform="translate(28.103 17.441)">
          <path id="Trazado_106588" data-name="Trazado 106588" d="M624.126,50.8l-1-7.468a3.908,3.908,0,1,1,7.758-.947l.838,7.629a9.36,9.36,0,0,1-7.593.786Z" transform="translate(-623.088 -38.905)" fill="#455a64"/>
          <path id="Trazado_106589" data-name="Trazado 106589" d="M624.126,50.8l-1-7.468a3.908,3.908,0,1,1,7.758-.947l.838,7.629a9.36,9.36,0,0,1-7.593.786Z" transform="translate(-623.088 -38.905)" fill="#fff" opacity="0.2"/>
          <path id="Trazado_106590" data-name="Trazado 106590" d="M627.637,45.6a9.5,9.5,0,0,0,3.559-1.185l.192,1.759c-3.375,2.593-7.519,1-7.519,1L623.6,45.2A9.5,9.5,0,0,0,627.637,45.6Z" transform="translate(-622.564 -33.307)" fill="#455a64"/>
          <path id="Trazado_106591" data-name="Trazado 106591" d="M627.637,45.6a9.5,9.5,0,0,0,3.559-1.185l.192,1.759c-3.375,2.593-7.519,1-7.519,1L623.6,45.2A9.5,9.5,0,0,0,627.637,45.6Z" transform="translate(-622.564 -33.307)" fill="#fff" opacity="0.5"/>
        </g>
      </g>
    </g>
    <g id="Grupo_58947" data-name="Grupo 58947" transform="translate(52.842 79.084)">
      <g id="Grupo_58943" data-name="Grupo 58943" transform="translate(7.715 22.125)">
        <path id="Trazado_106592" data-name="Trazado 106592" d="M639.242,62.83l6,.173,6-.173c.258,4.05-.532,8.179-1.622,10.2l0,0a2.731,2.731,0,0,1-1.189,1.209,7.04,7.04,0,0,1-6.388,0,2.652,2.652,0,0,1-1.187-1.239C639.768,70.967,638.986,66.86,639.242,62.83Z" transform="translate(-639.193 -59.354)" fill="#fff"/>
        <g id="Grupo_58940" data-name="Grupo 58940" transform="translate(0.049)">
          <path id="Trazado_106593" data-name="Trazado 106593" d="M640.988,62.122c-2.35,1.358-2.364,3.557-.028,4.915a9.354,9.354,0,0,0,8.484,0c2.352-1.358,2.364-3.557.028-4.915A9.354,9.354,0,0,0,640.988,62.122Z" transform="translate(-639.217 -61.105)" fill="#eaeaea"/>
        </g>
        <g id="Grupo_58941" data-name="Grupo 58941" transform="translate(1.367 0.764)">
          <path id="Trazado_106594" data-name="Trazado 106594" d="M641.253,62.278c-1.834,1.06-1.844,2.775-.022,3.835a7.3,7.3,0,0,0,6.62,0c1.834-1.06,1.844-2.775.022-3.835A7.3,7.3,0,0,0,641.253,62.278Z" transform="translate(-639.871 -61.484)" fill="#e0e0e0"/>
        </g>
        <g id="Grupo_58942" data-name="Grupo 58942" transform="translate(1.367 0.764)" opacity="0.15">
          <path id="Trazado_106595" data-name="Trazado 106595" d="M641.253,62.278c-1.834,1.06-1.844,2.775-.022,3.835a7.3,7.3,0,0,0,6.62,0c1.834-1.06,1.844-2.775.022-3.835A7.3,7.3,0,0,0,641.253,62.278Z" transform="translate(-639.871 -61.484)"/>
        </g>
      </g>
      <g id="Grupo_58944" data-name="Grupo 58944" transform="translate(3.901)">
        <path id="Trazado_106596" data-name="Trazado 106596" d="M637.3,50.126c13.518,4.427,13.641,13.471,10.594,19.912-.77,1.3-3.1,2-5.12-6.007l3.551.455-4.137-2.1-1.076-3.214,3.452.256-4.381-1.842A64.646,64.646,0,0,0,637.3,50.126Z" transform="translate(-637.3 -50.126)" fill="#f9e478"/>
        <path id="Trazado_106597" data-name="Trazado 106597" d="M637.3,50.126c13.518,4.427,13.641,13.471,10.594,19.912-.77,1.3-3.1,2-5.12-6.007l3.551.455-4.137-2.1-1.076-3.214,3.452.256-4.381-1.842A64.646,64.646,0,0,0,637.3,50.126Z" transform="translate(-637.3 -50.126)" opacity="0.2"/>
        <path id="Trazado_106598" data-name="Trazado 106598" d="M637.3,50.126c13.518,4.427,13.641,13.471,10.594,19.912-.77,1.3-3.1,2-5.12-6.007l3.551.455-4.137-2.1-1.076-3.214,3.452.256-4.381-1.842A64.646,64.646,0,0,0,637.3,50.126Z" transform="translate(-637.3 -50.126)" fill="#fff" opacity="0.2"/>
        <path id="Trazado_106599" data-name="Trazado 106599" d="M639.2,51.248c7.13,5.413,7.772,11.615,5.759,18.092C645.668,63.637,646.44,57.872,639.2,51.248Z" transform="translate(-635.374 -48.987)" fill="#fff"/>
      </g>
      <g id="Grupo_58945" data-name="Grupo 58945" transform="translate(13.035 9.187)">
        <path id="Trazado_106600" data-name="Trazado 106600" d="M655.6,54.685c-13.326,1.876-14.945,10.279-13.175,16.784.5,1.342,2.549,2.38,5.765-4.744L644.8,66.56l4.2-1.266,1.534-2.813-3.255-.337,4.385-.987A61.348,61.348,0,0,1,655.6,54.685Z" transform="translate(-641.833 -54.685)" fill="#f9e478"/>
        <path id="Trazado_106601" data-name="Trazado 106601" d="M655.6,54.685c-13.326,1.876-14.945,10.279-13.175,16.784.5,1.342,2.549,2.38,5.765-4.744L644.8,66.56l4.2-1.266,1.534-2.813-3.255-.337,4.385-.987A61.348,61.348,0,0,1,655.6,54.685Z" transform="translate(-641.833 -54.685)" fill="#fff" opacity="0.2"/>
        <path id="Trazado_106602" data-name="Trazado 106602" d="M655.6,54.685c-13.326,1.876-14.945,10.279-13.175,16.784.5,1.342,2.549,2.38,5.765-4.744L644.8,66.56l4.2-1.266,1.534-2.813-3.255-.337,4.385-.987A61.348,61.348,0,0,1,655.6,54.685Z" transform="translate(-641.833 -54.685)" opacity="0.1"/>
        <path id="Trazado_106603" data-name="Trazado 106603" d="M651.018,55.415c-7.539,3.855-9.169,9.526-8.369,15.891C642.933,65.878,643.173,60.38,651.018,55.415Z" transform="translate(-641.191 -53.944)" fill="#fff"/>
      </g>
      <g id="Grupo_58946" data-name="Grupo 58946" transform="translate(0 12.337)">
        <path id="Trazado_106604" data-name="Trazado 106604" d="M635.364,56.248c12.222.2,14.618,7.591,13.753,13.653-.3,1.266-2.031,2.43-5.729-3.629l3.031-.528-3.929-.671-1.7-2.364,2.9-.667-4.063-.4A55.447,55.447,0,0,0,635.364,56.248Z" transform="translate(-635.364 -56.248)" fill="#f9e478"/>
        <path id="Trazado_106605" data-name="Trazado 106605" d="M637.207,56.687c7.224,2.632,9.33,7.559,9.32,13.387C645.665,65.211,644.832,60.284,637.207,56.687Z" transform="translate(-633.493 -55.802)" fill="#fff"/>
        <path id="Trazado_106606" data-name="Trazado 106606" d="M635.364,56.248c12.222.2,14.618,7.591,13.753,13.653-.3,1.266-2.031,2.43-5.729-3.629l3.031-.528-3.929-.671-1.7-2.364,2.9-.667-4.063-.4A55.447,55.447,0,0,0,635.364,56.248Z" transform="translate(-635.364 -56.248)" fill="#fff" opacity="0.2"/>
      </g>
    </g>
  </g>
</svg>
