<svg xmlns="http://www.w3.org/2000/svg" xmlns:xlink="http://www.w3.org/1999/xlink" width="161.86" height="145.667" viewBox="0 0 161.86 145.667">
  <defs>
    <clipPath id="clip-path">
      <path id="Trazado_106731" data-name="Trazado 106731" d="M509.211,151.555l-3.682,2.125a1.1,1.1,0,0,1-1,0l-4.493-2.561a.3.3,0,0,1,0-.575l3.682-2.127a1.111,1.111,0,0,1,1,0c1.217.7,3.275,1.858,4.493,2.561A.3.3,0,0,1,509.211,151.555Z" transform="translate(-499.832 -148.298)" fill="#47ecfa"/>
    </clipPath>
  </defs>
  <g id="Grupo_59019" data-name="Grupo 59019" transform="translate(0)">
    <ellipse id="Floor" cx="80.93" cy="46.725" rx="80.93" ry="46.725" transform="translate(0 52.217)" fill="#e8e8e8"/>
    <path id="Shadow" d="M604.818,165.645a.532.532,0,0,0-.053-.088c-.015-.021-.029-.034-.046-.055a.458.458,0,0,0-.053-.063.4.4,0,0,0-.061-.057,1.438,1.438,0,0,0-.217-.156l-75.665-43.679a2.7,2.7,0,0,0-2.439,0l-39.37,22.667c-.053.034-.1.061-.145.093-.017.015-.036.025-.048.038a.964.964,0,0,0-.2.23.351.351,0,0,0-.036.061.36.36,0,0,0-.038.095.48.48,0,0,0-.019.074.507.507,0,0,0-.015.124.615.615,0,0,0,.008.084.8.8,0,0,0,.025.095.712.712,0,0,0,.038.093,1.059,1.059,0,0,0,.434.421L562.579,189.3a2.181,2.181,0,0,0,.725.246,2.967,2.967,0,0,0,.495.042,3.122,3.122,0,0,0,.489-.038.941.941,0,0,0,.16-.032,2.3,2.3,0,0,0,.44-.147,1.3,1.3,0,0,0,.13-.072l39.37-22.667C604.85,166.365,604.995,165.984,604.818,165.645Z" transform="translate(-465.545 -58.411)" fill="#e0e0e0"/>
    <ellipse id="Shadow-2" data-name="Shadow" cx="16.829" cy="9.716" rx="16.829" ry="9.716" transform="translate(117.615 76.111)" fill="#e0e0e0"/>
    <path id="Shadow-3" data-name="Shadow" d="M517.6,175.308a3.959,3.959,0,0,1-1.959-.484l-33.7-19.458-.034-.021a1.954,1.954,0,0,1-1.034-1.674,2,2,0,0,1,1.1-1.689l22.236-12.838a4.226,4.226,0,0,1,3.913,0L541.8,158.587a2,2,0,0,1,1.1,1.693,1.945,1.945,0,0,1-.979,1.634,1.157,1.157,0,0,1-.137.086l-16.825,9.708-5.4,3.117a3.966,3.966,0,0,1-1.957.482Z" transform="translate(-471.67 -39.153)" fill="#e0e0e0"/>
    <g id="Device" transform="translate(22.208 59.023)">
      <g id="Mobile">
        <g id="Grupo_58950" data-name="Grupo 58950" transform="translate(0.718)">
          <path id="Trazado_106607" data-name="Trazado 106607" d="M600.451,162.646a.482.482,0,0,0-.053-.088c-.015-.021-.03-.036-.046-.057a.468.468,0,0,0-.053-.063c-.017-.017-.04-.038-.061-.057a1.3,1.3,0,0,0-.217-.154l-73.6-42.5a2.7,2.7,0,0,0-2.439,0l-36.086,20.833a1.3,1.3,0,0,0-.143.093.308.308,0,0,0-.05.038.933.933,0,0,0-.2.23.277.277,0,0,0-.036.059.357.357,0,0,0-.038.095.483.483,0,0,0-.017.076.489.489,0,0,0-.015.122c0,.03,0,.057.006.084s.015.063.025.1a.893.893,0,0,0,.038.091,1.076,1.076,0,0,0,.434.423l73.6,42.5a2.23,2.23,0,0,0,.725.246,2.96,2.96,0,0,0,.495.042,3.116,3.116,0,0,0,.489-.038c.057-.008.11-.019.16-.032a2.165,2.165,0,0,0,.44-.15,1.291,1.291,0,0,0,.131-.07l36.086-20.833C600.483,163.365,600.628,162.986,600.451,162.646Zm-7.926-1.51-2.31,1.333-30.743,17.739a1.956,1.956,0,0,1-.249.122,2.078,2.078,0,0,1-1.582,0,2.128,2.128,0,0,1-.251-.122l-58.375-33.7-2.824-1.63a1.108,1.108,0,0,1-.265-.206c-.293-.322-.2-.731.265-1l33.039-19.074a2.1,2.1,0,0,1,1.285-.356,1.362,1.362,0,0,1,.314.084,1.266,1.266,0,0,1,.162.078l61.534,35.528A.7.7,0,0,1,592.526,161.136Z" transform="translate(-487.388 -119.441)" fill="#455a64"/>
        </g>
        <g id="Grupo_58951" data-name="Grupo 58951" transform="translate(0 21.216)">
          <path id="Trazado_106608" data-name="Trazado 106608" d="M488.125,129.514a2.734,2.734,0,0,0-1.078,2.022v1.611a2.69,2.69,0,0,0,1.22,2.117l73.6,42.491a2.286,2.286,0,0,0,.9.274c.107.013.217.019.326.021l0,0v-4.434l0,0a3.444,3.444,0,0,1-.493-.04,2.193,2.193,0,0,1-.729-.251l-73.6-42.493C487.647,130.47,487.6,129.9,488.125,129.514Z" transform="translate(-487.047 -129.514)" fill="#37474f"/>
        </g>
        <path id="Trazado_106609" data-name="Trazado 106609" d="M534.5,144.33a4.9,4.9,0,0,0-4.356,0,1.726,1.726,0,0,0-.651.6c-.392.676.325,1.188.651,1.377a4.9,4.9,0,0,0,4.356,0,1.809,1.809,0,0,0,.651-.6C535.545,145.031,534.827,144.52,534.5,144.33Z" transform="translate(-440.214 -92.472)" fill="#47ecfa"/>
        <g id="Grupo_58953" data-name="Grupo 58953" transform="translate(19.065 10.665)">
          <path id="Trazado_106610" data-name="Trazado 106610" d="M498.353,125.867a.364.364,0,0,0,0-.689,1.325,1.325,0,0,0-1.194,0,.364.364,0,0,0,0,.689A1.312,1.312,0,0,0,498.353,125.867Z" transform="translate(-495.199 -123.916)" fill="#263238"/>
          <g id="Grupo_58952" data-name="Grupo 58952">
            <path id="Trazado_106611" data-name="Trazado 106611" d="M497.376,127.367a.322.322,0,0,0,0-.611,1.169,1.169,0,0,0-1.057,0,.322.322,0,0,0,0,.611A1.169,1.169,0,0,0,497.376,127.367Z" transform="translate(-496.099 -122.153)" fill="#263238"/>
            <path id="Trazado_106612" data-name="Trazado 106612" d="M498.269,128.71l5.925-3.421c.324-.187.341-.482.036-.659a1.26,1.26,0,0,0-1.137.021l-5.925,3.421c-.326.187-.341.482-.038.659A1.264,1.264,0,0,0,498.269,128.71Z" transform="translate(-495.199 -124.504)" fill="#263238"/>
          </g>
        </g>
        <g id="Grupo_58954" data-name="Grupo 58954" transform="translate(76.044 42.894)">
          <path id="Trazado_106613" data-name="Trazado 106613" d="M560.619,139.806c.505.392.451.948-.16,1.3L524.37,161.941a2.467,2.467,0,0,1-1.219.289v4.434a2.441,2.441,0,0,0,1.217-.295l36.086-20.829a2.693,2.693,0,0,0,1.22-2.113l.006-1.618A2.741,2.741,0,0,0,560.619,139.806Z" transform="translate(-523.151 -139.806)" fill="#263238"/>
        </g>
        <g id="Grupo_58957" data-name="Grupo 58957" transform="translate(2.513 25.047)">
          <g id="Grupo_58955" data-name="Grupo 58955" transform="translate(6.645 3.838)">
            <path id="Trazado_106614" data-name="Trazado 106614" d="M500.673,137.983a1.355,1.355,0,0,1,.63,1.047.389.389,0,0,1-.175.369c-.076.042-.362.213-.44.257a.464.464,0,0,1-.455-.051l-8.206-4.739a1.348,1.348,0,0,1-.632-1.047.4.4,0,0,1,.16-.36c.078-.048.377-.221.455-.265a.469.469,0,0,1,.457.053Z" transform="translate(-491.395 -133.155)" fill="#455a64"/>
            <path id="Trazado_106615" data-name="Trazado 106615" d="M500.233,138.1l-8.206-4.737c-.35-.2-.632-.059-.632.318a1.348,1.348,0,0,0,.632,1.047l8.206,4.739c.348.2.63.057.63-.32A1.352,1.352,0,0,0,500.233,138.1Z" transform="translate(-491.395 -133.021)" fill="#263238"/>
          </g>
          <g id="Grupo_58956" data-name="Grupo 58956">
            <path id="Trazado_106616" data-name="Trazado 106616" d="M493.179,133.656a1.355,1.355,0,0,1,.63,1.049.39.39,0,0,1-.173.367c-.076.042-.364.215-.442.257a.458.458,0,0,1-.455-.051l-3.869-2.235a1.352,1.352,0,0,1-.63-1.047.4.4,0,0,1,.158-.36c.078-.048.377-.221.457-.265a.465.465,0,0,1,.455.053Z" transform="translate(-488.24 -131.333)" fill="#455a64"/>
            <path id="Trazado_106617" data-name="Trazado 106617" d="M492.739,133.778l-3.869-2.233c-.348-.2-.63-.059-.63.318a1.351,1.351,0,0,0,.63,1.047l3.869,2.235c.347.2.63.057.63-.32A1.355,1.355,0,0,0,492.739,133.778Z" transform="translate(-488.24 -131.199)" fill="#263238"/>
          </g>
        </g>
      </g>
      <g id="Window" transform="translate(9.089 4.768)">
        <path id="Trazado_106618" data-name="Trazado 106618" d="M588.129,158.615l-2.31,1.333-30.743,17.739a2.734,2.734,0,0,1-.249.122,2.078,2.078,0,0,1-1.582,0c-.084-.036-.168-.078-.25-.122l-58.375-33.7-2.824-1.628a1.112,1.112,0,0,1-.265-.208c-.293-.32-.2-.729.265-1l33.039-19.074a2.1,2.1,0,0,1,1.285-.356,1.362,1.362,0,0,1,.476.162l61.534,35.528A.7.7,0,0,1,588.129,158.615Z" transform="translate(-491.362 -121.705)" fill="#47ecfa"/>
        <path id="Trazado_106619" data-name="Trazado 106619" d="M588.129,158.615l-2.31,1.333-30.743,17.739a2.734,2.734,0,0,1-.249.122,2.078,2.078,0,0,1-1.582,0c-.084-.036-.168-.078-.25-.122l-58.375-33.7-2.824-1.628a1.112,1.112,0,0,1-.265-.208c-.293-.32-.2-.729.265-1l33.039-19.074a2.1,2.1,0,0,1,1.285-.356,1.362,1.362,0,0,1,.476.162l61.534,35.528A.7.7,0,0,1,588.129,158.615Z" transform="translate(-491.362 -121.705)" fill="#fff" opacity="0.8"/>
        <g id="Grupo_58970" data-name="Grupo 58970" transform="translate(2.902 2.14)">
          <g id="Grupo_58958" data-name="Grupo 58958" transform="translate(3.574 14.878)">
            <path id="Trazado_106620" data-name="Trazado 106620" d="M495.372,130.652a.121.121,0,0,1-.049-.017l-.162-.093-.39.225a.061.061,0,0,1-.067,0l-.059-.034-.027-.019-.011-.023-.166-.575a.049.049,0,0,1,0-.023l.021-.019.055-.032a.073.073,0,0,1,.048-.013.116.116,0,0,1,.051.015l.567.329.086-.051a.081.081,0,0,1,.046-.013.11.11,0,0,1,.051.017l.038.023c.017.008.025.017.027.025s-.006.017-.023.027l-.086.051.162.093c.017.011.025.019.027.027s-.009.017-.025.027l-.065.038A.085.085,0,0,1,495.372,130.652Zm-.322-.2-.4-.234.12.4Z" transform="translate(-494.438 -129.516)" fill="#455a64"/>
            <path id="Trazado_106621" data-name="Trazado 106621" d="M495.447,130.594a1.037,1.037,0,0,1-.489-.15c-.162-.093-.246-.187-.259-.282s.055-.181.194-.261a.875.875,0,0,1,.175-.08.73.73,0,0,1,.179-.036.042.042,0,0,1,.029,0l.011.013.036.061,0,.015-.021.006a.662.662,0,0,0-.255.084c-.093.053-.137.114-.129.179s.074.137.2.209a.81.81,0,0,0,.356.116.551.551,0,0,0,.305-.072.527.527,0,0,0,.086-.061.177.177,0,0,0,.051-.059l-.263-.152-.164.095a.1.1,0,0,1-.046.013.133.133,0,0,1-.048-.017l-.038-.021c-.017-.011-.027-.021-.027-.027s.008-.017.025-.027l.259-.15a.107.107,0,0,1,.055-.015.146.146,0,0,1,.057.021l.377.217.027.021,0,.019a.446.446,0,0,1-.227.227A.829.829,0,0,1,495.447,130.594Z" transform="translate(-494.149 -129.785)" fill="#455a64"/>
          </g>
          <g id="Grupo_58964" data-name="Grupo 58964" transform="translate(6.521 13.101)">
            <g id="Grupo_58959" data-name="Grupo 58959" transform="translate(1.037 0.598)">
              <path id="Trazado_106622" data-name="Trazado 106622" d="M496.877,129.28a.137.137,0,0,1,0,.261.5.5,0,0,1-.453,0,.137.137,0,0,1,0-.261A.491.491,0,0,1,496.877,129.28Z" transform="translate(-496.329 -129.225)" fill="#455a64"/>
            </g>
            <g id="Grupo_58961" data-name="Grupo 58961" transform="translate(0.512 0.295)">
              <g id="Grupo_58960" data-name="Grupo 58960">
                <path id="Trazado_106623" data-name="Trazado 106623" d="M496.329,129.224c-.23.131-.3.32-.213.487a.149.149,0,0,0,.137.051h0c.078,0,.128-.048.105-.091-.063-.118-.013-.251.147-.343a.932.932,0,0,1,.6-.086c.074.015.15-.015.158-.061h0c.008-.034-.03-.067-.089-.078A1.305,1.305,0,0,0,496.329,129.224Z" transform="translate(-496.08 -129.081)" fill="#455a64"/>
              </g>
            </g>
            <g id="Grupo_58963" data-name="Grupo 58963">
              <g id="Grupo_58962" data-name="Grupo 58962">
                <path id="Trazado_106624" data-name="Trazado 106624" d="M496.233,129.169c-.339.2-.461.472-.364.725a.139.139,0,0,0,.139.059h0c.074,0,.122-.046.105-.088-.08-.206.019-.432.3-.592a1.7,1.7,0,0,1,1.026-.171c.072.008.143-.019.152-.061h0c.008-.038-.036-.074-.1-.08A2.085,2.085,0,0,0,496.233,129.169Z" transform="translate(-495.837 -128.941)" fill="#455a64"/>
              </g>
            </g>
          </g>
          <g id="Grupo_58965" data-name="Grupo 58965" transform="translate(13.554 7.718)">
            <path id="Trazado_106625" data-name="Trazado 106625" d="M499.225,127.774a.059.059,0,0,1-.038-.013.024.024,0,0,1-.01-.025l.067-.335.008-.025a.041.041,0,0,1,.019-.019l.118-.07a.1.1,0,0,1,.08,0l.969.56a.029.029,0,0,1,.017.023c0,.011,0,.017-.017.023l-.12.072a.088.088,0,0,1-.042.008.081.081,0,0,1-.04-.008l-.741-.428-.046.219c0,.008-.008.015-.021.021a.118.118,0,0,1-.042.006Z" transform="translate(-499.176 -125.396)" fill="#455a64"/>
            <path id="Trazado_106626" data-name="Trazado 106626" d="M499.585,127.566a.059.059,0,0,1-.038-.013.024.024,0,0,1-.01-.025l.07-.335.006-.025a.047.047,0,0,1,.021-.019l.116-.07a.08.08,0,0,1,.04-.008.089.089,0,0,1,.042.008l.969.56a.027.027,0,0,1,.015.023.025.025,0,0,1-.015.023l-.122.072a.08.08,0,0,1-.04.008.075.075,0,0,1-.04-.008l-.741-.43-.046.219c0,.011-.01.017-.021.023a.141.141,0,0,1-.044.006Z" transform="translate(-498.777 -125.626)" fill="#455a64"/>
            <path id="Trazado_106627" data-name="Trazado 106627" d="M500.094,127.028a.089.089,0,0,1,.042-.011.08.08,0,0,1,.04.011l.147.084c.011.006.017.015.015.023a.027.027,0,0,1-.015.023l-.141.08a.074.074,0,0,1-.04.011.081.081,0,0,1-.04-.011l-.147-.084a.024.024,0,0,1,0-.046Zm.527.3a.06.06,0,0,1,.04-.011.08.08,0,0,1,.04.008l.147.086a.024.024,0,0,1,0,.046l-.139.08a.089.089,0,0,1-.042.011.081.081,0,0,1-.04-.011l-.147-.084a.035.035,0,0,1-.017-.023.031.031,0,0,1,.017-.023Z" transform="translate(-498.333 -125.686)" fill="#455a64"/>
            <path id="Trazado_106628" data-name="Trazado 106628" d="M501.31,127.368a.081.081,0,0,1-.08,0l-.181-.1-.466.267a.087.087,0,0,1-.04.011.089.089,0,0,1-.042-.011l-.105-.061a.057.057,0,0,1-.027-.027l-.011-.032-.114-.6a.048.048,0,0,1,.023-.057l.114-.067a.089.089,0,0,1,.042-.008.085.085,0,0,1,.04.008l.6.348.129-.076a.08.08,0,0,1,.04-.008.075.075,0,0,1,.04.008l.108.063c.01.006.017.013.017.023a.03.03,0,0,1-.017.023l-.129.074.181.105a.024.024,0,0,1,0,.046Zm-.449-.213-.322-.185.065.335Z" transform="translate(-497.995 -126.055)" fill="#455a64"/>
            <path id="Trazado_106629" data-name="Trazado 106629" d="M500.566,126.766c-.01-.006-.017-.013-.017-.023a.03.03,0,0,1,.017-.023l.565-.324a.081.081,0,0,1,.08,0l.107.061a.024.024,0,0,1,0,.046l-.421.244.175.12a.233.233,0,0,1,.061-.059l.061-.038a.8.8,0,0,1,.179-.078.851.851,0,0,1,.192-.034.73.73,0,0,1,.192.017.614.614,0,0,1,.179.067.408.408,0,0,1,.133.112.155.155,0,0,1,.027.114.2.2,0,0,1-.059.109.684.684,0,0,1-.133.1.925.925,0,0,1-.2.088.9.9,0,0,1-.19.034.7.7,0,0,1-.166-.013.514.514,0,0,1-.139-.048c-.015-.006-.019-.015-.019-.023s.006-.017.017-.023l.122-.072a.1.1,0,0,1,.036-.008.1.1,0,0,1,.044,0,.25.25,0,0,0,.084.017.493.493,0,0,0,.08-.006.3.3,0,0,0,.074-.023.558.558,0,0,0,.072-.036c.057-.032.086-.067.091-.105s-.021-.074-.076-.1a.288.288,0,0,0-.164-.036.416.416,0,0,0-.185.053.313.313,0,0,0-.063.044.162.162,0,0,0-.027.036l-.015.025a.051.051,0,0,1-.027.023l-.139.08a.075.075,0,0,1-.04.011.081.081,0,0,1-.04-.011Z" transform="translate(-497.657 -126.385)" fill="#455a64"/>
          </g>
          <g id="Grupo_58966" data-name="Grupo 58966" transform="translate(0 16.529)">
            <path id="Trazado_106630" data-name="Trazado 106630" d="M493.053,131.761l-.313-.18.417-.241.313.181Z" transform="translate(-492.741 -129.715)" fill="#455a64"/>
            <path id="Trazado_106631" data-name="Trazado 106631" d="M493.514,131.684l-.625-.361.417-.241.625.361Z" transform="translate(-492.576 -129.999)" fill="#455a64"/>
            <path id="Trazado_106632" data-name="Trazado 106632" d="M493.975,131.608l-.938-.542.417-.241.938.541Z" transform="translate(-492.412 -130.284)" fill="#455a64"/>
            <path id="Trazado_106633" data-name="Trazado 106633" d="M494.437,131.531l-1.25-.722.417-.241,1.251.722Z" transform="translate(-492.248 -130.568)" fill="#455a64"/>
          </g>
          <g id="Grupo_58969" data-name="Grupo 58969" transform="translate(28.586)">
            <path id="Trazado_106634" data-name="Trazado 106634" d="M508.177,122.723a.445.445,0,0,0-.244.036l-1.559.9c-.1.057-.076.164.059.242l.569.326a.651.651,0,0,0,.274.08.613.613,0,0,0,.124,0,.352.352,0,0,0,.12-.036l1.561-.9c.1-.059.074-.166-.061-.242l-.566-.329A.663.663,0,0,0,508.177,122.723Zm-.916,1.527a.271.271,0,0,1-.118-.04l-.567-.326c-.1-.057-.12-.143-.046-.185l1.559-.9a.2.2,0,0,1,.063-.021h.04a.29.29,0,0,1,.118.04l.569.326c.1.059.12.143.044.185l-1.559.9A.183.183,0,0,1,507.261,124.25Z" transform="translate(-506.313 -122.721)" fill="#455a64"/>
            <g id="Grupo_58967" data-name="Grupo 58967" transform="translate(0.39 0.183)">
              <path id="Trazado_106635" data-name="Trazado 106635" d="M506.719,123.131l.672.388-.244.141a.12.12,0,0,1-.084.008l-.5-.289c-.072-.042-.086-.105-.036-.137Z" transform="translate(-506.498 -122.45)" fill="#455a64"/>
              <path id="Trazado_106636" data-name="Trazado 106636" d="M506.658,123.189l.292-.169.672.388-.294.168Z" transform="translate(-506.321 -122.573)" fill="#455a64"/>
              <path id="Trazado_106637" data-name="Trazado 106637" d="M506.851,123.079l.291-.169.674.389-.293.168Z" transform="translate(-506.107 -122.696)" fill="#455a64"/>
              <path id="Trazado_106638" data-name="Trazado 106638" d="M507.381,122.815l.484.278c.089.053.07.126-.051.2l-.1.057-.672-.388.234-.135A.138.138,0,0,1,507.381,122.815Z" transform="translate(-505.894 -122.808)" fill="#455a64"/>
            </g>
            <g id="Grupo_58968" data-name="Grupo 58968" transform="translate(2.124 0.043)">
              <path id="Trazado_106639" data-name="Trazado 106639" d="M507.4,122.749a.41.41,0,0,1,.289.076l.105.061c.118.067.179.143.137.171l-.074.048-.535-.312Z" transform="translate(-507.321 -122.741)" fill="#455a64"/>
            </g>
          </g>
          <path id="Trazado_106640" data-name="Trazado 106640" d="M505.313,124.518l1.209-1.05.637.907-.836-.228Z" transform="translate(-478.832 -121.894)" fill="#455a64"/>
        </g>
      </g>
      <g id="Button" transform="translate(64.209 35.619)">
        <g id="Grupo_58971" data-name="Grupo 58971">
          <path id="Trazado_106641" data-name="Trazado 106641" d="M517.532,154.421v.3a1.65,1.65,0,0,0,.746,1.289l5.828,3.364a1.66,1.66,0,0,0,1.491,0l28.731-16.6a1.64,1.64,0,0,0,.746-1.289v-.3a1.644,1.644,0,0,0-.746-1.289l-5.828-3.364a1.642,1.642,0,0,0-1.489,0l-28.734,16.6A1.65,1.65,0,0,0,517.532,154.421Z" transform="translate(-517.532 -136.352)" fill="#47ecfa"/>
          <path id="Trazado_106642" data-name="Trazado 106642" d="M550.585,138.065c.31.238.274.577-.1.794l-28.736,16.6a1.511,1.511,0,0,1-.743.179v2.014a1.519,1.519,0,0,0,.746-.177l28.731-16.6a1.644,1.644,0,0,0,.746-1.289v-.3A1.673,1.673,0,0,0,550.585,138.065Z" transform="translate(-513.688 -134.458)" opacity="0.15"/>
          <path id="Trazado_106643" data-name="Trazado 106643" d="M518.164,144.356a1.651,1.651,0,0,0-.63,1.209l0,.3a1.642,1.642,0,0,0,.748,1.287l5.828,3.364a1.5,1.5,0,0,0,.743.177v-2.014a1.54,1.54,0,0,1-.743-.177l-5.832-3.364C517.907,144.925,517.869,144.592,518.164,144.356Z" transform="translate(-517.532 -127.498)" opacity="0.3"/>
        </g>
        <g id="Grupo_58973" data-name="Grupo 58973" transform="translate(4.069 1.929)">
          <g id="Grupo_58972" data-name="Grupo 58972" transform="translate(4.535)">
            <path id="Trazado_106644" data-name="Trazado 106644" d="M522.272,143.37a.3.3,0,0,1,.15-.04.484.484,0,0,1,.133.017l3.056.857a.259.259,0,0,1,.07.023.051.051,0,0,1,.032.044.053.053,0,0,1-.032.046l-.455.263a.272.272,0,0,1-.133.04.315.315,0,0,1-.1-.013l-.4-.114-.958.554.2.232a.077.077,0,0,1,.023.055c0,.025-.025.051-.074.078l-.455.261a.148.148,0,0,1-.078.019.16.16,0,0,1-.08-.019.155.155,0,0,1-.04-.038l-1.485-1.765a.133.133,0,0,1-.027-.078c0-.029.023-.057.072-.086Zm.992,1.247.584-.337-1.159-.331Z" transform="translate(-521.617 -130.562)" fill="#455a64"/>
            <path id="Trazado_106645" data-name="Trazado 106645" d="M523.547,142.878a2.231,2.231,0,0,1,.527-.221,2.472,2.472,0,0,1,.562-.084,2.3,2.3,0,0,1,.554.048,2.023,2.023,0,0,1,.5.179c.053.027.1.055.143.078l.12.069.12.07c.04.023.084.051.128.08a.982.982,0,0,1,.314.289.5.5,0,0,1,.088.316.577.577,0,0,1-.141.32,1.362,1.362,0,0,1-.375.3l-.975.562a.233.233,0,0,1-.194,0l-2.33-1.346a.059.059,0,0,1,0-.112Zm1.464.3a.889.889,0,0,0-.906.044l-.369.213,1.371.79.385-.221q.455-.265.059-.514c-.048-.03-.095-.059-.141-.084l-.128-.074-.128-.074C525.112,143.232,525.064,143.2,525.011,143.177Z" transform="translate(-520.584 -131.401)" fill="#455a64"/>
            <path id="Trazado_106646" data-name="Trazado 106646" d="M524.783,142.163a2.28,2.28,0,0,1,.529-.219,2.476,2.476,0,0,1,.562-.086,2.311,2.311,0,0,1,.554.048,1.949,1.949,0,0,1,.5.181c.053.027.1.053.143.078l.12.07.118.067c.042.025.084.051.131.08a1.054,1.054,0,0,1,.314.289.5.5,0,0,1,.088.316.576.576,0,0,1-.141.32,1.273,1.273,0,0,1-.377.3l-.973.562a.2.2,0,0,1-.1.023.194.194,0,0,1-.1-.023l-2.33-1.346a.059.059,0,0,1,0-.112Zm1.464.3a.884.884,0,0,0-.9.042l-.369.213,1.371.792.385-.223q.455-.262.057-.512c-.048-.032-.095-.059-.139-.084l-.128-.076-.128-.074C526.348,142.517,526.3,142.492,526.247,142.464Z" transform="translate(-519.214 -132.192)" fill="#455a64"/>
            <path id="Trazado_106647" data-name="Trazado 106647" d="M527.239,140.894a.2.2,0,0,1,.1-.023.189.189,0,0,1,.1.023l.383.221a.059.059,0,0,1,0,.112l-.634.367,1.849,1.068a.069.069,0,0,1,.04.057.067.067,0,0,1-.04.057l-.472.272a.179.179,0,0,1-.1.023.182.182,0,0,1-.1-.023l-1.849-1.068-.634.366a.2.2,0,0,1-.1.023.2.2,0,0,1-.1-.023l-.381-.221a.059.059,0,0,1,0-.112Z" transform="translate(-517.584 -133.282)" fill="#455a64"/>
            <path id="Trazado_106648" data-name="Trazado 106648" d="M526.989,141.857a1.036,1.036,0,0,1-.291-.27.47.47,0,0,1-.091-.307.587.587,0,0,1,.137-.32,1.371,1.371,0,0,1,.392-.316,2.2,2.2,0,0,1,.548-.225,2.349,2.349,0,0,1,.556-.08,2.2,2.2,0,0,1,.531.051,2.135,2.135,0,0,1,.47.169c.107.057.217.118.331.183s.217.128.31.187a.993.993,0,0,1,.293.272.485.485,0,0,1,.093.308.57.57,0,0,1-.139.32,1.342,1.342,0,0,1-.394.314,2.264,2.264,0,0,1-.546.23,2.324,2.324,0,0,1-.556.078,2.105,2.105,0,0,1-.531-.053,1.879,1.879,0,0,1-.47-.169c-.1-.055-.211-.114-.324-.179S527.088,141.92,526.989,141.857Zm2.207-.554-.137-.086c-.051-.032-.1-.065-.158-.1l-.164-.091-.148-.076a.929.929,0,0,0-.421-.1.867.867,0,0,0-.228.029.943.943,0,0,0-.227.093.538.538,0,0,0-.162.131.218.218,0,0,0-.051.133.2.2,0,0,0,.046.124.471.471,0,0,0,.128.118c.036.027.078.055.128.086s.1.061.16.093l.162.093c.055.029.105.057.154.078a.965.965,0,0,0,.423.1.847.847,0,0,0,.453-.124c.15-.086.221-.173.213-.259A.349.349,0,0,0,529.2,141.3Z" transform="translate(-516.098 -133.872)" fill="#455a64"/>
            <path id="Trazado_106649" data-name="Trazado 106649" d="M529.264,140.568c.03.019.07.046.124.078s.112.065.171.1.116.067.173.1.1.057.137.074a1.391,1.391,0,0,0,.192.074.787.787,0,0,0,.213.029.861.861,0,0,0,.23-.025.882.882,0,0,0,.24-.1.6.6,0,0,0,.173-.133.261.261,0,0,0,.059-.116.138.138,0,0,0-.015-.1.309.309,0,0,0-.053-.08.132.132,0,0,1-.04-.07c0-.017.019-.036.059-.061l.472-.272a.179.179,0,0,1,.16,0,.662.662,0,0,1,.255.251.442.442,0,0,1,.044.3.726.726,0,0,1-.166.314,1.366,1.366,0,0,1-.371.295,2.112,2.112,0,0,1-.541.223,2.445,2.445,0,0,1-.558.08,2.229,2.229,0,0,1-.535-.053,1.912,1.912,0,0,1-.463-.166c-.105-.055-.213-.114-.326-.179s-.219-.128-.316-.192a.92.92,0,0,1-.291-.268.485.485,0,0,1-.091-.308.593.593,0,0,1,.137-.324,1.357,1.357,0,0,1,.388-.312,2.151,2.151,0,0,1,.512-.215,2.626,2.626,0,0,1,.545-.1,2.215,2.215,0,0,1,.518.025,1.33,1.33,0,0,1,.436.15.05.05,0,0,1,.034.044.052.052,0,0,1-.034.046l-.472.274a.216.216,0,0,1-.105.034.484.484,0,0,1-.122-.025,1.212,1.212,0,0,0-.135-.029.722.722,0,0,0-.168-.008,1.046,1.046,0,0,0-.2.034.986.986,0,0,0-.232.1.5.5,0,0,0-.171.139.2.2,0,0,0-.046.131.207.207,0,0,0,.055.124A.654.654,0,0,0,529.264,140.568Z" transform="translate(-514.337 -134.892)" fill="#455a64"/>
            <path id="Trazado_106650" data-name="Trazado 106650" d="M530.132,138.832a.3.3,0,0,1,.15-.04.565.565,0,0,1,.131.017l3.058.857a.257.257,0,0,1,.069.023.048.048,0,0,1,0,.091l-.455.263a.277.277,0,0,1-.135.042.307.307,0,0,1-.1-.013l-.4-.116-.958.554.2.232a.07.07,0,0,1,.021.057c0,.023-.023.048-.072.076l-.455.263a.153.153,0,0,1-.078.019.156.156,0,0,1-.08-.019.181.181,0,0,1-.04-.04l-1.485-1.765a.119.119,0,0,1-.027-.076c0-.029.021-.059.07-.086Zm.99,1.249.586-.339-1.158-.331Z" transform="translate(-512.922 -135.582)" fill="#455a64"/>
            <path id="Trazado_106651" data-name="Trazado 106651" d="M531.428,138.34a2.585,2.585,0,0,1,.476-.217,1.982,1.982,0,0,1,.47-.1,1.6,1.6,0,0,1,.459.034,1.423,1.423,0,0,1,.436.171.74.74,0,0,1,.339.322.356.356,0,0,1-.046.341l1.306.238a.212.212,0,0,1,.051.015.056.056,0,0,1,.031.046.054.054,0,0,1-.031.046l-.491.282a.256.256,0,0,1-.135.042.866.866,0,0,1-.114-.011l-1.173-.215-.331.192.771.447a.059.059,0,0,1,0,.112l-.472.274a.2.2,0,0,1-.1.023.193.193,0,0,1-.1-.023l-2.33-1.346a.059.059,0,0,1,0-.112Zm.685.866.406-.236a.434.434,0,0,0,.194-.177c.028-.061-.008-.12-.109-.179a.483.483,0,0,0-.31-.063.922.922,0,0,0-.308.112l-.409.236Z" transform="translate(-511.889 -136.434)" fill="#455a64"/>
            <path id="Trazado_106652" data-name="Trazado 106652" d="M533.481,137.291a.214.214,0,0,1,.194,0l.383.219a.066.066,0,0,1,.04.057c0,.023-.015.04-.04.057l-.634.366,1.849,1.068a.059.059,0,0,1,0,.112l-.472.274a.2.2,0,0,1-.1.021.2.2,0,0,1-.1-.021l-1.849-1.068-.634.364a.182.182,0,0,1-.1.023.178.178,0,0,1-.1-.023l-.381-.219c-.027-.017-.04-.034-.04-.057a.064.064,0,0,1,.04-.057Z" transform="translate(-510.678 -137.268)" fill="#455a64"/>
          </g>
          <path id="Trazado_106653" data-name="Trazado 106653" d="M520.147,144.488a1,1,0,0,0,0,1.9,3.645,3.645,0,0,0,3.3,0,1,1,0,0,0,0-1.9A3.645,3.645,0,0,0,520.147,144.488Zm2.711.623-.613.354.613.354a.124.124,0,0,1,0,.234.446.446,0,0,1-.406,0l-.613-.354-.613.354a.442.442,0,0,1-.4,0c-.114-.065-.114-.171,0-.234l.611-.354-.611-.354a.124.124,0,0,1,0-.236.455.455,0,0,1,.4,0l.613.354.613-.354a.46.46,0,0,1,.406,0A.125.125,0,0,1,522.857,145.112Z" transform="translate(-519.464 -129.717)" fill="#455a64"/>
        </g>
      </g>
    </g>
    <g id="Cart" transform="translate(51.083 38.412)">
      <g id="Grupo_58978" data-name="Grupo 58978" transform="translate(2.685 26.058)">
        <g id="Grupo_58974" data-name="Grupo 58974" transform="translate(37.438 20.36)">
          <path id="Trazado_106654" data-name="Trazado 106654" d="M525.614,135.985a5.059,5.059,0,0,0-2.262-3.975,1.557,1.557,0,0,0-1.674-.128h0l-1.548.87,3.246,5.594,1.533-.87,0,0A1.588,1.588,0,0,0,525.614,135.985Z" transform="translate(-519.449 -131.694)" fill="#37474f"/>
          <path id="Trazado_106655" data-name="Trazado 106655" d="M522.1,132.445a5.048,5.048,0,0,1,2.262,3.975c-.008,1.46-1.036,2.043-2.3,1.306a5.051,5.051,0,0,1-2.26-3.974C519.814,132.291,520.842,131.707,522.1,132.445Z" transform="translate(-519.806 -131.216)" fill="#455a64"/>
          <path id="Trazado_106656" data-name="Trazado 106656" d="M520.522,133.67c0-.569.352-.83.777-.579a1.852,1.852,0,0,1,.765,1.483c0,.571-.352.83-.777.581A1.856,1.856,0,0,1,520.522,133.67Z" transform="translate(-519.014 -130.253)" fill="#263238"/>
          <path id="Trazado_106657" data-name="Trazado 106657" d="M524.362,136.165a4.217,4.217,0,0,0-.31-1.529l-3.93-2.281a1.943,1.943,0,0,0-.316,1.142c0,.017,0,.036,0,.055l4.552,2.643Z" transform="translate(-519.806 -130.962)" opacity="0.15"/>
        </g>
        <g id="Grupo_58975" data-name="Grupo 58975">
          <path id="Trazado_106658" data-name="Trazado 106658" d="M529.366,159.112a4.9,4.9,0,0,1-2.418-.434l-21.421-12.338a5.424,5.424,0,0,1-2.839-3.947l-.657-15.26,1.192-.067.659,15.26a4.294,4.294,0,0,0,2.18,2.945l21.42,12.34a4.111,4.111,0,0,0,3.6-.209l14.284-8.229c.341-.225.539-.493.525-.718s-.228-.455-.588-.636L522.367,134.5a5.417,5.417,0,0,1-2.831-3.947l-.32-8.463,1.194-.067.32,8.463a4.294,4.294,0,0,0,2.172,2.947l22.933,13.314a2.013,2.013,0,0,1,1.247,1.634,2.062,2.062,0,0,1-1.061,1.786L531.735,158.4A4.919,4.919,0,0,1,529.366,159.112Z" transform="translate(-502.031 -122.027)" fill="#455a64"/>
        </g>
        <g id="Grupo_58976" data-name="Grupo 58976" transform="translate(17.317 32.449)">
          <path id="Trazado_106659" data-name="Trazado 106659" d="M516.061,141.725a5.06,5.06,0,0,0-2.262-3.977,1.566,1.566,0,0,0-1.674-.128h0l-1.548.87,3.246,5.594,1.533-.87,0,0A1.591,1.591,0,0,0,516.061,141.725Z" transform="translate(-509.896 -137.433)" fill="#37474f"/>
          <path id="Trazado_106660" data-name="Trazado 106660" d="M512.549,138.185a5.06,5.06,0,0,1,2.262,3.975c-.011,1.457-1.038,2.043-2.3,1.306a5.06,5.06,0,0,1-2.262-3.977C510.264,138.031,511.292,137.447,512.549,138.185Z" transform="translate(-510.253 -136.955)" fill="#455a64"/>
          <path id="Trazado_106661" data-name="Trazado 106661" d="M510.969,139.411c0-.571.352-.83.777-.581a1.856,1.856,0,0,1,.764,1.485c0,.569-.352.83-.777.579A1.852,1.852,0,0,1,510.969,139.411Z" transform="translate(-509.461 -135.993)" fill="#263238"/>
        </g>
        <g id="Grupo_58977" data-name="Grupo 58977" transform="translate(1.502 23.321)">
          <path id="Trazado_106662" data-name="Trazado 106662" d="M508.546,137.4a5.058,5.058,0,0,0-2.254-3.981,1.563,1.563,0,0,0-1.675-.131h0l-1.55.868,3.235,5.6,1.535-.866,0,0A1.584,1.584,0,0,0,508.546,137.4Z" transform="translate(-502.385 -133.099)" fill="#37474f"/>
          <path id="Trazado_106663" data-name="Trazado 106663" d="M505.042,133.85a5.051,5.051,0,0,1,2.254,3.981c-.011,1.458-1.04,2.041-2.3,1.3a5.06,5.06,0,0,1-2.254-3.981C502.757,133.694,503.785,133.111,505.042,133.85Z" transform="translate(-502.744 -132.623)" fill="#455a64"/>
          <path id="Trazado_106664" data-name="Trazado 106664" d="M503.459,135.075c0-.571.354-.83.779-.579a1.854,1.854,0,0,1,.762,1.485c-.006.571-.354.83-.779.579A1.857,1.857,0,0,1,503.459,135.075Z" transform="translate(-501.953 -131.66)" fill="#263238"/>
        </g>
      </g>
      <g id="Grupo_58979" data-name="Grupo 58979">
        <path id="Trazado_106665" data-name="Trazado 106665" d="M500.9,122.328a3.977,3.977,0,0,1,1.527-4.234l14.24-8.048a2.015,2.015,0,0,1,3.166,1.22l.988,3.206-.977.569-1.057-3.237a1.076,1.076,0,0,0-1.706-.6l-13.865,7.842a2.617,2.617,0,0,0-1,2.732l.838,3.075-1.167.678Z" transform="translate(-500.756 -109.655)" fill="#455a64"/>
      </g>
      <g id="Grupo_58987" data-name="Grupo 58987" transform="translate(1.128 4.815)">
        <g id="Grupo_58980" data-name="Grupo 58980" transform="translate(1.901 23.298)">
          <path id="Trazado_106666" data-name="Trazado 106666" d="M521.323,123l-19.129,11.044,27.957,16.141,19.128-11.047Z" transform="translate(-502.194 -123.003)" fill="#47ecfa"/>
          <path id="Trazado_106667" data-name="Trazado 106667" d="M521.323,123l-19.129,11.044,27.957,16.141,19.128-11.047Z" transform="translate(-502.194 -123.003)" opacity="0.5"/>
        </g>
        <g id="Grupo_58981" data-name="Grupo 58981" transform="translate(0.001)">
          <path id="Trazado_106668" data-name="Trazado 106668" d="M501.292,123l18.932-11.061,2.1,23.3-19.128,11.044Z" transform="translate(-501.292 -111.942)" fill="#47ecfa"/>
          <path id="Trazado_106669" data-name="Trazado 106669" d="M501.292,123l18.932-11.061,2.1,23.3-19.128,11.044Z" transform="translate(-501.292 -111.942)" opacity="0.35"/>
        </g>
        <g id="Grupo_58982" data-name="Grupo 58982" transform="translate(18.933 0.001)">
          <path id="Trazado_106670" data-name="Trazado 106670" d="M510.281,111.942l2.1,23.3,27.956,16.136,4.415-19.538Zm9.773,22.4a1.6,1.6,0,0,1-2-1.038l-4.619-11.991a1.508,1.508,0,1,1,2.793-1.076l4.619,11.991A1.6,1.6,0,0,1,520.054,134.34Zm8.73,4.107a1.6,1.6,0,0,1-2-1.038l-4.621-11.991a1.508,1.508,0,1,1,2.793-1.076l4.619,11.991A1.6,1.6,0,0,1,528.784,138.447Zm8.728,4.107a1.6,1.6,0,0,1-2-1.038l-4.619-11.991a1.507,1.507,0,1,1,2.791-1.076l4.621,11.991A1.6,1.6,0,0,1,537.513,142.554Z" transform="translate(-510.281 -111.942)" fill="#47ecfa"/>
          <path id="Trazado_106671" data-name="Trazado 106671" d="M510.281,111.942l2.1,23.3,27.956,16.136,4.415-19.538Zm9.773,22.4a1.6,1.6,0,0,1-2-1.038l-4.619-11.991a1.508,1.508,0,1,1,2.793-1.076l4.619,11.991A1.6,1.6,0,0,1,520.054,134.34Zm8.73,4.107a1.6,1.6,0,0,1-2-1.038l-4.621-11.991a1.508,1.508,0,1,1,2.793-1.076l4.619,11.991A1.6,1.6,0,0,1,528.784,138.447Zm8.728,4.107a1.6,1.6,0,0,1-2-1.038l-4.619-11.991a1.507,1.507,0,1,1,2.791-1.076l4.621,11.991A1.6,1.6,0,0,1,537.513,142.554Z" transform="translate(-510.281 -111.942)" opacity="0.23"/>
        </g>
        <g id="Grupo_58986" data-name="Grupo 58986" transform="translate(0 11.061)">
          <g id="Grupo_58983" data-name="Grupo 58983">
            <path id="Trazado_106672" data-name="Trazado 106672" d="M501.292,117.193l1.9,23.28,27.958,16.142,4.413-19.54Zm11.037,22.916a1.6,1.6,0,0,1-2-1.036L505.7,127.082a1.508,1.508,0,1,1,2.793-1.076L513.117,138A1.6,1.6,0,0,1,512.329,140.109Zm8.728,4.107a1.6,1.6,0,0,1-2-1.036l-4.619-11.991a1.507,1.507,0,1,1,2.791-1.076l4.621,11.991A1.6,1.6,0,0,1,521.057,144.216Zm8.73,4.107a1.6,1.6,0,0,1-2.005-1.038L523.163,135.3a1.508,1.508,0,1,1,2.793-1.076l4.619,11.991A1.6,1.6,0,0,1,529.787,148.323Z" transform="translate(-501.292 -117.193)" fill="#47ecfa"/>
          </g>
          <g id="Grupo_58984" data-name="Grupo 58984" opacity="0.15">
            <path id="Trazado_106673" data-name="Trazado 106673" d="M501.292,117.193l1.9,23.28,27.958,16.142,4.413-19.54Zm11.037,22.916a1.6,1.6,0,0,1-2-1.036L505.7,127.082a1.508,1.508,0,1,1,2.793-1.076L513.117,138A1.6,1.6,0,0,1,512.329,140.109Zm8.728,4.107a1.6,1.6,0,0,1-2-1.036l-4.619-11.991a1.507,1.507,0,1,1,2.791-1.076l4.621,11.991A1.6,1.6,0,0,1,521.057,144.216Zm8.73,4.107a1.6,1.6,0,0,1-2.005-1.038L523.163,135.3a1.508,1.508,0,1,1,2.793-1.076l4.619,11.991A1.6,1.6,0,0,1,529.787,148.323Z" transform="translate(-501.292 -117.193)"/>
          </g>
          <g id="Grupo_58985" data-name="Grupo 58985" transform="translate(29.858 8.839)">
            <path id="Trazado_106674" data-name="Trazado 106674" d="M519.882,132.433,539.01,121.39,534.6,140.928l-19.128,11.044Z" transform="translate(-515.468 -121.39)" fill="#47ecfa"/>
            <path id="Trazado_106675" data-name="Trazado 106675" d="M519.882,132.433,539.01,121.39,534.6,140.928l-19.128,11.044Z" transform="translate(-515.468 -121.39)" opacity="0.4"/>
          </g>
        </g>
      </g>
    </g>
    <g id="Arrow" transform="translate(80.226 25.822)">
      <path id="Trazado_106676" data-name="Trazado 106676" d="M527.739,109.844l-2.209,1.3.007-6.689-1.338-.773-6.061,3.5-.01,8.252-3.535,2,7.912,5.128,6.572-11.945Z" transform="translate(-514.593 -103.678)" fill="#37474f"/>
      <path id="Trazado_106677" data-name="Trazado 106677" d="M518.773,107.544l-.01,8.252-3.535,2,6.574,4.355,6.572-11.945-3.55,2.086.01-8.252Z" transform="translate(-513.89 -103.272)" fill="#455a64"/>
      <path id="Trazado_106678" data-name="Trazado 106678" d="M516.281,105.34l1.338.773-.01,8.252-1.338-.773Z" transform="translate(-512.736 -101.84)" fill="#263238"/>
    </g>
    <g id="Bag" transform="translate(49.998)">
      <path id="Trazado_106679" data-name="Trazado 106679" d="M503.273,126.984l19.157-11.06-1.6-23.042L503.273,103.02Z" transform="translate(-496.887 -89.8)" fill="#47ecfa"/>
      <path id="Trazado_106680" data-name="Trazado 106680" d="M503.273,126.984l19.157-11.06-1.6-23.042L503.273,103.02Z" transform="translate(-496.887 -89.8)" fill="#fff" opacity="0.6"/>
      <path id="Trazado_106681" data-name="Trazado 106681" d="M505.788,104.472v-1.843L501,101.707,518.56,91.569l1.6,2.765h3.193Z" transform="translate(-499.403 -91.252)" fill="#47ecfa"/>
      <path id="Trazado_106682" data-name="Trazado 106682" d="M505.788,104.472v-1.843L501,101.707,518.56,91.569l1.6,2.765h3.193Z" transform="translate(-499.403 -91.252)" fill="#fff" opacity="0.3"/>
      <path id="Trazado_106683" data-name="Trazado 106683" d="M509.336,91.569V97.1l1.6-.922V94.334Z" transform="translate(-490.18 -91.252)" fill="#47ecfa"/>
      <path id="Trazado_106684" data-name="Trazado 106684" d="M509.336,91.569V97.1l1.6-.922V94.334Z" transform="translate(-490.18 -91.252)" opacity="0.1"/>
      <path id="Trazado_106685" data-name="Trazado 106685" d="M513.287,92.881h-3.193v1.843Z" transform="translate(-489.341 -89.8)" fill="#47ecfa"/>
      <path id="Trazado_106686" data-name="Trazado 106686" d="M513.287,92.881h-3.193v1.843Z" transform="translate(-489.341 -89.8)" opacity="0.2"/>
      <path id="Trazado_106687" data-name="Trazado 106687" d="M501.837,96.382l-1.6,23.042,6.386,3.687V97.3Z" transform="translate(-500.241 -85.927)" fill="#47ecfa"/>
      <path id="Trazado_106688" data-name="Trazado 106688" d="M501.837,96.382l-1.6,23.042,6.386,3.687V97.3Z" transform="translate(-500.241 -85.927)" opacity="0.1"/>
      <path id="Trazado_106689" data-name="Trazado 106689" d="M504.95,96.82l-3.193,23.964,3.193,1.844Z" transform="translate(-498.564 -85.443)" fill="#47ecfa"/>
      <path id="Trazado_106690" data-name="Trazado 106690" d="M504.95,96.82l-3.193,23.964,3.193,1.844Z" transform="translate(-498.564 -85.443)" opacity="0.2"/>
      <path id="Trazado_106691" data-name="Trazado 106691" d="M506.627,111.09l-2.927-3.842-3.459.155Z" transform="translate(-500.241 -73.906)" fill="#47ecfa"/>
      <g id="Grupo_58989" data-name="Grupo 58989" transform="translate(6.774)">
        <path id="Trazado_106692" data-name="Trazado 106692" d="M503.457,96.749c0,.314.219.44.491.284a1.092,1.092,0,0,0,.493-.853c0-.314-.221-.44-.493-.282A1.082,1.082,0,0,0,503.457,96.749Z" transform="translate(-503.457 -86.538)" fill="#37474f"/>
        <path id="Trazado_106693" data-name="Trazado 106693" d="M506.56,95c0,.314.221.442.493.284a1.088,1.088,0,0,0,.491-.851c0-.314-.221-.44-.491-.284A1.091,1.091,0,0,0,506.56,95Z" transform="translate(-500.024 -88.475)" fill="#37474f"/>
        <g id="Grupo_58988" data-name="Grupo 58988" transform="translate(0.326)">
          <path id="Trazado_106694" data-name="Trazado 106694" d="M503.776,101.273a.165.165,0,0,1-.164-.166V97.081a6.832,6.832,0,0,1,3.351-5.116,2.737,2.737,0,0,1,2.681-.32,1.855,1.855,0,0,1,.834,1.706V97.42a.165.165,0,0,1-.331,0V93.351a1.524,1.524,0,0,0-.668-1.42,2.433,2.433,0,0,0-2.353.32,6.467,6.467,0,0,0-3.187,4.83v4.025A.165.165,0,0,1,503.776,101.273Z" transform="translate(-503.612 -91.418)" fill="#37474f"/>
        </g>
      </g>
      <g id="Grupo_58991" data-name="Grupo 58991" transform="translate(11.637 2.765)">
        <path id="Trazado_106695" data-name="Trazado 106695" d="M505.766,98.062c0,.312.221.44.493.282a1.082,1.082,0,0,0,.491-.851c0-.314-.219-.44-.491-.284A1.091,1.091,0,0,0,505.766,98.062Z" transform="translate(-505.766 -87.851)" fill="#455a64"/>
        <path id="Trazado_106696" data-name="Trazado 106696" d="M508.87,96.31c0,.314.219.44.491.284a1.089,1.089,0,0,0,.491-.851c0-.314-.219-.44-.491-.284A1.082,1.082,0,0,0,508.87,96.31Z" transform="translate(-502.332 -89.787)" fill="#455a64"/>
        <g id="Grupo_58990" data-name="Grupo 58990" transform="translate(0.326)">
          <path id="Trazado_106697" data-name="Trazado 106697" d="M506.087,102.584a.166.166,0,0,1-.166-.164V98.393a6.829,6.829,0,0,1,3.351-5.114,2.736,2.736,0,0,1,2.683-.32,1.852,1.852,0,0,1,.832,1.7v4.071a.164.164,0,0,1-.329,0V94.663a1.521,1.521,0,0,0-.67-1.42,2.434,2.434,0,0,0-2.351.32,6.474,6.474,0,0,0-3.187,4.83v4.027A.165.165,0,0,1,506.087,102.584Z" transform="translate(-505.921 -92.731)" fill="#455a64"/>
        </g>
      </g>
    </g>
    <g id="Card" transform="translate(10.192 98.545)">
      <path id="Trazado_106698" data-name="Trazado 106698" d="M518.547,166.7l22.236-12.835a1.056,1.056,0,0,0,.6-.92c0-.341.006-1.578.006-1.578s-.6.851-.6.857l-16.844,9.718-5.4,3.117a3.231,3.231,0,0,1-2.928,0l-33.668-19.438c-.011-.006-.573-.666-.583-.672s-.032,1.163-.015,1.55a1.017,1.017,0,0,0,.6.767L515.622,166.7A3.213,3.213,0,0,0,518.547,166.7Z" transform="translate(-481.34 -130.745)" fill="#47ecfa"/>
      <path id="Trazado_106699" data-name="Trazado 106699" d="M518.547,166.7l22.236-12.835a1.056,1.056,0,0,0,.6-.92c0-.341.006-1.578.006-1.578s-.6.851-.6.857l-16.844,9.718-5.4,3.117a3.231,3.231,0,0,1-2.928,0l-33.668-19.438c-.011-.006-.573-.666-.583-.672s-.032,1.163-.015,1.55a1.017,1.017,0,0,0,.6.767L515.622,166.7A3.213,3.213,0,0,0,518.547,166.7Z" transform="translate(-481.34 -130.745)" opacity="0.15"/>
      <path id="Trazado_106700" data-name="Trazado 106700" d="M506.521,152.553h0v1.641l6.409-3.7a1.056,1.056,0,0,0,.6-.92c0-.341.006-1.578.006-1.578s-.6.851-.6.857Z" transform="translate(-453.487 -127.373)" fill="#37474f"/>
      <path id="Trazado_106701" data-name="Trazado 106701" d="M540.787,159.686a.163.163,0,0,0,.032-.025c.773-.459.758-1.2-.034-1.666l-33.677-19.441a3.244,3.244,0,0,0-2.928,0L481.947,151.39a.886.886,0,0,0-.03,1.67l.032.021,33.668,19.439a3.231,3.231,0,0,0,2.928,0l5.4-3.117Z" transform="translate(-481.342 -138.205)" fill="#47ecfa"/>
      <path id="Trazado_106702" data-name="Trazado 106702" d="M525.744,163.385l6.411-3.7a.164.164,0,0,0,.032-.025c.773-.459.76-1.2-.034-1.666l-33.677-19.441a3.244,3.244,0,0,0-2.928,0l-6.405,3.7Z" transform="translate(-472.711 -138.205)" fill="#455a64"/>
      <path id="Trazado_106703" data-name="Trazado 106703" d="M481.363,144.949s-.032,1.163-.015,1.55a1.017,1.017,0,0,0,.6.767L515.622,166.7a3.141,3.141,0,0,0,1.853.331v-1.645a3.151,3.151,0,0,1-1.86-.329l-33.668-19.438C481.936,145.615,481.374,144.955,481.363,144.949Z" transform="translate(-481.34 -130.745)" opacity="0.15"/>
      <g id="Grupo_58992" data-name="Grupo 58992" transform="translate(10.22 10.73)">
        <path id="Trazado_106704" data-name="Trazado 106704" d="M486.9,144.572l-.651-.377a.09.09,0,0,1-.051-.059.057.057,0,0,1,.034-.057.182.182,0,0,1,.1-.019.212.212,0,0,1,.105.027l.217.124.939-.541a.113.113,0,0,0,.07-.112.172.172,0,0,0-.095-.12l0,0a.093.093,0,0,1-.051-.061.058.058,0,0,1,.036-.055.174.174,0,0,1,.1-.021.235.235,0,0,1,.105.027l0,0,0,0a.348.348,0,0,1,.2.242.226.226,0,0,1-.139.225l-.939.543.217.124c.029.019.046.038.048.061a.056.056,0,0,1-.036.057.174.174,0,0,1-.1.019A.227.227,0,0,1,486.9,144.572Z" transform="translate(-486.194 -143.3)" fill="#fff"/>
        <path id="Trazado_106705" data-name="Trazado 106705" d="M488.186,144.612l-.434-.251a.479.479,0,0,0-.209-.057.358.358,0,0,0-.2.042l-.139.08a.034.034,0,0,0-.019.029.047.047,0,0,0,.025.029l.923.533a.088.088,0,0,1,.051.061.059.059,0,0,1-.036.057.178.178,0,0,1-.1.019.236.236,0,0,1-.1-.029l-1.087-.626a.089.089,0,0,1-.048-.061.06.06,0,0,1,.036-.057l.28-.162a.733.733,0,0,1,.394-.08.89.89,0,0,1,.417.114l.434.251a.464.464,0,0,0,.209.057.342.342,0,0,0,.2-.04l.187-.107a.111.111,0,0,0,.07-.114.178.178,0,0,0-.1-.122l-.434-.251a.463.463,0,0,0-.208-.057.356.356,0,0,0-.2.042.174.174,0,0,1-.1.019.228.228,0,0,1-.1-.027c-.032-.019-.048-.038-.051-.061a.054.054,0,0,1,.034-.057.734.734,0,0,1,.394-.08.891.891,0,0,1,.417.114l.434.251a.342.342,0,0,1,.2.242.226.226,0,0,1-.139.225l-.187.11a.729.729,0,0,1-.394.08A.891.891,0,0,1,488.186,144.612Z" transform="translate(-485.509 -142.851)" fill="#fff"/>
        <path id="Trazado_106706" data-name="Trazado 106706" d="M489.256,145.394l-.095.053a.685.685,0,0,1-.392.08.915.915,0,0,1-.417-.112l-.434-.251a.339.339,0,0,1-.2-.242.221.221,0,0,1,.137-.225.2.2,0,0,1,.1-.021.234.234,0,0,1,.1.027c.029.019.046.038.048.061a.052.052,0,0,1-.034.057.118.118,0,0,0-.07.114.173.173,0,0,0,.1.12l.434.251a.452.452,0,0,0,.209.057.348.348,0,0,0,.2-.04l.095-.055a.11.11,0,0,0,.07-.112.174.174,0,0,0-.1-.122l-.107-.061c-.032-.019-.048-.038-.051-.061a.057.057,0,0,1,.034-.057.182.182,0,0,1,.1-.019.217.217,0,0,1,.105.027l.107.063a.479.479,0,0,0,.208.057.378.378,0,0,0,.2-.04l.093-.055a.11.11,0,0,0,.069-.114.171.171,0,0,0-.1-.12l-.434-.251a.463.463,0,0,0-.208-.057.375.375,0,0,0-.2.04.177.177,0,0,1-.1.021.227.227,0,0,1-.1-.03.088.088,0,0,1-.051-.059.059.059,0,0,1,.036-.057.71.71,0,0,1,.394-.08.89.89,0,0,1,.417.114l.434.249a.344.344,0,0,1,.2.242.226.226,0,0,1-.139.225l-.093.055a.581.581,0,0,1-.2.067.96.96,0,0,1-.234.011.189.189,0,0,1-.019.135A.288.288,0,0,1,489.256,145.394Z" transform="translate(-484.504 -142.324)" fill="#fff"/>
        <path id="Trazado_106707" data-name="Trazado 106707" d="M489.311,146.159a.213.213,0,0,1-.105-.03.08.08,0,0,1-.048-.059.056.056,0,0,1,.036-.057l.52-.3a.836.836,0,0,1-.267-.095l-.434-.251a.349.349,0,0,1-.2-.24.229.229,0,0,1,.139-.227l.47-.272a.175.175,0,0,1,.1-.019.211.211,0,0,1,.105.027.084.084,0,0,1,.048.061.054.054,0,0,1-.034.057l-.47.272a.113.113,0,0,0-.069.112.173.173,0,0,0,.1.12l.434.251a.416.416,0,0,0,.209.057.335.335,0,0,0,.2-.04l.47-.27a.174.174,0,0,1,.1-.021.235.235,0,0,1,.105.027c.029.019.046.038.048.061a.054.054,0,0,1-.034.057l-1.314.76A.178.178,0,0,1,489.311,146.159Z" transform="translate(-483.297 -141.852)" fill="#fff"/>
        <path id="Trazado_106708" data-name="Trazado 106708" d="M491.162,145.95a.034.034,0,0,0-.019.029.047.047,0,0,0,.025.029l.6.345a.341.341,0,0,1,.2.24.226.226,0,0,1-.139.225l-.187.11a.733.733,0,0,1-.394.08.89.89,0,0,1-.417-.114l-.434-.251a.34.34,0,0,1-.2-.24.223.223,0,0,1,.139-.227.194.194,0,0,1,.1-.021.236.236,0,0,1,.105.029.084.084,0,0,1,.048.061c0,.021-.008.04-.034.057a.11.11,0,0,0-.07.112.164.164,0,0,0,.1.12l.434.253a.451.451,0,0,0,.208.055.342.342,0,0,0,.2-.04l.188-.107a.113.113,0,0,0,.07-.114.168.168,0,0,0-.1-.12l-.651-.375a.18.18,0,0,1-.1-.122.116.116,0,0,1,.07-.112l.47-.272a.182.182,0,0,1,.1-.021.211.211,0,0,1,.1.029l1.085.626a.089.089,0,0,1,.051.061.056.056,0,0,1-.034.055.165.165,0,0,1-.1.021.227.227,0,0,1-.1-.03l-.923-.533a.1.1,0,0,0-.053-.013.082.082,0,0,0-.051.011Z" transform="translate(-481.77 -140.8)" fill="#fff"/>
        <path id="Trazado_106709" data-name="Trazado 106709" d="M492.154,146.524l.434.251a.341.341,0,0,1,.2.242.225.225,0,0,1-.137.227l-.187.107a.715.715,0,0,1-.394.08.907.907,0,0,1-.419-.114l-.434-.251a.339.339,0,0,1-.2-.242.22.22,0,0,1,.139-.225l.75-.434a.714.714,0,0,1,.394-.08.89.89,0,0,1,.417.114l.434.251a.343.343,0,0,1,.2.24.224.224,0,0,1-.139.227.161.161,0,0,1-.1.019.2.2,0,0,1-.1-.027.1.1,0,0,1-.051-.059.064.064,0,0,1,.036-.059.11.11,0,0,0,.07-.112.174.174,0,0,0-.1-.122l-.434-.251a.479.479,0,0,0-.208-.057.366.366,0,0,0-.2.04l-.24.139A.837.837,0,0,1,492.154,146.524Zm-.779.2c-.053.032-.076.067-.07.114a.165.165,0,0,0,.1.12l.434.251a.462.462,0,0,0,.211.059.347.347,0,0,0,.2-.042l.19-.107A.116.116,0,0,0,492.5,147a.175.175,0,0,0-.1-.12l-.434-.251a.416.416,0,0,0-.208-.057.351.351,0,0,0-.2.04Z" transform="translate(-480.858 -140.219)" fill="#fff"/>
        <path id="Trazado_106710" data-name="Trazado 106710" d="M493.557,147.551l-1.287.179-.017,0-.021,0-.025,0-.029,0h-.027l-.03,0-.027-.006-.025-.011a.109.109,0,0,1-.055-.057c-.006-.021.008-.04.04-.059a.407.407,0,0,1,.15-.023q.619-.088,1.192-.179a.454.454,0,0,0,.114-.029c.04-.015.07-.027.091-.036l.032-.017a.112.112,0,0,0,.067-.114.165.165,0,0,0-.1-.12l-.217-.124-.11-.063-.434-.251a.1.1,0,0,1-.05-.061.058.058,0,0,1,.036-.055.161.161,0,0,1,.1-.021.21.21,0,0,1,.1.027l.434.251.109.063.217.126a.332.332,0,0,1,.2.24.221.221,0,0,1-.137.225.881.881,0,0,1-.152.065A.674.674,0,0,1,493.557,147.551Z" transform="translate(-479.758 -139.747)" fill="#fff"/>
        <path id="Trazado_106711" data-name="Trazado 106711" d="M494.2,148.25l-.093.053a.71.71,0,0,1-.394.08.891.891,0,0,1-.417-.114l-.434-.251a.34.34,0,0,1-.2-.24.224.224,0,0,1,.139-.227l.093-.055a.579.579,0,0,1,.2-.065.856.856,0,0,1,.234-.011.2.2,0,0,1,.017-.137.3.3,0,0,1,.118-.112l.093-.055a.734.734,0,0,1,.394-.08.891.891,0,0,1,.417.114l.434.251a.34.34,0,0,1,.2.24.222.222,0,0,1-.137.227l-.095.055a.63.63,0,0,1-.2.067.958.958,0,0,1-.234.011.19.19,0,0,1-.019.135A.287.287,0,0,1,494.2,148.25Zm.44-.506c.053-.032.076-.067.07-.114a.164.164,0,0,0-.1-.12l-.434-.251a.428.428,0,0,0-.209-.057.347.347,0,0,0-.2.04l-.095.055a.109.109,0,0,0-.069.112.168.168,0,0,0,.1.12l.434.251a.416.416,0,0,0,.209.057.337.337,0,0,0,.2-.04Zm-.657.379a.111.111,0,0,0,.07-.114.163.163,0,0,0-.1-.12l-.434-.251a.461.461,0,0,0-.206-.057.359.359,0,0,0-.2.04l-.093.055a.111.111,0,0,0-.07.114.178.178,0,0,0,.1.12l.434.251a.479.479,0,0,0,.209.057.378.378,0,0,0,.2-.04Z" transform="translate(-479.035 -139.167)" fill="#fff"/>
        <path id="Trazado_106712" data-name="Trazado 106712" d="M494.945,149.221l-.434-.251a.339.339,0,0,1-.2-.242.223.223,0,0,1,.139-.225.194.194,0,0,1,.1-.021.238.238,0,0,1,.105.029.079.079,0,0,1,.048.061.056.056,0,0,1-.034.055c-.053.032-.076.067-.07.114a.168.168,0,0,0,.1.12l.434.251a.439.439,0,0,0,.208.059.378.378,0,0,0,.2-.04l.238-.139a.817.817,0,0,1-.27-.1l-.434-.251a.34.34,0,0,1-.2-.24.225.225,0,0,1,.137-.227l.189-.107a.7.7,0,0,1,.392-.08.891.891,0,0,1,.417.114l.434.251a.343.343,0,0,1,.2.24.222.222,0,0,1-.137.227l-.752.434a.715.715,0,0,1-.394.08A.906.906,0,0,1,494.945,149.221Zm1.348-.524a.112.112,0,0,0,.068-.114.17.17,0,0,0-.1-.122l-.434-.251a.479.479,0,0,0-.209-.057.366.366,0,0,0-.2.04l-.19.109a.116.116,0,0,0-.069.114.181.181,0,0,0,.1.12l.434.251a.481.481,0,0,0,.211.057.351.351,0,0,0,.2-.04Z" transform="translate(-477.212 -138.114)" fill="#fff"/>
        <path id="Trazado_106713" data-name="Trazado 106713" d="M495.753,149.686l-.651-.375a.084.084,0,0,1-.048-.059.054.054,0,0,1,.034-.057.177.177,0,0,1,.1-.021.2.2,0,0,1,.1.029l.217.124.939-.543a.109.109,0,0,0,.07-.112.168.168,0,0,0-.095-.12l0,0a.083.083,0,0,1-.051-.059.057.057,0,0,1,.034-.057.2.2,0,0,1,.1-.021.245.245,0,0,1,.105.029h0a.34.34,0,0,1,.2.24.222.222,0,0,1-.139.227l-.939.541.217.126a.082.082,0,0,1,.05.061.063.063,0,0,1-.036.057.177.177,0,0,1-.1.019A.235.235,0,0,1,495.753,149.686Z" transform="translate(-476.394 -137.642)" fill="#fff"/>
        <path id="Trazado_106714" data-name="Trazado 106714" d="M496.389,150.052l-.434-.251a.341.341,0,0,1-.2-.24.226.226,0,0,1,.139-.225l.752-.434a.686.686,0,0,1,.392-.08.915.915,0,0,1,.417.112l.434.251a.348.348,0,0,1,.2.242.226.226,0,0,1-.139.225l-.752.434a.707.707,0,0,1-.392.08A.876.876,0,0,1,496.389,150.052Zm-.246-.358.434.251a.387.387,0,0,0,.126.046l.145-.956-.735.425a.111.111,0,0,0-.07.114A.172.172,0,0,0,496.142,149.694Zm1.561-.4-.434-.251a.426.426,0,0,0-.126-.046l-.145.954.735-.423a.117.117,0,0,0,.07-.114A.173.173,0,0,0,497.7,149.294Z" transform="translate(-475.617 -137.193)" fill="#fff"/>
        <path id="Trazado_106715" data-name="Trazado 106715" d="M497.195,150.519l-.651-.377a.081.081,0,0,1-.048-.059.054.054,0,0,1,.034-.057.177.177,0,0,1,.1-.019.2.2,0,0,1,.1.027l.217.124.939-.541a.11.11,0,0,0,.07-.112.161.161,0,0,0-.095-.12l0,0a.082.082,0,0,1-.051-.061.056.056,0,0,1,.034-.055.182.182,0,0,1,.1-.021.244.244,0,0,1,.105.027l0,0,0,0a.339.339,0,0,1,.2.242.225.225,0,0,1-.137.228l-.941.541.219.124c.03.019.046.038.049.061a.059.059,0,0,1-.036.057.177.177,0,0,1-.1.019A.209.209,0,0,1,497.195,150.519Z" transform="translate(-474.799 -136.721)" fill="#fff"/>
        <path id="Trazado_106716" data-name="Trazado 106716" d="M498.637,151.352l-.651-.377a.086.086,0,0,1-.048-.059.054.054,0,0,1,.034-.057.2.2,0,0,1,.1-.021.237.237,0,0,1,.105.029l.217.124.939-.541a.118.118,0,0,0,.069-.114.17.17,0,0,0-.1-.118l0,0c-.032-.019-.048-.038-.051-.061a.056.056,0,0,1,.036-.057.17.17,0,0,1,.1-.019.211.211,0,0,1,.105.027l0,0,0,0a.34.34,0,0,1,.2.24.222.222,0,0,1-.137.227l-.939.543.217.124a.084.084,0,0,1,.048.061.059.059,0,0,1-.036.057.174.174,0,0,1-.1.019A.236.236,0,0,1,498.637,151.352Z" transform="translate(-473.204 -135.8)" fill="#fff"/>
        <path id="Trazado_106717" data-name="Trazado 106717" d="M499.928,151.392l-.434-.251a.464.464,0,0,0-.209-.057.375.375,0,0,0-.2.04l-.141.082a.026.026,0,0,0-.017.027.046.046,0,0,0,.025.032l.923.533a.081.081,0,0,1,.048.059.054.054,0,0,1-.034.057.161.161,0,0,1-.1.021.228.228,0,0,1-.1-.029l-1.087-.628a.086.086,0,0,1-.048-.059.054.054,0,0,1,.034-.057l.282-.162a.71.71,0,0,1,.394-.08.891.891,0,0,1,.417.114l.434.251a.464.464,0,0,0,.208.057.378.378,0,0,0,.2-.04l.187-.107a.12.12,0,0,0,.07-.114.178.178,0,0,0-.1-.122l-.434-.251a.462.462,0,0,0-.208-.057.356.356,0,0,0-.2.04.181.181,0,0,1-.1.021.237.237,0,0,1-.1-.029.081.081,0,0,1-.048-.059.052.052,0,0,1,.034-.057.7.7,0,0,1,.392-.08.877.877,0,0,1,.417.114l.434.251a.347.347,0,0,1,.2.24.227.227,0,0,1-.139.227l-.187.107a.7.7,0,0,1-.394.08A.906.906,0,0,1,499.928,151.392Z" transform="translate(-472.519 -135.351)" fill="#fff"/>
        <path id="Trazado_106718" data-name="Trazado 106718" d="M500.078,152.184l-.651-.375a.089.089,0,0,1-.049-.061.061.061,0,0,1,.034-.057.181.181,0,0,1,.1-.019.236.236,0,0,1,.105.027l.217.126.939-.543a.116.116,0,0,0,.07-.112.172.172,0,0,0-.095-.12l0,0a.083.083,0,0,1-.051-.059.056.056,0,0,1,.036-.057.17.17,0,0,1,.1-.021.212.212,0,0,1,.105.029h0a.339.339,0,0,1,.2.24.225.225,0,0,1-.137.227l-.939.541.217.126a.085.085,0,0,1,.048.059.056.056,0,0,1-.036.057.174.174,0,0,1-.1.021A.237.237,0,0,1,500.078,152.184Z" transform="translate(-471.608 -134.879)" fill="#fff"/>
        <path id="Trazado_106719" data-name="Trazado 106719" d="M501.618,152.53l-.095.055a.7.7,0,0,1-.392.08.89.89,0,0,1-.417-.114l-.434-.251a.349.349,0,0,1-.2-.24.23.23,0,0,1,.139-.227.174.174,0,0,1,.1-.019.211.211,0,0,1,.105.027.084.084,0,0,1,.049.061.054.054,0,0,1-.034.057.116.116,0,0,0-.07.114.181.181,0,0,0,.1.12l.434.251a.463.463,0,0,0,.208.057.37.37,0,0,0,.2-.04l.095-.055a.117.117,0,0,0,.069-.114.173.173,0,0,0-.1-.12l-.107-.063a.083.083,0,0,1-.051-.059.054.054,0,0,1,.034-.057.181.181,0,0,1,.1-.021.218.218,0,0,1,.105.029l.107.061a.428.428,0,0,0,.208.057.331.331,0,0,0,.2-.04l.095-.053a.114.114,0,0,0,.07-.114.168.168,0,0,0-.1-.12l-.434-.251a.415.415,0,0,0-.208-.057.355.355,0,0,0-.2.04.178.178,0,0,1-.1.019.22.22,0,0,1-.105-.029.081.081,0,0,1-.048-.059c0-.023.01-.04.036-.057a.725.725,0,0,1,.394-.08.875.875,0,0,1,.415.114l.434.251a.348.348,0,0,1,.2.24.227.227,0,0,1-.139.228l-.095.055a.583.583,0,0,1-.194.065.958.958,0,0,1-.234.013.214.214,0,0,1-.019.135A.3.3,0,0,1,501.618,152.53Z" transform="translate(-470.831 -134.43)" fill="#fff"/>
      </g>
      <g id="Grupo_58995" data-name="Grupo 58995" transform="translate(33.498 28.017)">
        <g id="Grupo_58993" data-name="Grupo 58993">
          <path id="Trazado_106720" data-name="Trazado 106720" d="M497.655,152.251l-.381-.219a.054.054,0,0,1-.027-.036.033.033,0,0,1,.019-.034.1.1,0,0,1,.059-.011.145.145,0,0,1,.061.015l.126.074.548-.316a.062.062,0,0,0,.04-.065.092.092,0,0,0-.055-.069l0,0a.053.053,0,0,1-.03-.036.035.035,0,0,1,.021-.032.114.114,0,0,1,.057-.013.115.115,0,0,1,.061.017h0a.2.2,0,0,1,.116.141.134.134,0,0,1-.082.133l-.548.316.126.074c.017.011.027.021.03.034a.036.036,0,0,1-.021.034.113.113,0,0,1-.057.013A.174.174,0,0,1,497.655,152.251Z" transform="translate(-497.246 -151.507)" fill="#fff"/>
          <path id="Trazado_106721" data-name="Trazado 106721" d="M498.41,152.273l-.255-.145a.25.25,0,0,0-.12-.034.219.219,0,0,0-.116.023l-.082.048-.011.017.015.017.539.312a.053.053,0,0,1,.029.036.041.041,0,0,1-.021.034.114.114,0,0,1-.057.011.137.137,0,0,1-.061-.017l-.634-.366c-.017-.011-.027-.021-.03-.034s.006-.025.021-.034l.164-.095a.428.428,0,0,1,.23-.048.525.525,0,0,1,.242.067l.255.145a.25.25,0,0,0,.122.034.19.19,0,0,0,.114-.023l.112-.063a.068.068,0,0,0,.04-.065.1.1,0,0,0-.059-.072l-.253-.145a.258.258,0,0,0-.122-.034.219.219,0,0,0-.116.023.114.114,0,0,1-.057.013.129.129,0,0,1-.059-.017.048.048,0,0,1-.029-.036c0-.013,0-.023.019-.034a.427.427,0,0,1,.23-.046.534.534,0,0,1,.244.067l.253.145a.2.2,0,0,1,.116.141.135.135,0,0,1-.08.133l-.11.063a.412.412,0,0,1-.23.046A.509.509,0,0,1,498.41,152.273Z" transform="translate(-496.846 -151.245)" fill="#fff"/>
          <path id="Trazado_106722" data-name="Trazado 106722" d="M499.13,152.69l-.253-.145a.257.257,0,0,0-.122-.034.208.208,0,0,0-.114.023l-.082.048-.011.015.015.019.539.312a.047.047,0,0,1,.027.034.032.032,0,0,1-.019.034.123.123,0,0,1-.059.013.162.162,0,0,1-.059-.017l-.634-.366a.048.048,0,0,1-.029-.036c0-.013,0-.023.021-.034l.164-.095a.423.423,0,0,1,.23-.046.532.532,0,0,1,.242.067l.253.145a.258.258,0,0,0,.122.034.211.211,0,0,0,.116-.023l.11-.063a.062.062,0,0,0,.04-.065.1.1,0,0,0-.057-.072l-.255-.147a.266.266,0,0,0-.12-.032.22.22,0,0,0-.116.023.1.1,0,0,1-.057.011.145.145,0,0,1-.061-.015.057.057,0,0,1-.029-.036.038.038,0,0,1,.021-.034.427.427,0,0,1,.23-.046.523.523,0,0,1,.242.065l.255.147a.2.2,0,0,1,.116.141.134.134,0,0,1-.082.133l-.109.063a.423.423,0,0,1-.229.046A.548.548,0,0,1,499.13,152.69Z" transform="translate(-496.048 -150.784)" fill="#fff"/>
          <path id="Trazado_106723" data-name="Trazado 106723" d="M499.757,153.145l-.055.034a.447.447,0,0,1-.23.046.534.534,0,0,1-.244-.067l-.253-.145a.209.209,0,0,1-.116-.141.134.134,0,0,1,.082-.133.1.1,0,0,1,.057-.01.145.145,0,0,1,.061.015.054.054,0,0,1,.027.036.032.032,0,0,1-.019.034.065.065,0,0,0-.04.065.1.1,0,0,0,.057.072l.253.145a.258.258,0,0,0,.122.034.207.207,0,0,0,.114-.023l.057-.032a.071.071,0,0,0,.04-.067.1.1,0,0,0-.059-.069l-.063-.036c-.017-.011-.027-.023-.027-.036a.033.033,0,0,1,.019-.034.1.1,0,0,1,.057-.011.128.128,0,0,1,.063.017l.063.036a.266.266,0,0,0,.12.034.22.22,0,0,0,.116-.025l.055-.032a.063.063,0,0,0,.04-.065.1.1,0,0,0-.057-.069l-.255-.147a.268.268,0,0,0-.12-.034.22.22,0,0,0-.116.025.1.1,0,0,1-.057.011.115.115,0,0,1-.061-.017c-.017-.011-.027-.021-.029-.034s.006-.025.021-.034a.409.409,0,0,1,.23-.046.515.515,0,0,1,.244.065l.253.147a.2.2,0,0,1,.114.139.126.126,0,0,1-.08.133l-.055.032a.346.346,0,0,1-.114.04.738.738,0,0,1-.137.006.111.111,0,0,1-.011.078A.155.155,0,0,1,499.757,153.145Z" transform="translate(-495.462 -150.476)" fill="#fff"/>
        </g>
        <g id="Grupo_58994" data-name="Grupo 58994" transform="translate(1.64 1.09)">
          <path id="Trazado_106724" data-name="Trazado 106724" d="M498.03,152.546l0,0a.045.045,0,0,1,.023-.057l1.1-.457a.042.042,0,1,1,.032.078l-1.1.457A.043.043,0,0,1,498.03,152.546Z" transform="translate(-498.025 -152.025)" fill="#fff"/>
        </g>
      </g>
      <g id="Grupo_59001" data-name="Grupo 59001" transform="translate(38.944 21.257)">
        <path id="Trazado_106725" data-name="Trazado 106725" d="M509.211,151.555l-3.682,2.125a1.1,1.1,0,0,1-1,0l-4.493-2.561a.3.3,0,0,1,0-.575l3.682-2.127a1.111,1.111,0,0,1,1,0c1.217.7,3.275,1.858,4.493,2.561A.3.3,0,0,1,509.211,151.555Z" transform="translate(-499.832 -148.298)" fill="#47ecfa"/>
        <g id="Grupo_59000" data-name="Grupo 59000" clip-path="url(#clip-path)">
          <path id="Trazado_106726" data-name="Trazado 106726" d="M509.211,151.555l-3.682,2.125a1.1,1.1,0,0,1-1,0l-4.493-2.561a.3.3,0,0,1,0-.575l3.682-2.127a1.111,1.111,0,0,1,1,0c1.217.7,3.275,1.858,4.493,2.561A.3.3,0,0,1,509.211,151.555Z" transform="translate(-499.832 -148.298)" fill="#fff" opacity="0.8"/>
          <g id="Grupo_58996" data-name="Grupo 58996" transform="translate(1.879 0.069)">
            <path id="Trazado_106727" data-name="Trazado 106727" d="M508.087,152.613l.338-.065-7.364-4.218-.338.065Z" transform="translate(-500.724 -148.331)" fill="#47ecfa"/>
          </g>
          <g id="Grupo_58997" data-name="Grupo 58997" transform="translate(4.558 2.665)">
            <path id="Trazado_106728" data-name="Trazado 106728" d="M502,150.646l.339.065,1.876-1.083-.339-.065Z" transform="translate(-501.996 -149.563)" fill="#47ecfa"/>
          </g>
          <g id="Grupo_58998" data-name="Grupo 58998" transform="translate(2.806 1.695)">
            <path id="Trazado_106729" data-name="Trazado 106729" d="M501.164,150.184l.339.065,1.873-1.081-.339-.065Z" transform="translate(-501.164 -149.102)" fill="#47ecfa"/>
          </g>
          <g id="Grupo_58999" data-name="Grupo 58999" transform="translate(-0.001 1.154)">
            <path id="Trazado_106730" data-name="Trazado 106730" d="M507.195,153.128l.338-.065-7.364-4.218-.338.065Z" transform="translate(-499.831 -148.846)" fill="#47ecfa"/>
          </g>
        </g>
      </g>
      <g id="Grupo_59003" data-name="Grupo 59003" transform="translate(5.82 13.762)">
        <g id="Grupo_59002" data-name="Grupo 59002">
          <path id="Trazado_106732" data-name="Trazado 106732" d="M503.114,155.03,485.52,144.872a1.223,1.223,0,0,0-1.108,0l-.078.044a.337.337,0,0,0,0,.638l17.6,10.16a1.236,1.236,0,0,0,1.108,0l.076-.046A.336.336,0,0,0,503.114,155.03Z" transform="translate(-484.105 -144.739)" fill="#455a64"/>
        </g>
      </g>
      <g id="Grupo_59004" data-name="Grupo 59004" transform="translate(21.387 3.005)">
        <path id="Trazado_106733" data-name="Trazado 106733" d="M493.3,141.184a.224.224,0,0,1,.1-.019.209.209,0,0,1,.086.025l.276.16a.072.072,0,0,1,.042.053c0,.021-.013.04-.04.053a1.633,1.633,0,0,1-.352.122,1.713,1.713,0,0,1-.438.04,2.089,2.089,0,0,1-1.024-.295,1.221,1.221,0,0,1-.349-.28.491.491,0,0,1-.112-.293.462.462,0,0,1,.1-.286,1.13,1.13,0,0,1,.3-.268c.082-.053.177-.109.282-.171s.2-.116.295-.162a2.179,2.179,0,0,1,.463-.171,2,2,0,0,1,.5-.061,2.2,2.2,0,0,1,.506.065,1.986,1.986,0,0,1,.486.2,1.311,1.311,0,0,1,.386.305.534.534,0,0,1,.126.286.381.381,0,0,1-.072.253.829.829,0,0,1-.208.2.153.153,0,0,1-.093.023.177.177,0,0,1-.093-.023l-.278-.16a.092.092,0,0,1-.044-.051c0-.021,0-.04.03-.061a.3.3,0,0,0,.086-.105.185.185,0,0,0,.013-.126.321.321,0,0,0-.08-.143.837.837,0,0,0-.2-.154,1.008,1.008,0,0,0-.274-.11,1.151,1.151,0,0,0-.276-.034,1.035,1.035,0,0,0-.267.036,1.146,1.146,0,0,0-.246.093c-.091.046-.19.1-.293.162s-.2.116-.282.171a.641.641,0,0,0-.162.141.272.272,0,0,0-.059.154.254.254,0,0,0,.057.16.585.585,0,0,0,.192.158,1.21,1.21,0,0,0,.265.116,1.131,1.131,0,0,0,.251.046.957.957,0,0,0,.221-.006A.842.842,0,0,0,493.3,141.184Z" transform="translate(-491.496 -139.632)" fill="#47ecfa"/>
        <path id="Trazado_106734" data-name="Trazado 106734" d="M495.756,140.706c.284.164.436.329.451.491s-.093.312-.329.447a1.4,1.4,0,0,1-.541.181,1.63,1.63,0,0,1-.6-.044l-.373.762a.085.085,0,0,1-.027.027.161.161,0,0,1-.152,0l-.291-.169q-.07-.038-.07-.076a.117.117,0,0,1,.015-.063l.35-.72-.457-.263-.8.461a.183.183,0,0,1-.093.023.208.208,0,0,1-.093-.021l-.278-.162a.062.062,0,0,1-.038-.053.059.059,0,0,1,.038-.053l2.216-1.281a.2.2,0,0,1,.093-.021.208.208,0,0,1,.093.021Zm-1.594.326.5.286a1.074,1.074,0,0,0,.379.141.566.566,0,0,0,.377-.082c.129-.076.177-.147.141-.217a.587.587,0,0,0-.246-.217l-.5-.286Z" transform="translate(-490.461 -139.034)" fill="#47ecfa"/>
        <path id="Trazado_106735" data-name="Trazado 106735" d="M495.495,142.831a.062.062,0,0,1,.038.053.065.065,0,0,1-.038.055l-.244.139a.177.177,0,0,1-.093.023.207.207,0,0,1-.093-.021l-1.5-.87a.062.062,0,0,1-.038-.053.065.065,0,0,1,.038-.055l2.214-1.278a.214.214,0,0,1,.185,0l1.479.853a.065.065,0,0,1,.038.055.062.062,0,0,1-.038.053l-.244.141a.177.177,0,0,1-.093.021.182.182,0,0,1-.093-.021l-1.106-.64-.546.316,1.032.594a.069.069,0,0,1,.038.055.062.062,0,0,1-.038.053l-.244.141a.178.178,0,0,1-.093.021.183.183,0,0,1-.093-.021l-1.032-.6-.569.329Z" transform="translate(-489.254 -138.337)" fill="#47ecfa"/>
        <path id="Trazado_106736" data-name="Trazado 106736" d="M497.811,141.893a1.35,1.35,0,0,1,.375.293.478.478,0,0,1,.122.291.461.461,0,0,1-.107.282,1.222,1.222,0,0,1-.31.272c-.16.1-.329.2-.508.295a2.382,2.382,0,0,1-.472.179,2.017,2.017,0,0,1-.489.061,1.846,1.846,0,0,1-.5-.067,2.049,2.049,0,0,1-.5-.209l-.863-.5a.065.065,0,0,1-.038-.055.062.062,0,0,1,.038-.053l2.214-1.278a.183.183,0,0,1,.093-.021.178.178,0,0,1,.093.021Zm-.383.872a.676.676,0,0,0,.16-.143.249.249,0,0,0,.059-.156.27.27,0,0,0-.065-.166.837.837,0,0,0-.215-.168l-.459-.265-1.544.891.476.274a1.087,1.087,0,0,0,.284.118,1.074,1.074,0,0,0,.278.038,1.052,1.052,0,0,0,.27-.036,1.342,1.342,0,0,0,.248-.093C497.1,142.965,497.267,142.866,497.427,142.765Z" transform="translate(-488.143 -137.695)" fill="#47ecfa"/>
        <path id="Trazado_106737" data-name="Trazado 106737" d="M495.711,143.451a.062.062,0,0,1-.038-.053.059.059,0,0,1,.038-.053l2.214-1.281a.207.207,0,0,1,.093-.021.2.2,0,0,1,.093.021l.278.162a.062.062,0,0,1,.038.053.06.06,0,0,1-.038.053l-2.214,1.278a.184.184,0,0,1-.093.023.2.2,0,0,1-.093-.021Z" transform="translate(-486.875 -136.964)" fill="#47ecfa"/>
        <path id="Trazado_106738" data-name="Trazado 106738" d="M499.819,143.268a.06.06,0,0,1,.038.053c0,.021-.015.038-.04.053l-.242.141a.178.178,0,0,1-.093.021.183.183,0,0,1-.093-.021l-.617-.356-1.879,1.085a.177.177,0,0,1-.093.021.183.183,0,0,1-.093-.021l-.278-.16a.056.056,0,0,1,0-.107l1.877-1.085-.617-.356c-.025-.015-.038-.034-.036-.053a.062.062,0,0,1,.036-.055l.244-.141a.214.214,0,0,1,.185,0Z" transform="translate(-486.08 -136.719)" fill="#47ecfa"/>
        <path id="Trazado_106739" data-name="Trazado 106739" d="M499.428,144.718a.216.216,0,0,1,.1-.019.231.231,0,0,1,.086.025l.278.16a.069.069,0,0,1,.04.053c0,.021-.01.04-.04.055a1.53,1.53,0,0,1-.352.12,1.709,1.709,0,0,1-.438.042,2.253,2.253,0,0,1-.5-.074,2.051,2.051,0,0,1-.529-.221,1.15,1.15,0,0,1-.348-.282.441.441,0,0,1-.011-.579,1.166,1.166,0,0,1,.3-.267c.08-.053.175-.11.28-.171s.2-.114.295-.162a2.194,2.194,0,0,1,.466-.171,2.045,2.045,0,0,1,1,.006,1.912,1.912,0,0,1,.489.2,1.327,1.327,0,0,1,.383.305.534.534,0,0,1,.126.286.37.37,0,0,1-.072.253.794.794,0,0,1-.208.2.165.165,0,0,1-.093.025.208.208,0,0,1-.093-.025l-.278-.16a.076.076,0,0,1-.042-.051c-.006-.021,0-.04.03-.061a.278.278,0,0,0,.084-.1.206.206,0,0,0,.015-.129.32.32,0,0,0-.08-.143.839.839,0,0,0-.2-.152.985.985,0,0,0-.274-.112,1.136,1.136,0,0,0-.276-.034,1.15,1.15,0,0,0-.268.036,1.251,1.251,0,0,0-.244.093c-.093.048-.19.1-.295.162s-.2.118-.282.171a.633.633,0,0,0-.16.143.253.253,0,0,0-.061.152.28.28,0,0,0,.057.16.6.6,0,0,0,.192.158,1.2,1.2,0,0,0,.265.116,1.31,1.31,0,0,0,.251.048,1.08,1.08,0,0,0,.221-.006A.824.824,0,0,0,499.428,144.718Z" transform="translate(-484.722 -135.72)" fill="#47ecfa"/>
        <path id="Trazado_106740" data-name="Trazado 106740" d="M502.133,144.127c.038.021.055.042.053.065a.138.138,0,0,1-.038.078l-1.327,1.736-.021.015a.2.2,0,0,1-.185,0l-.246-.141c-.046-.027-.067-.051-.067-.072a.106.106,0,0,1,.019-.055l.234-.305-1.085-.626-.527.135a.392.392,0,0,1-.095.011.269.269,0,0,1-.126-.038l-.244-.143a.058.058,0,0,1-.038-.053.065.065,0,0,1,.038-.055l.025-.011,3.008-.767a.622.622,0,0,1,.135-.023.219.219,0,0,1,.112.032Zm-1.316.977.6-.781-1.354.348Z" transform="translate(-483.815 -134.935)" fill="#47ecfa"/>
        <path id="Trazado_106741" data-name="Trazado 106741" d="M503.014,144.9c.284.164.436.329.451.491s-.093.312-.329.449a1.441,1.441,0,0,1-.541.179,1.584,1.584,0,0,1-.6-.042l-.375.76a.085.085,0,0,1-.025.029.168.168,0,0,1-.076.017.14.14,0,0,1-.076-.019l-.293-.166c-.044-.027-.067-.053-.067-.078a.126.126,0,0,1,.013-.061l.352-.72-.457-.263-.8.461a.183.183,0,0,1-.093.021.178.178,0,0,1-.093-.021l-.278-.16a.065.065,0,0,1-.038-.055.062.062,0,0,1,.038-.053l2.214-1.278a.186.186,0,0,1,.095-.023.183.183,0,0,1,.093.023Zm-1.6.326.5.289a1.138,1.138,0,0,0,.381.139.569.569,0,0,0,.377-.082c.128-.074.175-.145.141-.217a.6.6,0,0,0-.246-.217l-.5-.286Z" transform="translate(-482.431 -134.398)" fill="#47ecfa"/>
        <path id="Trazado_106742" data-name="Trazado 106742" d="M504.084,145.52a1.326,1.326,0,0,1,.373.293.472.472,0,0,1,.122.289.467.467,0,0,1-.107.284,1.262,1.262,0,0,1-.31.272c-.16.1-.328.2-.508.293a2.384,2.384,0,0,1-.472.179,1.906,1.906,0,0,1-.489.063,1.933,1.933,0,0,1-.5-.067,2.143,2.143,0,0,1-.5-.211l-.864-.5a.062.062,0,0,1-.038-.053.064.064,0,0,1,.038-.055l2.216-1.278a.173.173,0,0,1,.093-.021.182.182,0,0,1,.093.021Zm-.385.87a.647.647,0,0,0,.162-.143.238.238,0,0,0-.011-.32.751.751,0,0,0-.213-.171l-.459-.265-1.544.891.476.276a1.251,1.251,0,0,0,.284.118,1.173,1.173,0,0,0,.28.036,1.036,1.036,0,0,0,.267-.034,1.208,1.208,0,0,0,.249-.095C503.37,146.59,503.538,146.493,503.7,146.39Z" transform="translate(-481.206 -133.685)" fill="#47ecfa"/>
      </g>
    </g>
    <g id="Character" transform="translate(116.345 7.177)">
      <g id="Grupo_59007" data-name="Grupo 59007" transform="translate(0 14.934)">
        <path id="Trazado_106743" data-name="Trazado 106743" d="M542.5,105.53c-.988,2.127-2.679,5.647-3.606,7.6l-3.629-4.271h-3.05s3.669,7.823,5.857,9.64a1.725,1.725,0,0,0,2.5-.15,32.171,32.171,0,0,0,2.458-3.387c1.733-2.675,2.506-3.831,2.506-3.831l2.184-9.177C545.809,101.8,543.871,102.579,542.5,105.53Z" transform="translate(-531.219 -101.897)" fill="#ffa8a7"/>
        <path id="Trazado_106744" data-name="Trazado 106744" d="M543.885,101.951c-1.167-.046-2.433-.19-3.545.781a9.026,9.026,0,0,0-2.424,3.41c-.752,1.767-1.915,4.006-1.915,4.006a9.763,9.763,0,0,0,2.176,2.271,5.522,5.522,0,0,0,2.612,1.1Z" transform="translate(-527.029 -101.916)" fill="#47ecfa"/>
        <path id="Trazado_106745" data-name="Trazado 106745" d="M543.885,101.951c-1.167-.046-2.433-.19-3.545.781a9.026,9.026,0,0,0-2.424,3.41c-.752,1.767-1.915,4.006-1.915,4.006a9.763,9.763,0,0,0,2.176,2.271,5.522,5.522,0,0,0,2.612,1.1Z" transform="translate(-527.029 -101.916)" opacity="0.45"/>
        <path id="Trazado_106746" data-name="Trazado 106746" d="M535.384,107.464a12.89,12.89,0,0,1,1.116,1.523,5.455,5.455,0,0,0-.92-1.934Z" transform="translate(-527.711 -96.234)" fill="#f28f8f"/>
        <g id="Grupo_59006" data-name="Grupo 59006" transform="translate(0 0.902)">
          <g id="Grupo_59005" data-name="Grupo 59005">
            <path id="Trazado_106747" data-name="Trazado 106747" d="M531.816,102.72h-.006l.291-.3v0a.363.363,0,0,1,.322-.067l3.513.6a1.266,1.266,0,0,1,.84.645l3.157,6.866a.329.329,0,0,1-.008.369h0l-.3.314v0a.359.359,0,0,1-.324.07l-3.515-.6a1.262,1.262,0,0,1-.838-.645c-.621-1.348-2.538-5.518-3.159-6.866A.315.315,0,0,1,531.816,102.72Z" transform="translate(-531.741 -102.345)" fill="#455a64"/>
            <path id="Trazado_106748" data-name="Trazado 106748" d="M539.646,110.607l-3.159-6.868a1.267,1.267,0,0,0-.841-.645l-3.513-.6c-.327-.055-.478.143-.341.444.621,1.348,2.538,5.518,3.159,6.866a1.262,1.262,0,0,0,.838.645l3.515.6C539.631,111.106,539.783,110.906,539.646,110.607Z" transform="translate(-531.741 -102.185)" fill="#263238"/>
            <path id="Trazado_106749" data-name="Trazado 106749" d="M533.782,103a1.216,1.216,0,0,1,.447.482l3.159,6.866a.34.34,0,0,1,0,.36l.282-.293,0,0a.328.328,0,0,0,.013-.369l-3.159-6.868a1.255,1.255,0,0,0-.415-.459Z" transform="translate(-529.483 -101.931)" fill="#37474f"/>
          </g>
        </g>
        <path id="Trazado_106750" data-name="Trazado 106750" d="M533.192,108.039c-1.453-1.67-1.413-3.76-.746-4.362l.444.965a16.2,16.2,0,0,0,3.294.413c1.07-.082,1.944-.335,2.237-.128a1.855,1.855,0,0,1-.979,2.978A10.683,10.683,0,0,1,533.192,108.039Z" transform="translate(-531.453 -99.968)" fill="#ffa8a7"/>
      </g>
      <g id="Botom" transform="translate(5.768 30.352)">
        <g id="Grupo_59011" data-name="Grupo 59011">
          <g id="Grupo_59010" data-name="Grupo 59010">
            <path id="Trazado_106751" data-name="Trazado 106751" d="M546.629,134.974a3.7,3.7,0,0,1-3.2,0l-.463-6.089,3.663.484Z" transform="translate(-525.092 -87.499)" fill="#ffa8a7"/>
            <path id="Trazado_106752" data-name="Trazado 106752" d="M541.387,133.186c-.794,1.717-2.224,1.241-3.838.143l.282-6.119h3.89Z" transform="translate(-531.084 -89.351)" fill="#ffa8a7"/>
            <g id="Grupo_59008" data-name="Grupo 59008" transform="translate(14.618 45.803)">
              <path id="Trazado_106753" data-name="Trazado 106753" d="M541.483,137.115a1.409,1.409,0,0,0,.042.941,2.96,2.96,0,0,0,2.094.88,5.088,5.088,0,0,0,3.008-.529,2.092,2.092,0,0,0,1.123-1.641,4.351,4.351,0,0,1,.32-1.889c.3-.491.788-1.045.9-1.312a2.68,2.68,0,0,0,.006-1.407Z" transform="translate(-541.42 -129.681)" fill="#263238"/>
              <path id="Trazado_106754" data-name="Trazado 106754" d="M544.794,132.386a3.307,3.307,0,0,1-.147.769,7.148,7.148,0,0,1-.744,1.519,6.234,6.234,0,0,1-.505.714c-.369.436-.824.794-1.211,1.213a2.483,2.483,0,0,0-.75,1.489c-.051.952.981,1.274,1.776,1.415a5.825,5.825,0,0,0,2.584-.128,2.378,2.378,0,0,0,1.74-1.9c.044-.265.027-.535.059-.8a3.744,3.744,0,0,1,.739-1.664,5.1,5.1,0,0,0,.569-.906,2.877,2.877,0,0,0-.11-1.839c-.137-.506-.293-1.081-.472-1.032a.628.628,0,0,1-.042.305,1.343,1.343,0,0,0-.139.3,2.243,2.243,0,0,1-.145.392,1.028,1.028,0,0,1-.421.465l-.036-1.076a.516.516,0,0,0-.082-.318.5.5,0,0,0-.305-.131,6.708,6.708,0,0,0-2.035-.169.375.375,0,0,0-.274.118.4.4,0,0,0-.044.244A9.043,9.043,0,0,1,544.794,132.386Z" transform="translate(-541.403 -130.982)" fill="#37474f"/>
              <path id="Trazado_106755" data-name="Trazado 106755" d="M542.554,133.227a2.718,2.718,0,0,1,1.582-.223,2.633,2.633,0,0,1,1.234.434.279.279,0,0,0,.362-.029h0a.264.264,0,0,0-.027-.4,2.687,2.687,0,0,0-1.388-.514,2.773,2.773,0,0,0-1.382.107S542.448,132.911,542.554,133.227Z" transform="translate(-540.182 -129.335)" fill="#f5f5f5"/>
              <path id="Trazado_106756" data-name="Trazado 106756" d="M542.159,133.675a3.428,3.428,0,0,1,1.752-.179,2.474,2.474,0,0,1,1.2.455.281.281,0,0,0,.362-.027h0a.265.265,0,0,0-.025-.4,2.786,2.786,0,0,0-1.42-.556c-1.068-.074-1.346.143-1.346.143A.885.885,0,0,0,542.159,133.675Z" transform="translate(-540.602 -128.808)" fill="#f5f5f5"/>
              <path id="Trazado_106757" data-name="Trazado 106757" d="M544.415,132.01a2.664,2.664,0,0,0-1.342.112c-.19.105-.312.4-.192.478a2.487,2.487,0,0,1,1.19-.162,3.545,3.545,0,0,1,1.156.316c.09.042.2.1.293.15a.253.253,0,0,0,.352-.107h0a.236.236,0,0,0-.093-.305A3.417,3.417,0,0,0,544.415,132.01Z" transform="translate(-539.855 -129.878)" fill="#f5f5f5"/>
            </g>
            <g id="Grupo_59009" data-name="Grupo 59009" transform="translate(0 42.099)">
              <path id="Trazado_106758" data-name="Trazado 106758" d="M534.553,133.017a1.158,1.158,0,0,0,.048.847,4.24,4.24,0,0,0,3.157.859,7.274,7.274,0,0,0,3.61-1.262,4.19,4.19,0,0,1,2.222-.573A3.22,3.22,0,0,0,545.78,132a1.913,1.913,0,0,0-.027-1.1Z" transform="translate(-534.464 -127.365)" fill="#263238"/>
              <path id="Trazado_106759" data-name="Trazado 106759" d="M541.585,129.507l-.453-.166a.385.385,0,0,0-.259-.03c-.112.042-.156.175-.185.291a4.288,4.288,0,0,1-.19.758,1.893,1.893,0,0,1-.491.514,7.968,7.968,0,0,1-1.4.9c-.571.308-1.129.546-1.717.811a14.739,14.739,0,0,0-1.868.75,1.261,1.261,0,0,0,.006,2.081,6.17,6.17,0,0,0,4.3.3c1.011-.286,2.136-1.369,3.463-1.472.847-.065,2.443-.3,2.987-.946.2-.284-.067-1.186-.286-1.963-.242-.851-.333-2.18-.615-2.1-.019.282-.263.444-.413.682a5.084,5.084,0,0,0-.3.674,1.216,1.216,0,0,1-.44.581.565.565,0,0,1-.685-.038c-.248-.257-.1-.708-.282-1.017a1.075,1.075,0,0,0-.6-.39Z" transform="translate(-534.48 -129.224)" fill="#37474f"/>
              <path id="Trazado_106760" data-name="Trazado 106760" d="M536.816,130.441a.778.778,0,0,1,.623-.417,2.273,2.273,0,0,1,1.485.56.315.315,0,0,1-.047.52h0a.316.316,0,0,1-.358-.04A2.419,2.419,0,0,0,536.816,130.441Z" transform="translate(-531.895 -128.35)" fill="#f5f5f5"/>
              <path id="Trazado_106761" data-name="Trazado 106761" d="M536.25,130.733a.906.906,0,0,1,.739-.381,2.815,2.815,0,0,1,1.626.609.308.308,0,0,1-.044.5h0a.3.3,0,0,1-.345-.04A2.415,2.415,0,0,0,536.25,130.733Z" transform="translate(-532.521 -127.975)" fill="#f5f5f5"/>
              <path id="Trazado_106762" data-name="Trazado 106762" d="M535.626,131a1.011,1.011,0,0,1,.767-.345,2.705,2.705,0,0,1,1.557.615.309.309,0,0,1-.042.5h0a.306.306,0,0,1-.347-.04A2.3,2.3,0,0,0,535.626,131Z" transform="translate(-533.212 -127.64)" fill="#f5f5f5"/>
            </g>
            <path id="Trazado_106763" data-name="Trazado 106763" d="M552.156,110.879c.219,6.664.2,22.781.2,22.781.072.83.409,2.532.685,5.849.358,4.316-.421,13.809-.421,13.809a4.407,4.407,0,0,1-3.477.019s-2.083-13.528-2.745-17.8c-.579-3.751-1.719-12.176-1.719-12.176l-1.312,10.957a22.418,22.418,0,0,1-.135,5.474c-.305,1.963-1.666,10.038-1.666,10.038a6.872,6.872,0,0,1-3.857-.147s-.128-13.988-.162-15.807c-.04-2.073.918-24.641.918-24.641Z" transform="translate(-531.085 -109.236)" fill="#37474f"/>
            <path id="Trazado_106764" data-name="Trazado 106764" d="M543.68,119.735l-.986-5.459a7.8,7.8,0,0,1-4.24-1.761s.27,1.493,3.7,2.388l.986,5.525-.775,10.264Z" transform="translate(-530.083 -105.609)" fill="#263238"/>
          </g>
        </g>
      </g>
      <g id="Grupo_59017" data-name="Grupo 59017" transform="translate(12.778)">
        <path id="Trazado_106765" data-name="Trazado 106765" d="M538.342,107.063c.295-2.134.577-5,3.884-5.131l4.265.2c1.051.274,5.135.758,5.135.758l.076,9.255s.261,6.673.181,10.245c-3.054,1.936-9.7,2.563-13.876-.6C537.883,118.839,538.051,109.175,538.342,107.063Z" transform="translate(-537.634 -86.964)" fill="#fafafa"/>
        <g id="Grupo_59015" data-name="Grupo 59015" transform="translate(0.416)">
          <g id="Grupo_59013" data-name="Grupo 59013">
            <g id="Grupo_59012" data-name="Grupo 59012">
              <path id="Trazado_106766" data-name="Trazado 106766" d="M538.847,98.811a4.227,4.227,0,0,0,1.87,5.906l-.771.527,7.673.689-.1,1.847a1.387,1.387,0,0,0,.819-.617,34.724,34.724,0,0,0,1.024-3.517c.718-1.651,1.072-3.351.556-3.913a1.476,1.476,0,0,0-.763-.444l1.03-.51a.816.816,0,0,0-1.11-.407.825.825,0,0,0-.232.175,1.939,1.939,0,0,0,.053-.329,1.517,1.517,0,0,0-.23-.963,1.766,1.766,0,0,0-.539-.474,14,14,0,0,0-2.848-1.081c-.543-.194-1.07-.432-1.607-.647a2.025,2.025,0,0,0-1.129-.206.746.746,0,0,0-.63.826,1.458,1.458,0,0,0-1.586-.24,1.255,1.255,0,0,0-.773,1.249,1.587,1.587,0,0,0-1.041.1.9.9,0,0,0-.505.866A2.045,2.045,0,0,0,538.847,98.811Z" transform="translate(-538.005 -94.826)" fill="#37474f"/>
              <path id="Trazado_106767" data-name="Trazado 106767" d="M543.658,97.524c.706-.082,1.405-.2,2.106-.308a.232.232,0,0,1,.185.023.238.238,0,0,1,.061.105c.459,1.344.447,2.8.813,4.175.034.124.112.337.263.354.272.032.457-.209.573-.419l.261-.472a1.214,1.214,0,0,1,.192-.242,1.06,1.06,0,0,1,1.754.362,2.22,2.22,0,0,1-1.3,2.656c-1.352.375-1.525-.489-1.525-.489l-.259,4.821c-1.194,1.251-5.129.815-4.349-.268l.053-1.47a8.485,8.485,0,0,1-1.807.036,2.455,2.455,0,0,1-1.837-2.056,18.221,18.221,0,0,1-.044-6.464,3.705,3.705,0,0,1,.24-.9A7.678,7.678,0,0,0,543.658,97.524Z" transform="translate(-537.414 -92.458)" fill="#ffa8a7"/>
            </g>
            <path id="Trazado_106768" data-name="Trazado 106768" d="M540.425,102.352a16.836,16.836,0,0,0,2.991-.754,2.517,2.517,0,0,0,1.1-1.015,3.46,3.46,0,0,1-.642,1.22c-.586.7-3.463,1.135-3.463,1.135Z" transform="translate(-535.35 -88.457)" fill="#f28f8f"/>
          </g>
          <g id="Grupo_59014" data-name="Grupo 59014" transform="translate(1.435 6.147)">
            <path id="Trazado_106769" data-name="Trazado 106769" d="M540.565,99.089a.478.478,0,0,0,.455.5.484.484,0,0,0,.487-.476.471.471,0,1,0-.941-.027Z" transform="translate(-536.609 -96.783)" fill="#263238"/>
            <path id="Trazado_106770" data-name="Trazado 106770" d="M540.877,98.087l.988.425a.567.567,0,0,0-.291-.727A.526.526,0,0,0,540.877,98.087Z" transform="translate(-536.263 -97.744)" fill="#263238"/>
            <path id="Trazado_106771" data-name="Trazado 106771" d="M541.65,100.057l-1.55.524a.8.8,0,0,0,1.024.541A.857.857,0,0,0,541.65,100.057Z" transform="translate(-537.123 -95.186)" fill="#b16668"/>
            <path id="Trazado_106772" data-name="Trazado 106772" d="M540.815,100.9a.836.836,0,0,0,.537-.59.706.706,0,0,0-.282-.061.691.691,0,0,0-.691.668A.772.772,0,0,0,540.815,100.9Z" transform="translate(-536.814 -94.968)" fill="#f28f8f"/>
            <path id="Trazado_106773" data-name="Trazado 106773" d="M538.717,98.468l.984-.377a.511.511,0,0,0-.668-.3A.537.537,0,0,0,538.717,98.468Z" transform="translate(-538.686 -97.729)" fill="#263238"/>
            <path id="Trazado_106774" data-name="Trazado 106774" d="M538.865,99.091a.479.479,0,0,0,.457.506.494.494,0,1,0-.457-.506Z" transform="translate(-538.49 -96.785)" fill="#263238"/>
            <path id="Trazado_106775" data-name="Trazado 106775" d="M540.761,98.782l-.072,2.608-1.455-.421,1.356-2.207A.377.377,0,0,1,540.761,98.782Z" transform="translate(-538.081 -96.621)" fill="#f28f8f"/>
          </g>
        </g>
        <path id="Trazado_106776" data-name="Trazado 106776" d="M538,109.744c.114-2.7.324-5.089,1.331-6.359s1.548-1.51,3.932-1.472l-.006.164a.89.89,0,0,0-.674.392,14.038,14.038,0,0,0-1.837,4.078c-.691,2.626-.811,8.49-.845,11.65s0,5.7,0,5.7-1.6-.373-2.092-1.171C537.808,122.729,537.884,112.448,538,109.744Z" transform="translate(-537.808 -86.99)" fill="#47ecfa"/>
        <path id="Trazado_106777" data-name="Trazado 106777" d="M538,109.744c.114-2.7.324-5.089,1.331-6.359s1.548-1.51,3.932-1.472l-.006.164a.89.89,0,0,0-.674.392,14.038,14.038,0,0,0-1.837,4.078c-.691,2.626-.811,8.49-.845,11.65s0,5.7,0,5.7-1.6-.373-2.092-1.171C537.808,122.729,537.884,112.448,538,109.744Z" transform="translate(-537.808 -86.99)" opacity="0.35"/>
        <path id="Trazado_106778" data-name="Trazado 106778" d="M542.155,105.227a14.779,14.779,0,0,1,1.356-3.124l2.985.423c1.1.505,2.525,1.717,2.42,2.921l-.781,8.855.217,8.383c-1.7,2.65-6.788,2.161-6.788,2.161s-.143-3.772.021-11.058C541.675,109.7,541.721,107.063,542.155,105.227Z" transform="translate(-533.718 -86.775)" fill="#47ecfa"/>
        <path id="Trazado_106779" data-name="Trazado 106779" d="M542.155,105.227a14.779,14.779,0,0,1,1.356-3.124l2.985.423c1.1.505,2.525,1.717,2.42,2.921l-.781,8.855.217,8.383c-1.7,2.65-6.788,2.161-6.788,2.161s-.143-3.772.021-11.058C541.675,109.7,541.721,107.063,542.155,105.227Z" transform="translate(-533.718 -86.775)" opacity="0.35"/>
        <path id="Trazado_106780" data-name="Trazado 106780" d="M541.747,106.44c.2-.925.3-2.643.466-2.989s1.049-1.036,1.083-1.5l.017-.3a1.513,1.513,0,0,1,.746.385c.278.249,1.1.824,1.1.824a3.767,3.767,0,0,1-.619,1.59c-.487.7-1.169,1.163-1.274.99s-.088-.44-.268-.851c-.225-.512-.278-.729-.516-.221C542.29,104.769,541.747,106.44,541.747,106.44Z" transform="translate(-533.45 -87.279)" fill="#37474f"/>
        <path id="Trazado_106781" data-name="Trazado 106781" d="M539.36,105.871a11.337,11.337,0,0,1,.809-3.311,2.81,2.81,0,0,1,1.468-.853l-.044.752a1.125,1.125,0,0,0-.674.468A12.954,12.954,0,0,0,539.36,105.871Z" transform="translate(-536.15 -87.213)" fill="#37474f"/>
        <g id="Grupo_59016" data-name="Grupo 59016" transform="translate(0.373 19.635)">
          <path id="Trazado_106782" data-name="Trazado 106782" d="M541.71,104.274a62.762,62.762,0,0,1,6.807,1.064l-.023.251a63.112,63.112,0,0,0-6.812-1.066C541.692,104.438,541.7,104.354,541.71,104.274Z" transform="translate(-533.894 -104.009)" fill="#47ecfa"/>
          <path id="Trazado_106783" data-name="Trazado 106783" d="M538.014,104.357c.741-.086,1.588-.164,2.515-.209-.021.082-.04.166-.061.253-.916.046-1.75.124-2.483.211C537.994,104.527,538,104.441,538.014,104.357Z" transform="translate(-537.985 -104.148)" fill="#47ecfa"/>
        </g>
      </g>
      <path id="Trazado_106784" data-name="Trazado 106784" d="M552.159,114.24c-3.189-8.092-3.888-10.611-6.135-11.542a6.044,6.044,0,0,0-1.851-.394,7.232,7.232,0,0,0,1.3,7.656s1.931,4.762,2.9,7.01a29.112,29.112,0,0,1-.558,7.205,2.023,2.023,0,0,1-.769,1.03c-.807.444-.942.946-1.54,1.521-.468.451-.876.552-.807.7a.875.875,0,0,0,1.034.364,7.59,7.59,0,0,0,1.251-.657,7.454,7.454,0,0,1-1.464,2.178c-1.163,1.3-1.447,2.231.88,2.321,1.458.055,3.031-1.137,4.019-4.042.2-.575.4-1.407.6-2.214.152-.348,1.215-5.8,1.441-7.462C552.751,115.809,552.675,115.554,552.159,114.24Z" transform="translate(-518.615 -86.553)" fill="#ffa8a7"/>
      <g id="Grupo_59018" data-name="Grupo 59018" transform="translate(24.793 15.706)">
        <path id="Trazado_106785" data-name="Trazado 106785" d="M543.88,102.328a4.61,4.61,0,0,1,2.82.495c1.262.76,1.7,1.426,3.218,4.969s1.82,4.223,1.82,4.223-.687,2.016-4.737,2.249l-1.818-4.145a8.326,8.326,0,0,1-1.647-4.2A9.48,9.48,0,0,1,543.88,102.328Z" transform="translate(-543.512 -102.283)" fill="#47ecfa"/>
        <path id="Trazado_106786" data-name="Trazado 106786" d="M543.88,102.328a4.61,4.61,0,0,1,2.82.495c1.262.76,1.7,1.426,3.218,4.969s1.82,4.223,1.82,4.223-.687,2.016-4.737,2.249l-1.818-4.145a8.326,8.326,0,0,1-1.647-4.2A9.48,9.48,0,0,1,543.88,102.328Z" transform="translate(-543.512 -102.283)" opacity="0.45"/>
      </g>
    </g>
  </g>
</svg>
