<svg xmlns="http://www.w3.org/2000/svg" width="146.072" height="140.667" viewBox="0 0 146.072 140.667">
  <g id="Grupo_59109" data-name="Grupo 59109" transform="translate(-470.655 -12.439)">
    <path id="Trazado_106787" data-name="Trazado 106787" d="M594.686,53.756c-28.5-16.457-74.568-16.457-102.888,0s-28.17,43.14.333,59.6,74.572,16.457,102.892,0S623.193,70.213,594.686,53.756Z" transform="translate(0 27.409)" fill="#c595ff"/>
    <path id="Trazado_106788" data-name="Trazado 106788" d="M540.451,63.075a8.361,8.361,0,0,1,7.589,0c2.09,1.214,2.078,3.182-.023,4.4a8.361,8.361,0,0,1-7.589,0C538.337,66.256,538.349,64.289,540.451,63.075Z" transform="translate(64.528 47.038)" fill="#e0e0e0"/>
    <path id="Trazado_106789" data-name="Trazado 106789" d="M561.676,62.945c-9.084-5.244-23.766-5.244-32.794,0-7.975,4.635-8.86,11.812-2.693,17.039a25.442,25.442,0,0,0-13.933,2.849c-6.671,3.876-6.636,10.162.078,14.038s17.564,3.876,24.235,0c5.307-3.084,6.363-7.692,3.2-11.4,7.648,1.107,16.064-.07,22.021-3.53C570.811,76.7,570.762,68.191,561.676,62.945Z" transform="translate(34.643 44.056)" fill="#9d73d8" opacity="0.46"/>
    <path id="Trazado_106790" data-name="Trazado 106790" d="M486.1,68.975a9.527,9.527,0,0,0-8.636,0c-2.378,1.382-2.364,3.621.027,5a9.519,9.519,0,0,0,8.638,0C488.505,72.6,488.494,70.357,486.1,68.975Z" transform="translate(4.762 52.503)" fill="#e0e0e0"/>
    <g id="Grupo_59022" data-name="Grupo 59022" transform="translate(483.764 12.44)">
      <g id="Grupo_59020" data-name="Grupo 59020" transform="translate(18.524)">
        <path id="Trazado_106791" data-name="Trazado 106791" d="M498.773,13.4l1.679-.959.105,36.709,0,0-13.537,7.729-.005-1.923-.1-34.787Z" transform="translate(-486.911 -12.44)" fill="#f0f0f0"/>
        <path id="Trazado_106792" data-name="Trazado 106792" d="M493.106,48.185l-.1-34.787,1.679-.959.105,36.709,0,0-1.686-.963Z" transform="translate(-481.144 -12.44)" opacity="0.1"/>
        <path id="Trazado_106793" data-name="Trazado 106793" d="M486.962,37.58l11.856-6.77,1.686.963L486.967,39.5Z" transform="translate(-486.862 4.939)" opacity="0.2"/>
      </g>
      <g id="Grupo_59021" data-name="Grupo 59021" transform="translate(0 10.576)">
        <path id="Trazado_106794" data-name="Trazado 106794" d="M489.254,18.833l1.679-.959.105,36.709,0,0L477.5,62.316l-.006-1.923-.1-34.787Z" transform="translate(-477.392 -17.875)" fill="#f0f0f0"/>
        <path id="Trazado_106795" data-name="Trazado 106795" d="M483.587,53.62l-.1-34.787,1.679-.959.105,36.709,0,0-1.686-.963Z" transform="translate(-471.625 -17.875)" opacity="0.1"/>
        <path id="Trazado_106796" data-name="Trazado 106796" d="M477.443,43.015l11.856-6.77,1.686.963-13.537,7.729Z" transform="translate(-477.343 -0.496)" opacity="0.2"/>
      </g>
    </g>
    <g id="Grupo_59039" data-name="Grupo 59039" transform="translate(548.79 18.418)">
      <path id="Trazado_106797" data-name="Trazado 106797" d="M515.168,17.015v0l-.1-.08h0Z" transform="translate(-506.775 -14.163)" fill="none"/>
      <path id="Trazado_106798" data-name="Trazado 106798" d="M515.418,17.226l-.019-.017.019.017Z" transform="translate(-506.463 -13.906)" fill="none"/>
      <path id="Trazado_106799" data-name="Trazado 106799" d="M513.441,16.1l-.142-.027c.047.01.091.016.136.025Z" transform="translate(-508.45 -14.977)" fill="none"/>
      <path id="Trazado_106800" data-name="Trazado 106800" d="M513.6,16.147c-.043-.012-.086-.021-.129-.031l.123.029Z" transform="translate(-508.286 -14.94)" fill="none"/>
      <path id="Trazado_106801" data-name="Trazado 106801" d="M514.24,16.409l-.013-.006.013.006Z" transform="translate(-507.571 -14.668)" fill="none"/>
      <path id="Trazado_106802" data-name="Trazado 106802" d="M516.5,25.024c.09-.027.177-.058.265-.093C516.673,24.966,516.586,25,516.5,25.024Z" transform="translate(-505.425 -6.601)" fill="none"/>
      <path id="Trazado_106803" data-name="Trazado 106803" d="M517.055,19.273h0l-.058-.1h0Z" transform="translate(-504.951 -12.047)" fill="none"/>
      <path id="Trazado_106804" data-name="Trazado 106804" d="M516.883,18.987l-.07-.111h0Z" transform="translate(-505.125 -12.329)" fill="none"/>
      <path id="Trazado_106805" data-name="Trazado 106805" d="M515.727,17.517l-.06-.058.06.058Z" transform="translate(-506.21 -13.67)" fill="none"/>
      <path id="Trazado_106806" data-name="Trazado 106806" d="M515.894,17.69l0,0,0,0Z" transform="translate(-505.997 -13.453)" fill="none"/>
      <path id="Trazado_106807" data-name="Trazado 106807" d="M516.38,18.262l-.01-.014h0Z" transform="translate(-505.545 -12.922)" fill="none"/>
      <path id="Trazado_106808" data-name="Trazado 106808" d="M516.11,25.066a2.85,2.85,0,0,0,.292-.033A2.85,2.85,0,0,1,516.11,25.066Z" transform="translate(-505.79 -6.505)" fill="none"/>
      <path id="Trazado_106809" data-name="Trazado 106809" d="M513.339,23.744c.146.142.3.282.448.416C513.635,24.026,513.485,23.886,513.339,23.744Z" transform="translate(-508.412 -7.724)" fill="none"/>
      <path id="Trazado_106810" data-name="Trazado 106810" d="M514.442,24.6c.14.08.278.154.416.224C514.72,24.749,514.582,24.675,514.442,24.6Z" transform="translate(-507.368 -6.919)" fill="none"/>
      <path id="Trazado_106811" data-name="Trazado 106811" d="M514.177,24.428c.169.115.343.224.516.325C514.52,24.652,514.346,24.543,514.177,24.428Z" transform="translate(-507.619 -7.077)" fill="none"/>
      <path id="Trazado_106812" data-name="Trazado 106812" d="M515.528,25.015c.051.01.1.021.152.029C515.629,25.036,515.579,25.025,515.528,25.015Z" transform="translate(-506.341 -6.522)" fill="none"/>
      <path id="Trazado_106813" data-name="Trazado 106813" d="M517.345,19.825l-.021-.043h0Z" transform="translate(-504.642 -11.472)" fill="none"/>
      <path id="Trazado_106814" data-name="Trazado 106814" d="M512.5,16.057h0Z" transform="translate(-509.208 -14.996)" fill="none"/>
      <path id="Trazado_106815" data-name="Trazado 106815" d="M513.053,16.04l-.088,0,.07,0Z" transform="translate(-508.766 -15.016)" fill="none"/>
      <path id="Trazado_106816" data-name="Trazado 106816" d="M512.737,16.034h.006l-.08.008h0Z" transform="translate(-509.051 -15.018)" fill="none"/>
      <path id="Trazado_106817" data-name="Trazado 106817" d="M513.274,16.069h.006c-.05-.008-.1-.012-.15-.018.045.006.088.008.132.016Z" transform="translate(-508.609 -15.002)" fill="none"/>
      <path id="Trazado_106818" data-name="Trazado 106818" d="M512.289,16.108l.008,0-.051.018.025-.01Z" transform="translate(-509.446 -14.949)" fill="none"/>
      <path id="Trazado_106819" data-name="Trazado 106819" d="M512.122,16.167l-.049.019.043-.018Z" transform="translate(-509.609 -14.892)" fill="none"/>
      <path id="Trazado_106820" data-name="Trazado 106820" d="M514.811,16.749l-.021-.014.021.014Z" transform="translate(-507.039 -14.354)" fill="none"/>
      <path id="Trazado_106821" data-name="Trazado 106821" d="M518.058,23.52c-.012.066-.021.136-.035.2C518.037,23.656,518.046,23.586,518.058,23.52Z" transform="translate(-503.981 -7.936)" fill="none"/>
      <path id="Trazado_106822" data-name="Trazado 106822" d="M517.984,23.881c-.017.06-.033.121-.052.179C517.952,24,517.967,23.941,517.984,23.881Z" transform="translate(-504.067 -7.594)" fill="none"/>
      <path id="Trazado_106823" data-name="Trazado 106823" d="M518.025,23.707c-.014.062-.027.125-.043.187C518,23.832,518.011,23.769,518.025,23.707Z" transform="translate(-504.02 -7.759)" fill="none"/>
      <path id="Trazado_106824" data-name="Trazado 106824" d="M517.877,24.206c-.021.053-.043.105-.068.156C517.834,24.311,517.856,24.259,517.877,24.206Z" transform="translate(-504.183 -7.287)" fill="none"/>
      <path id="Trazado_106825" data-name="Trazado 106825" d="M517.935,24.048c-.019.054-.039.113-.06.167C517.9,24.161,517.916,24.1,517.935,24.048Z" transform="translate(-504.121 -7.436)" fill="none"/>
      <path id="Trazado_106826" data-name="Trazado 106826" d="M517.812,24.354c-.025.049-.049.1-.076.146C517.763,24.453,517.787,24.4,517.812,24.354Z" transform="translate(-504.252 -7.147)" fill="none"/>
      <path id="Trazado_106827" data-name="Trazado 106827" d="M517.755,20.833h0Z" transform="translate(-504.235 -10.479)" fill="none"/>
      <path id="Trazado_106828" data-name="Trazado 106828" d="M514.465,16.53c.1.058.2.117.3.179C514.661,16.649,514.564,16.588,514.465,16.53Z" transform="translate(-507.347 -14.548)" fill="none"/>
      <path id="Trazado_106829" data-name="Trazado 106829" d="M518.1,23.1c-.006.09-.012.179-.02.267C518.087,23.283,518.093,23.194,518.1,23.1Z" transform="translate(-503.928 -8.329)" fill="none"/>
      <path id="Trazado_106830" data-name="Trazado 106830" d="M518.084,23.317c-.01.078-.018.158-.029.234C518.067,23.475,518.074,23.395,518.084,23.317Z" transform="translate(-503.951 -8.128)" fill="none"/>
      <path id="Trazado_106831" data-name="Trazado 106831" d="M518.1,22.825c0,.14,0,.278-.01.413C518.1,23.1,518.1,22.965,518.1,22.825Z" transform="translate(-503.914 -8.593)" fill="none"/>
      <path id="Trazado_106832" data-name="Trazado 106832" d="M518.091,22.527l0-.039,0,.039Z" transform="translate(-503.92 -8.912)" fill="none"/>
      <path id="Trazado_106833" data-name="Trazado 106833" d="M518.06,22.166l-.012-.076.012.076Z" transform="translate(-503.957 -9.289)" fill="none"/>
      <path id="Trazado_106834" data-name="Trazado 106834" d="M517.372,24.961c.035-.035.068-.072.1-.107C517.44,24.889,517.407,24.926,517.372,24.961Z" transform="translate(-504.597 -6.674)" fill="none"/>
      <path id="Trazado_106835" data-name="Trazado 106835" d="M517.981,21.676l-.012-.047.012.047Z" transform="translate(-504.032 -9.725)" fill="none"/>
      <path id="Trazado_106836" data-name="Trazado 106836" d="M518.037,21.989h0L518,21.8h0Z" transform="translate(-504.001 -9.567)" fill="none"/>
      <path id="Trazado_106837" data-name="Trazado 106837" d="M517.738,24.493c-.027.047-.052.093-.082.136C517.685,24.586,517.711,24.54,517.738,24.493Z" transform="translate(-504.328 -7.016)" fill="none"/>
      <path id="Trazado_106838" data-name="Trazado 106838" d="M517.266,25.046c-.039.029-.076.06-.117.088C517.19,25.106,517.227,25.075,517.266,25.046Z" transform="translate(-504.808 -6.492)" fill="none"/>
      <path id="Trazado_106839" data-name="Trazado 106839" d="M517.57,24.744c-.033.037-.064.078-.1.115C517.506,24.822,517.537,24.781,517.57,24.744Z" transform="translate(-504.501 -6.778)" fill="none"/>
      <path id="Trazado_106840" data-name="Trazado 106840" d="M517.658,24.623c-.029.043-.058.086-.09.126C517.6,24.709,517.628,24.666,517.658,24.623Z" transform="translate(-504.411 -6.893)" fill="none"/>
      <path id="Trazado_106841" data-name="Trazado 106841" d="M517.373,24.955c-.037.033-.072.066-.109.1C517.3,25.021,517.336,24.988,517.373,24.955Z" transform="translate(-504.699 -6.578)" fill="none"/>
      <path id="Trazado_106842" data-name="Trazado 106842" d="M512.064,16.642l-.105.068Z" transform="translate(-509.717 -14.442)" fill="none"/>
      <path id="Trazado_106843" data-name="Trazado 106843" d="M511.6,21.183c-.068-.181-.134-.364-.195-.547.06.183.126.366.195.547Z" transform="translate(-510.24 -10.664)" fill="none"/>
      <path id="Trazado_106844" data-name="Trazado 106844" d="M511.481,20.887h0c-.062-.187-.119-.376-.171-.564h0C511.363,20.512,511.419,20.7,511.481,20.887Z" transform="translate(-510.331 -10.96)" fill="none"/>
      <path id="Trazado_106845" data-name="Trazado 106845" d="M522.054,32.206q-.146.023-.3.035l-.064,0c-.125.008-.251.008-.379,0l-.088,0c-.144-.01-.29-.021-.44-.045-.1-.016-.2-.033-.3-.054l-.093-.023c-.07-.016-.138-.033-.206-.051-.117-.033-.235-.068-.354-.109l-.072-.027c-.1-.035-.193-.07-.29-.111l-.111-.047c-.1-.045-.206-.093-.311-.144l-.119-.058c-.138-.068-.276-.142-.416-.222-.175-.1-.346-.21-.518-.325l-.088-.058c-.161-.111-.323-.228-.483-.35l-.091-.072c-.162-.126-.323-.259-.479-.4l-.043-.037c-.152-.134-.3-.274-.448-.418l-.072-.068c-.113-.113-.226-.228-.335-.344l-.02-.019c-.1-.111-.206-.226-.306-.341l-.066-.076c-.165-.193-.327-.387-.483-.588l-.051-.066c-.125-.162-.245-.327-.364-.494l-.053-.074c-.113-.162-.224-.329-.333-.5l-.076-.119c-.088-.138-.171-.278-.255-.418l-.054-.09c-.094-.162-.183-.325-.271-.488l-.064-.121c-.068-.13-.134-.263-.2-.4l-.064-.132c-.08-.165-.156-.335-.23-.5l-.031-.074c-.064-.152-.126-.3-.187-.457L512.8,24.2c-.07-.183-.136-.364-.2-.547l-.014-.045c-.062-.187-.119-.376-.173-.564l-.031-.109c-.058-.218-.113-.438-.16-.656l-.031-.144c-.017-.086-.033-.171-.049-.255-.012-.06-.023-.121-.033-.179-.014-.09-.027-.177-.039-.265-.008-.053-.016-.105-.021-.158-.025-.189-.043-.378-.056-.562l-.008-.119c-.01-.193-.018-.383-.018-.57a5.285,5.285,0,0,1,1.127-3.561,5.315,5.315,0,0,1,3.719.819,14.415,14.415,0,0,1,6.542,11.331,5.288,5.288,0,0,1-1.123,3.555c-.031.006-.062.016-.1.021Z" transform="translate(-509.703 -14.687)" fill="none"/>
      <path id="Trazado_106846" data-name="Trazado 106846" d="M512.354,22.566c-.086-.138-.171-.278-.255-.418.084.14.169.28.255.416Z" transform="translate(-509.585 -9.234)" fill="none"/>
      <path id="Trazado_106847" data-name="Trazado 106847" d="M513.163,23.593c-.163-.191-.325-.387-.483-.588.158.2.319.4.483.588Z" transform="translate(-509.035 -8.423)" fill="none"/>
      <path id="Trazado_106848" data-name="Trazado 106848" d="M511.8,21.586c.064.132.13.263.2.393C511.927,21.849,511.861,21.718,511.8,21.586Z" transform="translate(-509.87 -9.765)" fill="none"/>
      <path id="Trazado_106849" data-name="Trazado 106849" d="M512.2,22.339h0c-.093-.162-.185-.323-.272-.488h0C512.02,22.016,512.111,22.178,512.2,22.339Z" transform="translate(-509.743 -9.515)" fill="none"/>
      <path id="Trazado_106850" data-name="Trazado 106850" d="M516.922,24.856l.021-.01a2.836,2.836,0,0,1-.269.13l.006,0C516.763,24.937,516.844,24.9,516.922,24.856Z" transform="translate(-505.256 -6.682)" fill="none"/>
      <path id="Trazado_106851" data-name="Trazado 106851" d="M512.6,22.919c-.113-.162-.224-.327-.331-.494.107.167.218.333.331.494Z" transform="translate(-509.423 -8.972)" fill="none"/>
      <path id="Trazado_106852" data-name="Trazado 106852" d="M513.268,23.685c-.1-.111-.2-.224-.306-.339h0C513.063,23.461,513.164,23.574,513.268,23.685Z" transform="translate(-508.768 -8.101)" fill="none"/>
      <path id="Trazado_106853" data-name="Trazado 106853" d="M514.081,24.384c-.169-.134-.339-.272-.5-.418l.025.021Q513.839,24.195,514.081,24.384Z" transform="translate(-508.187 -7.514)" fill="none"/>
      <path id="Trazado_106854" data-name="Trazado 106854" d="M514.4,24.593l.064.041c-.206-.136-.409-.284-.607-.44l.06.047C514.071,24.363,514.232,24.48,514.4,24.593Z" transform="translate(-507.925 -7.298)" fill="none"/>
      <path id="Trazado_106855" data-name="Trazado 106855" d="M516.83,24.837h0Z" transform="translate(-505.109 -6.69)" fill="none"/>
      <path id="Trazado_106856" data-name="Trazado 106856" d="M513.464,23.875c-.113-.113-.224-.228-.335-.344C513.24,23.648,513.351,23.763,513.464,23.875Z" transform="translate(-508.61 -7.926)" fill="none"/>
      <path id="Trazado_106857" data-name="Trazado 106857" d="M515.063,24.9h0c-.127-.054-.253-.113-.381-.177l.068.035C514.855,24.808,514.96,24.854,515.063,24.9Z" transform="translate(-507.141 -6.799)" fill="none"/>
      <path id="Trazado_106858" data-name="Trazado 106858" d="M515.225,24.948l.072.027c.119.041.236.076.35.107a6.351,6.351,0,0,1-.714-.245h0C515.034,24.878,515.13,24.915,515.225,24.948Z" transform="translate(-506.904 -6.69)" fill="none"/>
      <path id="Trazado_106859" data-name="Trazado 106859" d="M515.937,25.061c-.07,0-.14-.008-.21-.016.07.006.14.012.208.016Z" transform="translate(-506.153 -6.493)" fill="none"/>
      <path id="Trazado_106860" data-name="Trazado 106860" d="M516.255,25.054c-.123.006-.249.008-.379,0h.006C516.008,25.062,516.135,25.06,516.255,25.054Z" transform="translate(-506.012 -6.485)" fill="none"/>
      <path id="Trazado_106861" data-name="Trazado 106861" d="M516.63,24.987a3.067,3.067,0,0,1-.327.076l.008,0A2.923,2.923,0,0,0,516.63,24.987Z" transform="translate(-505.608 -6.548)" fill="none"/>
      <path id="Trazado_106862" data-name="Trazado 106862" d="M515.508,25.014c-.037-.008-.076-.018-.113-.027l.025.006Z" transform="translate(-506.467 -6.548)" fill="none"/>
      <path id="Trazado_106863" data-name="Trazado 106863" d="M512.831,23.211h0c-.125-.162-.247-.327-.366-.494h0C512.586,22.884,512.708,23.05,512.831,23.211Z" transform="translate(-509.237 -8.696)" fill="none"/>
      <path id="Trazado_106864" data-name="Trazado 106864" d="M511.565,17.11c-.025.035-.051.07-.074.105C511.514,17.18,511.54,17.145,511.565,17.11Z" transform="translate(-510.16 -14)" fill="none"/>
      <path id="Trazado_106865" data-name="Trazado 106865" d="M511.654,17c-.027.033-.057.064-.082.1C511.6,17.062,511.627,17.031,511.654,17Z" transform="translate(-510.083 -14.106)" fill="none"/>
      <path id="Trazado_106866" data-name="Trazado 106866" d="M511.484,17.23c-.023.039-.047.074-.068.113C511.437,17.3,511.461,17.269,511.484,17.23Z" transform="translate(-510.231 -13.886)" fill="none"/>
      <path id="Trazado_106867" data-name="Trazado 106867" d="M511.848,16.8c-.031.027-.064.054-.1.084C511.784,16.856,511.817,16.829,511.848,16.8Z" transform="translate(-509.912 -14.291)" fill="none"/>
      <path id="Trazado_106868" data-name="Trazado 106868" d="M511.954,16.717l-.1.076Z" transform="translate(-509.818 -14.371)" fill="none"/>
      <path id="Trazado_106869" data-name="Trazado 106869" d="M511.747,16.9c-.029.031-.058.06-.088.093C511.688,16.955,511.717,16.926,511.747,16.9Z" transform="translate(-510.001 -14.203)" fill="none"/>
      <path id="Trazado_106870" data-name="Trazado 106870" d="M511.534,20.987c.058.154.121.306.187.457C511.655,21.293,511.592,21.141,511.534,20.987Z" transform="translate(-510.119 -10.332)" fill="none"/>
      <path id="Trazado_106871" data-name="Trazado 106871" d="M511.645,21.26c.074.169.152.337.232.5C511.8,21.6,511.719,21.429,511.645,21.26Z" transform="translate(-510.014 -10.074)" fill="none"/>
      <path id="Trazado_106872" data-name="Trazado 106872" d="M515.047,30.233c-.1-.111-.2-.224-.306-.339h0l-.066-.076h0c-.163-.191-.325-.387-.483-.588l-.049-.066h0c-.123-.162-.245-.327-.364-.494h0l-.052-.074h0c-.113-.162-.224-.327-.331-.494l-.078-.121v0c-.086-.136-.171-.276-.255-.416l-.052-.09h0c-.093-.162-.185-.323-.272-.488h0l-.064-.123c-.068-.13-.134-.261-.2-.393l-.064-.13c-.08-.167-.158-.335-.232-.5l-.029-.074c-.066-.152-.128-.3-.187-.457l-.054-.136h0c-.068-.181-.134-.364-.195-.547l-.016-.045h0c-.062-.187-.119-.376-.171-.564h0L511.5,23.9c-.06-.218-.113-.438-.162-.656h0l-.029-.144c-.02-.086-.035-.169-.051-.255l-.029-.163,0-.016c-.016-.09-.027-.177-.041-.265-.006-.053-.016-.105-.021-.158-.023-.189-.043-.376-.055-.562l-.008-.119c-.012-.193-.019-.381-.018-.57,0-.13,0-.257.01-.381,0-.049.006-.093.01-.14,0-.076.008-.154.016-.228,0-.049.012-.093.018-.142.008-.07.016-.142.025-.21.008-.051.018-.1.025-.146.01-.064.021-.128.033-.191s.021-.1.033-.146.025-.119.041-.177.027-.093.041-.142.031-.111.049-.163.031-.091.049-.136.035-.105.054-.154.037-.088.055-.13.041-.1.062-.144.043-.082.062-.123.045-.091.07-.136.045-.074.068-.113.051-.086.078-.128.049-.07.074-.105.054-.08.084-.119.055-.066.082-.1.058-.074.088-.107.058-.062.088-.093.064-.066.1-.1.064-.056.1-.084.066-.06.1-.09l.1-.076.105-.078.1-.068a3.175,3.175,0,0,1,1.051-.424,5.285,5.285,0,0,0-1.127,3.561c0,.187.008.378.017.57l.008.119c.014.185.031.374.056.562.006.053.014.105.021.158.012.088.025.175.039.265.01.058.021.119.033.179.016.084.031.169.049.255l.031.144c.047.218.1.438.16.656l.031.109c.055.189.111.378.173.564l.014.045c.06.183.126.364.2.547l.052.136c.06.154.123.306.187.457l.031.074c.074.167.15.337.23.5l.064.132c.066.132.132.265.2.4l.064.121c.088.163.177.327.271.488l.054.09c.084.14.167.28.255.418l.076.119c.109.167.22.335.333.5l.053.074c.119.167.239.333.364.494l.051.066c.156.2.317.4.483.588l.066.076c.1.115.2.23.305.341l.02.019c.109.117.222.232.335.344l.072.068c.148.144.3.284.448.418l.043.037c.156.138.317.27.479.4l.091.072c.16.123.321.239.483.35l.088.058c.171.115.342.224.518.325.14.08.278.154.416.222l.119.058c.1.051.208.1.311.144l.111.047c.1.041.195.076.29.111l.072.027c.119.041.237.076.354.109.068.018.136.035.206.051l.093.023c.1.021.2.039.3.054.15.023.3.035.44.045l.088,0c.128,0,.255,0,.38,0l.064,0q.152-.012.3-.035l.089-.016c.033-.006.064-.016.1-.021a3.229,3.229,0,0,1-.813.666h0l-.033.018-.021.01c-.078.043-.16.082-.241.119l-.006,0-.083.035c-.088.035-.175.066-.265.093l-.049.016a2.923,2.923,0,0,1-.319.074l-.008,0-.084.014a2.847,2.847,0,0,1-.292.033l-.076.008c-.121.006-.247.008-.374,0h-.006l-.08,0h0c-.068,0-.138-.01-.208-.016s-.156-.018-.235-.029c-.051-.008-.1-.019-.152-.029s-.1-.016-.146-.027l-.088-.021-.025-.006c-.062-.016-.123-.029-.185-.047-.115-.031-.231-.066-.35-.107l-.072-.027c-.1-.033-.191-.07-.288-.111h0l-.107-.047h0c-.1-.045-.208-.091-.313-.142l-.068-.035-.051-.023c-.138-.07-.276-.144-.416-.224-.173-.1-.347-.21-.516-.325l-.023-.016-.064-.041c-.164-.113-.325-.23-.483-.352l-.06-.047-.033-.025q-.242-.19-.479-.4l-.025-.021-.016-.016c-.152-.134-.3-.274-.448-.416l-.074-.07c-.113-.113-.224-.228-.335-.344Z" transform="translate(-510.548 -14.649)" fill="#eaeaea"/>
      <g id="Grupo_59038" data-name="Grupo 59038" transform="translate(1.401 1.188)">
        <g id="Grupo_59023" data-name="Grupo 59023" transform="translate(11.024 10.814)">
          <path id="Trazado_106873" data-name="Trazado 106873" d="M517.193,21.68v.4l1.139.657v-.4Z" transform="translate(-517.192 -21.68)" fill="#fff"/>
        </g>
        <g id="Grupo_59024" data-name="Grupo 59024" transform="translate(1.635 2.3)">
          <path id="Trazado_106874" data-name="Trazado 106874" d="M512.543,17.3l-.176.247.986,1.225.176-.248Z" transform="translate(-512.367 -17.304)" fill="#fff"/>
        </g>
        <g id="Grupo_59025" data-name="Grupo 59025">
          <path id="Trazado_106875" data-name="Trazado 106875" d="M524.655,28.354c-.012,4.164-2.96,5.842-6.585,3.75a14.419,14.419,0,0,1-6.542-11.33c.014-4.166,2.962-5.844,6.585-3.752A14.415,14.415,0,0,1,524.655,28.354Zm-9.53-4.024a.394.394,0,0,0,.162.214.167.167,0,0,0,.068.023l2.789.218a.09.09,0,0,0,.1-.041l1.825-3.09a.317.317,0,0,0-.078-.317.335.335,0,0,0-.078-.066c-.064-.037-.126-.031-.158.021l-1.794,3.044-2.746-.218c-.09-.006-.13.09-.094.212m5.359-2.728.574-.806-.3-.378-.574.806.3.378m.239,10.164.3-.025-.566-1.465-.306.025.568,1.465m-7.4-6.56.989-.084-.173-.451-.991.086.175.45m9.526,5.5.175-.247-.985-1.226-.177.249.987,1.224m-9.506-12.283-.177.247.987,1.226.175-.249-.985-1.224m8.71,6.034.989-.086-.173-.448-.99.082.175.451m-6.591-7.1-.3.025.568,1.463.3-.025-.566-1.463m-.031,11.345L516,27.9l-.3-.376-.574.806.3.376m-1.8-6.517v-.4l-1.14-.66v.4l1.14.658M523.691,27.6l-1.138-.658,0,.4,1.138.658,0-.4M517.9,30.9l.35.2,0-1.312-.35-.2,0,1.31m.385-12.668-.348-.2,0,1.312.35.2,0-1.31" transform="translate(-511.527 -16.122)" fill="#e0e0e0"/>
        </g>
        <g id="Grupo_59026" data-name="Grupo 59026" transform="translate(6.404 1.905)">
          <path id="Trazado_106876" data-name="Trazado 106876" d="M514.822,17.1l0,1.31.35.2,0-1.31Z" transform="translate(-514.818 -17.101)" fill="#fff"/>
        </g>
        <g id="Grupo_59027" data-name="Grupo 59027" transform="translate(8.655 4.296)">
          <path id="Trazado_106877" data-name="Trazado 106877" d="M516.548,18.33l-.573.806.3.376.573-.806Z" transform="translate(-515.974 -18.33)" fill="#fff"/>
        </g>
        <g id="Grupo_59028" data-name="Grupo 59028" transform="translate(10.348 7.8)">
          <path id="Trazado_106878" data-name="Trazado 106878" d="M517.834,20.131l-.989.083.174.45.989-.085Z" transform="translate(-516.844 -20.131)" fill="#fff"/>
        </g>
        <g id="Grupo_59029" data-name="Grupo 59029" transform="translate(10.332 13.11)">
          <path id="Trazado_106879" data-name="Trazado 106879" d="M517.012,22.859l-.176.248.986,1.225.176-.248Z" transform="translate(-516.836 -22.859)" fill="#fff"/>
        </g>
        <g id="Grupo_59030" data-name="Grupo 59030" transform="translate(8.629 14.153)">
          <path id="Trazado_106880" data-name="Trazado 106880" d="M516.266,23.4l-.3.025.567,1.464.3-.025Z" transform="translate(-515.961 -23.395)" fill="#fff"/>
        </g>
        <g id="Grupo_59031" data-name="Grupo 59031" transform="translate(6.371 13.465)">
          <path id="Trazado_106881" data-name="Trazado 106881" d="M514.8,23.042l0,1.31.35.2,0-1.31Z" transform="translate(-514.801 -23.042)" fill="#fff"/>
        </g>
        <g id="Grupo_59032" data-name="Grupo 59032" transform="translate(3.597 11.403)">
          <path id="Trazado_106882" data-name="Trazado 106882" d="M513.949,21.982l-.573.806.3.376.573-.806Z" transform="translate(-513.376 -21.982)" fill="#fff"/>
        </g>
        <g id="Grupo_59033" data-name="Grupo 59033" transform="translate(1.618 8.548)">
          <path id="Trazado_106883" data-name="Trazado 106883" d="M513.348,20.515l-.99.085.174.45.989-.085Z" transform="translate(-512.358 -20.515)" fill="#fff"/>
        </g>
        <g id="Grupo_59034" data-name="Grupo 59034" transform="translate(0.963 5.005)">
          <path id="Trazado_106884" data-name="Trazado 106884" d="M512.023,18.694v.4l1.14.658v-.4Z" transform="translate(-512.022 -18.694)" fill="#fff"/>
        </g>
        <g id="Grupo_59035" data-name="Grupo 59035" transform="translate(3.628 1.238)">
          <path id="Trazado_106885" data-name="Trazado 106885" d="M513.694,16.759l-.3.026.567,1.464.3-.026Z" transform="translate(-513.391 -16.759)" fill="#fff"/>
        </g>
        <g id="Grupo_59036" data-name="Grupo 59036" transform="translate(3.585 7.995)">
          <path id="Trazado_106886" data-name="Trazado 106886" d="M516.35,20.476a.166.166,0,0,0-.07-.023l-.058,0-2.746-.218c-.09-.006-.13.09-.094.212a.394.394,0,0,0,.162.214.167.167,0,0,0,.068.023l2.789.218.017,0c.088.008.128-.088.091-.212A.394.394,0,0,0,516.35,20.476Z" transform="translate(-513.369 -20.231)" fill="#fff"/>
        </g>
        <g id="Grupo_59037" data-name="Grupo 59037" transform="translate(6.437 5.125)">
          <path id="Trazado_106887" data-name="Trazado 106887" d="M516.787,18.779c-.064-.037-.126-.031-.158.021l-1.794,3.044.058,0a.167.167,0,0,1,.07.023.394.394,0,0,1,.159.212c.037.125,0,.22-.091.212l-.017,0a.09.09,0,0,0,.1-.041l1.825-3.09a.317.317,0,0,0-.078-.317A.335.335,0,0,0,516.787,18.779Z" transform="translate(-514.835 -18.756)" fill="#f5f5f5"/>
        </g>
      </g>
      <path id="Trazado_106888" data-name="Trazado 106888" d="M522.259,34.065c.037-.027.072-.053.107-.08s.072-.064.109-.1.068-.058.1-.09.068-.072.1-.107.064-.064.093-.1.064-.078.1-.115l.088-.109c.031-.041.06-.084.09-.126s.055-.076.082-.117.055-.09.082-.136.051-.082.074-.125.051-.1.076-.146.047-.086.066-.132.047-.1.068-.156.041-.091.06-.14.041-.113.06-.167.035-.1.051-.146.035-.119.052-.179.031-.1.045-.152.029-.125.043-.187.025-.107.037-.162.023-.136.035-.2.019-.107.027-.162c.012-.076.019-.156.029-.234.006-.051.012-.1.017-.148.008-.088.014-.177.019-.267,0-.045.006-.086.01-.13.006-.134.01-.272.01-.413,0-.2-.008-.409-.019-.617h0l0-.039c-.014-.232-.035-.463-.064-.7h0l-.012-.076c-.016-.126-.035-.253-.054-.379h0l-.035-.193h0l-.053-.278h0l-.012-.047a14.427,14.427,0,0,0-.416-1.551h0a16.169,16.169,0,0,0-.815-2l-.021-.043h0q-.268-.552-.578-1.084h0l-.058-.1h0c-.093-.158-.189-.315-.288-.469l-.07-.111h0q-.4-.625-.852-1.207l-.01-.014h0c-.294-.381-.605-.745-.926-1.09h0l0,0c-.123-.132-.247-.261-.376-.387h0l-.06-.058c-.165-.162-.333-.319-.5-.469h0l-.019-.018q-.266-.234-.543-.45v0l-.1-.078h0c-.171-.132-.346-.259-.521-.378h0l-.021-.016c-.111-.076-.224-.15-.337-.22s-.2-.121-.3-.179c-.15-.088-.3-.165-.45-.241h0l-.012-.006a7.5,7.5,0,0,0-1.343-.527l-.006,0-.123-.029c-.064-.018-.13-.035-.195-.049l-.006,0c-.045-.01-.09-.016-.136-.025s-.119-.023-.179-.033h-.006l-.012,0c-.045-.008-.088-.01-.132-.016-.078-.01-.156-.019-.234-.025l-.018,0-.07,0a4.438,4.438,0,0,0-.508,0h-.006l-.07.008h0c-.107.008-.212.019-.315.037h-.008a4.074,4.074,0,0,0-.438.1l-.008,0-.018.006-.025.01a2.971,2.971,0,0,0-.288.1l-.006,0-.043.018a3.454,3.454,0,0,0-.381.187l-.012.006,1.738-1.01.039-.021.047-.023c.086-.047.171-.09.261-.128l.049-.023.043-.016c.1-.041.21-.08.319-.111l.013-.006h0a3.468,3.468,0,0,1,.354-.082l.043-.01.056-.006c.105-.018.212-.029.321-.039l.051-.006h.017c.134-.008.272-.008.411,0a.285.285,0,0,0,.041,0c.045,0,.09.008.134.01l.1.008c.1.008.191.019.288.035h.01l0,0c.1.016.212.035.319.058l.1.025c.066.016.134.031.2.049l.019.006c.127.035.253.074.383.119l.078.029c.1.037.208.076.313.119l.041.016c.025.012.053.025.078.035.113.049.224.1.339.156.043.019.086.041.128.062.148.076.3.154.45.241.187.109.374.228.558.35l.093.062c.177.121.35.247.524.379l.1.078c.175.138.348.28.518.43l.043.039c.165.146.327.3.486.451l.049.045.029.031c.123.121.243.245.362.372l.017.019c.113.121.224.243.335.37l.031.035.039.047c.177.206.352.418.522.636l.016.018.037.051c.134.175.267.354.4.535l.039.054.017.025c.123.177.243.356.36.535l.033.053.049.08q.14.222.274.45l.045.07.014.027c.1.175.2.35.294.527l.025.043.045.09q.111.21.216.426l.045.088.023.054c.088.181.171.362.251.545l.008.018.021.056c.072.165.14.333.2.5l.033.082.025.068c.074.2.146.393.212.59l0,.012.01.033q.1.306.187.613l.023.078.012.041c.064.237.123.473.173.71l.016.062.017.093c.019.091.037.185.055.276.012.066.023.13.033.195.016.1.029.191.043.286.008.045.016.09.021.134l0,.035c.027.2.047.407.06.609l.008.128c.012.206.021.413.019.617-.006,2.236-.8,3.81-2.069,4.55l-1.74,1.01c.039-.021.074-.047.111-.07s.076-.045.111-.07S522.22,34.094,522.259,34.065Z" transform="translate(-509.8 -15.512)" fill="#eaeaea"/>
      <path id="Trazado_106889" data-name="Trazado 106889" d="M510.807,21.059a15.585,15.585,0,0,0,7.072,12.248c2.03,1.171,3.861,1.247,5.159.424.037-.023.076-.045.111-.07s.078-.058.117-.088.072-.053.107-.08.072-.064.109-.1.068-.058.1-.09.068-.072.1-.107.064-.064.093-.1.064-.078.1-.115l.088-.109c.031-.041.06-.084.09-.126s.055-.076.082-.117.055-.09.082-.136.051-.082.074-.125.051-.1.076-.146.047-.086.066-.132.047-.1.068-.156.041-.091.06-.14.041-.113.06-.167.035-.1.051-.146.035-.119.052-.179.031-.1.045-.152.029-.125.043-.187.025-.107.037-.162.023-.136.035-.2.019-.107.027-.162c.012-.076.019-.156.029-.234.006-.051.012-.1.017-.148.008-.088.014-.177.019-.267,0-.045.006-.086.01-.13.006-.134.01-.272.01-.413,0-.2-.008-.409-.019-.617l0-.039c-.014-.232-.035-.463-.064-.7l-.012-.076c-.016-.126-.035-.253-.054-.379l-.035-.193-.053-.278-.012-.047a14.427,14.427,0,0,0-.416-1.551h0a16.169,16.169,0,0,0-.815-2l-.021-.043q-.268-.552-.578-1.084l-.058-.1c-.093-.158-.189-.315-.288-.469l-.07-.111q-.4-.625-.852-1.207l-.012-.014c-.294-.381-.605-.745-.926-1.09l0,0c-.123-.132-.247-.261-.376-.387l-.06-.058c-.165-.162-.333-.319-.5-.469l-.019-.018q-.266-.234-.543-.45l-.1-.08c-.171-.132-.346-.259-.521-.378l-.021-.016c-.111-.076-.224-.15-.337-.22s-.2-.121-.3-.179c-.15-.088-.3-.165-.45-.241l-.012-.006a7.5,7.5,0,0,0-1.343-.527c-.043-.012-.086-.021-.129-.031-.064-.018-.13-.035-.195-.049l-.142-.027c-.058-.01-.119-.023-.179-.033s-.1-.012-.15-.018c-.078-.01-.156-.019-.234-.025l-.088,0a4.438,4.438,0,0,0-.508,0l-.08.008c-.107.008-.212.019-.315.037H514.1a4.075,4.075,0,0,0-.438.1l-.051.018a2.971,2.971,0,0,0-.288.1l-.049.019a3.454,3.454,0,0,0-.381.187C511.609,17.239,510.813,18.816,510.807,21.059Zm4.519,9.566-.019-.021c-.1-.111-.2-.224-.306-.339l-.066-.076c-.163-.191-.325-.387-.483-.588l-.049-.066c-.125-.162-.247-.327-.366-.494l-.052-.074c-.113-.162-.224-.327-.331-.494l-.078-.121c-.086-.138-.171-.278-.255-.418l-.052-.09c-.093-.162-.185-.323-.272-.488l-.064-.123c-.068-.13-.134-.261-.2-.393l-.064-.13c-.08-.167-.158-.335-.232-.5l-.029-.074c-.066-.152-.128-.3-.187-.457l-.054-.136c-.068-.181-.134-.364-.195-.547l-.016-.045c-.062-.187-.119-.376-.171-.564l-.031-.109c-.06-.218-.113-.438-.162-.656l-.029-.144c-.018-.086-.035-.169-.051-.255l-.029-.163c-.016-.093-.029-.187-.043-.28-.006-.053-.016-.105-.021-.158-.023-.189-.043-.376-.055-.562l-.008-.119c-.012-.193-.019-.381-.018-.57,0-.13,0-.257.01-.381,0-.049.006-.093.01-.14,0-.076.008-.154.016-.228,0-.049.012-.093.018-.142.008-.07.016-.142.025-.21.008-.051.018-.1.025-.146.01-.064.021-.128.033-.191s.021-.1.033-.146.025-.119.041-.177.027-.093.041-.142.031-.111.049-.163.031-.091.049-.136.035-.105.054-.154.037-.088.055-.13.041-.1.062-.144.043-.082.062-.123.045-.091.07-.136.045-.074.068-.113.051-.086.078-.128.049-.07.074-.105.055-.08.084-.119.055-.066.082-.1.058-.074.088-.107.058-.062.088-.093.064-.066.1-.1.064-.056.1-.084.066-.06.1-.09l.1-.076.105-.078.105-.068A3.175,3.175,0,0,1,514.2,16.8a5.315,5.315,0,0,1,3.719.819,14.415,14.415,0,0,1,6.542,11.331,5.288,5.288,0,0,1-1.123,3.555,3.231,3.231,0,0,1-.813.666h0l-.033.018a2.836,2.836,0,0,1-.269.13l-.084.035c-.088.035-.175.066-.265.093l-.049.016a3.066,3.066,0,0,1-.327.076l-.084.014a2.85,2.85,0,0,1-.292.033l-.076.008c-.123.006-.249.008-.379,0l-.08,0c-.07,0-.14-.008-.21-.016s-.156-.018-.235-.029c-.051-.008-.1-.019-.152-.029s-.1-.016-.146-.027-.076-.018-.113-.027c-.062-.016-.123-.029-.185-.047a6.351,6.351,0,0,1-.714-.245l-.107-.047c-.127-.054-.253-.113-.381-.177l-.051-.023c-.138-.07-.276-.144-.416-.224-.173-.1-.346-.21-.516-.325l-.023-.016c-.206-.136-.409-.284-.607-.44l-.033-.025c-.169-.134-.339-.272-.5-.418l-.016-.016c-.152-.134-.3-.274-.448-.416l-.074-.07C515.547,30.857,515.436,30.742,515.326,30.626Z" transform="translate(-510.807 -15.02)" fill="#fff"/>
    </g>
    <g id="Grupo_59052" data-name="Grupo 59052" transform="translate(596.71 30.632)">
      <g id="Grupo_59045" data-name="Grupo 59045" transform="translate(0 14.859)">
        <g id="Grupo_59040" data-name="Grupo 59040">
          <path id="Trazado_106890" data-name="Trazado 106890" d="M536.463,30.9l9.594,5.539-.021,7.333-9.594-5.539Z" transform="translate(-534.477 -28.024)" fill="none"/>
          <path id="Trazado_106891" data-name="Trazado 106891" d="M536.895,31.153l-.021,7.333-.889.516.024-8.361Z" transform="translate(-534.909 -28.273)" fill="#f0f0f0"/>
          <path id="Trazado_106892" data-name="Trazado 106892" d="M546.468,40.212l0,1.028-10.48-6.051.889-.516Z" transform="translate(-534.909 -24.459)" fill="#f5f5f5"/>
          <path id="Trazado_106893" data-name="Trazado 106893" d="M535.432,40.515l12.628,7.292.031-10.827-12.629-7.29Zm1.076-.613.023-8.362.887.512,9.594,5.54-.021,7.332,0,1.027Z" transform="translate(-535.432 -29.173)" fill="#e0e0e0"/>
          <path id="Trazado_106894" data-name="Trazado 106894" d="M535.447,29.941l.889-.516,12.628,7.291-.889.516Z" transform="translate(-535.418 -29.424)" fill="#f5f5f5"/>
          <path id="Trazado_106895" data-name="Trazado 106895" d="M542.84,33.171,542.809,44l-.889.516.031-10.827Z" transform="translate(-529.294 -25.88)" fill="#f0f0f0"/>
        </g>
        <g id="Grupo_59044" data-name="Grupo 59044" transform="translate(2.412 5.664)">
          <g id="Grupo_59043" data-name="Grupo 59043" style="isolation: isolate">
            <g id="Grupo_59041" data-name="Grupo 59041">
              <path id="Trazado_106896" data-name="Trazado 106896" d="M539.294,32.335l-2.617,2.06-.006,2.013,8.7,5.024.006-2.013-1.659-3.294-1.489,1.156.527,1.636-.764-1.453Z" transform="translate(-536.672 -32.335)" fill="#e0e0e0"/>
            </g>
            <g id="Grupo_59042" data-name="Grupo 59042" transform="translate(4.737 0.913)">
              <path id="Trazado_106897" data-name="Trazado 106897" d="M539.849,32.905c-.409-.235-.743-.047-.743.424a1.623,1.623,0,0,0,.739,1.28c.409.237.741.047.743-.424A1.631,1.631,0,0,0,539.849,32.905Z" transform="translate(-539.106 -32.804)" fill="#e0e0e0"/>
            </g>
          </g>
        </g>
      </g>
      <g id="Grupo_59051" data-name="Grupo 59051" transform="translate(0.376)">
        <g id="Grupo_59046" data-name="Grupo 59046">
          <path id="Trazado_106898" data-name="Trazado 106898" d="M536.656,23.268l9.594,5.539-.021,7.333L536.635,30.6Z" transform="translate(-534.67 -20.388)" fill="none"/>
          <path id="Trazado_106899" data-name="Trazado 106899" d="M537.088,23.517l-.021,7.333-.889.516.024-8.361Z" transform="translate(-535.102 -20.637)" fill="#f0f0f0"/>
          <path id="Trazado_106900" data-name="Trazado 106900" d="M546.661,32.576l0,1.028-10.48-6.051.889-.516Z" transform="translate(-535.102 -16.824)" fill="#f5f5f5"/>
          <path id="Trazado_106901" data-name="Trazado 106901" d="M535.625,32.881l12.628,7.29.031-10.827-12.627-7.29Zm1.076-.615.025-8.36.885.51,9.594,5.54-.021,7.332,0,1.027Z" transform="translate(-535.625 -21.537)" fill="#e0e0e0"/>
          <path id="Trazado_106902" data-name="Trazado 106902" d="M535.641,22.3l.889-.516,12.628,7.291-.889.516Z" transform="translate(-535.61 -21.788)" fill="#f5f5f5"/>
          <path id="Trazado_106903" data-name="Trazado 106903" d="M543.033,25.535,543,36.362l-.889.516.031-10.827Z" transform="translate(-529.487 -18.244)" fill="#f0f0f0"/>
        </g>
        <g id="Grupo_59050" data-name="Grupo 59050" transform="translate(2.413 5.664)">
          <g id="Grupo_59049" data-name="Grupo 59049" style="isolation: isolate">
            <g id="Grupo_59047" data-name="Grupo 59047">
              <path id="Trazado_106904" data-name="Trazado 106904" d="M539.487,24.7l-2.617,2.06-.006,2.013,8.7,5.024.006-2.013-1.658-3.294-1.489,1.156.526,1.636-.764-1.453Z" transform="translate(-536.865 -24.699)" fill="#e0e0e0"/>
            </g>
            <g id="Grupo_59048" data-name="Grupo 59048" transform="translate(4.737 0.913)">
              <path id="Trazado_106905" data-name="Trazado 106905" d="M540.042,25.269c-.409-.235-.741-.045-.743.424a1.623,1.623,0,0,0,.74,1.28c.409.237.741.047.743-.424A1.629,1.629,0,0,0,540.042,25.269Z" transform="translate(-539.299 -25.168)" fill="#e0e0e0"/>
            </g>
          </g>
        </g>
      </g>
    </g>
    <g id="Grupo_59058" data-name="Grupo 59058" transform="translate(569.299 24.891)">
      <g id="Grupo_59054" data-name="Grupo 59054">
        <g id="Grupo_59053" data-name="Grupo 59053">
          <path id="Trazado_106906" data-name="Trazado 106906" d="M524.5,19.015l18.794,10.868a2.111,2.111,0,0,1,1.051,1.812v18.9a2.063,2.063,0,0,1-3.154,1.7l-7.862-4.659-.169.272a.083.083,0,0,1-.027.025l0,0-.02.012-.006,0c-.307.2-.845.492-.965.555l0-.008a.116.116,0,0,1-.142-.07l-.685-1.942h0l-8.92-5.036a2.087,2.087,0,0,1-1.053-1.814V20.712C521.346,19.206,523.565,18.476,524.5,19.015Z" transform="translate(-521.346 -18.838)" fill="#f9e478"/>
          <path id="Trazado_106907" data-name="Trazado 106907" d="M531.67,25.165v0Z" transform="translate(-511.58 -12.853)" fill="none"/>
          <path id="Trazado_106908" data-name="Trazado 106908" d="M527.911,34.069a.083.083,0,0,1-.027.025l0,0-.02.012-.006,0c-.307.2-.845.492-.965.555l0-.008a.113.113,0,0,0,.068-.049l.663-1.074-.132-.074h0l.584.333Z" transform="translate(-516.097 -5.002)" fill="#fff" opacity="0.2"/>
          <path id="Trazado_106909" data-name="Trazado 106909" d="M542,31.853a2.126,2.126,0,0,0-.561-.7v0a2.07,2.07,0,0,0-.253-.173L522.389,20.109a.7.7,0,0,0-1.043.6c0-1.506,2.219-2.236,3.154-1.7l18.794,10.868a2.087,2.087,0,0,1,.778.788Z" transform="translate(-521.346 -18.838)" fill="#fff" opacity="0.4"/>
          <path id="Trazado_106910" data-name="Trazado 106910" d="M532.585,45.936v-18.9a1.732,1.732,0,0,0-.017-.247,2.114,2.114,0,0,0-.218-.689l2.076-1.181a2.086,2.086,0,0,1,.272,1.024v18.9a2.063,2.063,0,0,1-3.154,1.7A.7.7,0,0,0,532.585,45.936Z" transform="translate(-511.699 -13.086)" fill="#fff" opacity="0.2"/>
        </g>
      </g>
      <g id="Grupo_59055" data-name="Grupo 59055" transform="translate(1.578 5.221)">
        <path id="Trazado_106911" data-name="Trazado 106911" d="M525.183,25.331l10.907,6.3-.656,7.478c-.039.455-.389.619-.806.378l-8.358-4.826a1.477,1.477,0,0,1-.43-.391l.016.212a3.209,3.209,0,0,0,1.444,2.355l.366.212a1.271,1.271,0,0,1,.393.156,2.16,2.16,0,0,1,.393.3l3.927,2.267a1.4,1.4,0,0,1,.393.156,2.229,2.229,0,0,1,.393.3L534,40.7a.709.709,0,0,1,.323.557c0,.206-.148.288-.325.185l-.064-.037a2.326,2.326,0,0,1,.146.775c0,.831-.589,1.166-1.312.747a2.872,2.872,0,0,1-1.3-2.257,1.155,1.155,0,0,1,.148-.605l-2.39-1.38a2.322,2.322,0,0,1,.144.775c0,.831-.589,1.166-1.312.747a2.872,2.872,0,0,1-1.3-2.257,1.129,1.129,0,0,1,.167-.634,4.73,4.73,0,0,1-1.7-3.137l-.739-10.043a1.436,1.436,0,0,0-.644-1.047l-1.35-.78a.7.7,0,0,1-.321-.557c0-.206.144-.288.323-.185l1.352.78a2.858,2.858,0,0,1,1.284,2.092Zm5.708,10.646.017-5.99a.963.963,0,0,0-.436-.755c-.241-.14-.44-.029-.44.251l-.017,5.988a.96.96,0,0,0,.438.755c.241.14.438.027.438-.249m1.893,1.092.016-5.988a.959.959,0,0,0-.436-.757c-.241-.138-.438-.027-.44.251l-.016,5.988a.962.962,0,0,0,.436.757c.241.138.438.027.44-.251m1.892,1.094.017-5.99a.96.96,0,0,0-.436-.755c-.243-.14-.44-.029-.44.249l-.017,5.99a.963.963,0,0,0,.436.755c.241.14.44.027.44-.249M529,34.884l.018-5.988a.966.966,0,0,0-.438-.757c-.241-.138-.438-.027-.438.251l-.017,5.988a.962.962,0,0,0,.436.757c.241.138.438.027.44-.251m-1.893-1.092.017-5.99a.963.963,0,0,0-.436-.755c-.241-.14-.438-.029-.44.251l-.017,5.988a.962.962,0,0,0,.438.755c.241.14.438.027.438-.249m.952,4.349c-.271-.158-.49-.031-.492.28a1.085,1.085,0,0,0,.489.847c.272.156.492.029.492-.28a1.074,1.074,0,0,0-.488-.847m4.713,2.72c-.271-.156-.492-.031-.492.28a1.074,1.074,0,0,0,.489.847c.271.156.49.031.492-.28a1.079,1.079,0,0,0-.488-.847" transform="translate(-522.157 -21.521)" fill="#fff"/>
      </g>
      <g id="Grupo_59057" data-name="Grupo 59057" transform="translate(13.221 12.129)">
        <g id="Grupo_59056" data-name="Grupo 59056" transform="translate(0.807 2.521)">
          <path id="Trazado_106912" data-name="Trazado 106912" d="M533.162,27.2a.953.953,0,0,1,.335.354c.187.319.185.666,0,.769l-2.771,1.582a.34.34,0,0,1-.337-.033.986.986,0,0,1-.335-.354l-1.358-2.355c-.187-.321-.185-.664,0-.771a.337.337,0,0,1,.335.035.965.965,0,0,1,.337.352l1.024,1.775,2.435-1.387A.34.34,0,0,1,533.162,27.2Z" transform="translate(-528.555 -26.366)" fill="#fff"/>
        </g>
        <path id="Trazado_106913" data-name="Trazado 106913" d="M531.495,25.528A7.355,7.355,0,0,1,534.83,31.3c-.008,2.123-1.51,2.977-3.357,1.911a7.344,7.344,0,0,1-3.333-5.772C528.146,25.32,529.648,24.464,531.495,25.528Zm-.379,5.606,2.771-1.582c.187-.1.189-.45,0-.769a.953.953,0,0,0-.335-.354.34.34,0,0,0-.337-.033l-2.435,1.387-1.024-1.775a.965.965,0,0,0-.337-.352.333.333,0,0,0-.335-.035c-.187.107-.189.45,0,.771l1.358,2.355a.986.986,0,0,0,.335.354.34.34,0,0,0,.337.033" transform="translate(-528.14 -25.071)" fill="#f9e478"/>
        <path id="Trazado_106914" data-name="Trazado 106914" d="M531.495,25.528A7.355,7.355,0,0,1,534.83,31.3c-.008,2.123-1.51,2.977-3.357,1.911a7.344,7.344,0,0,1-3.333-5.772C528.146,25.32,529.648,24.464,531.495,25.528Zm-.379,5.606,2.771-1.582c.187-.1.189-.45,0-.769a.953.953,0,0,0-.335-.354.34.34,0,0,0-.337-.033l-2.435,1.387-1.024-1.775a.965.965,0,0,0-.337-.352.333.333,0,0,0-.335-.035c-.187.107-.189.45,0,.771l1.358,2.355a.986.986,0,0,0,.335.354.34.34,0,0,0,.337.033" transform="translate(-528.14 -25.071)" fill="#fff" opacity="0.3"/>
      </g>
    </g>
    <g id="Grupo_59066" data-name="Grupo 59066" transform="translate(603.629 85.548)">
      <g id="Grupo_59062" data-name="Grupo 59062" transform="translate(0 14.631)">
        <path id="Trazado_106915" data-name="Trazado 106915" d="M539.029,59.042l5.091.15,5.091-.15a18.2,18.2,0,0,1-1.378,8.654h0a2.317,2.317,0,0,1-1.006,1.026,5.986,5.986,0,0,1-5.423,0,2.252,2.252,0,0,1-1.006-1.053A18.279,18.279,0,0,1,539.029,59.042Z" transform="translate(-538.988 -56.094)" fill="#fff"/>
        <g id="Grupo_59059" data-name="Grupo 59059" transform="translate(0.041)">
          <path id="Trazado_106916" data-name="Trazado 106916" d="M540.511,58.391c-1.995,1.152-2,3.018-.023,4.17a7.932,7.932,0,0,0,7.2,0c1.995-1.152,2-3.018.023-4.17A7.932,7.932,0,0,0,540.511,58.391Z" transform="translate(-539.009 -57.527)" fill="#eaeaea"/>
        </g>
        <g id="Grupo_59060" data-name="Grupo 59060" transform="translate(1.161 0.648)">
          <path id="Trazado_106917" data-name="Trazado 106917" d="M540.757,58.533c-1.557.9-1.565,2.357-.019,3.254a6.188,6.188,0,0,0,5.618,0c1.555-.9,1.563-2.355.017-3.254A6.2,6.2,0,0,0,540.757,58.533Z" transform="translate(-539.584 -57.86)" fill="#e0e0e0"/>
        </g>
        <g id="Grupo_59061" data-name="Grupo 59061" transform="translate(1.161 0.648)" opacity="0.15">
          <path id="Trazado_106918" data-name="Trazado 106918" d="M540.757,58.533c-1.557.9-1.565,2.357-.019,3.254a6.188,6.188,0,0,0,5.618,0c1.555-.9,1.563-2.355.017-3.254A6.2,6.2,0,0,0,540.757,58.533Z" transform="translate(-539.584 -57.86)"/>
        </g>
      </g>
      <g id="Grupo_59065" data-name="Grupo 59065" transform="translate(1.161)">
        <path id="Trazado_106919" data-name="Trazado 106919" d="M546.152,57.171c.829-1.029,1.79-1.952,2.549-3.034a3.21,3.21,0,0,0,.734-2.514,2.251,2.251,0,0,0-1.783-1.568,3.417,3.417,0,0,0-2.392.533,7.377,7.377,0,0,0-1.81,1.72,17.984,17.984,0,0,0-3.783,12.83,2.693,2.693,0,0,0,.473,1.473,1.476,1.476,0,0,0,1.522.465c1.387-.411,1.2-2.285,1.43-3.386a15.487,15.487,0,0,1,1.592-4.326A15.118,15.118,0,0,1,546.152,57.171Z" transform="translate(-539.584 -50.008)" fill="#f9e478"/>
        <path id="Trazado_106920" data-name="Trazado 106920" d="M546.152,57.171c.829-1.029,1.79-1.952,2.549-3.034a3.21,3.21,0,0,0,.734-2.514,2.251,2.251,0,0,0-1.783-1.568,3.417,3.417,0,0,0-2.392.533,7.377,7.377,0,0,0-1.81,1.72,17.984,17.984,0,0,0-3.783,12.83,2.693,2.693,0,0,0,.473,1.473,1.476,1.476,0,0,0,1.522.465c1.387-.411,1.2-2.285,1.43-3.386a15.487,15.487,0,0,1,1.592-4.326A15.118,15.118,0,0,1,546.152,57.171Z" transform="translate(-539.584 -50.008)" fill="#fff" opacity="0.2"/>
        <g id="Grupo_59063" data-name="Grupo 59063" transform="translate(1.847 1.207)">
          <path id="Trazado_106921" data-name="Trazado 106921" d="M540.679,65.094a.123.123,0,0,0,.1-.115c.1-2.226.821-9.823,6.058-14.136a.122.122,0,0,0,.016-.171.12.12,0,0,0-.169-.016c-5.314,4.375-6.048,12.061-6.147,14.313a.124.124,0,0,0,.117.126A.145.145,0,0,0,540.679,65.094Z" transform="translate(-540.533 -50.629)" fill="#f0f0f0"/>
        </g>
        <g id="Grupo_59064" data-name="Grupo 59064" transform="translate(1.056 7.215)">
          <path id="Trazado_106922" data-name="Trazado 106922" d="M540.3,62.414a3.715,3.715,0,0,0,1.7,2.357,4.789,4.789,0,0,0,2.574.432,11.343,11.343,0,0,0,2.611-.621c.42-.14.885-.331.93-.852a.93.93,0,0,0-.3-.732,3.219,3.219,0,0,0-.272-.234.269.269,0,0,1,.144-.483,6.041,6.041,0,0,0,.745-.091A3.294,3.294,0,0,0,550,61.484a2.593,2.593,0,0,0,.722-1.068,1.008,1.008,0,0,0-.1-1.051,1.143,1.143,0,0,0-.58-.251c-.185-.041-.372-.074-.56-.1a.248.248,0,0,1-.057-.475l.79-.329a1.5,1.5,0,0,0,.6-.374,1.311,1.311,0,0,0,.152-1.088c-.1-.494-.268-.971-.383-1.461a3.114,3.114,0,0,1-.053-1.495,12.54,12.54,0,0,0-4.425.3,3.171,3.171,0,0,0-1.207.527,1.774,1.774,0,0,0-.568,1.627.115.115,0,0,1-.216.06l-.5-.93a.6.6,0,0,0-.784-.251,3.612,3.612,0,0,0-1.154.907,2.006,2.006,0,0,0-.494,1.477,12.987,12.987,0,0,0,.368,2.17.2.2,0,0,1-.313.212l-.025-.018a.675.675,0,0,0-.475-.138c-.446.054-.561.506-.59.891A7.362,7.362,0,0,0,540.3,62.414Z" transform="translate(-540.127 -53.716)" fill="#f9e478"/>
          <path id="Trazado_106923" data-name="Trazado 106923" d="M540.3,62.414a3.715,3.715,0,0,0,1.7,2.357,4.789,4.789,0,0,0,2.574.432,11.343,11.343,0,0,0,2.611-.621c.42-.14.885-.331.93-.852a.93.93,0,0,0-.3-.732,3.219,3.219,0,0,0-.272-.234.269.269,0,0,1,.144-.483,6.041,6.041,0,0,0,.745-.091A3.294,3.294,0,0,0,550,61.484a2.593,2.593,0,0,0,.722-1.068,1.008,1.008,0,0,0-.1-1.051,1.143,1.143,0,0,0-.58-.251c-.185-.041-.372-.074-.56-.1a.248.248,0,0,1-.057-.475l.79-.329a1.5,1.5,0,0,0,.6-.374,1.311,1.311,0,0,0,.152-1.088c-.1-.494-.268-.971-.383-1.461a3.114,3.114,0,0,1-.053-1.495,12.54,12.54,0,0,0-4.425.3,3.171,3.171,0,0,0-1.207.527,1.774,1.774,0,0,0-.568,1.627.115.115,0,0,1-.216.06l-.5-.93a.6.6,0,0,0-.784-.251,3.612,3.612,0,0,0-1.154.907,2.006,2.006,0,0,0-.494,1.477,12.987,12.987,0,0,0,.368,2.17.2.2,0,0,1-.313.212l-.025-.018a.675.675,0,0,0-.475-.138c-.446.054-.561.506-.59.891A7.362,7.362,0,0,0,540.3,62.414Z" transform="translate(-540.127 -53.716)" opacity="0.2"/>
          <path id="Trazado_106924" data-name="Trazado 106924" d="M540.3,62.414a3.715,3.715,0,0,0,1.7,2.357,4.789,4.789,0,0,0,2.574.432,11.343,11.343,0,0,0,2.611-.621c.42-.14.885-.331.93-.852a.93.93,0,0,0-.3-.732,3.219,3.219,0,0,0-.272-.234.269.269,0,0,1,.144-.483,6.041,6.041,0,0,0,.745-.091A3.294,3.294,0,0,0,550,61.484a2.593,2.593,0,0,0,.722-1.068,1.008,1.008,0,0,0-.1-1.051,1.143,1.143,0,0,0-.58-.251c-.185-.041-.372-.074-.56-.1a.248.248,0,0,1-.057-.475l.79-.329a1.5,1.5,0,0,0,.6-.374,1.311,1.311,0,0,0,.152-1.088c-.1-.494-.268-.971-.383-1.461a3.114,3.114,0,0,1-.053-1.495,12.54,12.54,0,0,0-4.425.3,3.171,3.171,0,0,0-1.207.527,1.774,1.774,0,0,0-.568,1.627.115.115,0,0,1-.216.06l-.5-.93a.6.6,0,0,0-.784-.251,3.612,3.612,0,0,0-1.154.907,2.006,2.006,0,0,0-.494,1.477,12.987,12.987,0,0,0,.368,2.17.2.2,0,0,1-.313.212l-.025-.018a.675.675,0,0,0-.475-.138c-.446.054-.561.506-.59.891A7.362,7.362,0,0,0,540.3,62.414Z" transform="translate(-540.127 -53.716)" fill="#fff" opacity="0.2"/>
          <path id="Trazado_106925" data-name="Trazado 106925" d="M541.421,64.317a17.8,17.8,0,0,1,1.191-3.448.119.119,0,0,1,.041-.091c.027-.06.054-.119.084-.179a11.13,11.13,0,0,0-1.179-3.948.121.121,0,0,1,.21-.121,11.232,11.232,0,0,1,1.162,3.67,16.177,16.177,0,0,1,5.094-6.108.121.121,0,1,1,.138.2,16.056,16.056,0,0,0-5.153,6.3,7.44,7.44,0,0,1,4.217-.572.122.122,0,0,1,0,.239.173.173,0,0,1-.045,0,7.2,7.2,0,0,0-4.342.695,17.541,17.541,0,0,0-1.179,3.415.125.125,0,0,1-.1.1.1.1,0,0,1-.047,0A.121.121,0,0,1,541.421,64.317Z" transform="translate(-538.904 -53.383)" fill="#f0f0f0"/>
        </g>
      </g>
    </g>
    <g id="Grupo_59085" data-name="Grupo 59085" transform="translate(549.766 58.845)">
      <g id="Grupo_59068" data-name="Grupo 59068" transform="translate(5.145 19.151)">
        <path id="Trazado_106926" data-name="Trazado 106926" d="M526.957,57.061c-3.1,2.152-6.587,3.639-9.175,6.525-4.834,5.388-4.947,14.056-1.15,20.219s10.855,9.866,18.043,10.713a29.014,29.014,0,0,0,21.373-5.955,25.883,25.883,0,0,0,9.679-19.791,23.384,23.384,0,0,0-10.253-19.3c-5.8-3.785-14.141-4.865-19.964-.533-2.944,2.189-4.908,5.42-7.842,7.615C527.432,56.724,527.2,56.9,526.957,57.061Z" transform="translate(-513.952 -46.128)" fill="#bb83ff"/>
        <path id="Trazado_106927" data-name="Trazado 106927" d="M526.957,57.061c-3.1,2.152-6.587,3.639-9.175,6.525-4.834,5.388-4.947,14.056-1.15,20.219s10.855,9.866,18.043,10.713a29.014,29.014,0,0,0,21.373-5.955,25.883,25.883,0,0,0,9.679-19.791,23.384,23.384,0,0,0-10.253-19.3c-5.8-3.785-14.141-4.865-19.964-.533-2.944,2.189-4.908,5.42-7.842,7.615C527.432,56.724,527.2,56.9,526.957,57.061Z" transform="translate(-513.952 -46.128)" opacity="0.2"/>
        <path id="Trazado_106928" data-name="Trazado 106928" d="M526.957,57.061c-3.1,2.152-6.587,3.639-9.175,6.525-4.834,5.388-4.947,14.056-1.15,20.219s10.855,9.866,18.043,10.713a29.014,29.014,0,0,0,21.373-5.955,25.883,25.883,0,0,0,9.679-19.791,23.384,23.384,0,0,0-10.253-19.3c-5.8-3.785-14.141-4.865-19.964-.533-2.944,2.189-4.908,5.42-7.842,7.615C527.432,56.724,527.2,56.9,526.957,57.061Z" transform="translate(-513.952 -46.128)" fill="#fff" opacity="0.1"/>
        <path id="Trazado_106929" data-name="Trazado 106929" d="M525.857,85.073l.021-.154a8.149,8.149,0,0,1,6.609-6.793,25.818,25.818,0,0,0,8.465-3.244c1.851-1.117,3.6-2.489,5.672-3.1a9.25,9.25,0,0,1,6.114.356,7.1,7.1,0,0,0-7.124-1.81,23.4,23.4,0,0,0,3.68-8.228,11.167,11.167,0,0,0-1.625-8.665,8.721,8.721,0,0,0-13.46-.72c-1.773,1.94-2.773,4.67-3.937,7.027a15.821,15.821,0,0,1-3.081,4.713c-2.082,1.946-5.073,2.648-7.231,4.511-2.446,2.109-3.5,5.486-3.511,8.716a25.649,25.649,0,0,0,.946,6.445,24.48,24.48,0,0,0,8.846,5.408A9.578,9.578,0,0,1,525.857,85.073Z" transform="translate(-511.59 -42.572)" opacity="0.1"/>
        <g id="Grupo_59067" data-name="Grupo 59067" transform="translate(20.288 0.083)">
          <path id="Trazado_106930" data-name="Trazado 106930" d="M551.814,67.689A22.163,22.163,0,0,0,532.907,46.17a16.164,16.164,0,0,0-2.137.36,21.606,21.606,0,0,1,20.46,21.17c.138,7.068-3.318,14.272-9.247,19.271a34.658,34.658,0,0,1-17.605,7.449c.144.019.29.041.434.056.611.072,1.222.123,1.837.156a34.556,34.556,0,0,0,15.71-7.216C548.423,82.307,551.957,74.932,551.814,67.689Z" transform="translate(-524.378 -46.17)" fill="#fff"/>
        </g>
      </g>
      <g id="Grupo_59084" data-name="Grupo 59084">
        <g id="Grupo_59071" data-name="Grupo 59071" transform="translate(0 35.959)">
          <g id="Grupo_59069" data-name="Grupo 59069" transform="translate(9.289 24.288)">
            <path id="Trazado_106931" data-name="Trazado 106931" d="M519.877,72.316l.776,1.539a4.226,4.226,0,0,0,1.3-1.835c-.356-1.255-.771-2.534-.975-3.154a16.348,16.348,0,0,1-.946,2.454A4.23,4.23,0,0,0,519.877,72.316Z" transform="translate(-512.492 -65.714)" fill="#37474f"/>
            <path id="Trazado_106932" data-name="Trazado 106932" d="M519.917,72.215l.739-.037-.776-1.539C519.858,71.161,519.9,71.69,519.917,72.215Z" transform="translate(-512.495 -64.036)" fill="#263238"/>
            <path id="Trazado_106933" data-name="Trazado 106933" d="M524.068,68.453a6.886,6.886,0,0,0-.918-1.072,3.726,3.726,0,0,1-.014,2.055c-.232.891-.65,1.728-.858,2.627a17.246,17.246,0,0,1-.66,3.289,3.523,3.523,0,0,1-2.466,1.967,1.551,1.551,0,0,1-1.171-.142.833.833,0,0,1-.323-.436,7.833,7.833,0,0,1-.843,1.374c-.366.473-.819.992-.72,1.582a1.27,1.27,0,0,0,1.031.942,3.324,3.324,0,0,0,1.465-.121,9.1,9.1,0,0,0,2.935-1.2,4.386,4.386,0,0,0,1.864-2.5A5.626,5.626,0,0,0,523.5,75.3c-.016-.525-.058-1.055-.037-1.576a4.23,4.23,0,0,1,.154-1,16.348,16.348,0,0,0,.946-2.454c.006-.047.016-.091.019-.138A2.815,2.815,0,0,0,524.068,68.453Z" transform="translate(-516.082 -67.118)" fill="#455a64"/>
            <path id="Trazado_106934" data-name="Trazado 106934" d="M524.068,68.453a6.886,6.886,0,0,0-.918-1.072,3.726,3.726,0,0,1-.014,2.055c-.232.891-.65,1.728-.858,2.627a17.246,17.246,0,0,1-.66,3.289,3.523,3.523,0,0,1-2.466,1.967,1.551,1.551,0,0,1-1.171-.142.833.833,0,0,1-.323-.436,7.833,7.833,0,0,1-.843,1.374c-.366.473-.819.992-.72,1.582a1.27,1.27,0,0,0,1.031.942,3.324,3.324,0,0,0,1.465-.121,9.1,9.1,0,0,0,2.935-1.2,4.386,4.386,0,0,0,1.864-2.5A5.626,5.626,0,0,0,523.5,75.3c-.016-.525-.058-1.055-.037-1.576a4.23,4.23,0,0,1,.154-1,16.348,16.348,0,0,0,.946-2.454c.006-.047.016-.091.019-.138A2.815,2.815,0,0,0,524.068,68.453Z" transform="translate(-516.082 -67.118)" opacity="0.1"/>
            <path id="Trazado_106935" data-name="Trazado 106935" d="M518.386,77.447a3.523,3.523,0,0,0,2.466-1.967,17.246,17.246,0,0,0,.66-3.289c.208-.9.627-1.736.858-2.627a3.726,3.726,0,0,0,.014-2.055c-.089-.09-.177-.177-.267-.263a30.9,30.9,0,0,0-4.036,2.129,28.4,28.4,0,0,1-.294,4.62,10.821,10.821,0,0,1-.9,2.874.833.833,0,0,0,.323.436A1.551,1.551,0,0,0,518.386,77.447Z" transform="translate(-515.315 -67.246)" fill="#ab6160"/>
          </g>
          <path id="Trazado_106936" data-name="Trazado 106936" d="M515.931,70.393a30.807,30.807,0,0,1-1.2,3.88,35,35,0,0,0,4.69-.023l1.349-2.086Z" transform="translate(-508.068 -39.981)" fill="#c48281"/>
          <path id="Trazado_106937" data-name="Trazado 106937" d="M529.545,54.765l-11.7,6.519a5.8,5.8,0,0,0-2.88,6.126l2.271,12.232L515.37,85.56c1.607,2.156,5.3,2.265,5.3,2.265,2.059-4.127,3.569-5.881,4.737-9.341s1.95-5.844,1.95-5.844l9.718-2.656a11.516,11.516,0,0,0,8.422-9.8c.165-1.469.173-2.473.173-2.473Z" transform="translate(-507.945 -54.765)" fill="#455a64"/>
          <path id="Trazado_106938" data-name="Trazado 106938" d="M527.6,56.745a5.528,5.528,0,0,0,1.308,3.567l-7.375,4.6a5.929,5.929,0,0,0-2.526,3.295l-2.925,9.559,2.637-10.645a4.83,4.83,0,0,1,2.146-2.944l6.743-4.149A3.946,3.946,0,0,1,527.6,56.745Z" transform="translate(-506.794 -52.892)" opacity="0.2"/>
          <g id="Grupo_59070" data-name="Grupo 59070" transform="translate(0 33.922)">
            <path id="Trazado_106939" data-name="Trazado 106939" d="M516.013,76.769l.109,1.72a4.229,4.229,0,0,0,1.913-1.177c.167-1.3.288-2.633.344-3.285-.438.753-1.273,1.207-1.835,1.886A4.087,4.087,0,0,0,516.013,76.769Z" transform="translate(-506.858 -70.466)" fill="#37474f"/>
            <path id="Trazado_106940" data-name="Trazado 106940" d="M515.712,76.9l.695.257-.109-1.72C516.072,75.9,515.9,76.409,515.712,76.9Z" transform="translate(-507.143 -69.133)" fill="#263238"/>
            <path id="Trazado_106941" data-name="Trazado 106941" d="M523.087,73.722a7.012,7.012,0,0,0-.422-1.347,3.745,3.745,0,0,1-.821,1.884c-.564.73-1.278,1.335-1.823,2.078a16.97,16.97,0,0,1-1.9,2.765,3.523,3.523,0,0,1-3.04.839,1.554,1.554,0,0,1-1.022-.59.856.856,0,0,1-.126-.529,7.79,7.79,0,0,1-1.313.932c-.523.292-1.144.59-1.284,1.171a1.267,1.267,0,0,0,.578,1.271,3.317,3.317,0,0,0,1.4.467,9.183,9.183,0,0,0,3.17.053,4.387,4.387,0,0,0,2.693-1.565,5.65,5.65,0,0,0,.706-1.356c.191-.49.36-.994.586-1.463a4.086,4.086,0,0,1,.531-.856c.562-.679,1.4-1.133,1.835-1.886.023-.041.051-.078.072-.121A2.826,2.826,0,0,0,523.087,73.722Z" transform="translate(-511.309 -72.029)" fill="#455a64"/>
            <path id="Trazado_106942" data-name="Trazado 106942" d="M513.806,80.109a3.523,3.523,0,0,0,3.04-.839,16.955,16.955,0,0,0,1.9-2.765c.545-.743,1.259-1.349,1.823-2.078a3.745,3.745,0,0,0,.821-1.884c-.047-.115-.1-.232-.142-.346a31.053,31.053,0,0,0-4.548.37,28.456,28.456,0,0,1-2.088,4.133,10.846,10.846,0,0,1-1.954,2.29.856.856,0,0,0,.126.529A1.554,1.554,0,0,0,513.806,80.109Z" transform="translate(-510.034 -72.197)" fill="#c48281"/>
          </g>
        </g>
        <g id="Grupo_59083" data-name="Grupo 59083" transform="translate(11.481)">
          <path id="Trazado_106943" data-name="Trazado 106943" d="M536.43,54.957a18.6,18.6,0,0,0,.325-13.937,7.547,7.547,0,0,0-2.582-3.693c-1.619-1.094-3.715-1.076-5.667-1.02a9.617,9.617,0,0,0-3.067.42,3.165,3.165,0,0,0-2.026,2.131,2.716,2.716,0,0,0-2.909,2.024,4.272,4.272,0,0,0,.9,3.643,10.651,10.651,0,0,0,3,2.444,3.335,3.335,0,0,0-1.4,1.882,2.975,2.975,0,0,0,.156,2.2,2.942,2.942,0,0,0-2.74,1.952,3.7,3.7,0,0,0,.662,3.33,5.379,5.379,0,0,0,2.938,1.839,10.071,10.071,0,0,0,3.509.189c1.212,1.173,3.433,1.15,4.953.42A8.8,8.8,0,0,0,536.43,54.957Z" transform="translate(-514.316 -36.286)" fill="#263238"/>
          <g id="Grupo_59075" data-name="Grupo 59075" transform="translate(0 15.725)">
            <g id="Grupo_59073" data-name="Grupo 59073" transform="translate(0.427)">
              <g id="Grupo_59072" data-name="Grupo 59072">
                <path id="Trazado_106944" data-name="Trazado 106944" d="M528.267,44.367l-.3,0c-1.995.021-4.517,1.38-5.75,4.859l-4.791,9.278,5.47,2.425,2.991-8.757Z" transform="translate(-517.428 -44.367)" fill="#c48281"/>
              </g>
              <path id="Trazado_106945" data-name="Trazado 106945" d="M523.95,49.078a12.334,12.334,0,0,0-.465,3.437,9.269,9.269,0,0,1-.726,3.588,3.3,3.3,0,0,0-3.941.144,3.046,3.046,0,0,0-.887,1.247l4.491,1.991,2.991-8.757,1.471-4.83A5.593,5.593,0,0,0,523.95,49.078Z" transform="translate(-516.952 -42.919)" fill="#ab6160"/>
            </g>
            <g id="Grupo_59074" data-name="Grupo 59074" transform="translate(0 12.86)">
              <path id="Trazado_106946" data-name="Trazado 106946" d="M523.157,53.006a3.27,3.27,0,0,0-2.475-2,3.486,3.486,0,0,0-3.045,1.249,2.409,2.409,0,0,0-.126,2.551,3.187,3.187,0,0,0,3.649,1.73A2.935,2.935,0,0,0,523.157,53.006Z" transform="translate(-517.208 -50.975)" fill="#c48281"/>
            </g>
          </g>
          <path id="Trazado_106947" data-name="Trazado 106947" d="M525.446,44.333c-2.111.335-3.419,5.674-4.106,7.7-.708,2.1.255,3.614,1.329,4.881h0a2.162,2.162,0,0,1,.494,1.675l-2.22,8.247c6.06,4.5,16.218,2.318,18.973.848a19.468,19.468,0,0,0-1.781-8.348,13.715,13.715,0,0,1-1.343-5.4l-.1-3.028.732-5.223-5.264-1.251-4.635-.206A18.57,18.57,0,0,0,525.446,44.333Z" transform="translate(-513.675 -28.778)" fill="#bb83ff"/>
          <path id="Trazado_106948" data-name="Trazado 106948" d="M525.446,44.333c-2.111.335-3.419,5.674-4.106,7.7-.708,2.1.255,3.614,1.329,4.881h0a2.162,2.162,0,0,1,.494,1.675l-2.22,8.247c6.06,4.5,16.218,2.318,18.973.848a19.468,19.468,0,0,0-1.781-8.348,13.715,13.715,0,0,1-1.343-5.4l-.1-3.028.732-5.223-5.264-1.251-4.635-.206A18.57,18.57,0,0,0,525.446,44.333Z" transform="translate(-513.675 -28.778)" opacity="0.4"/>
          <g id="Grupo_59079" data-name="Grupo 59079" transform="translate(2.335 16.793)">
            <g id="Grupo_59078" data-name="Grupo 59078" transform="translate(0 12.626)">
              <g id="Grupo_59077" data-name="Grupo 59077">
                <g id="Grupo_59076" data-name="Grupo 59076" style="isolation: isolate">
                  <path id="Trazado_106949" data-name="Trazado 106949" d="M527.8,61.365l0-.006v0l0-.012,0-.018-.006-.018-.006-.019-.008-.018-.01-.019-.01-.018v0l-3.581-6.663-.01-.019-.012-.019-.012-.021-.014-.019-.016-.021-.016-.021-.016-.021-.016-.021-.018-.019-.014-.018-.014-.016L524,54.339l-.012-.012-.01-.012-.01-.01-.01-.012-.008-.008-.006-.008-.008-.008-.008-.008-.008-.008-.008-.008-.006-.008-.006-.006-.008-.008-.006-.006-.008-.006-.006-.008-.008-.008-.008-.008-.008-.006-.006-.008-.008-.008-.014-.012-.012-.012-.014-.012-.052-.047-.012-.01-.012-.01-.012-.01-.01-.01-.008-.006-.008-.006-.008-.008-.008-.006-.006-.006-.008-.006-.008-.006L523.644,54l-.006-.006-.008-.006-.008,0-.008-.006-.008-.006-.008-.008-.01-.006-.008-.008-.01-.006-.01-.006-.012-.01-.012-.008-.014-.01-.012-.01-.017-.012-.018-.01-.019-.014-.023-.014-.021-.014-.023-.014-.014-.008L519.262,51.5l-.01-.006-.023-.012-.023-.012-.023-.012-.021-.01-.021-.01-.023-.01-.019-.008-.023-.006-.021-.006-.016,0h0l-.006,0-.025,0h-.029a.088.088,0,0,0-.062.025l-.49.562.018,0c-.041.031-.045.1.014.206l3.581,6.665a2.3,2.3,0,0,0,.788.747l4.116,2.316c.212.119.341.123.358.035,0,.014,0,.029-.008.039h0l.49-.562.014-.025,0-.023Zm-9.28-9.389c.012,0,.016-.008.029-.006v0l.016.006A.119.119,0,0,0,518.515,51.976Zm4.719,2.656c.039.033.078.064.113.1h0C523.312,54.7,523.273,54.665,523.234,54.632Zm.257.251c.016.018.037.035.051.053h0C523.526,54.918,523.506,54.9,523.491,54.883Zm3.81,7.046a.322.322,0,0,0-.043-.132.382.382,0,0,1,.045.123h0Z" transform="translate(-518.408 -51.404)" fill="#455a64"/>
                </g>
              </g>
              <path id="Trazado_106950" data-name="Trazado 106950" d="M525.234,59.825l0-.006v0l0-.012,0-.018-.006-.018-.006-.019-.008-.018-.01-.019-.01-.018v0l-3.581-6.663-.49.56,3.581,6.665a.382.382,0,0,1,.045.123h0a.094.094,0,0,1-.016.076h0l.49-.562.014-.025,0-.023Z" transform="translate(-515.847 -49.864)" fill="#fff" opacity="0.15"/>
              <path id="Trazado_106951" data-name="Trazado 106951" d="M524.152,54.553l-.012-.019-.012-.021-.014-.019-.016-.021-.016-.021-.016-.021-.016-.021-.018-.019-.014-.018-.014-.016L524,54.339l-.012-.012-.01-.012-.01-.01-.01-.012-.008-.008-.006-.008-.008-.008-.008-.008-.008-.008-.008-.008-.006-.008-.006-.006-.008-.008-.006-.006-.008-.006-.006-.008-.008-.008-.008-.008-.008-.006-.006-.008-.008-.008-.014-.012-.012-.012-.014-.012-.052-.047-.012-.01-.012-.01-.012-.01-.01-.01-.008-.006-.008-.006-.008-.008-.008-.006-.006-.006-.008-.006-.008-.006L523.638,54l-.006-.006-.008-.006-.008,0-.008-.006-.008-.006-.008-.008-.01-.006-.008-.008-.01-.006-.01-.006-.012-.01-.012-.008-.014-.01-.012-.01-.017-.012-.018-.01-.019-.014-.023-.014-.021-.014-.023-.014-.014-.008L519.256,51.5l-.01-.006-.023-.012-.023-.012-.023-.012-.021-.01-.021-.01-.023-.01-.019-.008-.023-.006-.021-.006-.016,0h0l-.006,0-.025,0h-.029a.088.088,0,0,0-.062.025l-.49.562a.125.125,0,0,1,.123-.021v0a.825.825,0,0,1,.228.093l4.116,2.316a2.117,2.117,0,0,1,.234.156h0a2.63,2.63,0,0,1,.226.193h0a2.368,2.368,0,0,1,.195.206v0a1.288,1.288,0,0,1,.136.195l.49-.56Z" transform="translate(-518.402 -51.404)" fill="#fff" opacity="0.2"/>
            </g>
            <path id="Trazado_106952" data-name="Trazado 106952" d="M540.139,46.774a3.215,3.215,0,0,0-2.5-1.858s-1.9.979-1.9,5.423l.123,11.121h0c-.274.111-.545.228-.817.341a33.169,33.169,0,0,1-7.154,2.16,7.082,7.082,0,0,0-4.511-1.53l.607,1.131c-1.15.736-3.748-.592-3.748-.592a4.559,4.559,0,0,0,2.251,4.155c1.393.852,14.686-.4,17.506-2.224,1.853-1.2,1.415-12.666,1.415-12.666A9.559,9.559,0,0,0,540.139,46.774Z" transform="translate(-516.694 -44.916)" fill="#c48281"/>
            <path id="Trazado_106953" data-name="Trazado 106953" d="M518.865,52.47a7.7,7.7,0,0,0-.152,1.329A4.856,4.856,0,0,0,520,56.642a1.454,1.454,0,0,0,.551.389.645.645,0,0,0,.64-.1.961.961,0,0,0,.224-.669,3.643,3.643,0,0,0-.058-1.078,1.515,1.515,0,0,0-.568-.893,3.357,3.357,0,0,0-.72-.317,1.777,1.777,0,0,1-.642-.465Z" transform="translate(-518.126 -37.77)" fill="#c48281"/>
          </g>
          <g id="Grupo_59082" data-name="Grupo 59082" transform="translate(9.051 3.697)">
            <g id="Grupo_59080" data-name="Grupo 59080" transform="translate(3.948 7.702)">
              <path id="Trazado_106954" data-name="Trazado 106954" d="M524.736,44.125v4.2a2.244,2.244,0,0,0-.844,1.389,1.453,1.453,0,0,0,.749,1.31,2.046,2.046,0,0,0,1.545.15,3.5,3.5,0,0,0,1.364-.792,5.664,5.664,0,0,0,1.821-3.985V42.144Z" transform="translate(-523.889 -42.144)" fill="#c48281"/>
              <path id="Trazado_106955" data-name="Trazado 106955" d="M528.78,42.144c-.438,2.312-1.339,4.314-4.456,5.032V44.125Z" transform="translate(-523.477 -42.144)" fill="#ab6160"/>
            </g>
            <path id="Trazado_106956" data-name="Trazado 106956" d="M530.026,43.452a4.457,4.457,0,0,0-.008,1.115,1.318,1.318,0,0,0,.4.73.836.836,0,0,0,.761.191,1.452,1.452,0,0,1,2.788-.806,1.822,1.822,0,0,1-.241,1.524,3.425,3.425,0,0,1-1.171,1.061,1.23,1.23,0,0,1-1.489-.514A7.6,7.6,0,0,1,525,49.946a3.319,3.319,0,0,1-1.781-.547,3.533,3.533,0,0,1-1.158-2.658,14.242,14.242,0,0,1-.127-3.837,7.535,7.535,0,0,1,2.236-4.717A7.4,7.4,0,0,0,530.026,43.452Z" transform="translate(-521.86 -38.186)" fill="#c48281"/>
            <g id="Grupo_59081" data-name="Grupo 59081" transform="translate(0.417 3.282)">
              <path id="Trazado_106957" data-name="Trazado 106957" d="M524.307,40.77l-1.5,2.012,1.49.445Z" transform="translate(-521.381 -39.024)" fill="#ab6160"/>
              <path id="Trazado_106958" data-name="Trazado 106958" d="M524.875,42.492l-1.214.44a.762.762,0,0,0,.85.341A.684.684,0,0,0,524.875,42.492Z" transform="translate(-520.572 -37.395)" fill="#ab6160"/>
              <path id="Trazado_106959" data-name="Trazado 106959" d="M524.875,42.492l-1.214.44a.762.762,0,0,0,.85.341A.684.684,0,0,0,524.875,42.492Z" transform="translate(-520.572 -37.395)" opacity="0.3"/>
              <path id="Trazado_106960" data-name="Trazado 106960" d="M523.89,43.171a.7.7,0,0,0,.4,0,.615.615,0,0,0,.372-.576.7.7,0,0,0-.776.572Z" transform="translate(-520.356 -37.298)" fill="#ab6160"/>
              <path id="Trazado_106961" data-name="Trazado 106961" d="M525.131,41.148a.439.439,0,1,1-.438-.442A.439.439,0,0,1,525.131,41.148Z" transform="translate(-520.012 -39.085)" fill="#263238"/>
              <path id="Trazado_106962" data-name="Trazado 106962" d="M523.237,41.067a.439.439,0,0,1-.878,0,.439.439,0,1,1,.878,0Z" transform="translate(-521.804 -39.161)" fill="#263238"/>
              <path id="Trazado_106963" data-name="Trazado 106963" d="M523.088,40.012l-.977.669a.629.629,0,0,1,.193-.689A.745.745,0,0,1,523.088,40.012Z" transform="translate(-522.074 -39.856)" fill="#263238"/>
              <path id="Trazado_106964" data-name="Trazado 106964" d="M524.526,39.992l.971.677a.628.628,0,0,0-.187-.691A.745.745,0,0,0,524.526,39.992Z" transform="translate(-519.754 -39.873)" fill="#263238"/>
            </g>
          </g>
        </g>
      </g>
    </g>
    <g id="Grupo_59100" data-name="Grupo 59100" transform="translate(495.933 20.475)">
      <ellipse id="Shadow" cx="18.415" cy="10.632" rx="18.415" ry="10.632" transform="translate(0 75.431)" fill="#9d73d8" opacity="0.54"/>
      <g id="Character" transform="translate(1)">
        <g id="Grupo_59088" data-name="Grupo 59088" transform="translate(18.776 16.343)">
          <path id="Trazado_106965" data-name="Trazado 106965" d="M499.72,28.924c1.082,2.327,2.933,6.177,3.948,8.311l3.972-4.674h3.335s-4.017,8.56-6.41,10.551a1.888,1.888,0,0,1-2.74-.165,35.1,35.1,0,0,1-2.689-3.705c-1.9-2.927-2.742-4.192-2.742-4.192l-2.39-10.043C496.1,24.839,498.22,25.694,499.72,28.924Z" transform="translate(-493.62 -24.948)" fill="#ffa8a7"/>
          <path id="Trazado_106966" data-name="Trazado 106966" d="M493.807,25.006c1.277-.051,2.662-.208,3.878.852a9.876,9.876,0,0,1,2.652,3.734c.823,1.932,2.1,4.382,2.1,4.382a10.7,10.7,0,0,1-2.382,2.485,6.016,6.016,0,0,1-2.857,1.2Z" transform="translate(-493.807 -24.967)" fill="#f9e478"/>
          <path id="Trazado_106967" data-name="Trazado 106967" d="M493.807,25.006c1.277-.051,2.662-.208,3.878.852a9.876,9.876,0,0,1,2.652,3.734c.823,1.932,2.1,4.382,2.1,4.382a10.7,10.7,0,0,1-2.382,2.485,6.016,6.016,0,0,1-2.857,1.2Z" transform="translate(-493.807 -24.967)" opacity="0.45"/>
          <path id="Trazado_106968" data-name="Trazado 106968" d="M499.565,31.5a14.055,14.055,0,0,0-1.222,1.668,5.958,5.958,0,0,1,1.008-2.117Z" transform="translate(-489.516 -19.213)" fill="#f28f8f"/>
          <g id="Grupo_59087" data-name="Grupo 59087" transform="translate(9.423 0.986)">
            <g id="Grupo_59086" data-name="Grupo 59086">
              <path id="Trazado_106969" data-name="Trazado 106969" d="M507.587,25.885h.008l-.317-.331v0a.4.4,0,0,0-.352-.074l-3.845.652a1.4,1.4,0,0,0-.92.7L498.7,34.355a.358.358,0,0,0,.012.4h0l.327.342v0a.4.4,0,0,0,.356.078l3.845-.654a1.383,1.383,0,0,0,.919-.7c.679-1.477,2.779-6.038,3.456-7.515A.342.342,0,0,0,507.587,25.885Z" transform="translate(-498.649 -25.474)" fill="#455a64"/>
              <path id="Trazado_106970" data-name="Trazado 106970" d="M498.868,34.527l3.456-7.515a1.388,1.388,0,0,1,.919-.7l3.845-.652c.356-.06.523.156.372.485-.677,1.477-2.777,6.038-3.456,7.515a1.383,1.383,0,0,1-.919.7l-3.845.654C498.884,35.073,498.716,34.856,498.868,34.527Z" transform="translate(-498.495 -25.312)" fill="#263238"/>
              <path id="Trazado_106971" data-name="Trazado 106971" d="M502.967,26.225a1.366,1.366,0,0,0-.49.529l-3.456,7.511a.372.372,0,0,0,0,.4l-.307-.321,0,0a.354.354,0,0,1-.014-.4l3.458-7.515a1.316,1.316,0,0,1,.453-.5Z" transform="translate(-498.649 -25.054)" fill="#37474f"/>
            </g>
          </g>
          <path id="Trazado_106972" data-name="Trazado 106972" d="M505.321,31.825c1.59-1.827,1.547-4.114.815-4.773l-.485,1.057a17.772,17.772,0,0,1-3.606.451c-1.169-.09-2.127-.368-2.448-.142a2.031,2.031,0,0,0,1.072,3.26A11.712,11.712,0,0,0,505.321,31.825Z" transform="translate(-488.78 -22.995)" fill="#ffa8a7"/>
        </g>
        <g id="Botom" transform="translate(6.545 33.213)">
          <g id="Grupo_59092" data-name="Grupo 59092">
            <g id="Grupo_59091" data-name="Grupo 59091">
              <path id="Trazado_106973" data-name="Trazado 106973" d="M487.931,63.571a4.058,4.058,0,0,0,3.5,0l.508-6.663-4.009.529Z" transform="translate(-487.134 -11.621)" fill="#ffa8a7"/>
              <path id="Trazado_106974" data-name="Trazado 106974" d="M494.428,61.464c.866,1.878,2.432,1.358,4.2.156l-.309-6.7H494.06Z" transform="translate(-481.336 -13.498)" fill="#ffa8a7"/>
              <g id="Grupo_59089" data-name="Grupo 59089" transform="translate(0 50.119)">
                <path id="Trazado_106975" data-name="Trazado 106975" d="M495.82,66.208a1.541,1.541,0,0,1-.045,1.029,3.236,3.236,0,0,1-2.29.965,5.576,5.576,0,0,1-3.293-.58,2.294,2.294,0,0,1-1.23-1.8,4.73,4.73,0,0,0-.348-2.067c-.333-.537-.864-1.144-.979-1.434a2.954,2.954,0,0,1-.01-1.541Z" transform="translate(-487.521 -58.073)" fill="#263238"/>
                <path id="Trazado_106976" data-name="Trazado 106976" d="M492.163,60.928a3.68,3.68,0,0,0,.161.841,7.649,7.649,0,0,0,.813,1.662,7.085,7.085,0,0,0,.553.782c.4.477.9.87,1.325,1.327a2.709,2.709,0,0,1,.819,1.629c.058,1.041-1.072,1.4-1.942,1.551a6.4,6.4,0,0,1-2.827-.142,2.6,2.6,0,0,1-1.9-2.074c-.049-.29-.031-.586-.064-.876a4.1,4.1,0,0,0-.81-1.821,5.378,5.378,0,0,1-.621-.991,3.127,3.127,0,0,1,.119-2.012c.15-.555.319-1.181.516-1.129a.714.714,0,0,0,.045.333,1.486,1.486,0,0,1,.154.327,2.763,2.763,0,0,0,.158.43,1.143,1.143,0,0,0,.463.51l.039-1.179a.555.555,0,0,1,.089-.346.548.548,0,0,1,.333-.144,7.365,7.365,0,0,1,2.228-.185.408.408,0,0,1,.3.13.431.431,0,0,1,.051.267A10.059,10.059,0,0,0,492.163,60.928Z" transform="translate(-487.505 -59.391)" fill="#37474f"/>
                <path id="Trazado_106977" data-name="Trazado 106977" d="M492.222,61.982a2.945,2.945,0,0,0-1.73-.243,2.85,2.85,0,0,0-1.351.473.307.307,0,0,1-.4-.031h0a.289.289,0,0,1,.029-.442,2.926,2.926,0,0,1,1.518-.564,3.038,3.038,0,0,1,1.512.119S492.337,61.636,492.222,61.982Z" transform="translate(-486.449 -57.723)" fill="#f5f5f5"/>
                <path id="Trazado_106978" data-name="Trazado 106978" d="M492.753,62.515a3.749,3.749,0,0,0-1.917-.2,2.7,2.7,0,0,0-1.313.5.308.308,0,0,1-.4-.031h0a.291.291,0,0,1,.029-.444,3.06,3.06,0,0,1,1.551-.607c1.169-.082,1.473.156,1.473.156A.97.97,0,0,1,492.753,62.515Z" transform="translate(-486.088 -57.189)" fill="#f5f5f5"/>
                <path id="Trazado_106979" data-name="Trazado 106979" d="M490.044,60.607a2.893,2.893,0,0,1,1.469.123c.206.115.342.44.21.523a2.713,2.713,0,0,0-1.3-.179,3.886,3.886,0,0,0-1.263.346c-.1.045-.218.107-.323.165a.278.278,0,0,1-.383-.121h0a.26.26,0,0,1,.1-.335A3.755,3.755,0,0,1,490.044,60.607Z" transform="translate(-486.666 -58.272)" fill="#f5f5f5"/>
              </g>
              <g id="Grupo_59090" data-name="Grupo 59090" transform="translate(11.897 46.066)">
                <path id="Trazado_106980" data-name="Trazado 106980" d="M506,61.61a1.255,1.255,0,0,1-.053.926,4.626,4.626,0,0,1-3.454.942,7.939,7.939,0,0,1-3.95-1.382,4.568,4.568,0,0,0-2.432-.625,3.541,3.541,0,0,1-2.4-.969,2.107,2.107,0,0,1,.031-1.2Z" transform="translate(-493.635 -55.426)" fill="#263238"/>
                <path id="Trazado_106981" data-name="Trazado 106981" d="M498.32,57.619l.494-.181a.4.4,0,0,1,.282-.033c.123.045.171.191.2.315a4.857,4.857,0,0,0,.21.831,2.042,2.042,0,0,0,.535.562,8.815,8.815,0,0,0,1.528.985c.625.337,1.236.6,1.88.885a16.053,16.053,0,0,1,2.043.823,1.378,1.378,0,0,1-.006,2.277,6.748,6.748,0,0,1-4.709.325c-1.107-.315-2.337-1.5-3.789-1.611-.926-.072-2.674-.333-3.269-1.033-.22-.311.074-1.3.315-2.15.263-.93.364-2.384.671-2.3.021.309.29.486.451.747a5.472,5.472,0,0,1,.333.738,1.34,1.34,0,0,0,.483.636.612.612,0,0,0,.747-.043c.272-.28.113-.774.309-1.111a1.163,1.163,0,0,1,.652-.426Z" transform="translate(-493.626 -57.308)" fill="#37474f"/>
                <path id="Trazado_106982" data-name="Trazado 106982" d="M498.459,58.712a.859.859,0,0,0-.683-.457,2.482,2.482,0,0,0-1.625.613.346.346,0,0,0,.049.57h0a.348.348,0,0,0,.395-.045A2.639,2.639,0,0,1,498.459,58.712Z" transform="translate(-491.375 -56.424)" fill="#f5f5f5"/>
                <path id="Trazado_106983" data-name="Trazado 106983" d="M499.262,59.061a.99.99,0,0,0-.81-.416,3.075,3.075,0,0,0-1.779.666.337.337,0,0,0,.047.551h0a.326.326,0,0,0,.379-.045A2.651,2.651,0,0,1,499.262,59.061Z" transform="translate(-490.874 -56.044)" fill="#f5f5f5"/>
                <path id="Trazado_106984" data-name="Trazado 106984" d="M499.979,59.38A1.1,1.1,0,0,0,499.14,59a2.968,2.968,0,0,0-1.7.671.337.337,0,0,0,.047.551h0a.329.329,0,0,0,.379-.043A2.529,2.529,0,0,1,499.979,59.38Z" transform="translate(-490.153 -55.704)" fill="#f5f5f5"/>
              </g>
              <path id="Trazado_106985" data-name="Trazado 106985" d="M488.715,35.434c-.241,7.292-.222,24.928-.222,24.928-.078.907-.446,2.769-.749,6.4-.393,4.723.461,15.109.461,15.109a4.821,4.821,0,0,0,3.8.021s2.281-14.805,3-19.475c.636-4.1,1.882-13.322,1.882-13.322l1.436,11.987a24.507,24.507,0,0,0,.146,5.99c.335,2.148,1.823,10.985,1.823,10.985a7.526,7.526,0,0,0,4.221-.162s.14-15.305.179-17.3c.043-2.269-1.006-26.964-1.006-26.964Z" transform="translate(-487.408 -33.636)" fill="#37474f"/>
              <path id="Trazado_106986" data-name="Trazado 106986" d="M492.4,45.422l1.078-5.974a8.538,8.538,0,0,0,4.639-1.928s-.294,1.635-4.052,2.613l-1.078,6.046.848,11.23Z" transform="translate(-482.91 -29.963)" fill="#263238"/>
            </g>
          </g>
        </g>
        <g id="Grupo_59098" data-name="Grupo 59098" transform="translate(6.602)">
          <path id="Trazado_106987" data-name="Trazado 106987" d="M502.912,30.6c-.321-2.335-.629-5.472-4.248-5.616L494,25.207c-1.15.3-5.62.829-5.62.829l-.084,10.129s-.286,7.3-.2,11.209c3.343,2.119,10.615,2.806,15.185-.662C503.416,43.485,503.231,32.913,502.912,30.6Z" transform="translate(-487.052 -8.607)" fill="#fafafa"/>
          <g id="Grupo_59096" data-name="Grupo 59096" transform="translate(2.421)">
            <g id="Grupo_59094" data-name="Grupo 59094">
              <g id="Grupo_59093" data-name="Grupo 59093">
                <path id="Trazado_106988" data-name="Trazado 106988" d="M502.34,19.658a.988.988,0,0,0-.553-.946,1.733,1.733,0,0,0-1.138-.111,1.374,1.374,0,0,0-.848-1.368,1.59,1.59,0,0,0-1.734.265.816.816,0,0,0-.691-.9,2.2,2.2,0,0,0-1.234.226c-.588.235-1.164.5-1.759.708a15.413,15.413,0,0,0-3.117,1.181,1.975,1.975,0,0,0-.588.518,1.664,1.664,0,0,0-.251,1.055,2.218,2.218,0,0,0,.056.358.911.911,0,0,0-.253-.191.9.9,0,0,0-1.214.446l1.129.558a1.6,1.6,0,0,0-.837.485c-.564.617-.177,2.475.609,4.283a38.108,38.108,0,0,0,1.121,3.849,1.516,1.516,0,0,0,.9.675l-.109-2.022,8.4-.753-.843-.576a4.623,4.623,0,0,0,2.045-6.461A2.242,2.242,0,0,0,502.34,19.658Z" transform="translate(-488.586 -16.569)" fill="#37474f"/>
                <path id="Trazado_106989" data-name="Trazado 106989" d="M495.723,19.715c-.773-.091-1.539-.216-2.306-.337a.25.25,0,0,0-.2.025.227.227,0,0,0-.066.115c-.5,1.469-.49,3.067-.889,4.567-.037.136-.123.37-.29.389-.3.035-.5-.23-.627-.459l-.286-.518a1.353,1.353,0,0,0-.21-.265,1.159,1.159,0,0,0-1.919.4,2.432,2.432,0,0,0,1.421,2.907c1.479.413,1.668-.535,1.668-.535l.284,5.278c1.308,1.368,5.61.891,4.758-.294L497,29.377a9.271,9.271,0,0,0,1.977.037,2.687,2.687,0,0,0,2.01-2.248,19.949,19.949,0,0,0,.049-7.074,4.039,4.039,0,0,0-.265-.989A8.4,8.4,0,0,1,495.723,19.715Z" transform="translate(-488.795 -14.17)" fill="#ffa8a7"/>
              </g>
              <path id="Trazado_106990" data-name="Trazado 106990" d="M495.186,25.324a18.507,18.507,0,0,1-3.273-.825,2.766,2.766,0,0,1-1.2-1.111,3.781,3.781,0,0,0,.7,1.333c.64.767,3.789,1.243,3.789,1.243Z" transform="translate(-486.98 -10.118)" fill="#f28f8f"/>
            </g>
            <g id="Grupo_59095" data-name="Grupo 59095" transform="translate(6.016 6.726)">
              <path id="Trazado_106991" data-name="Trazado 106991" d="M493.337,21.576a.516.516,0,1,1-.533-.522A.53.53,0,0,1,493.337,21.576Z" transform="translate(-491.491 -19.052)" fill="#263238"/>
              <path id="Trazado_106992" data-name="Trazado 106992" d="M493.012,20.4l-1.082.465a.62.62,0,0,1,.319-.794A.576.576,0,0,1,493.012,20.4Z" transform="translate(-491.887 -20.025)" fill="#263238"/>
              <path id="Trazado_106993" data-name="Trazado 106993" d="M492.535,22.765l1.695.574a.88.88,0,0,1-1.121.592A.935.935,0,0,1,492.535,22.765Z" transform="translate(-491.314 -17.433)" fill="#b16668"/>
              <path id="Trazado_106994" data-name="Trazado 106994" d="M493.094,23.71a.918.918,0,0,1-.586-.646.741.741,0,0,1,.309-.066.758.758,0,0,1,.755.732A.857.857,0,0,1,493.094,23.71Z" transform="translate(-491.299 -17.213)" fill="#f28f8f"/>
              <path id="Trazado_106995" data-name="Trazado 106995" d="M495.565,20.819l-1.076-.413a.558.558,0,0,1,.73-.327A.585.585,0,0,1,495.565,20.819Z" transform="translate(-489.425 -20.01)" fill="#263238"/>
              <path id="Trazado_106996" data-name="Trazado 106996" d="M495.352,21.578a.519.519,0,1,1-.537-.525A.528.528,0,0,1,495.352,21.578Z" transform="translate(-489.589 -19.054)" fill="#263238"/>
              <path id="Trazado_106997" data-name="Trazado 106997" d="M493.553,21.252l.078,2.853,1.592-.459-1.485-2.417A.436.436,0,0,0,493.553,21.252Z" transform="translate(-490.31 -18.888)" fill="#f28f8f"/>
            </g>
          </g>
          <path id="Trazado_106998" data-name="Trazado 106998" d="M498.793,33.531c-.125-2.958-.354-5.569-1.456-6.957s-1.695-1.652-4.3-1.611l.006.179a.976.976,0,0,1,.739.428,15.374,15.374,0,0,1,2.008,4.462c.757,2.874.887,9.29.926,12.748s0,6.241,0,6.241,1.747-.407,2.288-1.282C499,47.739,498.918,36.489,498.793,33.531Z" transform="translate(-482.365 -8.632)" fill="#f9e478"/>
          <path id="Trazado_106999" data-name="Trazado 106999" d="M498.793,33.531c-.125-2.958-.354-5.569-1.456-6.957s-1.695-1.652-4.3-1.611l.006.179a.976.976,0,0,1,.739.428,15.374,15.374,0,0,1,2.008,4.462c.757,2.874.887,9.29.926,12.748s0,6.241,0,6.241,1.747-.407,2.288-1.282C499,47.739,498.918,36.489,498.793,33.531Z" transform="translate(-482.365 -8.632)" opacity="0.35"/>
          <path id="Trazado_107000" data-name="Trazado 107000" d="M494.954,28.607a16.1,16.1,0,0,0-1.485-3.419l-3.265.461c-1.2.555-2.763,1.88-2.647,3.2l.854,9.691-.237,9.173c1.864,2.9,7.426,2.364,7.426,2.364s.16-4.127-.019-12.1C495.479,33.505,495.429,30.615,494.954,28.607Z" transform="translate(-487.551 -8.415)" fill="#f9e478"/>
          <path id="Trazado_107001" data-name="Trazado 107001" d="M494.954,28.607a16.1,16.1,0,0,0-1.485-3.419l-3.265.461c-1.2.555-2.763,1.88-2.647,3.2l.854,9.691-.237,9.173c1.864,2.9,7.426,2.364,7.426,2.364s.16-4.127-.019-12.1C495.479,33.505,495.429,30.615,494.954,28.607Z" transform="translate(-487.551 -8.415)" opacity="0.35"/>
          <path id="Trazado_107002" data-name="Trazado 107002" d="M493.248,29.893c-.214-1.014-.331-2.894-.508-3.273s-1.148-1.133-1.185-1.64l-.018-.331a1.653,1.653,0,0,0-.815.422c-.305.27-1.206.9-1.206.9a4.078,4.078,0,0,0,.677,1.74c.533.771,1.28,1.273,1.4,1.082s.1-.481.292-.928c.245-.562.3-.8.564-.245C492.653,28.064,493.248,29.893,493.248,29.893Z" transform="translate(-485.692 -8.925)" fill="#37474f"/>
          <path id="Trazado_107003" data-name="Trazado 107003" d="M495.507,29.275c.265.852-.434-2.952-.885-3.621a3.07,3.07,0,0,0-1.607-.934l.051.823a1.224,1.224,0,0,1,.736.512A14.227,14.227,0,0,1,495.507,29.275Z" transform="translate(-482.383 -8.859)" fill="#37474f"/>
          <g id="Grupo_59097" data-name="Grupo 59097" transform="translate(0.226 21.486)">
            <path id="Trazado_107004" data-name="Trazado 107004" d="M495.116,27.759a69.232,69.232,0,0,0-7.449,1.164l.025.274a69.149,69.149,0,0,1,7.455-1.168C495.138,27.938,495.126,27.847,495.116,27.759Z" transform="translate(-487.667 -27.469)" fill="#f9e478"/>
            <path id="Trazado_107005" data-name="Trazado 107005" d="M497.213,27.838c-.813-.1-1.738-.179-2.754-.228.023.09.045.181.066.276,1,.051,1.917.136,2.719.232C497.234,28.024,497.224,27.931,497.213,27.838Z" transform="translate(-481.242 -27.61)" fill="#f9e478"/>
          </g>
        </g>
        <path id="Trazado_107006" data-name="Trazado 107006" d="M484.675,38.488c3.487-8.856,4.252-11.614,6.71-12.631a6.688,6.688,0,0,1,2.028-.432,7.916,7.916,0,0,1-1.419,8.379s-2.111,5.211-3.176,7.669a31.925,31.925,0,0,0,.609,7.885,2.216,2.216,0,0,0,.841,1.127c.885.488,1.031,1.037,1.685,1.666.512.492.959.6.883.769a.959.959,0,0,1-1.133.4,7.977,7.977,0,0,1-1.368-.718,8.091,8.091,0,0,0,1.6,2.384c1.271,1.419,1.58,2.44-.965,2.54-1.6.06-3.318-1.245-4.4-4.423-.214-.629-.436-1.539-.662-2.423-.165-.379-1.331-6.344-1.576-8.165C484.025,40.2,484.109,39.925,484.675,38.488Z" transform="translate(-484.158 -8.191)" fill="#ffa8a7"/>
        <g id="Grupo_59099" data-name="Grupo 59099" transform="translate(1.089 17.186)">
          <path id="Trazado_107007" data-name="Trazado 107007" d="M493.317,25.448a5.059,5.059,0,0,0-3.088.545c-1.38.831-1.856,1.559-3.52,5.435s-1.991,4.622-1.991,4.622.751,2.207,5.182,2.462l1.991-4.536a9.118,9.118,0,0,0,1.8-4.6A10.386,10.386,0,0,0,493.317,25.448Z" transform="translate(-484.718 -25.4)" fill="#f9e478"/>
          <path id="Trazado_107008" data-name="Trazado 107008" d="M493.317,25.448a5.059,5.059,0,0,0-3.088.545c-1.38.831-1.856,1.559-3.52,5.435s-1.991,4.622-1.991,4.622.751,2.207,5.182,2.462l1.991-4.536a9.118,9.118,0,0,0,1.8-4.6A10.386,10.386,0,0,0,493.317,25.448Z" transform="translate(-484.718 -25.4)" opacity="0.45"/>
        </g>
      </g>
    </g>
    <g id="Grupo_59108" data-name="Grupo 59108" transform="translate(473.971 88.809)">
      <g id="Grupo_59104" data-name="Grupo 59104" transform="translate(6.746 21.365)">
        <path id="Trazado_107009" data-name="Trazado 107009" d="M487.459,64.388l-5.793.167-5.793-.167c-.249,3.911.516,7.9,1.568,9.847l0,0a2.642,2.642,0,0,0,1.146,1.168,6.8,6.8,0,0,0,6.171,0,2.58,2.58,0,0,0,1.146-1.2C486.953,72.246,487.708,68.28,487.459,64.388Z" transform="translate(-475.826 -61.032)" fill="#fff"/>
        <g id="Grupo_59101" data-name="Grupo 59101" transform="translate(0.048)">
          <path id="Trazado_107010" data-name="Trazado 107010" d="M485.725,63.645c2.271,1.312,2.283,3.437.027,4.746a9.033,9.033,0,0,1-8.193,0c-2.269-1.31-2.281-3.435-.027-4.746A9.033,9.033,0,0,1,485.725,63.645Z" transform="translate(-475.85 -62.663)" fill="#eaeaea"/>
        </g>
        <g id="Grupo_59102" data-name="Grupo 59102" transform="translate(1.321 0.738)">
          <path id="Trazado_107011" data-name="Trazado 107011" d="M484.209,63.808c1.771,1.024,1.781,2.682.021,3.7a7.05,7.05,0,0,1-6.393,0c-1.771-1.022-1.779-2.68-.019-3.7A7.045,7.045,0,0,1,484.209,63.808Z" transform="translate(-476.505 -63.042)" fill="#e0e0e0"/>
        </g>
        <g id="Grupo_59103" data-name="Grupo 59103" transform="translate(1.321 0.738)" opacity="0.15">
          <path id="Trazado_107012" data-name="Trazado 107012" d="M484.209,63.808c1.771,1.024,1.781,2.682.021,3.7a7.05,7.05,0,0,1-6.393,0c-1.771-1.022-1.779-2.68-.019-3.7A7.045,7.045,0,0,1,484.209,63.808Z" transform="translate(-476.505 -63.042)"/>
        </g>
      </g>
      <g id="Grupo_59105" data-name="Grupo 59105" transform="translate(10.32)">
        <path id="Trazado_107013" data-name="Trazado 107013" d="M489.454,51.684c-13.056,4.275-13.174,13.009-10.23,19.228.741,1.259,2.989,1.936,4.943-5.8l-3.429.44,4-2.026,1.037-3.1-3.331.247,4.229-1.779A62.635,62.635,0,0,1,489.454,51.684Z" transform="translate(-477.662 -51.684)" fill="#bb83ff"/>
        <path id="Trazado_107014" data-name="Trazado 107014" d="M489.454,51.684c-13.056,4.275-13.174,13.009-10.23,19.228.741,1.259,2.989,1.936,4.943-5.8l-3.429.44,4-2.026,1.037-3.1-3.331.247,4.229-1.779A62.635,62.635,0,0,1,489.454,51.684Z" transform="translate(-477.662 -51.684)" opacity="0.2"/>
        <path id="Trazado_107015" data-name="Trazado 107015" d="M489.454,51.684c-13.056,4.275-13.174,13.009-10.23,19.228.741,1.259,2.989,1.936,4.943-5.8l-3.429.44,4-2.026,1.037-3.1-3.331.247,4.229-1.779A62.635,62.635,0,0,1,489.454,51.684Z" transform="translate(-477.662 -51.684)" fill="#fff" opacity="0.2"/>
        <path id="Trazado_107016" data-name="Trazado 107016" d="M484.993,52.807c-6.883,5.225-7.506,11.215-5.56,17.469C478.745,64.769,478,59.2,484.993,52.807Z" transform="translate(-476.894 -50.622)" fill="#fff"/>
      </g>
      <g id="Grupo_59106" data-name="Grupo 59106" transform="translate(0 8.872)">
        <path id="Trazado_107017" data-name="Trazado 107017" d="M472.359,56.243c12.869,1.814,14.429,9.926,12.723,16.208-.483,1.3-2.462,2.3-5.569-4.581l3.267-.16-4.057-1.222-1.483-2.717,3.145-.323-4.234-.955A59.29,59.29,0,0,0,472.359,56.243Z" transform="translate(-472.359 -56.243)" fill="#bb83ff"/>
        <path id="Trazado_107018" data-name="Trazado 107018" d="M472.359,56.243c12.869,1.814,14.429,9.926,12.723,16.208-.483,1.3-2.462,2.3-5.569-4.581l3.267-.16-4.057-1.222-1.483-2.717,3.145-.323-4.234-.955A59.29,59.29,0,0,0,472.359,56.243Z" transform="translate(-472.359 -56.243)" fill="#fff" opacity="0.2"/>
        <path id="Trazado_107019" data-name="Trazado 107019" d="M472.359,56.243c12.869,1.814,14.429,9.926,12.723,16.208-.483,1.3-2.462,2.3-5.569-4.581l3.267-.16-4.057-1.222-1.483-2.717,3.145-.323-4.234-.955A59.29,59.29,0,0,0,472.359,56.243Z" transform="translate(-472.359 -56.243)" opacity="0.1"/>
        <path id="Trazado_107020" data-name="Trazado 107020" d="M474.313,56.973c7.278,3.723,8.852,9.2,8.082,15.346C482.12,67.077,481.887,61.768,474.313,56.973Z" transform="translate(-470.511 -55.552)" fill="#fff"/>
      </g>
      <g id="Grupo_59107" data-name="Grupo 59107" transform="translate(12.444 11.913)">
        <path id="Trazado_107021" data-name="Trazado 107021" d="M492.187,57.806c-11.8.193-14.116,7.332-13.279,13.184.288,1.222,1.962,2.347,5.53-3.5l-2.927-.51,3.795-.648,1.64-2.283-2.8-.644,3.923-.385A53.928,53.928,0,0,1,492.187,57.806Z" transform="translate(-478.754 -57.806)" fill="#bb83ff"/>
        <path id="Trazado_107022" data-name="Trazado 107022" d="M488.191,58.245c-6.978,2.541-9.01,7.3-9,12.927C480.024,66.478,480.828,61.719,488.191,58.245Z" transform="translate(-478.342 -57.391)" fill="#fff"/>
        <path id="Trazado_107023" data-name="Trazado 107023" d="M492.187,57.806c-11.8.193-14.116,7.332-13.279,13.184.288,1.222,1.962,2.347,5.53-3.5l-2.927-.51,3.795-.648,1.64-2.283-2.8-.644,3.923-.385A53.928,53.928,0,0,1,492.187,57.806Z" transform="translate(-478.754 -57.806)" fill="#fff" opacity="0.2"/>
      </g>
    </g>
  </g>
</svg>
