<svg xmlns="http://www.w3.org/2000/svg" width="33.579" height="38.376" viewBox="0 0 33.579 38.376">
  <path id="unlock-alt-solid" d="M29.982,19.187H11.393V11.46a5.4,5.4,0,1,1,10.793-.067v1.2a1.8,1.8,0,0,0,1.8,1.8h2.4a1.8,1.8,0,0,0,1.8-1.8v-1.2A11.393,11.393,0,1,0,5.4,11.5v7.683H3.6a3.6,3.6,0,0,0-3.6,3.6V34.778a3.6,3.6,0,0,0,3.6,3.6H29.982a3.6,3.6,0,0,0,3.6-3.6V22.785A3.6,3.6,0,0,0,29.982,19.187ZM19.788,30.58a3,3,0,0,1-6,0v-3.6a3,3,0,0,1,6,0Z" transform="translate(0 0.001)" fill="#31d9e7"/>
</svg>
