<svg xmlns="http://www.w3.org/2000/svg" width="43.174" height="38.376" viewBox="0 0 43.174 38.376">
  <path id="file-signature-solid" d="M16.353,31.791a.831.831,0,0,0-.762-.489.817.817,0,0,0-.751.464l-.575,1.15a1.2,1.2,0,0,1-2.21-.157l-1.261-3.783-.8,2.39a3.236,3.236,0,0,1-3.073,2.213H6a1.2,1.2,0,1,1,0-2.4h.929a.84.84,0,0,0,.8-.574l1.363-4.1a1.8,1.8,0,0,1,3.414,0l1.04,3.121a3.364,3.364,0,0,1,4.947,1.061.851.851,0,0,0,.7.469V25.008l9.594-9.526V11.993H18.589a1.8,1.8,0,0,1-1.8-1.8V0H1.8A1.8,1.8,0,0,0,0,1.8V36.578a1.8,1.8,0,0,0,1.8,1.8H26.984a1.8,1.8,0,0,0,1.8-1.8v-3l-9.594-.008A3.218,3.218,0,0,1,16.353,31.791ZM28.782,9.137a1.793,1.793,0,0,0-.525-1.267L20.92.525A1.8,1.8,0,0,0,19.646,0h-.457V9.594h9.594Zm-7.2,16.869v5.175h5.171l12.119-12.2-5.088-5.088ZM42.614,12.542l-2.389-2.389a1.909,1.909,0,0,0-2.7,0L35.484,12.2l5.088,5.088,2.043-2.043A1.908,1.908,0,0,0,42.614,12.542Z" fill="#31d9e7"/>
</svg>
