<svg xmlns="http://www.w3.org/2000/svg" width="33.581" height="38.376" viewBox="0 0 33.581 38.376">
  <path id="user-secret-solid" d="M28.776,23.123l1.791-4.692A1.2,1.2,0,0,0,29.443,16.8H25.058a9.5,9.5,0,0,0,1.334-4.8v-.022c2.938-.585,4.8-1.432,4.8-2.376,0-1-2.046-1.881-5.254-2.474A19.445,19.445,0,0,0,22.892.928a2.406,2.406,0,0,0-2.961-.66L17.862,1.3a2.4,2.4,0,0,1-2.144,0L13.65.268a2.406,2.406,0,0,0-2.961.66A19.6,19.6,0,0,0,7.646,7.134C4.445,7.726,2.4,8.611,2.4,9.608c0,.944,1.859,1.791,4.8,2.376v.022A9.5,9.5,0,0,0,8.53,16.8H4.22a1.2,1.2,0,0,0-1.1,1.672l1.934,4.512A10.041,10.041,0,0,0,0,31.675v3.358a3.362,3.362,0,0,0,3.358,3.358H30.222a3.362,3.362,0,0,0,3.358-3.358V31.675a10.045,10.045,0,0,0-4.8-8.553ZM13.192,35.993,10.074,21.6,13.792,24l1.8,3Zm7.2,0L17.99,27l1.8-3,3.718-2.4Zm3.126-22.374a5.513,5.513,0,0,1-1.237,2.5c-.757.7-3.6,1.679-4.8-1.874a.734.734,0,0,0-1.372,0c-1.274,3.763-4.2,2.429-4.8,1.874a5.439,5.439,0,0,1-1.237-2.5c-.06-.187-.472-.427-.472-.435v-.81a57.722,57.722,0,0,0,7.2.435,56.319,56.319,0,0,0,7.2-.435v.81C23.986,13.191,23.574,13.423,23.514,13.618Z" transform="translate(0 -0.015)" fill="#31d9e7"/>
</svg>
