<svg xmlns="http://www.w3.org/2000/svg" width="150.696" height="145.118" viewBox="0 0 150.696 145.118">
  <g id="Grupo_59219" data-name="Grupo 59219" transform="translate(-565.649 -90.267)">
    <path id="Trazado_107024" data-name="Trazado 107024" d="M693.606,131.973C664.2,115,616.676,115,587.462,131.975s-29.064,44.506.343,61.484,76.93,16.978,106.149,0S723.013,148.953,693.606,131.973Z" transform="translate(0 29.193)" fill="#e8e8e8"/>
    <path id="Trazado_107025" data-name="Trazado 107025" d="M635.5,140.93a8.638,8.638,0,0,1,7.83,0c2.156,1.253,2.144,3.284-.024,4.537a8.636,8.636,0,0,1-7.832,0C633.315,144.214,633.327,142.183,635.5,140.93Z" transform="translate(68.729 50.101)" fill="#e0e0e0"/>
    <path id="Trazado_107026" data-name="Trazado 107026" d="M632.662,150l-4.011-5.455a4.755,4.755,0,0,0-3.461-1.919l-5.914-.456-9.4-5.71,3.513-2.03a.317.317,0,0,0,0-.55l-1.461-.831a1.9,1.9,0,0,0-1.889.008L575.6,152.96a.316.316,0,0,0,0,.548l1.423.823a1.9,1.9,0,0,0,1.9,0l14.95-8.635,9.267,5.316,1.211,3.409A5.384,5.384,0,0,0,609.426,158h8.647l5.868,3.387,14.177-8.239Z" transform="translate(9.871 42.855)" fill="#cfcfcf"/>
    <path id="Trazado_107027" data-name="Trazado 107027" d="M658.392,140.9c-9.373-5.412-24.518-5.412-33.832,0-8.227,4.782-9.142,12.186-2.778,17.578-5.133-.317-10.456.66-14.376,2.939-6.88,4-6.844,10.482.082,14.481s18.12,4,25,0c5.477-3.182,6.567-7.934,3.3-11.758,7.89,1.14,16.575-.072,22.718-3.644C667.816,155.084,667.766,146.309,658.392,140.9Z" transform="translate(36.898 46.925)" fill="#cfcfcf"/>
    <path id="Trazado_107028" data-name="Trazado 107028" d="M581.424,146.837a9.817,9.817,0,0,0-8.91,0c-2.453,1.425-2.439,3.736.028,5.161a9.821,9.821,0,0,0,8.912,0C583.9,150.573,583.893,148.262,581.424,146.837Z" transform="translate(5.072 55.921)" fill="#e0e0e0"/>
    <g id="Grupo_59114" data-name="Grupo 59114" transform="translate(579.173 90.267)">
      <g id="Grupo_59112" data-name="Grupo 59112" transform="translate(19.11)">
        <path id="Trazado_107029" data-name="Trazado 107029" d="M594.142,91.256l1.732-.989.109,37.871,0,0-13.965,7.974-.006-1.984-.1-35.888Z" transform="translate(-581.905 -90.267)" fill="#f0f0f0"/>
        <path id="Trazado_107030" data-name="Trazado 107030" d="M588.1,127.144,588,91.256l1.732-.989.109,37.871,0,0-1.74-.993Z" transform="translate(-575.763 -90.267)" opacity="0.1"/>
        <path id="Trazado_107031" data-name="Trazado 107031" d="M581.956,115.622l12.231-6.984,1.74.993-13.965,7.974Z" transform="translate(-581.853 -71.757)" opacity="0.2"/>
      </g>
      <g id="Grupo_59113" data-name="Grupo 59113" transform="translate(0 10.911)">
        <path id="Trazado_107032" data-name="Trazado 107032" d="M584.623,96.691l1.732-.989.109,37.871,0,0-13.965,7.974-.006-1.984-.1-35.888Z" transform="translate(-572.385 -95.702)" fill="#f0f0f0"/>
        <path id="Trazado_107033" data-name="Trazado 107033" d="M578.584,132.579l-.1-35.888,1.732-.989.109,37.871,0,0-1.74-.993Z" transform="translate(-566.244 -95.702)" opacity="0.1"/>
        <path id="Trazado_107034" data-name="Trazado 107034" d="M572.437,121.057l12.231-6.984,1.74.993-13.965,7.974Z" transform="translate(-572.334 -77.192)" opacity="0.2"/>
      </g>
    </g>
    <g id="Grupo_59131" data-name="Grupo 59131" transform="translate(646.258 96.435)">
      <path id="Trazado_107035" data-name="Trazado 107035" d="M610.165,94.845h0l-.1-.08h0Z" transform="translate(-601.507 -91.903)" fill="none"/>
      <path id="Trazado_107036" data-name="Trazado 107036" d="M610.413,95.055l-.02-.018.019.017Z" transform="translate(-601.174 -91.629)" fill="none"/>
      <path id="Trazado_107037" data-name="Trazado 107037" d="M608.44,93.933c-.048-.012-.1-.018-.147-.028.046.008.092.016.141.026Z" transform="translate(-603.29 -92.769)" fill="none"/>
      <path id="Trazado_107038" data-name="Trazado 107038" d="M608.6,93.977l-.132-.034c.042.01.084.02.126.032Z" transform="translate(-603.116 -92.731)" fill="none"/>
      <path id="Trazado_107039" data-name="Trazado 107039" d="M609.235,94.237l-.013-.006.013.006Z" transform="translate(-602.355 -92.441)" fill="none"/>
      <path id="Trazado_107040" data-name="Trazado 107040" d="M611.49,102.855c.092-.028.183-.06.273-.1C611.673,102.8,611.583,102.827,611.49,102.855Z" transform="translate(-600.069 -83.848)" fill="none"/>
      <path id="Trazado_107041" data-name="Trazado 107041" d="M612.051,97.1h0l-.06-.1v0Z" transform="translate(-599.564 -89.65)" fill="none"/>
      <path id="Trazado_107042" data-name="Trazado 107042" d="M611.879,96.817l-.072-.114h0Z" transform="translate(-599.75 -89.95)" fill="none"/>
      <path id="Trazado_107043" data-name="Trazado 107043" d="M610.723,95.348l-.062-.062.062.062Z" transform="translate(-600.904 -91.378)" fill="none"/>
      <path id="Trazado_107044" data-name="Trazado 107044" d="M610.888,95.518l0,0,0,0Z" transform="translate(-600.678 -91.147)" fill="none"/>
      <path id="Trazado_107045" data-name="Trazado 107045" d="M611.374,96.09l-.01-.014h0Z" transform="translate(-600.197 -90.581)" fill="none"/>
      <path id="Trazado_107046" data-name="Trazado 107046" d="M611.1,102.9c.1-.008.2-.02.3-.034C611.307,102.875,611.207,102.887,611.1,102.9Z" transform="translate(-600.458 -83.745)" fill="none"/>
      <path id="Trazado_107047" data-name="Trazado 107047" d="M608.333,101.571c.151.149.305.293.46.432C608.638,101.864,608.484,101.72,608.333,101.571Z" transform="translate(-603.25 -85.045)" fill="none"/>
      <path id="Trazado_107048" data-name="Trazado 107048" d="M609.436,102.422c.145.084.287.159.43.231C609.723,102.581,609.581,102.506,609.436,102.422Z" transform="translate(-602.139 -84.188)" fill="none"/>
      <path id="Trazado_107049" data-name="Trazado 107049" d="M609.17,102.256c.177.116.355.231.534.333C609.525,102.487,609.347,102.372,609.17,102.256Z" transform="translate(-602.407 -84.355)" fill="none"/>
      <path id="Trazado_107050" data-name="Trazado 107050" d="M610.521,102.843l.156.028Z" transform="translate(-601.045 -83.764)" fill="none"/>
      <path id="Trazado_107051" data-name="Trazado 107051" d="M612.34,97.652l-.022-.042h0Z" transform="translate(-599.235 -89.036)" fill="none"/>
      <path id="Trazado_107052" data-name="Trazado 107052" d="M607.5,93.884h0Z" transform="translate(-604.098 -92.79)" fill="none"/>
      <path id="Trazado_107053" data-name="Trazado 107053" d="M608.05,93.869l-.092-.006.074,0Z" transform="translate(-603.628 -92.812)" fill="none"/>
      <path id="Trazado_107054" data-name="Trazado 107054" d="M607.734,93.862h.006l-.084.006h.006Z" transform="translate(-603.932 -92.813)" fill="none"/>
      <path id="Trazado_107055" data-name="Trazado 107055" d="M608.273,93.9l.006,0c-.052-.008-.1-.014-.155-.02.046.006.09.01.136.018Z" transform="translate(-603.461 -92.796)" fill="none"/>
      <path id="Trazado_107056" data-name="Trazado 107056" d="M607.282,93.936l.01,0-.052.016.026-.01Z" transform="translate(-604.351 -92.74)" fill="none"/>
      <path id="Trazado_107057" data-name="Trazado 107057" d="M607.117,93.994l-.05.022.044-.02Z" transform="translate(-604.526 -92.68)" fill="none"/>
      <path id="Trazado_107058" data-name="Trazado 107058" d="M609.806,94.577l-.022-.015.022.015Z" transform="translate(-601.788 -92.106)" fill="none"/>
      <path id="Trazado_107059" data-name="Trazado 107059" d="M613.053,101.347c-.012.07-.022.141-.036.209C613.031,101.488,613.041,101.417,613.053,101.347Z" transform="translate(-598.53 -85.271)" fill="none"/>
      <path id="Trazado_107060" data-name="Trazado 107060" d="M612.98,101.709c-.018.06-.034.124-.054.183C612.946,101.833,612.962,101.769,612.98,101.709Z" transform="translate(-598.622 -84.906)" fill="none"/>
      <path id="Trazado_107061" data-name="Trazado 107061" d="M613.02,101.534c-.016.064-.028.13-.044.193C612.992,101.665,613,101.6,613.02,101.534Z" transform="translate(-598.572 -85.082)" fill="none"/>
      <path id="Trazado_107062" data-name="Trazado 107062" d="M612.873,102.033c-.022.054-.044.11-.07.163C612.829,102.143,612.851,102.087,612.873,102.033Z" transform="translate(-598.746 -84.58)" fill="none"/>
      <path id="Trazado_107063" data-name="Trazado 107063" d="M612.931,101.875c-.022.058-.04.116-.062.173C612.891,101.991,612.909,101.933,612.931,101.875Z" transform="translate(-598.68 -84.739)" fill="none"/>
      <path id="Trazado_107064" data-name="Trazado 107064" d="M612.808,102.182c-.026.05-.05.1-.078.151C612.758,102.284,612.782,102.232,612.808,102.182Z" transform="translate(-598.82 -84.43)" fill="none"/>
      <path id="Trazado_107065" data-name="Trazado 107065" d="M612.749,98.66h0Z" transform="translate(-598.801 -87.979)" fill="none"/>
      <path id="Trazado_107066" data-name="Trazado 107066" d="M609.459,94.358c.1.058.2.12.3.185C609.662,94.478,609.562,94.416,609.459,94.358Z" transform="translate(-602.115 -92.313)" fill="none"/>
      <path id="Trazado_107067" data-name="Trazado 107067" d="M613.093,100.931c-.006.092-.012.187-.02.277C613.081,101.118,613.087,101.023,613.093,100.931Z" transform="translate(-598.474 -85.69)" fill="none"/>
      <path id="Trazado_107068" data-name="Trazado 107068" d="M613.079,101.144c-.01.08-.018.163-.03.241C613.061,101.307,613.069,101.224,613.079,101.144Z" transform="translate(-598.498 -85.475)" fill="none"/>
      <path id="Trazado_107069" data-name="Trazado 107069" d="M613.1,100.653c0,.145,0,.285-.012.426C613.1,100.938,613.1,100.8,613.1,100.653Z" transform="translate(-598.46 -85.97)" fill="none"/>
      <path id="Trazado_107070" data-name="Trazado 107070" d="M613.085,100.357l0-.042,0,.042Z" transform="translate(-598.466 -86.311)" fill="none"/>
      <path id="Trazado_107071" data-name="Trazado 107071" d="M613.054,100l-.012-.08.012.08Z" transform="translate(-598.505 -86.712)" fill="none"/>
      <path id="Trazado_107072" data-name="Trazado 107072" d="M612.366,102.79c.036-.034.07-.072.1-.108C612.436,102.718,612.4,102.756,612.366,102.79Z" transform="translate(-599.186 -83.926)" fill="none"/>
      <path id="Trazado_107073" data-name="Trazado 107073" d="M612.973,99.5l-.01-.046.01.046Z" transform="translate(-598.585 -87.175)" fill="none"/>
      <path id="Trazado_107074" data-name="Trazado 107074" d="M613.03,99.822h0c-.01-.066-.022-.132-.034-.2h0C613.008,99.689,613.02,99.756,613.03,99.822Z" transform="translate(-598.552 -87.008)" fill="none"/>
      <path id="Trazado_107075" data-name="Trazado 107075" d="M612.734,102.321l-.084.141Z" transform="translate(-598.9 -84.289)" fill="none"/>
      <path id="Trazado_107076" data-name="Trazado 107076" d="M612.264,102.873c-.04.03-.078.062-.12.09C612.185,102.935,612.223,102.9,612.264,102.873Z" transform="translate(-599.411 -83.733)" fill="none"/>
      <path id="Trazado_107077" data-name="Trazado 107077" d="M612.567,102.571c-.034.04-.066.082-.1.12C612.5,102.653,612.533,102.611,612.567,102.571Z" transform="translate(-599.085 -84.038)" fill="none"/>
      <path id="Trazado_107078" data-name="Trazado 107078" d="M612.654,102.451c-.032.044-.06.088-.092.128C612.594,102.539,612.622,102.5,612.654,102.451Z" transform="translate(-598.989 -84.159)" fill="none"/>
      <path id="Trazado_107079" data-name="Trazado 107079" d="M612.371,102.783c-.038.032-.074.066-.113.1C612.3,102.849,612.332,102.815,612.371,102.783Z" transform="translate(-599.295 -83.824)" fill="none"/>
      <path id="Trazado_107080" data-name="Trazado 107080" d="M607.062,94.47c-.036.022-.072.044-.109.068C606.989,94.514,607.025,94.492,607.062,94.47Z" transform="translate(-604.64 -92.2)" fill="none"/>
      <path id="Trazado_107081" data-name="Trazado 107081" d="M606.6,99.026c-.07-.187-.138-.373-.2-.562.062.189.13.375.2.562Z" transform="translate(-605.198 -88.176)" fill="none"/>
      <path id="Trazado_107082" data-name="Trazado 107082" d="M606.481,98.733h0c-.064-.195-.122-.389-.177-.582h0C606.358,98.344,606.416,98.538,606.481,98.733Z" transform="translate(-605.294 -88.491)" fill="none"/>
      <path id="Trazado_107083" data-name="Trazado 107083" d="M617.365,110.533c-.1.016-.2.028-.305.036l-.066.006c-.128.008-.259.008-.391,0l-.09-.006c-.149-.008-.3-.022-.454-.044-.1-.016-.2-.036-.305-.058-.032-.006-.066-.016-.1-.024-.07-.016-.141-.032-.211-.052-.12-.032-.243-.07-.365-.112l-.074-.028c-.1-.034-.2-.072-.3-.112l-.114-.05c-.107-.046-.215-.094-.321-.147l-.124-.06c-.141-.072-.283-.147-.428-.231-.181-.1-.357-.217-.534-.333l-.09-.06c-.169-.114-.333-.237-.5-.361l-.1-.076c-.167-.13-.331-.265-.494-.408l-.042-.04c-.156-.139-.311-.281-.462-.43l-.074-.072c-.117-.116-.233-.233-.345-.355l-.02-.02c-.107-.114-.213-.231-.317-.351l-.066-.078c-.171-.2-.337-.4-.5-.606l-.052-.068c-.128-.167-.253-.337-.375-.51l-.054-.074c-.118-.169-.231-.339-.343-.512l-.078-.124c-.09-.143-.179-.285-.263-.432l-.056-.092c-.1-.165-.189-.333-.279-.5l-.066-.126c-.07-.135-.141-.271-.207-.408l-.066-.134c-.082-.173-.163-.345-.237-.52l-.032-.074c-.066-.157-.13-.315-.193-.472l-.054-.143c-.072-.187-.141-.375-.2-.562l-.014-.046c-.064-.195-.123-.389-.179-.582l-.032-.112c-.062-.227-.116-.452-.165-.679l-.032-.147c-.018-.088-.034-.177-.05-.265-.012-.062-.024-.122-.034-.185-.014-.09-.028-.181-.04-.273l-.024-.163c-.024-.195-.042-.387-.056-.58l-.008-.122c-.012-.2-.018-.393-.018-.588a5.444,5.444,0,0,1,1.162-3.674,5.494,5.494,0,0,1,3.837.845,14.871,14.871,0,0,1,6.749,11.69,5.452,5.452,0,0,1-1.158,3.668l-.1.024Z" transform="translate(-604.625 -92.462)" fill="none"/>
      <path id="Trazado_107084" data-name="Trazado 107084" d="M607.356,100.407c-.088-.143-.177-.285-.263-.432.086.147.173.289.263.432Z" transform="translate(-604.499 -86.653)" fill="none"/>
      <path id="Trazado_107085" data-name="Trazado 107085" d="M608.172,101.437c-.171-.2-.335-.4-.5-.6.163.207.327.408.5.6Z" transform="translate(-603.914 -85.789)" fill="none"/>
      <path id="Trazado_107086" data-name="Trazado 107086" d="M606.791,99.414c.066.137.134.271.2.406C606.925,99.685,606.857,99.551,606.791,99.414Z" transform="translate(-604.804 -87.219)" fill="none"/>
      <path id="Trazado_107087" data-name="Trazado 107087" d="M607.207,100.183h0c-.1-.167-.191-.335-.281-.5h0C607.016,99.848,607.111,100.016,607.207,100.183Z" transform="translate(-604.667 -86.952)" fill="none"/>
      <path id="Trazado_107088" data-name="Trazado 107088" d="M611.924,102.684l.02-.01c-.088.048-.181.092-.275.134l.006,0C611.759,102.768,611.844,102.728,611.924,102.684Z" transform="translate(-599.889 -83.934)" fill="none"/>
      <path id="Trazado_107089" data-name="Trazado 107089" d="M607.605,100.764c-.117-.169-.231-.339-.341-.512.11.173.225.343.341.512Z" transform="translate(-604.327 -86.374)" fill="none"/>
      <path id="Trazado_107090" data-name="Trazado 107090" d="M608.269,101.521c-.1-.114-.211-.229-.313-.347h0C608.059,101.292,608.165,101.407,608.269,101.521Z" transform="translate(-603.63 -85.445)" fill="none"/>
      <path id="Trazado_107091" data-name="Trazado 107091" d="M609.091,102.227c-.177-.139-.349-.283-.52-.434l.026.024C608.76,101.96,608.924,102.094,609.091,102.227Z" transform="translate(-603.01 -84.821)" fill="none"/>
      <path id="Trazado_107092" data-name="Trazado 107092" d="M609.408,102.432l.064.044c-.211-.143-.42-.293-.626-.454l.062.048Q609.155,102.26,609.408,102.432Z" transform="translate(-602.733 -84.591)" fill="none"/>
      <path id="Trazado_107093" data-name="Trazado 107093" d="M611.824,102.666l0,0Z" transform="translate(-599.732 -83.944)" fill="none"/>
      <path id="Trazado_107094" data-name="Trazado 107094" d="M608.468,101.712c-.116-.114-.231-.233-.345-.353C608.237,101.479,608.352,101.6,608.468,101.712Z" transform="translate(-603.462 -85.259)" fill="none"/>
      <path id="Trazado_107095" data-name="Trazado 107095" d="M610.07,102.731v0c-.13-.056-.261-.116-.393-.183l.07.034C609.855,102.636,609.961,102.687,610.07,102.731Z" transform="translate(-601.897 -84.059)" fill="none"/>
      <path id="Trazado_107096" data-name="Trazado 107096" d="M610.228,102.78l.074.026c.122.042.243.078.361.112a6.568,6.568,0,0,1-.737-.255l0,0C610.03,102.706,610.13,102.744,610.228,102.78Z" transform="translate(-601.644 -83.944)" fill="none"/>
      <path id="Trazado_107097" data-name="Trazado 107097" d="M610.938,102.888c-.072,0-.145-.008-.217-.016.072.008.145.012.215.016Z" transform="translate(-600.844 -83.734)" fill="none"/>
      <path id="Trazado_107098" data-name="Trazado 107098" d="M611.262,102.881c-.129.008-.259.008-.391,0h.006C611.007,102.889,611.135,102.889,611.262,102.881Z" transform="translate(-600.694 -83.725)" fill="none"/>
      <path id="Trazado_107099" data-name="Trazado 107099" d="M611.634,102.815c-.11.032-.223.056-.337.078l.008,0C611.416,102.869,611.526,102.845,611.634,102.815Z" transform="translate(-600.264 -83.792)" fill="none"/>
      <path id="Trazado_107100" data-name="Trazado 107100" d="M610.507,102.844l-.119-.03.028.008Z" transform="translate(-601.179 -83.793)" fill="none"/>
      <path id="Trazado_107101" data-name="Trazado 107101" d="M607.836,101.053h0c-.126-.167-.253-.335-.375-.508h0C607.583,100.718,607.71,100.886,607.836,101.053Z" transform="translate(-604.129 -86.079)" fill="none"/>
      <path id="Trazado_107102" data-name="Trazado 107102" d="M606.562,94.937c-.026.038-.052.072-.078.11C606.51,95.009,606.536,94.975,606.562,94.937Z" transform="translate(-605.113 -91.729)" fill="none"/>
      <path id="Trazado_107103" data-name="Trazado 107103" d="M606.648,94.826c-.028.034-.056.066-.082.1C606.592,94.892,606.62,94.86,606.648,94.826Z" transform="translate(-605.03 -91.841)" fill="none"/>
      <path id="Trazado_107104" data-name="Trazado 107104" d="M606.48,95.058c-.024.038-.048.076-.07.116C606.432,95.134,606.456,95.1,606.48,95.058Z" transform="translate(-605.187 -91.607)" fill="none"/>
      <path id="Trazado_107105" data-name="Trazado 107105" d="M606.845,94.629c-.034.03-.066.056-.1.086C606.779,94.685,606.811,94.659,606.845,94.629Z" transform="translate(-604.848 -92.04)" fill="none"/>
      <path id="Trazado_107106" data-name="Trazado 107106" d="M606.951,94.545c-.036.026-.07.05-.1.078C606.881,94.6,606.915,94.571,606.951,94.545Z" transform="translate(-604.747 -92.124)" fill="none"/>
      <path id="Trazado_107107" data-name="Trazado 107107" d="M606.743,94.723l-.09.094Z" transform="translate(-604.943 -91.945)" fill="none"/>
      <path id="Trazado_107108" data-name="Trazado 107108" d="M606.527,98.815c.062.159.127.315.193.472C606.654,99.13,606.589,98.974,606.527,98.815Z" transform="translate(-605.07 -87.822)" fill="none"/>
      <path id="Trazado_107109" data-name="Trazado 107109" d="M606.639,99.087c.076.175.157.347.239.52C606.8,99.434,606.715,99.262,606.639,99.087Z" transform="translate(-604.957 -87.548)" fill="none"/>
      <path id="Trazado_107110" data-name="Trazado 107110" d="M610.166,108.5c-.1-.114-.211-.229-.313-.347h0l-.068-.08h0c-.171-.2-.335-.4-.5-.6l-.052-.07h0c-.126-.167-.253-.335-.375-.508h0l-.054-.076h0c-.117-.169-.231-.339-.341-.512l-.08-.124h0c-.09-.143-.177-.285-.263-.432l-.054-.09h0c-.1-.167-.191-.335-.281-.5h0l-.066-.126c-.07-.134-.139-.269-.2-.406l-.066-.137c-.082-.173-.163-.345-.239-.52l-.032-.074c-.066-.157-.13-.313-.193-.472l-.054-.143h0c-.07-.187-.138-.373-.2-.562l-.016-.046h0c-.064-.195-.122-.389-.177-.582h0l-.032-.112c-.062-.227-.117-.452-.167-.677h0l-.032-.149c-.018-.088-.034-.177-.05-.265l-.03-.169,0-.016c-.016-.09-.028-.181-.042-.273-.008-.052-.016-.106-.022-.161-.024-.195-.044-.389-.056-.582l-.008-.122c-.012-.2-.02-.393-.02-.586,0-.135,0-.267.01-.4,0-.048.008-.094.01-.143.006-.08.01-.159.018-.237,0-.048.012-.1.018-.145.008-.072.016-.147.026-.219.006-.05.016-.1.026-.151.01-.066.02-.133.034-.2s.022-.1.034-.151.026-.122.042-.181.028-.1.042-.147.032-.114.048-.169.034-.094.05-.143.038-.106.058-.159.038-.088.056-.133.042-.1.064-.151.042-.082.064-.124.046-.094.072-.141.046-.078.07-.116.052-.09.078-.132.052-.072.078-.11.056-.082.086-.12.054-.068.082-.1.06-.076.092-.112l.09-.094c.032-.034.064-.068.1-.1s.064-.056.1-.086.066-.062.1-.09.068-.052.1-.078.07-.056.108-.082.072-.046.109-.068a3.278,3.278,0,0,1,1.084-.44,5.444,5.444,0,0,0-1.162,3.674c0,.195.006.391.018.588l.008.122c.014.193.032.385.056.58l.024.163c.012.092.026.183.04.273.01.062.022.122.034.185.016.088.032.177.05.265l.032.147c.048.227.1.452.165.679l.032.112c.056.193.115.387.179.582l.014.046c.062.187.13.375.2.562l.054.143c.062.157.126.315.193.472l.032.074c.074.175.155.347.237.52l.066.134c.066.137.136.273.207.408l.066.126c.09.169.183.337.279.5l.056.092c.084.147.173.289.263.432l.078.124c.112.173.225.343.343.512l.054.074c.123.173.247.343.375.51l.052.068c.161.207.327.41.5.606l.066.078c.1.12.211.237.317.351l.02.02c.112.122.229.239.345.355l.074.072c.151.149.305.291.462.43l.042.04c.163.143.327.277.494.408l.1.076c.165.124.329.247.5.361l.09.06c.177.116.353.229.534.333.144.084.287.159.428.231l.124.06c.106.052.215.1.321.147l.114.05c.1.04.2.078.3.112l.074.028c.122.042.245.08.365.112.07.02.141.036.211.052.032.008.066.018.1.024.1.022.2.042.305.058.155.022.305.036.454.044l.09.006c.132,0,.263,0,.391,0l.066-.006c.1-.008.207-.02.305-.036l.094-.014.1-.024a3.288,3.288,0,0,1-.839.687l0,0-.036.018-.02.01c-.08.044-.165.084-.249.122l-.006,0-.086.036c-.09.036-.181.068-.273.1l-.05.016c-.108.03-.219.054-.329.076l-.008,0-.086.014c-.1.014-.2.026-.3.034l-.078.006c-.126.008-.255.008-.385,0H615.7l-.082-.006h0c-.07,0-.143-.008-.215-.016s-.163-.016-.245-.03L615,111.5l-.149-.028-.09-.022-.028-.008c-.062-.014-.125-.03-.189-.046-.118-.034-.239-.07-.361-.112l-.074-.026c-.1-.036-.2-.074-.3-.114l0,0c-.036-.014-.074-.03-.11-.046v0c-.108-.044-.215-.094-.323-.147l-.07-.034-.052-.026c-.143-.072-.285-.147-.43-.231-.179-.1-.357-.217-.534-.333l-.024-.016-.064-.044q-.253-.172-.5-.361l-.062-.048-.032-.026c-.167-.133-.331-.267-.494-.41l-.026-.024-.018-.014c-.155-.139-.309-.283-.46-.432l-.076-.072c-.116-.114-.231-.233-.345-.353Z" transform="translate(-605.526 -92.421)" fill="#eaeaea"/>
      <g id="Grupo_59130" data-name="Grupo 59130" transform="translate(1.445 1.225)">
        <g id="Grupo_59115" data-name="Grupo 59115" transform="translate(11.373 11.157)">
          <path id="Trazado_107111" data-name="Trazado 107111" d="M612.187,99.507v.416l1.175.678v-.416Z" transform="translate(-612.186 -99.507)" fill="#fff"/>
        </g>
        <g id="Grupo_59116" data-name="Grupo 59116" transform="translate(1.686 2.373)">
          <path id="Trazado_107112" data-name="Trazado 107112" d="M607.543,95.132l-.182.254,1.017,1.264.182-.256Z" transform="translate(-607.361 -95.132)" fill="#fff"/>
        </g>
        <g id="Grupo_59117" data-name="Grupo 59117">
          <path id="Trazado_107113" data-name="Trazado 107113" d="M620.064,106.568c-.012,4.3-3.054,6.029-6.794,3.871a14.879,14.879,0,0,1-6.75-11.688c.012-4.3,3.056-6.031,6.794-3.873A14.875,14.875,0,0,1,620.064,106.568Zm-9.831-4.152a.4.4,0,0,0,.167.221.179.179,0,0,0,.07.026l2.877.225a.1.1,0,0,0,.106-.042l1.883-3.19a.324.324,0,0,0-.08-.325.344.344,0,0,0-.08-.068c-.066-.038-.13-.034-.163.02l-1.851,3.14-2.833-.223c-.092-.006-.135.09-.1.217m5.529-2.815.592-.831-.313-.387-.592.831.313.387m.245,10.486.315-.026-.584-1.51-.315.026.584,1.51m-7.637-6.766,1.02-.088-.179-.464-1.022.086.181.466M618.2,109l.181-.257-1.016-1.263-.183.255L618.2,109m-9.809-12.672-.181.255,1.018,1.263.181-.255-1.018-1.263m8.988,6.223,1.02-.086-.179-.464-1.022.086.181.464m-6.8-7.32-.313.028.586,1.51.311-.028-.584-1.51m-.034,11.706.592-.831-.311-.387-.592.831.311.387m-1.851-6.723v-.418l-1.176-.679v.416l1.176.681m10.379,5.575-1.174-.679,0,.418,1.174.677,0-.416m-5.977,3.407.361.209,0-1.351-.359-.209,0,1.351m.4-13.069-.359-.207,0,1.351.359.209,0-1.353" transform="translate(-606.521 -93.95)" fill="#e0e0e0"/>
        </g>
        <g id="Grupo_59118" data-name="Grupo 59118" transform="translate(6.606 1.966)">
          <path id="Trazado_107114" data-name="Trazado 107114" d="M609.816,94.929l0,1.352.361.208,0-1.352Z" transform="translate(-609.812 -94.929)" fill="#fff"/>
        </g>
        <g id="Grupo_59119" data-name="Grupo 59119" transform="translate(8.928 4.433)">
          <path id="Trazado_107115" data-name="Trazado 107115" d="M611.56,96.158l-.592.831.313.388.591-.831Z" transform="translate(-610.968 -96.158)" fill="#fff"/>
        </g>
        <g id="Grupo_59120" data-name="Grupo 59120" transform="translate(10.675 8.047)">
          <path id="Trazado_107116" data-name="Trazado 107116" d="M612.859,97.958l-1.021.086.179.465,1.021-.088Z" transform="translate(-611.838 -97.958)" fill="#fff"/>
        </g>
        <g id="Grupo_59121" data-name="Grupo 59121" transform="translate(10.659 13.525)">
          <path id="Trazado_107117" data-name="Trazado 107117" d="M612.012,100.687l-.181.256,1.017,1.264.182-.256Z" transform="translate(-611.83 -100.687)" fill="#fff"/>
        </g>
        <g id="Grupo_59122" data-name="Grupo 59122" transform="translate(8.902 14.602)">
          <path id="Trazado_107118" data-name="Trazado 107118" d="M611.269,101.223l-.314.026.585,1.51.314-.026Z" transform="translate(-610.955 -101.223)" fill="#fff"/>
        </g>
        <g id="Grupo_59123" data-name="Grupo 59123" transform="translate(6.573 13.891)">
          <path id="Trazado_107119" data-name="Trazado 107119" d="M609.8,100.869l0,1.352.361.208,0-1.352Z" transform="translate(-609.795 -100.869)" fill="#fff"/>
        </g>
        <g id="Grupo_59124" data-name="Grupo 59124" transform="translate(3.711 11.765)">
          <path id="Trazado_107120" data-name="Trazado 107120" d="M608.961,99.81l-.592.831.312.387.592-.831Z" transform="translate(-608.369 -99.81)" fill="#fff"/>
        </g>
        <g id="Grupo_59125" data-name="Grupo 59125" transform="translate(1.669 8.819)">
          <path id="Trazado_107121" data-name="Trazado 107121" d="M608.373,98.343l-1.021.088.179.465,1.021-.088Z" transform="translate(-607.352 -98.343)" fill="#fff"/>
        </g>
        <g id="Grupo_59126" data-name="Grupo 59126" transform="translate(0.993 5.164)">
          <path id="Trazado_107122" data-name="Trazado 107122" d="M607.017,96.522v.416l1.176.679V97.2Z" transform="translate(-607.016 -96.522)" fill="#fff"/>
        </g>
        <g id="Grupo_59127" data-name="Grupo 59127" transform="translate(3.743 1.278)">
          <path id="Trazado_107123" data-name="Trazado 107123" d="M608.7,94.586l-.313.027.585,1.51.313-.027Z" transform="translate(-608.385 -94.586)" fill="#fff"/>
        </g>
        <g id="Grupo_59128" data-name="Grupo 59128" transform="translate(3.698 8.25)">
          <path id="Trazado_107124" data-name="Trazado 107124" d="M611.439,98.31a.182.182,0,0,0-.072-.024l-.06,0-2.833-.223c-.092-.006-.135.09-.1.217a.4.4,0,0,0,.167.221.179.179,0,0,0,.07.026l2.877.225h.016c.092.008.134-.088.1-.217A.4.4,0,0,0,611.439,98.31Z" transform="translate(-608.363 -98.059)" fill="#fff"/>
        </g>
        <g id="Grupo_59129" data-name="Grupo 59129" transform="translate(6.641 5.288)">
          <path id="Trazado_107125" data-name="Trazado 107125" d="M611.843,96.609c-.066-.038-.13-.034-.163.02l-1.851,3.14.06,0a.182.182,0,0,1,.072.024.4.4,0,0,1,.165.221c.038.128,0,.225-.1.217h-.016a.1.1,0,0,0,.106-.042L612,97a.324.324,0,0,0-.08-.325A.344.344,0,0,0,611.843,96.609Z" transform="translate(-609.829 -96.583)" fill="#f5f5f5"/>
        </g>
      </g>
      <path id="Trazado_107126" data-name="Trazado 107126" d="M617.583,112.479c.036-.026.074-.052.11-.082s.074-.066.113-.1.07-.062.1-.094.07-.072.1-.108.066-.068.1-.1.066-.08.1-.12.06-.072.09-.112.06-.084.092-.128.056-.078.084-.12l.084-.141c.026-.042.052-.084.076-.128s.052-.1.078-.151.046-.09.068-.137.048-.108.07-.163.042-.094.062-.145.04-.114.062-.173.036-.1.052-.151.036-.122.054-.183.032-.1.046-.159.028-.128.044-.193.026-.108.038-.167.024-.139.036-.209.02-.11.028-.167c.012-.078.02-.161.03-.241l.018-.151c.008-.09.014-.185.02-.277,0-.044.006-.088.008-.132.008-.141.01-.281.012-.426,0-.211-.008-.424-.02-.636h0l0-.042c-.014-.237-.036-.478-.066-.719h0l-.012-.08c-.016-.13-.036-.261-.058-.391h0c-.01-.066-.022-.132-.034-.2h0c-.018-.094-.036-.191-.056-.287h0l-.01-.046a14.316,14.316,0,0,0-.432-1.6h0v0a16.794,16.794,0,0,0-.841-2.064l-.022-.042h0q-.277-.569-.6-1.12h0l-.06-.1v0c-.1-.163-.2-.323-.3-.484l-.072-.114h0q-.415-.644-.879-1.245l-.012-.014h0c-.305-.391-.624-.767-.958-1.122v0l0,0c-.126-.137-.257-.269-.387-.4h0l-.062-.062q-.256-.25-.518-.482v0l-.02-.016c-.185-.163-.371-.317-.56-.466h0l-.1-.08h0c-.177-.137-.357-.267-.538-.391h0l-.022-.014c-.116-.078-.231-.155-.349-.227-.1-.064-.2-.126-.3-.185-.157-.09-.309-.173-.464-.249h0l-.012-.006a7.447,7.447,0,0,0-1.385-.544l-.006,0c-.042-.012-.084-.022-.126-.032-.066-.016-.135-.034-.2-.048l-.006,0c-.048-.01-.094-.018-.141-.026-.062-.012-.125-.024-.185-.034l-.006,0h-.012c-.046-.008-.09-.012-.136-.018q-.121-.015-.241-.024l-.018,0-.074,0a4.537,4.537,0,0,0-.522,0h-.006l-.072.006h-.006c-.11.01-.217.022-.325.038h0l-.006,0a3.678,3.678,0,0,0-.452.1l-.01,0-.016,0-.026.01c-.1.03-.2.066-.3.1l-.006,0-.044.02a3.564,3.564,0,0,0-.394.191l-.014.008,1.795-1.042.04-.024.048-.022c.086-.048.177-.092.269-.132l.05-.024.044-.016c.106-.044.217-.082.329-.116l.014,0,0,0c.118-.034.241-.06.365-.084l.042-.008.06-.008c.109-.016.217-.03.329-.038l.054-.006h.018c.138-.008.281-.01.424,0a.294.294,0,0,1,.042,0c.046,0,.092.006.138.01l.1.006c.1.01.2.022.3.036l.01,0h0c.108.016.219.038.329.062.034.006.07.016.1.024.07.016.141.032.211.052l.02.006c.13.036.261.076.394.12l.082.03c.106.038.215.078.323.122l.042.018c.026.01.054.024.08.036.114.05.231.1.347.159l.132.064c.155.078.309.161.466.251.193.11.385.233.576.361l.1.064c.183.124.361.255.538.391l.1.08c.181.141.357.287.534.442l.044.04c.171.151.337.307.5.468l.05.046.03.032c.124.124.251.251.373.381l.018.02c.116.124.231.253.343.381l.034.036.04.048c.183.215.363.432.538.656l.014.018.04.054c.139.181.275.363.406.55l.042.056.018.028c.126.181.251.365.37.552l.036.052.05.082q.145.229.283.464l.044.074.016.028c.1.179.207.361.3.544l.024.044.046.09q.117.22.223.44l.048.092.024.056c.09.185.177.373.259.562l.006.016.024.058c.074.171.145.343.211.516l.034.082.026.07c.076.2.151.406.219.61l0,.01.01.036c.07.211.132.422.193.632l.024.078.01.044c.068.243.126.488.181.731l.016.066.018.094c.02.1.038.191.054.287l.036.2c.016.1.03.2.044.3.006.046.016.092.022.139l0,.036c.028.211.048.422.062.63l.008.13c.012.215.02.428.02.636-.006,2.309-.821,3.931-2.134,4.7l-1.795,1.042c.04-.022.076-.048.115-.072s.078-.048.114-.074S617.542,112.509,617.583,112.479Z" transform="translate(-604.73 -93.339)" fill="#eaeaea"/>
      <path id="Trazado_107127" data-name="Trazado 107127" d="M605.8,99.047a16.082,16.082,0,0,0,7.3,12.636c2.094,1.209,3.983,1.285,5.322.438.038-.024.078-.048.114-.074s.08-.06.12-.09.074-.052.11-.082.074-.066.113-.1.07-.062.1-.094.07-.072.1-.108.066-.068.1-.1.066-.08.1-.12.06-.072.09-.112.06-.084.092-.128.056-.078.084-.12l.084-.141c.026-.042.052-.084.076-.128s.052-.1.078-.151.046-.09.068-.137.048-.108.07-.163.042-.094.062-.145.04-.114.062-.173.036-.1.052-.151.036-.122.054-.183.032-.1.046-.159.028-.128.044-.193.026-.108.038-.167.024-.139.036-.209.02-.11.028-.167c.012-.078.02-.161.03-.241l.018-.151c.008-.09.014-.185.02-.277,0-.044.006-.088.008-.132.008-.141.01-.281.012-.426,0-.211-.008-.424-.02-.636l0-.042c-.014-.237-.036-.478-.066-.719l-.012-.08c-.016-.13-.036-.261-.058-.391-.01-.066-.022-.132-.034-.2-.018-.094-.036-.191-.056-.287l-.01-.046a14.316,14.316,0,0,0-.432-1.6v0a16.794,16.794,0,0,0-.841-2.064l-.022-.042q-.277-.569-.6-1.12l-.06-.1c-.1-.163-.2-.323-.3-.484l-.072-.114q-.415-.644-.879-1.245l-.012-.014c-.305-.391-.624-.767-.958-1.122l0,0c-.126-.137-.257-.269-.387-.4l-.062-.062q-.256-.25-.518-.482l-.02-.018c-.185-.163-.371-.317-.56-.466l-.1-.08c-.177-.137-.357-.267-.538-.391l-.022-.014c-.116-.078-.231-.155-.349-.227-.1-.064-.2-.126-.3-.185-.157-.09-.309-.173-.464-.249l-.012-.006a7.447,7.447,0,0,0-1.385-.544l-.132-.034c-.066-.016-.135-.034-.2-.048-.048-.012-.1-.018-.147-.028s-.125-.024-.185-.034-.1-.014-.155-.02q-.121-.015-.241-.024l-.092-.006a4.537,4.537,0,0,0-.522,0l-.084.006c-.11.01-.217.022-.325.038l-.006,0a3.678,3.678,0,0,0-.452.1l-.052.016c-.1.03-.2.066-.3.1l-.05.022a3.564,3.564,0,0,0-.394.191C606.628,95.1,605.807,96.73,605.8,99.047Zm4.661,9.869-.022-.024c-.1-.114-.211-.229-.313-.347l-.068-.08c-.171-.2-.335-.4-.5-.6l-.052-.07c-.126-.167-.253-.335-.375-.508l-.054-.076c-.117-.169-.231-.339-.341-.512l-.08-.124c-.088-.143-.177-.285-.263-.432l-.054-.09c-.1-.167-.191-.335-.281-.5l-.066-.126c-.07-.134-.139-.269-.2-.406l-.066-.137c-.082-.173-.163-.345-.239-.52l-.032-.074c-.066-.157-.13-.313-.193-.472l-.054-.143c-.07-.187-.138-.373-.2-.562l-.016-.046c-.064-.195-.122-.389-.177-.582l-.032-.112c-.062-.227-.117-.452-.167-.677l-.032-.149c-.018-.088-.034-.177-.05-.265l-.03-.169c-.016-.1-.03-.193-.044-.289-.008-.052-.016-.106-.022-.161-.024-.195-.044-.389-.056-.582l-.008-.122c-.012-.2-.02-.393-.02-.586,0-.135,0-.267.01-.4,0-.048.008-.094.01-.143.006-.08.01-.159.018-.237,0-.048.012-.1.018-.145.008-.072.016-.147.026-.219.006-.05.016-.1.026-.151.01-.066.02-.133.034-.2s.022-.1.034-.151.026-.122.042-.181.028-.1.042-.147.032-.114.048-.169.034-.094.05-.143.038-.106.058-.159.038-.088.056-.133.042-.1.064-.151.042-.082.064-.124.046-.094.072-.141.046-.078.07-.116.052-.09.078-.132.052-.072.078-.11.056-.082.086-.12.054-.068.082-.1.06-.076.092-.112l.09-.094c.032-.034.064-.068.1-.1s.064-.056.1-.086.066-.062.1-.09.068-.052.1-.078.07-.056.108-.082.072-.046.109-.068a3.278,3.278,0,0,1,1.084-.44,5.494,5.494,0,0,1,3.837.845,14.871,14.871,0,0,1,6.749,11.69,5.452,5.452,0,0,1-1.158,3.668,3.288,3.288,0,0,1-.839.687l0,0-.036.018c-.088.048-.181.092-.275.134l-.086.036c-.09.036-.181.068-.273.1l-.05.016c-.11.032-.223.056-.337.078l-.086.014c-.1.014-.2.026-.3.034l-.078.006c-.129.008-.259.008-.391,0l-.082-.006c-.072,0-.145-.008-.217-.016s-.163-.016-.245-.03l-.156-.028-.149-.028-.119-.03c-.062-.014-.125-.03-.189-.046a6.568,6.568,0,0,1-.737-.255c-.036-.014-.074-.03-.11-.046-.13-.056-.261-.116-.393-.183l-.052-.026c-.143-.072-.285-.147-.43-.231-.179-.1-.357-.217-.534-.333l-.024-.016c-.211-.143-.42-.293-.626-.454l-.032-.026c-.177-.139-.349-.283-.52-.434l-.018-.014c-.155-.139-.309-.283-.46-.432l-.076-.072C610.692,109.155,610.577,109.037,610.463,108.916Z" transform="translate(-605.801 -92.816)" fill="#fff"/>
    </g>
    <g id="Grupo_59144" data-name="Grupo 59144" transform="translate(695.692 109.036)">
      <g id="Grupo_59137" data-name="Grupo 59137" transform="translate(0 15.329)">
        <g id="Grupo_59132" data-name="Grupo 59132">
          <path id="Trazado_107128" data-name="Trazado 107128" d="M631.457,108.732l9.9,5.715-.021,7.565-9.9-5.715Z" transform="translate(-629.407 -105.76)" fill="none"/>
          <path id="Trazado_107129" data-name="Trazado 107129" d="M631.917,109l-.021,7.565-.917.533.025-8.625Z" transform="translate(-629.867 -106.025)" fill="#f0f0f0"/>
          <path id="Trazado_107130" data-name="Trazado 107130" d="M641.794,118.215l0,1.06-10.812-6.242.917-.533Z" transform="translate(-629.867 -101.964)" fill="#f5f5f5"/>
          <path id="Trazado_107131" data-name="Trazado 107131" d="M630.425,118.687l13.029,7.52.03-11.168-13.027-7.522Zm1.112-.634.024-8.625.913.528,9.9,5.714-.022,7.565,0,1.062Z" transform="translate(-630.425 -106.984)" fill="#e0e0e0"/>
          <path id="Trazado_107132" data-name="Trazado 107132" d="M630.441,107.784l.917-.533,13.028,7.522-.917.533Z" transform="translate(-630.409 -107.252)" fill="#f5f5f5"/>
          <path id="Trazado_107133" data-name="Trazado 107133" d="M637.863,111l-.032,11.17-.917.533.032-11.17Z" transform="translate(-623.886 -103.477)" fill="#f0f0f0"/>
        </g>
        <g id="Grupo_59136" data-name="Grupo 59136" transform="translate(2.49 5.844)">
          <g id="Grupo_59135" data-name="Grupo 59135" style="isolation: isolate">
            <g id="Grupo_59133" data-name="Grupo 59133">
              <path id="Trazado_107134" data-name="Trazado 107134" d="M634.371,110.162l-2.7,2.125-.006,2.076,8.978,5.184.006-2.076-1.711-3.4-1.536,1.193.543,1.688-.788-1.5Z" transform="translate(-631.665 -110.162)" fill="#e0e0e0"/>
            </g>
            <g id="Grupo_59134" data-name="Grupo 59134" transform="translate(4.886 0.942)">
              <path id="Trazado_107135" data-name="Trazado 107135" d="M634.868,110.737c-.424-.245-.767-.048-.769.438a1.688,1.688,0,0,0,.763,1.321c.424.243.767.048.769-.438A1.685,1.685,0,0,0,634.868,110.737Z" transform="translate(-634.099 -110.632)" fill="#e0e0e0"/>
            </g>
          </g>
        </g>
      </g>
      <g id="Grupo_59143" data-name="Grupo 59143" transform="translate(0.39)">
        <g id="Grupo_59138" data-name="Grupo 59138">
          <path id="Trazado_107136" data-name="Trazado 107136" d="M631.65,101.1l9.9,5.715-.021,7.565-9.9-5.715Z" transform="translate(-629.602 -98.125)" fill="none"/>
          <path id="Trazado_107137" data-name="Trazado 107137" d="M632.111,101.361l-.021,7.565-.917.533.025-8.625Z" transform="translate(-630.062 -98.39)" fill="#f0f0f0"/>
          <path id="Trazado_107138" data-name="Trazado 107138" d="M641.987,110.579l0,1.06L631.172,105.4l.917-.533Z" transform="translate(-630.062 -94.328)" fill="#f5f5f5"/>
          <path id="Trazado_107139" data-name="Trazado 107139" d="M630.619,111.051l13.027,7.522.032-11.17-13.029-7.522Zm1.11-.632.024-8.627.915.528,9.9,5.714-.022,7.567,0,1.06Z" transform="translate(-630.619 -99.349)" fill="#e0e0e0"/>
          <path id="Trazado_107140" data-name="Trazado 107140" d="M630.634,100.149l.917-.533,13.028,7.522-.917.533Z" transform="translate(-630.604 -99.616)" fill="#f5f5f5"/>
          <path id="Trazado_107141" data-name="Trazado 107141" d="M638.056,103.363l-.032,11.17-.917.533.032-11.17Z" transform="translate(-624.081 -95.841)" fill="#f0f0f0"/>
        </g>
        <g id="Grupo_59142" data-name="Grupo 59142" transform="translate(2.489 5.844)">
          <g id="Grupo_59141" data-name="Grupo 59141" style="isolation: isolate">
            <g id="Grupo_59139" data-name="Grupo 59139">
              <path id="Trazado_107142" data-name="Trazado 107142" d="M634.564,102.527l-2.7,2.125-.006,2.076,8.978,5.184.006-2.076-1.711-3.4L637.6,107.63l.543,1.688-.788-1.5Z" transform="translate(-631.859 -102.527)" fill="#e0e0e0"/>
            </g>
            <g id="Grupo_59140" data-name="Grupo 59140" transform="translate(4.887 0.941)">
              <path id="Trazado_107143" data-name="Trazado 107143" d="M635.06,103.1c-.422-.245-.767-.048-.767.438a1.678,1.678,0,0,0,.763,1.321c.422.243.765.048.767-.438A1.675,1.675,0,0,0,635.06,103.1Z" transform="translate(-634.293 -102.996)" fill="#e0e0e0"/>
            </g>
          </g>
        </g>
      </g>
    </g>
    <g id="Grupo_59150" data-name="Grupo 59150" transform="translate(667.415 103.112)">
      <g id="Grupo_59146" data-name="Grupo 59146">
        <g id="Grupo_59145" data-name="Grupo 59145">
          <path id="Trazado_107144" data-name="Trazado 107144" d="M619.594,96.847l19.389,11.212a2.177,2.177,0,0,1,1.082,1.869v19.5a2.128,2.128,0,0,1-3.254,1.753l-8.109-4.806-.175.281a.109.109,0,0,1-.028.024l0,0-.022.014,0,0c-.317.209-.871.506-1,.57l0-.008a.118.118,0,0,1-.147-.072l-.707-2h0l-9.2-5.2a2.152,2.152,0,0,1-1.084-1.869V98.6C616.34,97.044,618.629,96.293,619.594,96.847Z" transform="translate(-616.34 -96.666)" fill="#31d9e7"/>
          <path id="Trazado_107145" data-name="Trazado 107145" d="M626.664,102.993Z" transform="translate(-605.938 -90.29)" fill="none"/>
          <path id="Trazado_107146" data-name="Trazado 107146" d="M622.937,111.917a.109.109,0,0,1-.028.024l0,0-.022.014,0,0c-.317.209-.871.506-1,.57l0-.008a.121.121,0,0,0,.07-.048l.683-1.108-.135-.078h0l.6.345Z" transform="translate(-610.749 -81.929)" fill="#fff" opacity="0.2"/>
          <path id="Trazado_107147" data-name="Trazado 107147" d="M637.644,110.091a2.192,2.192,0,0,0-.578-.723h0a1.834,1.834,0,0,0-.263-.179L617.414,97.975a.717.717,0,0,0-1.074.622c0-1.554,2.288-2.3,3.254-1.751l19.389,11.212a2.143,2.143,0,0,1,.8.815Z" transform="translate(-616.34 -96.666)" fill="#fff" opacity="0.4"/>
          <path id="Trazado_107148" data-name="Trazado 107148" d="M627.613,124.427v-19.5a1.777,1.777,0,0,0-.018-.253,2.211,2.211,0,0,0-.225-.713l2.142-1.217a2.147,2.147,0,0,1,.279,1.054v19.5a2.128,2.128,0,0,1-3.254,1.753A.719.719,0,0,0,627.613,124.427Z" transform="translate(-606.066 -90.538)" fill="#fff" opacity="0.2"/>
        </g>
      </g>
      <g id="Grupo_59147" data-name="Grupo 59147" transform="translate(1.628 5.386)">
        <path id="Trazado_107149" data-name="Trazado 107149" d="M620.273,103.281l11.252,6.5-.677,7.713c-.04.472-.4.638-.831.389L621.4,112.9a1.581,1.581,0,0,1-.444-.4l.016.219a3.306,3.306,0,0,0,1.49,2.427l.377.219a1.371,1.371,0,0,1,.406.163,2.212,2.212,0,0,1,.406.305l4.051,2.339a1.392,1.392,0,0,1,.406.163,2.184,2.184,0,0,1,.406.305l.857.5a.731.731,0,0,1,.331.576c0,.211-.151.3-.333.191l-.066-.038a2.4,2.4,0,0,1,.151.8c0,.857-.608,1.2-1.355.771a2.96,2.96,0,0,1-1.343-2.329,1.192,1.192,0,0,1,.152-.624l-2.467-1.425a2.369,2.369,0,0,1,.151.8c0,.855-.608,1.2-1.353.771a2.963,2.963,0,0,1-1.345-2.329,1.155,1.155,0,0,1,.173-.654A4.885,4.885,0,0,1,620.3,112.4l-.765-10.359a1.467,1.467,0,0,0-.663-1.08l-1.393-.805a.726.726,0,0,1-.331-.576c0-.211.148-.3.333-.191l1.393.805a2.948,2.948,0,0,1,1.327,2.16Zm5.888,10.981.018-6.177a.994.994,0,0,0-.45-.781c-.251-.143-.454-.028-.454.259l-.018,6.177a1,1,0,0,0,.45.781c.249.143.454.028.454-.259m1.952,1.128.018-6.179a.985.985,0,0,0-.45-.779c-.249-.145-.452-.03-.454.257l-.016,6.179a.989.989,0,0,0,.45.779c.249.145.452.028.452-.257m1.953,1.126.018-6.177a1,1,0,0,0-.452-.781c-.249-.143-.452-.03-.452.259l-.018,6.177a1,1,0,0,0,.45.781c.249.143.454.028.454-.259m-5.856-3.381.016-6.179a.988.988,0,0,0-.45-.779c-.249-.145-.452-.03-.454.259l-.016,6.177a.986.986,0,0,0,.45.779c.249.145.452.028.454-.257m-1.953-1.128.018-6.177a.987.987,0,0,0-.45-.779c-.249-.145-.454-.03-.454.257l-.018,6.179a1,1,0,0,0,.45.779c.251.145.454.028.454-.259m.982,4.487c-.279-.161-.508-.032-.508.289a1.113,1.113,0,0,0,.5.873c.281.163.506.032.508-.289a1.116,1.116,0,0,0-.5-.873m4.86,2.807c-.279-.161-.506-.03-.506.289a1.108,1.108,0,0,0,.5.873c.279.163.506.032.508-.289a1.121,1.121,0,0,0-.506-.873" transform="translate(-617.151 -99.348)" fill="#fff"/>
      </g>
      <g id="Grupo_59149" data-name="Grupo 59149" transform="translate(13.639 12.513)">
        <g id="Grupo_59148" data-name="Grupo 59148" transform="translate(0.832 2.6)">
          <path id="Trazado_107150" data-name="Trazado 107150" d="M628.3,105.06a.968.968,0,0,1,.345.365c.191.329.191.685,0,.793l-2.861,1.632a.348.348,0,0,1-.345-.036,1.008,1.008,0,0,1-.345-.363l-1.4-2.429c-.193-.331-.191-.687,0-.8a.348.348,0,0,1,.345.036,1.012,1.012,0,0,1,.347.363l1.056,1.833,2.511-1.431A.346.346,0,0,1,628.3,105.06Z" transform="translate(-623.548 -104.193)" fill="#fff"/>
        </g>
        <path id="Trazado_107151" data-name="Trazado 107151" d="M626.6,103.372a7.582,7.582,0,0,1,3.439,5.956c-.006,2.19-1.556,3.072-3.461,1.971a7.58,7.58,0,0,1-3.439-5.956C623.14,103.155,624.69,102.271,626.6,103.372Zm-.393,5.784,2.861-1.632c.193-.108.193-.464,0-.793a.968.968,0,0,0-.345-.365.346.346,0,0,0-.347-.034l-2.511,1.431-1.056-1.833a1.012,1.012,0,0,0-.347-.363.348.348,0,0,0-.345-.036c-.193.11-.195.466,0,.8l1.4,2.429a1.008,1.008,0,0,0,.345.363.348.348,0,0,0,.345.036" transform="translate(-623.134 -102.898)" fill="#31d9e7"/>
        <path id="Trazado_107152" data-name="Trazado 107152" d="M626.6,103.372a7.582,7.582,0,0,1,3.439,5.956c-.006,2.19-1.556,3.072-3.461,1.971a7.58,7.58,0,0,1-3.439-5.956C623.14,103.155,624.69,102.271,626.6,103.372Zm-.393,5.784,2.861-1.632c.193-.108.193-.464,0-.793a.968.968,0,0,0-.345-.365.346.346,0,0,0-.347-.034l-2.511,1.431-1.056-1.833a1.012,1.012,0,0,0-.347-.363.348.348,0,0,0-.345-.036c-.193.11-.195.466,0,.8l1.4,2.429a1.008,1.008,0,0,0,.345.363.348.348,0,0,0,.345.036" transform="translate(-623.134 -102.898)" fill="#fff" opacity="0.3"/>
      </g>
    </g>
    <g id="Grupo_59183" data-name="Grupo 59183" transform="translate(585.498 104.412)">
      <g id="Grupo_59159" data-name="Grupo 59159">
        <g id="Grupo_59158" data-name="Grupo 59158">
          <g id="Grupo_59157" data-name="Grupo 59157">
            <path id="Trazado_107153" data-name="Trazado 107153" d="M612.393,99.606l0,0a4.163,4.163,0,0,0-3.469-2.291,1.434,1.434,0,0,0-.456.09l-31.414,17.873a3.041,3.041,0,0,0-1.52,2.612v67.952a2.888,2.888,0,0,0,3.871,2.588l.012-.008a.693.693,0,0,0,.121-.048l31.417-17.9a3,3,0,0,0,1.518-2.61V99.933A.737.737,0,0,0,612.393,99.606Z" transform="translate(-575.536 -97.313)" fill="#455a64"/>
            <path id="Trazado_107154" data-name="Trazado 107154" d="M577.719,120.173a1.5,1.5,0,0,1,.761-1.3l29.168-16.6a.753.753,0,0,1,1.124.654v54.795a1.507,1.507,0,0,1-.759,1.3l-29.17,16.623a.752.752,0,0,1-1.124-.652Z" transform="translate(-573.336 -92.416)" fill="#bb83ff"/>
            <path id="Trazado_107155" data-name="Trazado 107155" d="M577.719,120.173a1.5,1.5,0,0,1,.761-1.3l29.168-16.6a.753.753,0,0,1,1.124.654v54.795a1.507,1.507,0,0,1-.759,1.3l-29.17,16.623a.752.752,0,0,1-1.124-.652Z" transform="translate(-573.336 -92.416)" opacity="0.2"/>
            <path id="Trazado_107156" data-name="Trazado 107156" d="M577.719,120.173a1.5,1.5,0,0,1,.761-1.3l29.168-16.6a.753.753,0,0,1,1.124.654v54.795a1.507,1.507,0,0,1-.759,1.3l-29.17,16.623a.752.752,0,0,1-1.124-.652Z" transform="translate(-573.336 -92.416)" fill="#fff" opacity="0.1"/>
            <path id="Trazado_107157" data-name="Trazado 107157" d="M575.536,108.224v67.952a2.888,2.888,0,0,0,3.871,2.588l.012-.008a.747.747,0,0,1-1-.7V110.1a3.006,3.006,0,0,1,.506-1.66l-3.076-1.536A3.013,3.013,0,0,0,575.536,108.224Z" transform="translate(-575.536 -87.648)" opacity="0.3"/>
            <path id="Trazado_107158" data-name="Trazado 107158" d="M608.77,97.313a1.434,1.434,0,0,0-.456.09L576.9,115.277a3,3,0,0,0-1.209,1.293l3.076,1.536a3.026,3.026,0,0,1,1.012-.952L611.2,99.281a.747.747,0,0,1,1.042.325l0,0A4.163,4.163,0,0,0,608.77,97.313Z" transform="translate(-575.38 -97.313)" fill="#fff" opacity="0.1"/>
            <g id="Grupo_59156" data-name="Grupo 59156" transform="translate(15.633 12.562)">
              <g id="Grupo_59153" data-name="Grupo 59153" transform="translate(0 0.572)">
                <g id="Grupo_59151" data-name="Grupo 59151" transform="translate(1.588)">
                  <path id="Trazado_107159" data-name="Trazado 107159" d="M590.675,103.911c.219-.128.4-.03.4.225a.891.891,0,0,1-.4.695l-6.163,3.559c-.221.126-.4.02-.4-.235a.868.868,0,0,1,.4-.687Z" transform="translate(-584.114 -103.855)" fill="#263238"/>
                </g>
                <g id="Grupo_59152" data-name="Grupo 59152" transform="translate(0 4.473)">
                  <path id="Trazado_107160" data-name="Trazado 107160" d="M583.725,106.137c.221-.126.4-.026.4.229a.886.886,0,0,1-.4.693c-.221.126-.4.022-.4-.231A.887.887,0,0,1,583.725,106.137Z" transform="translate(-583.323 -106.083)" fill="#263238"/>
                </g>
              </g>
              <g id="Grupo_59154" data-name="Grupo 59154" transform="translate(3.543)">
                <path id="Trazado_107161" data-name="Trazado 107161" d="M585.891,103.68c.442-.255.8-.052.8.454a1.769,1.769,0,0,1-.793,1.385c-.442.253-.807.046-.809-.462A1.768,1.768,0,0,1,585.891,103.68Z" transform="translate(-585.088 -103.57)" fill="#263238"/>
              </g>
              <g id="Grupo_59155" data-name="Grupo 59155" transform="translate(2.714 63.858)">
                <path id="Trazado_107162" data-name="Trazado 107162" d="M586.309,135.6c.9-.518,1.622-.1,1.626.927a3.589,3.589,0,0,1-1.614,2.819c-.9.518-1.642.094-1.646-.938A3.6,3.6,0,0,1,586.309,135.6Z" transform="translate(-584.675 -135.379)" fill="#263238"/>
              </g>
            </g>
          </g>
        </g>
      </g>
      <g id="Grupo_59161" data-name="Grupo 59161" transform="translate(4.34 8.998)">
        <g id="Grupo_59160" data-name="Grupo 59160">
          <path id="Trazado_107163" data-name="Trazado 107163" d="M595.079,101.795l10.608,8.806-3.867,2.233-10.607-8.805Z" transform="translate(-564.08 -101.795)" fill="#bb83ff"/>
          <path id="Trazado_107164" data-name="Trazado 107164" d="M591.228,104.02l10.606,8.8-3.867,2.233-10.6-8.8Z" transform="translate(-567.96 -99.552)" fill="#bb83ff"/>
          <path id="Trazado_107165" data-name="Trazado 107165" d="M589.3,105.133l10.6,8.8-3.867,2.233-10.6-8.8Z" transform="translate(-569.9 -98.431)" fill="#fff"/>
          <path id="Trazado_107166" data-name="Trazado 107166" d="M593.153,102.908l10.607,8.805-3.866,2.233-10.606-8.8Z" transform="translate(-566.02 -100.674)" fill="#fff"/>
          <path id="Trazado_107167" data-name="Trazado 107167" d="M583.526,108.472l10.6,8.8-3.867,2.233-10.6-8.8Z" transform="translate(-575.72 -95.067)" fill="#bb83ff"/>
          <path id="Trazado_107168" data-name="Trazado 107168" d="M587.377,106.246l10.6,8.8-3.867,2.233-10.6-8.8Z" transform="translate(-571.84 -97.31)" fill="#bb83ff"/>
          <path id="Trazado_107169" data-name="Trazado 107169" d="M577.7,111.862l3.941-2.278,10.6,8.8-3.951,2.282Z" transform="translate(-577.698 -93.946)" fill="#fff"/>
          <path id="Trazado_107170" data-name="Trazado 107170" d="M585.452,107.359l10.6,8.8-3.867,2.233-10.6-8.8Z" transform="translate(-573.78 -96.189)" fill="#fff"/>
        </g>
        <path id="Trazado_107171" data-name="Trazado 107171" d="M600.364,106.181l-3.867,2.234h0a1.491,1.491,0,0,0,2.237,1.291h0a3.267,3.267,0,0,0,1.63-2.825Z" transform="translate(-558.756 -97.375)" fill="#bb83ff"/>
        <path id="Trazado_107172" data-name="Trazado 107172" d="M598.438,107.294l-3.867,2.232h0a1.491,1.491,0,0,0,2.236,1.291h0a3.261,3.261,0,0,0,1.63-2.823Z" transform="translate(-560.697 -96.254)" fill="#e0e0e0"/>
        <path id="Trazado_107173" data-name="Trazado 107173" d="M596.512,108.406l-3.867,2.234h0a1.491,1.491,0,0,0,2.236,1.291h0a3.267,3.267,0,0,0,1.63-2.825Z" transform="translate(-562.637 -95.133)" fill="#bb83ff"/>
        <path id="Trazado_107174" data-name="Trazado 107174" d="M594.586,109.519l-3.867,2.232h0a1.491,1.491,0,0,0,2.236,1.291h0a3.261,3.261,0,0,0,1.63-2.823Z" transform="translate(-564.578 -94.012)" fill="#e0e0e0"/>
        <path id="Trazado_107175" data-name="Trazado 107175" d="M592.66,110.631l-3.867,2.234h0a1.491,1.491,0,0,0,2.236,1.291h0a3.267,3.267,0,0,0,1.63-2.825Z" transform="translate(-566.518 -92.892)" fill="#bb83ff"/>
        <path id="Trazado_107176" data-name="Trazado 107176" d="M590.734,111.744l-3.867,2.232h0a1.491,1.491,0,0,0,2.236,1.291h0a3.261,3.261,0,0,0,1.63-2.823Z" transform="translate(-568.459 -91.77)" fill="#e0e0e0"/>
        <path id="Trazado_107177" data-name="Trazado 107177" d="M588.808,112.856l-3.867,2.234h0a1.491,1.491,0,0,0,2.237,1.291h0a3.267,3.267,0,0,0,1.63-2.825Z" transform="translate(-570.4 -90.65)" fill="#bb83ff"/>
        <path id="Trazado_107178" data-name="Trazado 107178" d="M600.364,106.181l-3.867,2.234h0a1.491,1.491,0,0,0,2.237,1.291h0a3.267,3.267,0,0,0,1.63-2.825Z" transform="translate(-558.756 -97.375)" opacity="0.2"/>
        <path id="Trazado_107179" data-name="Trazado 107179" d="M596.512,108.406l-3.867,2.234h0a1.491,1.491,0,0,0,2.236,1.291h0a3.267,3.267,0,0,0,1.63-2.825Z" transform="translate(-562.637 -95.133)" opacity="0.2"/>
        <path id="Trazado_107180" data-name="Trazado 107180" d="M592.66,110.631l-3.867,2.234h0a1.491,1.491,0,0,0,2.236,1.291h0a3.267,3.267,0,0,0,1.63-2.825Z" transform="translate(-566.518 -92.892)" opacity="0.2"/>
        <path id="Trazado_107181" data-name="Trazado 107181" d="M588.808,112.856l-3.867,2.234h0a1.491,1.491,0,0,0,2.237,1.291h0a3.267,3.267,0,0,0,1.63-2.825Z" transform="translate(-570.4 -90.65)" opacity="0.2"/>
        <path id="Trazado_107182" data-name="Trazado 107182" d="M586.924,113.969l-3.951,2.281h0a1.491,1.491,0,0,0,2.236,1.291h0a3.43,3.43,0,0,0,1.714-2.969Z" transform="translate(-572.383 -89.528)" fill="#e0e0e0"/>
      </g>
      <g id="Grupo_59167" data-name="Grupo 59167" transform="translate(12.363 43.447)">
        <g id="Grupo_59162" data-name="Grupo 59162" transform="translate(2.098 1.393)">
          <path id="Trazado_107183" data-name="Trazado 107183" d="M591.667,119.648a9.5,9.5,0,0,0-3.284,1.014,10.464,10.464,0,0,0-5.1,5.868,9.543,9.543,0,0,0-.542,3.393,15.973,15.973,0,0,1,1.1-3.166,13.445,13.445,0,0,1,4.844-5.577A15.957,15.957,0,0,1,591.667,119.648Z" transform="translate(-582.739 -119.648)" fill="#bb83ff"/>
        </g>
        <g id="Grupo_59163" data-name="Grupo 59163" transform="translate(2.515 13.557)">
          <path id="Trazado_107184" data-name="Trazado 107184" d="M588.432,130.5a6.083,6.083,0,0,1-1.849-.323,5.223,5.223,0,0,1-3.052-2.676,6,6,0,0,1-.56-1.791,4.19,4.19,0,0,0,.249,1.923,4.531,4.531,0,0,0,3.27,2.869A4.212,4.212,0,0,0,588.432,130.5Z" transform="translate(-582.947 -125.707)" fill="#bb83ff"/>
        </g>
        <g id="Grupo_59164" data-name="Grupo 59164" transform="translate(9.576 7.93)">
          <path id="Trazado_107185" data-name="Trazado 107185" d="M589.907,122.9a14.619,14.619,0,0,1-.038,2.6,13.048,13.048,0,0,1-1.855,5.475,14.793,14.793,0,0,1-1.55,2.09,8.058,8.058,0,0,0,1.933-1.827,9.443,9.443,0,0,0,1.937-5.714A8.092,8.092,0,0,0,589.907,122.9Z" transform="translate(-586.464 -122.904)" fill="#bb83ff"/>
        </g>
        <g id="Grupo_59165" data-name="Grupo 59165" transform="translate(0 4.354)">
          <path id="Trazado_107186" data-name="Trazado 107186" d="M584.561,121.123a8.978,8.978,0,0,0-1.889,2.626,9.9,9.9,0,0,0-.51,7.3,9,9,0,0,0,1.508,2.861,15.229,15.229,0,0,1-.96-3.005,12.722,12.722,0,0,1,.484-6.934A15.222,15.222,0,0,1,584.561,121.123Z" transform="translate(-581.694 -121.123)" fill="#bb83ff"/>
        </g>
        <g id="Grupo_59166" data-name="Grupo 59166" transform="translate(6.55)">
          <path id="Trazado_107187" data-name="Trazado 107187" d="M593.644,123.69a5.014,5.014,0,0,0-.917-2.451,5.334,5.334,0,0,0-5.4-2.19,4.976,4.976,0,0,0-2.367,1.12,6.688,6.688,0,0,1,2.427-.669,5.847,5.847,0,0,1,4.983,2.022A6.693,6.693,0,0,1,593.644,123.69Z" transform="translate(-584.957 -118.954)" fill="#bb83ff"/>
        </g>
      </g>
      <g id="Grupo_59182" data-name="Grupo 59182" transform="translate(16.785 24.738)">
        <path id="Trazado_107188" data-name="Trazado 107188" d="M596.6,116.274h0a4.088,4.088,0,0,1,4.441,3.351l1.506,8.426,9.423,6.589-2.106,2.562-8.966-4.71a4.456,4.456,0,0,1-2.2-2.68l-2.889-9.745Z" transform="translate(-571.897 -102.968)" fill="#ffa8a7"/>
        <g id="Grupo_59168" data-name="Grupo 59168" transform="translate(23.91 13.271)">
          <path id="Trazado_107189" data-name="Trazado 107189" d="M600.1,125.319a4.371,4.371,0,0,0,1.9-2l-.847-3.861a4.087,4.087,0,0,0-4.409-3.192l-.147.014-.793,3.792,1.253,5.6A4.389,4.389,0,0,0,600.1,125.319Z" transform="translate(-595.807 -116.245)" fill="#455a64"/>
          <path id="Trazado_107190" data-name="Trazado 107190" d="M599.47,121.769a4.389,4.389,0,0,1-3.039.349l.309,1.379c1.172.259,4.166.173,4.947-2.3l-.313-1.427A4.371,4.371,0,0,1,599.47,121.769Z" transform="translate(-595.178 -112.695)" fill="#455a64"/>
          <path id="Trazado_107191" data-name="Trazado 107191" d="M600.1,125.319a4.371,4.371,0,0,0,1.9-2l-.847-3.861a4.087,4.087,0,0,0-4.409-3.192l-.147.014-.793,3.792,1.253,5.6A4.389,4.389,0,0,0,600.1,125.319Z" transform="translate(-595.807 -116.245)" fill="#fff" opacity="0.2"/>
          <path id="Trazado_107192" data-name="Trazado 107192" d="M599.47,121.769a4.389,4.389,0,0,1-3.039.349l.309,1.379c1.172.259,4.166.173,4.947-2.3l-.313-1.427A4.371,4.371,0,0,1,599.47,121.769Z" transform="translate(-595.178 -112.695)" fill="#fff" opacity="0.5"/>
        </g>
        <path id="Trazado_107193" data-name="Trazado 107193" d="M610.688,119.877s-.375-2.865-2.088-3.614c0,0-4.089,1.227-7.486,2.515a39.325,39.325,0,0,0-3.935,1.672,32.435,32.435,0,0,1-4.023,3.19,4.949,4.949,0,0,1-1.618.486h-.008a5.571,5.571,0,0,0-2.01.735A12.388,12.388,0,0,0,583.9,134.6c.006,2.347,1.1,3.766,2.73,3.967v.008h.066a3.568,3.568,0,0,0,.773-.008c2.835-.026,7.378-.048,9.165-.56C604.975,135.568,611.529,129.543,610.688,119.877Z" transform="translate(-583.897 -102.957)" fill="#455a64"/>
        <g id="Grupo_59169" data-name="Grupo 59169" transform="translate(18.525 13.529)">
          <path id="Trazado_107194" data-name="Trazado 107194" d="M593.445,118.588l1.225-2.214,4.911,3.31-1.943,2.61A3.274,3.274,0,0,1,595,122.4a3.352,3.352,0,0,1-1.781-2A2.356,2.356,0,0,1,593.445,118.588Z" transform="translate(-593.124 -116.374)" fill="#ffa8a7"/>
          <path id="Trazado_107195" data-name="Trazado 107195" d="M594.123,116.528a4.74,4.74,0,0,0,3.417,4.391l1.034-1.389Z" transform="translate(-592.118 -116.219)" opacity="0.2"/>
        </g>
        <g id="Grupo_59172" data-name="Grupo 59172" transform="translate(17.357)">
          <g id="Grupo_59171" data-name="Grupo 59171">
            <path id="Trazado_107196" data-name="Trazado 107196" d="M593.142,119.176a8.959,8.959,0,0,1-.157-3.224,3.053,3.053,0,0,1,1.927-2.409,3.655,3.655,0,0,1,2.194-1.921,10.043,10.043,0,0,1,2.879-.347,13.685,13.685,0,0,1,3.206.179,4.721,4.721,0,0,1,2.746,1.556,4.572,4.572,0,0,1,.8,3.517,10.342,10.342,0,0,1-1.331,3.443c-2.062.147-4.16.381-6.219.528a16.937,16.937,0,0,1-3.158.028A5.894,5.894,0,0,1,593.142,119.176Z" transform="translate(-592.19 -107.999)" fill="#263238"/>
            <path id="Trazado_107197" data-name="Trazado 107197" d="M606.107,112.788a17.609,17.609,0,0,1-1.012,9.408,3.354,3.354,0,0,1-1.277,1.773,3.538,3.538,0,0,1-2.283.189,11.634,11.634,0,0,1-3.6-1.014,4.924,4.924,0,0,1-2.5-2.688,2.158,2.158,0,0,1-2.184-.857,4.107,4.107,0,0,1-.709-2.385,1.471,1.471,0,0,1,.584-1.415,1.36,1.36,0,0,1,1.383.343,4.115,4.115,0,0,1,1.347,2.02c.357-1.315.911-2.584,1.269-3.9a2.215,2.215,0,0,1,.765-1.369,2.472,2.472,0,0,1,1.907.006A12.526,12.526,0,0,0,606.107,112.788Z" transform="translate(-592.543 -106.55)" fill="#ffa8a7"/>
            <path id="Trazado_107198" data-name="Trazado 107198" d="M597.537,114.73l1.538,2.589-1.833.344Z" transform="translate(-587.808 -104.501)" fill="#f28f8f"/>
            <path id="Trazado_107199" data-name="Trazado 107199" d="M596.38,116.636l1.393.677a.912.912,0,0,1-1.056.3A.823.823,0,0,1,596.38,116.636Z" transform="translate(-588.715 -102.581)" fill="#f28f8f"/>
            <path id="Trazado_107200" data-name="Trazado 107200" d="M596.38,116.636l1.393.677a.912.912,0,0,1-1.056.3A.823.823,0,0,1,596.38,116.636Z" transform="translate(-588.715 -102.581)" opacity="0.3"/>
            <path id="Trazado_107201" data-name="Trazado 107201" d="M597.2,117.536a.838.838,0,0,1-.484-.044.746.746,0,0,1-.373-.735.864.864,0,0,1,.55.191A.875.875,0,0,1,597.2,117.536Z" transform="translate(-588.714 -102.459)" fill="#f28f8f"/>
            <path id="Trazado_107202" data-name="Trazado 107202" d="M596.067,115.018a.527.527,0,1,0,.578-.47A.529.529,0,0,0,596.067,115.018Z" transform="translate(-588.994 -104.687)" fill="#263238"/>
            <path id="Trazado_107203" data-name="Trazado 107203" d="M598.267,115.156a.527.527,0,1,0,.576-.472A.527.527,0,0,0,598.267,115.156Z" transform="translate(-586.777 -104.55)" fill="#263238"/>
            <path id="Trazado_107204" data-name="Trazado 107204" d="M598.625,113.954c.359.305.721.612,1.08.919a.75.75,0,0,0-.145-.845A.886.886,0,0,0,598.625,113.954Z" transform="translate(-586.414 -105.382)" fill="#263238"/>
            <path id="Trazado_107205" data-name="Trazado 107205" d="M597.117,113.97l-1.243.687a.746.746,0,0,1,.309-.8A.887.887,0,0,1,597.117,113.97Z" transform="translate(-589.212 -105.47)" fill="#263238"/>
            <g id="Grupo_59170" data-name="Grupo 59170" transform="translate(0.936)">
              <path id="Trazado_107206" data-name="Trazado 107206" d="M606.62,116.939a43.174,43.174,0,0,1-13.611.01c.213-5.513,2.688-7.314,6.964-7.314S606.653,111.906,606.62,116.939Z" transform="translate(-593.009 -109.635)" fill="#455a64"/>
              <path id="Trazado_107207" data-name="Trazado 107207" d="M604.769,116.1a8.474,8.474,0,0,0-1.209-4.9l-1.789-.5a5.915,5.915,0,0,0-2.578-.137l-1.706.285a2.72,2.72,0,0,0-2.25,2.367l-.39,3.323h0A43.3,43.3,0,0,0,604.769,116.1Z" transform="translate(-591.157 -108.793)" fill="#455a64"/>
              <path id="Trazado_107208" data-name="Trazado 107208" d="M604.769,116.1a8.474,8.474,0,0,0-1.209-4.9l-1.789-.5a5.915,5.915,0,0,0-2.578-.137l-1.706.285a2.72,2.72,0,0,0-2.25,2.367l-.39,3.323h0A43.3,43.3,0,0,0,604.769,116.1Z" transform="translate(-591.157 -108.793)" fill="#fff" opacity="0.29"/>
              <path id="Trazado_107209" data-name="Trazado 107209" d="M605.3,110.963h-.791c-.255,0-.508.012-.761.03a10.494,10.494,0,0,0-6.244,2.652l-2.662,2.387a43.3,43.3,0,0,0,9.922-.432l1.732-2.092A1.554,1.554,0,0,0,605.3,110.963Z" transform="translate(-591.157 -108.297)" fill="#455a64"/>
              <path id="Trazado_107210" data-name="Trazado 107210" d="M605.3,110.963h-.791c-.255,0-.508.012-.761.03a10.494,10.494,0,0,0-6.244,2.652l-2.662,2.387a43.3,43.3,0,0,0,9.922-.432l1.732-2.092A1.554,1.554,0,0,0,605.3,110.963Z" transform="translate(-591.157 -108.297)" opacity="0.2"/>
            </g>
          </g>
        </g>
        <g id="Grupo_59179" data-name="Grupo 59179" transform="translate(21.868 25.082)">
          <g id="Grupo_59173" data-name="Grupo 59173" transform="translate(0.035)">
            <path id="Trazado_107211" data-name="Trazado 107211" d="M619.032,129.145l-12.073,7.016-12.152-7.016,12.073-7.016Z" transform="translate(-594.807 -122.129)" fill="#bb83ff"/>
          </g>
          <g id="Grupo_59174" data-name="Grupo 59174" transform="translate(0.035)" opacity="0.3">
            <path id="Trazado_107212" data-name="Trazado 107212" d="M619.032,129.145l-12.073,7.016-12.152-7.016,12.073-7.016Z" transform="translate(-594.807 -122.129)" fill="#fff"/>
          </g>
          <g id="Grupo_59175" data-name="Grupo 59175" transform="translate(12.152 7.016)">
            <path id="Trazado_107213" data-name="Trazado 107213" d="M612.95,125.623l-.035,12.282-12.073,7.016.035-12.282Z" transform="translate(-600.843 -125.623)" fill="#bb83ff"/>
          </g>
          <g id="Grupo_59176" data-name="Grupo 59176" transform="translate(12.152 7.016)" opacity="0.1">
            <path id="Trazado_107214" data-name="Trazado 107214" d="M612.95,125.623l-.035,12.282-12.073,7.016.035-12.282Z" transform="translate(-600.843 -125.623)" fill="#fff"/>
          </g>
          <g id="Grupo_59177" data-name="Grupo 59177" transform="translate(0 7.016)">
            <path id="Trazado_107215" data-name="Trazado 107215" d="M606.976,132.639l-.035,12.282-12.152-7.016.035-12.282Z" transform="translate(-594.79 -125.623)" fill="#bb83ff"/>
          </g>
          <g id="Grupo_59178" data-name="Grupo 59178" transform="translate(4.322 2.376)">
            <path id="Trazado_107216" data-name="Trazado 107216" d="M602.964,127.034l4.086-2.5-2.086-1.2-4.1,2.447Z" transform="translate(-592.996 -123.293)" fill="#e0e0e0"/>
            <path id="Trazado_107217" data-name="Trazado 107217" d="M606.1,127.053,604,125.8l-4.168-2.486-2.078,1.208,4.143,2.533,2.1,1.286,5.559,3.4,2.229-1.3Z" transform="translate(-596.131 -123.312)" fill="#fff"/>
            <path id="Trazado_107218" data-name="Trazado 107218" d="M602.677,125.176l-5.708,3.4,2.236,1.291,5.576-3.409Z" transform="translate(-596.917 -121.435)" fill="#e0e0e0"/>
            <path id="Trazado_107219" data-name="Trazado 107219" d="M605.857,126.864l-2.229,1.3.018.011.035,12.22,2.253-1.309-.035-12.191Z" transform="translate(-590.206 -119.734)" fill="#e0e0e0"/>
            <path id="Trazado_107220" data-name="Trazado 107220" d="M599.231,128.162l-2.236-1.291-.017.01-.035,12.262,2.253,1.3.035-12.282Z" transform="translate(-596.943 -119.727)" fill="#fff"/>
            <path id="Trazado_107221" data-name="Trazado 107221" d="M599.231,128.162l-2.236-1.291-.017.01-.035,12.262,2.253,1.3.035-12.282Z" transform="translate(-596.943 -119.727)" opacity="0.2"/>
          </g>
          <path id="Trazado_107222" data-name="Trazado 107222" d="M602.126,127.024,599.6,128.57l2.528,1.459,2.52-1.464Z" transform="translate(-589.945 -117.196)" fill="#fff"/>
        </g>
        <g id="Grupo_59180" data-name="Grupo 59180" transform="translate(10.125 17.596)">
          <path id="Trazado_107223" data-name="Trazado 107223" d="M588.966,135.29s.94-13.718,1.136-14.563a3.021,3.021,0,0,1,5.934.289c.185,1.353-1.975,14.5-1.975,14.5l7.823,8.277,1.586,1.453,1.409-.287,3.22.305a.393.393,0,0,1,.349.313h0a.393.393,0,0,1-.291.464l-2.126.518,1.534,1.05a1.886,1.886,0,0,0,.715.3l2.407.454a.444.444,0,0,1,.361.464h0a.451.451,0,0,1-.287.389l-1.293.482a6.235,6.235,0,0,1-5.166-.367l-2.8-1.532a7.293,7.293,0,0,1-1.148-.777l-9.992-8.273A3.9,3.9,0,0,1,588.966,135.29Z" transform="translate(-588.94 -118.4)" fill="#ffa8a7"/>
        </g>
        <g id="Grupo_59181" data-name="Grupo 59181" transform="translate(9.339 17.377)">
          <path id="Trazado_107224" data-name="Trazado 107224" d="M596.208,130.142l1-7.438a3.894,3.894,0,1,0-7.729-.944l-.833,7.6a9.33,9.33,0,0,0,7.563.781Z" transform="translate(-588.452 -118.291)" fill="#455a64"/>
          <path id="Trazado_107225" data-name="Trazado 107225" d="M596.208,130.142l1-7.438a3.894,3.894,0,1,0-7.729-.944l-.833,7.6a9.33,9.33,0,0,0,7.563.781Z" transform="translate(-588.452 -118.291)" fill="#fff" opacity="0.2"/>
          <path id="Trazado_107226" data-name="Trazado 107226" d="M592.285,124.983a9.444,9.444,0,0,1-3.543-1.178l-.193,1.751c3.363,2.586,7.492.992,7.492.992l.263-1.961A9.437,9.437,0,0,1,592.285,124.983Z" transform="translate(-588.549 -112.735)" fill="#455a64"/>
          <path id="Trazado_107227" data-name="Trazado 107227" d="M592.285,124.983a9.444,9.444,0,0,1-3.543-1.178l-.193,1.751c3.363,2.586,7.492.992,7.492.992l.263-1.961A9.437,9.437,0,0,1,592.285,124.983Z" transform="translate(-588.549 -112.735)" fill="#fff" opacity="0.5"/>
        </g>
      </g>
    </g>
    <g id="Grupo_59191" data-name="Grupo 59191" transform="translate(702.832 165.688)">
      <g id="Grupo_59187" data-name="Grupo 59187" transform="translate(0 15.096)">
        <path id="Trazado_107228" data-name="Trazado 107228" d="M634.025,136.87l5.252.153,5.252-.153c.227,3.545-.466,7.161-1.421,8.926h0a2.386,2.386,0,0,1-1.04,1.058,6.159,6.159,0,0,1-5.593,0,2.315,2.315,0,0,1-1.038-1.086A18.851,18.851,0,0,1,634.025,136.87Z" transform="translate(-633.982 -133.828)" fill="#fff"/>
        <g id="Grupo_59184" data-name="Grupo 59184" transform="translate(0.043)">
          <path id="Trazado_107229" data-name="Trazado 107229" d="M635.553,136.245c-2.058,1.188-2.068,3.116-.024,4.3a8.183,8.183,0,0,0,7.428,0c2.058-1.186,2.068-3.114.024-4.3A8.2,8.2,0,0,0,635.553,136.245Z" transform="translate(-634.003 -135.355)" fill="#eaeaea"/>
        </g>
        <g id="Grupo_59185" data-name="Grupo 59185" transform="translate(1.198 0.668)">
          <path id="Trazado_107230" data-name="Trazado 107230" d="M635.786,136.383c-1.6.927-1.612,2.429-.018,3.357a6.392,6.392,0,0,0,5.794,0c1.606-.927,1.614-2.429.02-3.357A6.384,6.384,0,0,0,635.786,136.383Z" transform="translate(-634.578 -135.688)" fill="#e0e0e0"/>
        </g>
        <g id="Grupo_59186" data-name="Grupo 59186" transform="translate(1.198 0.668)" opacity="0.15">
          <path id="Trazado_107231" data-name="Trazado 107231" d="M635.786,136.383c-1.6.927-1.612,2.429-.018,3.357a6.392,6.392,0,0,0,5.794,0c1.606-.927,1.614-2.429.02-3.357A6.384,6.384,0,0,0,635.786,136.383Z" transform="translate(-634.578 -135.688)"/>
        </g>
      </g>
      <g id="Grupo_59190" data-name="Grupo 59190" transform="translate(1.197)">
        <path id="Trazado_107232" data-name="Trazado 107232" d="M641.354,135.224c.855-1.062,1.847-2.014,2.63-3.128a3.314,3.314,0,0,0,.757-2.6,2.325,2.325,0,0,0-1.839-1.618,3.532,3.532,0,0,0-2.469.552,7.636,7.636,0,0,0-1.865,1.775,18.542,18.542,0,0,0-3.9,13.234,2.785,2.785,0,0,0,.488,1.522,1.523,1.523,0,0,0,1.57.48c1.432-.426,1.241-2.357,1.476-3.5a15.881,15.881,0,0,1,1.642-4.461A15.562,15.562,0,0,1,641.354,135.224Z" transform="translate(-634.578 -127.835)" fill="#31d9e7"/>
        <path id="Trazado_107233" data-name="Trazado 107233" d="M641.354,135.224c.855-1.062,1.847-2.014,2.63-3.128a3.314,3.314,0,0,0,.757-2.6,2.325,2.325,0,0,0-1.839-1.618,3.532,3.532,0,0,0-2.469.552,7.636,7.636,0,0,0-1.865,1.775,18.542,18.542,0,0,0-3.9,13.234,2.785,2.785,0,0,0,.488,1.522,1.523,1.523,0,0,0,1.57.48c1.432-.426,1.241-2.357,1.476-3.5a15.881,15.881,0,0,1,1.642-4.461A15.562,15.562,0,0,1,641.354,135.224Z" transform="translate(-634.578 -127.835)" fill="#fff" opacity="0.2"/>
        <g id="Grupo_59188" data-name="Grupo 59188" transform="translate(1.906 1.246)">
          <path id="Trazado_107234" data-name="Trazado 107234" d="M635.678,143.378a.124.124,0,0,0,.1-.116c.1-2.3.847-10.136,6.25-14.583a.126.126,0,0,0-.161-.195c-5.481,4.515-6.238,12.443-6.34,14.766a.129.129,0,0,0,.12.133A.158.158,0,0,0,635.678,143.378Z" transform="translate(-635.527 -128.456)" fill="#f0f0f0"/>
        </g>
        <g id="Grupo_59189" data-name="Grupo 59189" transform="translate(1.09 7.445)">
          <path id="Trazado_107235" data-name="Trazado 107235" d="M635.3,140.516a3.848,3.848,0,0,0,1.755,2.433,4.93,4.93,0,0,0,2.654.444,11.587,11.587,0,0,0,2.7-.638c.432-.147.913-.343.959-.879a.956.956,0,0,0-.305-.755,3,3,0,0,0-.281-.241.277.277,0,0,1,.149-.5,6.554,6.554,0,0,0,.767-.094,3.38,3.38,0,0,0,1.614-.731,2.672,2.672,0,0,0,.743-1.1,1.035,1.035,0,0,0-.1-1.082,1.205,1.205,0,0,0-.6-.261c-.193-.04-.385-.076-.578-.106a.256.256,0,0,1-.058-.49l.813-.339a1.534,1.534,0,0,0,.62-.383,1.353,1.353,0,0,0,.157-1.122c-.1-.51-.277-1-.4-1.508a3.245,3.245,0,0,1-.052-1.544,13.033,13.033,0,0,0-4.565.305,3.292,3.292,0,0,0-1.245.546,1.824,1.824,0,0,0-.586,1.676.118.118,0,0,1-.223.062l-.52-.96a.619.619,0,0,0-.809-.259,3.733,3.733,0,0,0-1.191.938,2.066,2.066,0,0,0-.51,1.524,13.175,13.175,0,0,0,.379,2.236.207.207,0,0,1-.323.219l-.026-.018a.7.7,0,0,0-.49-.143c-.462.058-.578.524-.608.921A7.7,7.7,0,0,0,635.3,140.516Z" transform="translate(-635.121 -131.544)" fill="#31d9e7"/>
          <path id="Trazado_107236" data-name="Trazado 107236" d="M635.3,140.516a3.848,3.848,0,0,0,1.755,2.433,4.93,4.93,0,0,0,2.654.444,11.587,11.587,0,0,0,2.7-.638c.432-.147.913-.343.959-.879a.956.956,0,0,0-.305-.755,3,3,0,0,0-.281-.241.277.277,0,0,1,.149-.5,6.554,6.554,0,0,0,.767-.094,3.38,3.38,0,0,0,1.614-.731,2.672,2.672,0,0,0,.743-1.1,1.035,1.035,0,0,0-.1-1.082,1.205,1.205,0,0,0-.6-.261c-.193-.04-.385-.076-.578-.106a.256.256,0,0,1-.058-.49l.813-.339a1.534,1.534,0,0,0,.62-.383,1.353,1.353,0,0,0,.157-1.122c-.1-.51-.277-1-.4-1.508a3.245,3.245,0,0,1-.052-1.544,13.033,13.033,0,0,0-4.565.305,3.292,3.292,0,0,0-1.245.546,1.824,1.824,0,0,0-.586,1.676.118.118,0,0,1-.223.062l-.52-.96a.619.619,0,0,0-.809-.259,3.733,3.733,0,0,0-1.191.938,2.066,2.066,0,0,0-.51,1.524,13.175,13.175,0,0,0,.379,2.236.207.207,0,0,1-.323.219l-.026-.018a.7.7,0,0,0-.49-.143c-.462.058-.578.524-.608.921A7.7,7.7,0,0,0,635.3,140.516Z" transform="translate(-635.121 -131.544)" opacity="0.2"/>
          <path id="Trazado_107237" data-name="Trazado 107237" d="M635.3,140.516a3.848,3.848,0,0,0,1.755,2.433,4.93,4.93,0,0,0,2.654.444,11.587,11.587,0,0,0,2.7-.638c.432-.147.913-.343.959-.879a.956.956,0,0,0-.305-.755,3,3,0,0,0-.281-.241.277.277,0,0,1,.149-.5,6.554,6.554,0,0,0,.767-.094,3.38,3.38,0,0,0,1.614-.731,2.672,2.672,0,0,0,.743-1.1,1.035,1.035,0,0,0-.1-1.082,1.205,1.205,0,0,0-.6-.261c-.193-.04-.385-.076-.578-.106a.256.256,0,0,1-.058-.49l.813-.339a1.534,1.534,0,0,0,.62-.383,1.353,1.353,0,0,0,.157-1.122c-.1-.51-.277-1-.4-1.508a3.245,3.245,0,0,1-.052-1.544,13.033,13.033,0,0,0-4.565.305,3.292,3.292,0,0,0-1.245.546,1.824,1.824,0,0,0-.586,1.676.118.118,0,0,1-.223.062l-.52-.96a.619.619,0,0,0-.809-.259,3.733,3.733,0,0,0-1.191.938,2.066,2.066,0,0,0-.51,1.524,13.175,13.175,0,0,0,.379,2.236.207.207,0,0,1-.323.219l-.026-.018a.7.7,0,0,0-.49-.143c-.462.058-.578.524-.608.921A7.7,7.7,0,0,0,635.3,140.516Z" transform="translate(-635.121 -131.544)" fill="#fff" opacity="0.2"/>
          <path id="Trazado_107238" data-name="Trazado 107238" d="M636.415,142.468a18.528,18.528,0,0,1,1.227-3.557.123.123,0,0,1,.044-.092c.028-.062.056-.124.086-.187a11.513,11.513,0,0,0-1.217-4.073.125.125,0,0,1,.217-.124,11.667,11.667,0,0,1,1.2,3.786,16.668,16.668,0,0,1,5.256-6.3.126.126,0,0,1,.175.032.122.122,0,0,1-.032.173,16.579,16.579,0,0,0-5.316,6.5,7.666,7.666,0,0,1,4.35-.588.123.123,0,0,1,.1.147.119.119,0,0,1-.1.1.09.09,0,0,1-.046,0,7.447,7.447,0,0,0-4.479.717,18.241,18.241,0,0,0-1.219,3.523.127.127,0,0,1-.1.1.193.193,0,0,1-.048,0A.126.126,0,0,1,636.415,142.468Z" transform="translate(-633.819 -131.189)" fill="#f0f0f0"/>
        </g>
      </g>
    </g>
    <g id="Grupo_59199" data-name="Grupo 59199" transform="translate(569.07 169.054)">
      <g id="Grupo_59195" data-name="Grupo 59195" transform="translate(6.959 22.04)">
        <path id="Trazado_107239" data-name="Trazado 107239" d="M582.822,142.215l-5.976.175-5.977-.175c-.257,4.037.53,8.149,1.618,10.158h0a2.725,2.725,0,0,0,1.183,1.2,7.017,7.017,0,0,0,6.366,0,2.656,2.656,0,0,0,1.182-1.237C582.3,150.322,583.079,146.232,582.822,142.215Z" transform="translate(-570.82 -138.753)" fill="#fff"/>
        <g id="Grupo_59192" data-name="Grupo 59192" transform="translate(0.049)">
          <path id="Trazado_107240" data-name="Trazado 107240" d="M581.032,141.505c2.343,1.351,2.355,3.543.028,4.894a9.306,9.306,0,0,1-8.452,0c-2.341-1.351-2.355-3.543-.028-4.894A9.306,9.306,0,0,1,581.032,141.505Z" transform="translate(-570.844 -140.491)" fill="#eaeaea"/>
        </g>
        <g id="Grupo_59193" data-name="Grupo 59193" transform="translate(1.362 0.762)">
          <path id="Trazado_107241" data-name="Trazado 107241" d="M579.448,141.661c1.827,1.054,1.837,2.764.022,3.818a7.26,7.26,0,0,1-6.595,0c-1.827-1.054-1.837-2.764-.022-3.818A7.273,7.273,0,0,1,579.448,141.661Z" transform="translate(-571.498 -140.87)" fill="#e0e0e0"/>
        </g>
        <g id="Grupo_59194" data-name="Grupo 59194" transform="translate(1.362 0.762)" opacity="0.15">
          <path id="Trazado_107242" data-name="Trazado 107242" d="M579.448,141.661c1.827,1.054,1.837,2.764.022,3.818a7.26,7.26,0,0,1-6.595,0c-1.827-1.054-1.837-2.764-.022-3.818A7.273,7.273,0,0,1,579.448,141.661Z" transform="translate(-571.498 -140.87)"/>
        </g>
      </g>
      <g id="Grupo_59196" data-name="Grupo 59196" transform="translate(10.647)">
        <path id="Trazado_107243" data-name="Trazado 107243" d="M584.822,129.512c-13.469,4.409-13.591,13.421-10.554,19.837.765,1.3,3.082,2,5.1-5.985l-3.537.454,4.122-2.09,1.072-3.2-3.437.255,4.362-1.835A64.606,64.606,0,0,1,584.822,129.512Z" transform="translate(-572.656 -129.512)" fill="#bb83ff"/>
        <path id="Trazado_107244" data-name="Trazado 107244" d="M584.822,129.512c-13.469,4.409-13.591,13.421-10.554,19.837.765,1.3,3.082,2,5.1-5.985l-3.537.454,4.122-2.09,1.072-3.2-3.437.255,4.362-1.835A64.606,64.606,0,0,1,584.822,129.512Z" transform="translate(-572.656 -129.512)" opacity="0.2"/>
        <path id="Trazado_107245" data-name="Trazado 107245" d="M584.822,129.512c-13.469,4.409-13.591,13.421-10.554,19.837.765,1.3,3.082,2,5.1-5.985l-3.537.454,4.122-2.09,1.072-3.2-3.437.255,4.362-1.835A64.606,64.606,0,0,1,584.822,129.512Z" transform="translate(-572.656 -129.512)" fill="#fff" opacity="0.2"/>
        <path id="Trazado_107246" data-name="Trazado 107246" d="M580.194,130.634c-7.1,5.39-7.743,11.572-5.738,18.024C573.748,142.977,572.981,137.231,580.194,130.634Z" transform="translate(-571.839 -128.382)" fill="#fff"/>
      </g>
      <g id="Grupo_59197" data-name="Grupo 59197" transform="translate(0 9.153)">
        <path id="Trazado_107247" data-name="Trazado 107247" d="M567.353,134.071c13.276,1.869,14.886,10.241,13.124,16.721-.5,1.337-2.54,2.371-5.744-4.726l3.371-.165-4.188-1.263-1.528-2.8,3.244-.333-4.368-.984A61.326,61.326,0,0,0,567.353,134.071Z" transform="translate(-567.353 -134.071)" fill="#bb83ff"/>
        <path id="Trazado_107248" data-name="Trazado 107248" d="M567.353,134.071c13.276,1.869,14.886,10.241,13.124,16.721-.5,1.337-2.54,2.371-5.744-4.726l3.371-.165-4.188-1.263-1.528-2.8,3.244-.333-4.368-.984A61.326,61.326,0,0,0,567.353,134.071Z" transform="translate(-567.353 -134.071)" fill="#fff" opacity="0.2"/>
        <path id="Trazado_107249" data-name="Trazado 107249" d="M567.353,134.071c13.276,1.869,14.886,10.241,13.124,16.721-.5,1.337-2.54,2.371-5.744-4.726l3.371-.165-4.188-1.263-1.528-2.8,3.244-.333-4.368-.984A61.326,61.326,0,0,0,567.353,134.071Z" transform="translate(-567.353 -134.071)" opacity="0.1"/>
        <path id="Trazado_107250" data-name="Trazado 107250" d="M569.306,134.8c7.51,3.841,9.135,9.49,8.337,15.832C577.362,145.224,577.121,139.746,569.306,134.8Z" transform="translate(-565.385 -133.335)" fill="#fff"/>
      </g>
      <g id="Grupo_59198" data-name="Grupo 59198" transform="translate(12.838 12.288)">
        <path id="Trazado_107251" data-name="Trazado 107251" d="M587.607,135.633c-12.174.2-14.563,7.565-13.7,13.6.3,1.261,2.024,2.421,5.705-3.618l-3.019-.526,3.915-.667,1.692-2.357-2.887-.663,4.047-.4A55.561,55.561,0,0,1,587.607,135.633Z" transform="translate(-573.748 -135.633)" fill="#bb83ff"/>
        <path id="Trazado_107252" data-name="Trazado 107252" d="M583.47,136.073c-7.2,2.62-9.3,7.53-9.287,13.336C575.042,144.565,575.871,139.655,583.47,136.073Z" transform="translate(-573.309 -135.19)" fill="#fff"/>
        <path id="Trazado_107253" data-name="Trazado 107253" d="M587.607,135.633c-12.174.2-14.563,7.565-13.7,13.6.3,1.261,2.024,2.421,5.705-3.618l-3.019-.526,3.915-.667,1.692-2.357-2.887-.663,4.047-.4A55.561,55.561,0,0,1,587.607,135.633Z" transform="translate(-573.748 -135.633)" fill="#fff" opacity="0.2"/>
      </g>
    </g>
    <g id="Grupo_59218" data-name="Grupo 59218" transform="translate(647.264 138.141)">
      <g id="Grupo_59201" data-name="Grupo 59201" transform="translate(5.308 19.758)">
        <path id="Trazado_107254" data-name="Trazado 107254" d="M622.362,135.233c-3.2,2.22-6.8,3.756-9.466,6.731-4.987,5.559-5.1,14.5-1.187,20.861s11.2,10.176,18.614,11.052a29.935,29.935,0,0,0,22.049-6.143,26.7,26.7,0,0,0,9.986-20.419A24.128,24.128,0,0,0,651.781,127.4c-5.989-3.9-14.589-5.017-20.6-.55-3.036,2.259-5.061,5.593-8.091,7.858Q622.732,134.978,622.362,135.233Z" transform="translate(-608.946 -123.955)" fill="#31d9e7"/>
        <path id="Trazado_107255" data-name="Trazado 107255" d="M622.362,135.233c-3.2,2.22-6.8,3.756-9.466,6.731-4.987,5.559-5.1,14.5-1.187,20.861s11.2,10.176,18.614,11.052a29.935,29.935,0,0,0,22.049-6.143,26.7,26.7,0,0,0,9.986-20.419A24.128,24.128,0,0,0,651.781,127.4c-5.989-3.9-14.589-5.017-20.6-.55-3.036,2.259-5.061,5.593-8.091,7.858Q622.732,134.978,622.362,135.233Z" transform="translate(-608.946 -123.955)" opacity="0.2"/>
        <path id="Trazado_107256" data-name="Trazado 107256" d="M622.362,135.233c-3.2,2.22-6.8,3.756-9.466,6.731-4.987,5.559-5.1,14.5-1.187,20.861s11.2,10.176,18.614,11.052a29.935,29.935,0,0,0,22.049-6.143,26.7,26.7,0,0,0,9.986-20.419A24.128,24.128,0,0,0,651.781,127.4c-5.989-3.9-14.589-5.017-20.6-.55-3.036,2.259-5.061,5.593-8.091,7.858Q622.732,134.978,622.362,135.233Z" transform="translate(-608.946 -123.955)" fill="#fff" opacity="0.1"/>
        <path id="Trazado_107257" data-name="Trazado 107257" d="M621.147,164.016l.022-.159a8.416,8.416,0,0,1,6.82-7.01,26.6,26.6,0,0,0,8.733-3.345c1.907-1.154,3.712-2.57,5.852-3.194a9.543,9.543,0,0,1,6.308.365,7.316,7.316,0,0,0-7.35-1.865,24.151,24.151,0,0,0,3.8-8.49,11.516,11.516,0,0,0-1.676-8.938,8.994,8.994,0,0,0-13.886-.743c-1.829,2-2.861,4.818-4.063,7.247a16.256,16.256,0,0,1-3.178,4.864c-2.146,2.008-5.232,2.73-7.458,4.652-2.523,2.178-3.612,5.659-3.622,8.992a26.444,26.444,0,0,0,.976,6.649,25.259,25.259,0,0,0,9.126,5.581A9.882,9.882,0,0,1,621.147,164.016Z" transform="translate(-606.43 -120.169)" opacity="0.1"/>
        <g id="Grupo_59200" data-name="Grupo 59200" transform="translate(20.93 0.086)">
          <path id="Trazado_107258" data-name="Trazado 107258" d="M647.677,146.2A22.859,22.859,0,0,0,628.171,124a16.242,16.242,0,0,0-2.2.369,22.3,22.3,0,0,1,21.108,21.842c.142,7.292-3.425,14.722-9.542,19.879a35.757,35.757,0,0,1-18.161,7.687c.148.02.3.04.448.058.628.074,1.261.126,1.893.161a35.67,35.67,0,0,0,16.209-7.444C644.178,161.277,647.823,153.668,647.677,146.2Z" transform="translate(-619.372 -123.998)" fill="#fff"/>
        </g>
      </g>
      <g id="Grupo_59217" data-name="Grupo 59217">
        <g id="Grupo_59204" data-name="Grupo 59204" transform="translate(0 37.097)">
          <g id="Grupo_59202" data-name="Grupo 59202" transform="translate(9.581 25.057)">
            <path id="Trazado_107259" data-name="Trazado 107259" d="M614.871,150.253l.8,1.588a4.374,4.374,0,0,0,1.339-1.893c-.367-1.3-.8-2.614-1.006-3.254a17.06,17.06,0,0,1-.976,2.532A4.358,4.358,0,0,0,614.871,150.253Z" transform="translate(-607.25 -143.44)" fill="#37474f"/>
            <path id="Trazado_107260" data-name="Trazado 107260" d="M614.912,150.093l.763-.038-.8-1.588C614.852,149,614.9,149.549,614.912,150.093Z" transform="translate(-607.253 -141.653)" fill="#263238"/>
            <path id="Trazado_107261" data-name="Trazado 107261" d="M619.316,146.314a7.2,7.2,0,0,0-.948-1.106,3.865,3.865,0,0,1-.016,2.12c-.237.921-.669,1.785-.885,2.71a17.6,17.6,0,0,1-.678,3.393,3.642,3.642,0,0,1-2.544,2.03,1.606,1.606,0,0,1-1.211-.145.864.864,0,0,1-.331-.452,8,8,0,0,1-.869,1.417c-.377.488-.847,1.024-.745,1.632a1.311,1.311,0,0,0,1.064.972,3.409,3.409,0,0,0,1.514-.124,9.387,9.387,0,0,0,3.027-1.235,4.521,4.521,0,0,0,1.921-2.576,5.741,5.741,0,0,0,.119-1.574c-.016-.544-.06-1.09-.038-1.626a4.358,4.358,0,0,1,.159-1.028,17.06,17.06,0,0,0,.976-2.532c.006-.048.016-.1.018-.145A2.906,2.906,0,0,0,619.316,146.314Z" transform="translate(-611.075 -144.937)" fill="#455a64"/>
            <path id="Trazado_107262" data-name="Trazado 107262" d="M619.316,146.314a7.2,7.2,0,0,0-.948-1.106,3.865,3.865,0,0,1-.016,2.12c-.237.921-.669,1.785-.885,2.71a17.6,17.6,0,0,1-.678,3.393,3.642,3.642,0,0,1-2.544,2.03,1.606,1.606,0,0,1-1.211-.145.864.864,0,0,1-.331-.452,8,8,0,0,1-.869,1.417c-.377.488-.847,1.024-.745,1.632a1.311,1.311,0,0,0,1.064.972,3.409,3.409,0,0,0,1.514-.124,9.387,9.387,0,0,0,3.027-1.235,4.521,4.521,0,0,0,1.921-2.576,5.741,5.741,0,0,0,.119-1.574c-.016-.544-.06-1.09-.038-1.626a4.358,4.358,0,0,1,.159-1.028,17.06,17.06,0,0,0,.976-2.532c.006-.048.016-.1.018-.145A2.906,2.906,0,0,0,619.316,146.314Z" transform="translate(-611.075 -144.937)" opacity="0.1"/>
            <path id="Trazado_107263" data-name="Trazado 107263" d="M613.428,155.6a3.642,3.642,0,0,0,2.544-2.03,17.6,17.6,0,0,0,.678-3.393c.217-.926.648-1.789.885-2.71a3.865,3.865,0,0,0,.016-2.12l-.275-.271a32.008,32.008,0,0,0-4.164,2.2,29.741,29.741,0,0,1-.3,4.766,11.288,11.288,0,0,1-.924,2.965.864.864,0,0,0,.331.452A1.606,1.606,0,0,0,613.428,155.6Z" transform="translate(-610.258 -145.073)" fill="#ab6160"/>
          </g>
          <path id="Trazado_107264" data-name="Trazado 107264" d="M610.963,148.221a31.763,31.763,0,0,1-1.235,4s4.732.193,4.836-.026l1.393-2.15Z" transform="translate(-602.851 -116.845)" fill="#c48281"/>
          <path id="Trazado_107265" data-name="Trazado 107265" d="M625,132.592l-12.073,6.727a5.983,5.983,0,0,0-2.971,6.318l2.343,12.62-1.921,6.107c1.658,2.222,5.465,2.337,5.465,2.337,2.122-4.26,3.68-6.069,4.886-9.636s2.01-6.031,2.01-6.031l10.028-2.74a11.88,11.88,0,0,0,8.689-10.108c.171-1.516.179-2.552.179-2.552Z" transform="translate(-602.72 -132.592)" fill="#455a64"/>
          <path id="Trazado_107266" data-name="Trazado 107266" d="M622.956,134.573a5.711,5.711,0,0,0,1.351,3.678L616.7,143a6.123,6.123,0,0,0-2.608,3.4l-3.015,9.859,2.72-10.981a4.983,4.983,0,0,1,2.214-3.037l6.956-4.278A4.067,4.067,0,0,1,622.956,134.573Z" transform="translate(-601.494 -130.596)" opacity="0.2"/>
          <g id="Grupo_59203" data-name="Grupo 59203" transform="translate(0 34.998)">
            <path id="Trazado_107267" data-name="Trazado 107267" d="M611.007,154.682l.11,1.775a4.363,4.363,0,0,0,1.975-1.215c.173-1.335.3-2.714.355-3.387-.452.777-1.315,1.245-1.893,1.943A4.312,4.312,0,0,0,611.007,154.682Z" transform="translate(-601.562 -148.181)" fill="#37474f"/>
            <path id="Trazado_107268" data-name="Trazado 107268" d="M610.705,154.773l.717.265-.11-1.775C611.078,153.747,610.9,154.267,610.705,154.773Z" transform="translate(-601.867 -146.762)" fill="#263238"/>
            <path id="Trazado_107269" data-name="Trazado 107269" d="M618.453,151.593a7.265,7.265,0,0,0-.437-1.391,3.838,3.838,0,0,1-.847,1.945c-.58.753-1.317,1.377-1.879,2.144a17.83,17.83,0,0,1-1.959,2.851,3.635,3.635,0,0,1-3.136.867,1.61,1.61,0,0,1-1.056-.61.876.876,0,0,1-.129-.544,8.11,8.11,0,0,1-1.355.962c-.54.3-1.181.608-1.325,1.209a1.309,1.309,0,0,0,.594,1.311,3.436,3.436,0,0,0,1.442.48,9.375,9.375,0,0,0,3.27.054,4.514,4.514,0,0,0,2.778-1.612,5.77,5.77,0,0,0,.727-1.4c.2-.506.373-1.026.606-1.51a4.312,4.312,0,0,1,.548-.883c.578-.7,1.441-1.166,1.893-1.943.024-.042.052-.082.074-.124A2.916,2.916,0,0,0,618.453,151.593Z" transform="translate(-606.303 -149.847)" fill="#455a64"/>
            <path id="Trazado_107270" data-name="Trazado 107270" d="M608.837,158.188a3.635,3.635,0,0,0,3.136-.867,17.83,17.83,0,0,0,1.959-2.851c.562-.767,1.3-1.391,1.879-2.144a3.838,3.838,0,0,0,.847-1.945l-.145-.355a31.741,31.741,0,0,0-4.692.381,29.572,29.572,0,0,1-2.154,4.264,11.192,11.192,0,0,1-2.016,2.363.876.876,0,0,0,.129.544A1.61,1.61,0,0,0,608.837,158.188Z" transform="translate(-604.945 -150.025)" fill="#c48281"/>
          </g>
        </g>
        <g id="Grupo_59216" data-name="Grupo 59216" transform="translate(11.844)">
          <path id="Trazado_107271" data-name="Trazado 107271" d="M631.936,133.377A19.2,19.2,0,0,0,632.271,119a7.781,7.781,0,0,0-2.666-3.812c-1.668-1.126-3.831-1.11-5.844-1.052a9.915,9.915,0,0,0-3.164.436,3.253,3.253,0,0,0-2.09,2.2,2.8,2.8,0,0,0-3,2.086,4.413,4.413,0,0,0,.929,3.76,10.993,10.993,0,0,0,3.094,2.522,3.436,3.436,0,0,0-1.443,1.939,3.059,3.059,0,0,0,.161,2.275,3.045,3.045,0,0,0-2.829,2.016,3.83,3.83,0,0,0,.682,3.435,5.577,5.577,0,0,0,3.034,1.9,10.487,10.487,0,0,0,3.62.195c1.249,1.211,3.541,1.184,5.109.432A9.086,9.086,0,0,0,631.936,133.377Z" transform="translate(-609.122 -114.114)" fill="#263238"/>
          <g id="Grupo_59208" data-name="Grupo 59208" transform="translate(0 16.224)">
            <g id="Grupo_59206" data-name="Grupo 59206" transform="translate(0.441)">
              <g id="Grupo_59205" data-name="Grupo 59205">
                <path id="Trazado_107272" data-name="Trazado 107272" d="M623.6,122.2l-.307,0c-2.058.024-4.661,1.423-5.932,5.015l-4.943,9.57,5.643,2.5,3.086-9.034Z" transform="translate(-612.422 -122.195)" fill="#c48281"/>
              </g>
              <path id="Trazado_107273" data-name="Trazado 107273" d="M619.135,127a12.727,12.727,0,0,0-.48,3.545,9.567,9.567,0,0,1-.749,3.7,3.394,3.394,0,0,0-4.065.149,3.135,3.135,0,0,0-.915,1.285l4.633,2.054,3.086-9.034,1.518-4.981A5.766,5.766,0,0,0,619.135,127Z" transform="translate(-611.915 -120.652)" fill="#ab6160"/>
            </g>
            <g id="Grupo_59207" data-name="Grupo 59207" transform="translate(0 13.265)">
              <path id="Trazado_107274" data-name="Trazado 107274" d="M618.337,130.9a3.369,3.369,0,0,0-2.552-2.064,3.6,3.6,0,0,0-3.142,1.289,2.489,2.489,0,0,0-.13,2.634,3.287,3.287,0,0,0,3.764,1.783A3.023,3.023,0,0,0,618.337,130.9Z" transform="translate(-612.202 -128.802)" fill="#c48281"/>
            </g>
          </g>
          <path id="Trazado_107275" data-name="Trazado 107275" d="M620.583,122.163c-2.178.347-3.529,5.854-4.236,7.944-.731,2.16.263,3.728,1.371,5.033h0a2.238,2.238,0,0,1,.51,1.731l-2.291,8.508c6.252,4.639,16.731,2.391,19.574.875a20.062,20.062,0,0,0-1.839-8.615,14.175,14.175,0,0,1-1.383-5.571l-.108-3.124.755-5.388-5.428-1.291-4.782-.215A19.16,19.16,0,0,0,620.583,122.163Z" transform="translate(-608.44 -106.116)" fill="#31d9e7"/>
          <path id="Trazado_107276" data-name="Trazado 107276" d="M620.583,122.163c-2.178.347-3.529,5.854-4.236,7.944-.731,2.16.263,3.728,1.371,5.033h0a2.238,2.238,0,0,1,.51,1.731l-2.291,8.508c6.252,4.639,16.731,2.391,19.574.875a20.062,20.062,0,0,0-1.839-8.615,14.175,14.175,0,0,1-1.383-5.571l-.108-3.124.755-5.388-5.428-1.291-4.782-.215A19.16,19.16,0,0,0,620.583,122.163Z" transform="translate(-608.44 -106.116)" opacity="0.4"/>
          <g id="Grupo_59212" data-name="Grupo 59212" transform="translate(2.408 17.324)">
            <g id="Grupo_59211" data-name="Grupo 59211" transform="translate(0 13.025)">
              <g id="Grupo_59210" data-name="Grupo 59210">
                <g id="Grupo_59209" data-name="Grupo 59209" style="isolation: isolate">
                  <path id="Trazado_107277" data-name="Trazado 107277" d="M623.087,139.508l0-.006v0l0-.01,0-.02-.006-.018-.006-.018-.008-.02-.01-.018-.01-.02h0l-3.694-6.876-.01-.018-.012-.022-.014-.02-.014-.022-.014-.022-.016-.022-.016-.022-.018-.022-.016-.02-.014-.018-.014-.016-.014-.016-.01-.012-.01-.01-.01-.012-.01-.01-.008-.01-.008-.008-.006-.008-.008-.008-.008-.008-.008-.008-.006-.006-.006-.008-.008-.006-.006-.008-.008-.006-.006-.008-.008-.006-.008-.008-.008-.008-.008-.008-.008-.006-.012-.012-.014-.014-.014-.012-.052-.048-.012-.01-.012-.01-.012-.01-.012-.01-.006-.006-.008-.006-.008-.006-.008-.006-.008-.006-.008-.006-.006-.006-.008-.006-.008-.006-.006-.006-.008-.006-.008-.006-.008-.006-.008-.006-.01-.008-.01-.006-.008-.006-.01-.008-.012-.008-.012-.01-.014-.008-.014-.01-.018-.012-.016-.012-.022-.012-.022-.014-.022-.014-.024-.014-.014-.01-4.246-2.387-.01-.006-.024-.014-.024-.012-.024-.01-.022-.012-.022-.01-.024-.008-.022-.008-.022-.008-.024-.006-.014,0h-.008l-.026,0a.154.154,0,0,0-.03,0,.1.1,0,0,0-.064.026l-.506.58.016,0c-.042.03-.044.1.016.213l3.694,6.874a2.38,2.38,0,0,0,.813.773l4.246,2.389c.219.122.351.125.37.036,0,.012,0,.03-.008.038h0l.506-.578.014-.028,0-.022Zm-9.574-9.687c.012,0,.016-.006.03,0h0l.016.006A.393.393,0,0,0,613.513,129.821Zm4.868,2.742c.038.034.08.064.116.1v0C618.461,132.628,618.419,132.6,618.381,132.564Zm.265.257c.016.02.036.038.052.056h0C618.682,132.859,618.662,132.841,618.646,132.821Zm3.931,7.271a.33.33,0,0,0-.044-.137.421.421,0,0,1,.046.124v0Z" transform="translate(-613.402 -129.231)" fill="#455a64"/>
                </g>
              </g>
              <path id="Trazado_107278" data-name="Trazado 107278" d="M620.358,137.867l0-.006v0l0-.01,0-.02-.006-.018-.006-.018-.008-.02-.01-.018-.01-.02h0l-3.694-6.876-.506.58,3.694,6.876a.421.421,0,0,1,.046.124v0a.1.1,0,0,1-.016.076h0l.506-.578.014-.028,0-.022Z" transform="translate(-610.673 -127.591)" fill="#fff" opacity="0.15"/>
              <path id="Trazado_107279" data-name="Trazado 107279" d="M619.327,132.481l-.012-.022-.014-.02-.014-.022-.014-.022-.016-.022-.016-.022-.018-.022-.016-.02-.014-.018-.014-.016-.014-.016-.01-.012-.01-.01-.01-.012-.01-.01-.008-.01-.008-.008-.006-.008-.008-.008-.008-.008-.008-.008-.006-.006-.006-.008-.008-.006-.006-.008-.008-.006-.006-.008-.008-.006-.008-.008-.008-.008-.008-.008-.008-.006-.012-.012-.014-.014-.014-.012-.052-.048-.012-.01-.012-.01-.012-.01-.012-.01-.006-.006-.008-.006-.008-.006-.008-.006-.008-.006-.008-.006-.006-.006-.008-.006-.008-.006-.006-.006-.008-.006-.008-.006-.008-.006-.008-.006-.01-.008-.01-.006-.008-.006-.01-.008-.012-.008-.012-.01-.014-.008-.014-.01-.018-.012-.016-.012-.022-.012-.022-.014-.022-.014-.024-.014-.014-.01-4.246-2.387-.01-.006-.024-.014-.024-.012-.024-.01-.022-.012-.022-.01-.024-.008-.022-.008-.022-.008-.024-.006-.014,0h-.008l-.026,0a.154.154,0,0,0-.03,0,.1.1,0,0,0-.064.026l-.506.58c.022-.026.064-.032.126-.02h0a.806.806,0,0,1,.235.1l4.244,2.387a2.087,2.087,0,0,1,.241.161h0c.08.062.159.13.233.2v0a2.452,2.452,0,0,1,.2.213h0a1.327,1.327,0,0,1,.141.2l.506-.58Z" transform="translate(-613.395 -129.231)" fill="#fff" opacity="0.2"/>
            </g>
            <path id="Trazado_107280" data-name="Trazado 107280" d="M635.763,124.66a3.321,3.321,0,0,0-2.584-1.917s-1.958,1.01-1.958,5.6l.129,11.473h0c-.281.114-.56.233-.841.349a34.258,34.258,0,0,1-7.38,2.23,7.3,7.3,0,0,0-4.653-1.58l.626,1.166c-1.187.761-3.867-.61-3.867-.61a4.709,4.709,0,0,0,2.323,4.288c1.438.877,15.151-.412,18.06-2.295,1.911-1.239,1.459-13.067,1.459-13.067A9.886,9.886,0,0,0,635.763,124.66Z" transform="translate(-611.575 -122.743)" fill="#c48281"/>
            <path id="Trazado_107281" data-name="Trazado 107281" d="M613.864,130.3a7.815,7.815,0,0,0-.157,1.371,5,5,0,0,0,1.323,2.933,1.506,1.506,0,0,0,.568.4.667.667,0,0,0,.661-.106.987.987,0,0,0,.231-.691,3.738,3.738,0,0,0-.06-1.11,1.564,1.564,0,0,0-.586-.921,3.377,3.377,0,0,0-.743-.329,1.825,1.825,0,0,1-.662-.478Z" transform="translate(-613.101 -115.132)" fill="#c48281"/>
          </g>
          <g id="Grupo_59215" data-name="Grupo 59215" transform="translate(9.337 3.813)">
            <g id="Grupo_59213" data-name="Grupo 59213" transform="translate(4.074 7.946)">
              <path id="Trazado_107282" data-name="Trazado 107282" d="M619.757,122.017v4.332a2.322,2.322,0,0,0-.871,1.433,1.5,1.5,0,0,0,.773,1.353,2.121,2.121,0,0,0,1.594.155,3.62,3.62,0,0,0,1.407-.817,5.843,5.843,0,0,0,1.879-4.112v-4.391Z" transform="translate(-618.883 -119.971)" fill="#c48281"/>
              <path id="Trazado_107283" data-name="Trazado 107283" d="M623.915,119.971c-.452,2.385-1.381,4.451-4.6,5.194v-3.148Z" transform="translate(-618.444 -119.971)" fill="#ab6160"/>
            </g>
            <path id="Trazado_107284" data-name="Trazado 107284" d="M625.277,121.446a4.71,4.71,0,0,0-.006,1.152,1.347,1.347,0,0,0,.411.751.855.855,0,0,0,.783.2,1.5,1.5,0,0,1,2.879-.829,1.888,1.888,0,0,1-.249,1.572,3.573,3.573,0,0,1-1.209,1.094,1.27,1.27,0,0,1-1.536-.532,7.833,7.833,0,0,1-6.254,3.294,3.407,3.407,0,0,1-1.837-.564,3.638,3.638,0,0,1-1.195-2.742,14.78,14.78,0,0,1-.132-3.959,7.8,7.8,0,0,1,2.307-4.866A7.639,7.639,0,0,0,625.277,121.446Z" transform="translate(-616.853 -116.013)" fill="#c48281"/>
            <g id="Grupo_59214" data-name="Grupo 59214" transform="translate(0.43 3.387)">
              <path id="Trazado_107285" data-name="Trazado 107285" d="M619.348,118.6l-1.548,2.076,1.537.459Z" transform="translate(-616.329 -116.796)" fill="#ab6160"/>
              <path id="Trazado_107286" data-name="Trazado 107286" d="M619.908,120.319l-1.253.454a.786.786,0,0,0,.877.353A.708.708,0,0,0,619.908,120.319Z" transform="translate(-615.468 -115.062)" fill="#ab6160"/>
              <path id="Trazado_107287" data-name="Trazado 107287" d="M619.908,120.319l-1.253.454a.786.786,0,0,0,.877.353A.708.708,0,0,0,619.908,120.319Z" transform="translate(-615.468 -115.062)" opacity="0.3"/>
              <path id="Trazado_107288" data-name="Trazado 107288" d="M618.884,121.016a.723.723,0,0,0,.418.006.637.637,0,0,0,.384-.6.766.766,0,0,0-.486.114A.748.748,0,0,0,618.884,121.016Z" transform="translate(-615.238 -114.958)" fill="#ab6160"/>
              <path id="Trazado_107289" data-name="Trazado 107289" d="M620.152,118.988a.453.453,0,1,1-.452-.454A.454.454,0,0,1,620.152,118.988Z" transform="translate(-614.872 -116.86)" fill="#263238"/>
              <path id="Trazado_107290" data-name="Trazado 107290" d="M618.258,118.907a.453.453,0,1,1-.45-.454A.453.453,0,0,1,618.258,118.907Z" transform="translate(-616.78 -116.942)" fill="#263238"/>
              <path id="Trazado_107291" data-name="Trazado 107291" d="M618.114,117.845l-1.008.689a.643.643,0,0,1,.2-.709A.765.765,0,0,1,618.114,117.845Z" transform="translate(-617.068 -117.683)" fill="#263238"/>
              <path id="Trazado_107292" data-name="Trazado 107292" d="M619.52,117.822l1,.7a.643.643,0,0,0-.195-.711A.765.765,0,0,0,619.52,117.822Z" transform="translate(-614.597 -117.7)" fill="#263238"/>
            </g>
          </g>
        </g>
      </g>
    </g>
  </g>
</svg>
