<svg xmlns="http://www.w3.org/2000/svg" width="33.503" height="38.29" viewBox="0 0 33.503 38.29">
  <path id="hand-paper-solid" d="M30.57,9.573a3.039,3.039,0,0,0-3.05,3.05v6.522h-.6V5.967a3.039,3.039,0,0,0-3.05-3.05A2.991,2.991,0,0,0,20.94,5.908V19.145h-.6V3.05A3.039,3.039,0,0,0,17.292,0a2.991,2.991,0,0,0-2.933,2.991V19.145h-.6V6.042a3.039,3.039,0,0,0-3.05-3.05A2.991,2.991,0,0,0,7.778,5.983V23.631L5.411,20.376A2.991,2.991,0,1,0,.572,23.9L9.965,36.811a3.59,3.59,0,0,0,2.9,1.478H27.645a3.59,3.59,0,0,0,3.494-2.767L33.122,27.1a14.36,14.36,0,0,0,.382-3.289V12.564A2.991,2.991,0,0,0,30.57,9.573Z" transform="translate(0)" fill="#31d9e7"/>
</svg>
