<svg xmlns="http://www.w3.org/2000/svg" width="102" height="102" viewBox="0 0 102 102">
  <g id="Grupo_58743" data-name="Grupo 58743" transform="translate(-180 -2107)">
    <g id="media-monitor-screen-Digital_Marketing" data-name="media-monitor-screen-Digital Marketing" transform="translate(192 2119)">
      <path id="Trazado_105944" data-name="Trazado 105944" d="M561.3,264.542h69.8a2.584,2.584,0,0,1,2.586,2.584V305.9H558.717V267.126A2.585,2.585,0,0,1,561.3,264.542Z" transform="translate(-557.424 -246.444)" fill="#dcbfff"/>
      <path id="Trazado_105945" data-name="Trazado 105945" d="M561.217,272.039h33.606v20.683H561.217Z" transform="translate(-554.752 -238.432)" fill="#c595ff"/>
      <path id="Trazado_105946" data-name="Trazado 105946" d="M596.439,290.159v5.172h-25.85v-5.172h25.85Z" transform="translate(-544.737 -219.068)" fill="#dcbfff"/>
      <path id="Trazado_105947" data-name="Trazado 105947" d="M574.963,286.41h7.755v7.755h-7.755Z" transform="translate(-540.062 -223.074)" fill="#c595ff"/>
      <path id="Trazado_105948" data-name="Trazado 105948" d="M633.686,285.829v1.293a2.592,2.592,0,0,1-2.586,2.584H561.3a2.593,2.593,0,0,1-2.586-2.584v-2.586h74.969Z" transform="translate(-557.424 -225.077)" fill="#dcbfff"/>
      <path id="Trazado_105949" data-name="Trazado 105949" d="M574.6,265.3l-7.755,3.877v-7.755Z" transform="translate(-548.743 -249.784)" fill="#f17781"/>
      <path id="Trazado_105950" data-name="Trazado 105950" d="M561.841,271.22V258.293h25.852v20.681H561.841Zm10.341,1.291,7.755-3.877-7.755-3.879Z" transform="translate(-554.085 -253.122)" fill="#95f7ff"/>
      <path id="Trazado_105951" data-name="Trazado 105951" d="M594.823,272.039l-16.8,10.341-16.8-10.341Z" transform="translate(-554.752 -238.432)" fill="#bb83ff"/>
      <path id="Trazado_105952" data-name="Trazado 105952" d="M579.336,258.918h9.048v10.341h-9.048Z" transform="translate(-535.389 -252.454)" fill="#e8e5fb"/>
      <path id="Trazado_105953" data-name="Trazado 105953" d="M585.133,263.917l-1.293,9.046h-3.879v-9.046Z" transform="translate(-534.721 -247.112)" fill="#c7bec5"/>
      <path id="Trazado_105954" data-name="Trazado 105954" d="M596.241,260.929a2.53,2.53,0,0,1,.761,1.823,2.592,2.592,0,0,1-2.584,2.586h-2.586v-5.17h2.586A2.53,2.53,0,0,1,596.241,260.929Z" transform="translate(-522.034 -251.118)" fill="#f17781"/>
      <path id="Trazado_105955" data-name="Trazado 105955" d="M600.514,256.419V277.1l-16.8-5.17V261.589Z" transform="translate(-530.714 -255.125)" fill="#f9e478"/>
      <path id="Trazado_105956" data-name="Trazado 105956" d="M577.462,260.168h3.877v5.17h-3.877Z" transform="translate(-537.392 -251.118)" fill="#f17781"/>
      <path id="Trazado_105957" data-name="Trazado 105957" d="M579.961,270.79h23.266V286.3H579.961Z" transform="translate(-534.721 -239.767)" fill="#f17781"/>
      <path id="Trazado_105958" data-name="Trazado 105958" d="M603.81,273.289V288.8H581.836V273.289H603.81Z" transform="translate(-532.717 -237.096)" fill="#dcbfff"/>
      <path id="Trazado_105959" data-name="Trazado 105959" d="M631.768,272.6h-2.584v-1.293h1.293a3.878,3.878,0,0,0,0-7.755h-1.293v-6.463a1.25,1.25,0,0,0-.53-1.034,1.281,1.281,0,0,0-1.138-.207l-16.624,5.118h-8.854a1.292,1.292,0,0,0-1.291,1.293v1.293h-2.586a1.293,1.293,0,0,0-1.293,1.293v5.17a1.293,1.293,0,0,0,1.293,1.293h2.586V272.6h-7.755V260.964a1.293,1.293,0,0,0-1.293-1.293H565.847a1.292,1.292,0,0,0-1.291,1.293V272.6h-2.586a3.889,3.889,0,0,0-3.879,3.877v41.363a3.89,3.89,0,0,0,3.879,3.877H591.7v3.877h-7.755a1.293,1.293,0,0,0-1.293,1.293v5.172a1.292,1.292,0,0,0,1.293,1.291h25.85a1.292,1.292,0,0,0,1.293-1.291v-5.172a1.293,1.293,0,0,0-1.293-1.293h-7.755v-3.877h29.729a3.89,3.89,0,0,0,3.879-3.877V276.475A3.889,3.889,0,0,0,631.768,272.6Zm-2.584-6.463h1.293a1.292,1.292,0,0,1,0,2.584h-1.293Zm-16.8-2.923,14.218-4.381v17.191l-14.218-4.381Zm-9.048.337h6.463v7.755h-6.463Zm3.684,10.341-.931,6.463h-1.46v-6.463Zm-7.561-5.172v-2.584h1.293v2.584Zm-32.315-6.463h23.266v18.1H567.14ZM608.5,328.178v2.586H585.237v-2.586Zm-14.22-2.586v-3.877h5.172v3.877Zm38.777-7.753a1.292,1.292,0,0,1-1.293,1.291h-69.8a1.292,1.292,0,0,1-1.293-1.291v-1.293h72.383Zm0-3.879H560.678V276.475a1.294,1.294,0,0,1,1.293-1.293h2.586v6.463a1.29,1.29,0,0,0,1.291,1.293H591.7a1.292,1.292,0,0,0,1.293-1.293v-6.463h9.046v6.463a1.292,1.292,0,0,0,1.293,1.293h3.879a1.29,1.29,0,0,0,1.278-1.111l1.138-7.935h1.266l16.624,5.118a1.2,1.2,0,0,0,.375.052,1.312,1.312,0,0,0,1.293-1.293v-2.586h2.584a1.293,1.293,0,0,1,1.293,1.293Z" transform="translate(-558.092 -255.793)" fill="#855db5"/>
      <path id="Trazado_105960" data-name="Trazado 105960" d="M561.885,294.679h33.606a1.292,1.292,0,0,0,1.293-1.291V272.706a1.292,1.292,0,0,0-1.293-1.291H561.885a1.29,1.29,0,0,0-1.293,1.291v20.683A1.29,1.29,0,0,0,561.885,294.679Zm1.291-2.584V275.019l14.835,9.129a1.289,1.289,0,0,0,1.355,0l14.832-9.129V292.1Zm3.275-18.1h24.472l-12.236,7.53Z" transform="translate(-555.42 -239.099)" fill="#855db5"/>
      <path id="Trazado_105961" data-name="Trazado 105961" d="M580.629,288.26h2.586v3.879a1.293,1.293,0,0,0,1.293,1.293h21.973a1.293,1.293,0,0,0,1.293-1.293V276.628a1.293,1.293,0,0,0-1.293-1.293h-1.293v-3.877a1.293,1.293,0,0,0-1.293-1.293H580.629a1.293,1.293,0,0,0-1.293,1.293v15.511A1.292,1.292,0,0,0,580.629,288.26Zm24.559,2.586H585.8V277.92h19.388Zm-23.266-18.095H602.6v2.584H584.508a1.293,1.293,0,0,0-1.293,1.293v9.048h-1.293Z" transform="translate(-535.389 -240.435)" fill="#855db5"/>
      <path id="Trazado_105962" data-name="Trazado 105962" d="M583.71,275.164H586.3v2.584H583.71Z" transform="translate(-530.714 -235.092)" fill="#855db5"/>
      <path id="Trazado_105963" data-name="Trazado 105963" d="M586.209,275.164h9.049v2.584h-9.049Z" transform="translate(-528.044 -235.092)" fill="#855db5"/>
      <path id="Trazado_105964" data-name="Trazado 105964" d="M583.71,277.663h5.17v2.584h-5.17Z" transform="translate(-530.714 -232.422)" fill="#855db5"/>
      <path id="Trazado_105965" data-name="Trazado 105965" d="M587.459,277.663h6.463v2.584h-6.463Z" transform="translate(-526.708 -232.422)" fill="#855db5"/>
      <path id="Trazado_105966" data-name="Trazado 105966" d="M566.827,270.941a1.3,1.3,0,0,0,1.258.058l7.755-3.879a1.291,1.291,0,0,0,0-2.313l-7.755-3.879a1.293,1.293,0,0,0-1.87,1.156v7.755A1.294,1.294,0,0,0,566.827,270.941Zm1.974-6.765,3.573,1.787-3.573,1.785Z" transform="translate(-549.411 -250.451)" fill="#855db5"/>
    </g>
    <rect id="Rectángulo_5525" data-name="Rectángulo 5525" width="102" height="102" transform="translate(180 2107)" fill="none"/>
  </g>
</svg>
