<svg xmlns="http://www.w3.org/2000/svg" width="102" height="102" viewBox="0 0 102 102">
  <g id="Grupo_58745" data-name="Grupo 58745" transform="translate(-180 -2251)">
    <g id="Grupo_58680" data-name="Grupo 58680" transform="translate(192 2263)">
      <path id="Trazado_106058" data-name="Trazado 106058" d="M564.971,238.168v5h-1.249a5,5,0,0,1-5.005-5V225.659a12.513,12.513,0,0,1,12.508-12.508h2.5a12.37,12.37,0,0,1,5.353,1.2,21.262,21.262,0,0,0-.875,23.816H564.971Z" transform="translate(-557.466 -196.889)" fill="#f9e478"/>
      <path id="Trazado_106059" data-name="Trazado 106059" d="M600.145,238.168h-12.51l-.575-.238a21.272,21.272,0,0,0-1.025-23.577,12.372,12.372,0,0,1,5.353-1.2h2.5a12.514,12.514,0,0,1,12.51,12.508v12.508a5,5,0,0,1-5.005,5h-1.249Z" transform="translate(-530.094 -196.889)" fill="#95f7ff"/>
      <circle id="Elipse_4096" data-name="Elipse 4096" cx="7.505" cy="7.505" r="7.505" transform="translate(7.506 1.251)" fill="#dcbfff"/>
      <circle id="Elipse_4097" data-name="Elipse 4097" cx="7.505" cy="7.505" r="7.505" transform="translate(55.04 1.251)" fill="#dcbfff"/>
      <g id="Grupo_58679" data-name="Grupo 58679" transform="translate(7.505 41.041)">
        <path id="Trazado_106060" data-name="Trazado 106060" d="M573.172,228.173l-.076.064V256.92a3.753,3.753,0,0,1-7.505,0V225.647h5.73A20.2,20.2,0,0,0,573.172,228.173Z" transform="translate(-558.084 -225.409)" fill="#c595ff"/>
        <path id="Trazado_106061" data-name="Trazado 106061" d="M569.346,225.647V256.92a3.753,3.753,0,0,1-7.506,0V225.647Z" transform="translate(-561.841 -225.409)" fill="#c595ff"/>
        <path id="Trazado_106062" data-name="Trazado 106062" d="M593.09,225.766v31.273a3.753,3.753,0,0,1-7.505,0V228.207a20.663,20.663,0,0,0,1.926-2.679l.575.238Z" transform="translate(-538.05 -225.528)" fill="#c595ff"/>
        <path id="Trazado_106063" data-name="Trazado 106063" d="M596.84,230.65v26.27a3.753,3.753,0,0,1-7.506,0V225.647h7.506Z" transform="translate(-534.294 -225.409)" fill="#c595ff"/>
      </g>
      <path id="Trazado_106064" data-name="Trazado 106064" d="M604.367,244.365a21.18,21.18,0,0,1-13.76,7.417,20.93,20.93,0,0,1-5.005,0,21.2,21.2,0,0,1-13.683-7.331,20.2,20.2,0,0,1-1.852-2.526,21.263,21.263,0,1,1,36.226-.238,20.673,20.673,0,0,1-1.926,2.679Z" transform="translate(-549.327 -200.645)" fill="#e6e9ed"/>
      <circle id="Elipse_4098" data-name="Elipse 4098" cx="16.262" cy="16.262" r="16.262" transform="translate(22.517 13.76)" fill="#dcbfff"/>
      <path id="Trazado_106065" data-name="Trazado 106065" d="M584.969,233.145v15.011a5,5,0,1,1-10.006,0V233.145h10.006Z" transform="translate(-541.188 -176.855)" fill="#f9e478"/>
      <path id="Trazado_106066" data-name="Trazado 106066" d="M581.217,230.571v5.153h-5.005v-5.153a20.93,20.93,0,0,0,5.005,0Z" transform="translate(-539.936 -179.434)" fill="#aab2bd"/>
      <path id="Trazado_106067" data-name="Trazado 106067" d="M626.021,220.675a8.757,8.757,0,1,0-10.759.006c-.282.088-.563.192-.841.3a22.459,22.459,0,0,0-35.1,0c-.276-.108-.556-.21-.839-.3a8.758,8.758,0,1,0-10.759-.008,13.783,13.783,0,0,0-9.628,13.123v12.508a6.262,6.262,0,0,0,6.254,6.254V277.58a4.984,4.984,0,0,0,8.757,3.275,4.984,4.984,0,0,0,8.757-3.275v-25.8a22.441,22.441,0,0,0,11.257,5.441v2.841h-2.5v16.262a6.254,6.254,0,0,0,12.508,0V260.066h-2.5v-2.841a22.439,22.439,0,0,0,11.259-5.441v25.8a4.984,4.984,0,0,0,8.757,3.275,4.982,4.982,0,0,0,8.755-3.275V252.561a6.26,6.26,0,0,0,6.254-6.254V233.8A13.781,13.781,0,0,0,626.021,220.675Zm-11.64-6.891a6.255,6.255,0,1,1,6.256,6.254A6.262,6.262,0,0,1,614.382,213.785Zm-47.533,0a6.254,6.254,0,1,1,6.254,6.254A6.261,6.261,0,0,1,566.849,213.785Zm-6.254,32.522V233.8a11.27,11.27,0,0,1,11.257-11.257h2.5a11.165,11.165,0,0,1,3.469.553,22.3,22.3,0,0,0-1.093,21.962h-9.882V231.3h-2.5v18.765A3.758,3.758,0,0,1,560.594,246.307Zm8.757,33.773a2.5,2.5,0,0,1-2.5-2.5V247.558h5V277.58A2.5,2.5,0,0,1,569.351,280.08Zm7.505,0a2.5,2.5,0,0,1-2.5-2.5V247.558h3.808c.374.557.775,1.091,1.2,1.612v28.41A2.5,2.5,0,0,1,576.857,280.08Zm23.766-3.752a3.753,3.753,0,0,1-7.505,0v-13.76h7.505Zm-2.5-16.262h-2.5V257.5c.416.024.829.064,1.251.064s.835-.04,1.251-.064Zm-1.251-5a20.014,20.014,0,1,1,20.014-20.014A20.037,20.037,0,0,1,596.87,255.063Zm20.014,25.017a2.5,2.5,0,0,1-2.5-2.5V249.17q.667-.82,1.251-1.7v.09h3.754V277.58A2.5,2.5,0,0,1,616.884,280.08Zm7.505,0a2.5,2.5,0,0,1-2.5-2.5V247.558h5V277.58A2.5,2.5,0,0,1,624.39,280.08Zm8.757-33.773a3.758,3.758,0,0,1-3.754,3.754V231.3h-2.5v13.76H617.01a22.292,22.292,0,0,0-1.095-21.962,11.179,11.179,0,0,1,3.471-.553h2.5A11.272,11.272,0,0,1,633.146,233.8Z" transform="translate(-558.092 -205.028)" fill="#855db5"/>
      <path id="Trazado_106068" data-name="Trazado 106068" d="M574.815,218.1l-2.148-1.279a12.538,12.538,0,0,0-1.147,2.524l2.376.777a10.062,10.062,0,0,1,.919-2.022Z" transform="translate(-544.637 -193.208)" fill="#855db5"/>
      <path id="Trazado_106069" data-name="Trazado 106069" d="M576.441,216.908l-1.389-2.08a12.485,12.485,0,0,0-2.12,1.79l1.814,1.72A9.9,9.9,0,0,1,576.441,216.908Z" transform="translate(-543.223 -195.209)" fill="#855db5"/>
      <path id="Trazado_106070" data-name="Trazado 106070" d="M586.227,211.276a17.512,17.512,0,1,0,17.511,17.513A17.532,17.532,0,0,0,586.227,211.276Zm0,32.524a15.011,15.011,0,1,1,15.011-15.011A15.028,15.028,0,0,1,586.227,243.8Z" transform="translate(-547.449 -198.768)" fill="#855db5"/>
      <path id="Trazado_106071" data-name="Trazado 106071" d="M591.853,229.408V216.9h-2.5v12.508h-2.5v-5h-2.5v5h-2.5V219.4h-2.5v10.008h-2.5V221.9h-2.5v7.505h-2.5v2.5h22.514v-2.5Z" transform="translate(-544.318 -193.132)" fill="#855db5"/>
    </g>
    <rect id="Rectángulo_5525" data-name="Rectángulo 5525" width="102" height="102" transform="translate(180 2251)" fill="none"/>
  </g>
</svg>
