<svg xmlns="http://www.w3.org/2000/svg" width="102" height="102" viewBox="0 0 102 102">
  <g id="Grupo_58749" data-name="Grupo 58749" transform="translate(-180 -1807)">
    <g id="Grupo_58725" data-name="Grupo 58725" transform="translate(192 1821)">
      <g id="Grupo_58687" data-name="Grupo 58687" transform="translate(1.136 1.136)">
        <g id="Grupo_58686" data-name="Grupo 58686">
          <path id="Trazado_106080" data-name="Trazado 106080" d="M669.723,224.949l-4.825,4.567a8.359,8.359,0,0,1-3.5-4.179l5.368-5.085Z" transform="translate(-652.107 -194.832)" fill="#17998c"/>
          <g id="Grupo_58682" data-name="Grupo 58682" transform="translate(0 2.343)">
            <path id="Trazado_106081" data-name="Trazado 106081" d="M659.329,249.2a2.721,2.721,0,0,1-1.87-4.7l13.809-13.075a2.72,2.72,0,0,1,1.871-.745h30.2l21.533-21.535a2.722,2.722,0,0,1,3.85,3.85l-22.332,22.33a2.722,2.722,0,0,1-1.924.8H674.224L661.2,248.458a2.718,2.718,0,0,1-1.872.745Z" transform="translate(-656.608 -208.353)" fill="#c595ff"/>
          </g>
          <path id="Trazado_106082" data-name="Trazado 106082" d="M698.113,213l-5.06,5.06a5.81,5.81,0,0,1-.33-1.934v-1.561h-1.561a5.744,5.744,0,0,1-1.967-.343l5.07-5.07A2.721,2.721,0,0,1,698.113,213Z" transform="translate(-625.995 -206.01)" fill="#bb83ff"/>
          <g id="Grupo_58683" data-name="Grupo 58683" transform="translate(62.447)">
            <path id="Trazado_106083" data-name="Trazado 106083" d="M698.921,219.98a2.721,2.721,0,0,1-2.721-2.721v-4.672h-4.672a2.721,2.721,0,0,1,0-5.442h7.393a2.721,2.721,0,0,1,2.721,2.721v7.391A2.721,2.721,0,0,1,698.921,219.98Z" transform="translate(-688.807 -207.145)" fill="#dcbfff"/>
          </g>
          <g id="Grupo_58684" data-name="Grupo 58684" transform="translate(11.857 22.328)">
            <circle id="Elipse_4099" data-name="Elipse 4099" cx="5.219" cy="5.219" r="5.219" fill="#dcbfff"/>
          </g>
          <g id="Grupo_58685" data-name="Grupo 58685" transform="translate(42.804 21.57)">
            <circle id="Elipse_4100" data-name="Elipse 4100" cx="5.219" cy="5.219" r="5.219" fill="#dcbfff"/>
          </g>
        </g>
      </g>
      <g id="Grupo_58724" data-name="Grupo 58724">
        <g id="Grupo_58692" data-name="Grupo 58692" transform="translate(1.136 50.135)">
          <g id="Grupo_58688" data-name="Grupo 58688" transform="translate(0 16.731)">
            <path id="Trazado_106084" data-name="Trazado 106084" d="M670.407,246.613H658a1.391,1.391,0,0,1-1.391-1.391v-2.795A1.391,1.391,0,0,1,658,241.037h12.408a1.391,1.391,0,0,1,1.392,1.391v2.795A1.391,1.391,0,0,1,670.407,246.613Z" transform="translate(-656.608 -241.037)" fill="#f9e478"/>
            <path id="Trazado_106085" data-name="Trazado 106085" d="M667.221,242.428v2.795a1.391,1.391,0,0,1-1.391,1.391h-4.348a1.39,1.39,0,0,0,1.391-1.391v-2.795a1.39,1.39,0,0,0-1.391-1.391h4.348A1.391,1.391,0,0,1,667.221,242.428Z" transform="translate(-652.029 -241.037)" fill="#f9e478"/>
          </g>
          <g id="Grupo_58689" data-name="Grupo 58689" transform="translate(0 11.153)">
            <path id="Trazado_106086" data-name="Trazado 106086" d="M670.407,243.737H658a1.391,1.391,0,0,1-1.391-1.391v-2.795A1.391,1.391,0,0,1,658,238.161h12.408a1.391,1.391,0,0,1,1.392,1.391v2.795A1.391,1.391,0,0,1,670.407,243.737Z" transform="translate(-656.608 -238.161)" fill="#f9edb0"/>
            <path id="Trazado_106087" data-name="Trazado 106087" d="M667.221,239.553v2.793a1.392,1.392,0,0,1-1.391,1.393h-4.348a1.392,1.392,0,0,0,1.391-1.393v-2.793a1.392,1.392,0,0,0-1.391-1.392h4.348A1.392,1.392,0,0,1,667.221,239.553Z" transform="translate(-652.029 -238.161)" fill="#d4c266"/>
          </g>
          <g id="Grupo_58690" data-name="Grupo 58690" transform="translate(0 5.578)">
            <path id="Trazado_106088" data-name="Trazado 106088" d="M670.407,240.862H658a1.391,1.391,0,0,1-1.391-1.391v-2.795A1.391,1.391,0,0,1,658,235.286h12.408a1.391,1.391,0,0,1,1.392,1.391v2.795A1.391,1.391,0,0,1,670.407,240.862Z" transform="translate(-656.608 -235.286)" fill="#f9e478"/>
            <path id="Trazado_106089" data-name="Trazado 106089" d="M667.221,236.677v2.795a1.391,1.391,0,0,1-1.391,1.391h-4.348a1.39,1.39,0,0,0,1.391-1.391v-2.795a1.39,1.39,0,0,0-1.391-1.391h4.348A1.391,1.391,0,0,1,667.221,236.677Z" transform="translate(-652.029 -235.286)" fill="#f9e478"/>
          </g>
          <g id="Grupo_58691" data-name="Grupo 58691">
            <path id="Trazado_106090" data-name="Trazado 106090" d="M670.407,237.986H658a1.391,1.391,0,0,1-1.391-1.391V233.8A1.391,1.391,0,0,1,658,232.41h12.408A1.391,1.391,0,0,1,671.8,233.8V236.6A1.391,1.391,0,0,1,670.407,237.986Z" transform="translate(-656.608 -232.41)" fill="#f9edb0"/>
            <path id="Trazado_106091" data-name="Trazado 106091" d="M667.221,233.8V236.6a1.392,1.392,0,0,1-1.391,1.392h-4.348a1.392,1.392,0,0,0,1.391-1.392V233.8a1.392,1.392,0,0,0-1.391-1.393h4.348A1.392,1.392,0,0,1,667.221,233.8Z" transform="translate(-652.029 -232.41)" fill="#d4c266"/>
          </g>
        </g>
        <g id="Grupo_58696" data-name="Grupo 58696" transform="translate(21.167 55.713)">
          <g id="Grupo_58693" data-name="Grupo 58693" transform="translate(0 11.153)">
            <path id="Trazado_106092" data-name="Trazado 106092" d="M680.737,246.613h-12.41a1.391,1.391,0,0,1-1.391-1.391v-2.795a1.391,1.391,0,0,1,1.391-1.391h12.41a1.39,1.39,0,0,1,1.39,1.391v2.795A1.39,1.39,0,0,1,680.737,246.613Z" transform="translate(-666.936 -241.037)" fill="#f9edb0"/>
            <path id="Trazado_106093" data-name="Trazado 106093" d="M677.549,242.428v2.795a1.39,1.39,0,0,1-1.39,1.391H671.81a1.392,1.392,0,0,0,1.393-1.391v-2.795a1.392,1.392,0,0,0-1.393-1.391h4.348A1.39,1.39,0,0,1,677.549,242.428Z" transform="translate(-662.357 -241.037)" fill="#d4c266"/>
          </g>
          <g id="Grupo_58694" data-name="Grupo 58694" transform="translate(0 5.576)">
            <path id="Trazado_106094" data-name="Trazado 106094" d="M680.737,243.737h-12.41a1.391,1.391,0,0,1-1.391-1.391v-2.795a1.391,1.391,0,0,1,1.391-1.391h12.41a1.39,1.39,0,0,1,1.39,1.391v2.795A1.39,1.39,0,0,1,680.737,243.737Z" transform="translate(-666.936 -238.161)" fill="#f9e478"/>
            <path id="Trazado_106095" data-name="Trazado 106095" d="M677.549,239.553v2.793a1.392,1.392,0,0,1-1.39,1.393H671.81a1.394,1.394,0,0,0,1.393-1.393v-2.793a1.394,1.394,0,0,0-1.393-1.392h4.348A1.392,1.392,0,0,1,677.549,239.553Z" transform="translate(-662.357 -238.161)" fill="#f9e478"/>
          </g>
          <g id="Grupo_58695" data-name="Grupo 58695">
            <path id="Trazado_106096" data-name="Trazado 106096" d="M680.737,240.862h-12.41a1.391,1.391,0,0,1-1.391-1.391v-2.795a1.391,1.391,0,0,1,1.391-1.391h12.41a1.39,1.39,0,0,1,1.39,1.391v2.795A1.39,1.39,0,0,1,680.737,240.862Z" transform="translate(-666.936 -235.286)" fill="#f9edb0"/>
            <path id="Trazado_106097" data-name="Trazado 106097" d="M677.549,236.677v2.795a1.39,1.39,0,0,1-1.39,1.391H671.81a1.392,1.392,0,0,0,1.393-1.391v-2.795a1.392,1.392,0,0,0-1.393-1.391h4.348A1.39,1.39,0,0,1,677.549,236.677Z" transform="translate(-662.357 -235.286)" fill="#d4c266"/>
          </g>
        </g>
        <g id="Grupo_58700" data-name="Grupo 58700" transform="translate(41.197 55.713)">
          <g id="Grupo_58697" data-name="Grupo 58697" transform="translate(0 11.153)">
            <path id="Trazado_106098" data-name="Trazado 106098" d="M691.065,246.613h-12.41a1.391,1.391,0,0,1-1.391-1.391v-2.795a1.391,1.391,0,0,1,1.391-1.391h12.41a1.391,1.391,0,0,1,1.391,1.391v2.795A1.391,1.391,0,0,1,691.065,246.613Z" transform="translate(-677.264 -241.037)" fill="#f9e478"/>
            <path id="Trazado_106099" data-name="Trazado 106099" d="M687.876,242.428v2.795a1.391,1.391,0,0,1-1.391,1.391h-4.346a1.392,1.392,0,0,0,1.391-1.391v-2.795a1.392,1.392,0,0,0-1.391-1.391h4.346A1.391,1.391,0,0,1,687.876,242.428Z" transform="translate(-672.684 -241.037)" fill="#f9e478"/>
          </g>
          <g id="Grupo_58698" data-name="Grupo 58698" transform="translate(0 5.576)">
            <path id="Trazado_106100" data-name="Trazado 106100" d="M691.065,243.737h-12.41a1.391,1.391,0,0,1-1.391-1.391v-2.795a1.391,1.391,0,0,1,1.391-1.391h12.41a1.391,1.391,0,0,1,1.391,1.391v2.795A1.391,1.391,0,0,1,691.065,243.737Z" transform="translate(-677.264 -238.161)" fill="#f9edb0"/>
            <path id="Trazado_106101" data-name="Trazado 106101" d="M687.876,239.553v2.793a1.392,1.392,0,0,1-1.391,1.393h-4.346a1.393,1.393,0,0,0,1.391-1.393v-2.793a1.393,1.393,0,0,0-1.391-1.392h4.346A1.392,1.392,0,0,1,687.876,239.553Z" transform="translate(-672.684 -238.161)" fill="#d4c266"/>
          </g>
          <g id="Grupo_58699" data-name="Grupo 58699">
            <path id="Trazado_106102" data-name="Trazado 106102" d="M691.065,240.862h-12.41a1.391,1.391,0,0,1-1.391-1.391v-2.795a1.391,1.391,0,0,1,1.391-1.391h12.41a1.391,1.391,0,0,1,1.391,1.391v2.795A1.391,1.391,0,0,1,691.065,240.862Z" transform="translate(-677.264 -235.286)" fill="#f9e478"/>
            <path id="Trazado_106103" data-name="Trazado 106103" d="M687.876,236.677v2.795a1.391,1.391,0,0,1-1.391,1.391h-4.346a1.392,1.392,0,0,0,1.391-1.391v-2.795a1.392,1.392,0,0,0-1.391-1.391h4.346A1.391,1.391,0,0,1,687.876,236.677Z" transform="translate(-672.684 -235.286)" fill="#f9e478"/>
          </g>
        </g>
        <g id="Grupo_58704" data-name="Grupo 58704" transform="translate(61.227 55.713)">
          <g id="Grupo_58701" data-name="Grupo 58701" transform="translate(0 11.153)">
            <path id="Trazado_106104" data-name="Trazado 106104" d="M701.393,246.613H688.984a1.391,1.391,0,0,1-1.393-1.391v-2.795a1.391,1.391,0,0,1,1.393-1.391h12.408a1.391,1.391,0,0,1,1.391,1.391v2.795A1.391,1.391,0,0,1,701.393,246.613Z" transform="translate(-687.592 -241.037)" fill="#f9edb0"/>
            <path id="Trazado_106105" data-name="Trazado 106105" d="M698.2,242.428v2.795a1.391,1.391,0,0,1-1.391,1.391h-4.346a1.391,1.391,0,0,0,1.391-1.391v-2.795a1.391,1.391,0,0,0-1.391-1.391h4.346A1.391,1.391,0,0,1,698.2,242.428Z" transform="translate(-683.012 -241.037)" fill="#d4c266"/>
          </g>
          <g id="Grupo_58702" data-name="Grupo 58702" transform="translate(0 5.576)">
            <path id="Trazado_106106" data-name="Trazado 106106" d="M701.393,243.737H688.984a1.391,1.391,0,0,1-1.393-1.391v-2.795a1.391,1.391,0,0,1,1.393-1.391h12.408a1.391,1.391,0,0,1,1.391,1.391v2.795A1.391,1.391,0,0,1,701.393,243.737Z" transform="translate(-687.592 -238.161)" fill="#f9e478"/>
            <path id="Trazado_106107" data-name="Trazado 106107" d="M698.2,239.553v2.793a1.392,1.392,0,0,1-1.391,1.393h-4.346a1.392,1.392,0,0,0,1.391-1.393v-2.793a1.392,1.392,0,0,0-1.391-1.392h4.346A1.392,1.392,0,0,1,698.2,239.553Z" transform="translate(-683.012 -238.161)" fill="#f9e478"/>
          </g>
          <g id="Grupo_58703" data-name="Grupo 58703">
            <path id="Trazado_106108" data-name="Trazado 106108" d="M701.393,240.862H688.984a1.391,1.391,0,0,1-1.393-1.391v-2.795a1.391,1.391,0,0,1,1.393-1.391h12.408a1.391,1.391,0,0,1,1.391,1.391v2.795A1.391,1.391,0,0,1,701.393,240.862Z" transform="translate(-687.592 -235.286)" fill="#f9edb0"/>
            <path id="Trazado_106109" data-name="Trazado 106109" d="M698.2,236.677v2.795a1.391,1.391,0,0,1-1.391,1.391h-4.346a1.391,1.391,0,0,0,1.391-1.391v-2.795a1.391,1.391,0,0,0-1.391-1.391h4.346A1.391,1.391,0,0,1,698.2,236.677Z" transform="translate(-683.012 -235.286)" fill="#d4c266"/>
          </g>
        </g>
        <g id="Grupo_58706" data-name="Grupo 58706" transform="translate(21.167 50.135)">
          <g id="Grupo_58705" data-name="Grupo 58705">
            <path id="Trazado_106110" data-name="Trazado 106110" d="M680.737,237.986h-12.41a1.391,1.391,0,0,1-1.391-1.391V233.8a1.391,1.391,0,0,1,1.391-1.391h12.41a1.39,1.39,0,0,1,1.39,1.391V236.6A1.39,1.39,0,0,1,680.737,237.986Z" transform="translate(-666.936 -232.41)" fill="#f9e478"/>
            <path id="Trazado_106111" data-name="Trazado 106111" d="M677.549,233.8V236.6a1.392,1.392,0,0,1-1.39,1.392H671.81A1.394,1.394,0,0,0,673.2,236.6V233.8a1.394,1.394,0,0,0-1.393-1.391h4.348A1.392,1.392,0,0,1,677.549,233.8Z" transform="translate(-662.357 -232.41)" fill="#f9e478"/>
          </g>
        </g>
        <g id="Grupo_58708" data-name="Grupo 58708" transform="translate(21.167 44.558)">
          <g id="Grupo_58707" data-name="Grupo 58707">
            <path id="Trazado_106112" data-name="Trazado 106112" d="M680.737,235.112h-12.41a1.391,1.391,0,0,1-1.391-1.393v-2.793a1.392,1.392,0,0,1,1.391-1.393h12.41a1.392,1.392,0,0,1,1.39,1.393v2.793A1.391,1.391,0,0,1,680.737,235.112Z" transform="translate(-666.936 -229.534)" fill="#f9edb0"/>
            <path id="Trazado_106113" data-name="Trazado 106113" d="M677.549,230.926v2.795a1.39,1.39,0,0,1-1.39,1.391H671.81a1.392,1.392,0,0,0,1.393-1.391v-2.795a1.392,1.392,0,0,0-1.393-1.391h4.348A1.39,1.39,0,0,1,677.549,230.926Z" transform="translate(-662.357 -229.533)" fill="#d4c266"/>
          </g>
        </g>
        <g id="Grupo_58711" data-name="Grupo 58711" transform="translate(41.197 44.56)">
          <g id="Grupo_58709" data-name="Grupo 58709" transform="translate(0 5.576)">
            <path id="Trazado_106114" data-name="Trazado 106114" d="M691.065,237.986h-12.41a1.391,1.391,0,0,1-1.391-1.391V233.8a1.391,1.391,0,0,1,1.391-1.391h12.41a1.391,1.391,0,0,1,1.391,1.391V236.6A1.391,1.391,0,0,1,691.065,237.986Z" transform="translate(-677.264 -232.41)" fill="#f9edb0"/>
            <path id="Trazado_106115" data-name="Trazado 106115" d="M687.876,233.8V236.6a1.392,1.392,0,0,1-1.391,1.392h-4.346a1.393,1.393,0,0,0,1.391-1.392V233.8a1.393,1.393,0,0,0-1.391-1.391h4.346A1.392,1.392,0,0,1,687.876,233.8Z" transform="translate(-672.684 -232.41)" fill="#d4c266"/>
          </g>
          <g id="Grupo_58710" data-name="Grupo 58710">
            <path id="Trazado_106116" data-name="Trazado 106116" d="M691.065,235.111h-12.41a1.391,1.391,0,0,1-1.391-1.391v-2.795a1.391,1.391,0,0,1,1.391-1.391h12.41a1.391,1.391,0,0,1,1.391,1.391v2.795A1.391,1.391,0,0,1,691.065,235.111Z" transform="translate(-677.264 -229.535)" fill="#f9e478"/>
            <path id="Trazado_106117" data-name="Trazado 106117" d="M687.876,230.926v2.795a1.391,1.391,0,0,1-1.391,1.391h-4.346a1.392,1.392,0,0,0,1.391-1.391v-2.795a1.392,1.392,0,0,0-1.391-1.391h4.346A1.391,1.391,0,0,1,687.876,230.926Z" transform="translate(-672.684 -229.535)" fill="#f9e478"/>
          </g>
        </g>
        <g id="Grupo_58713" data-name="Grupo 58713" transform="translate(21.167 38.982)">
          <g id="Grupo_58712" data-name="Grupo 58712">
            <path id="Trazado_106118" data-name="Trazado 106118" d="M680.737,232.235h-12.41a1.391,1.391,0,0,1-1.391-1.391V228.05a1.391,1.391,0,0,1,1.391-1.391h12.41a1.39,1.39,0,0,1,1.39,1.391v2.795A1.39,1.39,0,0,1,680.737,232.235Z" transform="translate(-666.936 -226.659)" fill="#f9e478"/>
            <path id="Trazado_106119" data-name="Trazado 106119" d="M677.549,228.05v2.795a1.39,1.39,0,0,1-1.39,1.391H671.81a1.392,1.392,0,0,0,1.393-1.391V228.05a1.392,1.392,0,0,0-1.393-1.391h4.348A1.39,1.39,0,0,1,677.549,228.05Z" transform="translate(-662.357 -226.659)" fill="#f9e478"/>
          </g>
        </g>
        <g id="Grupo_58715" data-name="Grupo 58715" transform="translate(41.197 38.982)">
          <g id="Grupo_58714" data-name="Grupo 58714">
            <path id="Trazado_106120" data-name="Trazado 106120" d="M691.065,232.235h-12.41a1.391,1.391,0,0,1-1.391-1.391V228.05a1.391,1.391,0,0,1,1.391-1.391h12.41a1.391,1.391,0,0,1,1.391,1.391v2.795A1.391,1.391,0,0,1,691.065,232.235Z" transform="translate(-677.264 -226.659)" fill="#f9edb0"/>
            <path id="Trazado_106121" data-name="Trazado 106121" d="M687.876,228.05v2.795a1.392,1.392,0,0,1-1.391,1.393h-4.346a1.393,1.393,0,0,0,1.391-1.393V228.05a1.392,1.392,0,0,0-1.391-1.391h4.346A1.391,1.391,0,0,1,687.876,228.05Z" transform="translate(-672.684 -226.659)" fill="#d4c266"/>
          </g>
        </g>
        <g id="Grupo_58719" data-name="Grupo 58719" transform="translate(61.227 38.982)">
          <g id="Grupo_58716" data-name="Grupo 58716" transform="translate(0 11.153)">
            <path id="Trazado_106122" data-name="Trazado 106122" d="M701.393,237.986H688.984a1.391,1.391,0,0,1-1.393-1.391V233.8a1.391,1.391,0,0,1,1.393-1.391h12.408a1.391,1.391,0,0,1,1.391,1.391V236.6A1.391,1.391,0,0,1,701.393,237.986Z" transform="translate(-687.592 -232.41)" fill="#f9e478"/>
            <path id="Trazado_106123" data-name="Trazado 106123" d="M698.2,233.8V236.6a1.392,1.392,0,0,1-1.391,1.392h-4.346a1.392,1.392,0,0,0,1.391-1.392V233.8a1.392,1.392,0,0,0-1.391-1.391h4.346A1.392,1.392,0,0,1,698.2,233.8Z" transform="translate(-683.012 -232.41)" fill="#f9e478"/>
          </g>
          <g id="Grupo_58717" data-name="Grupo 58717" transform="translate(0 5.578)">
            <path id="Trazado_106124" data-name="Trazado 106124" d="M701.393,235.111H688.984a1.391,1.391,0,0,1-1.393-1.391v-2.795a1.391,1.391,0,0,1,1.393-1.391h12.408a1.391,1.391,0,0,1,1.391,1.391v2.795A1.391,1.391,0,0,1,701.393,235.111Z" transform="translate(-687.592 -229.535)" fill="#f9edb0"/>
            <path id="Trazado_106125" data-name="Trazado 106125" d="M698.2,230.926v2.795a1.391,1.391,0,0,1-1.391,1.391h-4.346a1.391,1.391,0,0,0,1.391-1.391v-2.795a1.391,1.391,0,0,0-1.391-1.391h4.346A1.39,1.39,0,0,1,698.2,230.926Z" transform="translate(-683.012 -229.535)" fill="#d4c266"/>
          </g>
          <g id="Grupo_58718" data-name="Grupo 58718">
            <path id="Trazado_106126" data-name="Trazado 106126" d="M701.393,232.235H688.984a1.391,1.391,0,0,1-1.393-1.391V228.05a1.391,1.391,0,0,1,1.393-1.391h12.408a1.391,1.391,0,0,1,1.391,1.391v2.795A1.391,1.391,0,0,1,701.393,232.235Z" transform="translate(-687.592 -226.659)" fill="#f9e478"/>
            <path id="Trazado_106127" data-name="Trazado 106127" d="M698.2,228.05v2.795a1.392,1.392,0,0,1-1.391,1.393h-4.346a1.392,1.392,0,0,0,1.391-1.393V228.05a1.392,1.392,0,0,0-1.391-1.391h4.346A1.392,1.392,0,0,1,698.2,228.05Z" transform="translate(-683.012 -226.659)" fill="#f9e478"/>
          </g>
        </g>
        <g id="Grupo_58723" data-name="Grupo 58723">
          <g id="Grupo_58720" data-name="Grupo 58720" transform="translate(61.227 33.406)">
            <path id="Trazado_106128" data-name="Trazado 106128" d="M701.393,229.36H688.984a1.391,1.391,0,0,1-1.393-1.391v-2.795a1.391,1.391,0,0,1,1.393-1.391h12.408a1.391,1.391,0,0,1,1.391,1.391v2.795A1.391,1.391,0,0,1,701.393,229.36Z" transform="translate(-687.592 -223.784)" fill="#f9edb0"/>
            <path id="Trazado_106129" data-name="Trazado 106129" d="M698.2,225.175v2.795a1.39,1.39,0,0,1-1.391,1.391h-4.346a1.391,1.391,0,0,0,1.391-1.391v-2.795a1.39,1.39,0,0,0-1.391-1.391h4.346a1.39,1.39,0,0,1,1.391,1.391Z" transform="translate(-683.012 -223.784)" fill="#d4c266"/>
          </g>
          <g id="Grupo_58722" data-name="Grupo 58722">
            <path id="Trazado_106130" data-name="Trazado 106130" d="M701.393,226.484H688.984a1.391,1.391,0,0,1-1.393-1.391V222.3a1.391,1.391,0,0,1,1.393-1.391h12.408a1.391,1.391,0,0,1,1.391,1.391v2.795A1.391,1.391,0,0,1,701.393,226.484Z" transform="translate(-626.365 -193.08)" fill="#f9e478"/>
            <path id="Trazado_106131" data-name="Trazado 106131" d="M698.2,222.3v2.793a1.392,1.392,0,0,1-1.391,1.393h-4.346a1.392,1.392,0,0,0,1.391-1.393V222.3a1.392,1.392,0,0,0-1.391-1.392h4.346A1.392,1.392,0,0,1,698.2,222.3Z" transform="translate(-621.786 -193.08)" fill="#f9e478"/>
            <g id="Grupo_58721" data-name="Grupo 58721">
              <path id="Trazado_106132" data-name="Trazado 106132" d="M667.878,235.241l-10.653,10.124a3.858,3.858,0,0,0,5.306,5.6l10.11-9.573a6.351,6.351,0,0,0,6.747-2.446h21.273a6.351,6.351,0,0,0,10.872-4.464c0-.147-.008-.293-.018-.436l6.609-6.607a1.137,1.137,0,1,0-1.608-1.608l-5.71,5.71a6.418,6.418,0,0,0-2.126-2.356L723.6,214.274h2.265v2.217l-5.587,5.591a1.136,1.136,0,1,0,1.606,1.606l4.313-4.315a3.857,3.857,0,0,0,7.383-1.563v-7.393a3.861,3.861,0,0,0-3.857-3.857h-7.393a3.857,3.857,0,0,0-1.6,7.368l-14.323,14.322a6.345,6.345,0,0,0-6.685,2.985H679.16a6.352,6.352,0,0,0-11.281,4.007Zm-6.908,14.076a1.588,1.588,0,0,1-1.09.434,1.57,1.57,0,0,1-1.152-.495,1.588,1.588,0,0,1,.06-2.242l9.66-9.146a6.4,6.4,0,0,0,2,2.473Zm13.262-9.994a4.082,4.082,0,1,1,4.084-4.082A4.088,4.088,0,0,1,674.232,239.323Zm6.191-2.647a6.332,6.332,0,0,0-.078-3.171H698.9a6.364,6.364,0,0,0,.314,3.171Zm24.756,1.891a4.082,4.082,0,1,1,4.082-4.082A4.088,4.088,0,0,1,705.179,238.567ZM731.3,217.809a1.585,1.585,0,1,1-3.169,0v-4.672A1.137,1.137,0,0,0,727,212h-4.672a1.585,1.585,0,0,1,0-3.171h7.393a1.587,1.587,0,0,1,1.585,1.586Z" transform="translate(-656.021 -206.559)" fill="#855db5"/>
              <path id="Trazado_106133" data-name="Trazado 106133" d="M670.957,231.824H658.549a2.531,2.531,0,0,0-2.527,2.527v2.795a2.507,2.507,0,0,0,.421,1.392,2.5,2.5,0,0,0-.421,1.391v2.795a2.5,2.5,0,0,0,.421,1.391,2.5,2.5,0,0,0-.421,1.391V248.3a2.507,2.507,0,0,0,.421,1.392,2.5,2.5,0,0,0-.421,1.391v2.795a2.531,2.531,0,0,0,2.527,2.527h12.408a2.53,2.53,0,0,0,2.527-2.527v-2.795a2.494,2.494,0,0,0-.419-1.391,2.505,2.505,0,0,0,.419-1.392V245.5a2.5,2.5,0,0,0-.419-1.391,2.5,2.5,0,0,0,.419-1.391v-2.795a2.505,2.505,0,0,0-.419-1.392,2.494,2.494,0,0,0,.419-1.391v-2.795A2.53,2.53,0,0,0,670.957,231.824Zm-12.662,2.527a.255.255,0,0,1,.254-.254h12.408a.255.255,0,0,1,.256.254v2.795a.256.256,0,0,1-.256.256H658.549a.255.255,0,0,1-.254-.256ZM671.213,248.3a.256.256,0,0,1-.256.256H658.549a.255.255,0,0,1-.254-.256V245.5a.255.255,0,0,1,.254-.254h12.408a.255.255,0,0,1,.256.254Zm0-5.576a.255.255,0,0,1-.256.254H658.549a.255.255,0,0,1-.254-.254v-2.795a.255.255,0,0,1,.254-.256h12.408a.256.256,0,0,1,.256.256v2.795Zm0,11.153a.255.255,0,0,1-.256.254H658.549a.255.255,0,0,1-.254-.254v-2.795a.255.255,0,0,1,.254-.256h12.408a.256.256,0,0,1,.256.256Z" transform="translate(-656.022 -182.825)" fill="#855db5"/>
              <path id="Trazado_106134" data-name="Trazado 106134" d="M681.287,226.073h-12.41a2.531,2.531,0,0,0-2.527,2.527v2.795a2.5,2.5,0,0,0,.421,1.391,2.507,2.507,0,0,0-.421,1.393v2.793a2.5,2.5,0,0,0,.421,1.393,2.5,2.5,0,0,0-.421,1.391v2.795a2.507,2.507,0,0,0,.421,1.392,2.5,2.5,0,0,0-.421,1.391v2.795a2.5,2.5,0,0,0,.421,1.391,2.5,2.5,0,0,0-.421,1.391V253.7a2.507,2.507,0,0,0,.421,1.392,2.5,2.5,0,0,0-.421,1.391v2.795a2.531,2.531,0,0,0,2.527,2.527h12.41a2.531,2.531,0,0,0,2.527-2.527v-2.795a2.5,2.5,0,0,0-.421-1.391,2.507,2.507,0,0,0,.421-1.392v-2.795a2.5,2.5,0,0,0-.421-1.391,2.5,2.5,0,0,0,.421-1.391v-2.795a2.507,2.507,0,0,0-.421-1.392,2.5,2.5,0,0,0,.421-1.391v-2.795a2.5,2.5,0,0,0-.421-1.391,2.507,2.507,0,0,0,.421-1.393v-2.793a2.507,2.507,0,0,0-.421-1.393,2.5,2.5,0,0,0,.421-1.391V228.6A2.531,2.531,0,0,0,681.287,226.073ZM668.623,228.6a.255.255,0,0,1,.254-.254h12.41a.255.255,0,0,1,.254.254v2.795a.255.255,0,0,1-.254.254h-12.41a.255.255,0,0,1-.254-.254Zm12.918,19.526a.255.255,0,0,1-.254.254H676.27a1.136,1.136,0,0,0,0,2.273h5.017a.255.255,0,0,1,.254.254V253.7a.255.255,0,0,1-.254.256h-12.41a.255.255,0,0,1-.254-.256v-2.795a.255.255,0,0,1,.254-.254h2.085a1.136,1.136,0,1,0,0-2.273h-2.085a.255.255,0,0,1-.254-.254v-2.795a.255.255,0,0,1,.254-.256h12.41a.255.255,0,0,1,.254.256v2.795Zm0-5.578a.255.255,0,0,1-.254.256h-12.41a.255.255,0,0,1-.254-.256v-2.795a.255.255,0,0,1,.254-.254h12.41a.255.255,0,0,1,.254.254Zm0-5.576a.255.255,0,0,1-.254.254h-12.41a.255.255,0,0,1-.254-.254v-2.795a.255.255,0,0,1,.254-.256h12.41a.255.255,0,0,1,.254.256Zm0,22.307a.255.255,0,0,1-.254.254h-12.41a.255.255,0,0,1-.254-.254v-2.795a.255.255,0,0,1,.254-.256h12.41a.255.255,0,0,1,.254.256Z" transform="translate(-646.32 -188.228)" fill="#855db5"/>
              <path id="Trazado_106135" data-name="Trazado 106135" d="M691.615,226.073H679.2a2.531,2.531,0,0,0-2.527,2.527v2.795a2.5,2.5,0,0,0,.421,1.391,2.507,2.507,0,0,0-.421,1.393v2.795a2.5,2.5,0,0,0,.421,1.391,2.5,2.5,0,0,0-.421,1.391v2.795a2.507,2.507,0,0,0,.421,1.392,2.5,2.5,0,0,0-.421,1.391v2.795a2.5,2.5,0,0,0,.421,1.391,2.507,2.507,0,0,0-.421,1.392V253.7a2.507,2.507,0,0,0,.421,1.392,2.5,2.5,0,0,0-.421,1.391v2.795a2.531,2.531,0,0,0,2.527,2.527h12.41a2.531,2.531,0,0,0,2.527-2.527v-2.795a2.5,2.5,0,0,0-.421-1.391,2.507,2.507,0,0,0,.421-1.392v-2.793a2.507,2.507,0,0,0-.421-1.392,2.5,2.5,0,0,0,.421-1.391v-2.795a2.5,2.5,0,0,0-.421-1.391,2.507,2.507,0,0,0,.421-1.392v-2.795a2.5,2.5,0,0,0-.421-1.391,2.5,2.5,0,0,0,.421-1.391v-2.795a2.507,2.507,0,0,0-.421-1.393,2.5,2.5,0,0,0,.421-1.391V228.6A2.531,2.531,0,0,0,691.615,226.073ZM678.951,228.6a.255.255,0,0,1,.256-.254h12.408a.255.255,0,0,1,.254.254v2.795a.255.255,0,0,1-.254.256H679.207a.256.256,0,0,1-.256-.256Zm12.918,25.1a.255.255,0,0,1-.254.256H679.2a.255.255,0,0,1-.254-.256v-2.795a.255.255,0,0,1,.254-.254h12.41a.255.255,0,0,1,.254.254Zm0-5.576a.255.255,0,0,1-.254.254H679.2a.255.255,0,0,1-.254-.254v-2.795a.255.255,0,0,1,.254-.256h12.41a.255.255,0,0,1,.254.256Zm0-5.578a.255.255,0,0,1-.254.256H679.2a.255.255,0,0,1-.254-.256v-2.795a.255.255,0,0,1,.254-.254h12.41a.255.255,0,0,1,.254.254Zm0-5.576a.255.255,0,0,1-.254.254H679.2a.255.255,0,0,1-.254-.254v-2.795a.255.255,0,0,1,.254-.256h12.41a.255.255,0,0,1,.254.256v2.795Zm0,22.307a.255.255,0,0,1-.254.254H679.2a.255.255,0,0,1-.254-.254v-2.795a.255.255,0,0,1,.254-.256h12.41a.255.255,0,0,1,.254.256Z" transform="translate(-636.618 -188.228)" fill="#855db5"/>
              <path id="Trazado_106136" data-name="Trazado 106136" d="M701.943,220.322h-3.027a1.136,1.136,0,0,0,0,2.273h3.027a.255.255,0,0,1,.254.254v2.795a.255.255,0,0,1-.254.256H689.535a.256.256,0,0,1-.256-.256v-2.795a.255.255,0,0,1,.256-.254h4.075a1.136,1.136,0,0,0,0-2.273h-4.075a2.532,2.532,0,0,0-2.529,2.527v2.795a2.507,2.507,0,0,0,.421,1.393,2.5,2.5,0,0,0-.421,1.391v2.795a2.5,2.5,0,0,0,.421,1.391,2.5,2.5,0,0,0-.421,1.391V236.8a2.507,2.507,0,0,0,.421,1.393,2.5,2.5,0,0,0-.421,1.391v2.795a2.5,2.5,0,0,0,.421,1.391,2.5,2.5,0,0,0-.421,1.391v2.795a2.507,2.507,0,0,0,.421,1.392,2.5,2.5,0,0,0-.421,1.391v2.795a2.5,2.5,0,0,0,.421,1.391,2.507,2.507,0,0,0-.421,1.393V259.1a2.507,2.507,0,0,0,.421,1.393,2.5,2.5,0,0,0-.421,1.391v2.795a2.53,2.53,0,0,0,2.529,2.527h12.408a2.53,2.53,0,0,0,2.527-2.527v-2.795a2.5,2.5,0,0,0-.421-1.391,2.507,2.507,0,0,0,.421-1.393v-2.793a2.507,2.507,0,0,0-.421-1.393,2.5,2.5,0,0,0,.421-1.391v-2.795a2.5,2.5,0,0,0-.421-1.391,2.507,2.507,0,0,0,.421-1.392v-2.795a2.5,2.5,0,0,0-.421-1.391,2.5,2.5,0,0,0,.421-1.391V239.58a2.5,2.5,0,0,0-.421-1.391,2.507,2.507,0,0,0,.421-1.393V234a2.515,2.515,0,0,0-.419-1.391,2.515,2.515,0,0,0,.419-1.391v-2.795a2.5,2.5,0,0,0-.421-1.391,2.507,2.507,0,0,0,.421-1.393v-2.795a2.531,2.531,0,0,0-2.527-2.527ZM702.2,259.1a.255.255,0,0,1-.254.256H689.535a.256.256,0,0,1-.256-.256v-2.795a.255.255,0,0,1,.256-.254h12.408a.255.255,0,0,1,.254.254Zm0-5.576a.255.255,0,0,1-.254.254H689.535a.255.255,0,0,1-.256-.254v-2.795a.256.256,0,0,1,.256-.256h12.408a.255.255,0,0,1,.254.256Zm0-5.578a.255.255,0,0,1-.254.256H689.535a.256.256,0,0,1-.256-.256v-2.795a.255.255,0,0,1,.256-.254h12.408a.255.255,0,0,1,.254.254Zm0-5.576a.255.255,0,0,1-.254.254H689.535a.255.255,0,0,1-.256-.254V239.58a.256.256,0,0,1,.256-.256h12.408a.255.255,0,0,1,.254.256Zm0-5.578a.255.255,0,0,1-.254.256H689.535a.256.256,0,0,1-.256-.256V234a.255.255,0,0,1,.256-.254h12.408a.255.255,0,0,1,.254.254Zm0-5.576a.255.255,0,0,1-.254.254H689.535a.255.255,0,0,1-.256-.254v-2.795a.256.256,0,0,1,.256-.256h12.408a.255.255,0,0,1,.254.256Zm0,33.46a.255.255,0,0,1-.254.254H689.535a.256.256,0,0,1-.256-.254v-2.795a.256.256,0,0,1,.256-.256h12.408a.255.255,0,0,1,.254.256Z" transform="translate(-626.916 -193.63)" fill="#855db5"/>
            </g>
          </g>
        </g>
      </g>
    </g>
    <rect id="Rectángulo_5525" data-name="Rectángulo 5525" width="102" height="102" transform="translate(180 1807)" fill="none"/>
  </g>
</svg>
