<svg xmlns="http://www.w3.org/2000/svg" width="102" height="102" viewBox="0 0 102 102">
  <g id="Grupo_58739" data-name="Grupo 58739" transform="translate(-180 -1157)">
    <g id="Filled_outline" data-name="Filled outline" transform="translate(193 1170)">
      <path id="Trazado_106003" data-name="Trazado 106003" d="M646.733,207.409,609.89,244.25l4.221,4.221,18.647,18.647L669.6,230.275V207.409Zm15.246,10.162a2.532,2.532,0,1,1,.014,0Z" transform="translate(-603.538 -206.137)" fill="#c595ff"/>
      <path id="Trazado_106004" data-name="Trazado 106004" d="M643.333,222.572a2.759,2.759,0,0,0-1.7-5.055,2.845,2.845,0,0,0-4.455-3.123,2.9,2.9,0,0,0-5.506,0,2.845,2.845,0,0,0-4.455,3.123,2.759,2.759,0,0,0-1.7,5.055,2.758,2.758,0,0,0,1.7,5.053,2.845,2.845,0,0,0,4.455,3.123,2.9,2.9,0,0,0,5.506,0,2.845,2.845,0,0,0,4.455-3.123,2.757,2.757,0,0,0,1.7-5.053Z" transform="translate(-588.688 -200.973)" fill="#f9e478"/>
      <path id="Trazado_106005" data-name="Trazado 106005" d="M613.639,213.761a8.735,8.735,0,0,0,6.352-6.352,8.735,8.735,0,0,0,6.352,6.352,8.728,8.728,0,0,0-6.352,6.352A8.728,8.728,0,0,0,613.639,213.761Z" transform="translate(-599.664 -206.137)" fill="#f9e478"/>
      <path id="Trazado_106006" data-name="Trazado 106006" d="M638.007,232.4H649.44v22.866H638.007Z" transform="translate(-574.485 -180.312)" fill="#95f7ff"/>
      <path id="Trazado_106007" data-name="Trazado 106007" d="M669.643,236.859v19.056H630.118a10.107,10.107,0,0,1-4.544-1.074l-15.591-7.794a4.688,4.688,0,0,1,2.133-8.881l.547,0a4.687,4.687,0,0,1,2.05.492l14.278,7.092h5.081a5.082,5.082,0,0,1,0-10.164h11.01l2.515-1.415a18.666,18.666,0,0,1,19.894,1.006c.311.22.614.449.913.687Z" transform="translate(-606.121 -180.958)" fill="#dcbfff"/>
      <path id="Trazado_106008" data-name="Trazado 106008" d="M624.883,261.04l1.8-1.8L612.333,244.9l35.573-35.572h21.071v5.083h-2.759a3.812,3.812,0,1,0,0,2.54h2.759V230.4l-25.038,25.036,1.8,1.8,25.41-25.41a1.271,1.271,0,0,0,.372-.9v-6.352h3.81a5.081,5.081,0,0,0,0-10.162h-3.81v-6.352a1.271,1.271,0,0,0-1.271-1.271H647.379a1.271,1.271,0,0,0-.9.372L609.637,244a1.269,1.269,0,0,0,0,1.8h0Zm36.471-45.363a1.271,1.271,0,0,1,1.271-1.271v2.54A1.271,1.271,0,0,1,661.354,215.678Zm13.975,1.269a2.542,2.542,0,0,1,0,5.083h-3.81v-5.083Z" transform="translate(-604.183 -206.783)" fill="#855db5"/>
      <path id="Trazado_106009" data-name="Trazado 106009" d="M623.828,226.688a4.043,4.043,0,0,0,2.59,2.633,3.943,3.943,0,0,0,1.627,3.08,4.183,4.183,0,0,0,3.727.669,4.239,4.239,0,0,0,6.6,0,4.182,4.182,0,0,0,3.727-.669,3.942,3.942,0,0,0,1.627-3.08,4.043,4.043,0,0,0,2.59-2.633,3.887,3.887,0,0,0-.526-3.471,3.887,3.887,0,0,0,.526-3.471,4.05,4.05,0,0,0-2.59-2.635,3.941,3.941,0,0,0-1.627-3.078,4.183,4.183,0,0,0-3.727-.671,4.245,4.245,0,0,0-6.6,0,4.183,4.183,0,0,0-3.727.671,3.942,3.942,0,0,0-1.627,3.078,4.051,4.051,0,0,0-2.59,2.635,3.887,3.887,0,0,0,.526,3.471A3.887,3.887,0,0,0,623.828,226.688Zm3.036-4.53a1.4,1.4,0,0,1-.614-1.647,1.542,1.542,0,0,1,1.582-1.078,1.27,1.27,0,0,0,1.3-1.236,1.3,1.3,0,0,0-.077-.474,1.406,1.406,0,0,1,.51-1.657,1.621,1.621,0,0,1,1.995-.006,1.271,1.271,0,0,0,1.972-.649,1.631,1.631,0,0,1,3.076,0,1.27,1.27,0,0,0,1.972.649,1.621,1.621,0,0,1,1.994.006,1.406,1.406,0,0,1,.511,1.657,1.272,1.272,0,0,0,.752,1.633,1.3,1.3,0,0,0,.474.077,1.543,1.543,0,0,1,1.582,1.078,1.4,1.4,0,0,1-.614,1.647,1.269,1.269,0,0,0,0,2.119,1.4,1.4,0,0,1,.614,1.647A1.544,1.544,0,0,1,642.315,227a1.267,1.267,0,0,0-1.3,1.234,1.284,1.284,0,0,0,.077.474,1.409,1.409,0,0,1-.511,1.659,1.624,1.624,0,0,1-1.994.006,1.27,1.27,0,0,0-1.777.262,1.237,1.237,0,0,0-.2.386,1.631,1.631,0,0,1-3.076,0,1.27,1.27,0,0,0-1.586-.844,1.215,1.215,0,0,0-.386.2,1.624,1.624,0,0,1-1.995-.006,1.409,1.409,0,0,1-.51-1.659,1.27,1.27,0,0,0-.752-1.631,1.221,1.221,0,0,0-.474-.077,1.542,1.542,0,0,1-1.582-1.078,1.4,1.4,0,0,1,.614-1.647,1.267,1.267,0,0,0,0-2.119Z" transform="translate(-589.337 -201.618)" fill="#855db5"/>
      <path id="Trazado_106010" data-name="Trazado 106010" d="M612.57,229.583l7.621-7.621,1.8,1.8-7.623,7.623Z" transform="translate(-600.768 -191.1)" fill="#855db5"/>
      <path id="Trazado_106011" data-name="Trazado 106011" d="M614.444,231.459l7.621-7.623,1.8,1.8-7.623,7.621Z" transform="translate(-598.832 -189.163)" fill="#855db5"/>
      <path id="Trazado_106012" data-name="Trazado 106012" d="M616.318,233.332l7.621-7.621,1.8,1.8-7.623,7.623Z" transform="translate(-596.896 -187.226)" fill="#855db5"/>
      <path id="Trazado_106013" data-name="Trazado 106013" d="M618.192,235.208l7.621-7.623,1.8,1.8L619.987,237Z" transform="translate(-594.959 -185.289)" fill="#855db5"/>
      <path id="Trazado_106014" data-name="Trazado 106014" d="M621.94,233.27l3.81-3.81,1.8,1.8-3.81,3.812Z" transform="translate(-591.086 -183.352)" fill="#855db5"/>
      <path id="Trazado_106015" data-name="Trazado 106015" d="M620.067,220.634l1.8-1.8,3.095,3.1-1.8,1.8Z" transform="translate(-593.022 -194.327)" fill="#855db5"/>
      <path id="Trazado_106016" data-name="Trazado 106016" d="M622.41,222.979l1.8-1.8,7.94,7.94-1.8,1.8Z" transform="translate(-590.601 -191.906)" fill="#855db5"/>
      <path id="Trazado_106017" data-name="Trazado 106017" d="M613.976,215.64a7.443,7.443,0,0,1,5.429,5.427,1.27,1.27,0,0,0,2.465,0,7.443,7.443,0,0,1,5.429-5.427,1.27,1.27,0,0,0,0-2.464,7.449,7.449,0,0,1-5.429-5.429,1.27,1.27,0,0,0-2.465,0,7.449,7.449,0,0,1-5.429,5.429,1.27,1.27,0,0,0,0,2.464Zm6.661-4.38a9.982,9.982,0,0,0,3.147,3.148,9.961,9.961,0,0,0-3.147,3.148,9.965,9.965,0,0,0-3.148-3.148A9.986,9.986,0,0,0,620.637,211.26Z" transform="translate(-600.31 -206.783)" fill="#855db5"/>
      <path id="Trazado_106018" data-name="Trazado 106018" d="M631.937,233.7l9.579-9.579,1.8,1.8-9.581,9.581Z" transform="translate(-580.757 -188.865)" fill="#855db5"/>
      <path id="Trazado_106019" data-name="Trazado 106019" d="M637.56,224.506l2.54-2.542,1.8,1.8-2.542,2.54Z" transform="translate(-574.946 -191.097)" fill="#855db5"/>
      <path id="Trazado_106020" data-name="Trazado 106020" d="M681.721,232.423H670.288a1.27,1.27,0,0,0-1.271,1.271v1.2a19.923,19.923,0,0,0-21.4-1.185l-2.227,1.25H634.716a6.35,6.35,0,0,0-5.242,9.937l-13.552-6.732a6,6,0,0,0-2.6-.622l-.547,0a5.959,5.959,0,0,0-2.71,11.289l15.589,7.8a11.5,11.5,0,0,0,5.114,1.206h50.958a1.27,1.27,0,0,0,1.271-1.271V233.694a1.269,1.269,0,0,0-1.271-1.271Zm-54.935,21.929-15.589-7.8a3.419,3.419,0,0,1,1.527-6.476h.029l.545,0a3.469,3.469,0,0,1,1.495.358l14.278,7.092a1.264,1.264,0,0,0,.565.134h16.515a1.271,1.271,0,0,0,0-2.542H634.716a3.811,3.811,0,1,1,0-7.623h11.01a1.28,1.28,0,0,0,.622-.163l2.515-1.415a17.388,17.388,0,0,1,19.389,1.578l.765.61v17.177H630.763A8.936,8.936,0,0,1,626.786,254.352Zm53.667.939h-8.893V234.963h8.893Z" transform="translate(-606.766 -181.604)" fill="#855db5"/>
      <path id="Trazado_106021" data-name="Trazado 106021" d="M641.787,243.085a1.905,1.905,0,1,0-1.905-1.905h0A1.905,1.905,0,0,0,641.787,243.085Z" transform="translate(-572.547 -173.21)" fill="#855db5"/>
      <path id="Trazado_106022" data-name="Trazado 106022" d="M618.817,223.133l1.8-1.8L630.777,231.5l-1.8,1.8Z" transform="translate(-594.314 -191.744)" fill="#855db5"/>
    </g>
    <rect id="Rectángulo_5525" data-name="Rectángulo 5525" width="102" height="102" transform="translate(180 1157)" fill="none"/>
  </g>
</svg>
