<svg xmlns="http://www.w3.org/2000/svg" width="102" height="102" viewBox="0 0 102 102">
  <g id="Grupo_58738" data-name="Grupo 58738" transform="translate(-180 -1337)">
    <g id="Grupo_58673" data-name="Grupo 58673" transform="translate(193 1350)">
      <path id="Trazado_105984" data-name="Trazado 105984" d="M630.258,280.783H622.09l-14.7,14.4,8.168,8.471,14.7-14.4Z" transform="translate(-606.12 -228.694)" fill="#95f7ff"/>
      <path id="Trazado_105985" data-name="Trazado 105985" d="M631.134,281.2h9.075l16.334-16-9.075-9.41-16.334,16Z" transform="translate(-581.587 -254.519)" fill="#f17781"/>
      <path id="Trazado_105986" data-name="Trazado 105986" d="M622.386,275.784l5.3,17.787h19.644l5.545-17.787Z" transform="translate(-590.626 -233.859)" fill="#c595ff"/>
      <g id="Grupo_58672" data-name="Grupo 58672" transform="translate(39.384 69.875)">
        <circle id="Elipse_4094" data-name="Elipse 4094" cx="2.541" cy="2.541" r="2.541" fill="#dbe6fd"/>
        <circle id="Elipse_4095" data-name="Elipse 4095" cx="2.541" cy="2.541" r="2.541" transform="translate(13.975)" fill="#dbe6fd"/>
      </g>
      <path id="Trazado_105987" data-name="Trazado 105987" d="M642.964,291.363v-12.7l-22.4-22.869-13.174,12.7,22.4,22.869Z" transform="translate(-606.12 -254.519)" fill="#f9e478"/>
      <path id="Trazado_105988" data-name="Trazado 105988" d="M647.98,295.488H628.334a1.27,1.27,0,0,1-1.216-.909l-5.3-17.785a1.271,1.271,0,0,1,.854-1.582,1.287,1.287,0,0,1,.362-.053h30.492a1.271,1.271,0,0,1,1.271,1.271,1.252,1.252,0,0,1-.057.378l-5.543,17.785A1.276,1.276,0,0,1,647.98,295.488Zm-18.7-2.542h17.763L651.8,277.7H624.737Z" transform="translate(-591.271 -234.505)" fill="#855db5"/>
      <path id="Trazado_105989" data-name="Trazado 105989" d="M626.135,278.283H641.38v2.542H626.135v-2.542Z" transform="translate(-586.752 -231.277)" fill="#855db5"/>
      <path id="Trazado_105990" data-name="Trazado 105990" d="M626.76,280.783h12.7v2.54h-12.7Z" transform="translate(-586.106 -228.694)" fill="#855db5"/>
      <path id="Trazado_105991" data-name="Trazado 105991" d="M659.209,274.534a1.271,1.271,0,0,0-1.192.832l-8.586,23.308H623.636v2.542h6.352v2.775a3.811,3.811,0,1,0,2.542,0v-2.775h11.433v2.775a3.811,3.811,0,1,0,2.542,0v-2.775h3.81a1.272,1.272,0,0,0,1.194-.832l8.587-23.308h5.465v-2.542Zm-27.95,34.3a1.271,1.271,0,1,1,1.271-1.271A1.271,1.271,0,0,1,631.259,308.838Zm13.975,0a1.271,1.271,0,1,1,1.271-1.271A1.271,1.271,0,0,1,645.234,308.838Z" transform="translate(-589.334 -235.151)" fill="#855db5"/>
      <path id="Trazado_105992" data-name="Trazado 105992" d="M643.609,293.279H630.9a1.27,1.27,0,0,1-.9-.372l-22.869-22.868a1.272,1.272,0,0,1,0-1.8h0l12.7-12.7a1.269,1.269,0,0,1,1.8,0h0l22.867,22.869a1.273,1.273,0,0,1,.374.9v12.7a1.271,1.271,0,0,1-1.271,1.271Zm-12.179-2.542h10.909V279.829l-21.6-21.6L609.832,269.14Z" transform="translate(-606.766 -255.165)" fill="#855db5"/>
      <path id="Trazado_105993" data-name="Trazado 105993" d="M637.761,270.326a3.5,3.5,0,0,1-2.477-5.978l1.8,1.8a.963.963,0,1,0,1.362,1.36c.344-.344.4-.47-.228-1.667-.569-1.084-1.523-2.9.228-4.648a3.5,3.5,0,1,1,4.955,4.951l0,0-1.8-1.8a.962.962,0,1,0-1.36-1.36c-.346.346-.4.472.226,1.671.569,1.084,1.521,2.9-.226,4.644A3.491,3.491,0,0,1,637.761,270.326Z" transform="translate(-578.358 -250.001)" fill="#855db5"/>
      <path id="Trazado_105994" data-name="Trazado 105994" d="M614.582,292.485a3.127,3.127,0,0,1-2.212-5.341l1.8,1.8a.591.591,0,1,0,.833.838l0,0c.205-.207.244-.244-.228-1.141a3.176,3.176,0,0,1,.228-4.122,3.131,3.131,0,1,1,4.429,4.427l-1.8-1.8a.59.59,0,0,0-.832-.838l0,0c-.209.21-.246.246.226,1.145a3.175,3.175,0,0,1-.226,4.117,3.123,3.123,0,0,1-2.216.915Z" transform="translate(-601.925 -225.789)" fill="#855db5"/>
      <path id="Trazado_105995" data-name="Trazado 105995" d="M640.674,283.115H631.78a1.27,1.27,0,0,1-1.271-1.269v-8.9a1.27,1.27,0,0,1,.372-.9L647.4,255.537a1.269,1.269,0,0,1,1.8,0h0l8.894,8.894a1.269,1.269,0,0,1,0,1.8h0L641.57,282.743a1.27,1.27,0,0,1-.9.372Zm-7.623-2.542h7.1l15.246-15.244-7.1-7.1-15.246,15.246Z" transform="translate(-582.232 -255.165)" fill="#855db5"/>
      <path id="Trazado_105996" data-name="Trazado 105996" d="M616.928,305.566a1.253,1.253,0,0,1-.9-.372l-8.894-8.892a1.272,1.272,0,0,1,0-1.8h0l13.975-13.975a1.271,1.271,0,0,1,.9-.372H630.9a1.27,1.27,0,0,1,1.271,1.269v8.9a1.27,1.27,0,0,1-.372.9l-13.975,13.975a1.254,1.254,0,0,1-.9.372Zm-7.1-10.162,7.1,7.1,12.706-12.7v-7.1h-7.1Z" transform="translate(-606.766 -229.34)" fill="#855db5"/>
      <path id="Trazado_105997" data-name="Trazado 105997" d="M622.417,272.723a1.906,1.906,0,1,1,1.905-1.907A1.907,1.907,0,0,1,622.417,272.723Z" transform="translate(-592.562 -240.961)" fill="#855db5"/>
      <path id="Trazado_105998" data-name="Trazado 105998" d="M626.421,273.024a4.235,4.235,0,0,0-.746-4.955c-2.107-2.111-4.266-.978-5.7-.226-1.543.809-2.011.935-2.723.226a1.706,1.706,0,0,1,2.412-2.414l1.8-1.8a4.239,4.239,0,0,0-4.955-.746l-2.141-2.141-1.8,1.8,2.141,2.141a4.239,4.239,0,0,0,.746,4.955c2.111,2.113,4.272.978,5.7.228,1.539-.809,2.007-.937,2.718-.228a1.707,1.707,0,0,1-2.413,2.413l-1.8,1.8a4.188,4.188,0,0,0,4.955.744l1.921,1.924,1.8-1.8Z" transform="translate(-600.767 -249.166)" fill="#855db5"/>
      <path id="Trazado_105999" data-name="Trazado 105999" d="M629.884,270.161h2.542v2.54h-2.542Z" transform="translate(-582.878 -239.67)" fill="#855db5"/>
      <path id="Trazado_106000" data-name="Trazado 106000" d="M629.884,272.66h2.542V275.2h-2.542Z" transform="translate(-582.878 -237.087)" fill="#855db5"/>
      <path id="Trazado_106001" data-name="Trazado 106001" d="M619.262,275.159H621.8V277.7h-2.542Z" transform="translate(-593.854 -234.505)" fill="#855db5"/>
      <path id="Trazado_106002" data-name="Trazado 106002" d="M619.262,277.659H621.8v2.54h-2.542Z" transform="translate(-593.854 -231.922)" fill="#855db5"/>
    </g>
    <rect id="Rectángulo_5525" data-name="Rectángulo 5525" width="102" height="102" transform="translate(180 1337)" fill="none"/>
  </g>
</svg>
