<svg xmlns="http://www.w3.org/2000/svg" width="102" height="102" viewBox="0 0 102 102">
  <g id="Grupo_58746" data-name="Grupo 58746" transform="translate(-180 -2395)">
    <g id="Grupo_58676" data-name="Grupo 58676" transform="translate(188 2409)">
      <path id="Trazado_106031" data-name="Trazado 106031" d="M525.19,222.133h17.181V252.2H525.19Z" transform="translate(-477.946 -189.204)" fill="#c595ff"/>
      <path id="Trazado_106032" data-name="Trazado 106032" d="M511.458,222.133h25.77V252.2h-25.77Z" transform="translate(-489.984 -189.204)" fill="#bb83ff"/>
      <path id="Trazado_106033" data-name="Trazado 106033" d="M500.778,230.525h12.885V247.7H500.778Z" transform="translate(-499.346 -181.848)" fill="#f9e478"/>
      <path id="Trazado_106034" data-name="Trazado 106034" d="M507.644,232.051h3.947a14.663,14.663,0,0,1,10.37,4.3l5.726,0a2.863,2.863,0,0,1,2.864,2.864h0a2.863,2.863,0,0,1-2.864,2.864h8.591a2.862,2.862,0,0,1,2.862,2.862v0a2.862,2.862,0,0,1-2.862,2.862H523.393a21.477,21.477,0,0,1-12.885-4.294h-2.864Z" transform="translate(-493.327 -180.51)" fill="#dcbfff"/>
      <path id="Trazado_106035" data-name="Trazado 106035" d="M551.346,232.813l-4.436,1.9a31.527,31.527,0,0,0-9.88,6.688H531.3a2.864,2.864,0,0,0-2.864,2.862h0a2.863,2.863,0,0,0,2.864,2.864h-8.589a2.863,2.863,0,0,0-2.864,2.864h0a2.863,2.863,0,0,0,2.864,2.864h14.478a15.744,15.744,0,0,0,13.1-7.013l1.051-1.578Z" transform="translate(-482.627 -179.842)" fill="#dcbfff"/>
      <path id="Trazado_106036" data-name="Trazado 106036" d="M515.273,222.133v10.021l2.862-2.864L521,232.154l2.864-2.864,2.864,2.864V222.133Z" transform="translate(-486.639 -189.204)" fill="#f9e478"/>
      <path id="Trazado_106037" data-name="Trazado 106037" d="M536.633,231.288h15.749v17.179H536.633Z" transform="translate(-467.914 -181.179)" fill="#f9e478"/>
      <path id="Trazado_106038" data-name="Trazado 106038" d="M584.483,238.551H568.734a1.43,1.43,0,0,0-1.43,1.432h0V241.9l-1.432.614V222.8a1.433,1.433,0,0,0-1.432-1.432H521.49a1.433,1.433,0,0,0-1.432,1.432h0v17.28a16.1,16.1,0,0,0-1.779-.1h-2.515v-1.432a1.432,1.432,0,0,0-1.432-1.432H501.447a1.432,1.432,0,0,0-1.432,1.432h0V255.73a1.432,1.432,0,0,0,1.432,1.432h12.885a1.432,1.432,0,0,0,1.432-1.432h0V254.3h.963a23.049,23.049,0,0,0,13.354,4.3h5.971a4.3,4.3,0,0,0,4.05,5.728H554.58a17.145,17.145,0,0,0,13.155-6.135,1.43,1.43,0,0,0,1,.407h15.749a1.432,1.432,0,0,0,1.432-1.432h0V239.983a1.43,1.43,0,0,0-1.432-1.432ZM512.9,254.3H502.879V239.983H512.9Zm50.108-10.545A32.807,32.807,0,0,0,553.832,250h-5.14v-25.77h14.317Zm-32.928-19.519h8.589v5.133l-.42-.418a1.429,1.429,0,0,0-2.023,0l-1.852,1.85-1.85-1.85a1.432,1.432,0,0,0-2.025,0l-.418.418Zm-7.159,0h4.3v8.589a1.432,1.432,0,0,0,2.443,1.013l1.85-1.852,1.852,1.852a1.432,1.432,0,0,0,2.025,0l1.85-1.852,1.85,1.852a1.433,1.433,0,0,0,2.445-1.013v-8.589h4.294V251.1l0,0a4.263,4.263,0,0,0-2.862-1.1h-4.54a4.294,4.294,0,0,0-4.05-5.728h0l-5.15,0a15.966,15.966,0,0,0-6.3-3.616Zm-4.868,27.487a1.427,1.427,0,0,0-.858-.285h-1.432v-8.591h2.515a13.144,13.144,0,0,1,9.357,3.877,1.433,1.433,0,0,0,1.013.42h0l5.726,0a1.432,1.432,0,0,1,0,2.864h-7.158v2.864h15.747a1.431,1.431,0,0,1,0,2.862H530.081a20.15,20.15,0,0,1-12.027-4.009Zm48.438,3.361a14.287,14.287,0,0,1-11.911,6.375H540.1a1.432,1.432,0,0,1-.064-2.864h15.811V255.73h-7.157a1.431,1.431,0,1,1,0-2.862h5.726a1.432,1.432,0,0,0,1.013-.418,29.984,29.984,0,0,1,9.43-6.386l.828-.355h.184v-.079l1.432-.614v8.848Zm16.56.647H570.166V241.414h12.885Z" transform="translate(-500.015 -189.873)" fill="#855db5"/>
      <path id="Trazado_106039" data-name="Trazado 106039" d="M514.8,209.927h-5.726a1.43,1.43,0,0,0-1.432,1.432h0v5.726h2.864v-2.269l7.576,7.576,2.025-2.023-7.578-7.578H514.8Z" transform="translate(-493.327 -199.905)" fill="#855db5"/>
      <path id="Trazado_106040" data-name="Trazado 106040" d="M504.729,229.919l2.025-2.025-1.85-1.85h9.428V223.18H504.9l1.85-1.85-2.025-2.025-4.3,4.3a1.433,1.433,0,0,0,0,2.023h0Z" transform="translate(-500.015 -191.684)" fill="#855db5"/>
      <path id="Trazado_106041" data-name="Trazado 106041" d="M526.812,223.2V209.474l1.852,1.852,2.025-2.025-4.3-4.3a1.432,1.432,0,0,0-2.025,0h0l-4.3,4.3,2.025,2.025,1.852-1.852V223.2Z" transform="translate(-482.431 -204.587)" fill="#855db5"/>
      <path id="Trazado_106042" data-name="Trazado 106042" d="M543.982,217.085v-5.726a1.43,1.43,0,0,0-1.432-1.432h-5.726v2.864h2.271l-7.578,7.578,2.025,2.023,7.576-7.576v2.269Z" transform="translate(-472.399 -199.905)" fill="#855db5"/>
      <path id="Trazado_106043" data-name="Trazado 106043" d="M547.762,219.305l-2.025,2.025,1.85,1.85h-9.428v2.864h9.428l-1.85,1.85,2.025,2.025,4.3-4.3a1.431,1.431,0,0,0,0-2.023h0Z" transform="translate(-466.576 -191.684)" fill="#855db5"/>
    </g>
    <rect id="Rectángulo_5525" data-name="Rectángulo 5525" width="102" height="102" transform="translate(180 2395)" fill="none"/>
  </g>
</svg>
