<svg xmlns="http://www.w3.org/2000/svg" width="102" height="102" viewBox="0 0 102 102">
  <g id="Grupo_58747" data-name="Grupo 58747" transform="translate(-180 -2529)">
    <g id="Grupo_58675" data-name="Grupo 58675" transform="translate(191 2538)">
      <path id="Trazado_106023" data-name="Trazado 106023" d="M466.528,259.145h5.631v53.9h-5.631Z" transform="translate(-438.957 -251.325)" fill="#e8e7e9"/>
      <path id="Trazado_106024" data-name="Trazado 106024" d="M469.178,261.478h31.345l-9.393,9.391-9.246,9.246H469.178Z" transform="translate(-435.976 -248.7)" fill="#f17781"/>
      <path id="Trazado_106025" data-name="Trazado 106025" d="M495.06,286.228h10.3l-10.375-10.375,9.956-9.956H487.1l-9.246,9.246h-5.1v11.085Z" transform="translate(-431.947 -243.728)" fill="#f17781"/>
      <path id="Trazado_106026" data-name="Trazado 106026" d="M454.335,306.062l15.76-19.181a6.5,6.5,0,0,1,5.017-2.372h16.2a6.5,6.5,0,0,1,4.962,2.3l16.293,19.3Z" transform="translate(-452.676 -222.787)" fill="#c595ff"/>
      <path id="Trazado_106027" data-name="Trazado 106027" d="M501.979,300.553l-6.89-8.69A6.489,6.489,0,0,0,490,289.405h-3.207a6.5,6.5,0,0,0-4.949,2.289l-2.484,2.926,5.049,5.98Z" transform="translate(-424.519 -217.279)" fill="#c595ff"/>
      <path id="Trazado_106028" data-name="Trazado 106028" d="M476.182,262.407h-8.726a3.08,3.08,0,1,1,0-6.161h8.726a3.08,3.08,0,1,1,0,6.161Z" transform="translate(-441.38 -254.586)" fill="#e8e7e9"/>
      <g id="Grupo_58674" data-name="Grupo 58674">
        <path id="Trazado_106029" data-name="Trazado 106029" d="M532.314,337.709l-6.89-8.69a8.105,8.105,0,0,0-6.388-3.088H515.83a8.137,8.137,0,0,0-6.214,2.875l-1.216,1.43-9.98-11.816a8.135,8.135,0,0,0-6.231-2.894h-3.774V288.54h4.291v9.425a1.658,1.658,0,0,0,1.66,1.66h7.54a1.66,1.66,0,1,0,0-3.319h-5.88V288.54h3.436a1.66,1.66,0,0,0,1.173-.484l8.76-8.762h13.144l-7.123,7.123a1.661,1.661,0,0,0,0,2.348l7.542,7.542h-6.29a1.66,1.66,0,1,0,0,3.319h10.3a1.661,1.661,0,0,0,1.173-2.835l-9.2-9.2,8.783-8.781a1.661,1.661,0,0,0-1.173-2.835h-13.83l6.558-6.558a1.66,1.66,0,0,0-1.173-2.833H488.416v-1.641a4.739,4.739,0,0,0-.059-9.478h-8.726a4.739,4.739,0,0,0-.166,9.476v50.586h-3.475a8.133,8.133,0,0,0-6.3,2.977l-15.758,19.183a1.659,1.659,0,1,0,2.565,2.106l15.758-19.181a4.821,4.821,0,0,1,3.736-1.766h5.115l.019,0h5.631l.019,0h5.417a4.827,4.827,0,0,1,3.691,1.715L509.091,336.2l3.088,3.657a1.654,1.654,0,0,0,.918.55,1.612,1.612,0,0,0,.351.038c.047,0,.1,0,.14-.006a1.661,1.661,0,0,0,1.126-2.724l-4.142-4.907,1.573-1.853a4.825,4.825,0,0,1,3.685-1.7h3.207a4.81,4.81,0,0,1,3.787,1.83l6.892,8.692a1.659,1.659,0,1,0,2.6-2.063Zm-43.9-67.806h25.678l-6.558,6.558h0l-8.762,8.76H488.416Zm-10.207-9.7a1.423,1.423,0,0,1,1.422-1.42h8.726a1.421,1.421,0,1,1,0,2.841h-8.726A1.423,1.423,0,0,1,478.209,260.2Zm4.575,4.741H485.1v50.582h-2.312Z" transform="translate(-453.554 -255.465)" fill="#9572bf"/>
        <path id="Trazado_106030" data-name="Trazado 106030" d="M482.012,275.421a1.66,1.66,0,1,0-.206,2.1A1.672,1.672,0,0,0,482.012,275.421Z" transform="translate(-424.956 -233.841)" fill="#9572bf"/>
      </g>
    </g>
    <rect id="Rectángulo_5525" data-name="Rectángulo 5525" width="102" height="102" transform="translate(180 2529)" fill="none"/>
  </g>
</svg>
