<svg xmlns="http://www.w3.org/2000/svg" width="102" height="102" viewBox="0 0 102 102">
  <g id="Grupo_58744" data-name="Grupo 58744" transform="translate(-180 -2121)">
    <g id="Grupo_58681" data-name="Grupo 58681" transform="translate(192 2137)">
      <path id="Trazado_106072" data-name="Trazado 106072" d="M561.475,293.094a19.627,19.627,0,0,0,5.759-13.722c0-11.711-11.759-21.2-25.144-21.2s-24.235,9.494-24.235,21.2l24.235,21.207a32.127,32.127,0,0,0,10.937-1.9,15.1,15.1,0,0,0,11.177,4.924A10.714,10.714,0,0,1,561.475,293.094Z" transform="translate(-491.194 -256.652)" fill="#dcbfff"/>
      <path id="Trazado_106073" data-name="Trazado 106073" d="M541.848,272.7c7.038,3.711,11.746,10.461,11.746,18.176,0,11.711-10.85,21.207-24.235,21.207a32.135,32.135,0,0,1-10.939-1.9,15.108,15.108,0,0,1-11.177,4.924,10.708,10.708,0,0,0,2.728-10.513,19.637,19.637,0,0,1-5.757-13.722c0-11.711,11.757-21.207,25.144-21.207A26.747,26.747,0,0,1,541.848,272.7Z" transform="translate(-502.699 -246.95)" fill="#c595ff"/>
      <path id="Trazado_106074" data-name="Trazado 106074" d="M525.119,265.562a1.514,1.514,0,1,0,1.515,1.515A1.515,1.515,0,0,0,525.119,265.562Z" transform="translate(-486.343 -250.415)" fill="#855db5"/>
      <path id="Trazado_106075" data-name="Trazado 106075" d="M511.479,281.738a1.514,1.514,0,1,0-1.513-1.513A1.515,1.515,0,0,0,511.479,281.738Z" transform="translate(-497.847 -239.326)" fill="#855db5"/>
      <path id="Trazado_106076" data-name="Trazado 106076" d="M554.287,257.345c-13.638,0-24.829,9.4-25.7,21.245-12.987.651-25.2,10.015-25.2,22.682a21.158,21.158,0,0,0,5.908,14.486,9.213,9.213,0,0,1-2.435,8.679,1.515,1.515,0,0,0,1.071,2.586,16.709,16.709,0,0,0,11.577-4.679,34.539,34.539,0,0,0,10.539,1.648c13.634,0,24.825-9.4,25.694-21.24a34.078,34.078,0,0,0,9.081-1.615,16.708,16.708,0,0,0,11.575,4.679,1.513,1.513,0,0,0,1.071-2.584,9.219,9.219,0,0,1-2.433-8.681,21.166,21.166,0,0,0,5.908-14.486C580.947,266.9,567.792,257.345,554.287,257.345Zm-24.235,63.618a30.625,30.625,0,0,1-10.378-1.788,1.516,1.516,0,0,0-1.678.385,13.649,13.649,0,0,1-6.8,4.033,12.235,12.235,0,0,0,.924-9.014,1.51,1.51,0,0,0-.371-.642,18.2,18.2,0,0,1-5.329-12.666c0-10.673,10.821-19.691,23.631-19.691,12.095,0,22.72,8.412,22.72,19.691C552.772,312.13,542.58,320.963,530.052,320.963Zm42.535-28.23a1.505,1.505,0,0,0-.371.64,12.257,12.257,0,0,0,.924,9.016,13.669,13.669,0,0,1-6.8-4.035,1.518,1.518,0,0,0-1.679-.383,29.9,29.9,0,0,1-8.924,1.749,21.686,21.686,0,0,0-8.185-15.111h19.758a1.514,1.514,0,1,0,0-3.029H542.9A28.261,28.261,0,0,0,531.63,278.6c.87-10.174,10.7-18.222,22.657-18.222,12.808,0,23.629,9.018,23.629,19.691A18.207,18.207,0,0,1,572.587,292.733Z" transform="translate(-503.392 -257.345)" fill="#855db5"/>
      <path id="Trazado_106077" data-name="Trazado 106077" d="M533.852,278.709H514.767a1.514,1.514,0,1,0,0,3.029h19.085a1.514,1.514,0,1,0,0-3.029Z" transform="translate(-495.076 -239.326)" fill="#855db5"/>
      <path id="Trazado_106078" data-name="Trazado 106078" d="M536.624,283.639H511.479a1.515,1.515,0,0,0,0,3.031h25.144a1.515,1.515,0,1,0,0-3.031Z" transform="translate(-497.847 -235.168)" fill="#855db5"/>
      <path id="Trazado_106079" data-name="Trazado 106079" d="M547.492,265.562H528.407a1.514,1.514,0,1,0,0,3.029h19.085a1.514,1.514,0,1,0,0-3.029Z" transform="translate(-483.572 -250.415)" fill="#855db5"/>
    </g>
    <rect id="Rectángulo_5525" data-name="Rectángulo 5525" width="102" height="102" transform="translate(180 2121)" fill="none"/>
  </g>
</svg>
