<svg xmlns="http://www.w3.org/2000/svg" width="102" height="102" viewBox="0 0 102 102">
  <g id="Grupo_58748" data-name="Grupo 58748" transform="translate(-180 -2673)">
    <g id="Grupo_58678" data-name="Grupo 58678" transform="translate(191 2682)">
      <g id="Grupo_58677" data-name="Grupo 58677" transform="translate(12.941 1.337)">
        <path id="Trazado_106044" data-name="Trazado 106044" d="M495.452,220.755l-4.281,4.173,1.013,5.9-5.294-2.782L481.6,230.83l1.013-5.9-4.295-4.173,5.929-.864,2.647-5.361,2.647,5.361Z" transform="translate(-434.599 -193.502)" fill="#f9e478"/>
        <path id="Trazado_106045" data-name="Trazado 106045" d="M490,210.148l-4.281,4.173,1.013,5.9-5.308-2.782-5.294,2.782,1.013-5.9-4.281-4.173,5.929-.851,2.633-5.375,2.647,5.375Z" transform="translate(-439.96 -203.923)" fill="#f9e478"/>
        <path id="Trazado_106046" data-name="Trazado 106046" d="M484.485,220.755l-4.281,4.173,1.013,5.9-5.294-2.782-5.294,2.782,1.013-5.9-4.281-4.173,5.915-.864,2.647-5.361,2.647,5.361Z" transform="translate(-445.361 -193.502)" fill="#f9e478"/>
        <path id="Trazado_106047" data-name="Trazado 106047" d="M479.035,210.148l-4.281,4.173,1,5.9-5.281-2.782-5.307,2.782,1.013-5.9-4.281-4.173,5.929-.851,2.647-5.375,2.633,5.375Z" transform="translate(-450.729 -203.923)" fill="#f9e478"/>
        <path id="Trazado_106048" data-name="Trazado 106048" d="M473.4,220.755l-4.295,4.173,1.013,5.9-5.294-2.782-5.294,2.782,1.013-5.9-4.281-4.173,5.915-.864,2.647-5.361,2.647,5.361Z" transform="translate(-456.264 -193.502)" fill="#f9e478"/>
      </g>
      <path id="Trazado_106049" data-name="Trazado 106049" d="M485.358,220.12l-5.214-.755-2.335-4.768a1.394,1.394,0,0,0-1.217-.783h0a1.393,1.393,0,0,0-1.215.783l-2.321,4.754-5.214.755a1.347,1.347,0,0,0-1.094.92,1.366,1.366,0,0,0,.339,1.39l3.767,3.687-.89,5.2a1.361,1.361,0,0,0,.539,1.322,1.3,1.3,0,0,0,.8.258,1.525,1.525,0,0,0,.634-.149l4.659-2.458,4.673,2.458a1.322,1.322,0,0,0,1.419-.109,1.351,1.351,0,0,0,.539-1.322l-.89-5.2,3.767-3.687a1.36,1.36,0,0,0,.339-1.39A1.313,1.313,0,0,0,485.358,220.12Zm-5.416,4.538a1.351,1.351,0,0,0-.393,1.19l.555,3.2-2.876-1.513a1.336,1.336,0,0,0-.623-.149,1.494,1.494,0,0,0-.634.149l-2.863,1.513.553-3.2a1.317,1.317,0,0,0-.391-1.19l-2.324-2.268,3.214-.46a1.316,1.316,0,0,0,1.013-.743l1.431-2.9,1.431,2.9a1.366,1.366,0,0,0,1.013.743l3.216.46Z" transform="translate(-433.09 -192.867)" fill="#855db5"/>
      <path id="Trazado_106050" data-name="Trazado 106050" d="M474.267,220.087l-5.214-.755-2.335-4.728a1.357,1.357,0,0,0-2.433,0l-2.335,4.728-5.214.755a1.343,1.343,0,0,0-1.092.918,1.364,1.364,0,0,0,.337,1.392l3.781,3.687-.89,5.186a1.361,1.361,0,0,0,.539,1.322,1.375,1.375,0,0,0,1.418.109l4.673-2.458,4.673,2.458a1.368,1.368,0,0,0,1.419-.109,1.351,1.351,0,0,0,.539-1.322l-.89-5.2,3.781-3.687a1.355,1.355,0,0,0,.337-1.39A1.329,1.329,0,0,0,474.267,220.087Zm-5.43,4.538a1.368,1.368,0,0,0-.393,1.2l.555,3.2-2.877-1.513a1.378,1.378,0,0,0-1.257,0l-2.877,1.513.555-3.2a1.346,1.346,0,0,0-.393-1.2l-2.323-2.268,3.216-.46a1.316,1.316,0,0,0,1.011-.743l1.433-2.916,1.431,2.916a1.362,1.362,0,0,0,1.013.743l3.214.46Z" transform="translate(-443.999 -192.834)" fill="#855db5"/>
      <path id="Trazado_106051" data-name="Trazado 106051" d="M496.324,220.087l-5.212-.755-2.337-4.728a1.355,1.355,0,0,0-2.43,0l-2.335,4.728-5.214.755A1.348,1.348,0,0,0,477.7,221a1.369,1.369,0,0,0,.339,1.392l3.781,3.687-.892,5.2a1.357,1.357,0,0,0,1.959,1.433l4.673-2.458,4.673,2.458a1.368,1.368,0,0,0,1.419-.109,1.354,1.354,0,0,0,.539-1.324l-.892-5.2,3.783-3.687a1.358,1.358,0,0,0,.337-1.392A1.344,1.344,0,0,0,496.324,220.087Zm-5.428,4.538a1.363,1.363,0,0,0-.393,1.2l.555,3.2-2.877-1.513a1.311,1.311,0,0,0-.622-.149,1.435,1.435,0,0,0-.621.149l-2.877,1.513.553-3.2a1.339,1.339,0,0,0-.391-1.2l-2.323-2.268,3.214-.46a1.316,1.316,0,0,0,1.013-.743l1.431-2.916,1.431,2.916A1.366,1.366,0,0,0,490,221.9l3.216.46Z" transform="translate(-422.328 -192.834)" fill="#855db5"/>
      <path id="Trazado_106052" data-name="Trazado 106052" d="M477.219,221.98a1.352,1.352,0,0,0,.541-1.324l-.892-5.2,3.769-3.685a1.356,1.356,0,0,0-.757-2.31l-5.212-.757-2.323-4.712a1.353,1.353,0,0,0-1.215-.743h0a1.354,1.354,0,0,0-1.215.743l-2.337,4.726-5.2.757a1.348,1.348,0,0,0-1.094.918,1.334,1.334,0,0,0,.337,1.378l3.769,3.685-.892,5.2a1.367,1.367,0,0,0,.541,1.324,1.314,1.314,0,0,0,.8.256,1.39,1.39,0,0,0,.62-.149l4.673-2.458,4.659,2.458A1.4,1.4,0,0,0,477.219,221.98Zm-5.456-5.065a1.374,1.374,0,0,0-1.255,0l-2.877,1.513.553-3.2a1.313,1.313,0,0,0-.393-1.19l-2.321-2.268,3.214-.46a1.316,1.316,0,0,0,1.013-.743l1.431-2.9,1.431,2.9a1.362,1.362,0,0,0,1.013.743l3.214.46-2.322,2.268a1.351,1.351,0,0,0-.393,1.19l.553,3.2Z" transform="translate(-438.458 -203.248)" fill="#855db5"/>
      <path id="Trazado_106053" data-name="Trazado 106053" d="M488.187,221.98a1.356,1.356,0,0,0,.541-1.324l-.892-5.2,3.769-3.685a1.357,1.357,0,0,0-.757-2.31l-5.212-.757-2.337-4.712a1.353,1.353,0,0,0-1.215-.743h0a1.353,1.353,0,0,0-1.215.743l-2.324,4.726-5.212.757a1.348,1.348,0,0,0-1.094.918,1.334,1.334,0,0,0,.337,1.378l3.769,3.685-.892,5.2a1.367,1.367,0,0,0,.541,1.324,1.314,1.314,0,0,0,.8.256,1.5,1.5,0,0,0,.634-.149l4.659-2.458,4.673,2.458A1.4,1.4,0,0,0,488.187,221.98Zm-5.456-5.065a1.322,1.322,0,0,0-.621-.149,1.494,1.494,0,0,0-.634.149l-2.865,1.513.555-3.2a1.313,1.313,0,0,0-.393-1.19l-2.323-2.268,3.216-.46a1.322,1.322,0,0,0,1.013-.743l1.431-2.9,1.431,2.9a1.362,1.362,0,0,0,1.013.743l3.214.46-2.323,2.268a1.355,1.355,0,0,0-.391,1.19l.553,3.2Z" transform="translate(-427.696 -203.248)" fill="#855db5"/>
      <path id="Trazado_106054" data-name="Trazado 106054" d="M495.5,244.109l18.879-6.491a4.413,4.413,0,1,1,3.263,8.2l-28.875,12.714a18.158,18.158,0,0,1-16.863-.96l-8.081-4.849a16.666,16.666,0,0,0-7.077-1.826V229.256h12.236a9.248,9.248,0,0,1,4.546,1.191l8.166,4.593a3.1,3.1,0,0,0,1.515.4h10.008a4.636,4.636,0,0,1,2.284,8.671Z" transform="translate(-442.844 -177.696)" fill="#dcbfff"/>
      <path id="Trazado_106055" data-name="Trazado 106055" d="M462.878,230.788V252.43a3.09,3.09,0,0,1-3.091,3.083h-9.272V227.7h9.272A3.088,3.088,0,0,1,462.878,230.788Z" transform="translate(-448.971 -179.228)" fill="#bb83ff"/>
      <path id="Trazado_106056" data-name="Trazado 106056" d="M454.4,230.035a1.545,1.545,0,1,0,1.546,1.546A1.547,1.547,0,0,0,454.4,230.035Z" transform="translate(-446.673 -176.93)" fill="#855db5"/>
      <path id="Trazado_106057" data-name="Trazado 106057" d="M520.762,238.457l-14.567,5.01a6.3,6.3,0,0,0,.1-1.1,6.188,6.188,0,0,0-6.181-6.181H490.105a1.532,1.532,0,0,1-.757-.2l-8.166-4.591a10.818,10.818,0,0,0-5.3-1.392H464.924a4.646,4.646,0,0,0-4.371-3.091H451.28a1.545,1.545,0,0,0-1.544,1.546v27.816a1.545,1.545,0,0,0,1.544,1.544h9.272a4.648,4.648,0,0,0,4.328-2.974,14.128,14.128,0,0,1,5.045,1.5l8.081,4.849a19.7,19.7,0,0,0,18.288,1.045l28.843-12.7a5.958,5.958,0,0,0-4.375-11.084ZM462.1,253.195a1.548,1.548,0,0,1-1.546,1.538h-7.726V230.008h7.726a1.548,1.548,0,0,1,1.546,1.546Zm61.865-6.512-.05.02-28.891,12.721a16.614,16.614,0,0,1-15.426-.876l-8.083-4.849a17.034,17.034,0,0,0-6.326-1.925V233.1h10.69a7.732,7.732,0,0,1,3.789.993l8.164,4.593a4.656,4.656,0,0,0,2.274.595h10.008a3.091,3.091,0,0,1,0,6.181H484.4a1.545,1.545,0,0,0,0,3.091h15.709a6.175,6.175,0,0,0,2.9-.724l18.79-6.459a2.869,2.869,0,1,1,2.163,5.313Z" transform="translate(-449.736 -179.994)" fill="#855db5"/>
    </g>
    <rect id="Rectángulo_5525" data-name="Rectángulo 5525" width="102" height="102" transform="translate(180 2673)" fill="none"/>
  </g>
</svg>
