<svg xmlns="http://www.w3.org/2000/svg" width="102" height="102" viewBox="0 0 102 102">
  <g id="Grupo_58740" data-name="Grupo 58740" transform="translate(-180 -1651)">
    <g id="Grupo_58671" data-name="Grupo 58671" transform="translate(192 1669)">
      <path id="Trazado_105967" data-name="Trazado 105967" d="M661.457,274.458a1.342,1.342,0,0,0-1.342,1.342v21.214h22.6V274.458Z" transform="translate(-654.573 -236.354)" fill="#c595ff"/>
      <path id="Trazado_105968" data-name="Trazado 105968" d="M704.1,278.866H682.846v13.97h22.6V280.208A1.343,1.343,0,0,0,704.1,278.866Z" transform="translate(-633.028 -232.176)" fill="#f17781"/>
      <path id="Trazado_105969" data-name="Trazado 105969" d="M695.662,271.01a4.667,4.667,0,1,1-4.667-4.667A4.668,4.668,0,0,1,695.662,271.01Z" transform="translate(-629.728 -244.046)" fill="#dcbfff"/>
      <path id="Trazado_105970" data-name="Trazado 105970" d="M695.083,271.135H689.8a5.012,5.012,0,0,0-5,5v5.791a.852.852,0,0,0,.851.853H699.23a.851.851,0,0,0,.851-.853v-5.791A5.011,5.011,0,0,0,695.083,271.135Z" transform="translate(-631.174 -239.504)" fill="#f17781"/>
      <path id="Trazado_105971" data-name="Trazado 105971" d="M692.506,268.01H672.9a1.341,1.341,0,0,0-1.342,1.342v33.774h22.289V269.352A1.341,1.341,0,0,0,692.506,268.01Z" transform="translate(-643.726 -242.466)" fill="#f9e478"/>
      <path id="Trazado_105972" data-name="Trazado 105972" d="M731.884,291.108H659.469a1.6,1.6,0,0,1-1.6-1.6v-1.954a1.6,1.6,0,0,1,1.6-1.6h72.415a1.6,1.6,0,0,1,1.6,1.6v1.954A1.6,1.6,0,0,1,731.884,291.108Z" transform="translate(-656.699 -225.452)" fill="#9d73d8"/>
      <path id="Trazado_105973" data-name="Trazado 105973" d="M684.226,260.154a4.667,4.667,0,1,1-4.667-4.667A4.666,4.666,0,0,1,684.226,260.154Z" transform="translate(-640.567 -254.336)" fill="#dcbfff"/>
      <path id="Trazado_105974" data-name="Trazado 105974" d="M683.647,260.278h-5.281a5.014,5.014,0,0,0-5,5v5.791a.851.851,0,0,0,.851.853h13.577a.853.853,0,0,0,.851-.853v-5.791A5.014,5.014,0,0,0,683.647,260.278Z" transform="translate(-642.014 -249.795)" fill="#feca57"/>
      <path id="Trazado_105975" data-name="Trazado 105975" d="M672.774,266.6a4.666,4.666,0,1,1-4.667-4.665A4.668,4.668,0,0,1,672.774,266.6Z" transform="translate(-651.42 -248.22)" fill="#dcbfff"/>
      <path id="Trazado_105976" data-name="Trazado 105976" d="M672.2,266.73h-5.281a5.014,5.014,0,0,0-5,5v5.793a.852.852,0,0,0,.851.851h13.576a.851.851,0,0,0,.851-.851v-5.793A5.012,5.012,0,0,0,672.2,266.73Z" transform="translate(-652.867 -243.679)" fill="#c595ff"/>
      <path id="Trazado_105977" data-name="Trazado 105977" d="M684.2,281.224v5.793a1.993,1.993,0,0,0,1.991,1.993h13.578a2,2,0,0,0,1.993-1.993v-5.793a6.149,6.149,0,0,0-4.381-5.881,5.806,5.806,0,1,0-8.8,0A6.146,6.146,0,0,0,684.2,281.224Zm8.781-13.189a3.525,3.525,0,0,1,.006,7.049h-.012a3.525,3.525,0,0,1,.006-7.049Zm-6.5,13.189a3.864,3.864,0,0,1,3.859-3.859h2.633l.008,0,.006,0h2.633a3.863,3.863,0,0,1,3.859,3.859v5.5h-1.56v-5.682a1.141,1.141,0,0,0-2.283,0v5.682h-5.312v-5.682a1.14,1.14,0,0,0-2.281,0v5.682h-1.562Z" transform="translate(-631.745 -244.606)" fill="#855db5"/>
      <path id="Trazado_105978" data-name="Trazado 105978" d="M672.764,270.368v5.793a1.992,1.992,0,0,0,1.993,1.991h13.576a1.994,1.994,0,0,0,1.993-1.991v-5.793a6.153,6.153,0,0,0-4.381-5.882,5.806,5.806,0,1,0-8.8,0A6.151,6.151,0,0,0,672.764,270.368Zm8.781-13.191a3.526,3.526,0,1,1-3.526,3.526A3.529,3.529,0,0,1,681.545,257.177Zm-6.5,13.191a3.864,3.864,0,0,1,3.859-3.859h5.281a3.863,3.863,0,0,1,3.859,3.859v5.5h-1.562v-5.682a1.14,1.14,0,1,0-2.281,0v5.682h-5.312v-5.682a1.14,1.14,0,1,0-2.281,0v5.682h-1.562Z" transform="translate(-642.584 -254.896)" fill="#855db5"/>
      <path id="Trazado_105979" data-name="Trazado 105979" d="M661.313,276.821v5.791a2,2,0,0,0,1.993,1.993h13.576a2,2,0,0,0,1.992-1.993v-5.791a6.149,6.149,0,0,0-4.381-5.882,5.806,5.806,0,1,0-8.8,0A6.15,6.15,0,0,0,661.313,276.821Zm8.781-13.191a3.525,3.525,0,0,1,0,7.049h-.006a3.525,3.525,0,0,1,0-7.049Zm-6.5,13.191a3.864,3.864,0,0,1,3.859-3.859h5.281a3.863,3.863,0,0,1,3.859,3.859v5.5h-1.56V276.64a1.141,1.141,0,0,0-2.283,0v5.682h-5.312V276.64a1.14,1.14,0,0,0-2.281,0v5.682h-1.562Z" transform="translate(-653.438 -248.781)" fill="#855db5"/>
      <path id="Trazado_105980" data-name="Trazado 105980" d="M678.242,270.969a.553.553,0,0,0-.294.072l-1.338.81a.6.6,0,0,0-.294.538c0,.444.378.795.75.547l.294-.183v5.16c0,.649,1.582.649,1.582,0v-6.447C678.942,271.162,678.566,270.969,678.242,270.969Z" transform="translate(-639.217 -239.661)" fill="#855db5"/>
      <path id="Trazado_105981" data-name="Trazado 105981" d="M669.056,280.578a2.189,2.189,0,0,0-2.361-2.1,2.1,2.1,0,0,0-2.291,1.946c0,.639.3.822.709.822.516,0,.832-.284.832-.578a.691.691,0,0,1,.76-.76.7.7,0,0,1,.769.719c0,1.288-3.193,2.2-3.193,3.792v.982c0,.294.405.487.69.487h3.607c.253,0,.477-.335.477-.7s-.224-.68-.477-.68h-2.655v-.09C665.924,283.5,669.056,282.779,669.056,280.578Z" transform="translate(-650.624 -232.542)" fill="#855db5"/>
      <path id="Trazado_105982" data-name="Trazado 105982" d="M689.975,286.71c-.456,0-.9-.111-.9-.588,0-.384-.164-.526-.812-.526-.557,0-.75.121-.75.577,0,.851.67,1.917,2.413,1.917,1.418,0,2.563-.629,2.563-2.291v-.193a1.471,1.471,0,0,0-1.032-1.49,1.785,1.785,0,0,0,.779-1.662c0-1.369-.974-1.835-2.26-1.835-1.743,0-2.312,1.023-2.312,1.813,0,.487.091.639.822.639.588,0,.74-.234.74-.578,0-.4.253-.516.75-.516.415,0,.75.142.75.73,0,.82-.405.871-.791.871-.345,0-.456.3-.456.608s.111.608.456.608c.557,0,.974.132.974.812v.193C690.908,286.457,690.665,286.71,689.975,286.71Z" transform="translate(-628.606 -230.515)" fill="#855db5"/>
      <path id="Trazado_105983" data-name="Trazado 105983" d="M732.424,302.533h-1.632v-3.181a1.14,1.14,0,1,0-2.281,0v3.181H708.5V290.846H728.31a.2.2,0,0,1,.2.2v2.982a1.14,1.14,0,0,0,2.281,0v-2.982a2.484,2.484,0,0,0-2.482-2.482H708.5V269.9a2.485,2.485,0,0,0-2.483-2.482H686.412a2.484,2.484,0,0,0-2.482,2.482v10.076H664.122a2.486,2.486,0,0,0-2.483,2.484v20.072h-1.63a2.741,2.741,0,0,0-2.739,2.739v1.8a2.741,2.741,0,0,0,2.739,2.739h33.279a1.141,1.141,0,0,0,0-2.283H660.009a.463.463,0,0,1-.458-.456v-1.8a.463.463,0,0,1,.458-.456h72.415a.461.461,0,0,1,.456.456v1.8a.461.461,0,0,1-.456.456H698.613a1.141,1.141,0,1,0,0,2.283h33.811a2.742,2.742,0,0,0,2.739-2.739v-1.8A2.742,2.742,0,0,0,732.424,302.533Zm-68.5-20.072a.2.2,0,0,1,.2-.2H683.93v20.273H663.922Zm22.289-12.56a.2.2,0,0,1,.2-.2h19.607a.2.2,0,0,1,.2.2v32.632H686.211Z" transform="translate(-657.27 -243.026)" fill="#855db5"/>
    </g>
    <rect id="Rectángulo_5525" data-name="Rectángulo 5525" width="102" height="102" transform="translate(180 1651)" fill="none"/>
  </g>
</svg>
