<svg xmlns="http://www.w3.org/2000/svg" width="102" height="102" viewBox="0 0 102 102">
  <g id="Grupo_58750" data-name="Grupo 58750" transform="translate(-180 -1963)">
    <rect id="Rectángulo_5525" data-name="Rectángulo 5525" width="102" height="102" transform="translate(180 1963)" fill="none"/>
    <g id="Grupo_58742" data-name="Grupo 58742" transform="translate(-514.54 1767.316)">
      <g id="Grupo_58741" data-name="Grupo 58741" transform="translate(707.54 208.684)">
        <path id="Trazado_106137" data-name="Trazado 106137" d="M727.289,228.35l-19.071,19.071,32.605,32.607,35.29-35.288.467-22.207L765.71,211.665l-22.2.469Zm38.154,4.1a6.819,6.819,0,1,1,0-9.644A6.82,6.82,0,0,1,765.443,232.446Z" transform="translate(-706.719 -205.073)" fill="#bb83ff"/>
        <path id="Trazado_106138" data-name="Trazado 106138" d="M782.764,209.913c-1.526-1.528-4.124-1.634-7.318-.3a26.761,26.761,0,0,0-7.455,5c-.133-.13-.261-.263-.393-.394a1.534,1.534,0,0,0-1.095-.44l-22.207.467a1.5,1.5,0,0,0-1.028.44l-7.683,7.682a1.5,1.5,0,0,0,2.119,2.121l7.258-7.258,20.858-.44a28.457,28.457,0,0,0-4.357,6.13,8.314,8.314,0,1,0,8.3,8.315,8.543,8.543,0,0,0-.073-1.1l0-.015a8.321,8.321,0,0,0-5.144-6.608,26.52,26.52,0,0,1,3.45-4.659l7.9,7.9-.442,20.964-33.8,33.8L711.16,251.03l18.012-18.012a1.5,1.5,0,0,0-2.121-2.119L707.98,249.971a1.495,1.495,0,0,0,0,2.119L740.587,284.7a1.5,1.5,0,0,0,2.121,0L778,249.409a1.5,1.5,0,0,0,.438-1.028l.469-22.207a1.493,1.493,0,0,0-.44-1.09l-.4-.4a26.676,26.676,0,0,0,5-7.455C784.4,214.038,784.292,211.439,782.764,209.913Zm-21.32,26.639a5.317,5.317,0,0,1-1.2-10.5c-.6,2.335-.283,4.233.933,5.449a4.49,4.49,0,0,0,3.3,1.232,8.738,8.738,0,0,0,2.154-.3,5.316,5.316,0,0,1-5.184,4.115Zm4.989-7.178c-1.727.564-2.758.391-3.138.011-.48-.48-.464-1.665.009-3.134a5.321,5.321,0,0,1,3.129,3.122Zm13.865-13.3a23.53,23.53,0,0,1-4.354,6.488l-5.829-5.831a23.5,23.5,0,0,1,6.486-4.354c1.882-.785,3.47-.922,4.045-.347S781.083,214.194,780.3,216.076Z" transform="translate(-707.54 -208.684)" fill="#855db5"/>
        <path id="Trazado_106139" data-name="Trazado 106139" d="M720.209,233a8.2,8.2,0,0,0-1.177,10.111l-1.482,1.479a1.5,1.5,0,1,0,2.121,2.121l1.382-1.382a8.223,8.223,0,0,0,4.956,1.667c.13,0,.259,0,.389-.011a7.264,7.264,0,0,0,5.664-3.107,6.953,6.953,0,0,0,.931-6.11,9.064,9.064,0,0,0-1.537-2.842l6.1-6.1a5.208,5.208,0,0,1-1.084,5.776,1.5,1.5,0,0,0,2.121,2.121,8.2,8.2,0,0,0,1.177-10.111l1.482-1.482a1.5,1.5,0,0,0-2.121-2.121l-1.382,1.384a8.221,8.221,0,0,0-5.345-1.659,7.266,7.266,0,0,0-5.664,3.109,6.947,6.947,0,0,0-.931,6.108,9.067,9.067,0,0,0,1.537,2.842l-6.1,6.1a5.2,5.2,0,0,1,1.084-5.774A1.5,1.5,0,1,0,720.209,233Zm9.925,5.672a3.971,3.971,0,0,1-.531,3.492,4.286,4.286,0,0,1-3.348,1.827,5.2,5.2,0,0,1-3.049-.814l6.108-6.108A5.84,5.84,0,0,1,730.134,238.669Zm-1.471-7.618a3.983,3.983,0,0,1,.533-3.494,4.3,4.3,0,0,1,3.346-1.827,5.229,5.229,0,0,1,3.052.816l-6.108,6.106A5.867,5.867,0,0,1,728.663,231.051Z" transform="translate(-695.945 -191.86)" fill="#855db5"/>
      </g>
      <path id="Trazado_106140" data-name="Trazado 106140" d="M718.207,218.671a1.5,1.5,0,1,0,.573-1.833A1.515,1.515,0,0,0,718.207,218.671Z" transform="translate(12.788 9.593)" fill="#21949d"/>
    </g>
  </g>
</svg>
