<svg xmlns="http://www.w3.org/2000/svg" xmlns:xlink="http://www.w3.org/1999/xlink" width="400" height="235.387" viewBox="0 0 400 235.387">
  <defs>
    <clipPath id="clip-path">
      <rect id="Rectángulo_362148" data-name="Rectángulo 362148" width="400" height="235.387" transform="translate(0 0)" fill="none"/>
    </clipPath>
  </defs>
  <g id="Grupo_1054890" data-name="Grupo 1054890" transform="translate(0 -0.004)">
    <g id="Grupo_1054889" data-name="Grupo 1054889" transform="translate(0 0.004)" clip-path="url(#clip-path)">
      <path id="Trazado_775854" data-name="Trazado 775854" d="M48.632,232.921,36.576,209.576a59.371,59.371,0,0,1,15.18-73.21l23.313-19.055A46.545,46.545,0,0,0,91.738,75.035a46.544,46.544,0,0,1,53.636-52.173L187.5,29.75a126.645,126.645,0,0,0,70.282-8.56l31.09-13.31a97.577,97.577,0,0,1,83.637,3.243,46.6,46.6,0,0,1,19.958,62.361,46.545,46.545,0,0,0,5.791,50.888,82.906,82.906,0,0,1,15.808,76.881L404.6,232.921Z" transform="translate(-25.036 -0.004)" fill="#f9e1bd"/>
      <path id="Trazado_775855" data-name="Trazado 775855" d="M40.976,357.883l-6.077,6a16.63,16.63,0,0,0-4.16,16.874l.719,2.259A16.631,16.631,0,0,0,52.2,393.872l6.026-1.854a16.646,16.646,0,0,0,2.179-.842l1.525-.716a16.631,16.631,0,0,0,8.448-21.033l-2.193-5.691a16.631,16.631,0,0,0-27.206-5.852" transform="translate(-25.037 -295.11)" fill="#f9e1bd"/>
      <path id="Trazado_775856" data-name="Trazado 775856" d="M2271.494,460.611l-4.135,4.085a11.319,11.319,0,0,0-2.832,11.484l.489,1.538a11.318,11.318,0,0,0,14.114,7.386l4.1-1.262a11.3,11.3,0,0,0,1.483-.573l1.038-.487a11.318,11.318,0,0,0,5.75-14.314l-1.492-3.873a11.318,11.318,0,0,0-18.515-3.983" transform="translate(-1892.261 -382.252)" fill="#f9e1bd"/>
      <path id="Trazado_775857" data-name="Trazado 775857" d="M941.587,750a11.593,11.593,0,0,0,3.634-.278,9.883,9.883,0,0,0-.463-4.054c-1.706-6.888-2.313-14-3.808-20.941-.187-.867-.466-1.016-1.1-1.027-.7-.012-2.248-.122-2.842.316-.484.357-.139,1.424-.007,1.923.649,2.459.485,2.926,3.94,20.733a28.19,28.19,0,0,0,.65,3.328" transform="translate(-782.945 -604.853)" fill="#ff7466"/>
      <path id="Trazado_775858" data-name="Trazado 775858" d="M941.3,743.555a4.731,4.731,0,0,1-1.349.368c-.046-.229-.089-.438-.133-.638a3.76,3.76,0,0,1,1.318-.12c.081.015.1.039.112.112.017.092.035.185.052.279" transform="translate(-785.51 -621.121)" fill="#fffaff"/>
      <path id="Trazado_775859" data-name="Trazado 775859" d="M945.055,757.625a11.422,11.422,0,0,1-2.289.545c-.04-.235-.08-.453-.116-.656a10.336,10.336,0,0,1,2.207-.272c.11.009.132.031.146.1.019.094.035.186.053.279" transform="translate(-787.872 -632.9)" fill="#fffaff"/>
      <path id="Trazado_775860" data-name="Trazado 775860" d="M947.736,772.617a11.515,11.515,0,0,1-2.291.547l-.118-.656a10.344,10.344,0,0,1,2.21-.274c.11.009.133.033.145.1.019.094.035.187.054.279" transform="translate(-790.11 -645.43)" fill="#fffaff"/>
      <path id="Trazado_775861" data-name="Trazado 775861" d="M949.517,788.535a4.64,4.64,0,0,1-1.341.366c-.04-.22-.079-.433-.117-.64a3.664,3.664,0,0,1,1.294-.117c.081.015.1.039.112.112.017.092.035.186.052.279" transform="translate(-792.395 -658.716)" fill="#fffaff"/>
      <path id="Trazado_775862" data-name="Trazado 775862" d="M953.219,802.6a11.284,11.284,0,0,1-2.268.541c-.043-.222-.082-.44-.122-.654a10.1,10.1,0,0,1,2.192-.271c.11.009.133.033.145.1.019.093.035.187.054.279" transform="translate(-794.708 -670.494)" fill="#fffaff"/>
      <path id="Trazado_775863" data-name="Trazado 775863" d="M955.071,818.522a4.653,4.653,0,0,1-1.3.36l-.121-.642a3.556,3.556,0,0,1,1.262-.108c.081.016.1.039.112.112.017.092.035.185.052.279" transform="translate(-797.063 -683.779)" fill="#fffaff"/>
      <rect id="Rectángulo_362142" data-name="Rectángulo 362142" width="14.377" height="2.796" transform="translate(164.756 140.912) rotate(-67.121)" fill="#97d1f4"/>
      <path id="Trazado_775864" data-name="Trazado 775864" d="M1040.047,771.774l-2.576-1.087,1.455-1.346,1.07.451Z" transform="translate(-867.124 -643.02)" fill="#ffc2b0"/>
      <path id="Trazado_775865" data-name="Trazado 775865" d="M1047.4,765.646l-1.07-.451.847-.784a.115.115,0,0,1,.192.081Z" transform="translate(-874.534 -638.874)" fill="#3f2c3f"/>
      <path id="Trazado_775866" data-name="Trazado 775866" d="M1000.221,859.353l.482-1.143,2.577,1.087-.482,1.143a.669.669,0,0,1-.876.356l-1.345-.567a.668.668,0,0,1-.356-.876" transform="translate(-835.947 -717.298)" fill="#ffd054"/>
      <path id="Trazado_775867" data-name="Trazado 775867" d="M1016.12,780.352l-5.589,13.246-.7-.3c.614-1.483,4.95-11.957,5.5-13.282Z" transform="translate(-844.021 -651.946)" fill="#fffaff"/>
      <rect id="Rectángulo_362143" data-name="Rectángulo 362143" width="14.377" height="2.796" transform="matrix(0.016, -1, 1, 0.016, 162.7, 140.99)" fill="#60b8ba"/>
      <path id="Trazado_775868" data-name="Trazado 775868" d="M990.9,858.689l2.8.044-.846,1.793-1.161-.018Z" transform="translate(-828.202 -717.698)" fill="#ffc2b0"/>
      <path id="Trazado_775869" data-name="Trazado 775869" d="M995.707,869.765l1.161.018-.493,1.044a.114.114,0,0,1-.209,0Z" transform="translate(-832.218 -726.956)" fill="#3f2c3f"/>
      <path id="Trazado_775870" data-name="Trazado 775870" d="M995.1,760.278l-.02,1.241-2.8-.044.02-1.241a.669.669,0,0,1,.679-.658l1.459.023a.668.668,0,0,1,.658.679" transform="translate(-829.358 -634.859)" fill="#ff7466"/>
      <path id="Trazado_775871" data-name="Trazado 775871" d="M996.338,785.6l.227-14.375.763.012c-.015,1.6-.117,12.941-.134,14.376Z" transform="translate(-832.746 -644.596)" fill="#fffaff"/>
      <path id="Trazado_775872" data-name="Trazado 775872" d="M934.427,847.528c.1.632.283.744.753.783a87.346,87.346,0,0,0,10.851.224c1.375-.057,1.931-.325,2.495-1.908,1.961-5.512,1.714-11.548,2.914-17.274.149-.709-.073-.908-.656-.926-1.852-.06-15.172.138-18.084.443-1.607.169-.927,1.312-.705,2.417,1.072,5.353,1.6,10.836,2.431,16.241" transform="translate(-778.69 -692.396)" fill="#213967"/>
      <path id="Trazado_775873" data-name="Trazado 775873" d="M875.567,1169.253a3.822,3.822,0,0,0,.213,1.277c.556,1.341,2.314,1.6,3.765,1.635,11.4.3,22.8-.434,34.185-1.169a.936.936,0,0,0,.419-.094c.3-.179.307-.61.274-.961-1.292-13.641.115-27.4-.6-41.085-.062-1.189-.281-2.6-1.354-3.112a3.4,3.4,0,0,0-1.557-.21c-10.5,0-21.026.473-31.526.71-1.787.04-4.674-.692-4.913,1.585a69.353,69.353,0,0,0,.048,7.809q.086,7.937.324,15.871.267,8.875.724,17.743" transform="translate(-730.794 -940.727)" fill="#aa475c"/>
      <path id="Trazado_775874" data-name="Trazado 775874" d="M909.494,1162.364c-.063.369-.238.448-.763.426q-20.6-.888-41.194-2.021a1.707,1.707,0,0,1,.018-1.505c.134-.269.313-.313.759-.281q17.64,1.245,35.339,1.654c1.6.037,3.286-.039,4.876.1,1.495.127,1.1.83.964,1.632" transform="translate(-724.956 -968.678)" fill="#8e233f"/>
      <path id="Trazado_775875" data-name="Trazado 775875" d="M909.185,1196.392c-.047.371-.216.458-.737.458q-20.44.01-40.878-.227a1.722,1.722,0,0,1-.047-1.5c.121-.274.3-.326.739-.314q17.522.476,35.064.114c1.585-.033,3.253-.182,4.833-.116,1.486.062,1.125.781,1.025,1.589" transform="translate(-724.956 -998.612)" fill="#8e233f"/>
      <path id="Trazado_775876" data-name="Trazado 775876" d="M909.251,1221.327c-.07.368-.244.444-.764.411q-20.4-1.261-40.785-2.769a1.721,1.721,0,0,1,.047-1.5c.138-.266.316-.307.758-.267q17.458,1.565,34.989,2.3c1.583.066,3.258.021,4.831.185,1.479.154,1.074.85.924,1.649" transform="translate(-725.106 -1017.332)" fill="#8e233f"/>
      <path id="Trazado_775877" data-name="Trazado 775877" d="M910.219,1250.145c-.069.368-.243.444-.76.413q-20.31-1.215-40.6-2.676a1.728,1.728,0,0,1,.044-1.5c.137-.267.314-.308.754-.269q17.381,1.525,34.834,2.215c1.576.063,3.243.014,4.809.174,1.473.15,1.07.847.923,1.647" transform="translate(-726.069 -1041.495)" fill="#8e233f"/>
      <path id="Trazado_775878" data-name="Trazado 775878" d="M913.9,1283.99c0,.374-.16.479-.667.536q-19.912,2.242-39.85,4.238a1.752,1.752,0,0,1-.213-1.49c.087-.286.253-.356.685-.393q17.123-1.44,34.174-3.715c1.54-.206,3.148-.536,4.7-.643,1.454-.1,1.183.654,1.176,1.467" transform="translate(-729.737 -1071.935)" fill="#8e233f"/>
      <path id="Trazado_775879" data-name="Trazado 775879" d="M913.944,1331.2c-.046.371-.211.458-.72.458q-19.984.01-39.967-.227a1.756,1.756,0,0,1-.046-1.5c.119-.275.29-.326.723-.314q17.131.476,34.283.114c1.549-.033,3.18-.182,4.725-.116,1.453.062,1.1.781,1,1.589" transform="translate(-729.712 -1111.284)" fill="#8e233f"/>
      <path id="Trazado_775880" data-name="Trazado 775880" d="M913.752,1357.361c-.069.368-.239.444-.746.412q-19.907-1.236-39.8-2.718a1.759,1.759,0,0,1,.048-1.5c.135-.267.309-.307.74-.268q17.035,1.543,34.143,2.251c1.545.064,3.179.017,4.714.179,1.443.152,1.047.848.9,1.648" transform="translate(-729.712 -1131.072)" fill="#8e233f"/>
      <path id="Trazado_775881" data-name="Trazado 775881" d="M859.426,1110.951c1.356,1.1,2.386.766,40.279.314a5.084,5.084,0,0,0,3.308-.817,2.556,2.556,0,0,0,.131-3.634c-.895-.859-2.273-.9-3.513-.882l-38.284.435c-1.36.015-2.558-.377-2.795,1.145-.166,1.066-.011,2.721.874,3.439" transform="translate(-717.534 -924.345)" fill="#fff"/>
      <path id="Trazado_775882" data-name="Trazado 775882" d="M859.426,1391.8c1.356,1.1,2.386.766,40.279.314a5.081,5.081,0,0,0,3.308-.818,2.555,2.555,0,0,0,.131-3.633c-.895-.858-2.273-.9-3.513-.882l-38.284.435c-1.36.015-2.558-.377-2.795,1.145-.166,1.066-.011,2.721.874,3.439" transform="translate(-717.534 -1159.078)" fill="#fff"/>
      <path id="Trazado_775883" data-name="Trazado 775883" d="M2326.511,788.828c-1.754.426-2.712,2.682-2.14,5.04s15.707,58.507,17.462,58.081-10.537-57.265-11.109-59.623-2.458-3.924-4.212-3.5" transform="translate(-1942.586 -659.25)" fill="#ef7a5b"/>
      <path id="Trazado_775884" data-name="Trazado 775884" d="M2338.957,810a1.23,1.23,0,1,0,1.23,1.23,1.23,1.23,0,0,0-1.23-1.23" transform="translate(-1953.887 -677.008)" fill="#fff"/>
      <path id="Trazado_775885" data-name="Trazado 775885" d="M2201.388,882.183a.985.985,0,0,1,.481-1.307l12.615-5.826a7.474,7.474,0,0,0-1.67-14.116,9.432,9.432,0,0,1-6.874-5.644l-.848-2.046a29.943,29.943,0,0,1,18.851-40.088.985.985,0,1,1,.58,1.883,27.973,27.973,0,0,0-17.61,37.45l.848,2.046A7.463,7.463,0,0,0,2213.2,859a9.445,9.445,0,0,1,2.11,17.837l-12.614,5.826a.985.985,0,0,1-1.308-.481" transform="translate(-1839.858 -679.604)" fill="#1f918e"/>
      <path id="Trazado_775886" data-name="Trazado 775886" d="M1900.569,1030.911a5.912,5.912,0,0,0,.33,1.975c.86,2.074,3.578,2.47,5.823,2.529,17.632.466,35.264-.671,52.866-1.808a1.443,1.443,0,0,0,.648-.145c.47-.276.475-.942.423-1.485-2-21.1.178-42.376-.932-63.537-.1-1.839-.434-4.016-2.094-4.812a5.255,5.255,0,0,0-2.408-.324c-16.241,0-32.516.732-48.753,1.1-2.763.062-7.228-1.07-7.6,2.451-.411,3.92.032,8.134.075,12.077q.133,12.274.5,24.544.412,13.725,1.119,27.439" transform="translate(-1586.945 -805.13)" fill="#60b8ba"/>
      <path id="Trazado_775887" data-name="Trazado 775887" d="M1900.569,1030.911a5.912,5.912,0,0,0,.33,1.975c.86,2.074,3.578,2.47,5.823,2.529,17.632.466,35.264-.671,52.866-1.808a1.443,1.443,0,0,0,.648-.145c.47-.276.475-.942.423-1.485-2-21.1.178-42.376-.932-63.537-.1-1.839-.434-4.016-2.094-4.812a5.255,5.255,0,0,0-2.408-.324c-16.241,0-32.516.732-48.753,1.1-2.763.062-7.228-1.07-7.6,2.451-.411,3.92.032,8.134.075,12.077q.133,12.274.5,24.544.412,13.725,1.119,27.439" transform="translate(-1586.945 -805.13)" fill="#60b8ba"/>
      <path id="Trazado_775888" data-name="Trazado 775888" d="M1875.609,940.748c2.1,1.7,3.69,1.185,62.29.486,1.795-.021,3.75-.1,5.115-1.264a3.952,3.952,0,0,0,.2-5.619c-1.384-1.328-3.514-1.385-5.432-1.364l-59.206.673c-2.1.024-3.956-.583-4.322,1.77-.256,1.648-.018,4.209,1.352,5.318" transform="translate(-1566.44 -779.795)" fill="#fff"/>
      <path id="Trazado_775889" data-name="Trazado 775889" d="M1875.609,1375.067c2.1,1.7,3.69,1.185,62.29.486,1.795-.021,3.75-.1,5.115-1.264a3.952,3.952,0,0,0,.2-5.619c-1.384-1.328-3.514-1.385-5.432-1.364l-59.206.673c-2.1.024-3.956-.583-4.322,1.77-.256,1.648-.018,4.209,1.352,5.318" transform="translate(-1566.44 -1142.802)" fill="#fff"/>
      <path id="Trazado_775890" data-name="Trazado 775890" d="M1796.856,190.229v75.417a4.926,4.926,0,0,1-4.926,4.926H1686.581a4.926,4.926,0,0,1-4.926-4.926V190.229a4.926,4.926,0,0,1,4.926-4.926H1791.93a4.926,4.926,0,0,1,4.926,4.926" transform="translate(-1405.538 -154.878)" fill="#60b8ba"/>
      <path id="Trazado_775891" data-name="Trazado 775891" d="M1699.167,335.678c-.305,1.872-.566,3.7-1.737,5.12.015.108.028.218.043.327h-10.894a4.926,4.926,0,0,1-4.926-4.926V269.717c7.1.763,8.536,7.234,9.578,15.237.258,1.974.537,4.129.614,6.338,1.754,3.389,2.642,6.947,1.478,10.8,3.834,2.489,5.032,5.694,5.891,11.035a70.126,70.126,0,0,1-.046,22.552" transform="translate(-1405.536 -225.432)" fill="#1f918e"/>
      <path id="Trazado_775892" data-name="Trazado 775892" d="M1817,215.964v74.1a.657.657,0,0,1-.657.657H1712.31a.657.657,0,0,1-.657-.657v-74.1a.657.657,0,0,1,.657-.657h104.036a.657.657,0,0,1,.657.657" transform="translate(-1430.611 -179.956)" fill="#fbf3e8"/>
      <path id="Trazado_775893" data-name="Trazado 775893" d="M1724.242,346.093c-.028.174-.056.348-.085.521H1712.31a.657.657,0,0,1-.657-.657V282.177c2.983,2.653,3.918,7.541,4.652,13.191.258,1.974.537,4.129.614,6.338,1.753,3.389,2.642,6.947,1.478,10.8,3.834,2.489,5.033,5.694,5.891,11.035a70.126,70.126,0,0,1-.046,22.552" transform="translate(-1430.611 -235.846)" fill="#e8d3ba"/>
      <path id="Trazado_775894" data-name="Trazado 775894" d="M2084.915,266.137l2.441,56.71a.821.821,0,0,1-.728.851l-35.261,4.007a.821.821,0,0,1-.913-.776l-1.128-23.157a.788.788,0,0,1,0-.107l3.117-37.8a.821.821,0,0,1,.845-.753Z" transform="translate(-1712.839 -221.584)" fill="#fff"/>
      <path id="Trazado_775895" data-name="Trazado 775895" d="M2112.813,340.941h-23.744a.739.739,0,0,1-.739-.739V298.4c0-.7.684-.746,1.252-.881a7.879,7.879,0,0,0,6-6.781.739.739,0,0,1,.8-.654l10.367.892a.739.739,0,0,1,.674.784l-.215,3.331a11.785,11.785,0,0,0,5.026,10.394.738.738,0,0,1,.217.98,24.035,24.035,0,0,0-2.653,17.718l3.738,15.851a.739.739,0,0,1-.719.908m-23.006-1.478h22.072l-3.524-14.943a25.5,25.5,0,0,1,2.487-18.222,13.275,13.275,0,0,1-5.113-11.3l.168-2.61-8.957-.771a9.363,9.363,0,0,1-7.134,7.369Z" transform="translate(-1745.44 -242.451)" fill="#aa475c"/>
      <path id="Trazado_775896" data-name="Trazado 775896" d="M2098,459.217a.411.411,0,0,1-.41.41h-.259v-.821h.259a.411.411,0,0,1,.41.41" transform="translate(-1752.963 -383.474)" fill="#ea9bb0"/>
      <path id="Trazado_775897" data-name="Trazado 775897" d="M2120.732,458.807h-1.584a.41.41,0,0,0,0,.821h1.584a.41.41,0,0,0,0-.821m-3.169,0h-1.585a.41.41,0,0,0,0,.821h1.585a.41.41,0,0,0,0-.821m-3.169,0h-1.585a.41.41,0,0,0,0,.821h1.585a.41.41,0,0,0,0-.821m-3.169,0h-1.585a.41.41,0,0,0,0,.821h1.585a.41.41,0,0,0,0-.821m-3.169,0h-1.584a.41.41,0,0,0,0,.821h1.584a.41.41,0,0,0,0-.821" transform="translate(-1760.26 -383.474)" fill="#ea9bb0"/>
      <path id="Trazado_775898" data-name="Trazado 775898" d="M2203.157,458.807c-.01.274-.015.547-.015.821h-.171a.41.41,0,0,1,0-.821Z" transform="translate(-1840.915 -383.474)" fill="#ea9bb0"/>
      <path id="Trazado_775899" data-name="Trazado 775899" d="M2155.931,300.989a.323.323,0,0,1-.644.061l-.036-.383.653.057Z" transform="translate(-1801.373 -251.3)" fill="#ea9bb0"/>
      <path id="Trazado_775900" data-name="Trazado 775900" d="M2156.427,311.391l-.106-1.122a.323.323,0,1,1,.642-.06l.105,1.122a.322.322,0,1,1-.642.06m-.211-2.243-.105-1.122a.322.322,0,1,1,.642-.06l.106,1.122a.323.323,0,0,1-.642.06" transform="translate(-1802.09 -257.156)" fill="#ea9bb0"/>
      <path id="Trazado_775901" data-name="Trazado 775901" d="M2158.738,335.931l-.054-.578a.49.49,0,1,1,.955.222l-.3.495a.323.323,0,0,1-.6-.139" transform="translate(-1804.24 -279.996)" fill="#ea9bb0"/>
      <path id="Trazado_775902" data-name="Trazado 775902" d="M2165.014,313.352a.323.323,0,0,1-.105-.444l.656-1.065a.323.323,0,0,1,.55.338l-.656,1.065a.323.323,0,0,1-.444.106m1.312-2.131a.323.323,0,0,1-.106-.444l.656-1.065a.323.323,0,1,1,.549.338l-.656,1.065a.323.323,0,0,1-.444.106" transform="translate(-1809.405 -258.732)" fill="#ea9bb0"/>
      <path id="Trazado_775903" data-name="Trazado 775903" d="M2181.712,303.009l-.278.45a.322.322,0,1,1-.548-.338l.107-.174Z" transform="translate(-1822.759 -253.206)" fill="#ea9bb0"/>
      <path id="Trazado_775904" data-name="Trazado 775904" d="M1826.389,291.757c-.024.371-.112.458-.381.458q-10.575.01-21.148-.227a3.2,3.2,0,0,1-.024-1.5c.063-.275.153-.326.382-.314q9.064.476,18.14.114a21.323,21.323,0,0,1,2.5-.116c.769.062.582.781.53,1.589" transform="translate(-1508.429 -242.511)" fill="#2a4f96"/>
      <path id="Trazado_775905" data-name="Trazado 775905" d="M1849.8,346.906c-.036.371-.165.458-.56.458q-15.528.01-31.054-.227a2.219,2.219,0,0,1-.035-1.5c.092-.275.225-.326.562-.314q13.31.476,26.637.114c1.2-.033,2.471-.182,3.671-.116,1.129.062.854.781.779,1.589" transform="translate(-1519.526 -288.605)" fill="#2a4f96"/>
      <path id="Trazado_775906" data-name="Trazado 775906" d="M1886.313,404.1c-.028.371-.127.458-.434.458q-12.032.01-24.063-.227a2.824,2.824,0,0,1-.028-1.5c.071-.275.174-.326.435-.314q10.315.476,20.641.114a27.6,27.6,0,0,1,2.845-.116c.875.062.662.781.6,1.589" transform="translate(-1556.021 -336.407)" fill="#2a4f96"/>
      <path id="Trazado_775907" data-name="Trazado 775907" d="M1849.8,461.289c-.036.371-.165.458-.56.458q-15.528.01-31.054-.227a2.219,2.219,0,0,1-.035-1.5c.092-.275.225-.326.562-.314q13.31.476,26.637.114c1.2-.033,2.471-.182,3.671-.116,1.129.062.854.781.779,1.589" transform="translate(-1519.526 -384.207)" fill="#2a4f96"/>
      <path id="Trazado_775908" data-name="Trazado 775908" d="M1759.568,547.076c-.016.371-.073.458-.249.458q-6.9.01-13.791-.227a4.864,4.864,0,0,1-.016-1.5c.041-.274.1-.326.249-.314a83.689,83.689,0,0,0,11.83.114,9.114,9.114,0,0,1,1.63-.116c.5.062.379.781.346,1.589" transform="translate(-1458.869 -455.909)" fill="#2a4f96"/>
      <path id="Trazado_775909" data-name="Trazado 775909" d="M1767.093,579.046c-.024.371-.112.458-.381.458q-10.575.01-21.148-.227a3.2,3.2,0,0,1-.024-1.5c.063-.275.153-.326.383-.314q9.064.476,18.14.114a21.326,21.326,0,0,1,2.5-.116c.769.062.582.781.53,1.589" transform="translate(-1458.869 -482.629)" fill="#2a4f96"/>
      <path id="Trazado_775910" data-name="Trazado 775910" d="M1827.38,375.5c-.041.371-.187.458-.637.458q-17.674.01-35.346-.227a1.964,1.964,0,0,1-.04-1.5c.1-.275.256-.326.639-.314q15.15.476,30.319.114c1.37-.033,2.812-.182,4.179-.116,1.285.062.973.781.886,1.589" transform="translate(-1497.119 -312.506)" fill="#2a4f96"/>
      <path id="Trazado_775911" data-name="Trazado 775911" d="M1813.929,432.693c-.043.371-.2.458-.683.458q-18.961.01-37.921-.227a1.842,1.842,0,0,1-.044-1.5c.113-.275.275-.326.686-.314q16.254.476,32.528.114c1.47-.033,3.017-.182,4.483-.116,1.378.062,1.043.781.951,1.589" transform="translate(-1483.675 -360.307)" fill="#2a4f96"/>
      <path id="Trazado_775912" data-name="Trazado 775912" d="M2245.795,256.281a3.144,3.144,0,1,1-3.144,3.144,3.144,3.144,0,0,1,3.144-3.144" transform="translate(-1874.422 -214.202)" fill="#ffd050"/>
      <rect id="Rectángulo_362144" data-name="Rectángulo 362144" width="4.735" height="17.523" transform="translate(60.1 184.222)" fill="#97d1f4"/>
      <path id="Trazado_775913" data-name="Trazado 775913" d="M370.768,1121.987v4.722c-3.1-.008-3.509.288-4.735.161v-4.883Z" transform="translate(-305.933 -937.765)" fill="#6ba9c1"/>
      <path id="Trazado_775914" data-name="Trazado 775914" d="M298.082,1199.176v-19.119a4.692,4.692,0,0,0-4.7-4.711,4.608,4.608,0,0,0-4.519,4.607v19.222H280.82a4.429,4.429,0,0,0-4.429,4.429v4.968h2.737v-4.206h28.691v4.206h2.737V1203.6a4.429,4.429,0,0,0-4.429-4.429Z" transform="translate(-231.009 -982.362)" fill="#213967"/>
      <path id="Trazado_775915" data-name="Trazado 775915" d="M259.137,1368.613a4.843,4.843,0,1,0,4.843,4.843,4.843,4.843,0,0,0-4.843-4.843" transform="translate(-212.541 -1143.896)" fill="#ffd050"/>
      <path id="Trazado_775916" data-name="Trazado 775916" d="M275.228,1391.227a1.682,1.682,0,1,1,1.681-1.681,1.683,1.683,0,0,1-1.681,1.681" transform="translate(-228.632 -1159.986)" fill="#efb229"/>
      <path id="Trazado_775917" data-name="Trazado 775917" d="M452.723,1368.613a4.843,4.843,0,1,0,4.843,4.843,4.843,4.843,0,0,0-4.843-4.843" transform="translate(-374.341 -1143.896)" fill="#ffd050"/>
      <path id="Trazado_775918" data-name="Trazado 775918" d="M468.813,1391.227a1.682,1.682,0,1,1,1.682-1.681,1.683,1.683,0,0,1-1.682,1.681" transform="translate(-390.432 -1159.986)" fill="#efb229"/>
      <path id="Trazado_775919" data-name="Trazado 775919" d="M294.992,997.6c-1.46-4.5-4.6-8.7-9.079-10.22-2.861-.972-5.969-.776-8.983-.569l-21.2,1.458c-3.239.223-6.727.544-9.181,2.67-3.089,2.677-3.454,7.654-1.5,11.246s5.751,5.886,9.7,6.937,8.1,1.014,12.186.969c7.931-.086,15.894.033,23.819-.265,1.982-.074,4.505-.106,5.4-2.222,1-2.352-.064-7.81-1.162-10.005" transform="translate(-203.802 -824.64)" fill="#6ba9c1"/>
      <path id="Trazado_775920" data-name="Trazado 775920" d="M304.9,554.722a5.1,5.1,0,0,0,4.787-2.113,4.388,4.388,0,0,0,.728-2.534c-.245-3.664-6.63-7.365-11.909-6.552-.607.093-4.435.683-5.2,2.629a4.6,4.6,0,0,1-1.064,1.815,4.217,4.217,0,0,1-1.315.876c-2.565,1.241-1.519,13.972,1.452,16,.214.146,1.815,1.246,2.531.764l.031-.021c1.634-1.1,2.089-.72,2.54-1.3,1.212-1.557-1.965-4.467-.727-6.832a5.079,5.079,0,0,1,2.079-2.032c.793-.479,1.529-1.564,2.176-1.7.877-.184,2.86.933,3.888,1" transform="translate(-241.943 -454.186)" fill="#213967"/>
      <path id="Trazado_775921" data-name="Trazado 775921" d="M309.652,652.988a10.478,10.478,0,0,1-4.312.836q-3.256.161-6.505.327a12.907,12.907,0,0,1-4.113-.234,4.384,4.384,0,0,1-3.052-2.559c-.673-1.928.98-3.168,2.19-4.475.068-.074.137-.149.2-.226.148-.171,2.815-1.519,2.938-1.7,0,0,.025-.91.035-2.076.01-1.05.01-2.308-.025-3.3-.012-.321-.016-.66,0-1.02.07-1.827-.165-3.829.9-5.318a3.937,3.937,0,0,1,4.117-1.407,4.674,4.674,0,0,1,3.152,3.114c.94,3.009-.927,6.7.89,9.256.01.017.023.033.035.051a1.884,1.884,0,0,0,.169.19c.248.246.627.543.817.708a4.986,4.986,0,0,0,.973.708c.4.234.806.455,1.2.685a4.622,4.622,0,0,1,2.5,2.872,3.592,3.592,0,0,1-2.106,3.562" transform="translate(-243.649 -527.996)" fill="#f9b189"/>
      <path id="Trazado_775922" data-name="Trazado 775922" d="M309.652,709.83a10.478,10.478,0,0,1-4.312.836q-3.256.161-6.505.327a12.907,12.907,0,0,1-4.113-.234,4.384,4.384,0,0,1-3.052-2.559c-.673-1.928.98-3.168,2.19-4.475.068-.073.137-.149.2-.226.148-.17,2.815-1.519,2.938-1.7,0,0,.025-.91.035-2.076a10.069,10.069,0,0,1,2.155,1.052c1.238.775,2.506,1.883,4.069,1.754a5.19,5.19,0,0,0,2.807-1.479c.01.018.023.033.035.051a1.877,1.877,0,0,0,.169.19c.248.246.627.543.817.708a4.988,4.988,0,0,0,.973.708c.4.234.806.455,1.2.685a4.622,4.622,0,0,1,2.5,2.872,3.592,3.592,0,0,1-2.106,3.562" transform="translate(-243.649 -584.838)" fill="#e09773"/>
      <path id="Trazado_775923" data-name="Trazado 775923" d="M334.193,644.456a9.81,9.81,0,0,1-1.892-.5c-.238-.121.873.42-2.229-1.131-1.761-.876-2.278-1.14-2.555-1.329l-.348-.235a20.043,20.043,0,0,1-2.236-1.667c-.012-.321-.016-.66,0-1.02.07-1.827-.165-3.829.9-5.318a3.936,3.936,0,0,1,4.117-1.407,4.674,4.674,0,0,1,3.152,3.114c.947,3.028-.952,6.747.926,9.307a1.869,1.869,0,0,0,.169.19" transform="translate(-271.573 -527.997)" fill="#e09773"/>
      <path id="Trazado_775924" data-name="Trazado 775924" d="M329.043,586.895c1.369.5,3.134.791,4.159-.175a3.5,3.5,0,0,0,.863-2.052,23.361,23.361,0,0,0-.081-10.456A11.872,11.872,0,0,0,327,566.281c-2.244-.839-5.355-.616-6.435,1.359a5.41,5.41,0,0,0-.322,3.189q.283,2.771.566,5.542c.157,1.538-.119,4,.578,5.408.543,1.094,2.3,2.188,3.334,2.892.4.27,4.323,2.15,4.323,2.224" transform="translate(-267.587 -472.916)" fill="#f9b189"/>
      <path id="Trazado_775925" data-name="Trazado 775925" d="M309.68,552.609a5.108,5.108,0,0,1-4.788,2.113c-1.028-.065-3.01-1.182-3.887-1-.646.135-1.384,1.221-2.176,1.7a5.064,5.064,0,0,0-2.079,2.032c-.779,1.488.191,3.193.714,4.64a.7.7,0,0,1-1.144.745l-6.753-6.351c-.3-3.571.079-7.029,1.356-7.647a4.1,4.1,0,0,0,2.378-2.692c.762-1.946,4.589-2.534,5.2-2.629,5.279-.811,11.665,2.889,11.909,6.553a4.4,4.4,0,0,1-.727,2.534" transform="translate(-241.94 -454.185)" fill="#213967"/>
      <path id="Trazado_775926" data-name="Trazado 775926" d="M307.991,629.483a1.282,1.282,0,0,0-.594-.434,1.07,1.07,0,0,0-1.232.515,5.385,5.385,0,0,0-.883,2.836,2.4,2.4,0,0,0,1.144,2.015c.6.323,1.331.3,1.95.586.059.027.932.156.987.188.475.274.255-.147.234-.7a12.453,12.453,0,0,0-.423-2.9,6.273,6.273,0,0,0-1.184-2.109" transform="translate(-255.154 -525.726)" fill="#f9b189"/>
      <path id="Trazado_775927" data-name="Trazado 775927" d="M249.643,784.581a72.041,72.041,0,0,1,.791,22.8c-.512,4.089-1.379,8.183-1.063,12.292s2.053,8.374,5.574,10.515a10.728,10.728,0,0,0,9.473.566,14.312,14.312,0,0,0,7.033-6.6,26.592,26.592,0,0,0,2.617-11.6c.147-3.995-.116-8,.2-11.988a18.874,18.874,0,0,0-5.9-15.412,18.253,18.253,0,0,0-15.932-4.108,6.249,6.249,0,0,0-2.466,1.022c-.711.547-.5,1.635-.326,2.515" transform="translate(-208.369 -652.444)" fill="#6ba9c1"/>
      <path id="Trazado_775928" data-name="Trazado 775928" d="M284.008,837.189c-.239,2.2-3.073,2.681-5.284,2.681-19.015-.028-19.16-.037-37.92-.1a13.384,13.384,0,0,1-13.323-12.857c-.263-6.6-.208-5.7.4-40.048.033-2.015-.731-6.4,2.9-5.092,2.625.944,2.736,4.213,2.709,6.5q-.108,9.958-.222,19.917c-.072,6.4,1.052,12.664.979,19.062-.049,4.134,1.063,5.53,5.548,5.558,12.6.071,12.326.2,37.778.354a9.692,9.692,0,0,1,4.436.726,3.474,3.474,0,0,1,1.988,3.3" transform="translate(-190.005 -653.21)" fill="#97d1f4"/>
      <path id="Trazado_775929" data-name="Trazado 775929" d="M235.395,788.272q-.111,9.958-.223,19.916a32.632,32.632,0,0,1-5.573-10.821q.092-5.253.181-10.5c.033-2.014-.731-6.4,2.9-5.091a4.129,4.129,0,0,1,2.366,2.759,12.227,12.227,0,0,1,.344,3.737" transform="translate(-191.9 -653.213)" fill="#7fbedd"/>
      <path id="Trazado_775930" data-name="Trazado 775930" d="M494.179,1322.874q-.145,2.693-.29,5.388-.058,1.072-.116,2.143a2.108,2.108,0,0,1-.544,1.588,2.054,2.054,0,0,1-1.5.256,36.364,36.364,0,0,1-5.279-.9,2.693,2.693,0,0,1-1.718-.947,2.8,2.8,0,0,1-.126-2.025c.044-.233.083-.486.119-.751.249-1.911.318-4.526,1.159-6.014,1.059-1.874,3.534-1.6,5.476-1.542a2.271,2.271,0,0,1,2.819,2.8" transform="translate(-404.932 -1103.284)" fill="#edb9a3"/>
      <path id="Trazado_775931" data-name="Trazado 775931" d="M495.092,1320.937a3.011,3.011,0,0,1,.332,1.937q-.145,2.693-.29,5.388a4.528,4.528,0,0,1-.818.075c-.111,0-.221-.005-.332-.012q-3.272-.24-6.549-.481a7.754,7.754,0,0,1-1.465-.218c.249-1.911.318-4.526,1.159-6.014,1.059-1.874,3.534-1.6,5.476-1.542a3.04,3.04,0,0,1,2.487.866" transform="translate(-406.177 -1103.284)" fill="#e09773"/>
      <path id="Trazado_775932" data-name="Trazado 775932" d="M635.367,1334.013a2.039,2.039,0,0,1-1.463.414,36.263,36.263,0,0,1-5.344-.328,2.684,2.684,0,0,1-1.811-.757,2.791,2.791,0,0,1-.342-2c0-.026,0-.055.005-.083.142-1.948-.22-5.019.541-6.781.853-1.978,3.344-1.972,5.279-2.12a2.273,2.273,0,0,1,3.105,2.485q.153,2.858.306,5.718c.032.6.065,1.208.1,1.813a2.1,2.1,0,0,1-.372,1.637" transform="translate(-523.528 -1105.211)" fill="#edb9a3"/>
      <path id="Trazado_775933" data-name="Trazado 775933" d="M635.837,1330.563a7.718,7.718,0,0,1-5.687,2.017,7.25,7.25,0,0,1-3.544-1.32c.142-1.948-.22-5.019.541-6.781.854-1.978,3.344-1.972,5.279-2.12a2.273,2.273,0,0,1,3.105,2.485q.153,2.858.306,5.718" transform="translate(-523.721 -1105.21)" fill="#e09773"/>
      <path id="Trazado_775934" data-name="Trazado 775934" d="M464.838,1011.224a1.039,1.039,0,0,1-.326.885c-1.84,1.676-7.071,2.175-8.708.694-.908-.82.622,2.5-5.262-21.664-1.115-4.58-2.5-10.149-4.212-16.92-.717-2.833-1.472-5.745-3.209-8.093-2.169-2.935-5.594-4.628-8.929-6.108s-6.818-2.928-9.331-5.573c-1.747-1.841-3.195-4.832-2.789-7.49a5.448,5.448,0,0,1,.209-.878c.664-2.025,2.352-2.144,4.136-1.848,1,.167,2.037.467,2.936.632q2.176.4,4.341.861,6.022,1.272,11.944,2.979,3.2.919,6.352,1.962c1,.33,2.011.681,2.989,1.1v0a12.2,12.2,0,0,1,4.886,3.391c2.25,2.785,2.5,6.633,2.656,10.211,1.53,35.641,2.112,44.027,2.315,45.861" transform="translate(-352.714 -789.092)" fill="#2a4f96"/>
      <path id="Trazado_775935" data-name="Trazado 775935" d="M454.277,958.9a174.924,174.924,0,0,1-3.736,32.236c-1.115-4.58-2.5-10.149-4.212-16.92-.717-2.833-1.472-5.745-3.209-8.093-2.169-2.935-5.594-4.628-8.929-6.108s-6.818-2.928-9.331-5.573c-1.747-1.841-3.195-4.832-2.789-7.49a5.467,5.467,0,0,1,.209-.878c.664-2.025,2.352-2.144,4.136-1.848,1,.167,2.037.467,2.937.632q2.176.4,4.341.861,6.022,1.272,11.944,2.979.764.242,1.53.5c2.176.717,4.61,1.668,5.994,3.931a10.213,10.213,0,0,1,1.113,5.776" transform="translate(-352.714 -789.092)" fill="#1d3f77"/>
      <path id="Trazado_775936" data-name="Trazado 775936" d="M332.862,948.332a173.48,173.48,0,0,1-9.1,51.6,2.345,2.345,0,0,1-2.4,1.579q-3.275-.24-6.549-.481a2.141,2.141,0,0,1-2.432-2.865q2.271-21.855,4.543-43.708c-4.169,0-9.772-.023-16.414-.107-12.285-.156-16.047-.376-18.467-3.295-1.822-2.2-2.424-5.26-2.759-8.047a91.667,91.667,0,0,1,.843-11.456c.392-.3,2.039,1.663,2.915,1.644a107.882,107.882,0,0,1,17,1.052q1.378.187,2.756.408a158.719,158.719,0,0,1,24.4,6.022c1.851.609,3.836,1.365,4.853,3.028a8.387,8.387,0,0,1,.8,4.628" transform="translate(-233.405 -778.571)" fill="#2a4f96"/>
      <path id="Trazado_775937" data-name="Trazado 775937" d="M303.07,940.744c-.934,1.254-2.813,1.145-4.361.911l-7.466-1.134-3.149-.48a26.663,26.663,0,0,1-6.835-1.665c-.241-.105-.479-.22-.713-.343l.037-.469c.23-2.952.55-5.954.627-6.014.392-.3,2.039,1.663,2.915,1.644.132,0,.264-.005.4-.007a108.592,108.592,0,0,1,16.6,1.059c.193.181.381.369.558.564a7,7,0,0,1,1.816,3.481,3.18,3.18,0,0,1-.427,2.452" transform="translate(-234.482 -778.571)" fill="#1d3f77"/>
      <path id="Trazado_775938" data-name="Trazado 775938" d="M303.466,905.463a13.173,13.173,0,0,1-.664,4.013,5.587,5.587,0,0,1-.46.931,8.393,8.393,0,0,1-3.941,3.007,36.9,36.9,0,0,0-4.6,2.046c-1.674,1.024-3.012,2.525-4.656,3.6-2.678,1.755-5.952,2.257-9.141,2.656a25.024,25.024,0,0,1-.717-3.888,43.434,43.434,0,0,1,.216-5.443,38.56,38.56,0,0,1,3.885-4.329l.053-.047a26.719,26.719,0,0,1,5.07-3.52,25.821,25.821,0,0,1,11.929-3.095,3.553,3.553,0,0,1,1.876.357,2.549,2.549,0,0,1,1.08,1.672,7.548,7.548,0,0,1,.067,2.039" transform="translate(-233.406 -753.392)" fill="#1d3f77"/>
      <path id="Trazado_775939" data-name="Trazado 775939" d="M426.768,944.229a3.126,3.126,0,0,1-.718,1.535,3.866,3.866,0,0,1-2.784,1.134c-.276.019-.555.039-.843.056a5.443,5.443,0,0,1,.209-.878c.664-2.025,2.352-2.145,4.136-1.848" transform="translate(-353.064 -789.092)" fill="#a54844"/>
      <path id="Trazado_775940" data-name="Trazado 775940" d="M553.107,952.357a.089.089,0,0,0-.009.019,1.157,1.157,0,0,1-2.085.1,4.373,4.373,0,0,0-3.165-2.253c-1.073-.151-2.18.111-3.246-.083l-.037-.007a3.849,3.849,0,0,1-2.868-2.515,14.383,14.383,0,0,1,3.239-3.121c1.02-.676,2.129-.341,3.218.1.025.011.049.019.074.032a8.332,8.332,0,0,1,4.895,5.541,3.665,3.665,0,0,1-.016,2.19" transform="translate(-452.755 -789.095)" fill="#f8b281"/>
      <path id="Trazado_775941" data-name="Trazado 775941" d="M548.228,944.626a7.631,7.631,0,0,1-1.83,3.346,16.48,16.48,0,0,1-1.795,2.167l-.037-.007a3.848,3.848,0,0,1-2.868-2.515,14.372,14.372,0,0,1,3.239-3.121c1.02-.676,2.129-.341,3.218.1.025.011.049.019.074.032" transform="translate(-452.755 -789.095)" fill="#e09773"/>
      <path id="Trazado_775942" data-name="Trazado 775942" d="M302.377,755.559c-.843.321-2.083.118-6.875-3.959-4.954-4.215-3.949-4.27-6.448-5.947a14.017,14.017,0,0,1-4.28-4.126c-.237-.365-.413-.679-.527-.89.009.622.019,1.243.026,1.863,0,.072,0,.142,0,.214q.045,3.335.088,6.672a1.676,1.676,0,0,1-1.942,2.074q-1.441.1-2.884.186-1.243.076-2.489.142c-1.068,1.017-2.582,1.407-3.876,2.125a20.178,20.178,0,0,0-4.073,3.442,10.317,10.317,0,0,1-4.746,3.093c-2.248.511-4.7-.328-6.9.169a.7.7,0,0,1-.868-.692,51.491,51.491,0,0,1,.327-5.255c.021-.195.046-.388.072-.58v-.074c-.014-1.811,0-3.86.007-4.187a58.46,58.46,0,0,1,.4-6.463c.107-.862.14-2.057.372-3.112q-1.159-8.525-2.852-16.969-.248-1.236-.508-2.468a7.406,7.406,0,0,1-.083-4.14c.776-2.036,3.154-2.935,5.313-3.239,1.154-.162,2.323-.22,3.469-.432.878-.163,1.946-.759,2.84-.613,1.823.3,3.23,2.2,5.22,2.51,1.853.292,4.029-.55,4.612-2.332a21.721,21.721,0,0,1,2.4.727v0a16.29,16.29,0,0,1,5.785,3.363c2.587,2.209,3.681,5.731,4.431,9.048.656,2.9.378,3.654,1.4,6.865a17.6,17.6,0,0,0,1.837,4.307c.659,1.063,1.268,1.733,4.379,4.577,3.936,3.6,5.9,5.4,6.448,5.759,2.087,1.392,3.555,1.957,3.631,3.2.045.743-.471,1.431-1.5,2.805-1.046,1.394-1.569,2.091-2.2,2.331" transform="translate(-212.34 -595.406)" fill="#ffd050"/>
      <path id="Trazado_775943" data-name="Trazado 775943" d="M328,713.4a9.6,9.6,0,0,1-.806,1.181c-2.2,2.814-5.909,2.664-9.21,1.42a12.92,12.92,0,0,1-3.08-1.563,7.56,7.56,0,0,1-1.617-1.607,5.084,5.084,0,0,1,2.166-.433c1.824.3,3.23,2.2,5.22,2.51,1.854.291,4.029-.55,4.612-2.333a21.978,21.978,0,0,1,2.4.727v0s.113.03.319.1" transform="translate(-261.844 -595.406)" fill="#fff"/>
      <path id="Trazado_775944" data-name="Trazado 775944" d="M283.917,801.479q-1.244.076-2.489.142c-1.068,1.017-2.582,1.407-3.876,2.125a20.189,20.189,0,0,0-4.073,3.442l-3.149-.479a26.679,26.679,0,0,1-6.836-1.665,12.794,12.794,0,0,1-2.128-1.194c-.014-1.811,0-3.86.007-4.187a58.49,58.49,0,0,1,.4-6.463c.107-.862.141-2.057.372-3.112q-1.159-8.525-2.852-16.969a2.925,2.925,0,0,0,.464-.574c1.344-.132,5.922-1.918,7.757,1.753a26.779,26.779,0,0,1,2.353,7,26.427,26.427,0,0,1,.451,4.2c.06,2.146-.126,4.378.706,6.358a10.291,10.291,0,0,0,4.746,4.672c1.978,1.1,4.118,1.905,6.008,3.149a11.383,11.383,0,0,1,2.139,1.8" transform="translate(-216.718 -645.239)" fill="#efb229"/>
      <path id="Trazado_775945" data-name="Trazado 775945" d="M412.968,950.051a1.218,1.218,0,0,1-1.528,1.166,4.29,4.29,0,0,0-1.25-.133,19.919,19.919,0,0,0-2.564.385,13.548,13.548,0,0,1-2.443.174c-.43-.005-.861-.033-1.289-.081a4.036,4.036,0,0,1-2.324-.847,3.186,3.186,0,0,1-.869-2.682c.1-.978.43-2.619,1.3-3.188a6.887,6.887,0,0,1,3.432-.729c.485-.005.941.018,1.326.051a7.271,7.271,0,0,1,4.928,2.4,5.481,5.481,0,0,1,1.277,3.481" transform="translate(-334.891 -789.098)" fill="#f8b281"/>
      <path id="Trazado_775946" data-name="Trazado 775946" d="M404.217,950.471l.964,1.175c-.43-.005-.861-.033-1.289-.081a4.036,4.036,0,0,1-2.324-.847,3.186,3.186,0,0,1-.869-2.682c.1-.978.43-2.619,1.3-3.188a6.887,6.887,0,0,1,3.432-.729c.466,1.221-.04,2.673-.616,4.336a14.9,14.9,0,0,0-.6,2.014" transform="translate(-334.89 -789.102)" fill="#e09773"/>
      <path id="Trazado_775947" data-name="Trazado 775947" d="M275.138,767.785c-1.224.72-20.037-4.789-20.506-5.028-2.455-1.263-3.467-4.2-4.076-6.9a122.223,122.223,0,0,1-2.292-19.454,24.622,24.622,0,0,1,.193-6.669c.411-1.928,2.218-6.512,4.81-4.842,2.645,1.705,4.285,5.423,5.123,8.314a47.954,47.954,0,0,1,1.409,10.836c.163,3.061.242,6.4-1.34,8.957a7.172,7.172,0,0,1-.478.685c.594-.133.488.046.831.529.694.978,3.219,3.195,17.022,6.588,1.814.446-1.712,5.739-.7,6.979" transform="translate(-207.391 -605.573)" fill="#ffd050"/>
      <path id="Trazado_775948" data-name="Trazado 775948" d="M425.257,810.262c.009.622.019,1.243.026,1.863-1.5-3.167-2.181-8.443-2.39-11.045-.248-3.063.6-2.562-.128-5.4a103.93,103.93,0,0,1,3.019,15.476q-.274-.437-.527-.89" transform="translate(-353.35 -665.032)" fill="#efb229"/>
      <path id="Trazado_775949" data-name="Trazado 775949" d="M287.538,899.125a3.933,3.933,0,0,1-1.331.042,7.936,7.936,0,0,0-3.7.706c.213-.1.436-.427.625-.579a6.235,6.235,0,0,1,.727-.5,6.349,6.349,0,0,1,2.951-.864c.1,0,.23-.014.379-.02a7.147,7.147,0,0,1-.478.685c.594-.133.488.046.831.529" transform="translate(-236.118 -750.48)" fill="#efb229"/>
      <path id="Trazado_775950" data-name="Trazado 775950" d="M392.762,630.707c.11.349.4.568.658.488a.594.594,0,0,0,.26-.777c-.11-.349-.4-.568-.658-.488a.594.594,0,0,0-.26.777" transform="translate(-328.239 -526.487)" fill="#444c70"/>
      <path id="Trazado_775951" data-name="Trazado 775951" d="M364.078,635.779c.062.361-.1.69-.362.735s-.524-.211-.586-.572.1-.69.362-.735.524.211.586.572" transform="translate(-303.495 -530.906)" fill="#444c70"/>
      <path id="Trazado_775952" data-name="Trazado 775952" d="M382.1,668.425a2.515,2.515,0,0,1-.917-.185.164.164,0,0,1,.125-.3,1.757,1.757,0,0,0,1.567-.058,2.047,2.047,0,0,0,.525-.571l.266.192a2.316,2.316,0,0,1-.611.653,1.715,1.715,0,0,1-.955.272" transform="translate(-318.506 -557.741)" fill="#444c70"/>
      <path id="Trazado_775953" data-name="Trazado 775953" d="M381.594,641.826a.164.164,0,0,1-.115-.282c.1-.1.214-.205.328-.313.132-.125.264-.25.374-.358a4.1,4.1,0,0,1-.846-.735,3.887,3.887,0,0,1-.292-.39,9.426,9.426,0,0,1-.576-.95.164.164,0,0,1,.294-.147,9.343,9.343,0,0,0,.555.913,3.582,3.582,0,0,0,.268.359,3.488,3.488,0,0,0,.774.664.334.334,0,0,1,.055.52c-.111.11-.245.237-.379.363-.112.106-.225.213-.324.309a.164.164,0,0,1-.115.047" transform="translate(-317.982 -533.713)" fill="#444c70"/>
      <path id="Trazado_775954" data-name="Trazado 775954" d="M356.843,653.475c-.079-.31-.706-.419-1.4-.243s-1.2.571-1.117.881.706.419,1.4.243,1.2-.571,1.117-.881" transform="translate(-296.14 -545.906)" fill="#f88"/>
      <path id="Trazado_775955" data-name="Trazado 775955" d="M401.611,647.827h0c-.717-.04-1.282-.334-1.265-.653s.6-.539,1.3-.506Z" transform="translate(-334.609 -540.487)" fill="#f88"/>
      <path id="Trazado_775956" data-name="Trazado 775956" d="M387.712,617.581a.411.411,0,0,0,.152.423c.243.158.9-.29,1.54-.394a7.1,7.1,0,0,1,.887-.089.141.141,0,0,0,.067-.263c-.824-.479-2.541-.079-2.646.324" transform="translate(-324.043 -515.725)" fill="#444c70"/>
      <path id="Trazado_775957" data-name="Trazado 775957" d="M353.823,624.708a.411.411,0,0,1,.1.438c-.118.265-.915.249-1.506.507a7.1,7.1,0,0,0-.793.408.142.142,0,0,1-.2-.184c.431-.85,2.089-1.449,2.4-1.169" transform="translate(-293.712 -522.077)" fill="#444c70"/>
      <path id="Trazado_775958" data-name="Trazado 775958" d="M502.462,1370.75c-6.765.771-13.64.2-20.441-.367-.9-.075-1.5-.315-1.567-2q-.139-3.288-.275-6.578a1.3,1.3,0,0,1,.906-1.3c1.29-.407,2.888,1.148,4.234,1.922a.869.869,0,0,0,1.184-.32,6.583,6.583,0,0,1,2.942-3.033,1,1,0,0,1,1.231.182c1.361,1.13,2.017,2.957,3.57,3.836a13.7,13.7,0,0,0,3.279,1.131c2.476.675,3.5,2.056,5.292,3.814,1.6,1.567.559,2.607-.357,2.712" transform="translate(-401.336 -1135.815)" fill="#2a4f96"/>
      <path id="Trazado_775959" data-name="Trazado 775959" d="M540.829,1368.133a7.336,7.336,0,0,1-1.926,1.078c-.744.314-1.419.378-1.9-.417a2.122,2.122,0,0,1-.265-1.2.4.4,0,0,1,.223-.376,12.264,12.264,0,0,0,1.167-.987,3.817,3.817,0,0,0,.584-.671,22.585,22.585,0,0,0,2.122,2.576" transform="translate(-448.603 -1141.342)" fill="#fff"/>
      <path id="Trazado_775960" data-name="Trazado 775960" d="M505.385,1420.945a1.254,1.254,0,0,1-1.183,1.245c-6.766.771-13.64.2-20.441-.366a1.379,1.379,0,0,1-1.5-1.334,3.989,3.989,0,0,0,.423.054c7.542.633,15.166,1.262,22.668.407l.034-.005" transform="translate(-403.076 -1187.255)" fill="#fff"/>
      <path id="Trazado_775961" data-name="Trazado 775961" d="M492.751,1403.86a.719.719,0,0,1-.924.748,5.375,5.375,0,0,1-2.126-1.451,6.432,6.432,0,0,0-2.79-2.036,5.511,5.511,0,0,0-1.491-.086l-1.648.052a9.3,9.3,0,0,1-2.525-.143l-.056-1.312a2.641,2.641,0,0,0,.3.128,6.083,6.083,0,0,0,2.753.2,15.914,15.914,0,0,1,2.866-.509,6.921,6.921,0,0,1,3.731,1.738,4.694,4.694,0,0,1,1.741,1.882,2.689,2.689,0,0,1,.171.786" transform="translate(-402.183 -1169.672)" fill="#fff"/>
      <path id="Trazado_775962" data-name="Trazado 775962" d="M647.255,1370.75c-6.765.771-13.64.2-20.441-.367-.9-.075-1.5-.315-1.567-2q-.139-3.288-.275-6.578a1.3,1.3,0,0,1,.906-1.3c1.29-.407,2.888,1.148,4.234,1.922a.869.869,0,0,0,1.184-.32,6.583,6.583,0,0,1,2.942-3.033,1,1,0,0,1,1.231.182c1.361,1.13,2.017,2.957,3.57,3.836a13.7,13.7,0,0,0,3.279,1.131c2.476.675,3.5,2.056,5.292,3.814,1.6,1.567.559,2.607-.356,2.712" transform="translate(-522.355 -1135.815)" fill="#2a4f96"/>
      <path id="Trazado_775963" data-name="Trazado 775963" d="M685.621,1368.133a7.338,7.338,0,0,1-1.926,1.078c-.744.314-1.419.378-1.9-.417a2.122,2.122,0,0,1-.265-1.2.4.4,0,0,1,.223-.376,12.272,12.272,0,0,0,1.167-.987,3.814,3.814,0,0,0,.584-.671,22.579,22.579,0,0,0,2.122,2.576" transform="translate(-569.621 -1141.342)" fill="#fff"/>
      <path id="Trazado_775964" data-name="Trazado 775964" d="M650.177,1420.945a1.253,1.253,0,0,1-1.183,1.245c-6.766.771-13.64.2-20.441-.366a1.379,1.379,0,0,1-1.5-1.334,3.988,3.988,0,0,0,.423.054c7.542.633,15.167,1.262,22.668.407l.034-.005" transform="translate(-524.094 -1187.255)" fill="#fff"/>
      <path id="Trazado_775965" data-name="Trazado 775965" d="M637.544,1403.86a.719.719,0,0,1-.924.748,5.375,5.375,0,0,1-2.126-1.451,6.429,6.429,0,0,0-2.79-2.036,5.51,5.51,0,0,0-1.491-.086l-1.648.052a9.3,9.3,0,0,1-2.525-.143c-.019-.437-.037-.875-.056-1.312a2.638,2.638,0,0,0,.3.128,6.083,6.083,0,0,0,2.753.2,15.912,15.912,0,0,1,2.866-.509,6.92,6.92,0,0,1,3.731,1.738,4.694,4.694,0,0,1,1.741,1.882,2.694,2.694,0,0,1,.171.786" transform="translate(-523.201 -1169.672)" fill="#fff"/>
      <path id="Trazado_775966" data-name="Trazado 775966" d="M1426.018,779.294a45.135,45.135,0,0,0-1.665-4.793c-1.5-3.63-2.14-4.311-5.977-3.777a52.62,52.62,0,0,1-18.414-.711c-5.38-1.172-6.294-3.449-7.516,7.345-.138,1.186-1.952,11.175-2.234,12.714-.225,1.232-.631,3.4-.811,4.364q-1.491,7.936-3.1,15.848-.371,1.841-.753,3.677c-3.253,15.73-8.228,31.145-12.222,46.685a5.414,5.414,0,0,1-.478,1.223c-.363.672-.943,1.777-1.49,2.7a12.716,12.716,0,0,1-1.657,2.295,13.672,13.672,0,0,1-3.739,2.372c-1.331.68-2.722,1.279-4.1,1.874a17.3,17.3,0,0,0,9.04,1.459,16.856,16.856,0,0,0,6.849-2.189,3.34,3.34,0,0,0,1.578-1.569,2.781,2.781,0,0,0-.064-2.114,10.1,10.1,0,0,1-.3-2.342c-.007-.365-.012-.681-.016-.958,5.619-12.454,8.944-13.337,20.133-39.145a113.757,113.757,0,0,0,4.731-14.878c.649-2.423,2.572-4.634,3.17-7.364.051.371.1.744.148,1.117.189,1.418,2.354,2,2.534,3.438q1.14,9.074,2.053,18.709.7,7.4,1.215,14.949c0,.017.781,19.728-2.174,25.281a9.53,9.53,0,0,1-.865,1.376,14.607,14.607,0,0,1-3.584,2.9c-1.3.871-2.67,1.67-4.031,2.46a19.451,19.451,0,0,0,16.5-3.061,3.445,3.445,0,0,0,1.438-1.786,1.756,1.756,0,0,0,.079-.874,25.149,25.149,0,0,1-1.051-3.369c.027-.145,2.039-10.864,2.158-14.14.458-12.83,3.741-25.335,5.564-38.026a109.7,109.7,0,0,0,1.166-13.458,61.79,61.79,0,0,0-2.108-18.23" transform="translate(-1138.25 -642.716)" fill="#f9b189"/>
      <path id="Trazado_775967" data-name="Trazado 775967" d="M1549.906,812.255c-5.471.632-10.967.169-16.467-.355q-.313-2.692-.645-5.335c-.179-1.438-2.345-2.02-2.534-3.438q-.074-.559-.148-1.117c-.6,2.731-2.522,4.941-3.171,7.364-.172.644-.345,1.279-.514,1.9a68.459,68.459,0,0,0-9.229-.123,60.275,60.275,0,0,1-8.016.386c2.728-13.323,6.164-32.16,6.4-34.179,1.222-10.794,2.136-8.517,7.515-7.344a52.671,52.671,0,0,0,18.414.711c3.837-.534,4.474.146,5.977,3.776,4.831,11.668,4.337,25.377,2.419,37.751" transform="translate(-1261.385 -642.718)" fill="#e09773"/>
      <path id="Trazado_775968" data-name="Trazado 775968" d="M1583.121,333.934c-.318,1.664-.378,2.522.6,3.811,2.8,3.692,10.1,5.026,14.67,5.3,7.673.466,12.183-5.994,10.12-12.753a22.28,22.28,0,0,0-2.069-4.455,23.482,23.482,0,0,0-3.186-4.606c-2.187-2.312-5.081-3.652-7.521-5.643a23.639,23.639,0,0,0-4.4-3.384c-2.149-1.024-4.992-1.185-5.493,3.486q-.629,5.86-1.563,11.676-.528,3.291-1.154,6.563" transform="translate(-1323.009 -260.454)" fill="#213967"/>
      <path id="Trazado_775969" data-name="Trazado 775969" d="M1640.768,305.309a46.007,46.007,0,0,0-.571-8.739c-.457-3.511-.95-7.111-2.64-10.222a4.741,4.741,0,0,0-3.127-2.62,9.854,9.854,0,0,0-7.19.466,6.469,6.469,0,0,0-3.919,5.014Z" transform="translate(-1356.782 -236.75)" fill="#213967"/>
      <path id="Trazado_775970" data-name="Trazado 775970" d="M1595.1,370.184c.394,1.171,1.3,1.884,2.135,4.106.571,1.525.84,2.112,2.654,2.241,4.868.347,8.841-.781,11.134-5.088a12.841,12.841,0,0,0,1.113-5.894c.053-3.593-2.242-4.052-5.842-4.023a44.074,44.074,0,0,0-5.169.165c-2.56.323-5.7,2.232-6.1,4.769a9.08,9.08,0,0,0,.078,3.723" transform="translate(-1332.998 -302.167)" fill="#132744"/>
      <path id="Trazado_775971" data-name="Trazado 775971" d="M1650.647,431.132c1.649-.159,4.056,1.047,4.935,4.344,1.235,4.631-1.208,9.414-2.5,14.03a52.916,52.916,0,0,0-.732,25.37c.578,2.655,1.424,5.375,3.3,7.337a9.629,9.629,0,0,1,1.76,2.156,1.5,1.5,0,0,1-.5,2.224,2.056,2.056,0,0,1-2.621,0c-2.858-2.146-4.2-4.767-5.237-8.187-.407-1.338-2.068-11.6-2.047-13.016.109-7.115,3.027-17.2,4.714-21.586a10.371,10.371,0,0,0,.79-6.434c-.426-1.559-1.968-2.361-3.621-2.566a21.13,21.13,0,0,0-4.578-.037c-.166-1.5-.555-2.516,1.157-2.881a25.94,25.94,0,0,1,5.175-.75" transform="translate(-1374.197 -360.332)" fill="#ff7466"/>
      <path id="Trazado_775972" data-name="Trazado 775972" d="M1602.1,438.493l-2.708.678a15.043,15.043,0,0,0-2.5.811,30.528,30.528,0,0,0-4.883,2c.7-4.264,2.277-4.5,7.031-5.412a3.986,3.986,0,0,1,2.308.021,1.375,1.375,0,0,1,.749,1.9" transform="translate(-1330.615 -364.752)" fill="#ff7466"/>
      <path id="Trazado_775973" data-name="Trazado 775973" d="M1407.092,721.93c-1.253-.182-2.463-.418-5.8-1.065-6.669-1.3-9.167-1.893-9.167-1.893-1.695-.411-2.229.253-2.923.4a21.431,21.431,0,0,1-4.964.81.62.62,0,0,1-.172-1.2,13.778,13.778,0,0,0,2.441-.642c.408-.526.378-.692-.044-1.2-.517-.627-1.27-.523-1.995-.365l-3.069,1.038a.621.621,0,0,1-.387-1.173c.808-.376,2.447-1.76,3.32-1.951a18.014,18.014,0,0,1,5.516.342,7.225,7.225,0,0,0,3.037.3c3.752-.051,7.005-.328,10.03-.479,4.435-.219,13.363-.522,13.117,3.676a4.066,4.066,0,0,1-1.8,2.781c-.849.658-2.449,1.3-7.145.626" transform="translate(-1153.955 -597.242)" fill="#f9b189"/>
      <path id="Trazado_775974" data-name="Trazado 775974" d="M1593.166,1361.69a1.367,1.367,0,0,0,.222,2.454c2.07.845,5.083,1.846,7.142,1.54a28.209,28.209,0,0,0,9.546-3.776c1.3.683.888,3.14.888,3.14l2.442-.171a32.891,32.891,0,0,0,.083-5.58,5.456,5.456,0,0,1-.02-3.6c.391-.889-.045-1.267-.972-.844-2.888,1.319-7.328,4.488-10.444,5.178-2.051.454-3.452-.728-5.208-.513a23.575,23.575,0,0,0-3.679,2.167" transform="translate(-1331.023 -1132.255)" fill="#ff7466"/>
      <path id="Trazado_775975" data-name="Trazado 775975" d="M1367.01,1364.612a5.713,5.713,0,0,0-.446,3.563,34.464,34.464,0,0,1-.8,5.514l-2.316-.172s.708-2.376-.429-3.234a38.124,38.124,0,0,1-5.168,1.809,17.938,17.938,0,0,1-4.282.6c-1.972.017-4.673-1.4-6.507-2.522a1.4,1.4,0,0,1,.109-2.46,21.712,21.712,0,0,1,3.733-1.633c1.678.032,2.84,1.4,4.825,1.234a11.389,11.389,0,0,0,2.352-.5c2.73-.844,5.922-2.475,8.122-3.166.925-.29,1.286.146.8.973" transform="translate(-1125.317 -1139.665)" fill="#ff7466"/>
      <path id="Trazado_775976" data-name="Trazado 775976" d="M1606.386,382.88c-.156.783-2,.541-5.01.68-.7.032-1.464.084-2.286.176a30.315,30.315,0,0,0-5.332,1.084,12.37,12.37,0,0,1-6.439.646,14.98,14.98,0,0,1-3.516-1.344c-1.02-.481-2.118-1-3-1.513-1.09-.631-1.863-1.253-1.773-1.794.118-.717,1.644-.556,3.531-1.3a8.084,8.084,0,0,0,1.9-1.056,8.557,8.557,0,0,0,1.833-1.8,6.847,6.847,0,0,0,.395-.6c.041-.066.077-.135.116-.2a5.576,5.576,0,0,0,.569-1.543c.434-2.105-.942-2.593-.607-5.014.225-1.661,1.554-3.531,2.415-5.061q.109-.193.206-.38c.788-1.5,1.951-3.2,3.642-3.121a2.874,2.874,0,0,1,2.236,1.494c.024.039.045.075.064.114a6.218,6.218,0,0,1,.6,2.848c.032,3.082-.386,6.323-.275,8.358a6.435,6.435,0,0,0,.114.955,5.063,5.063,0,0,0,.8,1.85,6.277,6.277,0,0,0,.53.672,10.412,10.412,0,0,0,2.408,1.91c.421.253.856.489,1.294.708,2.848,1.432,5.785,2.222,5.583,3.228" transform="translate(-1319.756 -301.509)" fill="#ffb381"/>
      <path id="Trazado_775977" data-name="Trazado 775977" d="M1601.376,461.575c-.7.032-1.464.084-2.286.176a30.333,30.333,0,0,0-5.332,1.084,12.371,12.371,0,0,1-6.439.646,14.967,14.967,0,0,1-3.516-1.344c-1.02-.481-2.118-1-3-1.513-1.09-.631-1.863-1.253-1.773-1.794.118-.717,1.644-.556,3.531-1.3a8.083,8.083,0,0,0,1.9-1.056,8.553,8.553,0,0,0,1.833-1.8,6.823,6.823,0,0,0,.395-.6c.24.2.472.416.717.586a7.559,7.559,0,0,0,8.03.393c.386-.217.753-.466,1.137-.683a6.328,6.328,0,0,0,.53.672,10.423,10.423,0,0,0,2.408,1.91c.421.253.856.489,1.294.708a19.464,19.464,0,0,1,.418,1.917,10.145,10.145,0,0,1,.155,1.992" transform="translate(-1319.756 -379.524)" fill="#e09773"/>
      <path id="Trazado_775978" data-name="Trazado 775978" d="M1634.794,381.177c-.088.079-.178.155-.271.228a11.718,11.718,0,0,1-5.645,2.067,7.754,7.754,0,0,1-2.934.011,5.571,5.571,0,0,0,.569-1.543c.433-2.106-.942-2.593-.608-5.014.226-1.661,1.554-3.531,2.415-5.061A14.826,14.826,0,0,1,1634,369.9c.125-.015.264-.03.41-.041.024.039.045.075.064.114a6.218,6.218,0,0,1,.6,2.848c.032,3.082-.386,6.323-.275,8.358" transform="translate(-1358.898 -309.13)" fill="#e09773"/>
      <path id="Trazado_775979" data-name="Trazado 775979" d="M1547.96,783.474c-.058,2.809-.257,5.622-.56,8.417a3.453,3.453,0,0,1-3.431,3.085h-41.078a.492.492,0,0,1-.481-.6q1.508-7.041,2.916-14.1c.15-.754.3-1.507.448-2.261s.3-1.5.445-2.258q1.219-6.248,2.363-12.512c.035-.19.066-.409.1-.652.317-2.64.414-7.968,2.86-8.6,1.565-.4,3.9.683,5.414.992.277.056.553.112.831.164q2.988.567,6.018.839.953.086,1.908.141a61.225,61.225,0,0,0,11.516-.407c1.542-.2,3.272-.417,4.514.524a5.42,5.42,0,0,1,1.448,2.044c.215.445.42.893.617,1.341a45.128,45.128,0,0,1,1.834,4.964,60.411,60.411,0,0,1,2.32,18.874" transform="translate(-1255.715 -630.123)" fill="#2a4f96"/>
      <path id="Trazado_775980" data-name="Trazado 775980" d="M1533.251,769.81c.107,2.807.18,5.772-1.17,8.236a8.09,8.09,0,0,1-10.144,3.32,7.921,7.921,0,0,1-1.711-1.088q.45-2.26.893-4.518,1.22-6.249,2.363-12.511c.034-.191.066-.41.1-.652.318-2.64.414-7.967,2.861-8.6,1.565-.4,3.9.683,5.413.992.277.056.554.112.831.163Z" transform="translate(-1270.616 -630.125)" fill="#1d3f77"/>
      <path id="Trazado_775981" data-name="Trazado 775981" d="M1666.622,791.834a56.9,56.9,0,0,1-9.377.592c-2.011-.041-4.235-.286-5.581-1.779a7.937,7.937,0,0,1-1.537-3.926c-1.095-5.613-2.121-11.245-3.288-16.843a14.236,14.236,0,0,0-2.466-5.385,61.085,61.085,0,0,0,11.515-.408c1.543-.2,3.273-.416,4.514.524a5.408,5.408,0,0,1,1.449,2.045,43.947,43.947,0,0,1,2.451,6.3,60.374,60.374,0,0,1,2.32,18.875" transform="translate(-1374.377 -638.482)" fill="#1d3f77"/>
      <path id="Trazado_775982" data-name="Trazado 775982" d="M1577.606,764.6a21.441,21.441,0,0,1-4.778,1.176,52.123,52.123,0,0,1-11.019-.12q-6.748-.554-13.5-1.1a20.735,20.735,0,0,1-6.021-1.1,9.247,9.247,0,0,1-1.646-.858c.318-2.64.414-7.967,2.861-8.6,1.565-.4,3.9.683,5.413.992a61.917,61.917,0,0,0,6.849,1,61.163,61.163,0,0,0,13.423-.266c1.543-.2,3.273-.416,4.514.524a5.41,5.41,0,0,1,1.449,2.045,43.97,43.97,0,0,1,2.451,6.3" transform="translate(-1287.682 -630.125)" fill="#1d3f77"/>
      <path id="Trazado_775983" data-name="Trazado 775983" d="M1617,325.556a13.164,13.164,0,0,1-3.88,7.169c-2.1,1.79-5.334,2.453-7.688,1.007a6.9,6.9,0,0,1-2.878-4.23,11.022,11.022,0,0,1-.3-1.852c-.037-.451-.052-.906-.047-1.361,0-.665.041-1.337.094-2a15.111,15.111,0,0,1,1.445-5.975c1.8-3.374,7.122-6,10.575-3.6a7.707,7.707,0,0,1,2.994,4.956,14.367,14.367,0,0,1-.316,5.888" transform="translate(-1339.138 -262.264)" fill="#ffb381"/>
      <path id="Trazado_775984" data-name="Trazado 775984" d="M1580.588,513.721a59.523,59.523,0,0,1-20.062-.122c-.4-.071-.807-.148-1.206-.249a5.25,5.25,0,0,1-2.649-1.387,6.982,6.982,0,0,1-1.4-3.982,142.468,142.468,0,0,1-1.23-14.421c-.049-1.769-.052-3.537.006-5.3.075-2.378.256-4.75.565-7.111a55.05,55.05,0,0,1,3.61-13.891c.5-1.221,1.056-2.423,1.67-3.593q.727-1.42,1.569-2.786c.06-.1.122-.2.189-.3a8.086,8.086,0,0,0,1.9-1.056,8.56,8.56,0,0,0,1.833-1.8l.26.273a7.028,7.028,0,0,0,.835.749,6.7,6.7,0,0,0,5.336,1.232,9.95,9.95,0,0,0,2-.608,15.165,15.165,0,0,0,2.376-1.275A10.418,10.418,0,0,0,1578.6,460q-.183,1.713-.318,3.432c-.037.453-.069.906-.1,1.361-.395,5.587-.476,11.189-.333,16.8q.068,2.634.2,5.269c.2,4.067.511,8.135.893,12.2.459,4.9,1.028,9.8,1.646,14.67" transform="translate(-1298.845 -382.561)" fill="#fff"/>
      <path id="Trazado_775985" data-name="Trazado 775985" d="M1559.49,647.39c-2.464-.492-4.919-1.039-7.375-1.586l-17.527-3.9-1.614-.361a3.144,3.144,0,0,1-1.938-.951,2.065,2.065,0,0,1,.285-2.5,4.822,4.822,0,0,1,2.365-1.268c.279-.079.581-.152.908-.223,6.167-1.335,20.2-1.275,24-1.4.2,4.067.511,8.135.893,12.2" transform="translate(-1279.394 -530.9)" fill="#e8e8e8"/>
      <path id="Trazado_775986" data-name="Trazado 775986" d="M1685.676,510.67c-1.174-2.932-2.679-6.212-2.661-7.4.039-2.681.092-5.439,1.14-7.905a8.591,8.591,0,0,1,1.955-2.848c-.037.453-.069.906-.1,1.361-.395,5.587-.476,11.189-.333,16.8" transform="translate(-1406.674 -411.645)" fill="#c1c6c6"/>
      <path id="Trazado_775987" data-name="Trazado 775987" d="M1565.638,457.987a7.01,7.01,0,0,0,.835.749,29.538,29.538,0,0,1-1.432,3.134,69.193,69.193,0,0,0-4.557,15.372,68.107,68.107,0,0,0-.961,9.025c-.3,7.553.644,15.134-.015,22.666a30.592,30.592,0,0,0-.191,4.417,5.249,5.249,0,0,1-2.649-1.387,6.981,6.981,0,0,1-1.4-3.982c-1.155-8.9-1.824-17.941-.659-26.836a55.054,55.054,0,0,1,3.61-13.891c.5-1.221,1.056-2.423,1.67-3.593q.727-1.42,1.569-2.786c.06-.1.122-.2.189-.3a8.086,8.086,0,0,0,1.9-1.056,8.563,8.563,0,0,0,1.833-1.8l.26.273" transform="translate(-1298.843 -382.561)" fill="#e8e8e8"/>
      <path id="Trazado_775988" data-name="Trazado 775988" d="M1644.464,516.4a12.758,12.758,0,0,0,.914-5.031,39.237,39.237,0,0,0-1.674-8.993,70.068,70.068,0,0,1-2.247-23.728,44.541,44.541,0,0,1,5.244-17.4,15.2,15.2,0,0,0,2.376-1.275,10.407,10.407,0,0,0,2.408,1.91q-.254,2.389-.419,4.793c-1.151,16.278.352,32.708,2.408,48.933a59.524,59.524,0,0,1-9.01.788" transform="translate(-1371.731 -384.452)" fill="#e8e8e8"/>
      <path id="Trazado_775989" data-name="Trazado 775989" d="M1526.291,457.714c-.76,1.865-2.7,6.634-3.134,7.42a28.851,28.851,0,0,0-3.007,10.187,99.334,99.334,0,0,0-.747,12.294c-.017,1.616-.017,3.234-.017,4.851,0,.693,0,1.389,0,2.082q.01,17.312.022,34.621a1.42,1.42,0,0,1-1.67,1.391c-.844-.14-1.726-.17-2.578-.281a5.453,5.453,0,0,1-3.6-2.078,5.592,5.592,0,0,1-1.277-3.664c.011-2.838.5-9.719,1.086-17.72q.084-1.153.172-2.335c.118-1.111.816-3.137.541-3.283-1.147-.61-3.488-.615-4.737-.973-.929-.268,3.93-19.852,4.458-21.841.309-1.159.848-4.512,1.635-7.214a13.788,13.788,0,0,1,1.166-5.366,13.11,13.11,0,0,1,4.922-5.085,28.669,28.669,0,0,1,6.759-3" transform="translate(-1259.756 -382.561)" fill="#afd2fa"/>
      <path id="Trazado_775990" data-name="Trazado 775990" d="M1529.057,625.008c.118-1.112.816-3.138.542-3.284a5.162,5.162,0,0,0-1.415-.435q.168-2.059.332-4.118.308-3.845.621-7.691c.194-2.427.778-5.141.609-7.563.6,8.494,1.177,17.16-.859,25.425.056-.768.113-1.548.171-2.335" transform="translate(-1277.266 -503.087)" fill="#79a2c6"/>
      <path id="Trazado_775991" data-name="Trazado 775991" d="M1539.024,644.673c0,.693,0,1.389,0,2.082l-6.053-1.348a3.144,3.144,0,0,1-1.938-.951,2.064,2.064,0,0,1,.285-2.5,4.819,4.819,0,0,1,2.365-1.269,33.389,33.389,0,0,1,5.355-.865c-.017,1.616-.017,3.235-.017,4.851" transform="translate(-1279.394 -534.768)" fill="#79a2c6"/>
      <path id="Trazado_775992" data-name="Trazado 775992" d="M1501,458.187c-2.29,1.028-2.98,2.614-3.061,6.356-.01.437-.02.9-.033,1.384-.154,5.829-.647,14.835-3.515,20.358a9.495,9.495,0,0,1-3.5,3.988c-2.752,1.6-5.179,1.923-7.19,1.394-5.193-1.368-7.638-8.415-5.835-13.906a11.016,11.016,0,0,1,2.487.614c.7.266.948.425.783,1.182a8.751,8.751,0,0,0,.013,5.149,5.314,5.314,0,0,0,3.391,3.251,5.122,5.122,0,0,0,4.6-1.2c4.689-3.645,6.095-12.027,6.351-17.966a81.759,81.759,0,0,1,.627-8.612,30.527,30.527,0,0,1,4.883-2" transform="translate(-1234.716 -382.956)" fill="#ff7466"/>
      <path id="Trazado_775993" data-name="Trazado 775993" d="M1533.821,629.378a7.918,7.918,0,0,1-2.248,2.015,10.945,10.945,0,0,1-5.029,1.622c-.123-.284-.207-.619-.282-.8a4.737,4.737,0,0,1-.245-.691,2,2,0,0,1,.437-1.8c.112-.171.225-.34.337-.511a5.931,5.931,0,0,0,3.029-1.328,9.68,9.68,0,0,0,.934-.831c1-.048,1.295-.053,1.823.335a3.263,3.263,0,0,1,1.245,1.992" transform="translate(-1275.399 -524.076)" fill="#ea5149"/>
      <path id="Trazado_775994" data-name="Trazado 775994" d="M1673.67,531.456a23.385,23.385,0,0,1-7.242,2.814.282.282,0,0,1-.041.009c-3.625.627-7.753-.3-9.974-3.232-1.517-2-1.942-4.6-2.31-7.077-1.223-8.208-2.365-16.43-3.49-24.651q-.451-3.281-.9-6.563c-.174-1.282-.35-2.567-.5-3.855a43.132,43.132,0,0,1-.137-11.215c.635-4.359,2.256-8.573,6.317-17.71,2.552.38,6.379.856,8.07,3.256.077.105.146.215.212.326,1.636,2.81,1.865,6.195,2.035,9.442.386,7.426.667,14.868,1.4,22.264.225,2.279.494,4.557.822,6.825,0,.019.006.036.009.056a86.97,86.97,0,0,0,7.122,25.031,3.289,3.289,0,0,1-1.4,4.28" transform="translate(-1378.052 -384.452)" fill="#afd2fa"/>
      <path id="Trazado_775995" data-name="Trazado 775995" d="M1673.673,531.457a23.423,23.423,0,0,1-7.243,2.814l-.041.008c-3.625.627-7.752-.3-9.973-3.233-1.519-2-1.942-4.6-2.31-7.077-1.223-8.206-2.366-16.429-3.491-24.65q-.451-3.281-.9-6.563c-.174-1.282-.35-2.568-.5-3.855a43.194,43.194,0,0,1-.136-11.214c.635-4.359,2.256-8.573,6.317-17.71a34.783,34.783,0,0,1,3.638.665q.325.084.645.182a6.973,6.973,0,0,1,3.786,2.409,3.889,3.889,0,0,1,.212.327c1.637,2.809,1.865,6.193,2.036,9.441.386,7.426.667,14.868,1.4,22.265q.18,1.83.4,3.658.192,1.586.42,3.167c0,.018.006.036.008.056a86.973,86.973,0,0,0,7.121,25.03,3.29,3.29,0,0,1-1.394,4.281" transform="translate(-1378.054 -384.452)" fill="#afd2fa"/>
      <path id="Trazado_775996" data-name="Trazado 775996" d="M1670.225,518.719a22.087,22.087,0,0,1-5.422-.4c-3.943-.652-7.847-1.524-11.749-2.393-.054-.011-.105-.024-.159-.036q-.451-3.281-.9-6.563c-.174-1.282-.35-2.567-.5-3.855,4.908-.12,8.877-.112,9-.234,1.223-1.223-3.857-10.408-3.825-12.595.039-2.681.092-5.439,1.14-7.905a7.74,7.74,0,0,1,4.179-4.267,10.627,10.627,0,0,1,3.756-.668c.077.105.146.215.213.326,1.635,2.81,1.865,6.195,2.035,9.442.5,9.716.831,19.459,2.222,29.089,0,.019.006.036.009.056" transform="translate(-1380.333 -401.026)" fill="#79a2c6"/>
      <path id="Trazado_775997" data-name="Trazado 775997" d="M1676.435,698.042a2.058,2.058,0,0,1-2.62,0c-2.859-2.148-4.2-4.768-5.236-8.187-.186-.612-.635-3.1-1.066-5.745q.685.106,1.259.187c1.634.233,2.558.328,2.558.328h.01l.2.02q.155.845.337,1.683c.007.035.015.067.023.1.578,2.622,1.427,5.3,3.282,7.234a9.653,9.653,0,0,1,1.759,2.156,1.5,1.5,0,0,1-.5,2.225" transform="translate(-1393.718 -571.782)" fill="#ff7466"/>
      <path id="Trazado_775998" data-name="Trazado 775998" d="M1672.266,687.956c-1.422-.3-2.841-.607-4.258-.923-.158-.882-.328-1.892-.5-2.926,1.246.192,2.762.406,4.024.535.2,1.089.429,2.213.729,3.313" transform="translate(-1393.718 -571.782)" fill="#ea5149"/>
      <path id="Trazado_775999" data-name="Trazado 775999" d="M1558.533,641.277c-.294-.026-.824-.073-1.483-.142h-.009s-1.988-.206-5.278-.745c-2.378-.388-5.439-.951-8.922-1.734l-2.49-.56c-.444-.073-.925-.234-1.371-.307-.346-.058-.9.071-1.243.013l-2.9-.483a15.974,15.974,0,0,1-3.471-.856.948.948,0,0,1-.343-1.52,11.216,11.216,0,0,1,2.363-2.033,4.867,4.867,0,0,1,4.158-.59c.65.247.627.565,1.663,1.127a8.883,8.883,0,0,0,2.086.8,22.23,22.23,0,0,0,5.166.672c1.79-.013,3.861-.223,5.649-.343a13.088,13.088,0,0,1,3.6.071,3.341,3.341,0,0,1,2.093,1.565,5.01,5.01,0,0,1,.567,1.666,13.806,13.806,0,0,1,.169,3.4" transform="translate(-1279.429 -528.295)" fill="#f9b189"/>
      <path id="Trazado_776000" data-name="Trazado 776000" d="M1664.452,650.176c-.069.253-.148.5-.232.743a19.17,19.17,0,0,1-1.082,2.518h-.009s-1.987-.206-5.278-.745a12.1,12.1,0,0,1-.116-2.855,20.263,20.263,0,0,1,.459-2.962,13.088,13.088,0,0,1,3.6.071,3.342,3.342,0,0,1,2.093,1.565,5.007,5.007,0,0,1,.567,1.666" transform="translate(-1385.517 -540.595)" fill="#e09773"/>
      <path id="Trazado_776001" data-name="Trazado 776001" d="M1689.068,497.7q-.116.712-.249,1.421a3.494,3.494,0,0,1-4.072,3.655c-.172,0-.344.006-.515.006a84.3,84.3,0,0,1-10.277-.5,1.285,1.285,0,0,1-1.135-1.178l-.532-6.684a1.285,1.285,0,0,1,1.6-1.348,20.877,20.877,0,0,0,5.911.659c.206-4.707-2.625-8.95-3.846-13.5a20.469,20.469,0,0,1,1.329-13.984l1.393-2.232c1.977.193,6.793,2.692,8.01,4.537a18.443,18.443,0,0,1,2.427,7.334,68.1,68.1,0,0,1-.045,21.813" transform="translate(-1397.705 -387.827)" fill="#afd2fa"/>
      <path id="Trazado_776002" data-name="Trazado 776002" d="M1674.156,641.876a6.754,6.754,0,0,0-1.663-.153,1.282,1.282,0,0,1,1.571-.952c.271.071.543.135.816.194.016.409.036.819.062,1.228a3.729,3.729,0,0,0-.786-.317" transform="translate(-1397.881 -535.526)" fill="#afd2fa"/>
      <path id="Trazado_776003" data-name="Trazado 776003" d="M1678.285,687.278c.007.034.015.067.023.1q-.966-.084-1.929-.19a1.284,1.284,0,0,1-1.135-1.179l-.061-.763c1.634.233,2.558.328,2.558.328h.01l.2.02q.155.845.337,1.683" transform="translate(-1400.129 -572.735)" fill="#afd2fa"/>
      <path id="Trazado_776004" data-name="Trazado 776004" d="M1691.874,477q-.4,1.446-.722,2.914a20.506,20.506,0,0,1,1.41-13.669l1.394-2.231.013,0a4.537,4.537,0,0,1,.635.118.43.43,0,0,1,.01.064c.57,4.244-1.565,8.592-2.74,12.8" transform="translate(-1412.986 -387.829)" fill="#afd2fa"/>
      <path id="Trazado_776005" data-name="Trazado 776005" d="M1667.607,473.626q-.4,1.446-.722,2.914v0a52.836,52.836,0,0,0-1.166,13.349c-.273-.059-.545-.123-.816-.194a1.282,1.282,0,0,0-1.571.952c-.514,0-1.089.028-1.7.067a11.348,11.348,0,0,1-.1-1.212c.11-7.115,3.028-17.2,4.714-21.585a10.382,10.382,0,0,0,.791-6.435,3.007,3.007,0,0,0-.974-1.509,34.791,34.791,0,0,1,3.639.665c.1.01.2.025.3.044l.161.033.171.041a.43.43,0,0,1,.01.064c.57,4.244-1.565,8.592-2.74,12.8" transform="translate(-1388.719 -384.452)" fill="#ff7466"/>
      <path id="Trazado_776006" data-name="Trazado 776006" d="M1665.688,635.477c0,.366.016.732.031,1.1-.273-.059-.545-.123-.816-.194a1.282,1.282,0,0,0-1.571.952c-.514,0-1.089.028-1.7.067a11.349,11.349,0,0,1-.1-1.212c0-.212.01-.425.016-.642,1.56-.031,2.977-.051,4.139-.071" transform="translate(-1388.719 -531.136)" fill="#ea5149"/>
      <path id="Trazado_776007" data-name="Trazado 776007" d="M1617.758,370.082c-.134.427-.495.694-.8.6a.726.726,0,0,1-.318-.949c.134-.427.494-.694.8-.6a.727.727,0,0,1,.318.949" transform="translate(-1351.153 -308.507)" fill="#444c70"/>
      <path id="Trazado_776008" data-name="Trazado 776008" d="M1652.975,376.281c-.076.441.122.843.443.9s.641-.258.717-.7a.727.727,0,0,0-.443-.9c-.32-.055-.641.258-.717.7" transform="translate(-1381.554 -313.91)" fill="#444c70"/>
      <path id="Trazado_776009" data-name="Trazado 776009" d="M1622.117,416.011a1.97,1.97,0,0,1-.8-.167,2.8,2.8,0,0,1-.857-.657.164.164,0,1,1,.231-.233,2.524,2.524,0,0,0,.759.59,2.185,2.185,0,0,0,1.934-.246.164.164,0,0,1,.173.279,2.877,2.877,0,0,1-1.436.434" transform="translate(-1354.347 -346.782)" fill="#444c70"/>
      <path id="Trazado_776010" data-name="Trazado 776010" d="M1624.988,383.82a.162.162,0,0,1-.114-.046c-.121-.117-.258-.247-.395-.376-.164-.155-.328-.311-.465-.446a.372.372,0,0,1,.061-.579,4.3,4.3,0,0,0,.954-.819,4.443,4.443,0,0,0,.33-.442,11.364,11.364,0,0,0,.68-1.12.164.164,0,0,1,.294.147,11.472,11.472,0,0,1-.7,1.157,4.706,4.706,0,0,1-.354.474,4.622,4.622,0,0,1-1.026.881.04.04,0,0,0-.019.031.044.044,0,0,0,.013.036c.135.133.3.287.46.441.138.131.276.261.4.379a.164.164,0,0,1-.115.282" transform="translate(-1357.269 -317.525)" fill="#444c70"/>
      <path id="Trazado_776011" data-name="Trazado 776011" d="M1652.108,397.907c.1-.379.863-.513,1.713-.3s1.461.7,1.365,1.077-.863.513-1.713.3-1.461-.7-1.365-1.077" transform="translate(-1380.834 -332.24)" fill="#f88"/>
      <path id="Trazado_776012" data-name="Trazado 776012" d="M1604.264,390.206c.023.391-.668.749-1.544.8a3.671,3.671,0,0,1-.461,0c-.036-.451-.052-.906-.047-1.361a3.257,3.257,0,0,1,.425-.052c.876-.051,1.6.225,1.627.616" transform="translate(-1339.138 -325.617)" fill="#f88"/>
      <path id="Trazado_776013" data-name="Trazado 776013" d="M1613.186,354.04a.5.5,0,0,1-.186.517c-.3.193-1.1-.354-1.882-.482a8.677,8.677,0,0,0-1.084-.109.173.173,0,0,1-.082-.322c1.007-.585,3.105-.1,3.234.4" transform="translate(-1345.536 -295.356)" fill="#444c70"/>
      <path id="Trazado_776014" data-name="Trazado 776014" d="M1655.757,362.75a.5.5,0,0,0-.126.535c.145.324,1.118.3,1.841.62a8.684,8.684,0,0,1,.969.5.173.173,0,0,0,.244-.225c-.526-1.039-2.552-1.771-2.929-1.429" transform="translate(-1383.76 -303.118)" fill="#444c70"/>
      <path id="Trazado_776015" data-name="Trazado 776015" d="M1613.8,368.021a1.277,1.277,0,0,0,.7.718.7.7,0,0,0,.584-.006c.082-.051.224-.179.2-.317a.21.21,0,0,0-.055-.11c-.138-.145-.411-.071-.653-.065a1.48,1.48,0,0,1-.783-.219" transform="translate(-1348.822 -307.595)" fill="#444c70"/>
      <path id="Trazado_776016" data-name="Trazado 776016" d="M1656.684,374.551a1.276,1.276,0,0,1-.7.717.7.7,0,0,1-.584-.006c-.082-.051-.224-.179-.2-.317a.208.208,0,0,1,.055-.11c.138-.145.41-.071.653-.065a1.481,1.481,0,0,0,.783-.219" transform="translate(-1383.42 -313.053)" fill="#444c70"/>
      <path id="Trazado_776017" data-name="Trazado 776017" d="M1632.519,308.017c1.256.42,2.59.551,3.864.912a5.281,5.281,0,0,1,3.224,2.151,9.99,9.99,0,0,0,0-6.833,21.4,21.4,0,0,0-3.425-6.043,15.124,15.124,0,0,0-3.285-3.4,6.344,6.344,0,0,0-4.472-1.224,4.062,4.062,0,0,0-3.387,2.916c-.322,1.426.416,2.221,1.072,3.341a26.45,26.45,0,0,1,1.09,3.177,9.029,9.029,0,0,0,5.317,5" transform="translate(-1358.154 -245.33)" fill="#213967"/>
      <path id="Trazado_776018" data-name="Trazado 776018" d="M1588.382,311.338a16.2,16.2,0,0,0-.751,4.537,6.51,6.51,0,0,1-1.672,4.2,2.345,2.345,0,0,1-1.753.705,1.348,1.348,0,0,1-1.25-1.253c1.424-.99,1.658-3,1.474-4.726s-.645-3.5-.119-5.156a5.817,5.817,0,0,1,2.949-3.252,12.9,12.9,0,0,1,4.323-1.183,3.9,3.9,0,0,1,1.718.05,1.3,1.3,0,0,1,.787,1.994c-.416.6-1,.5-1.634.658a5.9,5.9,0,0,0-4.072,3.43" transform="translate(-1323.045 -255.033)" fill="#213967"/>
      <path id="Trazado_776019" data-name="Trazado 776019" d="M1285.9,1105.295a30.86,30.86,0,0,1-9.056-.216c-.011-1.188-.007,3.809-.007-62.655.019-.1.033-.176.043-.239a47.615,47.615,0,0,1,9.251-.951v63.117c.057,1.113-.067.923-.232.943" transform="translate(-1067.184 -870.272)" fill="#ea9bb0"/>
      <path id="Trazado_776020" data-name="Trazado 776020" d="M1286.128,1041.237v8.988a70.7,70.7,0,0,1-9.3.481v-8.28c.02-.1.033-.176.044-.238a47.532,47.532,0,0,1,9.251-.951" transform="translate(-1067.185 -870.273)" fill="#d66b8c"/>
      <path id="Trazado_776021" data-name="Trazado 776021" d="M1266.348,327.5a13.739,13.739,0,0,0-3.552-.391v-3.767a5,5,0,1,0-4.132,0v3.779l-.137.006a7.944,7.944,0,0,0-3.741,1.068,1.921,1.921,0,0,0-1.031,1.534,13.272,13.272,0,0,0-.429,4.16c.433,3.964-.078,3.465,2.217,3.566,2.654.117,8.205.443,10.661-.536.768-.306.906-.619.975-1.422.422-4.876.475-5.3.461-6.134a1.78,1.78,0,0,0-1.292-1.859" transform="translate(-1047.502 -262.265)" fill="#ea9bb0"/>
      <path id="Trazado_776022" data-name="Trazado 776022" d="M1150.554,448.359c-4.465,3.063-11.6,1.856-14.573,6.384-2.68,4.086-.048,8.958,1.992,12.8a123.046,123.046,0,0,1,9.491,23.4c3.673,12.656-3.608,15.694-6.71,25.723a35.4,35.4,0,0,0-1.246,8.59q-.294,5.458-.251,10.927c.028,3.519.4,7.093,5.919,7.734,9.584,1.114,24.5-.725,31.651-1.741,4.2-.6,6.916-1.329,7.166-4.8.749-10.375.558-19.9-3.159-29.616-4.606-12.038-5.273-11.244-.148-25.936a74.81,74.81,0,0,0,4.148-22.973c.066-3.036-.5-4.213-3.484-5.549-3.124-1.4-5.416-1.877-9.247-3.459-3.162-1.306-2.8-1.454-3.883-9.443-.042-.308-13.118-1.374-13.836.094-.347.71-.845,5.817-3.831,7.865" transform="translate(-948.509 -367.537)" fill="#aa475c"/>
      <path id="Trazado_776023" data-name="Trazado 776023" d="M1360.281,622.751c3.717,9.714,3.908,19.24,3.159,29.616-.25,3.44-2.928,4.189-7.067,4.783a40.92,40.92,0,0,0,2.566-10.87c.928-13.866-9.405-26.419-9.4-40.316a40.224,40.224,0,0,1,4.024-16.71,37.228,37.228,0,0,1,8.515-10.017c.527-.466,1.314-1.333,2.043-1.919a74.9,74.9,0,0,1-3.991,19.5c-5.126,14.694-4.458,13.9.148,25.938" transform="translate(-1127.957 -482.526)" fill="#8e233f"/>
      <path id="Trazado_776024" data-name="Trazado 776024" d="M1331.583,452.367c-.269.036-.613.7-.822.873a1.908,1.908,0,0,1-2.946-.464q-.389-.867-.731-1.752a8.932,8.932,0,0,1,1.122-7.848c.2.038.3.071.307.1.982,7.225.777,8.036,3.069,9.091" transform="translate(-1108.803 -370.411)" fill="#8e233f"/>
      <path id="Trazado_776025" data-name="Trazado 776025" d="M322.171,1046.469l7.893.4c.638-24.57,1.52-49.279-.65-72.793-.188-2.038-.972-2.386-2.607-2.31-3.622.168-4.872-.655-5.424,2.719-.517,3.161.374,7.17.512,10.387q.444,10.384.62,20.777c.057,3.4-.057,40.839-.343,40.824" transform="translate(-268.48 -812.198)" fill="#ef7a5b"/>
      <path id="Trazado_776026" data-name="Trazado 776026" d="M329.945,980.752a.245.245,0,0,0-.035,0c-2.766.3-6.844.789-8.346.539a26.2,26.2,0,0,1-.187-6.816c.553-3.374,1.8-2.55,5.425-2.719,1.635-.076,2.419.273,2.607,2.31q.308,3.325.535,6.683" transform="translate(-268.475 -812.196)" fill="#ea5639"/>
      <path id="Trazado_776027" data-name="Trazado 776027" d="M946.127,1032.477l7.893.411c.638-25.468,1.52-51.081-.65-75.454-.188-2.113-.972-2.473-2.607-2.394-3.622.174-4.872-.679-5.424,2.818-.517,3.276.374,7.432.512,10.767q.444,10.763.62,21.536c.057,3.52-.057,42.332-.343,42.317" transform="translate(-789.987 -798.22)" fill="#ef7a5b"/>
      <path id="Trazado_776028" data-name="Trazado 776028" d="M954.042,966.552h-.12l-8.221.039c-.282-2.89-.78-6.1-.363-8.735.552-3.5,1.8-2.645,5.423-2.819,1.635-.079,2.42.282,2.607,2.4q.4,4.532.673,9.119" transform="translate(-789.986 -798.219)" fill="#ea5639"/>
      <path id="Trazado_776029" data-name="Trazado 776029" d="M330.387,936.574q-54.162.719-108.381-.6c-7.987-.194-20.483-2.451-27.994.7-3.536,1.481-4.642,3.341-2.391,6.421,3.092,4.23,9.908,4.1,14.993,3.914q63.286-2.3,126.713-.366c3.4.1,7.583-.159,8.994-2.758,1.007-1.856.88-7.478-11.933-7.308" transform="translate(-159.18 -781.488)" fill="#ef7a5b"/>
      <path id="Trazado_776030" data-name="Trazado 776030" d="M681.812,954.621q-4.01,0-8.021.008a24.753,24.753,0,0,1,1.312-9.013q3.963.03,7.927.048a20.368,20.368,0,0,1-1.218,8.957" transform="translate(-563.142 -790.353)" fill="#ea5639"/>
      <path id="Trazado_776031" data-name="Trazado 776031" d="M782.253,646.326c0-.248.32-.267.571-.267s.479.009.717.024c.616.039.685.027.74.22a1.688,1.688,0,0,1,.054.65,14.48,14.48,0,0,1-1.849.057c-.176-.02-.238,0-.242-.186,0-.165,0-.332.007-.5" transform="translate(-653.805 -539.981)" fill="#aa475c"/>
      <path id="Trazado_776032" data-name="Trazado 776032" d="M777.152,651.844c.019-.97.382-1.1.844-1.1h2.163c.509,0,.68.133.757.729a26.8,26.8,0,0,1,.036,5.087c0,.108-.04.145-.169.144-.7,0-1.911-.008-2.616-.014-.643-.006-.841.019-.942-.623a27.775,27.775,0,0,1-.074-4.223" transform="translate(-649.511 -543.898)" fill="#ff7466"/>
      <path id="Trazado_776033" data-name="Trazado 776033" d="M631.972,870.112a1.814,1.814,0,0,0,.355-.818,12.253,12.253,0,0,0,.213-2.969c0-.063-.013-.085-.078-.106a1.5,1.5,0,0,0-.894-.033c-.169.058-.1.166-.064.322q.243,1.231.374,2.482.059.56.095,1.122" transform="translate(-527.779 -723.918)" fill="#132744"/>
      <path id="Trazado_776034" data-name="Trazado 776034" d="M626.782,806.71a17.14,17.14,0,0,0-.1,2.676.357.357,0,0,1-.34.382.463.463,0,0,0-.275.1.766.766,0,0,0-.173.61q0,.214.006.429c0,.107.024.155.166.18a18.281,18.281,0,0,0,2.745.055c.129,0,.161-.037.171-.147a5.476,5.476,0,0,0,0-1.048c-.555-.033-.817-.185-.8-1.022q.1-4.492.2-8.983a.1.1,0,0,0-.118-.117q-.394,0-.787.021c-.158.008-.546-.039-.679.07-.238.194-.019,1.141,0,1.438.064,1.133.1,2.267.078,3.4-.011.651-.039,1.3-.088,1.951" transform="translate(-523.124 -668.503)" fill="#ff7466"/>
      <path id="Trazado_776035" data-name="Trazado 776035" d="M620.616,786.5a1.5,1.5,0,0,0,1.881,1.426,11.64,11.64,0,0,0,1.714-.092,1.972,1.972,0,0,0,1.231-.5,1.468,1.468,0,0,0,.335-1.058,4.358,4.358,0,0,0-.244-1.109,30.283,30.283,0,0,1-3.655-.109c-.3-.027-1.3-.308-1.493-.041-.171.242.18,1.213.231,1.484" transform="translate(-518.483 -656.026)" fill="#ffd050"/>
      <path id="Trazado_776036" data-name="Trazado 776036" d="M682.505,669.738c.009-.438.124-.62.695-.666a89.942,89.942,0,0,1,9.9-.084c1.511.043,2.283.439,2.253,2.8-12.039.24-10.639.231-11.763.234-.527,0-.737.09-.992-.35a4.989,4.989,0,0,1-.1-1.932" transform="translate(-570.403 -559.066)" fill="#ff7466"/>
      <path id="Trazado_776037" data-name="Trazado 776037" d="M649.01,674.374a4.071,4.071,0,0,1,2.116.307,1.014,1.014,0,0,1,.392.2c.314.3.13.829.241,1.248-.032-.121-2.892.26-3.249.017-.726-.494-.249-1.609.5-1.771" transform="translate(-541.728 -563.606)" fill="#ff7466"/>
      <path id="Trazado_776038" data-name="Trazado 776038" d="M571.134,694.435a4.236,4.236,0,0,0,4.333,4.187c4.023-.105,7.3.377,11.174.385a1.633,1.633,0,0,0,1.561-1.263c.681-3.925,10.856-9.214,13.306,1.046.846,3.543-.364,9.516-.676,14.237a1.81,1.81,0,0,1-1.8,1.7H574.716c-2.887,0-5.917,1.787-5.319,4.976.774,4.133,4.566,4.62,8.312,4.38.02,0,40.533.038,40.552.05a6.219,6.219,0,0,0,2.036-4.757c0-.185-.008-.319-.008-.375V687.977c0-2.714-.744-5.647-3.1-6.99-1.5-.856-42.511-.165-42.491-.165-3.141,0-3.6,1.918-3.685,5.062-.08,2.849.082,5.7.123,8.55" transform="translate(-475.842 -568.816)" fill="#2a4f96"/>
      <path id="Trazado_776039" data-name="Trazado 776039" d="M595.762,898.011l-18.055-.018c-3.745.24-7.536-.248-8.311-4.379-.6-3.19,2.432-4.977,5.32-4.977H593.86a40.832,40.832,0,0,1,1.9,9.374" transform="translate(-475.841 -742.729)" fill="#1d3f77"/>
      <path id="Trazado_776040" data-name="Trazado 776040" d="M823.1,804a2.5,2.5,0,0,0,.254,1.393.864.864,0,0,0,1.227.294q.158-4.637.143-9.278c0-.748.245-1.468-.622-1.569-.451-.053-.919-.115-1.073.371-.146.461.184-1.806.07,8.789" transform="translate(-687.859 -664.3)" fill="#ffd050"/>
      <path id="Trazado_776041" data-name="Trazado 776041" d="M613.459,764.132c.086.265.16.345.484.386a21.076,21.076,0,0,0,4.43-.07l3.1-.267a1.75,1.75,0,0,0-.184-.776.351.351,0,0,0-.371-.241,63.669,63.669,0,0,0-6.707.061c-.8.05-1.018.091-.752.907" transform="translate(-512.643 -637.807)" fill="#ffd050"/>
      <path id="Trazado_776042" data-name="Trazado 776042" d="M812.064,716.641a3.2,3.2,0,1,0,3.2,3.2,3.2,3.2,0,0,0-3.2-3.2" transform="translate(-676.053 -598.974)" fill="#fbf3e8"/>
      <path id="Trazado_776043" data-name="Trazado 776043" d="M462.953,888.258h0a106.122,106.122,0,0,0-10.409,24.586l-6.312,22.426a.979.979,0,0,0,.862,1.24l35.588,5.016a.979.979,0,0,0,1.047-.825l8.172-52.443Z" transform="translate(-372.932 -742.412)" fill="#afd2fa"/>
      <path id="Trazado_776044" data-name="Trazado 776044" d="M497.924,949.2c.271.12.527-.189.661-.453,2.275-4.472,2.878-7.031,10.886-33.35.123-.406.967-2.495.553-2.788-.505-.359-1.341.85-1.519,1.162-1.239,2.172-1.031,1.906-10.581,35.429" transform="translate(-416.168 -762.713)" fill="#2a4f96"/>
      <path id="Trazado_776045" data-name="Trazado 776045" d="M543.533,961.259c.258.114.5-.18.629-.431,2.162-4.25,2.736-6.683,10.347-31.7.117-.386.919-2.371.526-2.65-.48-.341-1.275.808-1.444,1.1-1.177,2.065-.98,1.812-10.057,33.674" transform="translate(-454.288 -774.307)" fill="#2a4f96"/>
      <path id="Trazado_776046" data-name="Trazado 776046" d="M645.013,956.973c-.262.035-.4-.293-.452-.553-.825-4.393-.7-6.732-.956-31.236,0-.378-.2-2.375.225-2.522.521-.18.934,1.063,1.008,1.374.515,2.167.4,1.888.175,32.937" transform="translate(-537.888 -771.153)" fill="#2a4f96"/>
      <path id="Trazado_776047" data-name="Trazado 776047" d="M0,1418.774v1.53a.493.493,0,0,0,.493.493H396.926a.493.493,0,0,0,.493-.493v-1.53a.493.493,0,0,0-.493-.493H.493a.493.493,0,0,0-.493.493" transform="translate(0 -1185.409)" fill="#56454a"/>
      <path id="Trazado_776048" data-name="Trazado 776048" d="M1956.045,1010.454c-.071.372-.328.458-1.116.458q-30.739.01-61.476-.223a.747.747,0,0,1-.733-.607,1.208,1.208,0,0,1,.211-.9c.184-.274.449-.326,1.12-.314q26.544.476,53.12.114c2.4-.033,4.927-.181,7.321-.116,2.251.062,1.7.781,1.553,1.589" transform="translate(-1581.933 -843.203)" fill="#1f918e"/>
      <path id="Trazado_776049" data-name="Trazado 776049" d="M1957.834,1038.386c-.087.368-.346.443-1.129.409q-30.784-1.331-61.555-2.908a1.217,1.217,0,0,1-.005-1.506c.195-.266.461-.306,1.127-.265q26.368,1.625,52.8,2.414c2.388.071,4.906.032,7.283.2,2.235.159,1.66.854,1.475,1.654" transform="translate(-1583.758 -864.311)" fill="#1f918e"/>
      <path id="Trazado_776050" data-name="Trazado 776050" d="M1957.519,1113.991c-.07.371-.324.458-1.1.458q-30.6.01-61.195-.227a1.223,1.223,0,0,1-.07-1.5c.181-.274.444-.326,1.107-.314q26.23.476,52.492.114c2.372-.033,4.869-.182,7.234-.116,2.224.062,1.684.781,1.535,1.589" transform="translate(-1583.791 -929.74)" fill="#1f918e"/>
      <path id="Trazado_776051" data-name="Trazado 776051" d="M1956.584,1074.523c-.071.371-.326.458-1.11.458q-30.792.01-61.58-.226a1.218,1.218,0,0,1-.07-1.5c.183-.274.446-.326,1.114-.314q26.4.476,52.822.114c2.387-.032,4.9-.182,7.28-.116,2.238.062,1.694.781,1.544,1.589" transform="translate(-1582.68 -896.752)" fill="#1f918e"/>
      <path id="Trazado_776052" data-name="Trazado 776052" d="M1957.378,1154.655c-.129.356-.4.4-1.174.278q-30.569-4.837-61.1-9.918a1.212,1.212,0,0,1,.166-1.5c.224-.243.494-.252,1.155-.135q26.128,4.625,52.42,8.428c2.375.343,4.892.592,7.245,1.031,2.212.413,1.56,1.038,1.284,1.812" transform="translate(-1583.79 -955.587)" fill="#1f918e"/>
      <path id="Trazado_776053" data-name="Trazado 776053" d="M1900.725,1236.682c.1.365.357.431,1.127.37q30.246-2.411,60.47-5.068a1.231,1.231,0,0,0-.051-1.505c-.2-.259-.464-.29-1.119-.225q-25.889,2.55-51.876,4.267c-2.347.155-4.827.2-7.16.457-2.193.238-1.6.912-1.39,1.7" transform="translate(-1588.443 -1028.23)" fill="#1f918e"/>
      <path id="Trazado_776054" data-name="Trazado 776054" d="M1964.972,1291.292c-.068.371-.315.458-1.074.458q-29.792.01-59.582-.227a1.249,1.249,0,0,1-.068-1.5c.177-.275.432-.326,1.078-.314q25.538.476,51.108.114c2.31-.033,4.741-.182,7.044-.116,2.166.062,1.64.781,1.494,1.589" transform="translate(-1591.4 -1077.93)" fill="#1f918e"/>
      <path id="Trazado_776055" data-name="Trazado 776055" d="M1965.384,1329.9c-.048.375-.291.475-1.054.519q-29.976,1.714-59.963,3.182a1.242,1.242,0,0,1-.154-1.5c.162-.284.416-.35,1.067-.375q25.724-.986,51.431-2.809c2.322-.165,4.76-.453,7.081-.519,2.183-.062,1.694.686,1.594,1.5" transform="translate(-1591.4 -1110.286)" fill="#1f918e"/>
      <path id="Trazado_776056" data-name="Trazado 776056" d="M110.77,3.564V37.416a1.642,1.642,0,0,0,1.642,1.642h47.307a1.642,1.642,0,0,0,1.642-1.642V3.564a1.642,1.642,0,0,0-1.642-1.642H112.412a1.642,1.642,0,0,0-1.642,1.642" transform="translate(-92.582 -1.607)" fill="#ffd050"/>
      <path id="Trazado_776057" data-name="Trazado 776057" d="M116.158,198.189l-3.885,3.885a1.645,1.645,0,0,1-1.161-1.161L115,197.028v1.161Z" transform="translate(-92.868 -164.678)" fill="#efb229"/>
      <path id="Trazado_776058" data-name="Trazado 776058" d="M387.84,198.2l3.885,3.885a1.645,1.645,0,0,0,1.161-1.161L389,197.044V198.2Z" transform="translate(-324.159 -164.691)" fill="#efb229"/>
      <path id="Trazado_776059" data-name="Trazado 776059" d="M116.158,6.153l-3.885-3.885a1.645,1.645,0,0,0-1.161,1.161L115,7.314V6.153Z" transform="translate(-92.868 -1.896)" fill="#efb229"/>
      <path id="Trazado_776060" data-name="Trazado 776060" d="M387.84,6.137l3.885-3.885a1.645,1.645,0,0,1,1.161,1.161L389,7.3V6.137Z" transform="translate(-324.159 -1.883)" fill="#efb229"/>
      <rect id="Rectángulo_362145" data-name="Rectángulo 362145" width="42.71" height="29.255" transform="translate(22.128 4.256)" fill="#fbf3e8"/>
      <path id="Trazado_776061" data-name="Trazado 776061" d="M208.706,47.859a11.025,11.025,0,1,0,11.025,11.025,11.026,11.026,0,0,0-11.025-11.025" transform="translate(-165.223 -40.002)" fill="#1f918e"/>
      <path id="Trazado_776062" data-name="Trazado 776062" d="M215.393,75.283a9.712,9.712,0,1,1,9.712-9.712,9.723,9.723,0,0,1-9.712,9.712" transform="translate(-171.91 -46.688)" fill="#60b8ba"/>
      <path id="Trazado_776063" data-name="Trazado 776063" d="M222.079,80.656a8.4,8.4,0,1,1,8.4-8.4,8.408,8.408,0,0,1-8.4,8.4" transform="translate(-178.596 -53.374)" fill="#1f918e"/>
      <path id="Trazado_776064" data-name="Trazado 776064" d="M237.064,91.542a1.643,1.643,0,1,1,1.643-1.643,1.645,1.645,0,0,1-1.643,1.643" transform="translate(-196.766 -73.766)" fill="#fff"/>
      <path id="Trazado_776065" data-name="Trazado 776065" d="M275.873,91.542a1.643,1.643,0,1,1,1.643-1.643,1.644,1.644,0,0,1-1.643,1.643" transform="translate(-229.203 -73.766)" fill="#fff"/>
      <path id="Trazado_776066" data-name="Trazado 776066" d="M237.064,125.035a1.643,1.643,0,1,1,1.643-1.643,1.645,1.645,0,0,1-1.643,1.643" transform="translate(-196.766 -101.76)" fill="#fff"/>
      <path id="Trazado_776067" data-name="Trazado 776067" d="M275.873,125.035a1.643,1.643,0,1,1,1.643-1.643,1.644,1.644,0,0,1-1.643,1.643" transform="translate(-229.203 -101.76)" fill="#fff"/>
      <path id="Trazado_776068" data-name="Trazado 776068" d="M870.219,54.8v30.26a1.468,1.468,0,0,0,1.468,1.468h42.287a1.468,1.468,0,0,0,1.468-1.468V54.8a1.468,1.468,0,0,0-1.468-1.468H871.687a1.468,1.468,0,0,0-1.468,1.468" transform="translate(-727.335 -44.578)" fill="#ff7466"/>
      <path id="Trazado_776069" data-name="Trazado 776069" d="M875.034,228.775l-3.473,3.473a1.47,1.47,0,0,1-1.038-1.038L874,227.737v1.038Z" transform="translate(-727.59 -190.345)" fill="#e54945"/>
      <path id="Trazado_776070" data-name="Trazado 776070" d="M1117.888,228.79l3.472,3.473a1.47,1.47,0,0,0,1.038-1.038l-3.473-3.473v1.038Z" transform="translate(-934.338 -190.357)" fill="#e54945"/>
      <path id="Trazado_776071" data-name="Trazado 776071" d="M875.034,57.117l-3.473-3.472a1.47,1.47,0,0,0-1.038,1.038L874,58.155V57.117Z" transform="translate(-727.59 -44.838)" fill="#e54945"/>
      <path id="Trazado_776072" data-name="Trazado 776072" d="M1117.888,57.1l3.472-3.473a1.47,1.47,0,0,1,1.038,1.038l-3.473,3.473V57.1Z" transform="translate(-934.338 -44.825)" fill="#e54945"/>
      <rect id="Rectángulo_362146" data-name="Rectángulo 362146" width="38.178" height="26.15" transform="translate(146.407 12.279)" fill="#fbf3e8"/>
      <path id="Trazado_776073" data-name="Trazado 776073" d="M1025.76,86.395a2.294,2.294,0,0,1-.23.8,15.746,15.746,0,0,1-2.318,3.8,2.882,2.882,0,0,1-.725.671,1.4,1.4,0,0,1,.361-.905c.049-.083,2.3-3.678,2.912-4.364" transform="translate(-854.601 -72.21)" fill="#2a4f96"/>
      <path id="Trazado_776074" data-name="Trazado 776074" d="M961.257,110.786a9.167,9.167,0,1,0,9.167,9.167,9.167,9.167,0,0,0-9.167-9.167" transform="translate(-795.763 -92.596)" fill="#ffd050"/>
      <path id="Trazado_776075" data-name="Trazado 776075" d="M968.793,163.5c-.027.115-.1.138-.342.128q-9.313-.416-18.622-.909a.389.389,0,0,1,0-.47c.059-.083.14-.1.341-.083q7.977.508,15.975.755c.722.022,1.484.01,2.2.063.676.05.5.267.445.516" transform="translate(-793.807 -135.534)" fill="#efb229"/>
      <path id="Trazado_776076" data-name="Trazado 776076" d="M971.192,180.335c-.016.116-.088.146-.31.153q-8.745.288-17.492.5a.409.409,0,0,1-.035-.469c.049-.087.123-.106.313-.108q7.5-.1,15-.454c.678-.032,1.39-.1,2.066-.1.636,0,.489.228.455.481" transform="translate(-796.771 -150.324)" fill="#efb229"/>
      <path id="Trazado_776077" data-name="Trazado 776077" d="M973.057,190.433c-.019.116-.088.143-.3.143q-8.3,0-16.6-.071a.427.427,0,0,1-.019-.469c.049-.086.12-.1.3-.1q7.115.148,14.239.036c.643-.01,1.321-.057,1.962-.036.6.019.457.244.416.5" transform="translate(-799.096 -158.747)" fill="#efb229"/>
      <path id="Trazado_776078" data-name="Trazado 776078" d="M976.678,197.671c-.014.116-.075.145-.264.15q-7.439.207-14.88.337a.469.469,0,0,1-.03-.469c.042-.087.105-.1.266-.105q6.381-.026,12.763-.314c.576-.026,1.182-.089,1.758-.084.541,0,.416.232.387.485" transform="translate(-803.591 -164.81)" fill="#efb229"/>
      <path id="Trazado_776079" data-name="Trazado 776079" d="M980.357,206.679c-.017.115-.07.141-.229.137q-6.255-.154-12.506-.386a.546.546,0,0,1,0-.47c.039-.085.093-.1.229-.092q5.358.283,10.728.306c.485,0,1-.032,1.48,0,.454.031.338.252.3.5" transform="translate(-808.699 -172.066)" fill="#efb229"/>
      <path id="Trazado_776080" data-name="Trazado 776080" d="M989.025,215.71c-.01.116-.048.143-.162.143q-4.5,0-9-.071a.741.741,0,0,1-.01-.469c.027-.086.065-.1.163-.1q3.856.148,7.717.036c.349-.01.716-.057,1.064-.036.327.019.248.244.226.5" transform="translate(-818.942 -179.874)" fill="#efb229"/>
      <path id="Trazado_776081" data-name="Trazado 776081" d="M969.536,156.73c-.021.116-.1.143-.329.143q-9.138,0-18.276-.071a.4.4,0,0,1-.021-.469c.054-.086.133-.1.331-.1q7.834.149,15.677.036c.709-.01,1.454-.057,2.161-.036.664.019.5.244.458.5" transform="translate(-794.72 -130.578)" fill="#efb229"/>
      <path id="Trazado_776082" data-name="Trazado 776082" d="M970.38,148.936c-.023.115-.1.141-.325.136q-8.937-.2-17.871-.469a.4.4,0,0,1-.01-.47c.055-.085.132-.1.325-.091q7.657.319,15.33.377c.693.005,1.423-.025,2.114.011.649.034.486.255.437.506" transform="translate(-795.774 -123.734)" fill="#efb229"/>
      <path id="Trazado_776083" data-name="Trazado 776083" d="M972.627,139.88c-.019.116-.089.143-.3.143q-8.4,0-16.8-.071a.423.423,0,0,1-.019-.469c.05-.086.122-.1.3-.1q7.2.149,14.415.036c.651-.01,1.337-.056,1.987-.036.611.019.463.244.421.5" transform="translate(-798.562 -116.494)" fill="#efb229"/>
      <path id="Trazado_776084" data-name="Trazado 776084" d="M975.415,129.674c-.024.115-.09.138-.287.127q-7.736-.446-15.466-.969a.453.453,0,0,1,.01-.47c.051-.083.118-.1.285-.082q6.622.533,13.268.806c.6.025,1.234.015,1.831.07.561.052.412.268.359.517" transform="translate(-802.04 -107.214)" fill="#efb229"/>
      <path id="Trazado_776085" data-name="Trazado 776085" d="M980.783,123.029c-.015.116-.069.143-.233.143q-6.461,0-12.921-.071a.53.53,0,0,1-.015-.469c.038-.086.094-.1.234-.1q5.538.149,11.083.036c.5-.01,1.028-.057,1.528-.036.47.019.355.244.324.5" transform="translate(-808.699 -102.41)" fill="#efb229"/>
      <path id="Trazado_776086" data-name="Trazado 776086" d="M969.536,173.582c-.021.116-.1.143-.329.143q-9.138,0-18.276-.071a.4.4,0,0,1-.021-.469c.054-.086.133-.1.331-.1q7.834.148,15.677.036c.708-.01,1.454-.057,2.161-.036.664.019.5.244.458.5" transform="translate(-794.72 -144.663)" fill="#efb229"/>
      <path id="Trazado_776087" data-name="Trazado 776087" d="M502.728,204.738v33.124a1.607,1.607,0,0,0,1.607,1.607h46.29a1.607,1.607,0,0,0,1.607-1.607V204.738a1.607,1.607,0,0,0-1.607-1.607h-46.29a1.607,1.607,0,0,0-1.607,1.607" transform="translate(-420.183 -169.779)" fill="#60b8ba"/>
      <path id="Trazado_776088" data-name="Trazado 776088" d="M508,395.178l-3.8,3.8a1.61,1.61,0,0,1-1.136-1.136l3.8-3.8v1.136Z" transform="translate(-420.462 -329.344)" fill="#1f918e"/>
      <path id="Trazado_776089" data-name="Trazado 776089" d="M773.841,395.193l3.8,3.8a1.609,1.609,0,0,0,1.136-1.136l-3.8-3.8v1.136Z" transform="translate(-646.781 -329.356)" fill="#1f918e"/>
      <path id="Trazado_776090" data-name="Trazado 776090" d="M508,207.271l-3.8-3.8a1.609,1.609,0,0,0-1.136,1.136l3.8,3.8v-1.136Z" transform="translate(-420.462 -170.062)" fill="#1f918e"/>
      <path id="Trazado_776091" data-name="Trazado 776091" d="M773.841,207.255l3.8-3.8a1.609,1.609,0,0,1,1.136,1.136l-3.8,3.8v-1.136Z" transform="translate(-646.781 -170.049)" fill="#1f918e"/>
      <rect id="Rectángulo_362147" data-name="Rectángulo 362147" width="41.792" height="28.625" transform="translate(86.4 37.208)" fill="#fbf3e8"/>
      <path id="Trazado_776092" data-name="Trazado 776092" d="M704.44,290.688a.168.168,0,0,0-.071.216,1.263,1.263,0,0,0,.692.65c.939-1,1.878-2.009,2.794-3.035a.224.224,0,0,0,.023-.333c-.1-.155-.381-.424-.583-.316-.124.066-.565.73-2.026,2.082q-.407.377-.829.736" transform="translate(-588.705 -240.583)" fill="#180000"/>
      <path id="Trazado_776093" data-name="Trazado 776093" d="M675.433,267.109c-.014.116.006.158.115.233l.3.207c.081.055.117.038.155-.034a30.072,30.072,0,0,0,2.038-4.78.4.4,0,0,0-.017-.35.9.9,0,0,0-.791-.123c-.008.006-1.768,4.556-1.8,4.846" transform="translate(-564.528 -219.162)" fill="#180000"/>
      <path id="Trazado_776094" data-name="Trazado 776094" d="M631.765,262.979c.2.94.9.813.807.109a15.734,15.734,0,0,0-.389-1.852l-.785-3.11a.349.349,0,0,0-.606-.187c-.126.141-.029.339.006.506l.32,1.5.646,3.031" transform="translate(-527.168 -215.493)" fill="#180000"/>
      <path id="Trazado_776095" data-name="Trazado 776095" d="M626.065,248.6a1.149,1.149,0,1,0,1.149,1.149,1.149,1.149,0,0,0-1.149-1.149" transform="translate(-522.309 -207.785)" fill="#ff7466"/>
      <path id="Trazado_776096" data-name="Trazado 776096" d="M683.76,252.287a1.149,1.149,0,1,0,1.149,1.149,1.149,1.149,0,0,0-1.149-1.149" transform="translate(-570.531 -210.864)" fill="#ffd050"/>
      <path id="Trazado_776097" data-name="Trazado 776097" d="M720.833,279.293a1.149,1.149,0,1,0,1.149,1.149,1.149,1.149,0,0,0-1.149-1.149" transform="translate(-601.517 -233.436)" fill="#ff7466"/>
      <path id="Trazado_776098" data-name="Trazado 776098" d="M591.98,280.567a6.114,6.114,0,0,0,.625.99.191.191,0,0,0,.142.087.167.167,0,0,0,.117-.082c.232-.331.037-.783-.169-1.13a32.825,32.825,0,0,0-2.418-3.478c-.278-.355-.644-.052-.578.333.055.322.559.72.755.974a18.558,18.558,0,0,1,1.526,2.307" transform="translate(-492.868 -231.348)" fill="#180000"/>
      <path id="Trazado_776099" data-name="Trazado 776099" d="M604.831,294.074a8.119,8.119,0,0,1,1.156,5.391,181.862,181.862,0,0,1-24.548.439c-.007-.064-.008-2.674,0-2.739,1.254-10.325,17.351-13.278,23.392-3.091" transform="translate(-485.966 -240.515)" fill="#2a4f96"/>
      <path id="Trazado_776100" data-name="Trazado 776100" d="M561.514,356.944c.139,1.459.78,1.817,2.1,1.858,8.594.261,17.2.523,25.788.116,1.407-.066,2.218-.137,2.28-1.107.056-.883.011-1.96-.764-2.387a2.363,2.363,0,0,0-1.166-.191c-26.738.184-24.748.243-27.071.006-.986-.1-1.254.842-1.172,1.7" transform="translate(-469.306 -296.906)" fill="#1b284a"/>
      <path id="Trazado_776101" data-name="Trazado 776101" d="M583.591,268.736a1.149,1.149,0,1,0,1.149,1.149,1.149,1.149,0,0,0-1.149-1.149" transform="translate(-486.809 -224.612)" fill="#afd2fa"/>
      <path id="Trazado_776102" data-name="Trazado 776102" d="M1710.332,791.291c.485-.084.665-.213.67-.683a3.853,3.853,0,0,0-.2-1.263c-.108-.322-.235-.378-.561-.358-2.4.151-8.946.9-9.7,1.293-.8.417-.511,1.484.059,1.991.954.85,2.992.1,4.115-.066q2.811-.427,5.612-.915" transform="translate(-1420.916 -659.438)" fill="#fff"/>
      <path id="Trazado_776103" data-name="Trazado 776103" d="M1534.348,793.194c-.954.849-2.992.1-4.115-.067q-.65-.1-1.3-.2c.057-.832.117-1.7.181-2.589a33.157,33.157,0,0,1,5.294.865c.8.415.511,1.483-.059,1.992" transform="translate(-1277.892 -660.569)" fill="#fff"/>
      <path id="Trazado_776104" data-name="Trazado 776104" d="M1388.542,782.172h-.2a.671.671,0,0,1,0-1.341h.084a12.2,12.2,0,0,0,.113,1.341" transform="translate(-1159.828 -652.624)" fill="#7c1334"/>
      <path id="Trazado_776105" data-name="Trazado 776105" d="M1218.274,781.5a.671.671,0,0,1-.672.672h-.087q-.01-.65-.071-1.341h.158a.671.671,0,0,1,.672.67" transform="translate(-1017.548 -652.624)" fill="#fcdbe5"/>
      <path id="Trazado_776106" data-name="Trazado 776106" d="M1188.018,504.761a.719.719,0,0,1-.673.465h-1.36c.843-.191,1.5-.336,2.033-.465" transform="translate(-991.254 -421.883)" fill="#fcdbe5"/>
      <path id="Trazado_776107" data-name="Trazado 776107" d="M1345.612,499.211c-.356-.148-.667-.279-.941-.41h-1.516a.722.722,0,0,0,0,1.443h2.783a.72.72,0,0,0,.713-.616c-.333-.13-.68-.268-1.039-.417" transform="translate(-1122.016 -416.902)" fill="#7c1334"/>
      <path id="Trazado_776108" data-name="Trazado 776108" d="M1312.039,498.8h-2.783a.722.722,0,0,0,0,1.443h2.783a.722.722,0,0,0,0-1.443" transform="translate(-1093.682 -416.902)" fill="#fcdbe5"/>
      <path id="Trazado_776109" data-name="Trazado 776109" d="M1278.139,498.8h-2.783a.722.722,0,0,0,0,1.443h2.783a.722.722,0,0,0,0-1.443" transform="translate(-1065.348 -416.902)" fill="#fcdbe5"/>
      <path id="Trazado_776110" data-name="Trazado 776110" d="M1244.23,498.8h-2.785a.722.722,0,0,0,0,1.443h2.785a.722.722,0,0,0,0-1.443" transform="translate(-1037.006 -416.902)" fill="#fcdbe5"/>
      <path id="Trazado_776111" data-name="Trazado 776111" d="M1210.329,498.8h-1.655a17.949,17.949,0,0,1-1.841.619.717.717,0,0,0,.713.824h2.783a.722.722,0,1,0,0-1.443" transform="translate(-1008.672 -416.902)" fill="#fcdbe5"/>
      <path id="Trazado_776112" data-name="Trazado 776112" d="M1322.113,957.061h-2.588a.671.671,0,0,0,0,1.341h2.588a.671.671,0,0,0,0-1.341" transform="translate(-1102.307 -799.918)" fill="#fcdbe5"/>
      <path id="Trazado_776113" data-name="Trazado 776113" d="M1353.622,957.061h-2.586a.671.671,0,1,0,0,1.341h2.586a.671.671,0,1,0,0-1.341" transform="translate(-1128.644 -799.918)" fill="#fcdbe5"/>
      <path id="Trazado_776114" data-name="Trazado 776114" d="M1385.143,957.061h-2.588a.671.671,0,0,0,0,1.341h2.588a.671.671,0,0,0,0-1.341" transform="translate(-1154.988 -799.918)" fill="#fcdbe5"/>
      <path id="Trazado_776115" data-name="Trazado 776115" d="M1417.08,957.209a.666.666,0,0,0-.417-.148h-2.588a.671.671,0,0,0,0,1.341h2.588a.665.665,0,0,0,.458-.184c-.01-.337-.025-.673-.041-1.01" transform="translate(-1181.333 -799.918)" fill="#7c1334"/>
      <path id="Trazado_776116" data-name="Trazado 776116" d="M1301.837,440.206v.24a.821.821,0,0,1-1.642,0v-.325c.558.023,1.112.053,1.642.085" transform="translate(-1086.711 -367.857)" fill="#fcdbe5"/>
      <path id="Trazado_776117" data-name="Trazado 776117" d="M1197.3,957.061h-2.588a.671.671,0,1,0,0,1.341h2.588a.671.671,0,0,0,0-1.341" transform="translate(-997.991 -799.918)" fill="#fcdbe5"/>
      <path id="Trazado_776118" data-name="Trazado 776118" d="M1260.343,957.061h-2.588a.671.671,0,0,0,0,1.341h2.588a.671.671,0,0,0,0-1.341" transform="translate(-1050.68 -799.918)" fill="#fcdbe5"/>
      <path id="Trazado_776119" data-name="Trazado 776119" d="M1166.286,957.061H1163.7a.663.663,0,0,0-.532.266c-.006.1-.013.209-.018.312-.008.146-.015.292-.023.438a.666.666,0,0,0,.573.325h2.588a.671.671,0,0,0,0-1.341" transform="translate(-972.147 -799.918)" fill="#fcdbe5"/>
      <path id="Trazado_776120" data-name="Trazado 776120" d="M1228.823,957.061h-2.588a.671.671,0,0,0,0,1.341h2.588a.671.671,0,1,0,0-1.341" transform="translate(-1024.335 -799.918)" fill="#fcdbe5"/>
      <path id="Trazado_776121" data-name="Trazado 776121" d="M1292.15,937.482a.821.821,0,0,0-.9-.817.844.844,0,0,0-.744.851v2.495h-1.233a.671.671,0,0,0-.667.736.689.689,0,0,0,.7.605h2.026a.82.82,0,0,0,.82-.82Z" transform="translate(-1077.024 -782.868)" fill="#fcdbe5"/>
      <path id="Trazado_776122" data-name="Trazado 776122" d="M1301.016,637.789a.82.82,0,0,0,.821-.821V633.4a.821.821,0,1,0-1.642,0v3.566a.821.821,0,0,0,.821.821" transform="translate(-1086.711 -528.716)" fill="#fcdbe5"/>
      <path id="Trazado_776123" data-name="Trazado 776123" d="M1301.016,681.229a.82.82,0,0,0,.821-.821v-3.566a.821.821,0,0,0-1.642,0v3.566a.821.821,0,0,0,.821.821" transform="translate(-1086.711 -565.023)" fill="#fcdbe5"/>
      <path id="Trazado_776124" data-name="Trazado 776124" d="M1301.016,724.669a.82.82,0,0,0,.821-.821v-3.566a.821.821,0,1,0-1.642,0v3.566a.821.821,0,0,0,.821.821" transform="translate(-1086.711 -601.331)" fill="#fcdbe5"/>
      <path id="Trazado_776125" data-name="Trazado 776125" d="M1301.016,464.029a.82.82,0,0,0,.821-.821v-3.566a.821.821,0,1,0-1.642,0v3.566a.821.821,0,0,0,.821.821" transform="translate(-1086.711 -383.486)" fill="#fcdbe5"/>
      <path id="Trazado_776126" data-name="Trazado 776126" d="M1301.016,550.909a.82.82,0,0,0,.821-.821v-3.566a.821.821,0,1,0-1.642,0v3.566a.821.821,0,0,0,.821.821" transform="translate(-1086.711 -456.101)" fill="#fcdbe5"/>
      <path id="Trazado_776127" data-name="Trazado 776127" d="M1301.016,504.577a.82.82,0,0,0,.821-.821v-4.134a.821.821,0,0,0-1.642,0v4.134a.821.821,0,0,0,.821.821" transform="translate(-1086.711 -416.902)" fill="#fcdbe5"/>
      <path id="Trazado_776128" data-name="Trazado 776128" d="M1301.016,594.349a.82.82,0,0,0,.821-.821v-3.566a.821.821,0,0,0-1.642,0v3.566a.821.821,0,0,0,.821.821" transform="translate(-1086.711 -492.409)" fill="#fcdbe5"/>
      <path id="Trazado_776129" data-name="Trazado 776129" d="M1301.016,898.429a.82.82,0,0,0,.821-.821v-3.566a.821.821,0,1,0-1.642,0v3.566a.821.821,0,0,0,.821.821" transform="translate(-1086.711 -746.561)" fill="#fcdbe5"/>
      <path id="Trazado_776130" data-name="Trazado 776130" d="M1301.016,1023.541a.821.821,0,0,0-.821.821v3.566a.821.821,0,0,0,1.642,0v-3.566a.82.82,0,0,0-.821-.821" transform="translate(-1086.711 -855.483)" fill="#fcdbe5"/>
      <path id="Trazado_776131" data-name="Trazado 776131" d="M1301.016,980.1a.821.821,0,0,0-.821.821v3.566a.821.821,0,0,0,1.642,0v-3.566a.82.82,0,0,0-.821-.821" transform="translate(-1086.711 -819.175)" fill="#fcdbe5"/>
      <path id="Trazado_776132" data-name="Trazado 776132" d="M1233.344,780.832h-2.587a.67.67,0,0,0,0,1.341h2.587a.67.67,0,1,0,0-1.341" transform="translate(-1028.114 -652.625)" fill="#fcdbe5"/>
      <path id="Trazado_776133" data-name="Trazado 776133" d="M1296.378,765.845h-.454v-2.123a.821.821,0,1,0-1.642,0v2.123h-.491a.67.67,0,0,0,0,1.341h.491v.1a.821.821,0,1,0,1.642,0v-.1h.454a.67.67,0,1,0,0-1.341" transform="translate(-1080.798 -637.638)" fill="#fcdbe5"/>
      <path id="Trazado_776134" data-name="Trazado 776134" d="M1264.861,780.832h-2.588a.67.67,0,0,0,0,1.341h2.588a.67.67,0,1,0,0-1.341" transform="translate(-1054.456 -652.625)" fill="#fcdbe5"/>
      <path id="Trazado_776135" data-name="Trazado 776135" d="M1359.412,780.832h-2.587a.67.67,0,1,0,0,1.341h2.587a.67.67,0,1,0,0-1.341" transform="translate(-1133.482 -652.625)" fill="#7c1334"/>
      <path id="Trazado_776136" data-name="Trazado 776136" d="M1327.895,780.832h-2.588a.67.67,0,0,0,0,1.341h2.588a.67.67,0,1,0,0-1.341" transform="translate(-1107.14 -652.625)" fill="#fcdbe5"/>
      <path id="Trazado_776137" data-name="Trazado 776137" d="M1301.016,811.549a.82.82,0,0,0,.821-.821v-3.566a.821.821,0,1,0-1.642,0v3.566a.821.821,0,0,0,.821.821" transform="translate(-1086.711 -673.946)" fill="#fcdbe5"/>
      <path id="Trazado_776138" data-name="Trazado 776138" d="M1301.016,854.989a.82.82,0,0,0,.821-.821V850.6a.821.821,0,0,0-1.642,0v3.566a.821.821,0,0,0,.821.821" transform="translate(-1086.711 -710.253)" fill="#fcdbe5"/>
      <path id="Trazado_776139" data-name="Trazado 776139" d="M1301.837,1067.8v.156q-.815.071-1.642.135v-.291a.821.821,0,0,1,1.642,0" transform="translate(-1086.711 -891.79)" fill="#fcdbe5"/>
    </g>
  </g>
</svg>
