<svg xmlns="http://www.w3.org/2000/svg" xmlns:xlink="http://www.w3.org/1999/xlink" width="1228" height="535" viewBox="0 0 1228 535">
  <defs>
    <clipPath id="clip-path">
      <path id="Rectangle_652" data-name="Rectangle 652" d="M1208.661,0H19.339A19.58,19.58,0,0,0,0,19.814v495.34a19.58,19.58,0,0,0,19.339,19.814H1208.661A19.58,19.58,0,0,0,1228,515.154V19.814A19.58,19.58,0,0,0,1208.661,0Z" transform="translate(0 0)" fill="#73d8c0"/>
    </clipPath>
  </defs>
  <g id="Grupo_1054537" data-name="Grupo 1054537" transform="translate(-186 -5778)">
    <rect id="Rectángulo_4750" data-name="Rectángulo 4750" width="1228" height="535" rx="10" transform="translate(186 5778)" fill="#f1fbf9"/>
    <g id="Grupo_1054536" data-name="Grupo 1054536" transform="translate(186 5778)" opacity="0.1">
      <path id="Rectangle_652-2" data-name="Rectangle 652" d="M1208.661,0H19.339A19.58,19.58,0,0,0,0,19.814v495.34a19.58,19.58,0,0,0,19.339,19.814H1208.661A19.58,19.58,0,0,0,1228,515.154V19.814A19.58,19.58,0,0,0,1208.661,0Z" fill="none"/>
      <g id="Enmascarar_grupo_77" data-name="Enmascarar grupo 77" clip-path="url(#clip-path)">
        <g id="Grupo_1054535" data-name="Grupo 1054535" transform="translate(-138.397 -144.592)">
          <path id="Trazado_774462" data-name="Trazado 774462" d="M1436.278,663.548c19.107-3.937,21-21.193,23.332-41.78,5.722-50.414-4.162-103.03,8.879-151.659a152.21,152.21,0,0,1,33.186-62.067c12.206-13.58,26.653-24.278,39.467-37.116s24.337-28.653,27.918-47.619c5.183-27.457-7.084-56.273-1.944-83.74,3.812-20.369,16.831-37.14,31.729-49.3,7.448-6.08,16-11.423,25.178-11.166,12.564.352,23.327,11.447,28.578,24.4s6.065,27.575,6.76,41.812c4.716,96.71,7.649,193.755,1.61,290.37-3.632,58.1-11,117.674-36.635,168.14-7.514,14.8-16.744,28.864-29.086,38.635-16.115,12.758-36.173,17.184-55.719,19.479-44.49,5.223-89.372.993-133.944-3.239-24.819-2.356-98.042,5.883-84.515-47.586,3.053-12.067,12.28-20.716,21.6-27.475,17.558-12.725,37.85-21.728,58.68-21.25,10.21.234,20.382,2.727,30.561,1.795A39.621,39.621,0,0,0,1436.278,663.548Z" transform="translate(-242.358 -60.394)" fill="#baefe4"/>
          <path id="Trazado_774463" data-name="Trazado 774463" d="M226.328,803.1c-.447-2.5-.867-5-1.283-7.488-4.726-28.261-9.08-55.324-31.648-72.9-18.362-14.3-42.93-12.994-64.489-6.649s-42.194,17.133-64.3,20.22C30.81,741-4.663,726.078-27.578,697.5c-16.292-20.319-27.361-47.68-49.16-59.632-14.244-7.81-31.063-7.563-46.422-3.259-28.244,7.915-52.894,28.892-70.308,55.333s-27.978,58.079-33.846,90.408a357.615,357.615,0,0,0,.942,131.988c8.995,45.787,27.82,90.23,58.839,121.247,14.87,14.868,32.183,26.34,50.225,35.652,75.2,38.809,161.2,40.036,243.42,30.955,50.55-5.582,102.178-15.338,145.907-44.648,25.45-17.058,29.177-47.808,38.1-76.949,9-29.413,3.675-65.039-15.827-87.546-17.678-20.4-44.391-30.355-57.714-54.645C231.068,826.356,228.412,814.763,226.328,803.1Z" transform="translate(262.468 -135.821)" fill="#baefe4"/>
          <path id="Trazado_774464" data-name="Trazado 774464" d="M28.964,149.985c7.779-25.372,5.047-52.928,4.03-79.617S33.379,14.81,47.532-6.685C55.775-19.206,67.947-28.5,73.5-42.83c8.283-21.359-1.5-46.823-16.787-61.521-8.057-7.747-18.05-13.591-28.639-13.327-13.279.331-25.182,10.062-34.7,21C-47.966-49.2-58.807,22.149-65.026,88.578c-2.387,25.5-4.233,52.374,4.849,75.487C-40.993,212.886,15.085,195.252,28.964,149.985Z" transform="translate(165.084 188.393)" fill="#fff"/>
          <path id="Trazado_774465" data-name="Trazado 774465" d="M18.8,913.958c-5.7-14.166-11.3-29-21.469-39.454s-26.443-15.151-37.726-6.285c-7.573,5.951-11.224,16.379-17.227,24.307-5.156,6.81-11.978,11.675-17.936,17.583s-11.319,13.555-11.879,22.51c-.916,14.651,10.954,26.073,22.489,32.737A115.094,115.094,0,0,0-.387,980.826c11.268-.7,42.2-5.74,42.672-23.942.189-7.2-7.8-12.835-11.288-17.984C25.9,931.375,22.262,922.549,18.8,913.958Z" transform="translate(235.94 -262.579)" fill="#025157"/>
          <path id="Trazado_774466" data-name="Trazado 774466" d="M619.984,1046.281c-15.017-6.117-28.32-17.532-37.6-32.261-3.522-5.593-6.469-11.632-10.035-17.188-6.635-10.34-15.629-19.049-26.318-23.114s-23.137-3.032-32.389,4.276c-6.585,5.2-11.578,13.388-19.246,16.067-7.975,2.785-16.446-1.2-24.781-1.643-17.033-.9-33.312,15.6-34.44,34.9-.2,3.4.048,6.954,1.533,9.911a18.078,18.078,0,0,0,6.077,6.4c10.1,7.139,21.96,10.25,33.629,12.891,28.953,6.55,58.252,10.9,87.526,15.242l34.063,5.054c6.671.99,13.884,1.87,19.746-1.876,6.524-4.17,9.642-14.1,6.909-22.013s-10.97-12.793-18.253-10.822" transform="translate(29.506 -351.239)" fill="#fff"/>
          <g id="Grupo_1054532" data-name="Grupo 1054532" transform="translate(246.796 177.808)">
            <path id="Trazado_774467" data-name="Trazado 774467" d="M323.4,272.331c1.76-9.209,3.46-19.173.042-27.761-3.819-9.595-13.411-14.973-22.682-15.4-7.946-.363-16.856,3.3-19.905,11.635-2.591,7.08-.878,16.8-6.392,21.227-2.119,1.7-4.833,2.09-7.177,3.359a13.516,13.516,0,0,0-6.554,10.082c-2.518,19.535,20.5,16.541,30.4,13.6C302.311,285.752,320.416,287.929,323.4,272.331Z" transform="translate(-245.521 -229.149)" fill="#f5947a"/>
            <path id="Trazado_774468" data-name="Trazado 774468" d="M236.616,248.419c3.086,2.452,7.885,1.153,9.84-2.5A9.745,9.745,0,0,0,244.3,234.5c-3.98-3.292-10.508-1.064-12.228,4.172s1.934,11.767,6.842,12.231" transform="translate(-231.644 -230.71)" fill="#025157"/>
          </g>
          <path id="Trazado_774469" data-name="Trazado 774469" d="M-244.236,296.62c50.232,4.593,114.948,33.552,156.01-12.673,16.395-18.456,25.03-45.82,21.423-71.7-2.556-18.346-10.8-35.132-13.88-53.374-6.042-35.732,10.479-74.878,38.8-91.941C-11.8,48.809,23.993,50.989,50.78,24.555c10-9.868,18.059-22.151,24.1-35.536a87.126,87.126,0,0,0,6.21-18.332c5.519-27.059-6.716-54.272-18.55-78.586" transform="translate(244.236 107.899)" fill="none" stroke="#025157" stroke-miterlimit="10" stroke-width="1.607"/>
          <path id="Trazado_774470" data-name="Trazado 774470" d="M79,101.854c3.466-21.545.47-44.733,5.364-66.022,1.765-7.674,4.527-14.962,7.28-22.218L95.633,3.092A211.964,211.964,0,0,1,84.7,89.567q-1.738,6.8-4.1,13.346,1.97-3.759,3.946-7.512c4.413-8.366,8.87-16.8,14.743-23.9,5.212-6.306,11.427-11.43,17.262-17S127.958,42.736,131.391,35a32.762,32.762,0,0,1-3,17.517C126,57.862,122.655,62.552,119.332,67.2c-6.6,9.234-13.234,18.514-21.127,26.345-4.424,4.465-9.289,8.359-13.961,12.485-2.069,1.828-4.983,4.005-7.479,6.445a140.344,140.344,0,0,1-15.347,26.484c8.4-4.139,16.746-8.446,23.676-15.058,4.862-4.638,9.01-10.4,14.721-13.63,6.622-3.75,14.466-3.635,21.934-4.4s15.476-2.926,19.872-9.623A49.509,49.509,0,0,1,127.567,115.6c-5.9,5.164-12.537,9.177-19.138,13.165C97.976,135.083,87,141.554,74.954,141.623c-4.363.025-8.772-.8-13.081-.185a15.516,15.516,0,0,0-2.868.7q-3.617,4.607-7.591,8.835-2.939,3.122-5.942,6.072a58.352,58.352,0,0,1,27.462-5.508c9.959.287,19.873,2.594,29.53,5.768,4.338,1.425,8.663,3.033,13.116,3.716s9.119.38,13.043-1.868c-3.989,4.29-8.023,8.617-12.8,11.745s-10.441,4.99-16.019,3.939c-5.216-.982-9.9-4.384-15.021-5.974-6.122-1.9-12.553-1.132-18.8-2.257-5.127-.924-10.057-3.112-15.164-4.2a24.971,24.971,0,0,0-5.887-.592c-1.653.047-3.556.957-5.154.765-.058-.007-.105-.017-.159-.025a116.619,116.619,0,0,1-29.508,19.779,6.386,6.386,0,0,1-2.667.761,2.61,2.61,0,0,1-2.363-1.46,3.1,3.1,0,0,1,.644-3.2,7.27,7.27,0,0,1,2.69-1.645,126.7,126.7,0,0,0,25.411-14.645c-1.4-1.486-1.895-7.449-2.5-9.208a65.17,65.17,0,0,0-5.782-11.954c-4.3-7.239-9.257-14.244-11.543-22.5a49.972,49.972,0,0,1-.767-20.775,141.085,141.085,0,0,1,5.049-19.924c-1.243,4.614.27,9.727,2.373,14.08s4.822,8.391,6.288,13.041c2.2,7,1.376,14.77,3.8,21.683,1.61,4.594,4.554,8.494,6.367,13A28.337,28.337,0,0,1,38.89,153.2a25.907,25.907,0,0,1-1.373,6.108q1.814-1.445,3.585-2.959a95.751,95.751,0,0,0,10.536-10.688,16.809,16.809,0,0,0-.588-11.124c-2.109-4.981-6.46-8.446-8.657-13.382-2.043-4.59-1.992-9.9-3.231-14.811-1.3-5.152-4.023-9.87-4.8-15.133-2.025-13.717,9.558-25.785,7.92-39.551,2.646,16.982,5.6,33.958,10.124,50.509,1.382,5.058,2.91,10.069,4.294,15.126,1.669,6.1,3.269,12.9,2.089,19.195,2.719-3.771,5.293-7.651,7.732-11.524q2.433-3.864,4.689-7.869a18.251,18.251,0,0,0,.356-3.923,45.578,45.578,0,0,0-1.4-9.147c-1.19-5.331-2.422-10.776-5.09-15.435-2.032-3.55-4.831-6.517-6.717-10.164C54.385,70.739,55.043,61.3,56.612,52.8s3.933-17.044,2.946-25.767C65.8,38.81,67.9,52.577,69.735,65.982q2.111,15.4,3.974,30.823a62.323,62.323,0,0,1,.663,11.428,28.532,28.532,0,0,1-.566,4.111q1.918-3.637,3.692-7.371C77.981,103.955,78.486,102.912,79,101.854Z" transform="translate(350.466 494.428) rotate(9)" fill="#f3f9ff"/>
          <g id="Grupo_1054533" data-name="Grupo 1054533" transform="translate(1193.728 155.147)">
            <path id="Trazado_774471" data-name="Trazado 774471" d="M1720.1,181.042c-.429,2.36-.621,5.352,1.213,6.951,1.366,1.191,3.06,2.231,4.849,1.856,3.289-.688,3.163-3.532,3.368-6.841a13.724,13.724,0,0,0-.448-5.228,4.769,4.769,0,0,0-3.321-3.367,4.226,4.226,0,0,0-3.936,1.968A11.462,11.462,0,0,0,1720.1,181.042Z" transform="translate(-1694.052 -93.039)" fill="#f5947a"/>
            <path id="Trazado_774472" data-name="Trazado 774472" d="M1700.169,144.006a4.619,4.619,0,0,0-.165-1.4,4.42,4.42,0,0,0-.519-.984l-1.265-1.973a6.093,6.093,0,0,0-1.633-1.913,3.243,3.243,0,0,0-3.036-.134,8.089,8.089,0,0,0-2.583,1.983,10.853,10.853,0,0,0-2.3,3.358c-2.055,5.117,1.8,11.5,5.885,13.67C1700.451,159.745,1700.211,147.562,1700.169,144.006Z" transform="translate(-1677.797 -76.466)" fill="#f5947a"/>
            <path id="Trazado_774473" data-name="Trazado 774473" d="M1679.778,102.156a5.227,5.227,0,0,0-1.343-1.978c-2.149-2.287-4.379-4.631-7.145-5.783a3.14,3.14,0,0,0-2.608-.164c-1.259.637-1.626,2.449-1.7,4.011-.195,4.07,1.163,9.916,5.383,10.76C1675.212,109.571,1680.974,106.075,1679.778,102.156Z" transform="translate(-1666.963 -57.118)" fill="#f5947a"/>
            <path id="Trazado_774474" data-name="Trazado 774474" d="M1697.85,48.306c-1.031-2.258-2.791-4.524-5.03-4.41-1.458.075-2.706,1.153-3.848,2.184a10.516,10.516,0,0,0-3.235,4.138,10.385,10.385,0,0,0-.465,2.773c-.366,5.739,3.554,11.113,9.059,9.843C1700.012,61.524,1699.92,52.838,1697.85,48.306Z" transform="translate(-1676.336 -34.716)" fill="#f5947a"/>
            <path id="Trazado_774475" data-name="Trazado 774475" d="M1741.922,36.637a10.008,10.008,0,0,0,.811-2.6,9.58,9.58,0,0,0-.668-4.123,4.174,4.174,0,0,0-1.422-2.339c-.969-.6-2.17-.124-3.151.451-3.213,1.884-5.889,4.735-8.52,7.55a8.545,8.545,0,0,0-1.445,1.87,6.638,6.638,0,0,0-.642,2.861c-.1,3.933,2.977,8.275,6.723,6.9C1737.864,45.641,1740.151,40.895,1741.922,36.637Z" transform="translate(-1697.677 -27.298)" fill="#f5947a"/>
            <path id="Trazado_774476" data-name="Trazado 774476" d="M1721.2,99.39a7.9,7.9,0,0,0,1.556-2.145,4.189,4.189,0,0,0-1.192-3.934,11.692,11.692,0,0,0-4.316-2.891,4.313,4.313,0,0,0-3.136-.358,3.986,3.986,0,0,0-2.133,2.6,13.316,13.316,0,0,0-.461,3.625c-.1,2.98-.035,8.359,3.472,8.883C1718.27,105.664,1719.5,101.573,1721.2,99.39Z" transform="translate(-1689.792 -55.277)" fill="#f5947a"/>
            <path id="Trazado_774477" data-name="Trazado 774477" d="M1763.852,82.464a5.707,5.707,0,0,0-3.423-5.541,7.339,7.339,0,0,0-3.852-.05,9.165,9.165,0,0,0-3.046,1.054c-2.1,1.27-3.381,3.833-3.97,6.449a10.558,10.558,0,0,0-.176,4.4,6.97,6.97,0,0,0,9.016,4.984C1762.288,92.361,1763.685,86.541,1763.852,82.464Z" transform="translate(-1709.13 -49.354)" fill="#f5947a"/>
            <path id="Trazado_774478" data-name="Trazado 774478" d="M1788.036,127.133a14.085,14.085,0,0,0,.273-3.509c-.009-1.577-.068-3.306-.994-4.482-1.007-1.278-2.687-1.46-4.2-1.508a10.187,10.187,0,0,0-3.481.319,4.388,4.388,0,0,0-2.714,2.334,5.471,5.471,0,0,0-.042,3.787c.891,2.776,2.993,5.773,5.635,6.46A4.586,4.586,0,0,0,1788.036,127.133Z" transform="translate(-1723.145 -67.671)" fill="#f5947a"/>
            <path id="Trazado_774479" data-name="Trazado 774479" d="M1743.659,138.644a11.556,11.556,0,0,0-2.491-5.271c-1.711-2.372-3.746-4.809-6.42-5.245a2.125,2.125,0,0,0-1.994.521,2.789,2.789,0,0,0-.521,1.086,10.914,10.914,0,0,0,.2,6.017,26.045,26.045,0,0,0,2.494,5.414c1.062,1.867,2.924,4.98,5.256,4.289C1742.436,144.788,1743.94,141.04,1743.659,138.644Z" transform="translate(-1700.249 -72.349)" fill="#f5947a"/>
            <path id="Trazado_774480" data-name="Trazado 774480" d="M1782.256,165.845a6.482,6.482,0,0,0-1.863-4.861,5.676,5.676,0,0,0-4.048-.941,5.061,5.061,0,0,0-3.184,1.036c-1.175,1.051-1.517,2.889-1.651,4.579a17.538,17.538,0,0,0,.315,5.62c.716,2.861,3.395,6.628,6.233,4.743C1780.85,174.166,1782.334,169.288,1782.256,165.845Z" transform="translate(-1720.509 -86.624)" fill="#f5947a"/>
          </g>
          <g id="Grupo_1054534" data-name="Grupo 1054534" transform="translate(148.179 609.25)">
            <path id="Trazado_774481" data-name="Trazado 774481" d="M1719.961,177.845c-.223,1.229-.323,2.788.632,3.62a3.057,3.057,0,0,0,2.525.967c1.713-.359,1.648-1.84,1.754-3.563a7.149,7.149,0,0,0-.233-2.723,2.484,2.484,0,0,0-1.73-1.754,2.2,2.2,0,0,0-2.05,1.025A5.97,5.97,0,0,0,1719.961,177.845Z" transform="translate(-1706.394 -132.007)" fill="#f5947a"/>
            <path id="Trazado_774482" data-name="Trazado 774482" d="M1694.386,140.789a2.41,2.41,0,0,0-.086-.728,2.3,2.3,0,0,0-.27-.512l-.659-1.028a3.173,3.173,0,0,0-.851-1,1.689,1.689,0,0,0-1.581-.07,4.21,4.21,0,0,0-1.345,1.033,5.649,5.649,0,0,0-1.2,1.749c-1.07,2.666.938,5.991,3.066,7.12C1694.533,148.987,1694.408,142.641,1694.386,140.789Z" transform="translate(-1682.733 -105.61)" fill="#f5947a"/>
            <path id="Trazado_774483" data-name="Trazado 774483" d="M1673.638,98.252a2.722,2.722,0,0,0-.7-1.03,11.674,11.674,0,0,0-3.721-3.012,1.635,1.635,0,0,0-1.358-.085c-.656.332-.847,1.275-.886,2.089-.1,2.12.606,5.165,2.8,5.6C1671.26,102.115,1674.261,100.294,1673.638,98.252Z" transform="translate(-1666.963 -74.794)" fill="#f5947a"/>
            <path id="Trazado_774484" data-name="Trazado 774484" d="M1691.812,46.191c-.537-1.176-1.454-2.356-2.62-2.3a3.536,3.536,0,0,0-2,1.137,5.477,5.477,0,0,0-1.685,2.155,5.4,5.4,0,0,0-.243,1.444c-.19,2.989,1.851,5.788,4.719,5.127C1692.938,53.076,1692.89,48.552,1691.812,46.191Z" transform="translate(-1680.606 -39.113)" fill="#f5947a"/>
            <path id="Trazado_774485" data-name="Trazado 774485" d="M1734.716,32.162a5.219,5.219,0,0,0,.423-1.354,4.99,4.99,0,0,0-.348-2.147,2.176,2.176,0,0,0-.74-1.218,1.627,1.627,0,0,0-1.641.235,20.884,20.884,0,0,0-4.438,3.933,4.442,4.442,0,0,0-.753.974,3.456,3.456,0,0,0-.334,1.49c-.052,2.049,1.551,4.31,3.5,3.593C1732.6,36.853,1733.794,34.38,1734.716,32.162Z" transform="translate(-1711.671 -27.298)" fill="#f5947a"/>
            <path id="Trazado_774486" data-name="Trazado 774486" d="M1716.554,94.839a4.114,4.114,0,0,0,.811-1.117,2.181,2.181,0,0,0-.621-2.049,6.089,6.089,0,0,0-2.248-1.506,2.247,2.247,0,0,0-1.634-.186,2.077,2.077,0,0,0-1.111,1.356,6.932,6.932,0,0,0-.24,1.888c-.05,1.552-.019,4.354,1.809,4.627C1715.026,98.107,1715.667,95.976,1716.554,94.839Z" transform="translate(-1700.193 -71.862)" fill="#f5947a"/>
            <path id="Trazado_774487" data-name="Trazado 774487" d="M1756.843,79.674a2.972,2.972,0,0,0-1.783-2.886,3.823,3.823,0,0,0-2.007-.026,4.775,4.775,0,0,0-1.587.549,5.187,5.187,0,0,0-2.068,3.359,5.5,5.5,0,0,0-.092,2.292,3.63,3.63,0,0,0,4.7,2.6C1756.029,84.829,1756.756,81.8,1756.843,79.674Z" transform="translate(-1728.341 -62.428)" fill="#f5947a"/>
            <path id="Trazado_774488" data-name="Trazado 774488" d="M1782.54,122.574a7.338,7.338,0,0,0,.142-1.828,3.819,3.819,0,0,0-.518-2.334,2.731,2.731,0,0,0-2.186-.785,5.306,5.306,0,0,0-1.813.166,2.285,2.285,0,0,0-1.413,1.216,2.85,2.85,0,0,0-.022,1.973c.464,1.446,1.559,3.007,2.935,3.365A2.389,2.389,0,0,0,1782.54,122.574Z" transform="translate(-1748.74 -91.602)" fill="#f5947a"/>
            <path id="Trazado_774489" data-name="Trazado 774489" d="M1738.025,133.584a6.02,6.02,0,0,0-1.3-2.745c-.891-1.235-1.951-2.5-3.344-2.732a1.107,1.107,0,0,0-1.038.271,1.449,1.449,0,0,0-.272.566,5.684,5.684,0,0,0,.106,3.134,13.576,13.576,0,0,0,1.3,2.82c.553.972,1.523,2.594,2.738,2.234C1737.387,136.784,1738.171,134.831,1738.025,133.584Z" transform="translate(-1715.413 -99.053)" fill="#f5947a"/>
            <path id="Trazado_774490" data-name="Trazado 774490" d="M1777.066,163.053a3.376,3.376,0,0,0-.97-2.532,2.956,2.956,0,0,0-2.109-.49,2.636,2.636,0,0,0-1.658.54,3.553,3.553,0,0,0-.86,2.385,9.133,9.133,0,0,0,.164,2.927c.373,1.49,1.768,3.452,3.247,2.47C1776.333,167.387,1777.106,164.846,1777.066,163.053Z" transform="translate(-1744.904 -121.79)" fill="#f5947a"/>
          </g>
          <path id="Trazado_774491" data-name="Trazado 774491" d="M87.756,104.209c2.866-20.821-.974-43.484,3.371-64,1.567-7.4,4.173-14.378,6.771-21.33L101.666,8.8c3.4,28.8.456,57.68-8.44,83.68A128.2,128.2,0,0,1,89.438,105.3q1.906-3.581,3.818-7.156c4.271-7.969,8.585-16,14.4-22.687,5.16-5.934,11.392-10.682,17.218-15.878s11.365-11,14.647-18.4A29.309,29.309,0,0,1,137.008,58.1c-2.291,5.109-5.584,9.544-8.853,13.939-6.492,8.729-13.022,17.5-20.893,24.819-4.41,4.175-9.292,7.776-13.967,11.612-2.071,1.7-5,3.706-7.491,5.984a122.8,122.8,0,0,1-14.938,25.173c8.512-3.707,16.966-7.578,23.886-13.746,4.855-4.326,8.938-9.767,14.712-12.7,6.7-3.4,14.775-2.987,22.44-3.447s15.838-2.259,20.146-8.6c-2.8,7.447-7.932,13.489-13.839,18.288S125.6,127.872,118.935,131.5c-10.555,5.744-21.645,11.62-34.045,11.23-4.491-.141-9.058-1.112-13.474-.676a16.046,16.046,0,0,0-2.93.57q-3.574,4.343-7.528,8.3-2.924,2.925-5.92,5.679c8.634-3.743,18.368-4.937,28.095-4.315,10.263.657,20.546,3.277,30.592,6.729,4.513,1.551,9.018,3.278,13.625,4.111s9.4.715,13.368-1.322c-3.967,4.02-7.979,8.076-12.8,10.936s-10.588,4.456-16.364,3.223c-5.4-1.153-10.34-4.639-15.66-6.38-6.365-2.082-12.961-1.577-19.428-2.908-5.309-1.093-10.456-3.408-15.749-4.658a27.8,27.8,0,0,0-6.081-.8c-1.7-.017-3.63.8-5.281.548-.06-.009-.109-.02-.165-.03a109.87,109.87,0,0,1-29.736,18.115,6.535,6.535,0,0,1-2.722.639,2.945,2.945,0,0,1-2.481-1.51,2.791,2.791,0,0,1,.559-3.085,6.924,6.924,0,0,1,2.716-1.5,121.423,121.423,0,0,0,25.685-13.278c-1.488-1.5-2.194-7.316-2.874-9.049A67.5,67.5,0,0,0,34,140.233c-4.662-7.2-10-14.2-12.618-22.32a46.475,46.475,0,0,1-1.467-20.232A124.555,124.555,0,0,1,24.461,78.5c-1.129,4.44.595,9.47,2.9,13.782s5.238,8.343,6.9,12.921c2.5,6.888,1.9,14.416,4.618,21.23,1.808,4.528,4.965,8.433,6.978,12.881a26.963,26.963,0,0,1,2.278,13.309,22.969,22.969,0,0,1-1.214,5.888q1.821-1.337,3.595-2.741a86.3,86.3,0,0,0,10.5-9.994,15.713,15.713,0,0,0-.967-10.84c-2.333-4.924-6.926-8.458-9.349-13.342-2.253-4.541-2.373-9.7-3.81-14.526-1.506-5.06-4.464-9.751-5.435-14.9-2.531-13.416,9-24.713,6.865-38.162C51.6,70.62,55.2,87.241,60.39,103.508c1.587,4.971,3.324,9.9,4.914,14.872,1.917,5.995,3.786,12.666,2.776,18.745,2.676-3.564,5.2-7.239,7.585-10.914q2.379-3.666,4.571-7.475a16.508,16.508,0,0,0,.238-3.8,43.576,43.576,0,0,0-1.737-8.948c-1.4-5.229-2.845-10.571-5.743-15.2-2.208-3.529-5.187-6.521-7.247-10.139C61.4,73.017,61.772,63.859,63.11,55.653S66.6,39.227,65.3,30.707C72.113,42.4,74.722,55.868,77.051,68.973q2.675,15.052,5.1,30.125A58.2,58.2,0,0,1,83.2,110.237a25.59,25.59,0,0,1-.448,3.976q1.856-3.464,3.561-7.028C86.779,106.214,87.264,105.219,87.756,104.209Z" transform="translate(1330.746 326.964) rotate(-150)" fill="#f3f9ff"/>
          <path id="Trazado_774492" data-name="Trazado 774492" d="M1726.335,902.811c-16.646-3.32-34.424-17.166-32.746-37.187,1.342-16.016,14.6-28.064,17.654-43.845,3.716-19.2-8.7-36.642-22.054-47.46s-29.125-19.259-37.414-35.684c-12.725-25.217-2.779-59.125,11.839-84.435,11.9-20.607,28.874-40.184,49.577-42.443,8.537-.932,16.99,1.207,25.025,4.185,57.9,21.455,96.4,84.4,120.734,149.558C1893.037,856.766,1792.006,915.91,1726.335,902.811Z" transform="translate(-403.882 -244.908)" fill="#f5947a"/>
          <path id="Trazado_774493" data-name="Trazado 774493" d="M1453.685,1077.65c2.194,1.288-2.793,1.545-3.089-1.238-2.037-19.135,10.247-37.234,25.344-46.07s32.551-10.458,49.47-12.189,34.416-3.943,49.056-13.72c21.142-14.12,32.323-41.031,44.281-65.336s28.43-49.44,52.58-54.345c19.247-3.91,38.295,6.139,57.546,10.026A92.894,92.894,0,0,0,1777.2,891.6" transform="translate(-344.478 -361.106)" fill="none" stroke="#31585e" stroke-miterlimit="10" stroke-width="1.607"/>
        </g>
      </g>
      <line id="Línea_297" data-name="Línea 297" y1="18.15" x2="18.15" transform="translate(1050.937 328.308)" fill="none" stroke="#73d8c0" stroke-linecap="round" stroke-width="18"/>
    </g>
  </g>
</svg>
